<svg width="200" height="200" viewBox="0 0 200 200" fill="none" xmlns="http://www.w3.org/2000/svg">
<path d="M69.4999 168.778C68.7499 168.055 68.3999 166.941 68.6999 165.828L77.6499 129.866L77.8499 129.254L73.6999 121.905C73.5002 121.574 73.3735 121.194 73.3301 120.798C73.2866 120.401 73.3277 119.999 73.4499 119.623L74.0499 117.452L68.3499 117.007C62.9499 116.561 61.0999 115.782 59.7999 115.003C54.3999 111.718 52.9499 102.255 52.6499 99.4155L52.2499 96.2424C52.0999 94.9063 52.3999 93.6816 53.0499 92.791C53.5999 92.0673 54.3499 91.6776 55.1499 91.5106C42.6999 79.0965 31.4499 63.6208 35.2999 41.6875C39.5499 17.4717 57.0999 10.1235 57.7999 9.7895C58.0499 9.67817 58.3499 9.6225 58.6499 9.6225C59.5499 9.6225 60.4499 10.1792 60.8499 11.0699C61.1499 11.7379 61.2499 12.5173 61.0499 13.1296C66.8499 7.61844 72.3499 5.2247 74.6999 4.38968C74.9499 4.27834 75.1999 4.22267 75.4499 4.22267C76.3999 4.22267 77.2999 4.83502 77.7499 5.83705C78.2999 7.17309 77.8499 8.67614 76.7999 9.34416C71.5487 12.9777 67.0222 17.771 63.4999 23.4282C67.6999 22.3705 70.5499 22.1479 71.5499 22.1479H72.0499C73.2999 22.2592 74.2999 23.2612 74.3999 24.6529C74.5499 26.0447 73.6999 27.2694 72.4999 27.659C72.4499 27.659 65.5499 29.6631 57.9499 35.7309C56.4999 40.5741 55.8499 45.6956 55.8499 50.8727C55.8999 60.6703 58.7499 70.7463 63.6499 78.4842C64.8499 80.3213 65.9999 81.9356 67.1999 83.383C66.6999 73.307 69.2499 57.5529 85.5999 50.2047C85.8999 50.0377 86.2499 50.0377 86.5499 50.0377C87.4499 50.0377 88.3999 50.5944 88.7999 51.5407C89.0841 52.1654 89.1441 52.887 88.9676 53.5591C88.7912 54.2312 88.3915 54.8033 87.8499 55.1592L87.6999 55.2705C85.1499 57.0519 82.9999 59.5013 81.4499 62.2291C83.2499 61.6167 84.7499 61.4497 85.7999 61.2827L85.9499 61.227H86.2499C87.2499 61.227 88.2499 61.9507 88.5999 63.0641C89.0499 64.2888 88.5499 65.6805 87.6499 66.3485L87.5499 66.4042C87.4999 66.4042 87.4499 66.4599 87.4499 66.4599C82.2499 69.7999 79.3499 73.7524 78.8499 78.1502C78.2999 82.9377 80.6999 87.4468 82.3999 89.9519C86.7499 84.2737 89.5999 74.6431 90.3999 70.9133C90.6499 69.6329 91.6999 68.7979 92.7999 68.7979H93.0999C94.3999 68.9649 95.2999 70.1896 95.2999 71.5813C95.3999 83.4387 92.5499 91.5662 89.5999 96.8547C93.9999 99.3041 98.2999 99.4712 99.2999 99.4712H99.5499H99.8499C100.8 99.4712 105.05 99.3041 109.55 96.7991C106.6 91.5663 103.75 83.4944 103.75 71.5813C103.75 70.134 104.7 68.9649 105.95 68.7979H106.25C107.4 68.7979 108.4 69.6329 108.65 70.9133C109.45 74.5874 112.35 84.2737 116.75 89.8962C118.4 87.3911 120.8 82.8263 120.25 78.0945C119.7 73.6967 116.8 69.7999 111.6 66.4599C111.55 66.4599 111.45 66.3485 111.45 66.3485C110.5 65.6248 110 64.2888 110.45 63.0641C110.85 62.0064 111.75 61.227 112.8 61.227H113.1H113.25C114.25 61.394 115.85 61.561 117.6 62.1734C116 59.5013 113.85 57.1076 111.3 55.2705L111.15 55.1592C110 54.3798 109.6 52.8211 110.2 51.5407C110.65 50.5944 111.5 49.982 112.45 49.982C112.772 49.983 113.093 50.0394 113.4 50.149C129.75 57.3859 132.45 73.14 131.95 83.216C133.2 81.7686 134.3 80.1543 135.5 78.3172C140.4 70.5793 143.2 60.4477 143.2 50.65C143.2 45.4172 142.45 40.4071 141 35.5083C133.3 29.3848 126.45 27.5477 126.4 27.492C125.15 27.2137 124.4 25.9333 124.5 24.4859C124.6 23.0942 125.6 22.0365 126.85 21.9252H127.35C128.3 21.9252 131.15 22.0365 135.4 23.1499C131.9 17.5831 127.35 12.7399 122 9.17715C120.9 8.45347 120.45 6.89475 121.05 5.67005C121.5 4.66802 122.35 4 123.3 4C123.55 4 123.8 4.05567 124.05 4.167C126.35 4.94636 131.9 7.3401 137.75 12.7956C137.6 12.1276 137.65 11.3482 137.9 10.7359C138.35 9.7895 139.2 9.28849 140.1 9.28849C140.35 9.28849 140.7 9.34416 140.95 9.4555C141.65 9.73384 159.25 16.9707 163.65 41.0751C167.65 62.9527 156.45 78.5399 144.05 91.0652C144.85 91.1766 145.6 91.6219 146.15 92.3456C146.85 93.2363 147.1 94.5167 147 95.797L146.7 98.9701C146.4 101.809 145.05 111.329 139.65 114.613C138.35 115.392 136.5 116.172 131.1 116.673L125.35 117.174L125.95 119.345C126.15 120.124 126.05 120.959 125.7 121.627L121.55 129.031C121.65 129.198 121.7 129.476 121.75 129.643L130.95 165.549C131.2 166.607 130.9 167.776 130.15 168.5L99.7999 196L69.4999 168.778Z" fill="#EDE0C5"/>
<path d="M37.8001 42.1885C41.8501 19.3088 58.7501 12.4616 58.7501 12.4616C52.5501 17.6387 46.2501 27.158 43.7001 40.6298C46.2501 37.1227 48.6001 34.5062 51.3501 32.3352C58.2001 15.8574 69.8502 9.23283 75.5502 7.11743C68.1002 12.1276 61.9002 19.6428 58.1502 28.2714C66.7502 24.82 71.9002 25.0983 71.9002 25.0983C71.9002 25.0983 64.2001 27.2137 55.8001 34.1166C54.2001 39.4051 53.2501 45.0832 53.3001 50.9841C53.3501 61.394 56.3501 72.0824 61.6001 80.2099C64.5501 84.7747 67.3501 87.9478 70.8501 90.8982C69.6501 87.6138 65.2001 62.5631 86.5001 52.9881L86.3501 53.0995C81.3501 56.7736 77.6502 62.3961 76.1502 69.0763C80.0001 64.9011 84.1502 64.4558 86.3002 64.1775C86.2502 64.1775 86.2001 64.2331 86.2001 64.2331C66.4501 76.9812 82.2001 94.1827 82.2001 94.1827C88.4501 88.3932 92.0502 75.2554 92.8002 71.6927C92.9502 85.4984 88.8001 93.7373 86.0001 97.8011C92.4002 102.644 99.5502 102.366 99.5502 102.366C99.5502 102.366 106.7 102.644 113.05 97.8011C110.25 93.793 106.1 85.4984 106.1 71.7483C106.9 75.3668 110.55 88.3375 116.8 94.127C116.8 94.127 132.45 76.8698 112.65 64.1775C112.6 64.1775 112.55 64.1218 112.55 64.1218C114.7 64.4001 118.85 64.8455 122.7 68.9649C121.15 62.3404 117.5 56.6622 112.35 53.0995L112.2 52.9881C133.55 62.4517 129.2 87.5582 128.05 90.8426C131.6 87.8922 134.4 84.7191 137.25 80.0986C142.4 71.9154 145.35 61.227 145.35 50.8171C145.35 44.8605 144.4 39.238 142.7 34.0052C134.5 27.2137 126.75 25.0983 126.75 25.0983C126.75 25.0983 131.95 24.7643 140.6 28.1601C136.8 19.5871 130.6 12.1832 123.1 7.1731C128.85 9.23283 140.55 15.8017 147.45 32.2238C150.2 34.3392 152.6 36.9556 155.15 40.4071C152.55 26.8797 146.25 17.3047 140 12.2946C140 12.2946 156.9 19.0304 161.1 41.9101C165.95 68.5196 146.85 85.2201 131.5 99.5825L143.25 94.1827C144.05 93.7373 144.6 94.6837 144.5 95.6857L144.2 98.9145C144.05 100.64 142.9 109.77 138.4 112.442C137.45 113.054 135.75 113.722 130.9 114.168L122.1 114.836L123.6 120.347L114.95 135.878L119.35 130.645L128.55 166.551L103.75 189.431L111.4 150.185L99.8002 165.939L88.2001 150.074L96.0502 189.264L71.1001 166.551L80.0502 130.59L84.5001 135.823L75.8501 120.347L77.3002 114.836L68.4002 114.223C63.5002 113.778 61.8502 113.166 60.9002 112.553C56.4501 109.881 55.2501 100.807 55.1001 99.0258L54.7001 95.7971C54.5501 94.795 55.1502 93.96 55.9501 94.294L67.7501 99.5825C52.3001 85.4984 33.1001 68.7979 37.8001 42.1885ZM149.45 70.468C149.45 70.468 159.2 53.2665 152.45 43.6915C151.75 42.7452 151 41.8545 150.3 40.9081C153.1 51.8748 149.45 70.468 149.45 70.468ZM49.7501 70.802C49.7501 70.802 46.0501 52.2644 48.7501 41.3534C48.0501 42.1885 47.3001 43.0792 46.6502 44.1369C40.0002 53.6561 49.7501 70.802 49.7501 70.802Z" fill="#00471A"/>
<path d="M125.15 110.215C129.5 109.77 134.5 109.937 136.55 108.656C139.55 106.819 140.35 98.7473 140.35 98.7473C137.05 102.366 129.95 108.1 125.15 110.215ZM104.85 146.956H99.8H94.75L97.15 150.63H99.8H102.45L104.85 146.956ZM107.6 115.559C108.85 116.895 111.05 118.12 113.7 115.837C115.1 114.613 115.1 112.831 115 111.718C114.9 111.161 114.35 110.827 113.9 111.05L107.85 114.112C107.35 114.39 107.2 115.058 107.6 115.559ZM90.65 131.48L89.25 138.494L92.8 143.727H96.5L93.05 138.105L93.5999 134.653C94.4033 135.601 95.3719 136.357 96.4466 136.874C97.5212 137.391 98.6793 137.658 99.8499 137.659C102.3 137.659 104.55 136.435 106.1 134.598L106.65 138.049L103.2 143.672H106.9L110.4 138.383L108.95 131.369C105.6 129.031 104.85 125.635 104.85 125.635L102.5 117.118L99.8 118.565L97.0999 117.118L94.8 125.635C94.75 125.746 94 129.142 90.65 131.48ZM85.8 115.893C88.5 118.176 90.7 116.895 91.9 115.615C92.35 115.114 92.1499 114.501 91.6999 114.167L85.65 111.106C85.15 110.883 84.65 111.217 84.55 111.774C84.35 112.943 84.4 114.724 85.8 115.893ZM58.95 99.0257C58.95 99.0257 59.8 107.042 62.9 108.935C64.95 110.215 69.9499 109.992 74.3499 110.382C69.4499 108.322 62.35 102.588 58.95 99.0257Z" fill="white"/>
</svg>
