<svg width="200" height="200" viewBox="0 0 200 200" fill="none" xmlns="http://www.w3.org/2000/svg">
<path d="M195.934 50.4604C195.189 37.1061 189.164 25.1183 185.624 17.9752L185.189 17.1057L183.636 14L183.947 17.4783C184.381 22.2611 185.437 38.6589 180.53 47.9759C174.443 60.5228 156.679 59.3426 150.84 58.9078L150.405 58.8457C140.778 58.2246 109.535 57.0444 99.9695 57.1066C87.2984 57.1687 73.323 58.1625 62.0805 59.0321C56.6145 59.4669 51.8318 59.7774 48.664 59.9016C48.4156 59.9016 48.0429 59.9638 47.4839 60.0259C31.7692 61.4545 21.769 56.8581 17.918 46.2367C15.5577 39.7149 15.6198 26.8574 15.6198 20.6461V18.8448V16.2361L14.3775 18.5343C11.3961 24.0002 5.93014 34.1868 4.06674 51.0816C3.07293 71.0199 13.3837 78.1008 21.2721 81.7655C29.471 85.5544 37.8563 86.1134 40.6514 86.2998H40.8378H40.7756C41.3968 86.424 42.0179 86.424 42.639 86.4861C43.5086 86.5482 44.4403 86.6103 45.3099 86.7346L40.1545 87.6663L35.6824 88.4737C33.819 88.8464 25.9306 90.7098 21.5827 92.2005C17.918 93.4428 14.067 95.2441 14.0049 95.3062L13.3216 95.6167L13.8185 96.2379C13.8806 96.3 15.185 98.1013 16.5515 99.4678C19.3466 102.201 27.1107 107.108 36.4898 105.99C43.9434 105.058 47.9808 103.319 49.5336 102.511C50.0305 104.126 51.2107 107.853 52.3287 110.772C55.7449 119.158 63.3848 135.183 66.3042 140.711C68.6645 145.245 70.9627 149.22 72.4534 151.829L73.0124 152.823C72.5155 154.562 71.2732 155.618 70.4036 156.426C70.1667 156.6 69.9573 156.81 69.7825 157.047L69.5962 157.233V157.481C69.534 159.034 69.1614 172.948 78.6026 183.134L78.7268 183.258L78.9131 183.321C83.6337 185.122 89.783 186.985 99.659 186.985C109.783 186.985 118.231 184.563 121.274 183.072L121.399 183.01L121.523 182.886C128.107 175.122 131.15 163.32 131.212 159.096V158.724L131.026 158.537C130.84 158.351 130.716 158.227 130.467 158.04C129.473 157.047 128.169 155.867 127.486 152.947C128.293 151.581 129.846 148.289 131.15 145.556C131.834 144.065 132.517 142.761 132.827 142.14C135.622 136.736 143.759 119.22 146.989 110.959C149.039 105.741 150.157 103.132 150.716 102.014C152.145 102.76 155.996 104.499 163.263 105.244C172.704 106.238 181.71 99.8404 184.195 96.4242C184.63 95.8031 185.313 95.0577 185.313 95.0577L185.934 94.4366L185.127 94.0639C185.065 94.0639 184.754 93.8776 183.325 93.4428L178.108 91.6415L172.89 89.8402C171.524 89.3433 165.126 87.9768 160.406 86.9209L156.865 86.1755L157.983 85.9892C168.915 83.9395 197.549 78.9083 195.934 50.4604Z" fill="black"/>
<path d="M6.61338 44.746C8.16621 36.6092 10.775 29.0314 14.3775 21.702L14.4396 21.5778H14.5018H14.5639H14.7502V21.7641C14.6243 23.998 14.5622 26.235 14.5639 28.4723C14.5639 33.8762 14.9365 39.3422 16.1167 44.2491L16.2409 44.746L15.8682 44.4354C14.3154 43.0689 12.7626 41.454 11.1476 40.0254C9.71904 41.6403 8.35255 43.3795 6.92395 44.9323L6.55127 45.305L6.61338 44.746ZM193.139 41.3919C191.027 34.4973 189.226 27.6028 185.748 21.2672L185.499 21.3293C185.624 23.5033 185.686 25.6773 185.686 27.8512C185.686 33.1308 185.251 38.2862 184.381 43.3174L184.319 43.5658L184.568 43.4416C186.245 42.6342 187.86 41.5782 189.537 40.8329L193.698 43.8143L193.139 41.3919ZM125.933 114.934L125.622 115.12C123.262 116.114 120.902 117.17 118.355 117.729C116.678 118.164 115.001 118.35 113.386 118.35C108.231 118.35 103.324 116.176 100.28 111.58L100.156 111.393L100.032 111.518C99.4105 112.077 99.0378 112.698 98.4167 113.319C95.1868 117.046 90.4662 118.474 85.6835 118.474C81.9567 118.474 78.1678 117.605 75 116.3L74.6894 116.114L74.8137 116.425C77.2361 122.884 78.7268 130.027 78.7268 137.17C78.7268 140.4 78.4162 143.63 77.733 146.798C77.2982 148.972 76.5528 151.332 75.9317 153.506L75.8075 153.817L76.118 153.63C82.9505 149.966 91.3358 148.164 99.7211 148.164C107.609 148.164 115.498 149.842 122.082 153.134C123.138 153.568 124.194 154.314 125.125 154.624L125.374 154.748L125.25 154.5C123.324 148.848 122.206 142.823 122.206 136.487V136.239V135.059C122.206 128.164 123.635 121.394 125.684 115.307L125.933 114.934ZM58.8506 121.58C58.1052 120.648 57.4841 119.717 57.2977 118.536L57.2356 118.164L57.5462 118.35C58.7885 119.158 60.155 119.468 61.5214 119.468C64.3787 119.468 67.3601 118.102 69.6583 116.487L69.7825 116.425L69.9067 116.549L69.9688 116.611L70.031 116.673V116.735C69.7204 119.655 68.6645 123.009 65.5588 124.127C65.0619 124.251 64.6271 124.313 64.1923 124.313C62.0805 124.251 60.3413 123.071 58.8506 121.58ZM131.709 120.462C131.088 119.468 130.716 118.412 130.467 117.17L130.405 116.797L130.716 117.046C132.268 118.288 134.194 118.785 136.182 118.785C138.48 118.785 140.902 118.04 142.766 116.859L143.138 116.673L142.952 117.108C142.02 119.717 139.722 122.512 136.927 123.071C136.678 123.133 136.43 123.133 136.244 123.133C134.442 123.009 132.765 122.077 131.709 120.462ZM135.25 124.313L136.306 124.437C137.362 124.437 138.418 124.189 139.411 123.816L139.722 123.692L139.598 124.002C135.747 133.63 131.088 142.947 126.306 152.14L126.119 152.45L125.995 152.14C125.001 149.531 124.753 146.674 124.753 143.817C124.753 141.705 124.939 139.593 125.001 137.419C125.684 131.27 127.175 125.245 129.038 119.53L129.163 119.22L129.349 119.53C130.653 121.704 132.827 123.94 135.25 124.313ZM74.5652 152.202C68.7887 143.32 64.3787 134.003 60.0928 124.499L59.9065 124.065L60.2792 124.251C61.3972 124.872 62.9501 125.369 64.4408 125.369C65.4346 125.369 66.3663 125.183 67.1738 124.624C69.0371 123.319 70.1552 121.269 70.9005 119.22L71.0248 118.909L71.2111 119.22C74.3789 125.679 75.9317 133.506 75.9317 141.27C75.9317 144.935 75.6211 148.599 74.9379 152.078V152.14L74.8758 152.202L74.6894 152.388L74.5652 152.202ZM79.6585 181.83C73.6956 175.308 71.5217 166.985 71.149 158.103V158.04L71.2111 157.978C78.9753 152.326 89.3482 149.345 99.659 149.345C106.367 149.345 113.013 150.649 118.852 153.32C122.579 154.997 126.181 156.798 129.411 159.469L129.473 159.531V159.655C128.479 167.916 125.498 175.37 120.281 181.768V181.83H120.218C114.007 184.252 106.616 185.619 99.2863 185.619C92.3917 185.494 85.4971 184.314 79.6585 181.83ZM183.574 94.685L178.977 92.8837C168.977 89.0948 156.058 86.7966 145.126 86.5482C144.07 74.374 142.641 66.7341 140.281 59.8395L140.219 59.7153H140.095C134.442 59.4047 109.411 58.3488 99.7211 58.3488C90.0314 58.3488 65.4967 59.8395 59.8444 60.1501L59.7823 60.2743C57.5462 66.8583 54.9374 74.9951 53.6952 87.1072C42.639 87.7904 27.7319 90.9582 17.7316 94.7471C17.0484 94.9956 16.4894 95.3061 16.1167 95.4304C15.9304 95.5546 15.8061 95.6167 15.6819 95.6167C15.6819 95.6167 15.6198 95.6167 15.6198 95.6788L15.3092 95.3683L15.4335 95.9273C15.4335 95.9894 15.4335 95.9894 15.4956 95.9894C17.0484 97.7286 22.7007 104.499 33.1978 104.747H33.7568C37.1731 104.747 43.0117 104.126 46.8627 102.387C47.8565 101.952 49.6578 101.207 50.1547 101.021C50.3411 101.393 50.9001 102.387 51.1485 103.195C52.2666 106.3 53.6331 110.834 54.5648 112.76C55.9934 115.679 58.3537 118.04 62.2668 118.102H62.4531C65.9315 118.102 68.2918 115.307 68.7266 114.685L68.9129 114.499H68.6645C58.9748 114.002 54.9996 108.847 54.3784 101.145V101.021H54.2542C53.1362 100.834 52.3908 100.648 51.956 100.399C51.5212 100.151 51.3349 99.8404 51.1485 99.2814C51.0864 99.0329 51.0243 98.7224 51.0243 98.4739C51.0243 97.4801 51.397 96.4863 52.0802 95.3061C52.8256 94.3123 53.9436 93.3185 56.1176 93.3185C57.0493 93.3185 58.1052 93.5049 59.4717 93.9397C62.4531 94.9335 64.8756 96.859 66.5526 98.2876C68.5402 100.089 74.3789 106.114 77.9193 108.288C80.0312 109.53 83.199 110.71 86.4288 110.71C89.0376 110.71 91.6464 109.965 93.7582 107.915C98.2925 103.505 98.7894 99.7162 99.4105 97.3559L99.4726 97.1695H99.2863C91.5221 96.9832 84.1307 96.1757 77.3603 95.244C76.5528 95.1198 76.3665 94.8092 76.3665 94.5608C76.3665 94.2502 76.7392 93.8154 77.3603 93.8154C77.4845 93.8154 77.6088 93.8154 77.733 93.8775C77.733 93.8775 90.5904 95.6167 99.4726 95.6788H99.659V95.4925C99.7211 94.4366 99.7832 92.5732 99.8453 90.5234V90.3371H99.659C94.3172 90.2129 85.435 89.6538 76.9876 87.9768C76.2423 87.7905 75.9938 87.3557 75.9938 86.983C75.9938 86.6103 76.2423 86.3618 76.7392 86.2997C76.8634 86.2997 76.9876 86.2997 77.1119 86.3618C78.3541 86.6724 92.1433 88.5979 99.5968 88.5979H99.659H99.8453V88.4116C99.9074 86.7966 99.9074 84.5606 99.9074 82.3866V82.2003H99.5968H99.0999C94.2551 82.2003 87.2363 81.7034 77.2982 80.2126C76.4907 80.0884 76.1802 79.6536 76.1802 79.4052C76.1802 79.0946 76.4286 78.784 77.1119 78.784H77.2982C77.2982 78.784 89.4724 80.5853 98.9757 80.5853H99.5968H99.7832V80.4611V75.5541V75.492C99.7832 74.5603 100.218 74.1877 100.466 74.1877C100.715 74.1877 101.088 74.4982 101.088 75.3678L101.15 80.2126V80.3369V80.5232H101.336C110.529 80.2748 118.603 79.1567 122.392 78.4735C122.579 78.4114 122.827 78.4114 123.014 78.4114C123.759 78.4114 124.007 78.7219 124.007 79.0325C124.007 79.343 123.759 79.6536 123.386 79.7157C122.144 79.9021 111.523 81.9518 101.398 82.2624H101.212V82.4487C101.212 84.25 101.274 86.5482 101.336 88.4737V88.66H101.522C108.355 88.4116 116.181 88.1631 122.951 86.6724C123.262 86.6103 123.573 86.5482 123.759 86.5482C124.566 86.5482 124.815 86.8587 124.815 87.1693C124.815 87.4799 124.442 87.9147 123.448 88.101C116.864 89.2191 107.299 90.3371 101.46 90.3992H101.274V90.5855C101.336 92.2626 101.336 94.2502 101.46 95.5546V95.7409H101.647C112.516 95.4925 122.765 93.9397 124.566 93.6291C124.691 93.6291 124.815 93.567 124.939 93.567C125.622 93.567 125.933 93.9397 125.933 94.2502C125.933 94.5608 125.622 94.9956 124.815 95.1198C122.889 95.3683 110.156 96.9832 102.019 97.2317H101.833L101.895 97.418C102.702 100.151 102.889 104.188 106.864 107.605C108.79 109.282 111.46 110.027 114.193 110.027C116.864 110.027 119.597 109.282 121.958 107.977C125.56 105.865 131.212 99.7162 133.2 97.9149C134.877 96.4863 138.666 92.9458 143.759 92.9458H143.946C146.554 93.008 147.797 93.6912 148.542 94.4366C149.163 95.1819 149.287 95.9894 149.474 96.4863C149.598 96.7969 149.66 97.2317 149.66 97.6664C149.66 98.2876 149.474 98.9708 148.853 99.3435C147.921 99.9025 147.113 99.7783 146.182 100.213L146.12 100.275V100.399C145.498 104.623 144.132 109.468 140.778 112.015C138.977 113.381 136.616 114.189 134.815 114.623C132.952 115.058 131.523 115.12 131.523 115.12H131.212L131.399 115.307L132.455 116.425C133.076 116.984 134.691 117.791 136.927 117.791C137.113 117.791 137.424 117.791 137.61 117.729C140.033 117.543 142.766 115.679 143.946 114.499C145.747 112.201 147.362 107.356 148.542 104.313C148.977 103.195 149.909 101.331 150.343 100.337C151.337 100.834 151.896 101.083 153.76 101.89C157.673 103.443 162.642 104.126 165.934 104.126H166.493C171.897 103.94 178.108 100.71 181.835 97.2317C182.456 96.6105 183.698 95.1198 183.698 95.1198L183.822 94.9335L183.574 94.685Z" fill="#CD1F43"/>
<path d="M105.622 161.581C105.001 162.575 104.814 163.693 104.814 164.811C104.814 166.612 105.498 168.538 106.554 169.842C106.616 169.966 106.74 169.966 106.802 169.966C106.866 169.967 106.929 169.951 106.984 169.918C107.039 169.885 107.083 169.837 107.113 169.78V169.656C107.113 168.6 106.429 167.606 106.429 166.426C106.429 166.177 106.491 165.805 106.616 165.556L106.74 165.246L106.926 165.494C107.982 167.295 109.721 168.351 111.523 168.91C112.206 169.097 112.889 169.159 113.634 169.159C115.995 169.159 118.231 168.103 119.784 166.177C120.529 165.184 121.088 163.817 121.088 162.513C121.088 161.892 120.964 161.333 120.653 160.711C119.535 158.537 117.237 157.295 114.939 156.923C114.566 156.86 114.131 156.86 113.759 156.86C110.342 157.047 107.299 158.537 105.622 161.581ZM92.6402 170.712C92.8266 170.712 93.075 170.525 93.2614 170.215C94.1793 168.741 94.6736 167.044 94.69 165.308C94.69 164.19 94.4415 163.072 93.8204 162.078C92.8887 160.277 91.0253 158.91 89.224 158.289C88.2302 157.978 87.1121 157.792 86.0562 157.792C83.5096 157.792 81.0251 158.786 79.4722 160.836C78.8511 161.643 78.5405 162.637 78.5405 163.693C78.5405 164.252 78.6647 164.749 78.789 165.246C79.6586 167.544 81.8325 169.407 84.1928 169.842C84.7518 169.966 85.2487 170.028 85.7457 170.028C88.4786 170.028 90.9011 168.662 92.6402 166.302L92.8266 166.115L92.9508 166.364C93.0129 166.55 93.075 166.798 93.075 166.985C93.075 167.482 92.9508 167.979 92.8887 168.351C92.8266 169.035 92.2675 169.594 92.2675 170.09C92.2675 170.277 92.3297 170.401 92.4539 170.587C92.516 170.712 92.5781 170.712 92.6402 170.712ZM80.2797 179.78C86.2426 177.234 93.3856 175.805 100.466 175.805C105.87 175.805 111.15 176.612 115.871 178.414C117.051 178.973 118.355 179.345 119.535 179.718C119.846 179.345 119.97 179.221 120.156 178.911C114.38 176.053 107.485 174.749 100.591 174.749C93.1992 174.749 85.8699 176.24 79.6586 179.035C79.907 179.345 80.0312 179.532 80.2797 179.78ZM85.4351 135.618C88.9755 140.09 94.3794 142.015 99.7832 142.077C101.794 142.078 103.797 141.828 105.746 141.332C114.815 138.785 120.281 128.909 122.206 120.214C121.958 119.965 121.709 119.903 121.337 119.779C120.218 124.872 117.982 129.903 114.815 134.127C110.964 138.785 105.311 141.146 99.659 141.146C97.6714 141.146 95.6838 140.835 93.8204 140.214C85.4972 137.605 81.2114 128.475 80.4039 120.214C80.0934 120.214 79.7828 120.214 79.5343 120.4C80.2176 126.176 81.8946 131.27 85.4351 135.618Z" fill="black"/>
<path d="M17.856 50.0256C22.6387 59.2184 32.2662 62.1998 42.018 61.765C47.484 61.7029 52.7636 61.1439 58.1674 60.7712V61.1439C55.4345 68.908 53.6332 76.7964 52.5151 84.8711C38.3533 85.4301 23.8188 84.25 13.3838 74.8088C6.30292 67.6036 4.43952 57.7276 5.99235 47.9138C7.66941 45.9261 9.40858 44.187 11.2099 42.1993C13.508 44.6839 17.2348 46.6094 17.856 50.0256ZM193.947 45.864C194.32 47.2305 194.382 48.597 194.506 50.0877C195.189 61.0196 190.469 71.0199 181.152 76.5479C171.027 82.6971 159.226 84.809 146.803 85.1195C146.599 83.8619 146.433 82.5984 146.306 81.3306C145.312 74.1876 144.008 66.9204 141.958 60.0258C155.312 59.8395 171.586 63.442 180.406 51.0815C181.586 49.3424 182.767 47.7895 183.822 45.9882C185.81 45.1187 187.673 43.8143 189.599 42.8205C191.09 43.6901 192.332 44.9323 193.947 45.864ZM143.2 101.021C143.263 105.182 141.896 109.53 138.231 111.518C136.43 112.511 134.442 112.884 132.455 112.76C132.393 112.387 132.268 111.952 132.393 111.456C135.436 111.58 138.356 110.462 140.033 107.915C141.151 106.052 141.585 104.002 141.585 101.704C142.02 101.393 142.579 101.145 143.2 101.021ZM67.795 112.387C67.236 112.511 66.9875 112.574 65.9937 112.387C61.0868 112.387 55.9314 108.474 56.2419 101.828C56.8631 101.642 57.4842 101.642 58.0432 101.89C58.0432 105.679 59.5339 110.834 67.6086 110.834C68.1677 111.642 67.6086 111.766 67.795 112.387Z" fill="white"/>
</svg>
