<svg width="200" height="200" viewBox="0 0 200 200" fill="none" xmlns="http://www.w3.org/2000/svg">
<path d="M186.355 94.2087C186.355 71.1627 177.376 49.4934 161.035 33.2116C147.028 19.1445 128.95 10.4649 109.316 8.42963C108.862 7.97691 108.361 7.57543 107.819 7.23243C100.936 2.74295 95.189 6.09509 91.1784 8.01061C90.9389 8.13033 90.5199 8.25004 90.1608 8.54934C82.6783 9.44724 75.3754 11.3029 68.5514 13.8769C67.7732 12.6797 66.8154 11.5423 65.738 10.4649C61.6076 6.33453 56.0407 4 50.0547 4C37.9032 4 27.9664 13.8769 27.9664 26.0883C27.9664 31.1763 29.7024 36.0848 32.875 39.9159C20.8431 54.7012 13.6001 73.6169 13.6001 94.2686C13.6001 117.315 22.5791 138.984 38.9208 155.266C46.8821 163.227 56.1005 169.452 66.2168 173.762C65.6182 178.312 66.3964 181.365 67.2345 182.681C65.9774 183.759 65.4387 184.417 65.1992 185.615C63.164 188.368 68.0725 191.84 70.1077 193.396C74.1782 196.569 76.3331 196.03 79.6254 195.851C83.5762 195.671 87.3474 191.062 89.3826 188.009C93.6925 187.41 94.4707 188.069 94.5904 188.608C95.9073 188.428 97.8228 188.069 100.337 186.991C106.143 184.597 104.407 181.664 103.869 181.125C103.689 181.005 103.629 180.766 103.45 180.526C117.098 179.988 130.267 176.336 141.939 169.752C142.358 170.231 142.837 170.769 143.197 171.368C144.454 173.224 145.112 179.329 145.411 182.382C145.651 185.555 146.19 187.65 147.746 192.558C149.302 197.527 149.901 193.875 149.961 192.558C150.021 191.241 150.32 186.393 150.08 182.921C149.901 179.449 149.841 174.481 150.499 172.326C151.158 170.171 149.961 169.632 149.602 169.273C149.242 168.854 149.602 168.734 148.704 166.04C148.644 165.861 148.584 165.801 148.584 165.562C153.014 162.569 157.084 159.157 160.975 155.266C177.376 138.924 186.355 117.255 186.355 94.2087Z" fill="black"/>
<path d="M91.9565 176.456C90.9389 175.558 89.3227 174.421 89.0833 174.241C88.9037 174.062 88.3051 174.301 87.8262 174.481C87.8262 174.481 88.2452 174.66 88.5445 175.079C89.0234 175.558 90.3403 176.576 90.879 177.114C91.4178 177.593 91.2382 178.192 91.0586 178.611C90.9988 179.03 91.6572 178.551 92.4354 178.072C93.2734 177.593 92.9741 177.294 91.9565 176.456ZM88.5445 179.808C88.2859 179.889 88.0102 179.898 87.7468 179.835C87.4833 179.771 87.2419 179.638 87.048 179.449C86.629 179.03 84.4142 177.174 84.055 176.755C83.636 176.336 83.6959 175.798 84.055 175.558L82.3191 175.618C81.8402 175.678 81.062 175.678 81.6606 176.276L85.7311 180.167C86.2698 180.706 86.8086 180.706 87.3473 180.586C87.8861 180.526 89.1431 179.629 88.5445 179.808ZM99.6186 67.9302L100.816 64.8774L97.7629 64.9971C97.0446 64.9971 97.284 66.0746 97.1643 66.733C97.0446 67.5112 98.4214 66.8527 98.2418 67.8704C98.1819 68.2894 99.3791 68.5887 99.6186 67.9302ZM80.5233 162.389C80.3437 162.389 79.8648 162.329 79.6254 162.209H79.5057L79.0268 162.15C79.2662 162.329 79.4458 162.748 79.0867 162.928C78.5479 163.287 76.812 163.526 75.0162 163.407C73.2204 163.347 72.8014 162.329 72.7415 161.671L72.8014 160.174C72.8014 159.456 72.6218 158.917 72.981 158.618C73.4 158.378 73.3401 159.037 73.5796 159.037C74.7169 159.037 78.6676 159.456 79.6254 159.576C80.5832 159.635 80.5233 159.157 80.2839 158.498C80.224 158.318 80.0444 158.378 80.1641 158.498C80.0444 158.857 79.1465 158.678 79.1465 158.678L76.2733 158.498C75.0761 158.438 74.1782 158.318 73.5197 158.139C72.8612 158.019 71.9634 158.019 72.0232 158.318C72.0831 158.678 72.2028 162.808 72.2627 163.407C72.2627 164.005 72.3225 164.185 72.6218 164.185L79.6853 164.245C80.8825 164.245 80.7627 164.125 80.8226 163.466C80.9423 162.928 80.7627 162.389 80.5233 162.389ZM86.3896 32.9122C86.7487 33.3313 87.1079 33.6306 87.5868 33.9897C88.3649 33.0918 89.1431 32.3735 89.9213 31.6552V31.5953L91.5375 29.9791C93.2734 28.3629 94.9495 27.046 96.865 25.7889C97.9425 25.1305 98.7805 24.472 99.7982 23.8734V23.7537L101.714 22.6762L104.347 21.5389C106.024 20.9403 107.999 20.4015 110.573 19.8628C110.752 19.2642 110.752 17.8276 110.633 17.3487C110.573 15.493 108.538 13.6972 108.538 13.6972C108.717 13.5775 108.418 12.6198 108.298 11.7817C105.964 12.4402 102.971 13.6973 100.337 15.0142C99.9179 15.1937 99.9179 15.1937 98.9601 15.7325V15.6726C98.4812 15.8522 97.9425 16.2114 97.5833 16.3909C96.8052 16.81 95.5481 17.5283 94.291 18.486C92.4354 19.7431 90.1607 21.4192 88.0656 23.2748C86.8684 24.2924 84.7733 26.8065 84.7733 26.8065C84.4142 27.2854 84.1149 27.7044 83.8755 28.1235C84.055 28.6023 84.1149 29.0214 84.2945 29.3805C84.474 29.9193 85.1924 31.8946 86.3896 32.9122ZM95.8474 64.9971C94.3509 64.3386 93.034 62.7224 92.0762 60.9266C92.0762 60.9266 92.1361 60.6872 91.7171 60.6872C91.2981 60.6872 89.8614 60.5675 87.3473 59.6696C84.8332 58.7717 84.5339 59.3104 84.1747 60.3879C83.8156 61.4654 83.5761 63.3809 83.5163 66.6133C83.4564 69.8457 84.8332 71.8211 85.7311 71.5218C86.6401 71.127 87.5383 70.7078 88.4248 70.2647L91.7171 68.888C93.0939 68.4091 94.7101 67.5112 95.2488 67.152L96.1467 67.2119C96.2664 65.9548 96.2066 65.2365 95.8474 64.9971ZM114.703 59.7893C112.488 59.6696 109.914 60.0287 107.46 61.0463L106.263 61.4055C105.605 61.7647 104.767 62.064 104.168 62.483C100.756 64.5781 100.636 66.3739 101.414 66.9725C102.073 67.5711 103.629 67.8704 106.083 69.4267L107.041 70.3246L107.101 70.3845C110.752 73.0782 111.65 71.5817 112.249 70.3246C112.788 69.0676 113.985 65.2964 114.344 63.321C114.524 62.0041 114.823 60.8069 114.703 59.7893ZM90.8192 79.6627C90.2805 78.4655 90.1607 79.4233 88.6044 81.7578C87.8861 82.955 83.9952 87.2649 83.6959 87.5642C80.2839 91.7544 73.6993 97.0221 73.6993 97.0221C70.7662 99.7158 69.1499 101.691 68.1323 103.307L71.9634 115.339L76.9317 122.403C78.2486 124.617 78.2486 127.311 78.7874 126.892C79.3261 126.473 80.5832 125.276 81.0022 124.977C81.4212 124.617 81.7804 124.258 81.6008 123.48C81.4212 122.762 80.5832 118.811 80.8825 116.057C81.1219 112.885 82.6184 109.473 83.6959 107.557C84.7733 105.642 87.7663 99.596 88.6044 97.9798C89.3227 96.3636 90.6995 94.508 90.9988 93.0115C91.2981 91.515 92.615 88.103 93.1537 86.5466C93.1537 85.5888 92.2558 82.8952 90.8192 79.6627ZM122.605 114.92C122.605 113.364 121.707 112.167 119.971 109.293C118.235 106.48 117.876 105.283 117.636 102.35C117.457 100.494 117.636 98.0397 117.816 95.7052L112.788 90.6769L112.668 86.2473L112.488 85.2896C111.112 78.6451 114.284 70.7436 115.182 68.5887C116.14 66.2541 119.672 59.6696 120.989 57.6942C120.33 57.335 118.594 56.497 117.577 55.9583C116.559 55.4195 116.08 55.2399 115.841 55.5991C115.601 55.9583 115.242 56.1977 114.763 56.7963C113.805 58.1132 114.643 57.9336 114.883 57.9336C115.122 57.9336 116.26 59.4301 116.499 59.7294C116.679 60.0886 116.499 60.328 116.02 61.4055C115.362 62.7823 115.003 66.0147 114.524 67.9901C112.907 73.7965 110.453 73.2577 109.256 72.4796C108.119 71.7612 107.76 72.8986 106.622 74.5148C106.383 74.9338 105.724 75.7718 104.826 76.7296L103.809 78.286L97.5235 84.3318C97.5235 84.3318 95.3685 86.5466 94.7101 86.8459C93.8122 88.3424 93.0939 90.1382 92.0164 93.3108C90.5199 97.8002 87.2276 103.786 85.791 106.121C82.1994 111.927 81.6008 117.374 82.1395 120.786C82.6783 124.139 83.1571 123.959 83.8755 123.959C84.5938 123.959 86.3896 126.234 87.5269 127.61C88.7241 128.987 89.203 128.389 89.8016 127.97C91.7171 126.473 95.608 123.959 101.115 121.325C103.45 120.248 106.562 118.991 109.555 118.093L112.608 117.135C115.481 116.357 118.055 115.878 119.372 115.998C121.348 116.117 122.724 116.656 122.605 114.92Z" fill="#BB9753"/>
<path d="M79.6255 174.78C82.8579 174.66 87.3474 173.643 89.3228 172.745C89.5622 172.805 89.9812 173.104 90.6995 173.343C90.939 171.188 89.6221 166.699 88.8439 164.724C88.3052 163.407 87.8263 162.449 87.2277 161.072C85.4319 160.713 83.1572 159.755 81.6009 159.157C81.6009 160.414 81.7804 163.706 82.1396 165.921C81.4811 165.981 80.5234 166.04 79.3861 166.04C79.5656 168.375 79.7452 172.745 79.6255 174.78ZM139.964 167.657C139.366 167.058 140.682 165.202 141.281 161.79C141.88 158.319 141.94 152.572 139.425 149.22C138.228 147.663 137.57 146.586 137.39 145.928C129.489 151.674 120.45 155.505 110.812 157.121C110.693 157.301 110.633 157.54 110.453 157.66C109.077 159.456 106.383 162.09 104.288 163.107C102.252 164.185 99.918 164.963 98.6609 165.382C98.4215 167.537 98.0024 172.266 98.6011 173.882C98.7806 174.481 101.295 175.977 102.133 177.534C102.252 177.713 102.312 177.893 102.312 178.012C115.901 177.593 128.77 173.942 139.964 167.836C140.144 167.717 140.084 167.657 139.964 167.657ZM159.299 34.8877C146.19 21.7784 129.429 13.4579 111.351 11.0635C112.848 13.9367 113.027 17.2889 113.147 19.384C115.781 18.2466 117.696 17.6481 118.834 15.9121C119.911 14.1762 121.348 14.5353 122.306 15.7924C123.263 17.0495 123.263 18.6058 120.809 20.222C118.355 21.7784 116.499 22.4967 116.02 22.7361C115.482 22.9756 115.96 23.4545 116.559 24.4721C117.158 25.4897 118.714 27.9439 118.894 33.1517V33.3313C128.651 36.3243 137.689 41.7117 145.112 49.1942C157.144 61.226 163.788 77.2684 163.788 94.2686C163.788 104.026 161.574 113.484 157.503 122.044C158.102 122.283 158.76 124.258 159.059 126.772C159.179 128.089 159.119 129.586 158.7 130.424C158.281 131.382 155.169 136.111 153.552 137.487C152.954 138.026 151.517 137.966 150.919 137.068C150.32 136.17 150.26 136.649 149.781 137.128C149.302 137.607 147.686 139.942 147.327 140.54C146.908 141.139 145.591 141.737 146.429 144.132C147.327 146.526 148.285 148.322 147.985 149.699C147.626 151.016 147.506 151.435 149.302 152.931C151.098 154.428 151.038 156.343 150.26 157.48C149.721 158.199 149.003 160.294 148.644 162.269C169.894 147.005 183.841 122.103 183.841 94.0291C183.961 71.8212 175.162 50.7505 159.299 34.8877ZM63.0443 156.104C62.8647 153.829 62.4457 149.759 64.0619 146.885C60.8295 144.671 57.8365 142.156 54.9633 139.343C42.8716 127.251 36.287 111.209 36.287 94.2087C36.287 75.9515 44.0089 59.5499 56.2802 47.8772C56.3999 47.6977 56.5196 47.3984 56.7591 47.2188C54.664 47.8772 52.4491 48.2364 50.1745 48.2364C44.3681 48.2364 38.8011 45.9617 34.6109 41.8314C22.6988 56.6168 16.1143 74.9937 16.1143 94.2686C16.1143 116.656 24.8538 137.787 40.6568 153.53C48.1991 161.072 57.0583 167.058 66.6359 171.248C66.9951 169.452 67.5937 167.477 68.3719 165.442C69.0902 163.526 67.9528 159.037 66.0972 156.702C65.1993 156.343 63.8824 156.164 63.0443 156.104ZM85.2523 11.7219C79.9847 12.6797 74.7769 14.0565 69.8684 16.0318C71.4846 19.0847 72.2627 22.6164 72.2627 26.1481C72.2627 30.8771 70.7662 35.3666 68.0726 39.1976C72.6818 36.5039 77.71 34.4088 82.8579 32.9123C83.2171 32.5531 83.5164 32.2538 83.9354 31.9545C82.0199 28.7221 79.4459 23.5742 81.6607 16.6903C82.2593 14.6551 83.696 13.0389 85.2523 11.7219Z" fill="#008348"/>
<path d="M56.3999 66.6731C55.502 66.4336 54.8435 67.3914 54.4844 68.2294C54.0654 69.0076 53.5865 69.9055 54.9034 71.7013C56.1605 73.4971 56.9386 74.5746 59.2133 74.4549C60.2908 74.395 61.2485 73.557 61.5478 73.1379C61.8471 72.7189 61.9669 73.4971 61.4281 74.2753C60.8894 75.0534 60.4704 76.969 61.488 78.226C62.5056 79.4831 64.5408 80.5606 67.2944 78.9443C70.0479 77.3281 71.1853 75.4126 71.6641 74.5147C72.143 73.6168 72.143 73.2577 71.6641 72.7189C71.1853 72.1802 69.6289 69.6661 69.3296 64.6977C69.15 61.7047 69.6888 59.7294 67.8331 58.6519C65.9775 57.5744 61.6676 55.0603 61.1887 50.1518C61.0091 48.2961 61.1288 45.4229 59.2732 46.9194C57.4175 48.4757 57.4175 49.5532 57.1781 50.5708C56.9985 51.7081 57.8964 53.2645 58.6746 54.2222C59.4527 55.2997 60.4105 57.6343 61.1288 58.2329C61.8471 58.8315 62.326 59.3103 62.9246 59.3702C63.5232 59.4301 65.9176 59.43 66.5162 59.6096C67.1148 59.7892 67.474 60.5674 65.9775 60.5674C64.481 60.5674 62.326 60.9864 61.2485 61.1061C60.2309 61.2258 59.333 61.2857 58.914 63.3209C58.4351 65.3562 57.7767 67.6907 57.7168 68.409C57.657 69.1273 57.2379 69.5464 57.2379 69.9654C57.2379 70.3844 58.0161 72.2999 59.8718 70.3844C61.7274 68.4689 62.3859 66.4935 62.745 65.5956C63.1042 64.6378 63.4633 64.8174 63.164 66.2541C62.8049 67.7506 62.745 71.402 63.4035 72.6591C64.1218 74.0358 65.6782 75.4725 67.5937 74.4549C68.0127 74.2753 68.6712 73.9161 69.2099 73.976C69.7486 74.0358 69.0902 74.9936 68.6113 75.3528C68.1324 75.7718 66.5761 77.4478 63.9422 74.9936C63.2838 74.395 62.326 73.0781 62.1464 71.402C62.0866 70.8633 61.3683 70.6837 61.0091 71.1626C60.6499 71.6414 58.8542 73.3175 57.5971 72.1203C56.34 70.9231 55.8013 70.2647 56.5196 67.6907C56.4598 67.2717 56.6992 66.7928 56.3999 66.6731ZM57.7767 62.9618L57.1182 65.2963C56.9985 65.7153 56.3999 66.5534 55.8612 65.416C55.3224 64.2787 55.3224 63.3808 56.2203 62.5428C56.4598 62.3033 56.8788 61.7646 57.1781 62.004C57.2978 62.423 57.7767 62.7223 57.7767 62.9618ZM60.7697 59.8491C60.2309 60.0885 59.0337 60.0885 58.6147 61.0463C58.3753 61.6449 57.2978 60.9864 57.8365 60.2681C58.3753 59.5498 58.7943 59.6096 59.0936 59.3702C59.4527 59.1906 59.5725 58.592 60.2309 58.8913C60.8295 59.3103 60.9492 59.7892 60.7697 59.8491ZM96.8053 47.7574C96.4461 48.5356 95.4285 49.3736 93.1538 49.1342C92.0165 49.0145 90.8193 48.9546 90.6995 49.8525C90.5798 50.5109 90.0411 50.4511 89.3228 50.4511C88.6045 50.3912 87.7066 50.2715 87.7066 50.5109C87.6467 50.7504 90.939 52.7856 92.0763 53.2645C93.1538 53.8032 94.8299 54.9406 96.0869 54.8208C97.8229 54.6413 99.3194 53.7434 101.893 51.0497C102.971 49.9722 103.809 49.3736 102.851 48.8947C102.193 48.6553 101.474 48.4757 100.576 48.4757C99.4989 48.4757 97.6433 48.356 96.8053 47.7574Z" fill="#F9A980"/>
<path d="M84.3544 47.8174C83.3967 47.7576 83.3368 47.159 83.9354 46.1414C84.534 45.1237 85.0728 44.2258 85.8509 43.6272C85.9706 44.0463 86.2699 44.6449 86.6291 44.8244C86.0904 45.423 85.4319 46.0815 85.5516 47.5181L84.3544 47.8174ZM120.51 40.2152C119.133 37.7011 116.739 38.9582 115.601 40.8138C114.464 42.6695 113.207 44.7646 113.147 47.8773C112.369 47.6378 111.531 47.8773 111.112 48.5357C110.932 48.8949 107.939 48.4759 107.041 48.7153C106.024 48.9548 105.724 48.3562 106.802 46.9794C107.879 45.6026 111.591 40.5145 111.351 36.7434C111.291 35.606 111.411 35.4264 111.591 34.5286C111.77 33.4511 111.95 33.4511 110.513 32.6729C109.615 32.194 109.555 30.8172 109.436 29.7398C109.256 28.6024 109.017 28.6024 107.76 28.8419C106.981 28.9616 105.365 27.944 104.587 26.8066C102.731 26.9862 100.995 28.1236 99.2595 29.3208C97.5236 30.5179 91.358 35.9053 89.8017 36.9229C91.2982 37.7011 91.7172 39.2575 91.1784 42.011C91.0587 42.6096 91.1784 42.7892 91.5975 42.43C92.0165 42.011 93.8721 40.0955 93.8123 38.4194C93.7524 36.8032 93.0341 35.9053 92.8545 35.6659C92.7348 35.4863 93.3933 34.6483 94.1116 36.3243C94.8299 38.0004 94.6503 40.335 92.4355 42.9688C90.2207 45.6026 88.4848 45.4829 87.527 45.9618C86.5692 46.4406 85.6713 47.159 86.5094 48.5956C87.3474 50.0322 89.0235 49.4935 89.7418 49.0146C90.4003 48.5357 91.358 47.997 93.3933 48.2364C95.5482 48.416 96.2067 47.0991 94.77 45.6026C94.2912 45.1237 93.094 44.1061 94.5905 44.1061C95.4883 44.1061 96.506 46.0216 97.1046 46.5604C97.7032 47.0991 99.0201 47.2787 100.756 47.4583C102.552 47.578 105.305 48.2364 105.305 49.9724C105.305 51.0499 104.707 51.3491 103.988 50.5111C103.749 50.152 103.27 50.6907 102.911 51.0499C101.774 52.1872 98.8405 55.24 96.8053 55.7788C94.7102 56.3175 93.9919 55.7189 91.2383 54.2823C88.4848 52.7858 85.9706 51.3492 85.1925 50.8703C84.4742 50.3914 82.9178 49.3139 83.6361 51.4689C84.3544 53.6238 86.1502 55.8386 89.8017 57.0358C93.3933 58.233 93.8721 58.652 94.77 59.0711C95.5482 59.4901 95.1292 59.8492 94.0517 59.7295C93.094 59.6098 92.1362 58.7718 92.9144 60.6274C93.6926 62.4232 94.9496 64.3986 98.6011 63.8598C102.253 63.381 102.372 62.6627 104.707 58.7718C105.126 58.1133 105.485 58.5922 105.245 60.3281C107.041 59.4302 108.059 59.1908 109.136 58.9513C110.214 58.7119 112.967 57.7542 114.823 54.3421C115.781 52.6062 116.32 52.0076 116.08 50.2717C116.02 49.6132 117.038 48.2364 117.996 47.3385C119.193 46.2611 121.827 42.7293 120.51 40.2152ZM104.467 43.5674C104.826 43.6272 104.826 43.6272 104.707 43.6272C103.569 43.6272 101.893 43.2681 100.636 42.43C99.3792 41.5321 99.0201 41.173 99.1398 39.9758C99.2595 39.2575 99.3194 38.8385 99.3194 38.4793C99.3792 38.2997 99.3792 38.1201 99.3792 37.9406C99.499 37.342 99.4391 36.9229 99.2595 36.8032C99.1398 36.6835 99.0799 36.6236 98.8405 36.6236C98.6609 36.6236 98.2419 36.8032 97.763 37.1624C97.1046 36.6236 96.3863 36.0849 95.9074 35.606C95.4884 35.2469 95.2489 35.0074 95.1292 34.9476C95.0095 34.8279 94.8898 34.768 94.77 34.5286C94.77 34.4088 94.8299 34.2891 94.9496 34.0497C95.0693 33.93 95.1292 33.93 95.3686 33.93H95.4285H95.4883C95.6081 33.93 95.8475 33.93 95.9672 33.7504C96.0869 33.5708 96.1468 33.2715 96.0869 32.8525C96.0869 32.8525 96.1468 32.7926 96.4461 32.7926H96.6257H96.8053C96.9849 32.7926 97.0447 32.7926 97.1644 32.7328C97.344 32.6729 97.344 32.5532 97.344 32.3736C97.4039 32.194 97.4039 32.194 97.5834 32.194C97.7032 32.194 97.8229 32.194 98.1222 32.2539H98.2419C98.4215 32.2539 98.6011 32.0743 98.6609 32.0144L98.7208 31.9546C98.7806 31.8349 98.9004 31.775 99.0799 31.775H99.2595C99.4391 31.8349 99.6187 31.8349 99.7384 31.8947C99.918 31.9546 100.098 32.0144 100.277 32.0144C100.696 32.0144 100.816 31.775 100.876 31.4757C100.995 30.9968 101.055 30.8771 101.295 30.8771C101.474 30.8771 101.714 30.9968 101.953 31.1165C102.193 31.2961 102.492 31.2961 102.612 31.2961C102.851 31.2961 103.15 31.1165 103.21 30.7574C103.21 30.7574 103.21 30.6975 103.33 30.6975C103.51 30.6975 103.869 30.8172 104.288 31.0567L104.467 31.1764C105.126 31.5356 106.383 32.2539 107.879 33.9898C108.238 34.4088 108.358 34.6483 108.298 34.7081H108.179C107.999 34.768 107.58 34.8279 107.52 35.3666C107.46 35.606 107.4 35.9053 107.341 35.9053C107.341 35.9053 107.281 35.8455 107.221 35.7257C107.101 35.5462 107.041 35.3666 106.802 35.3666H106.682C106.682 35.3666 106.622 35.3067 106.622 35.187C106.562 35.0673 106.503 34.8279 106.203 34.8279C106.084 34.8279 106.024 34.8877 105.964 34.9476H105.904C105.844 34.8279 105.784 34.5884 105.485 34.5884H105.305H105.245C105.245 34.5884 105.246 34.5286 105.186 34.4687C105.126 34.349 105.066 34.2891 104.946 34.2891C104.826 34.2891 104.767 34.349 104.707 34.349C104.587 34.4088 104.527 34.4088 104.467 34.4088C104.407 34.4088 104.407 34.4088 104.407 34.349C104.288 34.1694 104.228 34.1694 104.168 34.1694C104.048 34.1694 103.988 34.2293 103.809 34.2891C103.749 34.349 103.629 34.4088 103.629 34.4088C103.629 34.4088 103.569 34.4088 103.51 34.349C103.45 34.2891 103.33 34.1694 103.27 34.1694C103.091 34.1694 103.091 34.2891 102.911 34.349L102.851 34.4088C102.791 34.5286 102.731 34.5286 102.672 34.5286H102.552C102.492 34.4687 102.372 34.4687 102.372 34.4687C102.193 34.4687 102.013 34.6483 101.953 34.6483L101.893 34.768C101.893 34.768 101.833 34.768 101.774 34.7081C101.714 34.6483 101.594 34.6483 101.594 34.6483C101.355 34.6483 101.175 34.8279 101.115 35.0673C101.055 35.2469 100.995 35.2469 100.936 35.2469H100.876C100.756 35.2469 100.696 35.187 100.636 35.187C100.277 35.187 100.217 35.5462 100.157 35.8455C100.157 35.9053 100.157 35.9652 100.098 36.025C99.9778 36.5638 99.7384 38.8385 99.8581 39.3772C99.918 39.9159 100.576 39.9159 100.876 39.9159C101.414 39.9159 102.013 39.7962 102.911 39.7364C104.527 39.5568 107.58 38.599 109.136 37.342C109.555 36.9828 109.795 36.9828 109.915 36.9828C110.034 36.9828 110.034 36.9828 110.094 37.0427C110.094 37.1025 109.915 37.5814 109.496 37.8208L109.376 37.9406C108.897 38.3596 107.76 39.4371 105.425 39.7962C103.21 40.2152 101.235 40.5744 100.457 40.5744H100.277H100.157C100.038 40.5744 99.9778 40.6343 99.9778 40.754C99.918 40.8737 99.9778 40.9934 100.157 41.173C100.337 41.3526 100.696 41.4124 100.936 41.4124H101.175C101.235 41.4124 101.534 41.592 101.714 41.8314C102.193 42.3103 102.911 42.9089 103.869 42.9089C105.066 42.9089 106.742 41.6519 107.281 41.2328C107.46 41.0533 107.999 40.754 108.358 40.6941C108.298 40.754 108.238 40.8737 108.179 40.9335L108.119 41.0533C106.742 42.3702 105.605 43.5674 104.467 43.5674ZM118.774 42.1307C118.055 42.6695 117.577 42.8491 117.517 43.8068C117.457 44.7646 117.337 46.3209 116.918 46.5005C116.439 46.6801 116.499 45.6026 116.379 45.9618C116.2 46.4406 115.661 46.2012 115.422 45.7822C115.362 45.6026 113.686 45.6026 115.003 43.6871C116.2 41.9512 117.158 40.9934 117.996 40.6342C118.894 40.2152 120.45 40.9934 118.774 42.1307ZM151.457 121.445C151.218 120.667 151.637 119.35 153.373 120.308C155.049 121.265 156.306 122.044 155.109 125.635C153.911 129.287 153.014 131.442 152.595 132.998C152.176 134.554 150.32 136.47 150.919 133.896C151.517 131.262 151.876 128.149 151.577 126.533C151.098 123.6 152.056 123.72 151.757 122.463C151.637 122.044 151.577 121.684 151.457 121.445ZM157.802 124.558C158.281 126.054 158.82 129.287 157.982 130.663C157.204 131.98 154.69 135.632 153.792 136.589C152.834 137.547 152.116 137.128 152.714 136.111C153.313 135.093 154.091 133.776 154.091 133.297C154.091 132.818 154.031 132.28 154.809 130.783C155.588 129.287 157.024 124.139 157.144 123.72C157.324 123.301 157.683 124.199 157.802 124.558ZM140.563 136.889C140.144 135.692 139.964 133.956 139.306 132.938C139.844 131.442 141.64 127.611 144.573 126.294C144.933 126.174 145.112 125.815 144.992 125.575C144.873 125.336 145.411 125.096 145.651 126.054C145.89 127.012 146.369 129.646 146.369 129.646C146.489 130.244 146.249 130.723 146.13 131.501C146.01 132.28 145.651 134.135 145.89 135.033C146.07 135.991 146.429 136.649 148.225 136.23C149.183 136.051 149.123 135.751 149.362 134.973C149.602 134.195 150.38 131.92 150.619 130.604C150.859 129.346 150.679 126.234 150.44 125.456C150.2 124.677 150.559 121.924 150.32 121.385C150.14 120.846 149.961 120.068 148.285 119.529C146.609 118.991 146.13 118.871 145.052 120.008C143.915 121.146 143.556 121.625 142.957 122.163C142.418 122.702 141.102 122.223 142.239 121.146C143.376 120.068 144.454 118.991 144.753 118.691L144.394 117.794H143.795C141.999 119.589 139.605 120.667 137.989 121.026C137.39 121.146 136.253 121.206 137.031 122.283C137.211 122.522 137.27 123.301 137.749 123.001C138.228 122.762 138.947 121.505 139.605 122.044C140.263 122.582 139.485 123.839 138.647 124.438C137.869 125.037 136.971 125.635 136.373 125.934C135.774 126.294 135.415 126.593 135.475 127.67C135.535 128.748 135.594 130.663 134.996 132.16C134.397 133.656 134.756 134.016 135.235 134.973C135.774 135.991 136.612 136.829 136.911 138.445C137.151 140.061 137.33 140.48 138.408 140.301C139.485 140.181 139.904 139.702 140.263 139.044L140.563 136.889Z" fill="#F9A980"/>
<path d="M101.833 21.0601C102.791 21.1798 103.749 21.1199 103.988 20.4615C104.168 19.803 104.048 19.384 103.749 19.3241C103.51 19.2044 103.27 19.2044 103.51 18.6657C103.629 18.0671 104.108 18.1269 104.048 17.1692C103.988 16.2114 103.33 16.1516 102.672 16.4509C102.013 16.6305 101.774 16.9896 101.175 17.7079C100.576 18.4861 100.816 17.1692 100.995 16.9896C101.175 16.81 101.355 15.2537 100.517 14.9544C100.038 15.134 99.5588 15.4333 99.1398 15.6128C99.0201 15.8523 98.9602 16.2713 98.7208 16.6305C98.3616 17.5283 98.0025 16.81 97.6433 16.4509L95.3686 17.7678C95.3088 17.8277 95.2489 17.8875 95.189 17.8875C95.2489 18.4262 95.8475 19.0847 96.2665 19.384C96.7454 19.6234 96.4461 20.2819 95.9074 20.2819C95.3686 20.2819 94.7102 19.9227 94.0517 20.7608C93.3932 21.539 93.8721 22.3171 94.4707 22.3171C95.1292 22.3171 95.6081 22.4967 95.8475 23.3348C96.0271 24.0531 96.2665 24.4122 97.1046 24.4721C98.0025 24.5319 98.4813 23.8735 98.7208 23.4545C98.9003 23.0355 99.2595 22.4369 99.6785 22.6763C100.217 22.8559 100.157 23.3946 99.918 24.0531L101.833 22.9756C101.714 22.377 101.355 21.8981 101.175 21.6587C100.816 21.1199 100.936 21.0002 101.833 21.0601ZM109.256 11.3628C109.017 11.4227 108.598 11.5424 108.238 11.5424C108.418 12.2607 108.717 13.2783 108.478 13.4579C108.298 13.6375 107.46 13.6973 106.922 13.9368C106.323 14.1163 104.886 15.4333 105.665 16.391C106.383 17.4086 106.682 17.9474 106.742 18.4262C106.862 18.965 108.059 19.5037 108.897 18.546C109.675 17.5284 110.393 16.4509 110.573 17.1692C110.753 17.7678 110.693 19.2044 110.573 19.9826C110.753 19.9227 110.932 19.9227 111.112 19.8629C111.531 16.0917 110.573 13.4579 109.256 11.3628ZM90.939 29.3806C90.4601 29.0214 90.3404 28.4228 90.8791 28.3031C91.4777 28.1235 92.1961 28.0637 93.6327 27.3454C95.0095 26.7468 94.2911 25.7291 93.6925 25.4298C93.0341 25.1904 93.0341 24.5319 93.0341 23.9333C93.094 23.2749 92.9144 22.377 91.7172 22.8559C90.52 23.3348 90.939 24.5319 90.5798 24.951C90.2207 25.37 89.9812 25.1904 90.0411 24.5918C90.101 23.9932 89.5622 23.5742 89.3228 23.4545C89.1432 23.3348 88.6045 23.2749 88.1854 23.2749C86.9284 24.4122 85.7911 25.6094 84.8932 26.8066C85.0727 27.2256 85.5516 27.7045 85.8509 27.7644C86.2101 27.8841 86.6291 28.1235 86.6291 28.782C86.6291 29.3806 85.372 29.3806 84.4741 29.4404C85.0727 31.0567 85.6713 32.194 86.5094 33.0919C86.6889 33.032 86.9883 32.9722 87.2277 32.8525C88.3052 32.3736 88.6045 30.8172 88.7242 30.3982C88.9038 29.9193 89.3228 30.039 89.6819 30.5778C89.8615 30.9968 89.9214 31.356 89.9214 31.775L91.6573 30.0989C91.4777 29.7397 91.2383 29.5602 90.939 29.3806ZM108.657 69.1873C108.837 69.1275 108.298 66.8528 108.777 66.7331C109.196 66.6134 109.436 67.9901 110.334 67.8704C111.291 67.6908 111.471 66.793 111.411 65.7155C111.291 64.638 111.89 65.2366 112.369 64.5183C112.848 63.8 111.83 62.7823 110.693 63.4408C109.555 64.0993 109.735 63.2612 110.334 62.8422C110.932 62.4232 110.513 61.1661 109.256 61.5851C108.298 61.8246 107.879 61.3457 107.46 61.0464C107.111 61.1603 106.771 61.3004 106.443 61.4654C106.383 61.645 106.443 62.064 106.503 62.4232C106.622 62.8422 106.742 63.9197 106.084 63.5007C105.425 63.0816 104.587 62.8422 104.407 63.6204C104.228 64.3387 104.587 64.3986 104.587 64.8774C104.587 65.3563 103.33 65.476 103.929 66.3739C104.527 67.3915 105.305 66.8528 105.844 66.4338C106.443 66.0746 106.922 66.4937 106.802 67.0324C106.622 67.4514 106.323 68.7085 106.263 69.5465C106.503 69.7261 106.802 69.9057 107.041 70.1451C107.4 69.8458 107.999 69.3071 108.657 69.1873ZM90.4601 66.8528C90.9989 66.7331 91.9566 67.8106 92.7946 67.0922C93.6925 66.4936 92.4355 65.8951 92.6151 65.4162C92.7348 64.9373 93.2137 63.9197 92.5552 63.5007C91.9566 63.0218 91.358 63.4408 90.6996 64.1591C90.0411 64.8176 90.2805 63.5007 90.6397 62.9619C91.1186 62.2436 90.6397 61.7647 89.9214 61.5851C89.2031 61.4654 88.9038 62.5429 88.4249 62.064C87.6467 61.3457 86.3897 61.5851 86.6889 62.6626C86.9284 63.7401 87.3474 64.0394 86.6889 64.1591C86.0305 64.2788 85.4918 62.6626 84.7734 63.9795C84.0551 65.2965 85.2523 65.7155 85.1326 66.7331C85.0129 67.7507 85.372 68.8282 86.0904 68.888C86.6889 69.0078 87.2876 68.2894 87.6467 67.8704C88.0059 67.4514 88.784 67.212 88.7242 67.9303C88.6513 68.6864 88.6113 69.4454 88.6045 70.205L91.8369 68.7085C91.8968 68.7085 91.8968 68.7085 91.9566 68.6486C91.5975 68.5289 91.1784 68.2894 90.6996 67.9901C89.9214 67.5711 89.9214 67.0324 90.4601 66.8528ZM75.7346 97.2017C77.2311 96.7228 77.3508 97.92 77.1114 98.9377C76.8719 99.9553 76.9318 102.11 76.9917 103.128L79.5058 103.248C79.3861 102.589 79.5058 100.614 79.5656 99.4764C79.6255 98.3391 80.7628 96.6031 81.1819 98.3391C81.6009 100.075 83.3368 100.135 84.534 99.4165C85.7312 98.6982 86.6291 97.082 87.8861 94.8073C89.1432 92.5327 87.4671 91.9341 86.5094 92.0538C85.5516 92.1735 84.4741 92.2932 86.7488 90.4376C88.8439 88.7016 85.2523 87.8037 83.696 87.5044C81.0023 90.3178 77.7698 93.5503 74.7769 96.0045C74.4177 96.3637 74.0585 96.663 73.6994 96.9623C73.9987 97.2616 74.6571 97.5609 75.7346 97.2017ZM73.1008 114.022C74.3578 113.603 75.1959 116.357 77.0515 114.741C78.9072 113.124 77.5903 111.808 77.5304 110.431C77.4705 109.054 79.0269 108.575 78.548 106.899C77.8896 104.385 75.4952 106.779 74.0585 108.156C72.562 109.533 72.562 108.396 73.9987 106.121C75.4952 103.846 73.0409 103.128 71.6043 103.726C70.2874 104.265 69.15 103.726 68.3719 103.068C67.7733 104.026 67.3542 104.804 66.9951 105.702C65.738 108.336 66.5761 108.395 67.5338 108.395C68.4916 108.395 70.467 112.346 70.7663 113.065C70.886 113.244 71.4846 114.322 72.4423 115.579C72.143 114.98 72.2627 114.322 73.1008 114.022ZM109.555 87.8037C108.358 87.5643 106.742 87.3249 106.622 89.839C106.562 90.7967 107.52 91.515 108.358 91.8742C109.256 92.2334 109.077 92.832 108.179 92.4728C107.221 92.1136 106.503 91.9341 105.844 93.8496C105.186 95.7651 106.383 96.0644 106.981 96.1841C107.58 96.3038 108.059 96.4235 107.939 97.2616C107.819 98.0398 107.4 100.434 108.957 100.614C110.453 100.793 111.83 98.9377 112.309 97.9799C112.788 97.0221 113.327 96.1242 113.446 97.2017C113.566 98.2792 113.386 98.8179 112.848 100.015C112.309 101.212 112.309 101.751 113.087 101.691C113.865 101.631 115.242 101.691 115.601 100.733C115.96 99.7757 116.619 97.9799 116.679 96.7228C116.739 95.9447 117.397 95.825 117.936 95.9447L118.475 92.1136C115.841 92.5327 113.566 89.3002 112.848 86.5467C111.89 87.3249 110.573 88.0432 109.555 87.8037ZM97.1046 87.3249C96.6257 88.103 95.3088 90.3777 95.9074 91.1559C96.506 91.9341 97.1644 90.4376 97.7032 90.9763C98.2419 91.515 99.4391 92.1136 99.4391 91.6946C99.4391 91.2756 99.5588 90.4974 99.7982 89.4199C99.9778 88.3425 100.457 87.7439 100.936 88.6418C101.414 89.5397 102.073 90.258 103.749 89.839C105.425 89.4199 105.245 87.684 104.886 86.427C104.527 85.1699 105.784 84.5713 106.383 84.2121C106.981 83.853 108.538 82.6558 107.4 81.5783C106.263 80.5008 105.245 82.0572 104.228 82.2368C103.21 82.4164 103.629 81.5783 105.724 79.9621C107.52 78.5853 105.964 77.1487 104.946 76.7297C102.073 79.6029 96.9848 84.272 95.8475 85.3495C95.4277 85.7575 95.0652 86.2207 94.77 86.7263C97.2841 85.5291 97.5236 86.4868 97.1046 87.3249ZM113.566 114.142C114.464 114.92 116.499 116.058 117.996 114.741C119.492 113.424 117.636 111.927 117.457 110.85C117.277 109.772 118.534 109.114 117.876 107.378C116.739 104.385 115.003 107.976 113.985 108.994C112.967 110.012 113.207 108.336 114.045 107.378C114.524 106.899 116.559 105.642 115.362 104.205C114.165 102.829 112.429 103.607 111.531 104.205C110.633 104.804 110.034 105.522 108.657 105.163C107.341 104.744 106.203 104.624 105.425 106.54C104.647 108.455 106.143 107.917 107.341 109.353C108.598 110.73 107.819 110.85 106.802 110.491C105.784 110.131 105.305 108.874 103.869 109.114C102.372 109.293 102.372 111.628 102.851 112.286C103.33 112.885 104.228 113.244 103.569 114.381C102.911 115.519 103.929 116.836 105.066 117.374C106.263 117.913 108.059 115.758 108.717 114.92C109.376 114.022 110.034 114.262 109.915 114.92C109.795 115.519 109.496 117.015 109.436 118.272L112.429 117.374C112.429 116.716 112.249 115.519 111.95 114.501C111.83 112.945 112.668 113.364 113.566 114.142ZM96.2665 121.205C94.6503 121.684 94.4109 120.966 93.3334 120.547C92.2559 120.128 92.1961 121.086 92.9144 122.223C93.6327 123.36 94.4707 124.438 93.5728 124.438C92.6749 124.438 92.0165 124.558 91.8967 125.216C91.777 125.875 90.3404 125.096 90.0411 123.72C89.6819 122.343 89.3826 119.649 88.6643 120.966C87.946 122.283 87.2876 124.498 85.4319 123.48C83.5762 122.463 84.8333 121.146 83.8755 120.248C82.9178 119.29 82.0798 118.093 82.9776 116.417C83.8755 114.741 84.7136 116.177 85.6115 116.177C86.5094 116.177 86.6291 115.399 85.7911 114.8C85.0129 114.202 83.9953 111.329 87.6467 111.568C89.0235 111.628 90.5798 111.149 91.7172 110.311C92.9144 109.413 96.0869 109.892 94.77 112.107C93.513 114.322 93.8721 114.8 94.6503 113.962C95.3686 113.184 96.3264 111.688 97.7032 112.107C99.0799 112.526 98.4813 113.603 97.6433 114.8C96.7454 115.998 97.2841 116.836 98.0025 117.255C98.7208 117.674 99.9778 120.188 96.2665 121.205ZM103.031 105.522C101.833 105.582 100.337 105.283 100.337 105.283C100.217 106.54 98.9602 108.336 97.7032 110.251C97.5834 110.431 96.8053 110.431 96.506 110.191C96.1468 109.952 95.2489 109.473 95.9672 108.695C96.6855 107.917 97.8827 106.241 97.7032 105.462C97.5236 104.744 96.9848 104.086 96.1468 105.043C95.3686 106.061 94.0517 108.096 92.6749 108.216C91.2982 108.336 89.8615 107.019 90.52 105.762C91.1784 104.505 91.4179 103.846 90.4601 102.709C89.5024 101.571 89.8615 100.075 91.8369 99.237C92.4355 98.9975 93.513 99.237 94.1714 99.8356C94.8897 100.434 95.3088 99.8356 94.2911 99.237C93.2735 98.6384 92.4953 97.92 92.3756 96.5433C92.2559 95.2862 93.0341 93.9094 94.7102 94.6876C96.4461 95.4059 97.5236 94.8073 98.2419 94.2087C98.9602 93.6101 102.133 92.8918 101.654 95.5855C101.295 97.6207 100.397 97.6806 100.157 98.7581C99.918 99.8355 100.696 99.1771 101.175 98.3391C101.654 97.5609 102.672 94.2686 104.826 96.7228C105.365 97.3214 105.186 98.3391 104.467 99.4764C103.809 100.614 104.348 101.272 104.707 101.811C105.485 102.35 106.383 105.343 103.031 105.522Z" fill="#008348"/>
<path d="M98.6609 16.5107C98.7806 16.1515 98.8405 15.8522 99.0201 15.493C98.5412 15.6726 98.0025 16.0318 97.6433 16.2114C97.8827 16.81 98.3018 17.4086 98.6609 16.5107Z" fill="#BB9753"/>
<path d="M44.4876 22.1973C44.9665 22.8558 45.4454 22.7361 45.625 22.2572C46.044 21.2396 46.8222 18.067 46.8222 15.6128C46.8222 9.98594 47.5405 7.77113 48.9771 5.19716C42.5123 5.55632 36.646 8.8486 33.1143 13.8768C38.5615 15.3135 42.6918 19.7431 44.4876 22.1973ZM43.9489 25.3699C44.6074 24.472 43.8292 23.9931 43.47 23.5143C41.7341 21.06 37.7235 16.6304 32.2762 15.1937C30.3607 18.4262 29.2234 22.0178 29.2234 26.0284C29.2234 27.8242 29.403 29.5002 29.822 31.0566C40.058 31.9545 43.3503 26.2079 43.9489 25.3699ZM51.1919 5.01758C49.6954 7.35211 48.8574 9.1479 48.2588 15.3135C47.6602 21.4192 47.1215 25.6692 42.6918 29.3805C39.2798 32.1341 32.5755 32.9122 30.4206 32.7925C31.4261 35.693 33.0382 38.3458 35.1495 40.5743C41.4946 38.4193 46.1038 35.6658 52.2095 29.9791C58.3152 24.2924 61.3681 18.486 62.3259 16.3311C62.9244 14.9543 64.0618 13.0986 63.2836 16.2114C62.5054 19.2642 59.6322 25.8488 53.6462 31.4756C47.7799 37.1024 42.3925 39.9757 36.1671 41.5919C39.8186 44.9441 44.7869 47.0391 50.2342 47.0391H50.7131C51.9102 39.4968 53.7659 36.9827 57.4772 33.8101C61.0688 30.5777 66.2167 28.9016 70.5865 30.7573C70.9457 29.3805 71.0654 27.7643 71.1252 26.0284C71.1252 14.655 62.3259 5.55632 51.1919 5.01758ZM59.7519 34.2292C59.2131 34.5883 58.7941 34.8278 59.5124 35.4263C60.7096 36.6235 62.5054 38.8982 63.8223 42.0109C66.6956 39.6165 68.8506 36.3841 70.0478 32.7925C68.9703 31.3559 65.4386 30.6974 59.7519 34.2292ZM56.8786 36.5637C53.706 39.3771 52.5088 43.5673 51.8504 46.8596C55.6216 46.6201 59.1533 45.2434 62.0864 43.268C60.8892 40.3349 59.8716 38.1799 58.7343 36.6834C58.0758 35.9052 58.0159 35.6059 56.8786 36.5637ZM147.087 160.952C148.285 157.061 150.26 157.121 149.601 155.625C148.943 154.128 147.925 152.991 147.147 152.153C146.369 151.255 146.968 149.22 146.968 148.322C146.908 146.706 145.651 146.466 145.471 144.67C145.292 142.875 145.232 141.438 146.549 139.582C147.865 137.787 146.07 137.846 145.471 136.709C144.872 135.572 144.513 134.015 145.052 131.741C145.292 130.544 145.172 130.244 144.872 130.065C144.513 129.945 143.137 129.646 143.137 129.646L141.041 133.716C141.401 134.494 141.52 135.751 141.52 136.53L140.982 139.942C140.503 140.72 139.725 142.037 139.725 143.174C139.725 144.311 138.587 145.508 138.707 146.047C138.827 146.586 140.323 147.963 141.161 149.459C142.059 150.956 143.077 153.111 143.077 156.822C143.077 160.533 141.88 165.502 141.76 166.1C141.64 166.759 141.281 167.297 142.299 168.255C143.316 169.213 144.932 170.949 145.531 174.9C146.13 178.85 146.549 180.945 146.788 181.125C147.027 181.305 146.968 181.664 146.968 182.382C146.968 183.1 147.626 187.35 148.105 188.129C148.584 188.907 148.524 183.639 148.464 182.023C148.404 180.526 148.524 173.164 148.823 172.026C149.063 170.949 149.362 169.752 148.404 168.435C147.506 167.118 145.89 164.783 147.087 160.952Z" fill="#A73832"/>
<path d="M74.2979 50.3314C72.5619 50.6906 72.6218 50.9899 74.4774 50.8103C75.076 50.8103 83.4564 49.5533 84.5339 49.3138C85.6114 49.1342 85.8508 49.8526 86.1501 49.673C86.5093 49.5533 86.0304 49.5533 85.7909 48.1765L84.2346 48.3561C82.3789 48.8349 76.0338 49.9723 74.2979 50.3314ZM144.094 50.1519C136.911 42.9687 128.291 37.7609 118.953 34.8278L118.834 36.9827C120.689 37.9405 122.784 39.9158 122.006 43.687C121.647 45.2434 120.39 46.68 120.27 47.2786C120.091 48.2962 117.936 50.0321 117.337 51.3491C116.738 52.666 116.619 53.7435 116.738 54.3421C117.816 55.3597 120.21 56.6766 121.527 57.1555C122.545 57.5146 122.545 57.7541 122.126 58.3527C122.006 58.4724 121.767 58.5921 121.767 58.7717C120.15 60.9865 117.576 66.5534 116.439 70.0253C115.242 73.4972 112.488 81.8177 114.524 87.2051C116.439 92.6523 120.27 89.2403 121.168 87.1452C122.066 85.0501 123.383 81.5184 123.802 80.5606C124.221 79.6029 124.4 79.0641 125.119 81.279C125.837 83.4938 126.915 88.7614 126.915 89.2403C126.915 89.7192 126.196 91.0361 125.418 93.1312C124.64 95.2263 124.161 96.6629 124.939 97.92C125.717 99.177 128.89 104.564 129.908 106.899C130.506 108.276 131.045 108.575 132.661 108.156C134.277 107.737 138.168 106.42 139.306 105.881C140.443 105.343 139.904 104.385 139.545 103.247C139.006 101.512 137.031 91.8741 137.031 90.6171C137.031 89.36 137.39 87.6839 135.714 89.5396C135.115 90.1981 134.337 89.5396 134.517 88.5818C134.696 87.6241 136.732 74.5746 136.851 73.0782L131.524 61.3456C130.566 59.9689 130.267 59.8492 128.83 60.6273C127.393 61.4055 124.341 62.483 123.143 59.8491C123.024 59.6097 122.904 59.1308 122.964 58.7717C123.323 58.9513 123.562 59.3104 123.981 59.7893C124.7 60.6872 126.675 60.1484 127.872 59.5499C129.07 58.9513 130.626 58.7717 131.823 60.2083C133.02 61.7048 134.816 64.3985 135.714 66.9126C136.612 69.4267 137.51 71.4619 137.809 71.881C138.049 72.3 136.851 79.6627 136.552 82.536C136.193 85.4691 135.953 86.7262 135.894 87.2051C135.834 87.6839 137.749 85.529 137.809 88.103C137.869 90.1382 138.827 96.6031 139.904 101.392C140.144 102.589 140.503 103.726 140.802 104.624C141.58 104.744 142.299 106.36 142.718 108.814C143.196 111.269 144.214 112.825 144.214 114.022C144.274 115.219 144.633 115.399 144.992 115.638C145.411 115.818 145.232 116.417 144.035 117.853C144.274 118.033 144.693 118.452 144.992 118.751C145.351 118.392 146.249 117.374 146.249 117.374C146.249 117.374 149.901 118.871 150.739 119.11C151.517 119.35 152.475 117.434 154.809 118.452C155.468 118.691 156.186 119.649 156.725 120.547C160.376 112.586 162.531 103.607 162.531 94.2685C162.352 77.6275 155.827 61.8844 144.094 50.1519Z" fill="white"/>
<path d="M138.049 141.857C137.091 141.378 136.492 142.037 136.013 138.385C135.894 137.308 134.996 135.931 134.337 135.213C133.679 134.554 133.619 133.297 133.918 132.22C134.457 130.544 134.577 128.987 134.517 127.73C134.457 126.413 134.697 124.737 136.612 123.899C135.954 123.181 135.594 122.223 135.415 121.565C132.661 120.607 132.123 120.547 131.584 119.23C130.626 117.015 130.087 113.783 129.788 111.987C129.668 111.089 129.608 110.311 129.608 109.593L125.239 101.512L123.862 98.9976C122.545 96.663 123.862 93.67 124.52 91.8144C125.179 90.0186 125.718 88.4024 125.119 86.6066C124.52 84.8108 124.52 84.3918 124.401 83.6735C124.281 82.9551 123.682 81.9974 122.904 84.5714C122.126 87.0855 120.57 90.7968 119.672 94.6877C119.121 96.9385 118.9 99.2572 119.013 101.572C119.133 103.307 119.492 105.043 120.211 106.6C121.946 110.191 124.042 113.543 123.742 115.519C123.503 117.554 123.084 117.614 123.024 117.913C122.665 121.804 120.989 129.227 120.151 131.382C119.253 133.537 115.841 141.199 115.182 144.491C114.584 146.945 113.087 152.393 111.77 155.505C121.767 153.59 130.925 149.34 138.587 143.234C138.707 142.695 138.647 142.156 138.049 141.857ZM64.0022 54.3422C64.7205 55.3598 65.6782 56.1978 66.9353 56.7964C70.1677 58.4725 70.886 59.6098 70.886 62.543C70.886 65.4162 71.4248 71.2825 72.3825 72.2402C72.9811 71.6416 73.6396 70.7437 73.7593 70.5043C74.7171 72.2402 76.5727 75.4727 79.5657 77.448C79.6256 77.448 79.6256 77.5079 79.6256 77.5678C79.6256 77.6276 79.5657 77.6276 79.5657 77.6875C79.3263 78.2262 78.7875 78.0466 78.4284 77.9269C77.7101 77.7473 75.1959 75.0536 74.3579 73.5572C73.5199 72.0607 73.3403 72.2402 73.041 73.3177C72.6818 74.3952 71.4248 76.7297 70.5867 77.8072L66.8156 82.5361C66.217 83.1946 66.8156 83.4939 67.3543 84.0326C67.8931 84.5714 70.5867 87.9235 71.2452 88.582C71.8438 89.3003 72.5023 90.6771 74.1185 89.1806C75.7347 87.6841 77.6502 85.1101 78.5481 82.2967C79.3263 79.8424 79.5059 78.4058 80.0446 78.2861C80.1045 78.3459 80.1643 78.3459 80.2242 78.4058C81.2418 78.6452 87.7066 79.6628 87.8264 81.0396C89.1433 79.7227 91.2982 76.3706 91.7173 75.2332C92.1363 74.0959 94.4708 70.5043 96.2067 68.5289C96.2067 67.7508 96.2067 67.2719 96.2666 67.0324C95.7877 67.4515 95.0694 68.4092 93.9919 68.8881C92.9144 69.367 89.2031 70.9832 86.5094 72.3001C85.5517 72.779 83.8756 73.3177 83.277 68.4092C82.6186 63.5007 83.277 60.9866 83.7559 59.9091C84.2348 58.7718 85.0728 57.7542 86.7489 58.2331C88.425 58.7119 91.1187 59.7295 91.837 59.7295C91.9567 59.1908 92.4356 58.233 90.6398 57.9936C89.3827 57.8739 86.0306 56.9161 84.0552 54.3422C83.3369 53.2647 82.7981 52.0076 82.7383 50.3316C78.9073 50.9302 70.1677 52.0675 68.3121 52.5464C66.3966 53.0253 64.7205 53.4443 64.1219 49.0146C63.8825 47.159 63.4036 44.5252 64.7205 45.4829C65.798 44.7047 67.2346 43.747 69.8684 44.166C70.3473 44.2259 70.9459 44.6449 71.1255 45.0639C71.2452 45.7224 71.0058 46.74 70.6466 47.8174C70.048 49.6132 68.9705 50.8703 72.5621 50.0921C76.3931 49.1942 81.1819 48.4759 82.439 48.2365C82.6186 46.9794 83.6362 44.9442 84.8932 43.5075C86.1503 42.0111 86.3897 40.8139 86.4496 40.335C86.5094 39.8561 86.0904 39.7364 85.432 40.335C84.7137 40.9934 82.4988 42.3702 80.4636 41.8315C79.6854 41.6519 78.6678 40.0955 78.1291 39.1976C78.608 38.2399 79.6854 36.7434 81.0023 35.1272C73.9389 37.4018 67.2945 40.9336 61.3085 45.6026C61.2486 46.321 61.3683 47.997 61.8472 49.9724C62.1465 51.1097 62.7451 52.8457 64.0022 54.3422ZM68.6114 145.449C71.3649 144.371 73.5199 144.371 75.615 147.245C76.2136 148.023 76.6924 150.417 81.8404 148.322C79.0868 145.09 77.4108 141.259 76.034 135.991C73.6994 127.79 68.3121 118.452 70.2874 114.202C69.1501 113.124 67.8332 108.994 66.3966 109.473C65.4388 109.712 64.1219 109.832 65.1994 106.66C65.6782 105.283 66.4564 103.487 68.0128 101.512C69.8684 99.0574 72.6818 96.0046 77.3509 92.413C77.7699 92.0538 77.8298 91.8144 77.5305 91.5151C77.0516 91.0362 76.5727 90.4975 76.1537 90.258C75.6748 90.0186 75.1959 90.1383 74.8368 90.4975C74.4178 90.9165 73.7593 91.3954 73.3403 91.6348C72.9213 91.8742 69.7487 88.7615 68.0726 86.4869C66.3966 84.2122 64.6606 83.4939 64.1219 83.2544C64.7803 82.5361 66.3367 80.9199 65.7381 81.0995C64.7205 81.4586 62.9247 81.6981 61.2486 79.7826C59.0338 77.448 59.9317 76.2508 59.4528 75.8917C58.9739 75.5325 56.5796 76.0713 54.7838 73.2579C52.988 70.4444 52.2696 69.2473 53.7063 67.212C54.4246 66.1944 54.7239 65.7155 54.4845 64.4585C54.3049 63.2014 54.4845 62.3634 56.1605 60.807C57.8366 59.1908 58.8542 57.7542 59.5725 57.8739C60.1711 57.9936 58.4951 55.8387 57.4176 54.2823C57.1782 53.8633 56.9387 53.5041 56.7591 53.2048C56.5197 52.5464 56.1007 51.4689 56.0408 50.2717C44.3083 62.0641 37.8434 77.6276 37.8434 94.2088C37.8434 110.79 44.3083 126.533 56.1007 138.266C58.9141 141.079 61.8472 143.473 64.9599 145.688C66.2768 144.192 67.8332 144.79 68.6114 145.449ZM135.535 119.709C137.69 119.649 141.281 118.691 143.915 116.297C143.197 115.399 141.88 111.269 141.58 109.533C141.102 107.677 141.102 105.702 139.186 106.779C137.989 107.438 133.739 109.293 132.003 109.593C130.207 109.832 130.686 110.311 130.985 111.688C131.285 113.065 132.302 117.015 132.841 118.392C133.38 119.769 134.098 119.769 135.535 119.709ZM106.383 71.3423L101.834 68.4092C101.295 67.9902 101.115 67.9902 100.876 68.3494C100.756 68.5888 100.277 69.4268 99.1997 69.4268C98.1222 69.4268 97.2842 69.0677 96.5659 70.0254C95.9074 70.9832 92.1961 75.3529 91.418 78.1664C92.1961 79.8424 93.2736 82.8354 94.1116 84.9305C96.7455 82.7157 105.006 74.6346 106.562 73.0783C107.221 72.4797 107.281 71.9409 106.383 71.3423ZM86.3299 81.1593C85.7313 81.2791 83.277 80.2614 80.8826 79.8424C80.1643 79.7826 79.9847 79.7826 79.865 80.022C79.3263 82.1171 78.3685 85.7087 76.6326 88.4622C77.291 89.5397 77.8298 90.4975 78.6678 90.7968C80.5235 89.4799 83.9953 86.1876 85.0728 84.9904C86.0904 83.7932 87.3475 81.9974 87.3475 81.5784C87.4073 81.1593 86.9285 81.0396 86.3299 81.1593ZM121.228 16.4509C120.45 15.553 119.971 15.7925 119.193 16.6305C117.397 18.7855 113.865 20.6411 107.76 22.1975C101.654 23.7538 95.9074 28.0039 93.3933 30.099C90.9391 32.194 84.7137 37.2821 81.6608 38.4793C80.8826 38.8385 79.2066 39.9758 81.3016 40.2153C82.9179 40.3948 84.0552 39.4969 87.5271 36.9828C90.9989 34.4687 93.6926 32.6131 96.3863 30.0391C98.8406 27.6447 103.33 25.37 108.179 23.9933C113.027 22.6165 119.313 20.5812 121.108 18.6657C122.006 17.708 122.066 17.2291 121.228 16.4509ZM90.4602 39.4371C90.8194 39.2575 90.4003 37.8209 89.263 38.0603C88.9038 38.18 89.3229 37.2821 88.6644 37.6413C88.1257 37.8807 87.9461 38.2399 87.3475 40.1554C86.7489 42.0709 86.8087 43.2082 87.2876 43.6871C87.6468 44.0463 88.1855 44.0463 88.425 44.0463C88.6045 44.0463 88.844 44.1061 88.7841 43.5075C88.6644 42.9688 88.6644 40.5146 90.4602 39.4371ZM69.5093 46.3808C69.5093 45.3033 68.9705 45.3033 68.0128 45.3033C66.8754 45.3033 65.6782 45.7224 64.7803 46.0815C64.9001 46.5005 64.8402 48.1766 65.0198 49.2541C65.6782 52.6661 66.8754 52.1872 67.7135 52.0675C68.4917 51.9478 69.9881 51.3492 69.3895 51.3492C68.791 51.3492 68.7909 50.9302 68.8508 49.9724C68.9705 48.8949 69.4494 47.3984 69.5093 46.3808ZM89.7419 159.037C90.8792 157.72 90.8194 154.428 90.2208 151.854C89.682 149.34 85.7313 148.322 82.1995 149.759C78.6678 151.255 76.5727 150.657 75.7347 150.118C75.7347 150.118 75.2558 149.759 74.9565 149.579C74.5974 149.4 74.5973 150.178 74.2382 150.956C73.879 151.734 73.7593 153.949 74.3579 155.266C75.9143 155.266 78.0094 155.924 79.3263 156.523C80.5833 157.062 85.0728 159.157 87.0482 159.755C87.9461 160.114 88.7841 160.234 89.7419 159.037ZM97.6434 174.062C97.5236 173.583 97.2842 170.769 97.2842 169.991C97.2842 169.213 97.4638 167.178 97.5237 166.519C97.5835 165.861 97.7631 165.262 96.6257 165.322C95.5483 165.442 92.9743 165.143 92.5553 163.826C92.0165 162.21 90.4602 161.91 89.6222 161.91C88.0658 161.91 89.6222 163.586 90.101 164.843C90.6398 166.16 92.5553 173.703 91.7173 173.762C90.8194 173.822 91.7172 174.541 92.4356 175.079C93.8123 176.097 96.0272 175.438 96.6257 175.139C97.2842 174.9 97.7631 174.6 97.6434 174.062ZM67.474 148.442C67.8931 147.963 67.8332 147.544 67.5339 147.125C67.2945 146.646 67.055 146.347 66.7557 146.167C65.9775 145.928 65.2592 146.287 64.6008 147.843C63.9423 149.22 63.8226 153.889 64.0022 155.326C64.5409 155.206 65.5585 155.385 66.0374 155.505C65.8578 152.931 66.6959 149.28 67.474 148.442ZM79.9249 193.756C77.8298 193.935 76.3333 193.636 73.9988 192.618C71.7241 191.601 68.5515 188.727 66.9353 186.872C66.3966 186.273 65.9177 186.991 66.3966 187.65C68.4318 190.523 71.5445 192.558 73.5797 193.576C75.615 194.654 78.6678 194.654 79.9847 194.474C81.2418 194.294 81.6009 193.576 79.9249 193.756ZM101.594 182.203C100.277 182.861 97.7032 184.058 95.3687 184.657C95.6081 185.854 95.7279 186.393 95.7279 186.752C97.2243 186.752 100.038 185.675 102.372 184.298C102.911 183.939 103.091 183.579 102.911 183.101C102.612 182.682 102.372 181.844 101.594 182.203ZM87.7066 175.977C87.2876 175.977 85.432 176.396 85.7911 176.696L87.2876 178.312C87.8264 178.312 89.0236 177.953 89.2031 177.833C89.4426 177.713 89.5623 177.593 89.3229 177.354C89.0834 177.055 88.1855 176.217 87.7066 175.977ZM102.073 136.949C101.474 137.009 97.1046 137.009 94.0518 136.59C88.6045 135.931 83.2172 132.818 81.4812 130.783C81.2418 130.424 79.6256 130.604 80.9425 131.681C82.2594 132.758 85.6714 135.871 90.6398 136.829C91.7771 137.009 93.5729 137.368 93.8722 141.498C94.1116 145.568 93.7525 148.262 93.7525 148.681C93.7525 149.1 93.513 149.22 93.1539 148.741C92.7947 148.262 91.6574 146.706 91.0588 146.407C90.4602 146.107 90.0412 146.167 89.5623 146.526C89.0236 146.945 88.2454 147.723 87.8862 148.142L89.3827 149.04C88.844 148.621 88.9038 148.442 89.2031 148.023C89.4426 147.604 89.7419 147.364 89.9813 147.245C90.2207 147.125 90.6398 147.065 91.1187 147.723C91.5975 148.382 94.1116 152.632 94.6504 153.769C95.1891 154.907 95.8476 154.188 95.6081 153.53C95.3687 152.871 94.83 151.734 94.5905 151.375C95.3088 149.1 96.087 145.628 96.087 143.414C96.087 141.199 95.5483 138.924 95.1293 138.086C96.925 138.146 100.876 138.086 102.432 137.607C103.929 137.009 102.672 136.889 102.073 136.949ZM69.8684 166.22C69.6889 166.699 68.9705 168.555 68.791 169.872C68.6114 171.248 68.2522 173.343 68.791 176.336C69.3297 179.329 69.5691 180.287 69.7487 180.826L71.3649 180.287C70.467 179.748 69.5093 177.294 69.2698 172.326C69.21 170.65 69.8684 167.836 70.4072 166.519C70.9459 165.202 70.048 165.741 69.8684 166.22ZM159.538 60.388L162.052 58.5324L158.102 52.4865L160.137 51.0499L164.567 57.5746L167.141 55.7189L162.531 49.3139L164.567 47.8773L169.355 54.6415L171.989 52.8457L164.806 42.7294L153.014 51.1696L159.538 60.388ZM166.602 75.2332L170.493 73.4374L167.799 67.631L176.838 63.8599L175.222 60.2683L162.471 65.8352L166.602 75.2332ZM168.936 81.3389L169.355 84.8707L177.915 83.9129L178.275 87.6242L182.106 87.3249L181.028 74.8741L177.137 75.1734L177.496 80.3213L168.936 81.3389ZM169.355 93.5503V97.7405L181.986 97.6806L181.926 93.4905L169.355 93.5503ZM175.341 103.786C173.186 103.367 170.732 103.726 168.996 105.043C167.44 106.241 166.662 107.378 166.243 109.593C166.003 110.97 166.183 112.825 166.662 114.382L170.014 113.304C169.655 112.586 169.535 111.389 169.894 110.131C170.553 107.857 172.408 106.839 174.683 107.198C177.017 107.558 178.454 109.712 178.035 112.346C177.855 113.424 177.377 114.262 176.179 115.04L178.275 117.494C179.951 116.417 181.208 114.441 181.507 113.005C181.986 110.67 181.387 108.934 180.31 106.959C179.053 105.103 177.197 104.086 175.341 103.786ZM172.947 121.385C171.211 120.906 168.817 122.882 167.619 124.019C166.961 124.677 164.626 127.012 163.549 126.653C162.531 126.294 162.891 124.857 163.19 123.839C163.669 122.463 164.387 121.206 165.524 120.487L163.429 119.529C162.412 120.427 161.274 121.744 160.795 123.121C160.257 124.677 160.077 126.593 160.257 127.73C160.496 129.227 161.035 130.185 162.771 130.065C164.088 129.945 167.44 127.73 169.415 125.994C170.433 125.037 171.211 124.917 171.69 125.276C172.348 125.695 172.348 126.832 172.109 127.611C171.75 128.628 171.331 130.125 170.493 130.783L173.306 132.699C174.443 131.561 175.102 129.765 175.401 128.149C176.239 124.079 174.084 121.625 172.947 121.385ZM145.112 44.8843C146.25 45.6625 147.985 46.2012 149.602 46.5005L149.961 43.0287C149.183 43.0287 148.045 42.6096 147.088 41.8913C145.292 40.335 145.172 37.8807 146.369 36.2645C147.866 34.349 150.32 33.93 152.535 35.3068C153.433 35.9054 153.732 36.8032 153.912 38.18L157.144 37.6413C156.964 35.7258 155.827 33.4511 154.75 32.4933C153.074 30.9968 151.098 30.6377 148.943 30.937C146.788 31.1764 144.813 32.6131 143.616 34.2293C142.418 35.9652 141.7 38.3596 142.119 40.5146C142.538 42.4899 143.257 43.6273 145.112 44.8843ZM28.0863 110.311C28.206 109.353 28.1462 107.558 29.1638 107.438C30.1814 107.258 30.8398 108.156 31.0194 109.174C31.2589 110.67 31.6779 111.688 31.1391 113.005L33.8328 112.765C34.3117 111.508 34.0723 109.892 33.8328 108.396C33.4737 106.779 32.9349 105.582 31.7377 104.505C30.6004 103.427 29.7025 103.188 27.9666 103.547C26.8891 103.726 25.0933 105.642 25.0334 109.353C25.0334 110.012 24.8539 111.448 24.2553 111.448C23.4771 111.508 22.8785 110.491 22.6989 109.772C22.5193 108.695 22.7588 106.48 23.1778 105.582H20.3644C19.9454 107.198 19.7658 109.413 20.1848 111.089C20.9031 114.741 23.1179 115.878 24.9137 115.698C26.8292 115.399 27.787 113.424 28.0863 110.311ZM22.5193 95.0468L32.3962 94.9271V91.8144L22.5193 91.9341L22.3996 87.6841L19.2271 87.8038L19.3468 99.5962L22.5792 99.5363L22.5193 95.0468ZM40.4773 63.7402L32.8152 59.4302L32.8751 59.3105L42.9914 59.131L45.3858 55.4795L32.8751 48.2365L30.9596 51.1097L39.5794 56.4373L27.8469 56.7964L26.2306 59.9091L38.5618 67.0923L40.4773 63.7402ZM28.0264 82.8354C32.3363 82.8354 35.7484 79.3636 35.7484 75.1135C35.7484 70.8036 32.2765 67.3916 28.0264 67.3916C23.7165 67.3916 20.3045 70.8635 20.3045 75.1135C20.3644 79.3636 23.7764 82.8354 28.0264 82.8354ZM28.0264 71.043C29.0901 71.043 30.1102 71.4656 30.8624 72.2177C31.6145 72.9699 32.037 73.99 32.037 75.0536C32.037 76.1173 31.6145 77.1374 30.8624 77.8896C30.1102 78.6417 29.0901 79.0643 28.0264 79.0643C26.9628 79.0643 25.9426 78.6417 25.1905 77.8896C24.4384 77.1374 24.0158 76.1173 24.0158 75.0536C24.0158 73.99 24.4384 72.9699 25.1905 72.2177C25.9426 71.4656 26.9628 71.043 28.0264 71.043ZM40.7167 125.875C40.7167 121.565 37.2448 118.153 32.9948 118.153C28.6849 118.153 25.2729 121.625 25.2729 125.875C25.2729 130.185 28.7448 133.597 32.9948 133.597C37.2448 133.597 40.7167 130.065 40.7167 125.875ZM32.9948 129.825C31.9311 129.825 30.911 129.403 30.1589 128.651C29.4067 127.899 28.9842 126.878 28.9842 125.815C28.9842 124.751 29.4067 123.731 30.1589 122.979C30.911 122.227 31.9311 121.804 32.9948 121.804C34.0585 121.804 35.0786 122.227 35.8307 122.979C36.5829 123.731 37.0054 124.751 37.0054 125.815C37.0054 126.878 36.5829 127.899 35.8307 128.651C35.0786 129.403 34.0585 129.825 32.9948 129.825ZM42.2731 134.614C41.1357 135.692 40.5371 138.146 41.6146 139.822C40.4174 139.223 37.9632 139.044 36.8258 140.002C34.0124 142.396 37.4244 145.868 40.178 148.621L44.0689 152.452L54.245 144.072L50.1147 139.283C48.7379 137.368 44.6675 132.459 42.2731 134.614ZM42.6921 148.083C41.6146 146.885 38.6216 144.491 39.8787 143.294C41.0759 142.156 44.1886 145.808 44.4879 146.287L42.6921 148.083ZM47.421 143.773L47.1816 143.414C46.2837 142.336 43.5301 139.343 44.6675 138.266C45.7449 137.188 48.4985 140.66 49.2168 141.618L49.576 142.037L47.421 143.773ZM76.5129 160.893C75.4354 160.893 74.4178 160.414 73.879 160.773C73.4002 161.012 73.8192 161.85 74.4776 162.03C75.0164 162.21 78.0094 162.03 78.5481 162.03L79.5059 162.15C79.5059 160.893 79.0868 160.952 78.8474 160.773C78.608 160.653 77.5305 160.893 76.5129 160.893Z" fill="white"/>
</svg>
