<svg width="200" height="200" viewBox="0 0 200 200" fill="none" xmlns="http://www.w3.org/2000/svg">
<path d="M181.824 51.5367C184.166 47.107 185.241 42.7405 185.241 38.5005C185.241 28.9448 179.862 20.2751 172.332 15.1492C161.827 8.06157 146.133 6.98577 135.058 20.3384C118.858 18.1235 105.252 22.5533 100.063 24.7682C94.8739 22.6799 81.2681 18.1868 65.0677 20.3384C53.93 7.04906 38.1726 8.06157 27.731 15.1492C20.2004 20.2751 14.8213 28.8816 14.8213 38.5005C14.8213 42.7405 15.8971 47.107 18.2386 51.5367C9.88528 63.6237 4 77.9889 4 92.6072C4 110.2 11.5306 119.312 14.3784 123.236L16.6565 120.958C24.6301 141.208 38.2992 152.156 54.7527 162.091C54.7527 162.091 55.1324 160.13 55.3855 158.295C73.1046 173.672 81.5212 169.875 99.9998 190.695C118.352 169.875 127.085 173.546 144.614 158.295L145.247 162.091C152.588 157.662 173.281 146.524 183.343 120.958L185.621 123.236C187.393 120.831 196 111.212 196 92.6072C196.063 78.0522 190.304 63.6237 181.824 51.5367Z" fill="#707271"/>
<path d="M176.762 51.7899C193.722 25.844 155.309 -1.17767 136.767 24.9581C118.036 21.6674 102.152 28.4386 100.063 29.4511C97.9749 28.5019 82.091 21.6041 63.3593 24.9581C44.8175 -1.17767 6.40496 25.844 23.3647 51.7899C4.0635 78.242 5.96198 104.378 14.9481 116.655L18.6185 112.984C18.6185 112.984 23.871 138.487 51.652 155.257L52.6646 149.751C69.7509 168.04 85.3817 167.597 100.063 184.304C114.745 167.597 130.376 168.04 147.462 149.751L148.474 155.257C176.256 138.487 181.508 112.984 181.508 112.984L185.178 116.655C194.165 104.314 196.063 78.242 176.762 51.7899Z" fill="#12173F"/>
<path d="M100.253 148.865C100.253 148.865 86.9636 149.055 84.9385 150.321C84.9385 150.321 82.6604 154.308 100.253 154.244C117.023 154.181 114.555 151.08 114.681 150.7C114.555 150.574 108.986 148.865 100.253 148.865ZM88.6722 133.361C88.6722 133.361 90.6973 127.349 92.9754 129.248C96.0763 131.906 100.063 137.285 100.063 137.791V144.942L95.1903 145.195C92.4059 145.258 83.3565 147.41 83.3565 147.41C70.9531 116.718 77.7876 93.5563 81.1416 85.203C68.8647 87.8608 66.8397 73.1793 66.8397 73.1793C68.1054 72.9261 70.0038 73.4957 72.1554 74.5082C75.3829 76.0903 79.3064 78.7481 82.4072 81.1529L84.8753 83.1146C93.2286 90.139 99.9998 88.7468 99.9998 88.7468V118.743C100.063 118.743 75.6993 116.908 88.6722 133.361ZM111.517 133.361C127.021 117.604 101.708 118.553 100.126 118.806C102.721 118.933 122.339 119.059 111.517 133.361ZM121.832 85.7725C135.818 123.362 118.099 147.536 117.972 147.663C128.92 118.933 121.896 95.0118 117.086 86.0889C114.618 86.3421 111.644 86.2155 111.644 86.2155C111.644 86.2155 115.377 83.9373 117.719 81.7857C117.909 81.5959 118.099 81.4693 118.288 81.2794C120.25 79.5075 124.047 76.4067 128.73 74.5715C130.439 73.9387 132.211 73.4324 134.109 73.2426C134.109 73.1793 132.78 85.646 121.832 85.7725ZM143.918 37.1082C143.918 37.1082 149.613 22.8696 167.079 26.3501C167.079 26.3501 151.069 15.7819 139.931 34.83C139.931 34.83 123.984 27.3626 100.126 37.6777C100.126 37.6777 77.7243 29.7674 60.7013 34.2605C60.7013 34.2605 50.7659 17.0476 36.7804 24.1352C22.795 31.2229 30.0092 47.6131 32.4139 51.853C32.4139 51.853 9.18922 75.4575 17.9222 104.631L22.5419 98.8087C22.5419 98.8087 29.1865 130.64 46.3994 140.639L47.4119 132.792C47.4119 132.792 65.3842 154.434 86.4573 163.673C88.4191 164.623 99.6834 170.192 99.9365 172.913V157.788C99.9365 157.788 85.3182 158.991 81.458 152.219C78.8001 147.663 61.9669 117.604 70.3202 86.1522C70.3202 86.1522 62.2201 84.9498 60.7013 71.2808C60.7013 71.2808 54.6894 68.3065 47.1588 68.9393C47.1588 68.9393 60.5747 64.6994 73.1047 69.5722C85.6979 74.4449 88.9886 86.785 97.5951 81.3427L99.9365 46.474L102.594 81.4693C111.074 86.9749 114.492 74.5082 127.085 69.6987C139.678 64.826 153.031 69.0659 153.031 69.0659C153.031 69.0659 147.652 65.2689 139.045 63.5603C131.894 62.1048 121.263 66.7244 121.263 66.7244C121.263 66.7244 122.718 56.8523 127.528 51.5366C131.704 46.9803 141.07 45.9677 143.918 37.1082ZM35.4515 49.1952C34.9453 44.449 40.9571 39.7028 40.9571 39.7028C38.4891 37.1715 34.1226 39.3231 34.1226 39.3231C38.0461 31.6659 46.8424 35.3995 46.8424 35.3995C43.5517 31.2862 36.464 31.6026 36.464 31.6026C45.197 22.9329 55.7652 36.2222 55.7652 36.2222C46.3361 38.3105 35.4515 49.1952 35.4515 49.1952Z" fill="#5D76A9"/>
<path d="M82.4704 81.153C81.1415 80.71 78.9266 82.1022 77.6609 84.507C73.4843 83.3046 72.0288 78.8115 72.2186 74.5083C75.446 76.0904 79.3063 78.7482 82.4704 81.153ZM123.414 84.5702C122.085 82.0389 119.744 80.5834 118.415 81.2795C120.377 79.5076 124.174 76.4068 128.857 74.5716C128.983 78.8115 127.464 83.3046 123.414 84.5702Z" fill="#FFBB22"/>
</svg>
