<svg width="200" height="200" viewBox="0 0 200 200" fill="none" xmlns="http://www.w3.org/2000/svg">
<path d="M83.0468 127.221C83.0468 149.049 65.3516 166.745 43.5234 166.745C21.6952 166.745 4 149.049 4 127.221C4 105.393 21.6952 87.6979 43.5234 87.6979C65.3516 87.6979 83.0468 105.393 83.0468 127.221Z" fill="white"/>
<path d="M189.638 39.0537L171.89 77.136H100.801L78.4178 125.18H58.3047C58.4624 122.784 58.9352 120.389 59.7234 118.024C61.6464 112.224 61.2791 119.51 65.8187 116.074C67.0166 117.429 72.0812 106.864 73.0585 108.44C73.2161 108.693 73.4998 108.661 73.626 108.44L106.002 39.0537H189.638Z" fill="white"/>
<path fill-rule="evenodd" clip-rule="evenodd" d="M196 35L174.473 81.1897H103.384L81.0013 129.234H53.9756L54.2598 124.914C54.4407 122.164 54.9825 119.429 55.8764 116.746C56.1384 115.956 56.416 115.217 56.7317 114.591C56.975 114.108 57.5612 113.009 58.7452 112.29C59.4528 111.861 60.316 111.602 61.2566 111.644C62.1361 111.683 62.8196 111.974 63.2466 112.208C63.4327 112.31 63.6098 112.425 63.7701 112.54L64.9767 111.627C65.3214 111.145 65.7159 110.565 66.1632 109.904C66.1988 109.851 66.2348 109.798 66.2712 109.744C66.9688 108.712 67.8216 107.45 68.5855 106.544C68.9272 106.14 69.5947 105.378 70.4882 104.861C70.6015 104.796 70.7494 104.716 70.9282 104.635L103.42 35H196ZM73.626 108.44C73.4998 108.661 73.2161 108.693 73.0585 108.44C72.7861 108.001 72.1963 108.505 71.4612 109.431C71.457 109.436 71.4528 109.441 71.4486 109.447C71.0493 109.951 70.6076 110.579 70.1508 111.247C70.1469 111.252 70.1429 111.258 70.139 111.264C69.9482 111.543 69.7549 111.829 69.561 112.116C69.2949 112.509 69.0277 112.904 68.7646 113.286L68.763 113.288C68.6507 113.451 68.5392 113.611 68.4287 113.767C67.2909 115.378 66.2747 116.59 65.8187 116.074C63.5434 117.796 62.5008 116.825 61.7846 116.157C61.0719 115.493 60.6826 115.131 59.7234 118.024C59.5813 118.45 59.4495 118.877 59.3279 119.306C59.3202 119.333 59.3125 119.36 59.3048 119.387C59.1423 119.966 58.9985 120.546 58.8734 121.127C58.5833 122.474 58.3938 123.827 58.3047 125.18H78.4178L100.801 77.136H171.89L189.638 39.0537H106.002L73.626 108.44ZM69.6132 110.577L69.621 110.589C69.6184 110.585 69.6158 110.581 69.6132 110.577Z" fill="white"/>
<path d="M189.638 39.0537L171.89 77.1361H100.801L78.4178 125.18H58.3048C58.4624 122.784 58.9353 120.389 59.7234 118.024C61.6464 112.224 65.2718 107.463 69.8114 104.027C71.0094 105.383 72.0812 106.864 73.0585 108.441C73.2162 108.693 73.4999 108.661 73.626 108.441L106.002 39.0537H189.638ZM25.0142 140.06C22.9966 144.127 20.0963 147.563 16.5655 150.211C13.5475 146.71 11.2449 142.65 9.78759 138.263C8.80138 135.308 8.21817 132.233 8.05371 129.121H28.0406C27.7569 132.873 26.7481 136.592 25.0142 140.06ZM41.1866 129.089V162.317C33.0216 161.844 25.2664 158.534 19.3082 153.049C23.1227 150.085 26.2752 146.302 28.482 141.857C30.4996 137.822 31.666 133.503 31.9182 129.121H41.1866V129.089Z" fill="#002B5C"/>
<path d="M26.5905 118.024C27.3786 120.357 27.8515 122.784 28.0091 125.18H8.05371C8.49506 117.362 11.5215 109.954 16.5655 104.122C21.1051 107.495 24.6675 112.255 26.5905 118.024ZM41.1866 91.9529V125.18H31.9498C31.7921 122.375 31.2562 119.537 30.342 116.795C28.2298 110.395 24.2892 105.099 19.3397 101.253C22.902 97.9427 27.221 95.3261 32.1389 93.6868C35.1338 92.7095 38.1602 92.142 41.1866 91.9529ZM54.3641 125.18H45.1273V91.9529C53.2923 92.3942 61.079 95.7044 67.0372 101.19C61.8986 105.13 58.0841 110.49 56.0034 116.795C55.0892 119.537 54.5217 122.375 54.3641 125.18ZM67.0372 153.08C63.3817 156.446 59.0505 158.993 54.3326 160.552C51.2747 161.56 48.1852 162.128 45.1273 162.285V129.089H54.3641C54.6479 133.471 55.7828 137.79 57.8004 141.826C60.0386 146.302 63.1912 150.117 67.0372 153.08ZM78.3863 129.089C77.9449 136.908 74.887 144.379 69.8114 150.243C66.2491 147.595 63.3488 144.127 61.2997 140.06C59.5658 136.592 58.557 132.872 58.3048 129.089H78.3863Z" fill="#002B5C"/>
</svg>
