<svg width="200" height="200" viewBox="0 0 200 200" fill="none" xmlns="http://www.w3.org/2000/svg">
<path d="M99.6369 178.092L86.8784 161.547C70.6451 156.205 59.4425 141.579 58.4052 124.568L50.5219 114.299C43.0016 117.566 35.4814 122.649 35.4814 122.649L11.7796 98.8955L21.7374 77.0608L4 53.9295H32.3177L37.8671 41.9489L51.9222 36.2439L53.4781 32.0429L64.8363 37.2293L67.5332 27.7901L69.4003 27.1677C78.4246 24.1596 88.7455 22.5519 99.3776 22.5L103.164 22.5519C103.579 22.5519 105.186 22.6556 105.186 22.6556C114.211 23.1224 122.613 24.5746 130.34 27.1159L132.207 27.7382L134.749 36.7626L138.846 33.4951L161.874 41.6896L167.423 53.8258H196L177.951 77.1126L187.754 98.6361L163.689 123.427C163.689 123.427 154.872 116.996 148.856 114.61L141.595 123.998C140.817 141.424 128.888 156.724 112.24 161.858L99.6369 178.092Z" fill="white"/>
<path d="M99.6369 166.682L181.634 60.8792H18.2107L99.6369 166.682Z" fill="#BDBEC0"/>
<path d="M11.4683 57.56L99.6887 172.023L188.48 57.56H11.4683ZM181.634 60.8793L99.6368 166.63L18.2106 60.8793H181.634Z" fill="#006CB4"/>
<path d="M169.809 68.1921L169.705 68.0883L164.467 64.5616L166.438 60.8274L166.489 60.7237L166.438 60.6199L159.228 44.8015L159.177 44.6459L159.073 44.594L139.676 37.7999L139.52 37.748L139.416 37.8517L134.178 41.6896L134.126 41.7415L134.074 41.7934L133.193 43.9717C133.193 43.9717 125.154 42.0008 113.225 40.7042L103.682 39.9263L103.216 39.8744L102.749 39.8225H102.541L102.438 39.9263L98.5996 43.7642V39.8744C98.5996 39.8744 87.6563 40.4968 80.4991 41.4822C73.3419 42.4676 66.2884 44.1791 66.2884 44.1791L64.94 41.4303L64.8881 41.3266L64.7844 41.2747L55.6564 37.0738L55.397 36.97L55.2933 37.2294L54.2042 40.1856L53.9448 39.5632L53.8411 39.3039L53.5818 39.4076L40.5121 44.8015L40.4084 44.8533L40.3046 45.0089L16.0842 98.2731L35.9999 118.241L36.8816 117.774L39.2674 116.374C41.6531 114.973 44.9724 113.002 46.5283 112.224L46.8395 112.069C48.8622 111.032 49.8995 110.617 59.598 106.416L60.376 106.105C60.376 106.105 61.4651 105.69 63.4359 105.015C68.7779 103.252 82.5737 99.1029 95.9546 99.1029H96.1102H97.7179C106.794 99.3622 117.426 101.281 124.791 102.889C131.844 104.393 137.134 105.845 138.639 106.26L139.676 106.571C146.366 109.165 154.457 113.365 162.029 118.189L163.015 118.811L183.138 98.0657L169.809 68.1921Z" fill="#006CB4"/>
<path d="M167.63 70.0592L148.285 57.1451L144.914 47.7058L150.93 49.8323L153.316 55.7447L162.444 58.701L157.102 46.9279L139.883 40.7042L136.719 43.1937L142.476 61.7609L160.888 74.8306L165.66 86.6037L158.036 83.1289L155.39 75.8161L145.951 73.0673L150.982 89.6637L155.598 91.4271C159.782 93.0781 163.868 94.9655 167.838 97.0802C170.587 98.4806 173.284 100.036 176.032 101.592L180.078 97.4433L167.63 70.0592ZM36.9853 78.8242L43.4164 73.0673L44.9723 74.8825L38.5931 93.2423C42.068 91.6864 45.6466 90.2861 49.2252 89.0413L53.8411 73.949L49.8475 67.3104L58.0939 59.4271L62.9172 43.3493L56.9529 40.7042L51.6109 55.8485L43.0534 63.1613L50.8848 43.5049L42.5347 46.8242L19.4553 97.4433L23.0858 101.074C25.2641 99.829 27.3905 98.5843 29.5688 97.547L36.9853 78.8242ZM95.4877 42.8306L88.4342 43.1937L85.115 81.1062C88.1231 80.795 91.1312 80.6394 94.1911 80.4838L95.4877 42.8306ZM116.493 73.171L108.298 72.7042L106.95 49.4174L113.899 49.7804L113.121 43.4011L103.734 42.7269L99.5331 46.9279V75.9716L103.942 80.4838C108.454 80.6394 112.966 80.9506 117.426 81.5211L116.493 73.171ZM69.867 57.7156L72.8232 72.0819L70.9043 83.0251C73.8086 82.5065 76.6093 81.9879 79.5655 81.6248L84.1295 43.5567L77.5947 44.5421L75.4164 56.9895L73.0307 45.2682L65.3548 47.1872L54.6709 87.1224C57.7308 86.137 60.9464 85.3071 64.1101 84.4773L69.867 57.7156ZM127.021 71.0964L129.355 67.9846L132.726 70.7334L135.838 84.8404C139.105 85.6183 142.321 86.6037 145.536 87.5891L139.779 66.8436L133.763 61.9684L137.186 57.4563L134.386 46.9279L127.125 45.3201L129.925 55.9522L125.413 61.9684L122.094 44.5421L115.352 43.7123L120.279 81.936C123.287 82.3509 126.295 82.9214 129.303 83.4919L127.021 71.0964Z" fill="#F38223"/>
<path d="M86.1006 88.3152C86.1006 88.3152 88.8493 86.7074 94.4506 86.0332L94.2951 81.6248C91.2351 81.7285 88.227 81.936 85.167 82.1434C85.4782 84.0105 85.8931 86.4481 86.1006 88.3152ZM103.786 85.8258C106.068 86.0851 108.454 86.863 110.58 87.4335C112.499 87.9003 114.574 88.782 116.285 89.4562L117.271 82.7139C112.759 82.1953 108.558 81.8322 103.994 81.6767C103.838 82.9732 103.838 84.8403 103.786 85.8258ZM74.5349 96.4579C77.1281 94.5389 78.684 92.5681 81.4328 90.8566C80.966 88.3671 80.24 85.2034 79.7732 82.8177C76.8169 83.2326 73.8607 83.6475 70.9563 84.2698C71.9417 87.9522 73.3939 92.7755 74.5349 96.4579ZM118.515 90.8047C121.057 92.2569 123.028 93.9165 125.258 96.1467L125.725 96.5097L129.251 84.7366C126.233 84.0707 123.187 83.5343 120.123 83.1288L118.515 90.8047ZM129.822 101.022L138.379 102.993L145.537 88.9376C142.269 87.8485 139.105 86.9668 135.682 86.1369L129.822 101.022ZM61.5171 102.993C63.7472 102.215 66.8072 101.074 69.7116 100.296L64.2659 85.722C60.9466 86.5 57.9904 87.3817 54.8267 88.3671C56.7975 93.2423 59.0795 98.3249 61.5171 102.993ZM48.7067 108.231C49.1735 107.816 53.9968 105.69 57.3161 104.393L49.2772 90.286C45.7505 91.5308 42.4312 92.9311 38.9563 94.487L48.7067 108.231ZM36.7262 114.662L41.6532 111.706L30.3988 98.4287C28.2205 99.5178 26.1978 100.711 24.0195 101.904L36.7262 114.662ZM142.736 104.756C149.478 107.401 158.969 112.639 162.703 115.181C164.363 113.521 173.802 103.615 175.151 102.318C167.319 97.7544 159.177 93.7609 150.567 90.701L142.736 104.756Z" fill="#BDBEC0"/>
<path d="M102.49 85.5146L99.2222 85.4627V77.5794L102.593 81.1062L102.49 85.5146Z" fill="#BDBEC0"/>
<path d="M99.9999 84.0105C78.995 84.0105 62.0874 101.022 62.0874 121.923C62.0874 142.928 79.0988 159.835 99.9999 159.835C121.005 159.835 137.912 142.824 137.912 121.923C137.912 101.022 121.005 84.0105 99.9999 84.0105Z" fill="#006CB4"/>
<path d="M102.282 86.8112C99.3258 87.8485 96.577 89.3525 93.7245 90.5973C91.8056 89.4563 90.7683 89.1969 89.4717 88.3153C93.5689 86.9668 97.8736 86.7075 102.282 86.8112ZM129.511 102.941C120.538 93.9166 107.157 94.5908 95.7472 91.3234C95.7472 91.3234 102.438 88.1597 105.913 87.2261C115.3 88.9376 124.324 94.5389 129.511 102.941ZM79.2545 104.341C70.6451 117.515 69.5041 133.8 76.2983 148.062C67.4814 140.594 62.2432 126.228 66.133 112.276C69.4522 107.712 73.6014 103.667 79.2545 104.341ZM88.4344 113.729C93.0503 127.472 94.0876 142.772 106.12 156.62C96.7326 158.539 87.5009 155.738 80.0843 151.019C70.9563 137.69 71.7861 117.722 80.9142 104.808C85.4263 106.053 87.812 111.913 88.4344 113.729ZM82.0552 103.356C83.4555 101.385 85.0114 99.5178 86.8266 97.8063C106.224 103.252 124.843 123.479 128.007 143.343C127.125 144.847 124.843 146.87 123.391 148.477C118.567 152.782 113.225 155.116 108.143 156.309C99.0665 146.87 96.0584 134.682 92.791 122.597C90.2496 113.21 88.59 106.26 82.0552 103.356Z" fill="#F38223"/>
<path d="M127.488 103.252C118.049 94.9538 104.979 95.9911 93.9839 92.205C91.8574 93.5535 89.7829 95.0057 87.9677 96.6653C107.365 102.733 125.05 121.819 129.355 141.476C132.415 137.015 134.23 131.985 135.008 126.487C135.423 118.085 135.423 110.513 127.488 103.252ZM85.167 97.2358C83.2999 99.0511 81.8996 100.763 80.3955 102.889H80.3437C75.2091 101.748 71.1638 104.393 67.8445 107.712C69.4004 103.823 72.6678 99.1029 76.0908 96.0948C79.3064 96.1467 81.6403 96.0948 85.167 97.2358Z" fill="#F38223"/>
<path d="M86.4637 96.0429C88.3308 94.3833 90.0941 92.983 92.2724 91.6345L87.2935 89.1451C83.9742 90.5454 80.3956 92.2569 77.958 94.487C81.8478 94.9019 83.4037 95.1094 86.4637 96.0429Z" fill="#F38223"/>
<path d="M94.6061 37.4887L93.0502 38.9927L90.4052 39.1483L89.4198 38.3185L88.175 39.4076L85.2706 39.667L84.0259 38.4741L85.6856 27.2196L87.8638 26.9085L86.7228 36.8144L88.2788 36.6589L89.4716 26.7529L91.6499 26.5973L90.7682 36.4514L92.2723 36.2958L93.0502 26.4935L95.2285 26.3379L94.6061 37.4887ZM101.711 26.1305V33.184H103.112L103.008 26.2342L105.135 26.3379L105.446 34.2213L104.045 35.5697H103.579L103.63 38.9409L101.297 38.889L101.245 35.5178L100.778 35.466L99.3776 34.0138L99.4813 26.1305H101.711ZM84.1815 27.3752L83.8185 29.7091L81.1734 30.1759L80.7066 32.8728L83.4036 32.4579C83.248 33.4952 83.248 33.8582 82.9886 34.7918L80.3436 35.1548L79.8768 37.7999L82.5737 37.3849L82.1588 39.9263C80.2399 40.1856 78.3728 40.3931 76.5575 40.7042L79.0989 28.3606L84.1815 27.3752ZM74.2755 41.2229L71.5786 41.7415L72.8233 36.607L71.9935 34.7399L69.8152 42.1564L67.1702 42.7788L70.5413 30.7982L72.927 30.0203C73.2382 30.6945 73.9643 31.9911 73.9643 31.9911L74.6386 29.4498C74.6386 29.4498 76.2982 28.983 77.2318 28.7755L74.2755 41.2229ZM112.758 28.2569C113.018 31.5243 113.536 34.5843 113.848 37.5924L112.655 39.4076L108.817 39.1483L107.417 37.6443C107.157 34.3768 107.002 31.0057 106.794 27.7901C107.157 27.3234 107.676 26.9603 108.143 26.4417L111.41 26.7529L112.758 28.2569ZM109.128 28.8274L109.854 36.4514L111.254 36.5551L110.528 28.983L109.128 28.8274ZM125.258 29.3979L126.658 35.0511L127.54 35.2067L128.006 34.5843L126.865 29.8128C126.865 29.8128 128.006 30.124 129.199 30.5389L130.392 35.1029L129.874 35.8809L130.963 37.0219L132.57 42.6232L129.925 42.0008L128.836 38.111L127.177 37.748L128.058 41.5859L125.413 41.0673C124.428 36.8663 122.768 28.62 122.768 28.62C122.768 28.62 124.169 29.1386 125.258 29.3979ZM121.109 29.8128L121.99 34.3768L121.523 35.1029L122.405 36.1921L123.183 40.7042L120.59 40.2375L119.864 36.4514L118.308 36.2958L118.827 40.03L116.233 39.7188L114.574 27.1678L119.501 27.9976L121.109 29.8128ZM117.374 30.0721L117.841 33.2358L119.293 33.3914L118.671 30.2796L117.374 30.0721Z" fill="#006CB4"/>
</svg>
