<svg width="200" height="200" viewBox="0 0 200 200" fill="none" xmlns="http://www.w3.org/2000/svg">
<path d="M45.7776 67.0659C45.7776 67.0659 62.1232 40.35 95.5552 40.35C128.987 40.35 144.592 66.2758 144.592 66.2758H189.975L188.197 77.4363C188.197 77.4363 186.864 81.8807 184.839 82.3251H187.95C187.95 82.3251 188.987 86.2263 182.765 99.7078H195.999C195.999 99.7078 196.542 123.313 167.999 134.473C167.999 134.473 153.234 139.164 145.678 131.115C145.678 131.115 130.666 159.115 95.654 159.115C60.6418 159.115 44.7406 130.325 44.7406 130.325H4L10.4691 118.671H6.07407L11.2592 109.09H20.0987L21.6789 105.436H17.5308L27.6542 86.7695H33.3332L35.6542 81.0906H30.7159L38.2715 67.0659H45.7776Z" fill="white"/>
<path d="M96.0492 152.893C124.691 152.893 147.901 129.337 147.901 100.251C147.901 71.1647 124.691 47.6093 96.0492 47.6093C67.4073 47.6093 44.1975 71.1647 44.1975 100.251C44.1975 129.337 67.4073 152.893 96.0492 152.893Z" fill="#FAB624"/>
<path d="M136.79 66.2265C136.148 65.4857 135.209 63.9055 128.839 58.3253C119.456 50.1771 107.061 46.4241 95.3577 46.4241C86.7652 46.4241 79.2097 48.35 70.9134 52.9426C60.2468 58.7697 55.9011 65.5351 54.8147 66.9178C54.0246 67.9549 53.8764 68.4981 54.4196 68.7944C54.8147 68.9919 55.506 68.2018 56.148 67.3129C59.3085 63.1154 63.4566 59.0166 67.8023 56.5475C69.185 56.745 71.0615 58.6216 71.8023 59.6586C68.9875 61.1894 64.3455 64.6956 62.6171 66.0783C61.0863 67.2635 60.5924 67.9055 60.9875 68.3993C61.3332 68.7944 62.5184 68.0042 63.4566 67.2141C65.1356 65.8314 70.1233 62.3252 72.5924 60.9919C74.2714 62.9178 73.7282 66.5721 73.1356 67.4116C72.7899 67.8561 72.7899 68.3005 73.1356 68.4981C73.4813 68.6956 73.8763 68.2018 74.3702 67.461C75.5553 65.8314 75.0615 61.782 74.0739 60.3499C77.0862 58.5228 81.4319 57.2388 84.0491 56.6463C84.2961 57.0907 87.4565 66.3746 88.0491 68.0042C88.3948 68.9425 88.7405 70.0289 89.3825 69.782C89.8269 69.6339 89.5306 68.5968 89.1355 67.6092C88.6417 66.3252 86.2714 58.5722 85.5306 56.2512C86.4195 55.7574 91.6047 54.7203 92.938 54.7697C92.296 58.1771 94.6664 59.5598 97.4318 61.3376C98.9133 62.2759 108.049 67.5598 109.975 68.745C111.061 69.4363 111.901 69.8808 112.148 69.5351C112.395 69.14 111.654 68.3993 110.617 67.8561L97.7281 60.1524C95.1602 58.5722 93.7775 56.7944 94.4195 54.5722C95.259 54.3253 97.8269 54.3253 100.494 54.3253C118.666 54.4734 133.284 64.9425 134.913 66.5721C135.753 67.4116 136.888 68.1524 137.333 67.8067C137.679 67.6586 137.185 66.6709 136.79 66.2265ZM73.3331 59.0166C72.8393 58.1771 70.5183 56.103 69.2838 55.6586C72.1973 53.5352 78.9627 50.4241 81.5306 49.8808C81.9751 50.6216 83.1603 53.7821 83.5553 55.066C81.3331 55.5598 75.3084 57.7821 73.3331 59.0166ZM93.2343 53.1895C90.8639 53.3376 86.5677 54.2759 85.0368 54.7203C84.6417 53.6833 83.5553 50.4734 83.2096 49.4858C87.6047 48.2512 92.6417 47.8562 96.5923 48.1525C95.4565 48.9426 93.6294 52.2018 93.2343 53.1895ZM105.037 53.0413C101.086 52.745 97.8763 52.6463 95.0615 52.9426C95.901 50.9179 97.4812 48.9426 98.7651 48.1525C101.432 48.2512 104.197 48.6463 106.469 49.0907C113.531 50.5228 124.444 54.7697 129.185 61.0907C122.864 56.8438 112.395 53.5352 105.037 53.0413ZM140.74 128.547C141.432 127.313 141.975 126.621 141.382 126.276C140.839 125.979 140.345 127.165 139.703 128.202C137.58 131.905 135.259 134.967 130.024 139.708C124.247 144.992 117.531 148.053 115.21 148.843C113.234 143.313 105.679 119.609 105.481 118.918C105.185 117.881 104.938 117.584 104.592 117.732C104.197 117.881 104.444 118.424 104.642 119.313C104.839 120.202 113.827 148.201 114.123 149.238C112.345 150.127 105.135 152.152 100.049 152.3C95.5059 152.448 90.2713 152.3 87.6047 151.658C84.4936 149.14 77.3331 139.066 74.6665 133.732C71.4566 127.411 69.3825 121.634 68.8393 119.165C68.5924 117.979 68.2467 117.14 67.6541 117.288C67.0122 117.436 67.3579 118.374 67.7529 119.609C68.7406 122.868 70.2714 127.461 73.5801 134.029C77.0862 140.992 83.3578 149.09 85.1849 151.362C79.4566 150.127 72.4936 147.461 65.8764 142.572C60.1974 138.325 55.2591 132.893 52.79 128.942C52.3456 128.251 51.8517 127.313 51.2591 127.708C50.9629 127.905 51.3085 128.695 51.753 129.387C55.3579 135.806 64.0492 144.893 75.2591 149.93C88.296 155.757 102.469 155.411 115.259 150.522C126.321 146.127 135.95 137.288 140.74 128.547Z" fill="#0B1A23"/>
<path d="M119.703 105.683C114.864 111.56 112.098 113.584 107.21 113.584C105.58 113.584 104.691 113.189 105.135 112.399L110.963 100.695H113.185C115.654 100.695 115.308 102.77 114.666 105.584C114.518 105.979 114.864 106.029 115.16 105.683L120.691 95.9547C120.987 95.3128 120.247 95.214 119.901 95.6584C117.135 99.4609 114.222 99.1646 112.938 99.1646H111.901L118.123 87.2634H120.642C123.802 87.4609 125.284 90.1276 124.395 96.5967H125.728L130.321 87.5597C130.716 86.7696 129.876 86.0782 129.037 86.0782H97.975C96.1973 86.0782 96.0985 87.4609 97.8269 87.4609C99.259 87.4609 99.1602 89.4362 97.8763 90.4239L84.6911 100.893L87.3578 113.239C87.5553 114.177 88.1479 114.621 89.1849 114.621H114.913C116 114.621 116.444 114.177 116.74 113.732L121.432 105.732C121.975 104.597 120.493 104.695 119.703 105.683ZM101.728 100.004H99.4565C99.3798 100.01 99.3077 100.043 99.2533 100.097C99.199 100.152 99.1659 100.224 99.1602 100.3C99.1659 100.377 99.199 100.449 99.2533 100.504C99.3077 100.558 99.3798 100.591 99.4565 100.597H101.728C102.518 100.597 103.259 100.695 103.061 101.041L97.1355 112.3C96.3948 113.683 94.8639 113.337 94.617 112.251L91.6541 97.0412L102.024 89.0412C103.061 88.1523 105.037 86.7202 106.074 86.7696H108.296C109.679 86.7696 110.123 87.4116 109.876 88.2511L109.481 89.0412C109.234 89.4856 108.395 89.535 107.753 89.535H106.419C106.343 89.5407 106.271 89.5738 106.216 89.6281C106.162 89.6825 106.129 89.7546 106.123 89.8313C106.129 89.908 106.162 89.9801 106.216 90.0345C106.271 90.0889 106.343 90.1219 106.419 90.1276H107.703C108.247 90.1276 108.987 90.1276 108.691 90.572L103.901 99.7078C103.605 99.9547 102.617 100.004 101.728 100.004ZM80.4442 113.288C79.7529 113.288 79.259 112.794 79.1109 112.3C78.864 111.609 78.9134 110.473 79.1603 109.979L91.1602 88.7449C91.3578 88.3498 91.8516 87.5103 92.4442 87.5103C93.5306 87.5103 93.975 86.0782 92.1479 86.0782H82.5677C80.7899 86.0782 80.7899 87.4609 82.4689 87.4609C83.1603 87.4609 83.4566 88.1523 83.259 88.5967L80.5924 93.3869C80.2467 93.9301 79.506 93.9794 78.7652 93.9794H76.4936C76.4169 93.9851 76.3448 94.0182 76.2905 94.0726C76.2361 94.1269 76.203 94.199 76.1973 94.2757C76.203 94.3524 76.2361 94.4245 76.2905 94.4789C76.3448 94.5333 76.4169 94.5663 76.4936 94.572H78.7652C79.4072 94.572 79.901 94.7696 79.506 95.5103L70.6665 111.658C70.0245 112.547 68.79 112.745 68.8393 111.016L71.9998 87.3622C72.148 86.6214 71.9504 86.1276 71.1109 86.1276H66.3208C65.7282 86.1276 65.3826 86.4239 65.1356 86.7696L63.4566 88.893C63.2097 89.14 62.7653 89.14 62.2221 89.14H58.2221C58.1454 89.1457 58.0733 89.1787 58.0189 89.2331C57.9645 89.2875 57.9315 89.3596 57.9258 89.4362C57.9315 89.5129 57.9645 89.585 58.0189 89.6394C58.0733 89.6938 58.1454 89.7268 58.2221 89.7325H61.4813C62.0739 89.7325 62.7653 89.8807 62.5184 90.1276L57.9258 95.856C57.7776 96.0041 57.3332 96.0535 57.0369 96.0535H55.7036C55.6269 96.0592 55.5548 96.0923 55.5004 96.1466C55.446 96.201 55.413 96.2731 55.4073 96.3498C55.413 96.4265 55.446 96.4986 55.5004 96.553C55.5548 96.6073 55.6269 96.6404 55.7036 96.6461H56.79C57.1357 96.6461 57.1357 96.7942 56.9875 96.9424L52.6912 102.325C52.4443 102.523 52.0493 102.572 51.6048 102.572H47.8024C47.7257 102.578 47.6536 102.611 47.5992 102.665C47.5448 102.72 47.5118 102.792 47.5061 102.868C47.5118 102.945 47.5448 103.017 47.5992 103.071C47.6536 103.126 47.7257 103.159 47.8024 103.165H51.0616C51.5555 103.165 51.9505 103.263 51.7036 103.609L45.6295 111.263C44.4444 112.745 38.9629 113.436 37.8765 113.436L58.5184 74.819C58.7159 74.3746 59.506 73.6832 60.2468 73.6832H64.6418C66.6665 73.6832 66.6171 72.3005 64.8394 72.3005H42.9135C41.1357 72.3005 41.0864 73.6832 43.111 73.6832H47.2098C48.395 73.6832 48.7406 74.3746 48.4443 74.9672L47.8518 76.0536C47.6542 76.3993 47.3579 76.5474 46.2715 76.5474H39.0123C38.9356 76.5531 38.8635 76.5862 38.8091 76.6405C38.7547 76.6949 38.7217 76.767 38.716 76.8437C38.7217 76.9204 38.7547 76.9925 38.8091 77.0469C38.8635 77.1012 38.9356 77.1343 39.0123 77.14H46.2221C46.6172 77.14 47.2098 77.2388 46.8641 77.9795L45.8271 79.856C45.6295 80.1523 45.1851 80.3005 44.6913 80.3005H41.432C41.3553 80.3062 41.2832 80.3392 41.2289 80.3936C41.1745 80.448 41.1414 80.5201 41.1357 80.5968C41.1414 80.6735 41.1745 80.7456 41.2289 80.7999C41.2832 80.8543 41.3553 80.8874 41.432 80.8931H44.6913C45.1851 80.8931 45.1851 81.1894 44.8888 81.6338L42.5678 85.9795C42.3703 86.3745 41.9752 86.4239 41.2345 86.4239H39.9012C39.8245 86.4296 39.7524 86.4627 39.698 86.517C39.6436 86.5714 39.6106 86.6435 39.6049 86.7202C39.6106 86.7969 39.6436 86.869 39.698 86.9234C39.7524 86.9778 39.8245 87.0108 39.9012 87.0165H41.2345C41.7283 87.0165 41.8765 87.3128 41.6296 87.7572L39.753 91.3128C39.4567 91.8066 39.0617 92.0535 37.8271 92.0535H30.6173C30.5406 92.0592 30.4685 92.0923 30.4141 92.1467C30.3597 92.201 30.3267 92.2731 30.321 92.3498C30.3267 92.4265 30.3597 92.4986 30.4141 92.553C30.4685 92.6074 30.5406 92.6404 30.6173 92.6461H37.8271C38.6666 92.6461 38.9629 93.0412 38.6172 93.6338L34.9135 100.646C34.6666 100.942 34.074 100.992 33.0864 100.992H25.8272C25.7505 100.997 25.6784 101.031 25.624 101.085C25.5696 101.139 25.5366 101.211 25.5309 101.288C25.5366 101.365 25.5696 101.437 25.624 101.491C25.6784 101.546 25.7505 101.579 25.8272 101.584H32.9876C33.8765 101.584 34.4197 101.634 34.1234 102.078L32 106.128C31.6049 106.77 30.4691 106.77 30.074 106.77H27.8025C27.7258 106.775 27.6537 106.808 27.5993 106.863C27.5449 106.917 27.5119 106.989 27.5062 107.066C27.5119 107.143 27.5449 107.215 27.5993 107.269C27.6537 107.323 27.7258 107.356 27.8025 107.362H30.074C30.8642 107.362 31.3086 107.51 31.1111 107.955L28.2469 113.337C28 113.831 26.8642 113.831 26.0247 113.831H14.8148C14.7382 113.837 14.6661 113.87 14.6117 113.924C14.5573 113.979 14.5243 114.051 14.5186 114.128C14.5243 114.204 14.5573 114.276 14.6117 114.331C14.6661 114.385 14.7382 114.418 14.8148 114.424H25.9753C26.716 114.424 27.6049 114.523 27.3086 115.115L25.4815 118.572C25.2839 118.868 24.6914 118.868 23.8025 118.868H21.5309C21.4542 118.874 21.3821 118.907 21.3277 118.961C21.2733 119.016 21.2403 119.088 21.2346 119.165C21.2403 119.241 21.2733 119.313 21.3277 119.368C21.3821 119.422 21.4542 119.455 21.5309 119.461H23.8025C24.3457 119.461 25.037 119.51 24.7901 119.955L23.6543 122.127C23.2593 122.671 22.9136 123.165 22.0741 123.165H16.2963C14.2716 123.165 14.321 124.547 16.0988 124.547H48.9382C49.9258 124.547 49.9258 124.399 50.4197 123.708L55.2591 115.214H80.1479C81.9751 114.72 81.4813 113.337 80.4442 113.288ZM60.8887 110.769C60.6418 112.202 59.2591 113.09 57.4814 113.535L55.6542 113.979L57.1851 111.263C57.5801 110.523 56.6912 110.078 55.753 111.165C49.3826 118.572 47.4073 122.127 37.5802 122.177H34.9135C34.1234 122.177 33.2839 121.881 33.7777 121.09L37.2345 114.621H50.4197C52.1974 114.621 51.753 113.239 50.7159 113.189C50.0246 113.189 49.2345 112.745 48.7406 111.905C48.5925 111.658 48.2468 110.72 48.79 110.029L53.827 103.313H62.1233L60.8887 110.769ZM62.8147 102.325H54.6665L65.0369 88.6461L62.8147 102.325ZM187.308 106.523C187.16 105.831 186.913 106.276 186.469 107.115C186.32 107.362 185.876 107.362 185.481 107.362H184.148C184.071 107.368 183.999 107.401 183.944 107.455C183.89 107.51 183.857 107.582 183.851 107.658C183.857 107.735 183.89 107.807 183.944 107.862C183.999 107.916 184.071 107.949 184.148 107.955H185.481C185.975 107.955 185.975 108.3 185.777 108.794C184.839 110.72 183.95 112.004 182.715 113.584C182.518 113.831 182.024 114.029 181.629 114.029H180.296C180.219 114.034 180.147 114.067 180.093 114.122C180.038 114.176 180.005 114.248 179.999 114.325C180.005 114.402 180.038 114.474 180.093 114.528C180.147 114.583 180.219 114.616 180.296 114.621H181.629C182.271 114.621 181.629 115.016 181.53 115.165C179.259 118.226 177.629 119.609 175.999 120.942C175.802 121.09 174.814 121.041 174.222 121.041H172.888C172.812 121.047 172.74 121.08 172.685 121.134C172.631 121.189 172.598 121.261 172.592 121.337C172.598 121.414 172.631 121.486 172.685 121.541C172.74 121.595 172.812 121.628 172.888 121.634H174.172C175.16 121.634 174.419 122.226 174.271 122.325C170.666 125.288 165.382 126.276 162.962 125.979C155.012 124.992 153.432 118.967 152.839 116.597C152.691 116.103 152.345 115.066 152.197 114.424C151.95 113.14 155.506 112.844 156.543 113.436C158.074 114.473 161.481 115.461 164.296 115.461C166.814 115.461 172.049 113.634 173.53 109.288C175.111 104.794 171.209 99.9053 169.481 98.1276C167.308 95.9547 165.234 92.498 166.123 89.9301C166.765 88.0535 167.851 87.1646 170.222 87.1646C173.234 87.1646 175.456 89.0906 175.456 91.9054C175.456 92.1523 175.308 92.4486 175.111 92.4486H174.024C173.947 92.4543 173.875 92.4873 173.821 92.5417C173.767 92.5961 173.734 92.6682 173.728 92.7449C173.734 92.8216 173.767 92.8937 173.821 92.948C173.875 93.0024 173.947 93.0355 174.024 93.0412H175.061C175.357 93.0412 175.506 93.2387 175.456 93.6338C175.259 94.572 175.209 95.214 174.962 96.1029C174.864 96.6461 175.654 97.0412 175.901 96.6461L180.691 88.1523C181.036 87.5103 180.246 87.3128 179.703 87.5103C178.37 87.9548 176.296 88.3004 175.506 87.7572C173.728 86.4733 172.098 85.6832 169.629 85.6832C165.382 85.6832 162.419 86.7202 160.543 90.2264C160.395 90.5227 159.95 90.4733 159.604 90.4733H158.765C158.688 90.479 158.616 90.512 158.562 90.5664C158.507 90.6208 158.474 90.6929 158.469 90.7696C158.474 90.8463 158.507 90.9184 158.562 90.9727C158.616 91.0271 158.688 91.0602 158.765 91.0659H159.456C159.753 91.0659 159.95 91.1646 159.802 91.5103C159.654 91.8066 159.555 92.1523 159.456 92.498C158.962 94.0288 159.111 96.1029 159.901 97.9794C159.95 98.1276 159.802 98.177 159.506 98.177H158.172C158.096 98.1827 158.024 98.2157 157.969 98.2701C157.915 98.3245 157.882 98.3966 157.876 98.4732C157.882 98.5499 157.915 98.622 157.969 98.6764C158.024 98.7308 158.096 98.7638 158.172 98.7695H159.506C160.098 98.7695 160.246 98.8189 160.493 99.1646C161.185 100.103 161.876 100.794 162.666 101.881C162.962 102.226 161.777 102.325 161.135 102.325H156.049C155.972 102.331 155.9 102.364 155.846 102.418C155.791 102.473 155.758 102.545 155.753 102.621C155.758 102.698 155.791 102.77 155.846 102.825C155.9 102.879 155.972 102.912 156.049 102.918H161.234C162.074 102.918 163.506 102.918 163.654 103.066C164.938 104.547 166.419 106.77 166.666 108.597C166.715 109.14 166.518 109.387 165.876 109.387H165.185C165.108 109.392 165.036 109.426 164.981 109.48C164.927 109.534 164.894 109.606 164.888 109.683C164.894 109.76 164.927 109.832 164.981 109.886C165.036 109.941 165.108 109.974 165.185 109.979H165.827C166.37 109.979 166.666 110.078 166.518 110.473C165.827 112.597 164.839 114.177 160.74 114.177C156.395 114.177 155.555 109.93 156.79 105.535C157.037 104.646 156.79 104.251 156.395 104.942L153.382 109.683C153.283 109.782 153.037 110.078 152.543 110.078H152.098C152.022 110.084 151.949 110.117 151.895 110.171C151.841 110.226 151.808 110.298 151.802 110.374C151.808 110.451 151.841 110.523 151.895 110.578C151.949 110.632 152.022 110.665 152.098 110.671C152.493 110.671 152.641 110.868 152.493 111.066L151.358 112.745C149.58 108.597 146.518 103.51 144.888 101.634L144.938 101.535C148.938 101.288 154.814 97.535 155.802 94.177C157.432 88.3992 151.802 86.2264 148.74 86.2264H135.209C133.432 86.2264 133.284 87.6091 135.012 87.6091C135.95 87.6091 136.74 88.4486 136.345 89.2387L133.333 94.6214C133.086 95.0659 132.148 95.0659 130.963 95.0659H129.629C129.553 95.0716 129.48 95.1046 129.426 95.159C129.372 95.2134 129.339 95.2855 129.333 95.3622C129.339 95.4388 129.372 95.5109 129.426 95.5653C129.48 95.6197 129.553 95.6527 129.629 95.6584H130.913C131.802 95.6584 132.691 95.7078 132.444 96.3498L128.888 102.72C128.691 103.016 128.247 103.066 127.061 103.066H125.728C125.651 103.072 125.579 103.105 125.525 103.159C125.47 103.213 125.437 103.285 125.432 103.362C125.437 103.439 125.47 103.511 125.525 103.565C125.579 103.62 125.651 103.653 125.728 103.658H127.012C128 103.658 128.345 103.807 128.049 104.3L123.308 112.844C122.716 113.486 122.074 113.584 120.938 113.584C119.259 113.584 119.259 114.967 121.037 114.967H132.592C134.37 114.967 133.975 113.535 132.888 113.535C132.246 113.535 131.605 112.35 132 111.708L137.876 100.498H138.469C141.086 100.498 141.728 104.844 142.222 109.486C142.271 109.831 141.629 109.831 140.345 109.831H137.037C136.96 109.837 136.888 109.87 136.833 109.924C136.779 109.979 136.746 110.051 136.74 110.128C136.746 110.204 136.779 110.276 136.833 110.331C136.888 110.385 136.96 110.418 137.037 110.424H140.296C141.185 110.424 142.321 110.424 142.37 110.72C142.617 112.745 142.765 114.621 143.16 116.251C143.308 116.794 142.37 116.695 141.382 116.695H137.135C137.059 116.701 136.987 116.734 136.932 116.789C136.878 116.843 136.845 116.915 136.839 116.992C136.845 117.068 136.878 117.14 136.932 117.195C136.987 117.249 137.059 117.282 137.135 117.288H141.333C142.666 117.288 143.308 117.288 143.358 117.535C145.135 124.152 152.888 129.337 160.395 129.041C166.814 128.794 172.246 125.288 175.012 123.066C178.715 120.103 184.148 113.881 186.37 109.337C186.765 108.35 187.456 107.263 187.308 106.523ZM143.95 97.7325C143.012 98.4732 141.629 99.3128 141.382 99.0658C140.987 98.6708 139.802 97.8313 139.16 97.535L144.493 87.7572C144.74 87.4116 144.987 87.214 145.58 87.214C147.654 87.214 148.345 89.4856 147.358 92.3004C146.666 94.2757 145.58 96.4486 143.95 97.7325Z" fill="#542C81"/>
<path d="M78.8639 77.3869C77.7775 78.819 76.3454 79.1153 74.7158 79.1153H74.2713L77.1355 73.4857C77.2836 73.2387 77.5799 73.0412 77.975 73.0412C78.3207 73.0412 78.2713 72.3005 77.8268 72.3005H73.333C72.938 72.3005 72.7898 73.0412 73.1849 73.0412C73.5799 73.0412 73.6293 73.4857 73.4812 73.8313L70.9627 78.819C70.7651 79.1153 70.5182 79.1646 70.1726 79.2634C69.7775 79.3622 69.5306 80.0535 69.975 80.0535H77.1355C77.6787 80.0535 77.8268 79.856 77.975 79.6585L79.4565 77.4363C79.4565 77.1893 79.0614 77.14 78.8639 77.3869ZM150.073 74.5227L150.715 73.3375C151.012 72.8437 150.518 72.2511 149.827 72.2511H141.481C140.888 72.2511 141.036 72.8931 141.283 72.8931C141.827 72.8931 141.975 73.535 141.678 74.1276L139.16 78.7696C138.765 79.214 138.518 79.4116 137.975 79.4116C137.53 79.4116 137.382 80.0535 137.975 80.0535H146.419C146.765 80.0535 146.913 79.9054 147.061 79.7572L148.246 78.2264C148.543 77.8313 147.901 77.8313 147.753 78.0289C146.271 79.5103 144.74 79.4609 143.555 79.4609H142.567L143.753 76.8931H143.999C144.74 76.8931 145.58 76.893 145.827 77.4856C145.876 77.6338 146.271 77.7326 146.419 77.4856L147.407 75.5103C147.555 75.214 147.111 75.1647 147.012 75.3622C146.617 76.0536 144.938 75.856 144.444 75.856H144.197L145.678 72.9918H147.259C148.296 72.9918 149.086 73.7326 149.382 74.4733C149.481 74.6215 149.975 74.7696 150.073 74.5227ZM181.382 72.5474C181.184 72.6462 180.641 72.7449 180.394 72.5474C179.802 72.0536 178.715 71.7079 178.123 71.7079C176.444 71.7079 175.209 72.0536 174.468 73.6338C173.826 75.0165 174.468 76.1029 175.999 76.8437C176.641 77.14 177.53 77.535 177.185 78.3251C176.938 78.9177 176.246 78.9671 175.654 78.9671C174.864 78.9671 173.678 78.3745 173.481 77.2387C173.431 76.8437 172.987 76.9424 172.839 77.14L171.802 79.1647C171.654 79.4609 172.049 79.7572 172.246 79.5597C172.592 79.1647 173.382 79.1153 173.728 79.3622C174.222 79.7079 175.505 80.3005 176.296 80.3005C177.975 80.3005 179.11 79.856 180.098 78.4239C180.987 77.0412 180.444 75.7573 178.864 75.0165C178.024 74.6215 177.333 73.9301 177.678 73.1894C177.925 72.6955 178.666 72.7943 179.061 72.8437C179.752 72.9425 180.641 73.6338 180.74 74.2264C180.789 74.4733 181.086 74.5227 181.234 74.2758L181.777 72.9918C181.876 72.6462 181.481 72.4486 181.382 72.5474ZM158.962 77.3869C157.876 78.819 156.444 79.1153 154.814 79.1153H154.37L157.234 73.4857C157.382 73.2387 157.678 73.0412 158.073 73.0412C158.419 73.0412 158.37 72.3005 157.925 72.3005H153.431C153.036 72.3005 152.888 73.0412 153.283 73.0412C153.678 73.0412 153.728 73.4857 153.58 73.8313L151.061 78.819C150.864 79.1153 150.617 79.1646 150.271 79.2634C149.876 79.3622 149.629 80.0535 150.073 80.0535H157.234C157.777 80.0535 157.925 79.856 158.073 79.6585L159.555 77.4363C159.555 77.1893 159.16 77.14 158.962 77.3869ZM169.728 72.9918C170.765 72.9918 171.555 73.7326 171.851 74.4733C171.901 74.6708 172.444 74.819 172.592 74.5721L173.234 73.3869C173.53 72.8931 173.036 72.3005 172.345 72.3005H163.999C163.407 72.3005 163.555 72.9424 163.802 72.9424C164.345 72.9424 164.493 73.5844 164.197 74.177L161.678 78.819C161.283 79.2634 161.036 79.4609 160.493 79.4609C160.049 79.4609 159.901 80.1029 160.493 80.1029H168.938C169.283 80.1029 169.431 79.9548 169.58 79.8066L170.765 78.2758C171.061 77.8807 170.419 77.8807 170.271 78.0782C168.789 79.5597 167.259 79.5103 166.073 79.5103H165.086L166.271 76.9424H166.518C167.259 76.9424 168.098 76.9424 168.345 77.4856C168.394 77.6338 168.789 77.7326 168.938 77.4856L169.925 75.5103C170.073 75.214 169.629 75.1647 169.53 75.3622C169.135 76.0536 167.456 75.856 166.962 75.856H166.715L168.197 72.9918H169.777H169.728Z" fill="#542C81"/>
<path d="M128.691 72.3005H125.728C125.135 72.3005 125.284 72.9424 125.531 72.9424C126.172 72.9424 126.765 73.6832 126.419 74.3745L125.185 76.5968L122.469 72.5968C122.271 72.3499 121.827 72.2017 121.481 72.2017H118.568C117.975 72.2017 118.074 72.8437 118.37 72.8437C119.012 72.8437 118.814 73.3375 118.666 73.6338L116.345 78.1276C116.197 78.4733 115.555 78.5227 115.358 78.0782L113.58 72.2017C113.481 71.9548 112.444 71.9548 112.148 72.2017L107.605 75.9548H105.284C104.79 75.9548 104.642 76.1523 104.642 76.3992C104.642 76.6461 104.839 76.8931 105.333 76.8931H106.568L105.333 77.9301C104.642 78.4239 103.95 79.1647 103.506 79.1647H103.21C102.765 79.1647 102.518 79.214 102.518 79.6091C102.518 79.9548 102.716 80.1029 103.111 80.1029H106.765C107.456 80.1029 107.308 79.214 106.963 79.214C106.568 79.214 105.926 78.7202 106.518 78.0289L107.654 76.9424H109.827C111.16 76.9424 112 78.4733 111.308 78.9177L110.716 79.2634C110.419 79.4116 110.321 80.1029 110.716 80.1029H117.876C118.419 80.1029 118.321 79.4116 118.074 79.4116C117.333 79.4116 117.679 78.3251 117.827 78.0782L119.703 74.5227L122.321 79.6091C122.518 79.9548 122.666 80.1029 122.963 80.1029H124C124.345 80.1029 124.444 79.9054 124.592 79.6585L127.605 74.2758C128.098 73.2881 128.493 72.9918 129.086 72.9918C129.135 72.9918 129.333 72.3005 128.691 72.3005ZM108.74 76.0042L111.506 73.7326V76.0042H108.74ZM86.4689 72.0042C83.9504 72.0042 81.3825 73.2387 80.8887 75.9054C80.4443 78.177 82.0245 80.5967 84.8393 80.5967C87.506 80.5967 89.9257 78.8684 90.4689 76.3005C90.9134 73.7326 88.9874 72.0042 86.4689 72.0042ZM87.1603 76.8437C86.3702 78.4239 85.0368 79.3622 84.1973 78.9177C83.3578 78.4733 83.3084 76.893 84.0986 75.2634C84.8887 73.6832 86.222 72.7449 87.0615 73.1894C87.9504 73.6338 87.9998 75.214 87.1603 76.8437ZM100.395 72.5474C100.197 72.6462 99.6541 72.7449 99.4072 72.5474C98.8146 72.0536 97.7281 71.7079 97.1356 71.7079C95.4565 71.7079 94.222 72.0536 93.4812 73.6338C92.8393 75.0165 93.4812 76.1029 95.0121 76.8437C95.6541 77.14 96.543 77.535 96.1973 78.3251C95.9504 78.9177 95.259 78.9671 94.6664 78.9671C93.8763 78.9671 92.6911 78.3745 92.4936 77.2387C92.4442 76.8437 91.9998 76.9424 91.8516 77.14L90.8146 79.1647C90.6664 79.4609 91.0615 79.7572 91.259 79.5597C91.6047 79.1647 92.3454 79.1153 92.7405 79.3622C93.2343 79.7079 94.5183 80.3005 95.3084 80.3005C96.9874 80.3005 98.1232 79.856 99.1109 78.4239C99.9997 77.0412 99.4565 75.7573 97.8763 75.0165C97.0368 74.6215 96.3454 73.9301 96.6911 73.1894C96.938 72.6955 97.6788 72.7943 98.0738 72.8437C98.7652 72.9425 99.6541 73.6338 99.7528 74.2264C99.8022 74.4733 100.099 74.5227 100.247 74.2758L100.79 72.9918C100.938 72.6462 100.543 72.4486 100.395 72.5474ZM137.185 75.8066H133.975C133.382 75.8066 133.53 76.4486 133.777 76.4486C134.024 76.4486 134.271 76.5968 134.271 76.9918C134.271 78.3251 133.728 78.7696 132.642 78.7696C131.407 78.7696 131.012 77.2387 131.802 75.461C132.345 74.2758 133.728 73.2387 135.407 73.2387C136.444 73.2387 137.234 73.4857 137.382 74.4239C137.432 74.6708 137.777 74.6708 137.876 74.4239L138.666 73.0412C138.765 72.8931 138.617 72.6955 138.37 72.6955C138.172 72.6955 137.728 72.9425 137.432 72.7449C136.79 72.2511 135.407 71.8066 134.321 71.8066C132.592 71.8066 130.172 72.2017 128.543 75.0165C127.061 77.5844 129.234 80.2511 131.209 80.2511C132.345 80.2511 133.58 79.4116 134.321 79.1153L135.16 79.6585C135.308 79.8066 135.555 80.0042 135.802 80.0042H136.098C136.395 80.0042 136.493 79.6091 136.592 79.3622L137.876 76.3005C137.975 76.0535 137.876 75.8066 137.185 75.8066Z" fill="#542C81"/>
</svg>
