<svg width="200" height="200" viewBox="0 0 200 200" fill="none" xmlns="http://www.w3.org/2000/svg">
<path d="M58.6232 68.1097V48.6265L46.0166 68.1097H27.9667L39.1234 78.7683L25.1367 100.384L47.7669 87.0238L58.6232 97.3945V80.6128L79.8034 68.1097H58.6232Z" fill="#061922"/>
<path d="M56.7901 69.9507V54.8394L47.0134 69.9507H32.5535L41.4903 78.4872L30.9102 94.8404L48.0266 84.7338L56.7901 93.1028V79.5616L73.0669 69.9507H56.7901Z" fill="#0050B5"/>
<path d="M54.2499 72.5052V63.4563L48.3934 72.5052H38.9165L44.7734 78.0989L38.9165 87.1508L48.3934 81.5571L54.2499 87.1508V78.0989L63.7233 72.5052H54.2499Z" fill="white"/>
<path d="M35.0368 115.244V97.2003L23.36 115.244H6.74665L17.0167 125.049L4 145.162L25.06 132.732L35.0368 142.26V126.844L54.6867 115.244H35.0368Z" fill="#061922"/>
<path d="M33.2001 117.085V103.41L24.3534 117.085H11.3368L19.3834 124.768L9.77344 139.618L25.3201 130.442L33.2001 137.968V125.789L47.9467 117.085H33.2001Z" fill="#0050B5"/>
<path d="M30.7866 119.512V111.602L25.6667 119.512H17.3833L22.5033 124.4L17.3833 132.31L25.6667 127.423L30.7866 132.31V124.4L39.0666 119.512H30.7866Z" fill="white"/>
<path d="M134.23 54.1299C125.98 54.1299 118.07 55.8705 110.82 59.1411V38.56L95.8 61.7758H74.2266L87.5601 74.5102L83.8668 80.2179V72.5182L66.9834 98.6132H42.1666L57.5034 113.259L39.1465 141.63L68.8502 124.095L73.7567 128.782C74.0966 130.436 74.5002 132.079 74.9767 133.703H57.2268L70.48 146.109L53.3602 172.569L81.9433 155.693C82.6899 155.275 83.19 155.556 84.0435 156.236C84.2298 156.383 88.0633 159.554 88.3901 159.811C94.0502 164.227 102.73 170.537 112.703 174.323C119.59 176.894 126.83 178.196 134.23 178.196C168.29 178.196 196 150.368 196 116.162C196 81.9555 168.29 54.1299 134.23 54.1299Z" fill="#061922"/>
<path d="M134.23 55.9644C124.953 55.9644 116.47 58.1471 108.986 62.0001V44.7699L96.7931 63.6138H78.8131L89.9264 74.2257L82.0331 86.4278V78.7281L67.9765 100.451H46.7566L59.8697 112.978L44.9199 136.083L69.1097 121.802L75.43 127.841C75.9467 130.469 76.623 133.044 77.47 135.537H61.8665L72.8467 145.818L59.1131 167.042L81.0133 154.113C81.55 153.812 82.0867 153.648 82.5964 153.648C83.3601 153.648 84.2066 154.027 85.1797 154.803C85.6331 155.161 88.9398 157.92 89.5132 158.365C96.3833 163.725 104.353 169.191 113.35 172.613C119.85 175.04 126.886 176.365 134.23 176.365C167.336 176.365 194.173 149.413 194.173 116.165C194.173 82.9159 167.336 55.9644 134.23 55.9644Z" fill="#0050B5"/>
<path d="M134.23 59.282C123.923 59.282 114.27 62.0604 105.947 66.8909H105.727V55.8239L98.5666 66.8909H86.9767L94.1366 73.73L86.9767 84.7975L86.9898 84.791C83.4265 90.194 80.7599 96.2429 79.1933 102.727V88.3425L69.5135 103.3H53.8533L63.5336 112.543L53.8568 127.5L69.5165 118.254L78.63 126.961C79.2732 130.308 80.2136 133.546 81.4101 136.655L80.2 138.882H70.3334C70.3334 138.882 76.3068 144.475 77.1699 145.282L69.6134 156.955L79.3299 151.221C82.3901 149.497 85.0166 150.388 87.2569 152.175C88.2802 152.992 100.63 164.327 114.197 169.379C120.44 171.705 127.18 173.041 134.233 173.041C165.513 173.041 190.873 147.572 190.873 116.158C190.873 84.7438 165.513 59.2751 134.233 59.2751" fill="white"/>
<path d="M96.0701 81.2154C99.8865 78.8857 104.93 77.3087 110.123 77.3087C131.07 77.3087 145.937 95.55 161.777 97.2339C157.537 82.1964 147.263 70.3591 134.066 66.4694C128.717 64.8924 123.033 65.2271 117.75 67.0083C109.35 69.8438 101.913 74.7847 96.0701 81.2154Z" fill="#2155A5"/>
<path d="M139.27 64.5476C152.89 68.7223 162.986 81.6709 167.293 97.1571C175.063 95.9784 178.483 90.4349 175.787 85.3731C167.316 73.8675 154.23 66.0038 139.27 64.5476Z" fill="#2155A5"/>
<path d="M89.3665 115.214C89.3665 115.214 133.713 114.133 164.243 113.661C164.12 110.022 163.743 106.49 163.116 103.092C143.19 101.934 128.69 82.0388 108.117 82.0388C97.1931 82.0388 89.8566 88.4966 85.8996 97.8631C83.7632 103.558 82.5833 109.72 82.5833 116.165C82.5833 122.609 83.7833 128.899 85.9633 134.637C89.9198 144 97.1897 150.381 108.113 150.381C128.686 150.381 143.186 130.489 163.113 129.328C163.74 125.933 164.116 122.402 164.24 118.759C133.71 118.287 89.363 117.206 89.363 117.206V115.211L89.3665 115.214Z" fill="#0050B5"/>
<path d="M168.617 102.938C169.266 106.41 169.653 109.972 169.787 113.58C176.247 113.493 181.787 113.443 185.793 113.447C185.393 105.884 183.406 98.7572 180.103 92.3998C180.207 97.5184 176.147 101.867 168.617 102.938Z" fill="#2155A5"/>
<path d="M161.777 135.189C145.937 136.873 131.07 155.114 110.123 155.114C105.027 155.114 100.08 153.591 96.2866 151.332C97.2868 152.419 98.3236 153.474 99.4101 154.472C105.013 159.614 111.754 163.52 119.204 165.79C123.807 167.193 128.733 167.41 133.377 166.148C146.9 162.472 157.46 150.491 161.777 135.189Z" fill="#2155A5"/>
<path d="M175.92 146.769C178.346 141.787 174.923 136.421 167.297 135.266C163.027 150.609 153.077 163.447 139.65 167.745C154.533 166.188 167.527 158.278 175.92 146.769Z" fill="#2155A5"/>
<path d="M185.79 118.977C181.783 118.98 176.243 118.933 169.783 118.843C169.653 122.452 169.263 126.01 168.614 129.485C176.127 130.556 180.18 134.888 180.097 139.99C183.374 133.639 185.39 126.532 185.794 118.99C185.794 118.987 185.794 118.984 185.79 118.977Z" fill="#2155A5"/>
</svg>
