<svg width="200" height="200" viewBox="0 0 200 200" fill="none" xmlns="http://www.w3.org/2000/svg">
<mask id="mask0_7951_54016" style="mask-type:luminance" maskUnits="userSpaceOnUse" x="25" y="25" width="150" height="150">
<path d="M25 25.3H175V174.7H25V25.3Z" fill="white"/>
</mask>
<g mask="url(#mask0_7951_54016)">
<path d="M125.25 169.6C125.35 169.75 125.45 169.95 125.5 169.9C125.9 169.9 126.65 169.75 126.65 169.75L127.4 169.4L129.6 168.55L135.1 165.95L136.05 165.45L136.55 165.25L137.15 164.85L138.1 164.25L139.25 163.6L140.75 162.65L143.35 160.85L144.6 159.85L146.4 158.55L148.05 157.35L148.85 156.8L149.95 155.8L151.1 154.65L152.9 152.7L155 150.65L157.45 147.85L158.8 146.05L159.25 145.4L160.7 143.6L163.5 139.55L164.3 138.2L166.2 134.45L167.3 132.4L169.1 128.7L170.1 126.45L171.15 123L173.1 116.05C173.2 115.8 173.2 115.55 173.05 115.3C172.65 114.75 172.35 114.05 172 113.45L171.35 112.55L170.5 111.45C170.3 111.2 170.05 111 169.8 110.85L168.2 109.4C167.95 109.25 167.75 109.1 167.55 108.95C166 107.75 164.45 106.85 162.7 106.05C161.95 105.75 161.2 105.45 160.45 105.2C159.9 105 159.05 104.8 158.5 104.7C158.2 104.65 157.9 104.65 157.65 104.8C157.4 104.95 157.4 105.35 157.35 105.7C157.25 106.65 157.2 107.7 157.15 108.65L156.9 111.6C156.8 112.5 156.75 113.4 156.7 114.25C156.55 115.45 156.4 116.6 156.15 117.75C155.75 119.95 155.25 122.1 154.8 124.25C154.7 124.85 154.6 125.45 154.35 126.05C153.95 126.95 153.65 127.9 153.5 128.9C153.1 130.95 152.35 132.9 151.65 134.85C151.1 136.45 150.5 138.05 149.6 139.5L149.45 139.8L148.15 142.8C147.85 143.45 147.45 144.05 147.15 144.65C146.8 145.45 146.35 146.2 145.9 146.95C145.15 148.15 144.35 149.25 143.7 150.5C143.25 151.35 142.7 152.15 142.15 152.95C142 153.15 141.85 153.35 141.75 153.55C141.3 154.2 140.9 154.9 140.4 155.55C139.45 156.75 138.45 157.95 137.45 159.15C136.85 159.9 136.15 160.55 135.45 161.25L133.65 163.15C133.55 163.3 133.35 163.4 133.2 163.5C132.85 163.8 132.45 164.1 132.1 164.45C131.3 165.25 130.5 166 129.6 166.6C129.2 166.85 128.8 167.15 128.45 167.45C127.55 168.3 126.45 168.95 125.25 169.6ZM174 111.15C174.05 111.15 174.05 111.1 174.05 111C174.05 110.8 174.1 110.5 174.1 110.5L174.65 105.75L174.95 101.3V96.9V96.2L174.45 91.2C174.45 91.2 173.85 86.7 173.35 84.35C173.2 83.55 172.65 83.1 172 82.8C171.75 82.7 171.55 82.55 171.3 82.5L169.8 82L166.45 81.15C165.1 80.9 163.75 80.8 162.35 80.65C161.22 80.5501 160.085 80.5001 158.95 80.5H156.6C156.1 80.5 155.6 80.5 155.4 80.8C155.2 81.1 155.35 81.65 155.4 82.15C155.55 83.25 155.75 83.8 155.95 84.9C156.5 88.1 157.05 91.3 157.2 94.6L157.4 99V100.1C157.4 100.35 157.45 100.65 157.6 100.8C157.75 101 157.95 101.05 158.15 101.1C158.45 101.2 158.7 101.2 158.95 101.3C159.25 101.4 159.75 101.5 160.1 101.6C161.435 102.014 162.752 102.481 164.05 103C164.95 103.35 165.8 103.9 166.65 104.35C166.75 104.4 166.85 104.45 166.95 104.55C167.45 104.9 167.95 105.3 168.45 105.65C169.6 106.5 170.85 107.35 171.75 108.55C171.9 108.75 172.15 109 172.35 109.2C172.7 109.5 173.3 110.65 173.75 111.15H174ZM140.55 57.8C141 57.8 141.4 57.75 141.75 57.7C142 57.7 142.25 57.65 142.35 57.4C142.45 57.15 142.25 56.85 142.2 56.75L141.25 55L140.4 53.7L136.9 48.6L136.15 47.75L135.45 46.85L134.3 45.55L131.45 42.45L130.2 41.25L125.8 37.15L122.2 34.35L120.9 33.65L116.65 31.05L113.7 29.45L113.15 29.2L110.75 28.3L107.15 26.95L106.85 26.9L105.7 26.6L105.4 26.55L104.4 26.3L102.25 25.9L101.25 25.85L99.3501 25.5L97.0501 25.35L96.2501 25.25H94.8001L92.4001 25.3L90.0501 25.55L88.2001 25.6L86.6001 25.8L84.9501 26.15L83.7001 26.55L81.6501 26.95H81.2001L79.3001 27.65L78.1501 27.95L77.4501 28.35L75.8001 28.8L75.0001 29.25L74.0001 29.65L71.5501 30.7L68.4001 31.9L67.3501 32.4L65.1501 33.6L63.2501 34.85L61.4501 35.8L60.8001 36.2L58.8501 37.25L58.5501 37.45L56.3001 39.2L54.4501 40.45L54.1001 40.7L52.0001 42.35L51.2501 43C51.2501 43 50.1501 43.95 50.1001 44.1L50.9001 43.85L52.3501 43.35C52.4001 43.35 52.6501 43.4 52.6501 43.4L54.7001 42.55H55.0001L57.2501 41.65L58.4501 41.3C58.4501 41.35 59.6501 40.85 59.6501 40.85L61.3501 40.25L65.4001 38.7H65.7501L67.8501 37.95L69.5001 37.3L69.7501 37.45L72.9501 37.55L74.9501 37.7L75.0001 37.75L79.1001 38.1L79.1501 38.05L84.8001 38.35L84.8501 38.5L86.8501 40.2H87.0001L89.0501 42.2L89.2501 42.1L92.0001 42L92.1501 41.9L99.2501 42.3L99.3001 42.45L102.45 44.25H102.6L108.15 46.95L108.2 47.25L111.35 46L116 47.55L116.8 48.85L118.5 48.95L120.15 50.8H120.3L121.6 52.3V52.4H121.8L125.45 53.25L126.8 55.35L130.2 56.55C130.2 56.55 133.85 57.5 135.7 57.7C137.3 58 139.25 57.9 140.55 57.8ZM172.05 79.25C171.95 78.7 171.55 77.65 171.55 77.65L171.35 77.05L171.15 76.35L170.55 74.55L170 73L168.25 69.15L167.45 67.25L166.45 65.05L165.25 63.1L165 62.55L164.2 60.95L163.45 59.75L163.15 59.35L158.1 52.5L157.35 51.65C157.25 51.5 157.2 51.4 157.05 51.4H157L154.8 54.65C154.15 55.35 152.85 56.55 152.85 56.55L151.55 57.6C151.35 57.75 150.5 58.3 150.5 58.3L149.35 58.95L148.35 59.4C148.2 59.45 148.05 59.5 147.95 59.65C147.85 59.75 147.85 59.85 147.85 60.05L148 60.5L149.4 63.45C150.2 64.85 150.65 66.4 151.3 67.85L151.9 69.35L153.15 73.3C153.3 73.9 153.5 74.45 153.7 75.05L154.15 76.8C154.25 77.2 154.5 77.35 154.9 77.35L156.05 77.3L160.1 77.2C160.5 77.2 163.2 77.45 163.2 77.45L164.65 77.65L167.75 78.3C168.6 78.5 169.5 78.8 170.3 79.15C170.7 79.35 171.1 79.45 171.55 79.55C171.664 79.5823 171.782 79.5991 171.9 79.6C172.05 79.45 172.1 79.3 172.05 79.25Z" fill="#BC2126"/>
</g>
<mask id="mask1_7951_54016" style="mask-type:luminance" maskUnits="userSpaceOnUse" x="25" y="25" width="150" height="150">
<path d="M25 25.3H175V174.7H25V25.3Z" fill="white"/>
</mask>
<g mask="url(#mask1_7951_54016)">
<path d="M154.35 49C154.3 48.8 153.95 48.25 153.95 48.25L153.7 47.8L152.95 46.95L152.45 46.25L151.55 45.35C151.55 45.35 151.35 45.2 151.25 45.1L146.4 41.15L145.5 40.45L143.85 39L135.45 33.95L128.85 30.8L125.35 29.45L124.05 29L119.75 27.5L116.7 26.75L113.75 26.1L113.3 26.05L113.05 26.3L113.15 26.45L113.6 26.65L116.35 27.7C116.95 27.95 117.5 28.25 118.15 28.45C118.562 28.5862 118.963 28.7534 119.35 28.95L123.55 31.4C124.4 31.9 125.15 32.5 125.85 33.15C126.4 33.65 126.95 34.15 127.6 34.5C127.9 34.65 128.15 34.9 128.4 35.15C128.55 35.25 128.7 35.4 128.85 35.5C129.65 36.15 130.55 36.75 131.3 37.55C132.05 38.4 132.9 39.2 133.7 40C134.45 40.75 135.25 41.5 135.9 42.4L137.65 44.45C138.85 45.65 139.8 47.1 140.9 48.35C141.05 48.5 141.1 48.7 141.25 48.9C141.95 50 142.6 51.2 143.45 52.25C144.05 52.95 144.6 53.75 145 54.6C145.25 55.1 145.6 55.6 145.95 56.05C146.15 56.3 146.45 56.45 146.6 56.45C146.75 56.45 147.05 56.3 147.05 56.3L147.65 56.05L148.7 55.6C148.95 55.45 149.5 55.2 149.65 55C149.85 54.85 150.65 54.3 151.1 53.85C151.55 53.45 152.45 52.4 152.45 52.4L153.1 51.55L154.2 49.7C154.2 49.65 154.4 49.2 154.35 49ZM150.85 76.95L149.55 72.85C149.15 71.7 148.85 70.55 148.3 69.5C148 68.85 147.85 68.15 147.6 67.45C147.45 67.1 147.3 66.8 147.2 66.45C146.6 64.7 145.75 63.25 144.9 61.6C144.85 61.5 144.8 61.45 144.75 61.3C144.65 61.15 144.6 61 144.4 60.9C144.2 60.8 144 60.85 143.65 60.9C142.95 61 142.05 61.05 141.65 61.05C141.3 61.05 139.9 61.15 138.8 61.25L138.55 61.15H137.85H137.2L133.55 60.7C132.25 60.5 129.2 59.75 129.2 59.75L127 59L124.25 58.05L124.05 58.15L119.8 57.8L119.65 57.9L117.25 56.05H117L115.5 54.7L115.45 54.4L113.8 54.15L113.65 54.2L112.3 53.75L112.15 53.6L109 53.85L106.15 52.7L96.2999 53.2L96.1499 53.1L94.2999 53.25L94.0999 53.4L89.2499 53.75L89.0999 53.65L82.1999 57.65L82.0999 57.95L81.7999 58.25L81.6499 58.15L78.1999 57.85L77.9999 57.95L71.8499 58L71.6999 57.95L69.9499 57.9L69.3999 57.6L62.9499 62.6V62.75L60.6999 64.55L58.1499 63.35L57.9999 63.4L57.0499 63.1L52.4499 64.3C52.4999 64.3 48.1499 63.6 48.1499 63.6L47.8499 63.35L47.0499 64.2L45.2999 65.05L45.2499 65.2L41.7999 67.85L36.8999 71.4L31.3999 75.5L28.8999 77.3L28.7499 78.35L27.6999 80.75L27.2499 82.85L26.5499 87.05L26.1499 88.9L25.9999 91.1L25.3999 95.65L25.1499 105.65L25.3999 106.25L25.5499 109C25.5499 109 25.5999 109.5 25.6999 109.5L37.9499 96.85L41.9499 95.2L45.2999 95.05L47.3499 92.7L47.5499 92.25L47.7999 92.35L53.2999 91.75L53.5499 91.6H55.5999L55.8999 91.7L56.5499 90.8L58.9999 89.25L61.6499 87.45L69.0499 87.55L69.0999 87.7L71.9999 88L74.2499 87.55L78.3999 83.3H78.4999L81.7999 80.15L86.7499 79.5L86.9499 79.35L87.1499 79.55L89.6999 80.75L89.8999 80.6L92.1499 80.3L92.2499 80.15L94.3999 79.8L94.5999 79.7L96.9499 81.7L97.0999 81.55L101.9 81.45L102.3 81.15L106.15 81.35L106.35 81.4L106.95 81.25L107.05 81.1L108.6 80.4H108.8L110.55 79.6L110.7 79.45L112.6 78.75L112.75 78.55L118 76.55L118.05 76.45L119 76.15L119.2 75.95L119.45 76.25L121 77H121.45L123.15 77.95L123.25 77.8L123.75 77.55H123.8L124.65 77.15L124.7 77.1L125.9 76.8L129.05 77.6L129.7 77.45L130.25 77.85L132.55 78.2L134.8 79.05L136.1 78.95L136.5 79.25L136.85 79.05L143.5 78.3C144.95 78.2 146.4 78.05 147.85 77.9C148.65 77.8 149.45 77.75 150.3 77.65C150.8 77.65 151 77.45 150.85 76.95ZM154.1 99.7C154.1 99.4 154.05 99.2 154.05 98.9L153.9 96.35C153.9 96.05 153.85 95.75 153.85 95.5L153.65 92.3L153.1 88.3L152.55 85.2L151.95 82.05C151.7 80.95 151.5 80.8 150.35 80.95C150.25 80.95 150.15 80.95 150.05 81C149.65 81.1 149.05 81.15 148.65 81.2C146.45 81.5 144.45 81.6 142.25 81.85L136 84.05L127 83.8L126 83.5V83.65L123.35 85.6L123 85.65L120.9 87.6L120.8 87.9L115.4 88.6L110.45 92.4H109.95L107.3 93.95L106.25 94.05L105.2 94.9L104.95 94.7L99.8999 94.35L99.0499 95.35V95.5L94.6999 100.25L94.6499 100.5H94.4999L88.9999 106.8L87.4499 106.85L87.3499 107L82.7999 107.8H82.4499L82.3499 108C82.2999 108 74.8499 112.15 74.8499 112.15L71.4999 111.75L70.7999 112L67.4499 111.8L64.1499 115.4L62.1499 115.8L60.9999 115.75L59.8499 116.25L59.1499 116.15L59.1999 116.3L54.9999 119.5L54.5999 119.55L48.1499 124.55L48.1999 124.85L44.1999 134.5L44.3499 134.9L37.7499 135.5L35.5999 137.35L35.3999 138.05L38.3499 142.1L40.4999 145.4L42.3499 147.8L45.3999 151.1C45.3999 151.1 45.3999 151.35 45.4999 151.35C45.5499 151.4 45.8999 151.4 45.8999 151.4L47.7499 152L49.9999 152.7L50.0499 152.8L50.2499 152.75L53.9499 154.2H54.2499L54.4499 154.45H54.7999C54.8499 154.45 55.6999 155.05 55.6999 155.05L57.2499 154.2H57.3499L58.0499 153.75L63.6999 155.15L67.8499 153.05L77.0499 152.15L80.7999 146.1L82.4999 144.4H82.6499L83.9499 143.2V143.05L86.2999 140.9L87.3999 139.75L87.6499 139.6C87.6999 139.6 88.8999 138.3 88.8999 138.3L89.9499 137.25L90.1999 137.2L89.9499 136.25L90.9999 132.35L93.0499 131.75L93.1499 131.65L93.7499 131.5V131.15L96.4999 126.65L96.7499 126.55L97.8999 124.35L99.7999 123.3L100.05 123L100.4 123.05C100.4 123.05 101.5 122.4 101.55 122.4H101.65L103.7 121.5L103.85 121.25L110.6 118.15L111 118.1L111.1 117.75L111.35 117.55L112.05 115.2L114.2 114.3L116.65 114L118.9 112.45L122.1 112.6L122.4 112.85L122.55 112.65L127 110.65V110.05L128.1 108L130.3 107.4L130.4 107.25L133.4 106.6L134.55 105.25L134.7 105.2C134.7 105.2 135.4 104.55 135.4 104.5L137.45 104.8L137.55 104.9L138.7 105.05L139.4 105.15L143.7 103.25C144.25 103.05 144.75 102.9 145.25 102.75L147.35 102L148.4 101.7L149.8 101.45L151.45 101.15L152.45 101.1C152.45 101.1 152.95 101.05 153.1 101C153.25 100.95 153.55 100.95 153.8 100.8C154 100.6 154 100.4 154.05 100.2C154.1 100.05 154.1 99.95 154.1 99.7ZM154.05 105.6C154.05 105.35 154.1 104.95 153.9 104.75C153.7 104.55 153.45 104.5 153.3 104.5C153.15 104.5 152.35 104.6 152.35 104.6L151.05 104.8C150.9 104.8 150.75 104.85 150.6 104.9L148.25 105.45L145.7 106.3C144.85 106.7 143.85 107 143 107.4L138.5 109.6L136.8 111.4L136.75 111.8L136.55 111.7L135.5 111.75L135.45 111.85L132 113V113.4L131.65 113.75V113.95L130.05 116.8H129.85L129.8 117.1C129.8 117.1 129.5 117.65 129.1 118.25L121.85 122.9H121.7L120.6 123.8L119.85 126.85L119.15 127.55L116.3 138L116.7 139.2L112.5 141.2H111.8L111 144.85L110.85 144.95L109.8 148.25L109.85 148.45L109.45 151.3L109.3 151.5L109.45 151.75L105.4 158.15L105.1 158.25L104.1 159.8L104.05 160.1L100.6 164.95L96.9499 167.1L97.1499 167.4C97.1499 167.45 96.9499 168.85 96.9499 168.85L97.2499 169.4L96.7499 169.55L94.0999 171.1L93.8499 171.05L89.9999 173.35L89.5499 174.05C89.5499 174.1 91.0499 174.25 91.0499 174.25L93.5499 174.45L95.2499 174.55L97.2499 174.6L98.1499 174.65L99.6499 174.7L101.15 174.65L106.55 174L109.75 173.45L112.15 172.8L114.8 172.05L118.15 170.7L118.4 170.55L119.35 170C119.35 170 122.05 168.55 123.3 167.65C125.4 166.05 127.5 164.5 129.4 162.7C130.05 162.1 130.7 161.45 131.35 160.8L133.2 159C133.3 158.9 133.45 158.8 133.5 158.65C133.7 158.15 134.1 157.8 134.45 157.45C134.7 157.2 134.95 156.95 135.15 156.6C135.55 155.95 136.2 155.5 136.7 154.95C137.15 154.55 137.55 154.05 137.9 153.55C138.55 152.65 139.15 151.7 139.75 150.8C140.55 149.55 141.45 148.4 142.15 147.1C142.9 145.7 143.6 144.35 144.4 143C145.05 141.85 145.75 140.7 146.25 139.45L148.75 133.35C149.6 131.15 150.25 128.95 150.85 126.7C151.3 125 151.55 123.3 152.15 121.65C152.25 121.45 152.25 121.2 152.3 121L153 116.9L153.55 113C153.7 112.1 153.85 111.25 153.9 110.35C154 109.1 154.05 107.9 154.1 106.65V106.25C154.1 106.25 154 105.85 154.05 105.6Z" fill="#BC2126"/>
</g>
</svg>
