<svg width="200" height="200" viewBox="0 0 200 200" fill="none" xmlns="http://www.w3.org/2000/svg">
<path d="M156.531 84.3721C170.044 81.3585 183.265 79.3656 196 78.3448C181.855 82.6709 167.467 87.483 152.837 92.7813C154.149 90.0592 155.364 87.24 156.531 84.3721ZM13.8674 155.631C25.1444 145.666 37.8796 136.139 51.83 127.438L59.7044 123.501L65.5859 120.633C67.3844 122.626 69.2315 124.619 71.1758 126.515C51.1494 135.848 31.9981 145.618 13.8674 155.631Z" fill="#057DC1"/>
<path d="M162.12 67.6997C173.786 67.2137 185.112 67.4081 196 68.2344C184.286 69.8871 172.328 71.8314 160.225 74.0187L162.12 67.6997ZM4 116.113C17.0754 107.801 31.6091 100.218 47.2608 93.6076L48.8648 96.7185L46.3372 101.871C31.8035 106.44 17.6587 111.155 4 116.113Z" fill="#EE3C33"/>
<path d="M88.0912 109.988L89.9869 109.113L94.8962 105.176L95.9656 102.163L97.7641 105.614L99.3681 104.885L99.4654 109.405C95.917 110.231 92.1256 110.669 88.1884 110.717L88.0912 109.988ZM102.187 103.621L108.263 100.947L109.235 99.9752C109.624 100.024 110.11 100.072 110.596 100.024C111.556 99.8411 112.499 99.581 113.416 99.2461C112.735 101.725 112.298 103.864 112.152 105.759C109.284 106.78 106.027 107.752 102.333 108.676L102.187 103.621ZM100 49.083C122.068 49.083 139.421 54.2354 158.961 64.0056C149.385 100.072 131.887 124.279 100 143.916C88.0426 136.528 77.835 128.265 69.3286 118.835L81.1403 113.245C82.6471 113.391 84.1054 113.439 85.4664 113.488C85.3692 115.578 84.7373 117.085 83.6679 118.203C84.2998 118.884 84.8831 119.613 85.515 120.293C87.1676 118.835 88.237 116.648 88.3342 113.537C92.2228 113.488 95.9656 113.099 99.4167 112.322C99.2223 118.009 98.4446 122.189 96.7919 123.842C96.7433 123.89 96.6947 123.939 96.6947 123.987C96.3059 124.425 95.917 124.765 95.6254 125.057C97.1808 124.765 98.7362 124.425 100.243 123.987C102.187 119.953 102.236 112.905 102.236 111.641C105.833 110.717 109.09 109.794 111.958 108.822C112.055 112.127 113.416 115.287 115.943 116.453C117.061 115.627 118.179 114.8 119.249 113.926C118.617 114.023 114.582 114.314 114.68 107.85C123.186 104.642 128.679 100.802 133.539 95.0172C134.803 92.1007 135.872 89.0871 136.602 85.9276C130.769 95.1144 125.422 100.461 114.971 104.642C115.263 102.794 115.798 100.558 116.672 97.9337C119.735 96.6699 122.894 95.1144 124.839 94.3367L129.408 89.5246L132.859 76.2061L129.262 77.324L133.491 72.9007L136.115 62.4501L129.796 63.4223C130.137 61.6724 130.38 59.9711 130.526 58.2213L127.463 57.4921C127.269 59.4364 126.88 61.5752 126.297 63.957L126.005 64.0056C124.012 64.3458 122.019 64.9777 120.269 66.4845L120.853 64.7833L110.694 66.679L107.34 70.2273L107.437 69.9357L108.506 67.1164L98.4932 69.2552C97.8127 64.7347 97.0836 60.7002 96.5003 57.3949C95.5767 57.4921 94.6046 57.638 93.6811 57.7838C94.313 61.1377 94.9935 65.2694 95.7226 69.8871L93.3408 70.4218L90.3271 73.5813C88.237 71.3453 83.9595 72.7549 81.2375 73.4354L72.4881 75.72C71.6132 75.963 70.7383 76.2061 69.9119 76.4977C67.7246 73.3382 65.6831 70.0815 63.9818 66.6304L63.6902 65.9985C62.8152 66.3387 61.9403 66.7276 61.0654 67.1164L61.4542 67.8942C63.1069 71.2967 65.0998 74.5048 67.2385 77.6157C64.079 79.0253 61.2112 80.9696 58.6836 83.7402L54.1145 88.5524C53.0451 89.7676 52.1216 91.08 51.3438 92.3924C47.0664 83.7402 43.6638 74.359 41.0876 64.0542C60.5793 54.2354 77.9322 49.083 100 49.083Z" fill="white"/>
<path d="M88.091 109.988L89.9867 109.113L94.896 105.176L95.9654 102.163L97.7639 105.614L99.3679 104.885L99.4652 109.405C95.9168 110.231 92.1254 110.669 88.1882 110.717L88.091 109.988ZM102.187 103.621L108.263 100.947L109.235 99.9752C109.624 100.024 110.11 100.072 110.596 100.024C111.556 99.8411 112.498 99.581 113.416 99.2461C112.735 101.725 112.298 103.864 112.152 105.759C109.284 106.78 106.027 107.752 102.333 108.676L102.187 103.621ZM63.69 65.9499C73.4115 61.9641 83.3761 59.1934 93.6809 57.7352C94.3128 61.0891 94.9933 65.2208 95.7224 69.8385L93.3406 70.3732L90.3269 73.5327C88.2368 71.2967 83.9593 72.7063 81.2373 73.3868L72.4879 75.6714C71.613 75.9144 70.7381 76.1575 69.9118 76.4491C67.7244 73.2896 65.6829 70.0329 63.9816 66.5818L63.69 65.9499ZM61.2596 81.164C59.6556 77.1782 58.2945 73.0466 57.0793 68.8663C58.3918 68.2344 59.7042 67.6511 61.0652 67.0678L61.454 67.8456C63.1067 71.2481 65.0996 74.4562 67.2383 77.5671C65.0996 78.4906 63.1067 79.6572 61.2596 81.164ZM83.6677 118.154C82.4039 116.696 81.1887 115.238 80.0221 113.731L81.1401 113.196C82.6469 113.342 84.1052 113.391 85.4662 113.439C85.369 115.578 84.7371 117.085 83.6677 118.154ZM95.6252 125.008C94.0211 125.3 92.4171 125.543 90.7644 125.689C88.9659 123.939 87.216 122.14 85.5148 120.245C87.1674 118.786 88.2368 116.599 88.334 113.488C92.2226 113.439 95.9654 113.051 99.4166 112.273C99.2221 117.96 98.4444 122.14 96.7917 123.793C96.7431 123.842 96.6945 123.89 96.6945 123.939C96.3057 124.376 95.9654 124.765 95.6252 125.008ZM115.943 116.453C111.228 119.758 105.93 122.335 100.243 123.939C102.187 119.904 102.236 112.856 102.236 111.592C105.833 110.669 109.089 109.745 111.957 108.773C112.103 112.127 113.416 115.287 115.943 116.453ZM133.539 95.0172C130.282 102.357 125.373 108.822 119.248 113.926C118.617 114.023 114.582 114.314 114.679 107.85C123.186 104.642 128.678 100.802 133.539 95.0172ZM111.909 56.4228C116.575 56.4228 121.193 56.6658 125.713 57.1519C129.164 57.881 132.567 58.7559 135.969 59.7767C137.282 64.2972 137.962 69.1094 137.962 74.0187C137.962 78.1018 137.476 82.0876 136.601 85.879C130.768 95.0658 125.422 100.413 114.971 104.593C115.263 102.746 115.797 100.51 116.672 97.8851C119.735 96.6213 122.894 95.0658 124.838 94.2881L129.407 89.4759L132.859 76.1575L129.262 77.2754L133.49 72.8521L136.115 62.4015L129.796 63.3737C130.137 61.6238 130.38 59.9225 130.525 58.1727L127.463 57.4435C127.269 59.3878 126.88 61.5266 126.297 63.9083L126.005 63.957C124.012 64.2972 122.019 64.9291 120.269 66.4359L120.852 64.7347L110.694 66.6304L107.34 70.1787L107.437 69.8871L108.506 67.0678L98.493 69.2066C97.8125 64.6861 97.0834 60.6516 96.5001 57.3463C101.507 56.763 106.659 56.4228 111.909 56.4228Z" fill="#EE3C33"/>
<path d="M56.7392 85.636C53.9686 79.6572 51.684 73.3868 49.8369 66.922C66.2177 59.1934 83.1331 55.0132 101.118 54.5271C109.527 54.6243 117.693 55.4992 125.665 57.1519C121.144 56.6658 116.527 56.4228 111.86 56.4228C106.611 56.4228 101.507 56.7144 96.403 57.3463C95.4794 57.4435 94.5073 57.5894 93.5837 57.7352C83.2789 59.1934 73.363 61.9641 63.5929 65.9499C62.7179 66.2901 61.843 66.679 60.968 67.0678L56.9822 68.8663C58.1974 73.0466 59.5584 77.1782 61.1625 81.164C60.2389 81.8932 59.364 82.7195 58.5377 83.643L56.7392 85.636ZM100.972 137.938C91.5908 131.57 83.2303 124.085 75.9878 115.724L80.0222 113.828C81.1888 115.335 82.4526 116.793 83.6678 118.252C84.2511 118.932 84.883 119.661 85.5149 120.342C90.8617 126.223 96.7918 131.619 103.257 136.431C102.528 136.868 101.75 137.403 100.972 137.938Z" fill="#F9B82F"/>
<path d="M88.0911 109.988L88.1883 110.669C92.1255 110.62 95.9169 110.183 99.4653 109.356C99.4653 107.898 99.4167 106.391 99.3681 104.836L97.764 105.565C97.0835 104.107 96.6946 103.572 95.9655 102.114L94.8962 105.128L89.9868 109.065L88.0911 109.988ZM102.187 103.621L102.285 108.627C105.979 107.704 109.235 106.732 112.103 105.711C112.298 103.815 112.687 101.676 113.367 99.1975C112.298 99.5377 111.326 99.8294 110.548 99.9752C110.013 100.024 109.576 100.024 109.187 99.9266L108.215 100.899C106.222 101.871 104.18 102.746 102.187 103.621ZM100 49.083C77.8835 49.083 60.5792 54.2354 41.039 64.0056C43.5666 74.3104 46.9691 83.6916 51.2952 92.3438C52.1215 91.0314 52.9964 89.719 54.0658 88.5038C54.5519 87.9691 58.6349 83.6916 58.6349 83.6916C61.1625 80.921 64.0303 78.9767 67.1898 77.5671C65.0511 74.4562 63.0582 71.2967 61.4055 67.8456L61.0167 67.0678L63.6415 65.9499L63.9331 66.5818C65.6344 70.0815 67.6759 73.3382 69.8633 76.4491C70.6896 76.1575 71.5645 75.9144 72.4395 75.6714L81.1888 73.3868C83.8622 72.7063 88.1397 71.2967 90.2784 73.5327L93.2921 70.3732L95.6739 69.8385L93.6324 57.7352C94.5559 57.5894 95.5281 57.4922 96.4516 57.3463C97.0835 60.6516 97.764 64.7347 98.4445 69.2066L108.458 67.0678L107.388 69.8871L107.291 70.1787L110.645 66.6304L120.804 64.7347L120.221 66.4359C121.971 64.9777 124.012 64.2972 125.956 63.957L126.248 63.9083C126.831 61.5266 127.22 59.3878 127.415 57.4435L130.477 58.1727C130.331 59.8739 130.088 61.6238 129.748 63.3737L136.067 62.4015L133.442 72.8521L129.213 77.2754L132.81 76.1575L129.359 89.4759L124.79 94.2881C122.894 95.0658 119.686 96.6213 116.624 97.8851C115.749 100.51 115.214 102.746 114.922 104.593C125.373 100.413 130.72 95.0172 136.553 85.879C135.824 89.0385 134.803 92.0521 133.491 94.9686C128.63 100.704 123.089 104.593 114.631 107.801C114.582 114.266 118.568 113.974 119.2 113.877C118.131 114.752 117.013 115.627 115.895 116.405C113.367 115.238 112.055 112.078 111.909 108.773C108.992 109.745 105.784 110.669 102.187 111.592C102.139 112.808 102.139 119.904 100.194 123.939C98.6875 124.376 97.1321 124.716 95.5767 125.008C95.8683 124.716 96.2572 124.376 96.646 123.939C96.6946 123.89 96.6946 123.842 96.7433 123.793C98.3473 122.14 99.1736 117.96 99.3681 112.273C95.9169 113.002 92.1741 113.391 88.2855 113.488C88.1883 116.599 87.119 118.786 85.4663 120.245C84.8344 119.564 84.2025 118.884 83.6192 118.154C84.6886 117.085 85.3205 115.53 85.4177 113.439C84.0567 113.391 82.5984 113.342 81.0916 113.196L69.28 118.786C77.7863 128.216 87.9453 136.431 99.9513 143.868C131.887 124.23 149.385 100.024 158.961 63.957C139.421 54.2354 122.068 49.083 100 49.083ZM36.324 61.8182C57.4683 50.9301 76.0364 45 100 45C123.964 45 142.532 50.9301 163.676 61.8182C153.857 101.385 135.095 127.584 100 148.631C86.7787 140.708 75.2101 131.424 65.5858 120.633L59.7043 123.501L49.7883 128.508C46.0941 130.404 41.9625 133.271 37.6364 132.153C32.9701 130.112 36.0324 124.425 37.4906 121.168C41.1362 112.953 44.9276 104.836 48.9134 96.7671C44.1498 87.8233 40.4071 78.1018 37.7822 67.6025L36.324 61.8182Z" fill="#1E3160"/>
<path d="M126.151 65.7554C124.109 66.0957 122.311 66.7276 120.755 68.283C119.491 69.644 118.86 71.1995 118.325 72.9008L113.464 88.1149C112.832 90.1078 111.811 93.7534 115.02 93.5104C116.138 93.3159 117.158 92.8785 118.179 92.441L127.949 88.358L130.428 78.7823L125.276 80.4349L124.061 84.761L120.464 86.0734L124.984 70.6162L128.144 69.9357L127.415 72.6577C128.97 72.2689 130.477 71.9286 132.032 71.5883L133.782 64.6375C131.255 64.9291 128.727 65.318 126.151 65.7554ZM111.568 68.2344L100.778 82.6223L105.833 69.401L94.5558 71.8314L91.6393 78.6364L94.0697 77.9559L85.4176 99.4891L81.9664 108.287L93.292 102.989L98.493 88.7954L103.257 98.4683L110.596 95.2602L106.076 85.1013L114.29 72.8035C115.068 72.6091 115.846 72.4147 116.624 72.2689L118.374 66.9706L111.568 68.2344ZM66.5578 107.704L58.6834 111.252C62.4748 102.454 66.412 93.7048 70.5436 85.004L77.4945 82.8653C73.7031 91.08 70.1062 99.3919 66.5578 107.704ZM72.8768 77.3727C67.9188 78.7337 63.4469 80.8724 59.8986 84.761C57.8571 87.0942 56.3988 89.7676 55.0378 92.5382C51.052 100.607 47.2606 108.773 43.615 116.988C42.6429 119.127 39.7264 124.328 42.8373 125.689C46.2884 126.564 50.5659 123.696 53.6282 122.14L63.5441 117.134C69.1826 114.314 74.2864 110.912 77.689 105.468C79.05 103.135 80.0707 100.704 81.0915 98.2253L87.7021 82.3306C88.5284 80.3377 89.9867 77.8587 89.5492 75.6714C88.6257 72.7549 83.7163 74.5534 81.5776 75.0881L72.8768 77.3727Z" fill="white"/>
<path d="M139.907 61.0405L144.33 62.5959C147.976 63.957 151.184 65.318 153.808 66.5818C145.642 94.677 128.873 118.252 105.201 135.021L103.257 136.334C96.3057 131.133 92.2227 127.05 92.2227 127.05L95.4794 126.515C105.714 124.818 115.218 120.134 122.797 113.051C136.213 100.51 141.705 82.6223 138.935 65.7554C138.886 65.3666 138.789 64.9777 138.74 64.5889L138.692 64.443L138.643 64.2486L138.594 64.0542L138.546 63.8597L138.497 63.6653L138.448 63.4709L138.4 63.2765L138.351 63.082L138.303 62.8876L138.254 62.7418L138.205 62.5473L138.157 62.3529L138.108 62.2071L138.06 62.0613L138.011 61.9154C137.878 61.3775 137.732 60.8426 137.574 60.3114C138.448 60.5544 139.178 60.7975 139.907 61.0405Z" fill="#057DC1"/>
</svg>
