<svg width="200" height="200" viewBox="0 0 200 200" fill="none" xmlns="http://www.w3.org/2000/svg">
<path d="M100.005 192.05C60.878 192.05 25.95 167.193 13.0953 130.201C-3.53627 82.275 21.9176 29.7505 69.8312 13.1125C79.6025 9.71908 89.7508 8 100.001 8C139.137 8 174.062 32.8531 186.911 69.8452L187.345 71.0978L187.335 71.1137C203.095 118.692 177.679 170.446 130.187 186.937C120.41 190.334 110.255 192.053 100.005 192.053" fill="#A0A2A3"/>
<path d="M175.778 58.4252C164.668 38.1829 146.336 23.4813 124.167 17.0267C120.346 15.9148 116.425 15.0584 112.517 14.4833H112.508C70.0709 8.23006 29.0112 34.6169 17.0032 75.8588C10.5487 98.0278 13.1113 121.386 24.2246 141.625C35.3379 161.867 53.6662 176.569 75.8352 183.023C79.66 184.135 83.5806 184.995 87.4949 185.57C96.1702 186.848 104.782 186.742 113.105 185.445C113.208 185.496 113.31 185.554 113.412 185.602L113.511 185.384C145.736 180.202 173.487 156.873 183.003 124.191C189.457 102.022 186.891 78.6643 175.781 58.4252M133.498 28.0825V27.9867C151.59 36.3711 165.368 51.0472 172.934 68.5415C164.655 58.2494 153.443 51.7917 142.742 47.7401C141.448 43.4935 139.003 39.7422 134.591 37.8953C133.731 35.927 132.523 34.5466 130.162 33.6615C127.558 34.2399 123.314 37.2626 120.685 42.0396C117.828 41.6019 115.371 41.3335 113.486 41.1737L112.91 41.1226C112.214 41.0555 111.405 41.0011 110.504 40.9404C106.664 40.6784 101.318 40.2918 94.8409 38.397C95.1924 38.1573 95.5503 37.9273 95.9145 37.7164C116.582 27.6959 133.28 28.0793 133.501 28.0857M80.5898 75.2932C77.3466 69.3435 73.362 64.3589 68.3997 61.1028C70.694 59.7768 73.0745 58.5658 75.2505 57.5273C78.3659 57.9523 87.447 59.2719 91.2526 60.6395C93.9654 62.2659 96.6846 64.0138 99.3974 65.8511C98.704 66.7106 98.0043 67.5893 97.2853 68.5032C97.2853 68.5032 89.2331 68.6022 80.5898 75.29M76.7299 78.7058C69.6906 85.7738 58.0661 101.009 44.0962 113.758C45.3136 94.9635 51.6627 79.1308 60.3923 66.848C61.3125 65.9437 62.4085 65.0458 63.6163 64.1703C69.0644 66.9151 73.3333 72.1554 76.7299 78.7058ZM102.676 61.8569C99.9726 60.026 97.2598 58.2814 94.5501 56.6486C92.5147 54.3639 88.4151 50.0758 86.2679 47.8391C87.3255 46.1616 88.7347 44.1645 90.4442 42.2761C98.8255 45.1678 105.782 45.7078 110.156 46.005C111.009 46.0625 111.766 46.1136 112.425 46.1807L113.057 46.2351C114.211 46.3341 115.326 46.4587 116.441 46.5802C112.239 50.9801 107.823 55.7028 102.676 61.8569ZM82.5613 22.5227C91.8725 20.4202 101.653 19.9664 111.485 21.4139C115.061 21.9379 118.64 22.7176 122.206 23.7561C122.34 23.7944 122.468 23.8391 122.602 23.8807C117.588 24.6539 111.137 26.1142 103.877 28.7631C98.1289 30.6899 92.16 32.9745 86.6737 35.2081C84.6734 34.0386 83.2515 32.5432 82.5166 30.6931C81.2992 27.6256 82.0245 24.2545 82.5645 22.5195M77.0271 23.9893C76.6404 26.4241 76.5925 29.498 77.778 32.5208C78.5257 34.4284 79.6792 36.0772 81.2001 37.4831C77.7141 38.9625 74.5699 40.3429 71.9881 41.506C65.869 41.26 55.1648 40.95 47.643 41.3942C47.2372 41.3878 46.809 41.3718 46.4224 41.3718C55.1967 33.3708 65.6773 27.4307 77.0271 23.9893ZM41.1565 46.6441C42.9107 46.5226 45.4063 46.43 48.3907 46.5131C55.6504 47.1649 58.2802 49.1652 62.4948 51.9291C61.5106 53.6514 60.4338 55.5462 59.3666 57.4378C45.876 54.7985 33.7306 63.7102 25.6561 72.0915C29.2636 62.464 34.571 53.891 41.1565 46.6441ZM22.1956 84.1155C27.5765 76.8238 41.4409 60.5149 56.7337 62.1509C55.5258 64.3333 54.5065 66.2089 53.9026 67.4104C49.8925 73.6093 46.1316 81.048 43.3357 89.8478C40.4248 99.012 38.9102 108.553 38.7441 118.408C35.4848 121.092 32.1234 123.584 28.6852 125.76C28.6852 125.76 34.8106 131.224 40.9041 133.374C40.9041 133.374 36.715 139.957 34.0438 144.254C22.547 127.083 17.7892 105.569 22.1988 84.1155M142.154 167.309C141.582 158.045 140.042 150.559 140.042 150.559C140.876 150.894 142.959 152.393 142.959 152.393C142.563 135.065 135.278 128.962 135.476 119.51C135.642 111.595 136.725 106.093 138.812 101.146C151.452 116.037 160.901 132.176 163.93 147.178C157.951 155.281 150.526 162.065 142.154 167.305M176.27 122.232C174.257 129.153 171.372 135.579 167.787 141.449C163.575 126.214 153.865 110.48 141.371 96.1042C142.499 94.1871 143.787 92.2539 145.263 90.1929C148.672 86.4928 150.279 89.9245 150.279 89.9245C153.018 82.5018 151.276 78.7633 149.947 77.1657C149.452 76.4307 148.854 76.1655 148.854 76.1655C147.704 70.9444 142.972 68.2028 142.972 68.2028C142.972 68.2028 144.601 60.8696 143.815 53.2743C169.403 63.9594 176.964 83.2943 179.162 93.4394C179.948 102.872 179.072 112.602 176.267 122.229" fill="#0C233F"/>
<path d="M86.6738 35.2113C92.1633 32.9745 98.129 30.6931 103.877 28.7663C111.137 26.1174 117.588 24.6572 122.605 23.8871C122.471 23.8455 122.343 23.7976 122.209 23.7625C118.64 22.724 115.064 21.9475 111.485 21.4203C101.653 19.9728 91.8726 20.4234 82.5646 22.5291C82.0278 24.2609 81.2993 27.6352 82.5167 30.6995C83.2484 32.5496 84.6703 34.0482 86.6738 35.2144" fill="#266092"/>
<path d="M43.3326 89.8447C46.1317 81.0416 49.8925 73.6061 53.8994 67.4072C54.5066 66.2057 55.5227 64.3301 56.7305 62.1477C41.4377 60.5149 27.5765 76.8206 22.1956 84.1123C17.7861 105.566 22.5439 127.08 34.0406 144.251C36.7151 139.953 40.9009 133.371 40.9009 133.371C34.8043 131.221 28.6821 125.757 28.6821 125.757C32.1202 123.578 35.4817 121.088 38.7409 118.404C38.9039 108.55 40.4184 99.0088 43.3326 89.8447Z" fill="#266092"/>
<path d="M46.4224 41.3718C46.8058 41.3718 47.2372 41.3878 47.6398 41.3942C55.1616 40.9468 65.8658 41.2568 71.9849 41.506C74.5699 40.3461 77.7109 38.9625 81.1969 37.4863C79.6792 36.0772 78.5225 34.4284 77.7748 32.5208C76.5893 29.498 76.6372 26.4242 77.0239 23.9893C65.6741 27.4307 55.1935 33.3708 46.4192 41.3718" fill="#266092"/>
<path d="M142.154 167.309C150.526 162.068 157.951 155.285 163.93 147.181C160.901 132.176 151.452 116.04 138.812 101.15C136.722 106.093 135.639 111.598 135.476 119.513C135.278 128.965 142.563 135.068 142.956 152.396C142.956 152.396 140.873 150.897 140.039 150.562C140.039 150.562 141.579 158.045 142.154 167.312" fill="#266092"/>
<path d="M75.2536 57.5273C73.0808 58.5658 70.6971 59.7768 68.4028 61.1028C73.3651 64.3589 77.3497 69.3435 80.5929 75.2932C89.2362 68.6022 97.2884 68.5032 97.2884 68.5032C98.0106 67.5893 98.7103 66.7106 99.4005 65.8511C96.6909 64.0138 93.9717 62.2659 91.2557 60.6395C87.4501 59.2719 78.3658 57.9491 75.2536 57.5241" fill="#266092"/>
<path d="M116.441 46.5802C115.326 46.4587 114.211 46.3341 113.057 46.2351L112.425 46.1807C111.766 46.1136 111.006 46.0657 110.156 46.0082C105.782 45.7078 98.8286 45.171 90.4473 42.2793C88.7378 44.1677 87.3286 46.1648 86.271 47.8423C88.4182 50.0758 92.5178 54.3671 94.55 56.6518C97.2597 58.2814 99.9725 60.026 102.676 61.8601C107.82 55.7028 112.239 50.9801 116.438 46.5802" fill="#266092"/>
<path d="M25.656 72.0915C33.7306 63.7134 45.8759 54.8017 59.3665 57.441C60.4338 55.5462 61.5106 53.6514 62.4947 51.9291C58.2801 49.1652 55.6504 47.1649 48.3938 46.5131C45.4094 46.43 42.9139 46.5258 41.1596 46.6473C34.5741 53.8942 29.2667 62.4672 25.6592 72.0947" fill="#266092"/>
<path d="M176.27 122.232C179.076 112.602 179.951 102.875 179.165 93.4426C176.967 83.2975 169.407 63.9626 143.819 53.2775C144.605 60.8728 142.975 68.206 142.975 68.206C142.975 68.206 147.707 70.9476 148.858 76.1687C148.858 76.1687 149.455 76.4339 149.95 77.1689C151.277 78.7665 153.021 82.505 150.283 89.9277C150.283 89.9277 148.676 86.496 145.266 90.1961C143.79 92.2571 142.502 94.1871 141.374 96.1075C153.868 110.483 163.582 126.22 167.79 141.452C171.372 135.582 174.257 129.157 176.273 122.236" fill="#266092"/>
<path d="M130.159 33.6615C132.52 34.5466 133.728 35.927 134.59 37.8953C139 39.7454 141.448 43.4935 142.742 47.7401C153.443 51.7917 164.655 58.2526 172.934 68.5415C165.371 51.0472 151.593 36.3711 133.504 27.9867V28.0825C133.28 28.0729 116.582 27.6927 95.9176 37.7132C95.5502 37.9273 95.1955 38.1541 94.844 38.3938C101.318 40.2886 106.667 40.6752 110.504 40.9372C111.408 40.998 112.214 41.0555 112.91 41.1194L113.485 41.1705C115.371 41.3303 117.828 41.5987 120.684 42.0364C123.314 37.2562 127.558 34.2367 130.162 33.6583" fill="#266092"/>
<path d="M76.7299 78.7058C73.3333 72.1586 69.0644 66.9183 63.6132 64.1703C62.4053 65.0458 61.3125 65.9437 60.3891 66.848C51.6595 79.1276 45.3104 94.9635 44.093 113.758C58.0629 101.009 69.6874 85.7738 76.7299 78.7058Z" fill="#266092"/>
<path d="M84.5233 40.4324L79.0306 48.3983C79.0306 48.3983 83.1813 51.2837 86.5939 55.1851C80.6187 53.9645 74.0619 52.8621 74.0619 52.8621L63.6643 58.5146L68.5404 50.4273C68.5404 50.4273 65.2588 47.625 61.4788 45.187C65.6263 45.3084 73.5091 45.9603 73.5091 45.9603L84.5265 40.4324H84.5233Z" fill="#79BC43"/>
<path d="M94.7961 75.6734C94.7961 75.6734 93.6298 78.8911 93.4796 81.8819C93.4796 81.8819 86.1879 82.9555 82.6794 85.3456C82.6794 85.3456 89.9584 78.0891 94.7961 75.6734Z" fill="#79BC43"/>
<path d="M143.918 75.3507C144.726 75.1526 145.333 75.1207 145.784 75.1526C145.649 74.7788 145.397 74.2228 144.946 73.6732C144.304 72.8935 143.365 72.3056 143.365 72.3056C143.969 73.2386 143.988 74.5231 143.918 75.3475" fill="white"/>
<path d="M137.338 78.6675C138.281 78.0188 139.141 77.4852 139.92 77.0474C139.78 76.7087 139.559 76.223 139.23 75.6351C138.604 74.5167 136.974 73.539 136.974 73.539C137.648 75.5329 137.505 77.5491 137.342 78.6675" fill="white"/>
<path d="M59.13 127.882C52.9311 130.415 38.2646 126.961 38.2646 126.961C53.0813 126.108 67.5752 115.493 67.5752 115.493C67.5656 115.519 67.5497 115.545 67.5433 115.57C63.1976 122.232 57.2096 126.089 57.2096 126.089C57.8711 126.933 58.5357 127.495 59.13 127.885" fill="#A0A2A3"/>
<path d="M133.012 39.4706C133.012 39.4706 129.369 36.614 125.235 41.0459C129.663 32.9745 132.223 37.6013 133.012 39.4706Z" fill="#79BC43"/>
<path d="M147.401 78.6227C147.401 78.6227 147.017 78.3639 146.937 78.3192C144.624 77.0858 140.483 80.6805 137.776 82.1695C135.073 83.6585 131.133 86.8315 129.21 82.4603C127.286 78.0891 131.712 71.2575 133.242 66.9535C136.623 57.4442 136.747 51.846 136.035 48.8201C139.16 52.3477 140.144 59.1122 140.144 59.1122C140.144 59.1122 141.304 46.4076 135.092 43.0621C135.236 43.5127 135.076 45.0975 134.948 46.3437C134.948 46.3437 134.936 46.3277 134.929 46.3181C132.038 46.8454 125.657 46.12 123.583 45.0368C115.738 53.4533 107.184 65.1609 100.746 75.9131C97.9532 81.5975 95.218 88.2694 94.5342 93.6918C94.5342 93.6918 93.6427 91.241 93.435 87.9722C89.8722 89.3462 77.7652 95.2958 75.1738 113.544C75.1738 113.544 82.8681 105.604 91.3772 102.511C91.3772 102.511 85.9899 116.625 96.2725 141.634C96.2725 141.634 100.436 126.297 109.143 122.427C114.415 148.616 129.874 149.047 134.383 166.864C134.383 166.864 139.109 157.633 133.421 141.944C133.421 141.944 135.383 142.491 137.045 144.449C137.045 144.449 136.786 139.861 132.498 129.959C129.702 124.658 128.826 117.506 128.826 117.506C126.315 119.781 125.672 127.466 125.672 127.466C117.997 106.646 139.783 86.0103 143.758 82.9683C145.697 81.4793 146.896 81.4538 147.618 81.8116C148.366 80.2619 148.298 79.2714 147.397 78.6227" fill="#A0A2A3"/>
</svg>
