<svg width="64" height="64" viewBox="0 0 64 64" fill="none" xmlns="http://www.w3.org/2000/svg">
<path d="M32.0035 3.19922C14.6168 8.93788 9.87012 15.921 9.87012 15.921C9.87012 51.2988 32.0035 61.0908 32.0035 61.0908C32.0035 61.0908 54.1297 51.2988 54.1297 15.921C54.1297 15.921 49.3901 8.93788 32.0035 3.19922Z" fill="#B4A168"/>
<path d="M32.0035 3.19922C14.6168 8.93788 9.87012 15.921 9.87012 15.921C9.87012 51.2988 32.0035 61.0908 32.0035 61.0908C32.0035 61.0908 54.1297 51.2988 54.1297 15.921C54.1297 15.921 49.3901 8.93788 32.0035 3.19922Z" fill="#B4A168"/>
<path d="M32.0038 5.10547C17.2767 9.54636 11.7051 16.5757 11.7051 16.5757C11.7051 48.7748 31.8864 58.677 32.0038 58.7517C32.1211 58.677 52.2989 48.7784 52.2989 16.5757C52.2989 16.5757 46.7309 9.54636 32.0038 5.10547Z" fill="#0C436A"/>
<path d="M32.0038 5.10512C17.2767 9.54601 11.7051 16.5753 11.7051 16.5753C11.7051 21.4251 12.1638 25.77 12.9424 29.6527L40.4269 8.30512C38.0375 7.18156 35.2429 6.07934 32.0073 5.10156" fill="#AB1D37"/>
<path d="M35.8149 40.3522L34.5029 40.1211L39.0505 43.3033L35.8149 40.3522Z" fill="#B4A168"/>
<path d="M37.1342 39.4264L35.8223 39.1953L40.3698 42.3775L37.1342 39.4264Z" fill="#B4A168"/>
<path d="M36.4229 36.8962H38.0727L35.7225 35.25L34.2256 35.9469L37.614 38.3184L36.4229 36.8962Z" fill="#B4A168"/>
<path d="M41.4717 34.6998L41.1624 35.2367L42.325 35.9052L43.6335 33.6367H38.3926L40.2379 34.6998H41.4717Z" fill="#B4A168"/>
<path d="M20.4908 36.5949L19.769 37.0109C19.2463 38.0918 18.8588 39.2474 18.6383 40.4634C18.8517 40.9576 19.0757 41.4447 19.3033 41.9247H20.5228L19.7512 42.842C20.5548 44.4456 21.4259 45.946 22.3681 47.3398C23.8366 49.5194 25.4828 51.4572 27.2677 53.1069C28.7326 54.4616 30.3219 55.6456 32.0037 56.6447V48.1896L29.3548 48.9007L27.5379 43.1336L31.5841 40.2998V38.8065L29.561 37.3878L30.6028 36.6589L32.0072 37.3132V30.5932C33.4828 29.2989 38.5175 30.8172 40.6188 32.41C38.4464 30.6287 35.705 29.5123 32.7148 29.3594L32.0072 30.5896L31.2997 29.3629C28.3095 29.5158 25.5752 30.6358 23.4028 32.4172L23.4917 32.57H18.1797L20.5015 36.5914L20.4908 36.5949ZM26.8694 39.4287L28.1815 39.1976L23.6339 42.3798L26.8694 39.4287ZM24.9494 43.3043L28.185 40.3532L29.497 40.122L24.9494 43.3043ZM29.7743 35.9478L26.3859 38.3194L27.577 36.9007H25.9237L28.2775 35.2545L29.7708 35.9514L29.7743 35.9478ZM25.6072 33.6403L23.7619 34.7034H22.5281L22.8375 35.2367L21.6748 35.9087L20.3664 33.6403H25.6072Z" fill="#B4A168"/>
<path d="M29.0811 42.9379L29.817 45.2775L30.4712 43.2081H33.5326L34.1868 45.2775L34.9228 42.9379L33.6321 42.0312H32.6224L32.0037 42.6535H32.0002L31.3815 42.0312H30.3717L29.0811 42.9379Z" fill="white"/>
<path d="M30.1191 47.7338H33.8845L33.0312 45.0352L32.3734 47.1152H31.6303L30.9725 45.0352L30.1191 47.7338Z" fill="white"/>
<path d="M26.0374 11.2852H25.2622V14.0798L24.4018 11.2852H23.6267C23.5805 11.2852 23.5449 11.3207 23.5449 11.3669V16.9989C23.5449 17.0452 23.5805 17.0843 23.6267 17.0843H24.4018V14.3216L25.2622 17.0843H26.0374C26.0836 17.0843 26.1191 17.0452 26.1191 16.9989V11.3669C26.1191 11.3207 26.08 11.2852 26.0374 11.2852Z" fill="white"/>
<path d="M37.8874 16.7643L38.4528 17.0736C38.4528 17.0736 38.4776 17.0843 38.4919 17.0843H39.7541C39.7541 17.0843 39.7825 17.0807 39.7967 17.0736L40.3798 16.7358C40.4047 16.7216 40.4225 16.6932 40.4225 16.6647V14.9474L39.5621 15.4594V16.1598C39.5621 16.2025 39.5301 16.2345 39.4874 16.2345H38.7763C38.7336 16.2345 38.7016 16.2025 38.7016 16.1598V12.2132C38.7016 12.1705 38.7336 12.1385 38.7763 12.1385H39.4874C39.5265 12.1385 39.5621 12.1705 39.5621 12.2132V13.0914L40.4225 12.5936V11.6692C40.4225 11.6372 40.4047 11.6087 40.3763 11.5945L39.7967 11.2958C39.7967 11.2958 39.7718 11.2852 39.7576 11.2852H38.4847C38.4847 11.2852 38.4563 11.2852 38.4456 11.2958L37.8874 11.5945C37.8589 11.6087 37.8447 11.6372 37.8447 11.6692V16.6932C37.8447 16.7252 37.8625 16.75 37.8874 16.7678" fill="white"/>
<path d="M18.3107 26.6712L19.0005 26.2659C19.036 26.2481 19.0574 26.2197 19.0574 26.1805V24.1254L18.0298 24.7334V25.569C18.0298 25.6259 18.0014 25.6543 17.9445 25.6543H17.0947C17.0698 25.6614 17.0485 25.6543 17.0343 25.6365C17.02 25.6188 17.0094 25.5974 17.0094 25.5725V20.8863C17.0094 20.8294 17.0378 20.801 17.0947 20.801H17.9445C18.0014 20.801 18.0298 20.8294 18.0298 20.8863V21.9245L19.0574 21.3308V20.2285C19.0574 20.1965 19.0396 20.1681 19.0005 20.1432L18.3107 19.7841C18.3107 19.7841 18.2823 19.7734 18.2645 19.7734H16.7462C16.7214 19.7734 16.7036 19.7734 16.7 19.7841L16.0423 20.1432C16.0031 20.161 15.9854 20.1894 15.9854 20.2285V26.2161C15.9854 26.2588 15.9996 26.2908 16.0316 26.3121L16.7107 26.6783C16.7107 26.6783 16.732 26.689 16.7569 26.689H18.2574C18.2822 26.689 18.3 26.689 18.3143 26.6783" fill="white"/>
<path d="M20.8743 26.2652L21.5712 26.6705C21.5712 26.6705 21.5997 26.6812 21.6174 26.6812H23.0966C23.1215 26.6812 23.1392 26.6812 23.1535 26.6705L23.8397 26.2652C23.8788 26.2474 23.8966 26.219 23.8966 26.1798V20.2207C23.8966 20.1887 23.8788 20.1603 23.8397 20.1354L23.1428 19.7763C23.1428 19.7763 23.125 19.7656 23.1072 19.7656H21.6174C21.5997 19.7656 21.5819 19.7656 21.5712 19.7763L20.885 20.1354C20.8459 20.1532 20.8281 20.1852 20.8281 20.2278V26.1763C20.8281 26.2118 20.8423 26.2403 20.8743 26.2616M21.941 20.7861H22.7908C22.8477 20.7861 22.8761 20.8145 22.8761 20.8714V25.5754C22.8761 25.6323 22.8477 25.6607 22.7908 25.6607H21.941C21.8841 25.6607 21.8557 25.6323 21.8557 25.5754V20.8714C21.8557 20.8145 21.8841 20.7861 21.941 20.7861Z" fill="white"/>
<path d="M25.692 26.2655L26.3889 26.6709C26.3889 26.6709 26.4173 26.6815 26.4351 26.6815H27.9142C27.9391 26.6815 27.9569 26.6815 27.9711 26.6709L28.6573 26.2655C28.6964 26.2478 28.7142 26.2193 28.7142 26.1802V19.8549C28.7142 19.798 28.6822 19.7695 28.6182 19.7695H27.6867V25.5686C27.6867 25.6255 27.6582 25.654 27.6013 25.654H26.7516C26.6947 25.654 26.6662 25.6255 26.6662 25.5686V19.7695H25.7418C25.6742 19.7695 25.6387 19.8051 25.6387 19.8726V26.1802C25.6387 26.2193 25.6529 26.2478 25.6849 26.2655" fill="white"/>
<path d="M30.5634 26.6812H31.4879V23.7763L32.5048 23.3887V26.6776H33.4292C33.4968 26.6776 33.5323 26.6421 33.5323 26.5745V23.1612C33.5323 23.1185 33.5146 23.0865 33.4755 23.0687L32.7679 22.6812L33.4755 22.2758C33.5146 22.2581 33.5323 22.2296 33.5323 22.1905V20.2207C33.5323 20.1816 33.5146 20.1532 33.4755 20.1354L32.7892 19.7763C32.7892 19.7763 32.7608 19.7656 32.743 19.7656H30.567C30.4994 19.7656 30.4639 19.8012 30.4639 19.8687V26.571C30.4639 26.6421 30.4994 26.6741 30.567 26.6741M31.4914 20.875C31.4914 20.8181 31.5199 20.7896 31.5768 20.7896H32.4265C32.4834 20.7896 32.5119 20.8181 32.5119 20.875V22.0732L31.495 22.4678V20.875H31.4914Z" fill="white"/>
<path d="M35.4101 26.6812H36.3239L36.3345 23.7763L37.3514 23.3887V26.6776H38.2759C38.3435 26.6776 38.379 26.6421 38.379 26.5745V20.2207C38.379 20.1887 38.3612 20.1603 38.3221 20.1354L37.6359 19.7763C37.6359 19.7763 37.6074 19.7656 37.5897 19.7656H36.1105C36.1105 19.7656 36.0964 19.7656 36.0928 19.7692C36.0857 19.7692 36.075 19.7727 36.0643 19.7727L35.3568 20.1674C35.3248 20.1852 35.3105 20.2172 35.3105 20.2598V26.5674C35.3105 26.6385 35.3461 26.6705 35.4137 26.6705M36.3381 20.9496C36.3381 20.8998 36.3523 20.8572 36.3843 20.8287C36.4163 20.7967 36.4554 20.7825 36.5088 20.7825H37.2625C37.3265 20.7825 37.3586 20.8145 37.3586 20.8785V22.0767L36.3417 22.4714V20.9532L36.3381 20.9496Z" fill="white"/>
<path d="M43.1398 20.1393L42.45 19.7802C42.45 19.7802 42.4216 19.7695 42.4038 19.7695H40.914C40.8962 19.7695 40.8784 19.7731 40.8678 19.7802L40.178 20.1393C40.1389 20.1571 40.1211 20.1855 40.1211 20.2246V26.1838C40.1211 26.2229 40.1353 26.2478 40.1673 26.2691L40.8642 26.6744C40.8642 26.6744 40.8926 26.6851 40.9104 26.6851H42.3895C42.4144 26.6851 42.4322 26.6851 42.4464 26.6744L43.1362 26.2655C43.1753 26.2478 43.1931 26.2193 43.1931 26.1802V22.678H41.6464V24.1215H42.1655V25.5722C42.1655 25.6291 42.1371 25.6575 42.0802 25.6575H41.2304C41.1735 25.6575 41.1451 25.6291 41.1451 25.5722V20.886C41.1451 20.8291 41.1735 20.8006 41.2304 20.8006H42.0802C42.1371 20.8006 42.1655 20.8291 42.1655 20.886V21.9242L43.1931 21.3304V20.2282C43.1931 20.1891 43.1753 20.1606 43.1362 20.1429" fill="white"/>
<path d="M47.9184 19.7695H45.7104C45.6855 19.7695 45.6677 19.7695 45.6641 19.7802L44.9992 20.1393C44.9601 20.1571 44.9424 20.1855 44.9424 20.2246V26.5962C44.9424 26.6531 44.9708 26.6815 45.0277 26.6815H47.9219C47.9895 26.6815 48.025 26.646 48.025 26.5784V25.6646H46.0659C46.0019 25.6646 45.9699 25.6326 45.9699 25.5722V23.7802H47.2428V22.6851H45.9699V20.8753C45.9699 20.8184 46.0019 20.79 46.0659 20.79H48.025V19.8762C48.025 19.8086 47.9895 19.7731 47.9219 19.7731" fill="white"/>
<path d="M36.6645 11.2293H33.3365L31.9996 7.85156L30.6627 11.2293H27.3418L29.9764 13.5476L29.1196 17.0889L36.6645 11.2293Z" fill="white"/>
<path d="M34.0696 13.875L32.2705 15.2723L34.8803 17.2137L34.0696 13.875Z" fill="#B4A168"/>
</svg>
