<svg width="200" height="200" viewBox="0 0 200 200" fill="none" xmlns="http://www.w3.org/2000/svg">
<path d="M99.9988 193C99.9988 193 171.308 171.163 171.308 109.601C171.308 67.8383 171.308 9 171.308 9H28.69C28.69 9 28.69 67.8358 28.69 109.601C28.69 171.166 99.9988 193 99.9988 193Z" fill="#010101"/>
<path d="M37.6193 17.9292V109.599C37.6193 131.991 48.2602 151.271 69.2474 166.905C81.8186 176.269 94.623 181.561 99.9963 183.548C105.372 181.561 118.177 176.266 130.745 166.905C151.732 151.271 162.373 131.991 162.373 109.599V17.9292H37.6193ZM157.403 109.599C157.403 116.564 156.273 123.209 154.036 129.523H120.672V133.258L120.667 148.585V148.656L120.64 148.607L115.392 139.135L113.348 135.441H73.8667V144.501C74.2302 144.501 74.5912 144.505 74.9497 144.51C75.1069 144.51 75.2616 144.515 75.4163 144.52C75.5538 144.523 75.6889 144.528 75.824 144.533C76.2415 144.545 76.6565 144.56 77.0666 144.579C84.1221 144.913 90.0602 146.355 94.9742 148.639C105.433 153.499 111.236 162.175 113.25 172.084C107.86 174.97 103.145 176.993 99.9988 178.223C94.1638 175.942 82.963 170.959 72.0003 162.75C59.5814 153.447 51.0647 142.818 46.5092 130.996L70.2985 111.318L67.4399 100.503L43.5254 120.284C42.909 116.809 42.5922 113.246 42.5922 109.596V22.9022H157.403V109.601V109.599Z" fill="#B69E66"/>
<path d="M73.7169 101.907L93.0391 118.55L99.4217 113.27L101.99 111.146L89.267 89.044L69.9424 72.4011L60.991 79.8053L63.0023 83.2999L73.7169 101.907Z" fill="#B69E66"/>
<path d="M135.576 92.6295L137.98 84.9183L145.689 82.5141L137.98 80.1123L135.576 72.4011L133.172 80.1123L125.463 82.5141L133.172 84.9183L135.576 92.6295Z" fill="white"/>
<path d="M135.576 120.115L137.98 112.406L145.689 110.002L137.98 107.597L135.576 99.8887L133.172 107.597L125.463 110.002L133.172 112.406L135.576 120.115Z" fill="white"/>
<path d="M108.108 92.6295L110.512 84.9183L118.221 82.5141L110.512 80.1123L108.108 72.4011L105.704 80.1123L97.9948 82.5141L105.704 84.9183L108.108 92.6295Z" fill="white"/>
<path d="M59.5028 36.7773H55.4949V59.2478H64.3726V55.7655H59.5028V36.7773Z" fill="white"/>
<path d="M73.4934 49.5376H78.6947V46.0578H73.4934V40.2572H79.2203V36.7773H69.4855V59.2478H79.2866V55.7655H73.4934V49.5376Z" fill="white"/>
<path d="M92.1893 50.3284V55.1049L91.1972 56.0946H89.4855L88.4958 55.1049V41.0529L89.4855 40.0264H91.1653L92.1549 41.0529V43.4178H96.1628V39.4713L93.4688 36.7773H87.182L84.488 39.4713V56.5514L87.182 59.2478H93.5007L96.1972 56.5514V47.2415H90.4359L92.1893 50.3284Z" fill="white"/>
<path d="M103.739 56.2591H101.205V59.2478H110.279V56.2591H107.744V39.7636H110.279V36.7773H101.205V39.7636H103.739V56.2591Z" fill="white"/>
<path d="M118.056 36.7773L115.362 39.4713V56.5514L118.056 59.2454H124.441L127.135 56.5514V39.4713L124.441 36.7773H118.056ZM123.127 54.9723L122.138 55.9988H120.357L119.368 54.9723V41.0529L120.357 40.0264H122.138L123.127 41.0529V54.9723Z" fill="white"/>
<path d="M135.978 36.7773H132.594V59.2478H136.109V45.0116L141.116 59.2478H144.5V36.7773H140.986V50.7704L135.978 36.7773Z" fill="white"/>
</svg>
