<svg width="200" height="200" viewBox="0 0 200 200" fill="none" xmlns="http://www.w3.org/2000/svg">
<g clip-path="url(#clip0_9898_54211)">
<path d="M171.288 73.69H171.253C171.276 74.74 171.288 75.8007 171.288 76.8631C171.288 128.006 142.548 172.577 99.9932 196.002C57.4398 172.575 28.7 128.004 28.7 76.8614C28.7 75.8007 28.7125 74.7382 28.7356 73.6882H28.7V10.6318C47.4505 6.52928 72.4974 4.01242 99.995 4C127.48 4.01242 152.539 6.53992 171.29 10.6318V73.69H171.288Z" fill="white"/>
<path d="M100 111.081H42.5919L39.425 50.6108L100 111.081Z" fill="#ED1C2C"/>
<path d="M160.563 50.4086L157.361 53.6278L123.542 87.4893L119.839 91.2105L117.352 93.7025L100 111.081V45.2188L160.563 50.4086Z" fill="#ED1C2C"/>
<path d="M157.277 111.152L137.178 148.172L100 111.081L157.277 111.152Z" fill="#ED1C2C"/>
<path d="M100 184.132L69.7784 160.29L62.6681 148.339L100 111.081V184.132Z" fill="#ED1C2C"/>
<path d="M163.988 17.8703C147.162 14.1136 124.672 11.799 99.995 11.7883C75.3178 11.8007 52.8281 14.1136 36.0023 17.8703V75.6571H36.0378C36.0147 76.6237 36.0023 77.5886 36.0023 78.5677C36.0023 125.429 61.8027 166.291 99.995 187.747C138.187 166.278 163.988 125.429 163.988 78.5677C163.988 77.601 163.975 76.6237 163.952 75.6571H163.988V17.8703ZM157.356 70.2526H152.575V78.4222H152.552C152.575 79.2683 152.575 80.1285 152.575 80.987C152.575 82.8707 152.527 84.7313 152.431 86.5919L157.139 87.2002C156.805 92.7217 156.087 98.1492 155.011 103.445L150.387 102.825C149.813 105.663 149.12 108.454 148.331 111.198C147.686 113.417 146.981 115.611 146.204 117.77L150.471 119.618C148.607 124.818 146.384 129.84 143.826 134.669L139.536 132.726C137.457 136.578 135.163 140.287 132.653 143.854C132.056 144.712 131.434 145.56 130.812 146.394L134.91 148.946C131.612 153.478 127.992 157.759 124.095 161.755L120.343 158.488C116.627 162.21 112.646 165.668 108.429 168.841L111.573 172.908C107.88 175.759 104.008 178.394 99.9808 180.792C99.9453 180.769 99.8973 180.745 99.8617 180.721C95.8827 178.336 92.0459 175.723 88.3903 172.91L91.5341 168.843C87.3152 165.67 83.3362 162.201 79.6202 158.49L76.1779 161.497L75.8669 161.759C74.3492 160.196 72.8795 158.598 71.4454 156.965C69.1991 154.389 67.0719 151.716 65.0513 148.949L69.1493 146.397C68.4918 145.514 67.8467 144.62 67.214 143.714C64.7403 140.195 62.4815 136.521 60.4272 132.729L56.1372 134.673C53.5799 129.843 51.3567 124.822 49.4925 119.621L53.7594 117.773C52.9828 115.59 52.2648 113.383 51.6197 111.141C50.8307 108.41 50.15 105.631 49.576 102.828L44.9519 103.449C43.8767 98.1528 43.1588 92.7271 42.8247 87.2038L47.5323 86.5954C47.4363 84.7348 47.3883 82.8742 47.3883 80.9906C47.3883 80.1321 47.4008 79.2736 47.4114 78.4258H47.3883V70.2562H42.6079V53.7378C58.5008 50.7917 78.3264 49.0269 99.8493 49.0021H99.9684C121.479 49.0145 141.304 50.7669 157.197 53.713C157.245 53.7254 157.281 53.7254 157.329 53.7361V70.2544H157.352L157.356 70.2526Z" fill="black"/>
<path d="M47.3652 46.7231C49.5529 46.3772 51.7512 46.0544 53.9495 45.7458V48.8231C50.0665 49.3605 46.1941 49.9689 42.3342 50.6358V20.1621C44.0064 19.8765 45.6929 19.5892 47.3652 19.3267C47.3652 28.4629 47.3652 37.5992 47.3652 46.7231Z" fill="white"/>
<path d="M64.838 16.6659C66.5103 16.4868 67.8858 16.7972 68.9609 17.5847C70.0361 18.3722 70.5746 19.4223 70.5746 20.7454V41.7973C70.5746 43.7768 69.9899 45.2436 68.8063 46.2103C67.6352 47.1876 65.9505 47.7729 63.7522 48.0106C63.4181 48.046 63.0946 48.0815 62.7605 48.1188C61.1718 48.2979 59.7856 47.952 58.6145 47.0812C57.4434 46.2103 56.8587 44.958 56.8587 43.2997V23.0956C56.8587 21.5205 57.4078 20.1495 58.5203 18.9575C59.6203 17.7763 61.1256 17.0739 63.0253 16.8593C63.6349 16.7883 64.232 16.728 64.8416 16.6677L64.838 16.6659ZM65.5542 22.2247V21.3414C65.5542 21.2704 65.5417 21.1268 65.5062 20.9122C65.4831 20.6975 65.4458 20.5432 65.3978 20.4705C65.3623 20.3996 65.2894 20.2914 65.1952 20.1477C65.101 20.004 64.9926 19.91 64.8611 19.8621C64.7296 19.8142 64.575 19.7788 64.3831 19.7539C64.1911 19.7309 63.9761 19.7309 63.738 19.7539C62.9969 19.8373 62.5188 20.0767 62.2914 20.4811C62.0639 20.8873 61.9573 21.6269 61.9573 22.7107V43.117C61.9573 44.4525 62.5313 45.0609 63.6775 44.9297C64.431 44.8463 64.9322 44.5962 65.1721 44.1776C65.412 43.759 65.5311 43.0442 65.5311 42.0669C65.5542 35.4475 65.5542 28.8281 65.5542 22.2211V22.2247Z" fill="white"/>
<path d="M82.7142 15.6533C84.4469 15.5699 86.1796 15.4866 87.9123 15.4263V40.9018C87.9123 41.8915 87.7683 42.6914 87.4947 43.3104C87.2085 43.9312 86.7536 44.4793 86.1316 44.944C85.4261 45.4814 84.6495 45.8752 83.7893 46.1483C82.9292 46.4233 81.854 46.59 80.5514 46.6609C79.4407 46.7212 78.3886 46.6485 77.3846 46.4232C76.3805 46.198 75.6163 45.8858 75.0903 45.4814C74.5642 45.0752 74.1697 44.5875 73.896 44.0022C73.6206 43.4186 73.4891 42.6417 73.4891 41.652V16.2368C75.1987 16.1056 76.9189 15.9868 78.6268 15.8786V41.6414C78.6268 42.4413 78.7938 42.977 79.1404 43.2519C79.4745 43.5268 79.9774 43.6457 80.6456 43.6102C81.2676 43.5747 81.7687 43.408 82.1508 43.11C82.5329 42.812 82.7248 42.2391 82.7248 41.4037C82.7124 32.8279 82.7124 24.2415 82.7124 15.6533H82.7142Z" fill="white"/>
<path d="M99.4334 15.224C100.581 15.224 101.548 15.3553 102.314 15.593C103.078 15.843 103.665 16.2244 104.059 16.7494C104.454 17.2744 104.717 17.8349 104.861 18.4433C105.005 19.0516 105.076 19.8037 105.076 20.6728V40.2454C105.076 40.735 105.053 41.1642 105.015 41.5331C104.98 41.9145 104.907 42.2958 104.813 42.6789C104.717 43.0603 104.575 43.4062 104.406 43.7041C104.226 44.0021 103.999 44.277 103.7 44.5395C103.414 44.802 103.068 45.0042 102.673 45.171C102.279 45.3377 101.813 45.4565 101.275 45.5523C100.725 45.6481 100.103 45.696 99.3979 45.696C96.542 45.696 93.6862 45.7315 90.8303 45.8148V15.318C93.7111 15.2347 96.5669 15.2098 99.4352 15.2223L99.4334 15.224ZM98.7403 42.6435C98.9785 42.6435 99.1704 42.608 99.3375 42.5246C99.5045 42.4537 99.6236 42.3455 99.7071 42.2018C99.7782 42.0706 99.8386 41.9038 99.8866 41.7247C99.9221 41.5456 99.947 41.3434 99.947 41.1287V19.433C99.947 19.2538 99.9346 19.1474 99.9239 19.0995C99.9008 19.0516 99.8759 18.9683 99.8528 18.8619C99.8297 18.7537 99.7817 18.6827 99.7338 18.6472C99.6858 18.6118 99.6254 18.5639 99.5543 18.5036C99.4832 18.4433 99.4103 18.4078 99.3161 18.3847C99.2326 18.3617 99.1242 18.3368 99.0051 18.3138C98.8861 18.2907 98.7546 18.2659 98.5982 18.2428C97.7256 18.2428 96.8655 18.2553 95.9929 18.2659V42.6559C96.901 42.6559 97.8216 42.6435 98.7421 42.6435H98.7403Z" fill="white"/>
<path d="M116.007 15.2471C117.679 15.3305 119.055 15.8555 120.142 16.7973C121.218 17.7515 121.768 18.8849 121.768 20.1957V41.2476C121.768 43.227 121.184 44.5999 120 45.398C118.817 46.1855 117.132 46.519 114.934 46.4232C114.599 46.4108 114.276 46.3877 113.942 46.3753C112.341 46.3044 110.955 45.7545 109.771 44.6939C108.587 43.6438 108.003 42.2958 108.003 40.6499V20.4458C108.003 18.8707 108.552 17.583 109.664 16.5703C110.775 15.5557 112.282 15.0786 114.194 15.1637C114.804 15.1868 115.413 15.2116 116.011 15.2471H116.007ZM116.736 20.9247V20.0414C116.736 19.9704 116.723 19.8268 116.688 19.5997C116.665 19.3727 116.627 19.2184 116.579 19.1457C116.544 19.0623 116.471 18.9435 116.377 18.7874C116.281 18.6331 116.162 18.5125 116.043 18.4539C115.911 18.3936 115.756 18.3227 115.564 18.2748C115.373 18.2145 115.158 18.179 114.919 18.1666C114.178 18.1311 113.7 18.2978 113.473 18.6668C113.245 19.0357 113.139 19.7647 113.139 20.8502V41.2565C113.139 42.5921 113.713 43.2838 114.859 43.3317C115.623 43.3672 116.126 43.188 116.364 42.8067C116.602 42.4253 116.734 41.7336 116.734 40.7439C116.734 34.1369 116.734 27.5281 116.734 20.9211L116.736 20.9247Z" fill="white"/>
<path d="M133.897 16.9766C135.63 17.1557 137.35 17.3455 139.083 17.5495V43.0249C139.083 44.0147 138.939 44.8022 138.665 45.3751C138.379 45.948 137.937 46.4251 137.315 46.8064C136.622 47.2357 135.845 47.5106 134.985 47.6525C134.125 47.7962 133.05 47.7962 131.747 47.6756C130.636 47.5674 129.584 47.3297 128.58 46.9483C127.576 46.567 126.812 46.1378 126.286 45.6482C125.76 45.1587 125.365 44.6106 125.092 43.9898C124.816 43.369 124.685 42.5585 124.685 41.5687V16.1536C126.394 16.2848 128.102 16.4285 129.822 16.5828V42.3456C129.822 43.1456 129.989 43.706 130.336 44.0395C130.67 44.3729 131.173 44.5645 131.841 44.6355C132.463 44.6958 132.964 44.6 133.346 44.3605C133.729 44.1229 133.92 43.5854 133.92 42.75C133.897 34.1512 133.897 25.563 133.897 16.9766Z" fill="white"/>
<path d="M151.942 19.3745C153.615 19.6246 155.276 19.8995 156.95 20.1745V50.6482C155.289 50.3626 153.629 50.0877 151.967 49.8252V38.5179C150.331 35.0344 148.681 31.5757 147.045 28.117V49.0838C145.36 48.8461 143.675 48.6191 141.99 48.4045V17.9556C143.569 18.1578 145.145 18.3724 146.723 18.5994C148.468 22.6789 150.201 26.769 151.946 30.8716V19.3745H151.942Z" fill="white"/>
<path d="M98.6177 129.662C98.7492 130.498 98.8203 131.356 98.8203 132.227C98.8203 133.098 98.7492 133.969 98.6177 134.802C98.4987 135.542 98.3316 136.269 98.1041 136.986C97.3027 139.561 95.8578 141.863 93.9688 143.701C93.9208 143.749 93.8728 143.797 93.8248 143.845C93.5263 144.072 93.2508 144.322 92.9878 144.584C92.9522 144.62 92.9274 144.645 92.8918 144.68C91.5057 146.135 90.6455 148.116 90.6455 150.285C90.6455 150.714 90.6811 151.143 90.7415 151.562L90.7895 151.706L91.8771 155.058L91.973 155.344C92.0441 155.606 92.0814 155.881 92.0814 156.154C92.0814 157.169 91.591 158.075 90.8392 158.635L86.5368 162.93C85.7833 161.761 85.3426 160.377 85.3426 158.886C85.3426 158.659 85.355 158.444 85.3657 158.217L86.1778 157.573L87.9709 156.154L87.0148 154.162L86.8602 153.829L84.4575 148.831C84.3385 148.616 84.2425 148.389 84.159 148.151C83.9564 147.591 83.848 146.982 83.848 146.338C83.848 145.336 84.1234 144.395 84.6015 143.584C85.0564 142.821 85.6891 142.177 86.4533 141.723C86.9189 141.365 87.4218 140.84 87.7328 140.1C88.3779 138.55 87.9354 136.617 86.6328 135.031C86.5368 134.912 86.4302 134.781 86.3093 134.673C84.9587 133.039 84.1341 130.939 84.1341 128.65C84.1341 127.349 84.3971 126.097 84.8752 124.976C85.3657 123.82 86.0818 122.782 86.9669 121.924L87.0148 121.876L88.6996 120.194L90.6349 118.263L91.8184 117.082C89.4637 116.784 87.1943 116.235 85.0316 115.459L83.3699 114.815C81.9713 114.158 80.1071 113.062 78.362 111.296C77.5498 110.473 76.7608 109.506 76.0677 108.385C74.4061 105.714 73.1408 101.872 73.8338 97.7465C73.8338 97.7465 75.364 99.9299 80.1071 102.326C83.5974 104.079 87.5764 105.81 88.9022 108.445C88.9022 108.445 89.5721 106.143 85.8899 102.935C84.8379 102.003 83.3682 101.074 81.4808 100.013C77.5374 97.7944 72.3624 95.517 70.5586 89.3747C70.093 87.7997 69.734 85.391 70.0574 82.8156C70.141 82.1594 70.2725 81.4924 70.452 80.8362C70.452 80.8362 71.289 83.6741 77.4539 86.7408C81.9234 88.9597 84.9711 91.0579 86.3093 94.1122C86.3093 94.1122 87.3489 90.3431 83.2615 87.2782C82.0904 86.3949 81.1219 85.8114 78.529 84.38C76.8088 83.4258 72.9009 81.4694 70.1285 77.4272C68.4314 74.9582 67.3082 72.0121 67.7632 68.8762C67.7987 68.8159 67.8236 68.768 67.8591 68.7095C68.0386 69.0323 68.7193 70.0451 70.4768 71.1306C73.0341 72.7056 75.8189 73.5038 79.7375 74.5662C83.4428 75.5683 89.7872 76.8081 93.5405 78.8958C95.2376 79.8376 96.3128 81.1856 96.3377 82.7003C96.3608 84.6922 95.49 86.6361 94.5925 88.7238C93.6969 90.8221 92.7887 93.0764 92.7887 95.689C92.7887 98.5642 94.1038 100.579 96.9241 101.008C97.0787 101.031 97.2351 101.044 97.3897 101.069C97.5337 101.081 97.6759 101.092 97.8322 101.092C98.0828 101.079 98.3334 101.031 98.5733 100.96C100.486 100.4 101.943 98.0853 102.099 95.2598C102.087 94.9849 102.076 94.7224 102.076 94.4492V94.0555C102.136 91.1449 102.888 88.4134 104.178 86.0047C107.214 80.3041 113.224 76.4162 120.155 76.4162C120.729 76.4162 121.29 76.4392 121.852 76.4995C120.812 77.1203 119.879 77.906 119.103 78.8248L121.146 83.6546L121.159 83.6776L121.207 83.7858L121.219 83.8089C121.315 84.0714 121.374 84.3694 121.374 84.6798V84.7401C121.351 84.8589 121.351 84.9777 121.338 85.0984V85.2172C121.338 85.611 121.409 85.9799 121.53 86.3257V86.3488L122.115 87.7323L123.764 91.645C123.8 91.6929 123.825 91.7639 123.825 91.8242C123.825 91.9324 123.764 92.0388 123.681 92.0991L122.438 93.5056L122.284 93.6848C122.033 93.9225 121.687 94.0785 121.305 94.0785C120.875 94.0785 120.48 93.8763 120.217 93.5659L120.205 93.5535L118.401 91.4428L117.217 90.0594C115.652 89.4989 114.445 88.2218 113.99 86.6237C113.489 87.3155 113.188 88.1739 113.188 89.0927C113.188 90.0115 113.487 90.8824 114.001 91.5741C114.203 91.7887 114.408 92.0033 114.598 92.2304C115.063 92.7784 115.506 93.3389 115.913 93.9366C117.693 96.5369 118.852 99.6142 119.163 102.917L121.637 100.448L121.888 100.198C122.557 99.5894 123.441 99.2205 124.422 99.2205C124.637 99.2205 124.839 99.2329 125.044 99.2684C126.298 99.4706 127.338 100.294 127.841 101.415L127.937 101.629L130.423 107.544L131.845 110.943L132.012 111.349L132.179 111.743C132.275 112.089 132.334 112.447 132.334 112.828C132.334 113.353 132.225 113.853 132.035 114.307L132.023 114.331L129.25 121.117C128.187 120.079 127.386 118.767 126.956 117.3L127.482 116.56L128.534 115.058C128.666 114.926 128.772 114.772 128.857 114.593C128.966 114.378 129.012 114.139 129.012 113.878C129.012 113.641 128.964 113.401 128.868 113.199C128.845 113.139 128.808 113.08 128.772 113.02L127.887 111.351L127.576 110.767L126.823 109.336L125.376 106.604L124.91 105.71L123.919 106.688L119.27 111.328L117.119 113.474C115.316 116.98 112.458 119.856 108.97 121.691C108.552 121.918 108.122 122.121 107.679 122.312C107.571 122.36 107.477 122.408 107.368 122.443C105.588 123.218 103.926 124.208 102.408 125.365C100.999 126.438 99.7071 127.667 98.5609 129.026C98.5253 129.061 98.5004 129.096 98.4649 129.134L98.6195 129.671L98.6177 129.662Z" fill="black"/>
<path d="M120.222 85.7474L119.41 85.3661L118.813 85.0912L118.562 84.9723C118.324 84.818 118.168 84.5431 118.168 84.2327L118.204 84.0057L118.264 83.5516L118.299 83.3015L118.527 83.5285L119.28 84.2806L119.328 84.3285C119.483 84.4828 119.615 84.6389 119.735 84.818C119.771 84.8659 119.796 84.9014 119.831 84.9493C119.986 85.1994 120.117 85.4743 120.226 85.7492L120.222 85.7474Z" fill="#ED1C2C"/>
<path d="M72.5561 51.8277V64.3517C72.5561 64.7809 72.437 65.1516 72.174 65.4372C71.9234 65.7228 71.5165 65.9853 70.9673 66.2123C70.3453 66.4748 69.6522 66.6894 68.8881 66.8437C68.1239 66.9981 67.1678 67.1293 65.9967 67.2127C65.005 67.296 64.0721 67.3084 63.1764 67.2481C62.2807 67.2003 61.5983 67.0938 61.1327 66.9377C60.6671 66.7834 60.3081 66.5919 60.0699 66.3418C59.8318 66.1041 59.711 65.7582 59.711 65.3272V52.8281C61.2286 52.6844 62.7588 52.5531 64.2764 52.4219V63.7646C64.2764 64.1105 64.431 64.3375 64.7314 64.4439C65.0317 64.5504 65.4849 64.5876 66.0695 64.5397C66.6187 64.4918 67.0736 64.3961 67.4077 64.2542C67.7418 64.0998 67.9089 63.848 67.9089 63.4791V52.1363C69.4745 52.0281 71.0153 51.9217 72.5579 51.8259L72.5561 51.8277Z" fill="black"/>
<path d="M88.5929 51.1003V65.8308C87.0984 65.8663 85.6056 65.9142 84.111 65.9745V60.9887C82.6413 59.6282 81.1592 58.2696 79.6895 56.9216V66.1536C78.1843 66.2246 76.6666 66.308 75.1596 66.3913V51.6732C76.5688 51.5899 77.9923 51.5189 79.4016 51.4462C80.9672 53.0567 82.5205 54.6779 84.0861 56.3008V51.244C85.5913 51.1961 87.0859 51.1482 88.5911 51.1003H88.5929Z" fill="black"/>
<path d="M107.774 53.6633C107.774 57.2533 107.786 60.8432 107.797 64.4332C107.784 60.8432 107.774 57.2533 107.774 53.6633Z" fill="black"/>
<path d="M125.029 63.7307V66.4019C121.66 66.2103 118.301 66.0436 114.932 65.9372V51.196C118.063 51.3042 121.194 51.4585 124.324 51.6377C124.312 52.0793 124.312 52.5086 124.301 52.9502H124.324C124.312 53.4043 124.312 53.8442 124.301 54.2982C122.687 54.2024 121.074 54.1191 119.462 54.0481V57.0066C120.979 57.0776 122.497 57.1503 124.015 57.2337C123.082 58.117 122.151 58.9985 121.207 59.8818C120.622 59.8587 120.036 59.8215 119.451 59.7984V63.4363C121.315 63.5321 123.179 63.6278 125.031 63.7342L125.029 63.7307Z" fill="black"/>
<path d="M140.098 54.2239C139.966 53.9383 139.728 53.6758 139.382 53.4133C139.035 53.1508 138.521 52.9362 137.841 52.7694C137.16 52.6027 136.3 52.4715 135.284 52.3881C132.739 52.1735 130.192 51.9819 127.635 51.8152V66.5563C130.18 66.723 132.714 66.9022 135.259 67.1168C135.881 67.1647 136.442 67.1877 136.92 67.1877C137.398 67.1877 137.816 67.1647 138.162 67.1274C138.509 67.0796 138.808 67.0192 139.071 66.9252C139.334 66.8312 139.536 66.7337 139.693 66.6148C139.847 66.496 139.968 66.3523 140.052 66.198C140.135 66.0313 140.196 65.8752 140.231 65.7085C140.267 65.5418 140.279 65.3626 140.279 65.148V55.2242C140.291 54.8429 140.219 54.5094 140.1 54.2221L140.098 54.2239ZM135.712 63.8372C135.712 63.933 135.699 64.0164 135.664 64.0998C135.628 64.1831 135.58 64.2434 135.509 64.302C135.438 64.3623 135.33 64.3977 135.186 64.4208C135.042 64.4438 134.862 64.4439 134.647 64.4332C133.835 64.3623 133.021 64.302 132.209 64.2417V54.8198C132.986 54.8801 133.75 54.9387 134.528 54.999C134.672 55.022 134.791 55.0344 134.887 55.0593C134.996 55.0823 135.079 55.0947 135.163 55.1072C135.234 55.1196 135.307 55.1426 135.365 55.1781C135.424 55.2136 135.474 55.2384 135.52 55.249C135.568 55.2721 135.591 55.3094 135.628 55.3572C135.651 55.4051 135.676 55.4406 135.689 55.4654C135.701 55.4903 135.712 55.5364 135.712 55.6197V63.8372Z" fill="black"/>
<path d="M95.7281 50.9319V65.6624C94.2229 65.6748 92.7052 65.6978 91.1982 65.7333V51.0028C92.7159 50.9674 94.2211 50.9425 95.7281 50.9319Z" fill="black"/>
<path d="M107.761 53.6633C107.774 57.2532 107.774 60.8432 107.784 64.4331V65.7457C106.279 65.7102 104.761 65.6854 103.254 65.6747V53.6048C101.618 53.5924 99.9683 53.5924 98.3316 53.5924C98.7741 53.1507 99.2166 52.7091 99.6573 52.2692C100.1 51.8275 100.553 51.3752 100.996 50.9336C104.759 50.946 108.523 51.0045 112.3 51.1252C112.312 51.5668 112.312 52.0191 112.323 52.4607H112.3C112.312 52.9024 112.312 53.3316 112.323 53.7733C110.805 53.7254 109.288 53.6899 107.758 53.6651L107.761 53.6633Z" fill="black"/>
</g>
<defs>
<clipPath id="clip0_9898_54211">
<rect width="142.588" height="192" fill="white" transform="translate(28.7 4)"/>
</clipPath>
</defs>
</svg>
