<svg width="200" height="200" viewBox="0 0 200 200" fill="none" xmlns="http://www.w3.org/2000/svg">
<g clip-path="url(#clip0_9898_54199)">
<path d="M96.9587 189.663C54.2475 156.803 36.0648 135.689 27.4637 108.978C20.5287 87.4291 20.2389 66.1508 19.9346 43.6265C19.8574 38.0533 19.7801 32.3595 19.6062 26.5642L19.5 22.9808L22.8613 21.7396C47.5974 12.6217 73.5506 8 99.9964 8C126.442 8 152.391 12.6217 177.127 21.7445L180.488 22.9856L180.382 26.569C180.208 32.3691 180.131 38.063 180.053 43.5685C179.749 66.1556 179.459 87.4339 172.524 108.983C163.923 135.694 145.74 156.808 103.029 189.667L99.9964 192.005L96.9635 189.667L96.9587 189.663Z" fill="black"/>
<path d="M97.8714 188.479C55.4355 155.828 37.3833 134.907 28.8884 108.519C22.0209 87.1827 21.7312 66.0155 21.4318 43.6071C21.3545 38.0726 21.2821 32.3546 21.1034 26.5207L21.0261 24.0142L23.378 23.1449C47.95 14.0898 73.7245 9.49707 99.9964 9.49707C126.268 9.49707 152.043 14.0898 176.61 23.1498L178.962 24.0191L178.885 26.5255C178.711 32.3594 178.633 38.0774 178.556 43.6119C178.252 66.0252 177.967 87.1924 171.1 108.524C162.605 134.912 144.552 155.833 102.116 188.484L99.9915 190.117L97.8666 188.484L97.8714 188.479Z" fill="white"/>
<path d="M175.403 26.4144C151.106 17.4559 125.491 12.979 99.9916 12.979C74.4923 12.979 48.8821 17.4559 24.5854 26.4144C25.474 55.9461 23.8368 81.455 32.2061 107.452C40.5755 133.448 59.0672 154.229 99.9964 185.717C140.926 154.229 159.417 133.448 167.787 107.452C176.156 81.455 174.514 55.9461 175.407 26.4144H175.403Z" fill="#400079"/>
<path d="M92.7813 33.5428C92.7813 32.065 93.7471 30.877 95.534 30.8335C97.7555 30.7852 99.1947 32.5141 100.049 34.1948C100.049 33.4703 100.049 29.9545 100.049 28.8631C98.3061 27.9359 97.0601 27.6075 95.5727 27.6413C93.8099 27.6799 92.3514 28.2787 91.1006 29.4619C89.8305 30.7031 89.2123 32.3306 89.2123 34.4169C89.2123 41.1201 97.2243 42.9263 97.2243 47.2921C97.2243 49.7261 95.0559 50.296 94.2735 50.3201C92.6267 50.3636 90.5742 48.9341 89.6035 47.0699C89.6035 48.1469 89.647 51.2618 89.647 52.4644C90.695 53.1694 92.4046 53.5655 94.2349 53.5172C96.128 53.464 97.7266 52.87 98.987 51.7255C100.238 50.5906 100.875 48.9872 100.875 46.9444C100.875 40.0142 92.7813 38.5171 92.7813 33.5476V33.5428Z" fill="white"/>
<path d="M158.558 65.069C158.002 64.9048 157.447 64.7406 156.892 64.5764V47.775C157.79 48.0358 158.683 48.3014 159.577 48.5718C160.402 48.8229 161.199 49.4025 161.774 50.0931V45.4182C161.199 45.7418 160.402 45.8239 159.577 45.5728C158.683 45.3023 157.785 45.0319 156.892 44.7759V39.1835C156.892 39.1835 156.892 39.14 156.892 39.1207C157.326 39.2463 157.756 39.3718 158.186 39.5022C160.576 40.217 162.03 40.4584 162.769 42.6848C162.769 41.4678 162.769 37.7733 162.769 37.7733C162.783 37.696 152.854 34.7646 152.637 34.7887C153.187 35.7739 153.424 37.0102 153.424 38.2176V63.654C153.424 64.8614 153.183 65.9625 152.637 66.6579C152.873 66.6338 163.15 69.6811 163.136 69.7584C163.136 69.7584 163.136 65.1946 163.136 63.9776C162.315 66.3005 160.19 65.552 158.553 65.0642L158.558 65.069Z" fill="white"/>
<path d="M54.6918 32.6782C50.0363 33.7455 47.7375 38.7585 47.7375 47.3499C47.7375 55.9028 50.0411 59.5828 54.6918 58.5155C59.3474 57.4675 61.6896 52.7299 61.6896 44.177C61.6896 35.5855 59.3474 31.6303 54.6918 32.6782ZM54.6918 55.4537C52.48 55.9608 51.3209 52.9376 51.3209 46.3937C51.3209 39.8306 52.4751 36.2085 54.6918 35.7014C56.9037 35.1992 58.0724 38.2948 58.0724 44.858C58.0724 51.4018 56.9085 54.9514 54.6918 55.4537Z" fill="white"/>
<path d="M86.0925 31.5771C86.0925 30.3698 86.3388 29.1866 86.8991 28.3076C86.5417 28.3124 82.0841 28.6602 81.7316 28.7036C82.2918 29.4956 82.5381 30.6402 82.5381 31.8476C82.5381 38.121 82.5381 44.3895 82.5381 50.6629C82.5381 51.8702 82.2918 53.0583 81.7316 53.9517C82.0841 53.9034 86.5465 53.5605 86.8991 53.5557C86.3388 52.7492 86.0925 51.5998 86.0925 50.3924V31.5771Z" fill="white"/>
<path d="M123.564 32.4706C123.564 31.2632 123.81 30.1235 124.37 29.3508C124.018 29.2928 119.57 28.8147 119.213 28.7954C119.773 29.6888 120.019 30.8817 120.019 32.0891V50.9044C120.019 52.1117 119.773 53.2563 119.213 54.0435C119.565 54.0628 124.018 54.5409 124.37 54.5989C123.81 53.6909 123.569 52.4933 123.564 51.2859C123.564 45.0125 123.564 38.744 123.564 32.4706Z" fill="white"/>
<path d="M42.7342 64.6827C42.1789 64.8469 41.6235 65.0111 41.0681 65.1753V39.7824C41.0681 38.575 41.3047 37.3339 41.8505 36.3293C41.5027 36.4163 37.1853 37.7588 36.8472 37.8844C37.3881 38.5509 37.6247 39.6423 37.6247 40.8497V66.2861C37.6247 67.4934 37.3881 68.7346 36.8472 69.7536C37.0452 69.5991 47.327 66.571 47.3463 66.6531V60.8723C46.5108 63.6879 44.3714 64.1998 42.7342 64.6779V64.6827Z" fill="white"/>
<path d="M132.928 52.5465C132.363 52.4547 131.793 52.363 131.223 52.276V33.5042C131.223 32.2968 131.465 31.1667 132.025 30.4134C131.677 30.3409 127.239 29.6938 126.886 29.6648C127.447 30.5824 127.688 31.7801 127.688 32.9922V51.8076C127.688 53.0149 127.442 54.1498 126.886 54.9177C127.123 54.8646 137.627 56.5549 137.617 56.6321C137.617 56.6321 137.617 52.0684 137.617 50.8514C136.772 53.2854 134.599 52.8169 132.928 52.5465Z" fill="white"/>
<path d="M145.634 55.0385C145.074 54.9081 144.509 54.7826 143.949 54.6618V35.89C143.949 34.6826 144.19 33.567 144.741 32.8475C144.393 32.7557 139.998 31.8236 139.646 31.7705C140.201 32.7219 140.443 33.9389 140.443 35.1463V53.9616C140.443 55.1689 140.201 56.2894 139.646 57.0186C139.882 56.98 150.295 59.3367 150.28 59.4188C150.28 59.4188 150.28 54.855 150.28 53.638C149.445 56.0189 147.291 55.4104 145.634 55.0337V55.0385Z" fill="white"/>
<path d="M77.728 32.3209C77.728 31.1135 77.9743 29.9158 78.5345 29.0176C76.8153 29.2011 75.096 29.4039 73.3816 29.6261C73.9418 30.394 74.1833 31.5337 74.1833 32.741C74.1833 37.6429 74.1833 42.5447 74.1833 47.4466C74.1833 50.2959 73.2367 51.793 71.2856 52.0683C69.3297 52.3484 68.388 51.1169 68.3928 48.2675C68.3928 43.3657 68.3928 38.4639 68.3928 33.562C68.3928 32.3547 68.6343 31.1473 69.1945 30.2201C67.4849 30.4809 65.7753 30.7658 64.0657 31.0701C64.6211 31.8138 64.8625 32.939 64.8625 34.1464C64.8625 38.8647 64.8625 43.583 64.8625 48.3014C64.8625 50.7982 65.4469 52.6816 66.6059 53.9179C67.7795 55.1205 69.3007 55.5889 71.2856 55.304C73.2705 55.0239 74.7966 54.1256 75.9798 52.585C77.1437 51.0203 77.7329 48.9726 77.7329 46.4758C77.7329 41.7575 77.7329 37.0392 77.7329 32.3209H77.728Z" fill="white"/>
<path d="M112.123 28.2498C112.519 28.6217 112.93 28.8777 112.775 30.0753C112.616 31.2682 109.732 46.5001 109.732 46.505C109.732 46.5001 106.844 30.9929 106.685 29.7856C106.526 28.5734 106.936 28.3561 107.337 28.0229C107.1 27.9939 102.131 27.8828 101.774 27.8973C102.599 28.5637 102.971 29.2012 103.372 30.5969C103.372 30.5824 107.767 50.8128 107.767 51.7545C107.767 52.6769 107.506 53.0778 107.332 53.2709C107.704 53.2806 109.732 53.3675 109.732 53.3724C109.732 53.3724 111.761 53.4738 112.133 53.5028C111.959 53.2951 111.698 52.8701 111.698 51.9429C111.698 51.006 116.088 31.1909 116.088 31.2054C116.484 29.8532 116.856 29.2495 117.682 28.6603C117.329 28.612 112.364 28.2498 112.128 28.2547L112.123 28.2498Z" fill="white"/>
<path d="M96.2343 76.8913C96.0749 76.6692 95.9542 76.3939 95.8721 76.0703C95.79 75.7468 95.7465 75.3749 95.7465 74.9692V63.031C95.7465 62.6205 95.79 62.2534 95.8721 61.9299C95.9542 61.6063 96.0749 61.331 96.2343 61.1089L96.3164 60.9978L96.3985 60.8867H92.2114L92.2935 60.9978L92.3756 61.1089C92.535 61.331 92.6557 61.6063 92.7378 61.9299C92.8199 62.2534 92.8634 62.6253 92.8634 63.031V74.9692C92.8634 75.3797 92.8199 75.7468 92.7378 76.0703C92.6557 76.3939 92.535 76.6692 92.3756 76.8913L92.2935 77.0024L92.2114 77.1135H96.3985L96.3164 77.0024L96.2343 76.8913Z" fill="white"/>
<path d="M98.7552 60.8818V64.5135L99.0063 64.0692C99.1367 63.8374 99.2865 63.6442 99.4555 63.4994C99.6245 63.3497 99.808 63.2482 100.016 63.1855C100.233 63.1178 100.508 63.0696 100.813 63.0309C101.122 62.9971 101.465 62.9778 101.832 62.973V74.9644C101.832 75.3749 101.788 75.7419 101.706 76.0655C101.624 76.389 101.503 76.6643 101.344 76.8865L101.262 76.9975L101.18 77.1086H105.367L105.285 76.9975L105.202 76.8865C105.043 76.6643 104.922 76.389 104.84 76.0655C104.758 75.7419 104.715 75.37 104.715 74.9644V62.973C105.082 62.973 105.429 62.9923 105.734 63.0309C106.043 63.0647 106.313 63.1178 106.531 63.1855C106.733 63.2482 106.922 63.3497 107.091 63.4994C107.26 63.6491 107.409 63.8374 107.54 64.0692L107.791 64.5135V60.8818H98.7552Z" fill="white"/>
<path d="M87.4931 60.6838C85.4551 60.6838 83.8179 61.4372 82.6299 62.9199C81.4418 64.4025 80.8623 66.368 80.8623 68.9373C80.8623 71.5065 81.4225 73.5204 82.5333 75.003C83.6392 76.5243 85.1653 77.2921 87.0729 77.2921C87.807 77.2921 88.6811 77.1134 89.7532 76.7464L89.8353 76.7174V73.0568L89.5987 73.4914C89.024 74.5587 88.2223 75.0996 87.2178 75.0996C86.2133 75.0996 85.4164 74.5877 84.7451 73.5397C84.0642 72.4676 83.7165 70.9463 83.7165 69.0194C83.7165 67.0924 84.0352 65.5905 84.663 64.4363C85.2764 63.3352 86.0925 62.7991 87.1598 62.7991C88.2271 62.7991 88.995 63.3159 89.5987 64.3832L89.8305 64.7937V61.1281L89.7484 61.0992C89.0143 60.8239 88.2561 60.6887 87.4834 60.6887L87.4931 60.6838Z" fill="white"/>
<path d="M116.32 60.8625C116.595 61.0509 116.721 61.3407 116.721 61.7705C116.721 62.0361 116.692 62.3065 116.6 62.5963L114.866 67.2422L113.132 62.5963C113.041 62.3017 113.012 62.0361 113.012 61.7705C113.012 61.3455 113.132 61.0509 113.412 60.8625H108.989C109.39 61.1571 109.819 61.6884 110.254 62.4611L113.427 69.9128V74.9644C113.427 75.3749 113.383 75.7419 113.301 76.0655C113.219 76.3891 113.099 76.6643 112.939 76.8865L112.857 76.9976L112.775 77.1086H116.962L116.88 76.9976L116.798 76.8865C116.638 76.6643 116.518 76.3891 116.436 76.0655C116.354 75.7419 116.31 75.3701 116.31 74.9644V69.9128L119.483 62.4611C119.913 61.6884 120.347 61.1523 120.748 60.8625H116.325H116.32Z" fill="white"/>
<path d="M149.01 95.3395C144.408 95.3395 141.727 104.037 141.418 108.215H139.617C139.496 96.6241 142.51 89.8968 143.775 87.429C140.723 86.4583 138.945 84.4058 137.82 82.9714C136.695 84.4009 134.918 86.4583 131.866 87.429C133.136 89.8968 136.144 96.6241 136.024 108.215H134.222C133.908 104.037 131.233 95.3395 126.631 95.3395C121.724 95.3395 121.656 101.835 122.231 103.096C122.231 103.096 123.665 100.951 126.631 100.951C129.784 100.951 131.668 104.588 131.885 108.215H130.084V111.624H135.019C134.797 112.851 133.628 114.131 131.687 114.131C129.523 114.131 128.19 112.923 128.19 112.923C129.296 116.536 131.716 117.738 134.135 118.11L137.815 124.021L141.495 118.11C143.915 117.738 146.33 116.531 147.44 112.923C147.44 112.923 146.103 114.131 143.944 114.131C142.007 114.131 140.834 112.851 140.612 111.624H145.547V108.215H143.746C143.968 104.588 145.851 100.951 149 100.951C151.961 100.951 153.4 103.096 153.4 103.096C153.975 101.835 153.907 95.3395 149 95.3395H149.01Z" fill="white"/>
<path d="M73.3526 95.3395C68.7502 95.3395 66.0699 104.037 65.7608 108.215H63.9594C63.8387 96.6241 66.8522 89.8968 68.1175 87.429C65.0654 86.4583 63.2881 84.4058 62.1629 82.9714C61.0376 84.4009 59.2604 86.4583 56.2082 87.429C57.4784 89.8968 60.4871 96.6241 60.3664 108.215H58.565C58.2511 104.037 55.5756 95.3395 50.9732 95.3395C46.0665 95.3395 45.9989 101.835 46.5736 103.096C46.5736 103.096 48.0079 100.951 50.9732 100.951C54.1268 100.951 56.0102 104.588 56.2276 108.215H54.4262V111.624H59.3618C59.1397 112.851 57.971 114.131 56.0296 114.131C53.866 114.131 52.5331 112.923 52.5331 112.923C53.639 116.536 56.0585 117.738 58.4781 118.11L62.1581 124.021L65.8381 118.11C68.2576 117.738 70.6723 116.531 71.7831 112.923C71.7831 112.923 70.4453 114.131 68.2866 114.131C66.35 114.131 65.1764 112.851 64.9543 111.624H69.8899V108.215H68.0886C68.3107 104.588 70.1942 100.951 73.3429 100.951C76.3034 100.951 77.7425 103.096 77.7425 103.096C78.3172 101.835 78.2496 95.3395 73.3429 95.3395H73.3526Z" fill="white"/>
<path d="M111.181 134.97C106.579 134.97 103.899 143.667 103.589 147.845H101.788C101.667 136.254 104.681 129.527 105.946 127.059C102.894 126.088 101.117 124.036 99.9916 122.602C98.8663 124.031 97.0891 126.088 94.0369 127.059C95.3071 129.527 98.3158 136.254 98.195 147.845H96.3937C96.0798 143.667 93.4043 134.97 88.8019 134.97C83.8952 134.97 83.8276 141.465 84.4023 142.726C84.4023 142.726 85.8366 140.581 88.8019 140.581C91.9555 140.581 93.8389 144.218 94.0562 147.845H92.2549V151.254H97.1905C96.9684 152.481 95.7997 153.761 93.8582 153.761C91.6947 153.761 90.3618 152.553 90.3618 152.553C91.4677 156.166 93.8872 157.368 96.3067 157.74L99.9867 163.651L103.667 157.74C106.086 157.368 108.501 156.161 109.612 152.553C109.612 152.553 108.274 153.761 106.115 153.761C104.179 153.761 103.005 152.481 102.783 151.254H107.719V147.845H105.917C106.139 144.218 108.023 140.581 111.172 140.581C114.132 140.581 115.571 142.726 115.571 142.726C116.146 141.465 116.078 134.97 111.172 134.97H111.181Z" fill="white"/>
<path d="M109.394 112.537L101.807 104.863L109.394 97.1892C112.191 94.2964 115.016 91.4326 117.778 88.5011C123.337 82.6769 128.828 76.7898 134.14 70.7241C128.074 76.0365 122.187 81.5323 116.358 87.0861C113.427 89.8485 110.563 92.6737 107.67 95.4699L99.9964 103.057L92.3225 95.4699C89.4296 92.6737 86.5658 89.8485 83.6344 87.0861C77.8101 81.5275 71.9231 76.0365 65.8525 70.7241C71.1649 76.7898 76.6607 82.6769 82.2145 88.5011C84.9769 91.4326 87.8021 94.2964 90.5984 97.1892L98.1853 104.863L90.5984 112.537C87.8021 115.435 84.9769 118.294 82.2145 121.225C76.6559 127.049 71.1649 132.936 65.8525 139.007C71.9231 133.695 77.8101 128.204 83.6344 122.645C86.5658 119.883 89.4248 117.057 92.3225 114.261L99.9964 106.674L107.67 114.261C110.568 117.057 113.427 119.883 116.358 122.645C122.183 128.204 128.07 133.695 134.14 139.007C128.828 132.936 123.337 127.049 117.778 121.225C115.016 118.294 112.191 115.435 109.394 112.537Z" fill="white"/>
</g>
<defs>
<clipPath id="clip0_9898_54199">
<rect width="160.988" height="184" fill="white" transform="translate(19.5 8)"/>
</clipPath>
</defs>
</svg>
