<svg width="200" height="200" viewBox="0 0 200 200" fill="none" xmlns="http://www.w3.org/2000/svg">
<g clip-path="url(#clip0_9898_54205)">
<path d="M169.039 19.6995C142.174 6.03836 114.254 4 100 4C85.7464 4 57.8283 6.03836 30.9637 19.6995L25 22.7313L25.3979 29.4564L30.4433 114.422C30.5147 115.624 31.5172 129.542 39.9781 146.011C45.0235 155.832 51.7116 164.67 59.8587 172.286C69.9291 181.698 82.2263 189.216 96.4111 194.631L100.003 196.003L103.594 194.631C117.779 189.216 130.076 181.698 140.144 172.286C148.291 164.673 154.979 155.832 160.022 146.011C168.483 129.542 169.485 115.621 169.557 114.422L174.602 29.4564L175 22.7313L169.036 19.6995H169.039Z" fill="#FCEE1F"/>
<path d="M168.628 26.4298L166.274 25.233C151.632 17.7925 136.767 14.0555 124.712 12.1535C118.684 11.2038 113.356 10.7148 109.104 10.4626C104.857 10.2104 101.673 10.1975 100 10.1975C98.3242 10.1975 95.1408 10.213 90.8963 10.4626C84.522 10.8409 75.7193 11.7494 65.7688 13.9525C55.8157 16.1556 44.7072 19.6507 33.7287 25.233L31.3743 26.4298L34.5424 79.7902L77.5559 97.8626V97.8935L100 107.324V98.5678L42.2406 74.3005L39.6873 31.2941C52.589 25.1121 65.7203 21.8435 76.5253 20.1423C82.2569 19.2389 87.3304 18.7731 91.3657 18.5337C95.4035 18.2943 98.3879 18.2815 100 18.2815C101.612 18.2815 104.596 18.2943 108.634 18.5337C114.687 18.8914 123.079 19.7613 132.515 21.8486C141.23 23.7763 150.832 26.7489 160.31 31.2915L155.425 113.562V113.588C155.413 113.773 155.209 116.851 154.063 121.656C153.112 125.658 151.51 130.852 148.842 136.584L43.3068 92.2468V92.2314L35.0729 88.7723L35.6061 97.7674L77.5533 115.392L145.057 143.757C143.72 146.011 142.213 148.302 140.514 150.6L77.5533 124.148L36.1392 106.75C36.1392 106.75 36.6111 114.723 36.7335 115.783L45.4418 119.443C45.4418 119.443 45.4367 119.422 45.4341 119.412L135.162 157.112C131.928 160.656 128.178 164.143 123.822 167.46C117.335 172.397 109.499 176.95 100.003 180.717C86.9707 175.544 77.0585 168.899 69.4725 161.811C63.5777 156.301 59.0807 150.52 55.6397 144.938C54.6398 143.317 53.7318 141.713 52.9028 140.136L100.263 160.033V151.277L48.2196 129.411C48.2145 129.393 48.2094 129.377 48.2017 129.362L38.5828 125.321C40.6336 133.163 44.748 144.197 53.0201 155.4C57.6191 161.626 63.5012 167.89 70.9927 173.645C78.4843 179.4 87.5803 184.64 98.5767 188.837L99.9949 189.378L101.413 188.837C116.075 183.242 127.357 175.789 135.963 167.743C142.419 161.711 147.37 155.349 151.153 149.21C156.828 139.999 159.884 131.297 161.529 124.861C163.172 118.421 163.409 114.244 163.422 114.031V114.056L168.623 26.4375L168.628 26.4298Z" fill="#231F20"/>
<path d="M143.294 99.7929L128.908 116.401L114.32 99.9576L128.704 83.3496L143.294 99.7929Z" fill="#231F20"/>
<path d="M123.128 95.5695C123.467 95.5695 123.745 95.5309 123.962 95.4562C124.179 95.3816 124.357 95.2786 124.495 95.1499C124.633 95.0213 124.745 94.872 124.829 94.7021C124.913 94.5323 124.987 94.3495 125.051 94.1565H126.227V105.388H124.477V96.8203H123.125V95.5695H123.128Z" fill="#FCEE1F"/>
<path d="M134.236 102.691C134.236 103.599 134.002 104.299 133.537 104.786C133.073 105.272 132.392 105.517 131.502 105.517C130.612 105.517 129.933 105.275 129.466 104.786C129 104.299 128.767 103.602 128.767 102.691V101.808C128.767 101.262 128.852 100.789 129.023 100.387C129.191 99.9859 129.469 99.6797 129.849 99.466C129.127 99.0697 128.767 98.3156 128.767 97.2038V96.8512C128.767 95.9427 129 95.2452 129.466 94.7588C129.933 94.2723 130.612 94.0278 131.502 94.0278C132.392 94.0278 133.071 94.2723 133.537 94.7588C134.004 95.2452 134.236 95.9427 134.236 96.8512V97.2038C134.236 98.3053 133.874 99.0594 133.155 99.466C133.535 99.6797 133.81 99.9885 133.981 100.387C134.15 100.789 134.236 101.262 134.236 101.808V102.691ZM130.515 97.5409C130.515 97.9888 130.607 98.3002 130.793 98.4726C130.979 98.6425 131.214 98.73 131.499 98.73C131.785 98.73 132.009 98.645 132.198 98.4726C132.39 98.3027 132.484 97.9913 132.484 97.5409V96.9155C132.484 96.4136 132.39 96.0739 132.198 95.8963C132.007 95.7188 131.775 95.6312 131.499 95.6312C131.224 95.6312 130.992 95.7188 130.8 95.8963C130.609 96.0739 130.515 96.4136 130.515 96.9155V97.5409ZM130.515 102.642C130.515 103.144 130.609 103.481 130.8 103.653C130.992 103.823 131.224 103.911 131.499 103.911C131.775 103.911 132.004 103.826 132.191 103.653C132.377 103.484 132.474 103.146 132.484 102.642V101.6C132.484 101.152 132.397 100.828 132.221 100.629C132.045 100.431 131.805 100.333 131.497 100.333C131.188 100.333 130.948 100.431 130.772 100.629C130.596 100.828 130.51 101.152 130.51 101.6V102.642H130.515Z" fill="#FCEE1F"/>
<path d="M59.5322 44.3274V65.8692C59.5322 67.8638 60.402 68.5819 61.7845 68.5819C63.167 68.5819 64.0368 67.8638 64.0368 65.8692V44.3274H68.1487V65.5887C68.1487 70.0566 65.9346 72.6097 61.6646 72.6097C57.3946 72.6097 55.1806 70.0566 55.1806 65.5887V44.3274H59.5296H59.5322Z" fill="#231F20"/>
<path d="M76.4565 52.0279V72.252H72.5411V44.3274H77.9971L82.4635 61.041V44.3274H86.3381V72.252H81.8717L76.4565 52.0279Z" fill="#231F20"/>
<path d="M90.9269 44.3274H95.276V72.252H90.9269V44.3274Z" fill="#231F20"/>
<path d="M98.6379 44.3274H112.08V48.3166H107.535V72.252H103.186V48.3166H98.6379V44.3274Z" fill="#231F20"/>
<path d="M119.789 56.0969H125.758V60.0861H119.789V68.2627H127.301V72.252H115.44V44.3274H127.301V48.3166H119.789V56.0943V56.0969Z" fill="#231F20"/>
<path d="M131.453 44.3274H138.333C142.682 44.3274 144.817 46.7621 144.817 51.23V65.3519C144.817 69.8198 142.682 72.2545 138.333 72.2545H131.453V44.33V44.3274ZM135.802 48.3166V68.2627H138.254C139.639 68.2627 140.468 67.5447 140.468 65.5501V51.0293C140.468 49.0347 139.636 48.3166 138.254 48.3166H135.802Z" fill="#231F20"/>
<path d="M70.7275 36.3719C70.2403 36.462 69.9954 36.5084 69.5082 36.6036C67.965 35.327 67.1794 34.699 65.58 33.4611C65.8989 34.9744 66.0596 35.7311 66.3784 37.2444C65.7535 37.3783 65.4423 37.4477 64.8174 37.5893C64.2434 35.0002 63.9578 33.7056 63.3838 31.119C63.8889 31.0058 64.1414 30.9492 64.6465 30.8385C66.2662 32.043 67.0595 32.653 68.6231 33.8961C68.3349 32.4033 68.192 31.6569 67.9038 30.1642C68.5568 30.0355 68.8833 29.9737 69.5363 29.8528C70.0107 32.4599 70.2505 33.7648 70.7249 36.3745L70.7275 36.3719Z" fill="#231F20"/>
<path d="M77.0508 32.5731C75.9642 32.7276 75.4209 32.8073 74.3368 32.9798C74.421 33.5125 74.4618 33.7776 74.546 34.3104C75.829 34.1071 76.4718 34.0118 77.7574 33.8342C77.8313 34.3824 77.8696 34.6553 77.9436 35.2034C76.0331 35.466 75.0791 35.6152 73.1762 35.9369C72.74 33.3221 72.5232 32.0146 72.087 29.3972C74.069 29.0626 75.0638 28.9082 77.0534 28.6328C77.1273 29.181 77.1656 29.4538 77.2396 30.002C75.9234 30.1847 75.2653 30.2825 73.9516 30.491C74.0282 30.9877 74.069 31.2374 74.1455 31.7341C75.2398 31.5617 75.7856 31.4793 76.8799 31.3223C76.9488 31.8216 76.9845 32.0713 77.0534 32.5706L77.0508 32.5731Z" fill="#231F20"/>
<path d="M83.443 30.8C83.1395 32.3262 82.9915 33.0906 82.7084 34.6194C82.2161 34.6708 81.9687 34.6992 81.4789 34.7558C80.4127 32.2078 79.8643 30.939 78.7343 28.4116C79.4613 28.319 79.8235 28.2752 80.5505 28.1903C81.0581 29.5466 81.308 30.2235 81.8003 31.585C82.086 30.1386 82.234 29.4154 82.54 27.9715C83.0349 27.9201 83.2823 27.8943 83.7772 27.848C84.3689 29.212 84.6597 29.8941 85.2311 31.2633C85.4581 29.822 85.5729 29.104 85.8152 27.6627C86.5498 27.6009 86.9146 27.5726 87.6492 27.5186C87.037 30.2209 86.7437 31.5747 86.1953 34.2848C85.703 34.326 85.4556 34.3491 84.9633 34.3955C84.3664 32.9542 84.0629 32.2361 83.4456 30.8H83.443Z" fill="#231F20"/>
<path d="M98.3752 30.0639C97.7987 30.8283 97.513 31.2118 96.9493 31.9813C96.6764 31.9864 96.5412 31.989 96.2682 31.9942C95.6739 31.2426 95.3729 30.8669 94.7633 30.1205C94.8066 31.5875 94.8271 32.321 94.8704 33.788C94.2353 33.806 93.9164 33.8163 93.2838 33.8421C93.1844 31.1912 93.1359 29.8657 93.0364 27.2174C93.5746 27.1968 93.8425 27.1865 94.3807 27.1685C95.2709 28.2778 95.7071 28.8337 96.5692 29.9558C97.388 28.8054 97.8063 28.2314 98.6532 27.0913C99.1914 27.0887 99.4592 27.0887 99.9974 27.0913C99.9949 29.7422 99.9949 31.0702 99.9898 33.7211C99.3547 33.7211 99.0358 33.7211 98.4007 33.7237C98.3905 32.2618 98.3854 31.5283 98.3752 30.0665V30.0639Z" fill="#231F20"/>
<path d="M106.867 31.1576C105.772 31.1087 105.224 31.0881 104.13 31.0573C104.114 31.5952 104.107 31.8654 104.091 32.4033C105.387 32.4419 106.033 32.4651 107.328 32.5294C107.303 33.0828 107.288 33.3581 107.262 33.9089C105.339 33.8137 104.377 33.7828 102.454 33.7468C102.502 31.0959 102.525 29.7678 102.574 27.1169C104.576 27.1555 105.579 27.189 107.581 27.2868C107.555 27.8402 107.54 28.1155 107.515 28.6663C106.191 28.602 105.527 28.5762 104.201 28.5376C104.186 29.0421 104.181 29.2943 104.165 29.7962C105.267 29.827 105.821 29.8476 106.923 29.8991C106.9 30.401 106.89 30.6532 106.867 31.1576Z" fill="#231F20"/>
<path d="M113.524 30.9338C114.2 32.3545 114.529 33.0674 115.169 34.4958C114.396 34.4186 114.009 34.3825 113.233 34.3156C112.927 33.5023 112.769 33.0983 112.453 32.2875C112.361 32.0456 112.313 31.9221 112.221 31.6801C112.096 31.9041 112.032 32.0173 111.907 32.2438C111.468 32.9953 111.251 33.3711 110.823 34.1252C110.053 34.0711 109.667 34.0454 108.895 33.999C109.736 32.689 110.165 32.0379 111.037 30.7407C110.359 29.3947 110.012 28.723 109.303 27.3821C110.111 27.431 110.514 27.4567 111.32 27.5159C111.644 28.2803 111.805 28.6612 112.119 29.4256C112.208 29.6804 112.254 29.8091 112.343 30.0639C112.476 29.8271 112.542 29.7061 112.675 29.4693C113.106 28.7642 113.323 28.4116 113.761 27.7089C114.562 27.7784 114.965 27.817 115.764 27.8942C114.851 29.1039 114.402 29.7138 113.519 30.9363L113.524 30.9338Z" fill="#231F20"/>
<path d="M118.554 34.8691C117.919 34.7919 117.6 34.7558 116.963 34.6838C117.251 32.0483 117.394 30.728 117.682 28.0925C118.345 28.1672 118.677 28.2058 119.34 28.2856C119.026 30.9184 118.871 32.2362 118.554 34.8691Z" fill="#231F20"/>
<path d="M126.383 35.3476C126.383 35.3476 125.548 36.027 124.01 35.7851C121.891 35.4531 120.837 33.7364 121.087 31.8525C121.337 29.9686 122.855 28.5916 125.066 28.9391C126.673 29.1913 127.265 30.1178 127.265 30.1178C126.808 30.5373 126.581 30.7484 126.127 31.1705C126.127 31.1705 125.758 30.6043 124.855 30.4601C123.793 30.2928 122.926 30.9491 122.763 32.0867C122.6 33.2243 123.23 34.0968 124.268 34.2589C125.15 34.3979 125.671 33.9809 125.671 33.9809C125.959 34.5266 126.102 34.7994 126.383 35.345V35.3476Z" fill="#231F20"/>
<path d="M128.145 32.9644C128.477 31.0934 130.181 29.8117 132.231 30.226C134.305 30.6455 135.389 32.496 134.979 34.3491C134.568 36.2047 132.867 37.4221 130.88 37.018C128.913 36.6191 127.813 34.8329 128.145 32.9619V32.9644ZM133.318 33.9862C133.555 32.8615 132.928 31.9478 131.93 31.7445C130.953 31.5463 130.025 32.146 129.813 33.2758C129.602 34.4057 130.229 35.2988 131.183 35.4944C132.16 35.6925 133.081 35.1109 133.318 33.9888V33.9862Z" fill="#231F20"/>
</g>
<defs>
<clipPath id="clip0_9898_54205">
<rect width="150" height="192" fill="white" transform="translate(25 4)"/>
</clipPath>
</defs>
</svg>
