<svg width="200" height="200" viewBox="0 0 200 200" fill="none" xmlns="http://www.w3.org/2000/svg">
<g clip-path="url(#clip0_9898_54197)">
<path d="M119.919 47.9091L99.9966 4L80.081 47.9091H38.62V130.851C38.6265 133.195 39.2499 136.493 40.3343 139.896C41.7369 144.325 43.8148 148.779 46.5031 153.13C52.0421 162.097 60.133 170.63 70.5486 178.481C78.3343 184.351 87.3603 189.818 97.3797 194.721L100.003 196.007L102.626 194.721C112.646 189.818 121.672 184.357 129.458 178.481C139.867 170.63 147.958 162.097 153.503 153.13C156.191 148.779 158.263 144.331 159.672 139.896C160.75 136.493 161.373 133.188 161.386 130.831V47.9091H119.925H119.919Z" fill="#B4A269"/>
<path d="M44.0226 53.1298V130.87C44.0226 131.48 44.107 132.344 44.2823 133.396C44.5291 134.851 44.9577 136.682 45.6655 138.805C46.7499 142.058 48.4642 145.987 51.081 150.221C56.3603 158.766 63.6784 166.162 71.5875 172.422C72.9577 173.506 74.3538 174.558 75.7564 175.578C83.9771 181.552 92.5616 186.351 99.9966 189.987C116.01 182.149 137.347 168.941 148.912 150.221C154.477 141.214 155.964 133.623 155.971 130.864V53.1233H44.0226V53.1298Z" fill="#00416B"/>
<path d="M44.0226 53.1298V130.87C44.0226 131.48 44.107 132.344 44.2823 133.396L147.626 53.1233H44.0226V53.1298Z" fill="#AB0033"/>
<path d="M147.626 53.1298H115.042L99.9966 18.6104L84.9512 53.1298H52.4187L79.3473 76.7857L70.581 112.974L147.626 53.1298Z" fill="white"/>
<path d="M121.139 80.1624L102.763 94.4611L129.406 114.292L121.139 80.1624Z" fill="#B4A269"/>
<path d="M96.081 166.409H98.3862V168.39H96.081V173.623H94.4122C94.3148 173.623 94.2304 173.545 94.2304 173.442V161.981C94.2304 161.916 94.2693 161.851 94.3278 161.818L95.5745 161.182C95.5745 161.182 95.6265 161.162 95.659 161.162H99.5875C99.6849 161.162 99.7693 161.24 99.7693 161.344V162.994H96.2369C96.146 162.994 96.0745 163.065 96.0745 163.156V166.416L96.081 166.409Z" fill="#B4A269"/>
<path d="M106.639 163.968V161.987C106.639 161.922 106.601 161.857 106.542 161.825L105.295 161.182C105.295 161.182 105.243 161.162 105.211 161.162H102.477C102.477 161.162 102.419 161.169 102.393 161.182L101.198 161.825C101.139 161.857 101.101 161.916 101.101 161.981V172.773C101.101 172.838 101.139 172.896 101.191 172.929L102.406 173.591C102.406 173.591 102.464 173.61 102.49 173.61H105.198C105.198 173.61 105.263 173.604 105.289 173.584L106.542 172.857C106.601 172.825 106.633 172.766 106.633 172.701V169.007L104.789 170.11V171.617C104.789 171.708 104.717 171.779 104.626 171.779H103.101C103.01 171.779 102.938 171.708 102.938 171.617V163.136C102.938 163.045 103.01 162.974 103.094 162.974H104.62C104.711 162.974 104.782 163.045 104.782 163.136V165.026L106.626 163.955L106.639 163.968Z" fill="#B4A269"/>
<path d="M89.6784 169.656C87.8018 168.74 85.3083 167.195 83.9577 165.007H89.6784V169.656Z" fill="#B4A269"/>
<path d="M110.315 169.656C112.191 168.74 114.685 167.195 116.036 165.007H110.315V169.656Z" fill="#B4A269"/>
<path d="M83.6265 118.169C83.7499 118.169 83.8538 118.273 83.8538 118.396V133.169C83.8538 133.292 83.7499 133.396 83.6265 133.396H81.5875L79.3408 126.143V133.396H77.3018C77.1784 133.396 77.0745 133.292 77.0745 133.169V118.396C77.0745 118.273 77.1784 118.169 77.3018 118.169H79.3408L81.5875 125.507V118.169H83.6265Z" fill="white"/>
<path d="M92.2888 118.188L93.8278 118.981C93.8927 119.02 93.9512 119.104 93.9512 119.169V132.299C93.9512 132.364 93.9122 132.442 93.8278 132.487L92.3083 133.383C92.2693 133.403 92.2239 133.403 92.1849 133.403H88.9252C88.8862 133.403 88.8603 133.403 88.8213 133.383L87.2823 132.487C87.2174 132.448 87.1784 132.364 87.1784 132.299V119.188C87.1784 119.104 87.2174 119.02 87.3018 118.981L88.8213 118.188C88.8603 118.169 88.8862 118.169 88.9252 118.169H92.2109C92.2109 118.169 92.2758 118.169 92.2953 118.188H92.2888ZM91.6849 130.968V120.598C91.6849 120.494 91.6005 120.409 91.4966 120.409H89.6265C89.5226 120.409 89.4382 120.494 89.4382 120.598V130.968C89.4382 131.072 89.5226 131.156 89.6265 131.156H91.4966C91.6005 131.156 91.6849 131.072 91.6849 130.968Z" fill="white"/>
<path d="M104.055 119.162V123.507C104.055 123.591 104.016 123.649 103.932 123.695L102.373 124.591L103.932 125.442C104.016 125.481 104.055 125.565 104.055 125.649V133.169C104.055 133.292 103.951 133.396 103.828 133.396H101.789V126.143L99.5421 126.994V133.396H97.5031C97.3797 133.396 97.2758 133.292 97.2758 133.169V118.396C97.2758 118.273 97.3797 118.169 97.5031 118.169H102.302C102.302 118.169 102.367 118.169 102.406 118.188L103.925 118.981C104.01 119.02 104.049 119.085 104.049 119.169L104.055 119.162ZM101.789 120.598C101.789 120.494 101.704 120.409 101.601 120.409H99.7304C99.6265 120.409 99.5421 120.494 99.5421 120.598V124.13L101.789 123.26V120.598Z" fill="white"/>
<path d="M106.99 118.169H113.308C113.432 118.169 113.536 118.273 113.536 118.396V120.409H111.25L111.269 133.208C111.269 133.312 111.185 133.396 111.081 133.396H109.23C109.107 133.396 109.023 133.292 109.023 133.188V120.409H106.756V118.396C106.756 118.273 106.86 118.169 106.984 118.169H106.99Z" fill="white"/>
<path d="M122.685 118.169C122.808 118.169 122.912 118.273 122.912 118.396V133.169C122.912 133.292 122.808 133.396 122.685 133.396H120.646V125.5L118.399 126.994V133.396H116.36C116.237 133.396 116.133 133.292 116.133 133.169V118.396C116.133 118.273 116.237 118.169 116.36 118.169H118.399V124.13L120.646 122.903V118.162H122.685V118.169Z" fill="white"/>
<path d="M68.7823 144.422V142.117C68.7823 142.013 68.6979 141.929 68.594 141.929H66.7239C66.62 141.929 66.5356 142.013 66.5356 142.117V152.487C66.5356 152.591 66.62 152.695 66.7239 152.675H68.594C68.6979 152.675 68.7823 152.591 68.7823 152.487V150.637L71.0486 149.286V153.818C71.0486 153.883 71.0096 153.961 70.9252 154.007L69.4057 154.903C69.3668 154.922 69.3213 154.922 69.2823 154.922H65.9771C65.9382 154.922 65.8927 154.922 65.8732 154.903L64.3797 154.091C64.3148 154.052 64.2758 153.968 64.2758 153.883V140.688C64.2758 140.604 64.3148 140.546 64.3992 140.5L65.8538 139.708C65.8538 139.708 65.9187 139.688 65.9577 139.688H69.3018C69.3018 139.688 69.3668 139.688 69.4057 139.708L70.9252 140.5C70.9901 140.539 71.0486 140.604 71.0486 140.688V143.117L68.7823 144.429V144.422Z" fill="white"/>
<path d="M78.9382 154.916V147.663L76.6914 148.513L76.6719 154.916H74.659C74.5356 154.916 74.4317 154.812 74.4317 154.688V140.786C74.4317 140.701 74.4706 140.617 74.5356 140.578L76.094 139.708C76.133 139.708 76.1784 139.688 76.1979 139.688H79.4577C79.4577 139.688 79.5226 139.688 79.5616 139.708L81.081 140.5C81.146 140.539 81.2044 140.604 81.2044 140.688V154.695C81.2044 154.818 81.1005 154.922 80.9771 154.922H78.9382V154.916ZM76.6914 145.65L78.9382 144.779V142.143C78.9382 142.02 78.8343 141.935 78.7304 141.935H77.068C76.8603 141.935 76.6914 142.104 76.6914 142.312V145.656V145.65Z" fill="white"/>
<path d="M91.3018 140.682V145.026C91.3018 145.111 91.2629 145.169 91.1784 145.214L89.62 146.111L91.1784 146.961C91.2629 147 91.3018 147.085 91.3018 147.169V154.688C91.3018 154.812 91.1979 154.916 91.0745 154.916H89.0356V147.663L86.7888 148.513V154.916H84.7499C84.6265 154.916 84.5226 154.812 84.5226 154.688V139.916C84.5226 139.792 84.6265 139.688 84.7499 139.688H89.5486C89.5486 139.688 89.6135 139.688 89.6525 139.708L91.1719 140.5C91.2564 140.539 91.2953 140.604 91.2953 140.688L91.3018 140.682ZM89.0356 142.117C89.0356 142.013 88.9512 141.929 88.8473 141.929H86.9771C86.8732 141.929 86.7888 142.013 86.7888 142.117V145.65L89.0356 144.779V142.117Z" fill="white"/>
<path d="M99.8018 139.701L101.341 140.494C101.406 140.533 101.464 140.617 101.464 140.682V153.812C101.464 153.877 101.425 153.955 101.341 154L99.8213 154.896C99.7823 154.916 99.7369 154.916 99.6979 154.916H96.4382C96.3992 154.916 96.3732 154.916 96.3343 154.896L94.7953 154C94.7304 153.961 94.6914 153.877 94.6914 153.812V140.701C94.6914 140.617 94.7304 140.533 94.8148 140.494L96.3343 139.701C96.3732 139.682 96.3992 139.682 96.4382 139.682H99.7239C99.7239 139.682 99.7888 139.682 99.8083 139.701H99.8018ZM99.1979 152.481V142.11C99.1979 142.007 99.1135 141.922 99.0096 141.922H97.1395C97.0356 141.922 96.9512 142.007 96.9512 142.11V152.481C96.9512 152.584 97.0356 152.669 97.1395 152.669H99.0096C99.1135 152.669 99.1979 152.584 99.1979 152.481Z" fill="white"/>
<path d="M105.016 154.916C104.893 154.916 104.789 154.812 104.789 154.688V139.916C104.789 139.792 104.893 139.688 105.016 139.688H107.055V152.695H109.925V154.688C109.925 154.812 109.821 154.916 109.698 154.916H105.023H105.016Z" fill="white"/>
<path d="M115.51 154.916H113.471C113.347 154.916 113.243 154.812 113.243 154.688V139.916C113.243 139.792 113.347 139.688 113.471 139.688H115.51V154.922V154.916Z" fill="white"/>
<path d="M125.399 139.682C125.523 139.682 125.626 139.786 125.626 139.909V154.682C125.626 154.805 125.523 154.909 125.399 154.909H123.36L121.114 147.656V154.909H119.075C118.951 154.909 118.847 154.805 118.847 154.682V139.909C118.847 139.786 118.951 139.682 119.075 139.682H121.114L123.36 147.02V139.682H125.399Z" fill="white"/>
<path d="M133.464 154.916V147.663L131.217 148.513L131.198 154.916H129.185C129.062 154.916 128.958 154.812 128.958 154.688V140.786C128.958 140.701 128.997 140.617 129.062 140.578L130.62 139.708C130.659 139.708 130.704 139.688 130.724 139.688H133.984C133.984 139.688 134.049 139.688 134.088 139.708L135.607 140.5C135.672 140.539 135.73 140.604 135.73 140.688V154.695C135.73 154.818 135.626 154.922 135.503 154.922H133.464V154.916ZM131.217 145.65L133.464 144.779V142.143C133.464 142.02 133.36 141.935 133.256 141.935H131.594C131.386 141.935 131.217 142.104 131.217 142.312V145.656V145.65Z" fill="white"/>
</g>
<defs>
<clipPath id="clip0_9898_54197">
<rect width="122.76" height="192" fill="white" transform="translate(38.62 4)"/>
</clipPath>
</defs>
</svg>
