<svg width="200" height="200" viewBox="0 0 200 200" fill="none" xmlns="http://www.w3.org/2000/svg">
<path d="M94.9386 190.062C94.7801 190.003 77.1008 183.099 59.1904 167.639C35.3176 147.037 22.6763 121.154 22.64 92.7979V13.6191L34.9049 12.074C66.8465 8.04622 99.6762 8 100.006 8C100.336 8 133.166 8.04622 165.108 12.074L177.369 13.6191V92.7814C177.336 121.128 164.718 146.998 140.882 167.592C123.503 182.611 105.85 189.696 105.11 189.989L100.01 192.003L94.9452 190.065L94.9386 190.062Z" fill="white"/>
<path d="M96.17 186.83C96.0281 186.777 78.8638 180.052 61.4486 165.024C38.3582 145.093 26.1363 120.117 26.0999 92.7945V16.6695L35.3374 15.5074C67.0677 11.5094 99.6795 11.4631 100.006 11.4631C100.333 11.4631 132.945 11.5094 164.675 15.5074L173.909 16.6695V92.7813C173.876 120.094 161.671 145.053 138.617 164.974C121.67 179.616 104.543 186.49 103.826 186.774L100.006 188.289L96.17 186.83Z" fill="#130C0E"/>
<path d="M50.9731 45.0225C50.5901 45.4649 50.0091 45.7521 48.9922 45.8479C47.4042 45.9997 45.8162 46.1582 44.2315 46.3266C43.1585 46.4388 42.5412 46.353 42.1054 45.9535C41.5771 45.4484 41.3791 44.6362 41.3593 42.2163C42.2903 42.1139 43.2246 42.0116 44.1556 41.9158C44.1919 43.2496 44.248 43.5533 44.3735 43.6788C44.4824 43.7844 44.664 43.8241 45.1922 43.7679C46.0935 43.6755 46.9981 43.5831 47.8994 43.4972C48.4277 43.4444 48.6621 43.385 48.7908 43.2364C48.9196 43.0878 48.9724 42.6752 48.9724 41.863C48.9724 41.1829 48.9361 40.8957 48.771 40.7372C48.6621 40.6316 48.388 40.5787 47.8796 40.5919C46.5888 40.5754 45.2979 40.5655 44.0103 40.5589C43.1387 40.5523 42.6105 40.3972 42.211 40.034C41.7191 39.5454 41.5012 38.8521 41.5012 37.0099C41.5012 35.2832 41.7917 34.2829 42.3728 33.5995C42.7558 33.1505 43.3533 32.8533 44.3174 32.751C45.7832 32.5958 47.249 32.4505 48.7149 32.3086C49.8044 32.2029 50.4416 32.2987 50.841 32.6883C51.3693 33.2231 51.5872 33.9395 51.6235 36.3199C50.6892 36.4057 49.7582 36.4915 48.8238 36.5807C48.7875 35.3624 48.7314 35.0785 48.6059 34.9531C48.497 34.8474 48.3319 34.7847 47.8235 34.8342C46.9882 34.9167 46.1497 34.9993 45.3144 35.0851C44.8423 35.1346 44.6409 35.1941 44.532 35.3195C44.4065 35.4681 44.3669 35.8808 44.3669 36.617C44.3669 37.2971 44.4032 37.5843 44.5485 37.723C44.6772 37.8451 44.8753 37.8451 45.4399 37.8649C46.7406 37.8748 48.0447 37.888 49.3488 37.9046C50.2204 37.9178 50.7288 38.0663 51.1118 38.4394C51.6037 38.9181 51.8216 39.6543 51.8216 41.4965C51.8216 43.3586 51.5475 44.3523 50.9665 45.0258L50.9731 45.0225Z" fill="white"/>
<path d="M60.4879 41.4965C59.0253 41.6054 57.5628 41.721 56.1002 41.8398C55.7833 42.992 55.4697 44.1409 55.1527 45.2932C54.1656 45.3757 53.1752 45.4615 52.188 45.5507C53.5053 41.1861 54.8193 36.8249 56.1366 32.4703C56.3743 31.7143 56.4997 31.5492 57.1732 31.4931C57.992 31.427 58.8107 31.3643 59.6295 31.3016C60.2865 31.2521 60.4318 31.4171 60.6662 32.1171C61.9834 36.267 63.3007 40.4202 64.618 44.58C63.5615 44.6494 62.5051 44.722 61.4486 44.8012C61.1284 43.6986 60.8048 42.5992 60.4846 41.4965H60.4879ZM56.7572 39.4199C57.784 39.3373 58.8074 39.2548 59.8342 39.1789C59.3621 37.5347 58.8867 35.8906 58.4146 34.2465C58.3353 34.2531 58.2561 34.2597 58.1769 34.2663C57.7048 35.9831 57.2293 37.7031 56.7572 39.4199Z" fill="white"/>
<path d="M76.523 43.9231C75.7208 43.9594 74.9185 43.9957 74.1163 44.0354C73.4428 44.0684 73.1324 43.8901 72.8056 43.2859C71.3431 40.5688 69.8772 37.855 68.4147 35.1511C68.3552 35.1544 68.2925 35.1577 68.2331 35.161C68.2331 38.2248 68.2331 41.2886 68.2331 44.3523C67.2856 44.4084 66.3381 44.4679 65.3905 44.5306V30.9583C66.3182 30.8989 67.2492 30.8394 68.177 30.7833C68.8703 30.7437 69.1608 30.8989 69.4876 31.5195C70.8247 34.022 72.1585 36.5312 73.4956 39.0436C73.555 39.0436 73.6178 39.037 73.6772 39.0337V30.4829C74.6247 30.4367 75.5722 30.3904 76.5197 30.3508V43.9231H76.523Z" fill="white"/>
<path d="M89.194 40.1429C87.7282 40.1726 86.2624 40.209 84.7998 40.2486C84.4829 41.381 84.1659 42.5167 83.8523 43.6491C82.8619 43.6788 81.8714 43.7118 80.881 43.7481C82.2016 39.4529 83.5188 35.1643 84.8394 30.8823C85.0771 30.1395 85.2026 29.9811 85.8794 29.9612C86.7014 29.9381 87.5202 29.9183 88.3423 29.9018C88.9993 29.8886 89.1445 30.0603 89.3822 30.7734C90.7028 34.9927 92.0201 39.2185 93.3407 43.4477C92.2842 43.4609 91.2244 43.4774 90.168 43.4972C89.8444 42.378 89.5242 41.2588 89.2006 40.1429H89.194ZM85.4535 37.8649C86.4802 37.8385 87.507 37.8121 88.5371 37.789C88.0616 36.1185 87.5895 34.4479 87.1141 32.7807C87.0349 32.7807 86.9557 32.784 86.8764 32.7873C86.401 34.4809 85.9289 36.1713 85.4535 37.8649Z" fill="white"/>
<path d="M105.249 43.4345C104.447 43.4279 103.645 43.4213 102.842 43.4147C102.165 43.4114 101.858 43.2166 101.528 42.5959C100.062 39.7996 98.5966 37.0099 97.1307 34.2234C97.0713 34.2234 97.0086 34.2234 96.9492 34.2234V43.4147C96.0016 43.4213 95.0508 43.4279 94.1033 43.4378V29.8655C95.0343 29.8556 95.9653 29.849 96.893 29.8424C97.5863 29.8391 97.8769 30.0108 98.207 30.6513C99.5441 33.2264 100.881 35.8048 102.222 38.3899C102.281 38.3899 102.344 38.3899 102.403 38.3899V29.8391C103.351 29.8424 104.301 29.849 105.249 29.8589V43.4312V43.4345Z" fill="white"/>
<path d="M112.965 32.5132V43.5665C111.974 43.5434 110.984 43.5203 109.99 43.5038V32.4505C108.696 32.4274 107.402 32.4076 106.104 32.3911V29.8721C109.696 29.9117 113.291 29.9909 116.883 30.1032V32.6222C115.576 32.5793 114.269 32.5429 112.961 32.5132H112.965Z" fill="white"/>
<path d="M124.817 30.4101C126.075 30.4696 126.659 30.6941 127.115 31.1794C127.844 31.9354 128.372 33.2032 128.372 37.3729C128.372 41.5228 127.844 42.7345 127.115 43.4344C126.659 43.8768 126.075 44.0419 124.817 43.9824C123.499 43.9197 122.179 43.8636 120.862 43.8141C119.604 43.7645 119.023 43.5499 118.564 43.0712C117.834 42.3086 117.306 41.0507 117.306 36.9008C117.306 32.7311 117.834 31.5062 118.564 30.8162C119.019 30.3672 119.604 30.1922 120.862 30.2418C122.182 30.2946 123.499 30.3507 124.817 30.4101ZM120.753 41.1135C120.881 41.2356 121.043 41.2983 121.628 41.3215C122.436 41.3545 123.245 41.3875 124.051 41.4238C124.635 41.47 124.797 41.4007 124.926 41.2884C125.091 41.1201 125.325 40.648 125.325 37.2144C125.325 33.7611 125.087 33.2659 124.926 33.1041C124.797 32.9622 124.632 32.8961 124.051 32.8697C123.242 32.8334 122.433 32.8004 121.628 32.7674C121.043 32.7443 120.881 32.7971 120.753 32.9259C120.588 33.0744 120.35 33.5498 120.35 37.0031C120.35 40.4532 120.588 40.9286 120.753 41.1102V41.1135Z" fill="white"/>
<path d="M141.047 44.9861C140.244 44.9234 139.445 44.864 138.643 44.8078C137.97 44.7583 137.659 44.5437 137.333 43.8999C135.87 41.0046 134.407 38.1158 132.942 35.2336C132.882 35.2303 132.819 35.227 132.76 35.2237V44.415C131.813 44.3555 130.865 44.3027 129.917 44.2466V30.6743C130.845 30.7271 131.776 30.78 132.704 30.8394C133.397 30.8823 133.688 31.0738 134.015 31.7374C135.352 34.4017 136.685 37.0692 138.019 39.7434C138.079 39.7467 138.141 39.7533 138.201 39.7566C138.201 36.9075 138.201 34.055 138.201 31.2059C139.148 31.2752 140.093 31.3445 141.04 31.4171V44.9894L141.047 44.9861Z" fill="white"/>
<path d="M143.014 45.1414V31.5691C144.008 31.6483 145.005 31.7342 145.999 31.82V45.3923C145.005 45.3064 144.008 45.2239 143.014 45.1414Z" fill="white"/>
<path d="M155.108 32.6817C156.362 32.8105 156.943 33.068 157.395 33.583C158.122 34.3787 158.647 35.6795 158.647 39.8492C158.647 43.9991 158.119 45.1811 157.395 45.8413C156.94 46.2573 156.359 46.3894 155.108 46.2573C153.794 46.122 152.48 45.9899 151.162 45.8645C149.908 45.7456 149.327 45.498 148.871 44.9896C148.145 44.1873 147.617 42.8997 147.617 38.7498C147.617 34.5801 148.145 33.385 148.871 32.7346C149.327 32.312 149.908 32.17 151.162 32.2922C152.476 32.4176 153.794 32.5497 155.108 32.685V32.6817ZM151.053 43.1573C151.182 43.286 151.344 43.3586 151.925 43.4148C152.731 43.494 153.536 43.5732 154.342 43.6558C154.923 43.735 155.088 43.6756 155.213 43.5699C155.378 43.4115 155.613 42.9526 155.613 39.5191C155.613 36.0657 155.378 35.5573 155.213 35.3856C155.084 35.2371 154.923 35.1611 154.342 35.1017C153.536 35.0192 152.731 34.9399 151.925 34.8607C151.344 34.8046 151.179 34.8475 151.053 34.9697C150.888 35.1083 150.654 35.5705 150.654 39.0238C150.654 42.4739 150.892 42.9625 151.053 43.154V43.1573Z" fill="white"/>
<path d="M36.6547 84.3594V92.7781C36.6613 97.4035 37.0542 101.821 37.7739 106.033L62.7956 61.0544C58.3353 61.3681 53.6902 61.7511 48.9724 62.2166L36.6547 84.3594Z" fill="white"/>
<path d="M56.9818 145.681C59.6724 148.817 62.4919 151.703 65.341 154.344L117.771 60.0046C112.38 59.7967 107.907 59.691 104.8 59.6382L56.9818 145.681Z" fill="#546670"/>
<path d="M122.436 60.1993L68.593 157.239C71.7029 159.907 74.8063 162.29 77.7908 164.397L135.206 60.9158C131.938 60.6979 128.775 60.5097 125.791 60.3578C124.645 60.2984 123.529 60.2456 122.436 60.196V60.1993Z" fill="#C71F3E"/>
<path d="M74.255 60.361C72.2609 60.4634 70.1744 60.5822 68.0482 60.711L57.7807 79.1859H70.0324L68.9825 83.6429H60.336L59.4182 87.5452H65.4203L64.4497 91.6984H58.4476L56.8233 98.6942H51.1877L54.2746 85.4983L39.2067 112.613C40.5372 117.671 42.3299 122.409 44.4792 126.829L63.3437 92.887H65.3939L66.8762 86.5284L67.8204 84.8314H69.9268L71.4685 78.2681L81.6073 60.0276C79.3062 60.12 76.8499 60.229 74.2616 60.3577L74.255 60.361Z" fill="#C4CED4"/>
<path d="M86.6387 59.8494L67.1337 94.9472H71.2671C73.598 94.9472 74.5422 95.4193 75.0638 95.9806C76.0609 97.0403 76.1896 99.0179 75.5623 102.666H70.3725C70.7917 100.352 70.6366 99.8796 70.4781 99.7112C70.3196 99.5461 70.0819 99.4603 69.1146 99.4603H67.3582C66.5461 99.4603 66.2588 99.5164 66.0475 99.7376C65.8363 99.9621 65.3674 100.434 64.3704 104.7C63.3998 108.794 63.6639 109.49 63.8488 109.688C64.0039 109.853 64.2416 109.939 65.209 109.939H66.9653C67.7775 109.939 68.0647 109.886 68.276 109.662C68.4609 109.467 68.7745 109.13 69.4546 106.651H74.7238C73.7829 110.527 72.9938 112.059 72.2609 112.838C71.0294 114.148 69.7716 114.456 67.8567 114.456H63.063C60.7289 114.456 59.788 113.983 59.2631 113.422C58.7645 112.891 58.3915 112.118 58.2033 111.015L46.8826 131.385C49.0583 135.228 51.4881 138.81 54.0798 142.138L68.8274 115.604C70.4385 115.489 71.8251 115.033 73.1226 113.653C73.8258 112.91 74.7733 111.474 75.8793 106.935L76.2358 105.469H74.463L75.3576 103.858H76.5627L76.7278 102.874C76.8532 102.151 76.939 101.504 77.0051 100.893L99.9601 59.5886C99.379 59.5886 94.3377 59.6117 86.6387 59.856V59.8494Z" fill="#92A1AB"/>
<path d="M33.6471 58.1623L36.658 57.7332H36.6679C49.3158 56.1386 62.0297 55.1844 72.7198 54.6166C88.6196 53.7681 100.023 53.7516 100.026 53.7516C100.026 53.7516 111.436 53.7681 127.332 54.6166C138.013 55.1844 150.717 56.1386 163.358 57.7299V92.7781C163.279 151.881 100.043 176.949 100.01 176.962C99.9766 176.949 36.7405 151.877 36.658 92.7781V63.7385L33.6438 66.7527V92.7781C33.6768 117.846 44.9975 140.854 66.381 159.309C82.6704 173.367 98.6989 179.719 98.8574 179.778L100.006 180.194L101.043 179.762C101.71 179.494 117.682 173.093 133.691 159.263C155.042 140.814 166.342 117.826 166.375 92.7748L166.402 55.0689H166.375L163.764 54.7354C163.632 54.7189 163.493 54.7024 163.361 54.6859C152.486 53.3257 140.426 52.2891 127.498 51.5991C111.654 50.7539 100.142 50.7308 100.029 50.7308C99.9172 50.7308 88.405 50.7539 72.5613 51.5991C59.6196 52.2891 47.5462 53.329 36.6613 54.6892V25.9765C68.1011 22.0147 99.9667 22.0147 100.01 22.0147C100.053 22.0147 131.918 22.0147 163.358 25.9765V46.0163L166.375 49.0305V23.3188L163.734 22.9853C132.47 19.0467 100.33 19.0005 100.01 19.0005C99.6894 19.0005 67.5497 19.0467 36.2849 22.9853L33.6471 23.3188" fill="#C4CED4"/>
<mask id="mask0_9898_54195" style="mask-type:luminance" maskUnits="userSpaceOnUse" x="36" y="54" width="128" height="124">
<path d="M163.351 92.8507C163.272 151.953 100.033 177.021 99.9997 177.035C99.9667 177.021 36.7273 151.95 36.6481 92.8507V58.3802C68.0878 54.4185 99.9568 54.4185 99.9997 54.4185C100.043 54.4185 131.908 54.4185 163.348 58.3802V92.8507H163.351Z" fill="white"/>
</mask>
<g mask="url(#mask0_9898_54195)">
<path d="M146.702 58.6575L138.092 73.4216L125.702 54.7783L123.635 80.0906L96.6949 77.0565L115.817 95.6899L97.1043 116.159L123.179 111.831L129.485 138.061L141.281 112.696L167.96 124.261L153.213 100.398L177.828 85.6007L157.379 83.7189L180.889 64.0323L146.702 58.6575Z" fill="white"/>
<path d="M151.575 85.5313L175.474 65.5179C175.474 65.5179 169.162 64.4911 162.575 63.4413C159.39 62.9329 156.144 62.4211 153.513 62.0151C150.337 61.5264 148.059 61.1963 147.887 61.2194L138.224 77.8356L127.484 61.675L125.771 82.6756L103.209 80.1334L119.069 95.5909L103.39 112.742L124.945 109.163L130.195 130.996L140.126 109.642L162.06 119.15L149.984 99.6054L170.509 87.2679L151.575 85.528V85.5313Z" fill="black"/>
<path d="M151.575 85.5313L175.474 65.5179C175.474 65.5179 169.162 64.4911 162.575 63.4413L138.508 89.5426L153.803 91.2362L142.684 97.9217L149.231 108.509L137.336 103.359L131.958 114.927L129.118 103.102L117.438 105.036L125.939 95.746L117.342 87.3669L129.449 88.5654L130.565 78.6445L136.715 88.1659L153.513 62.0151C150.337 61.5264 148.059 61.1963 147.887 61.2194L138.224 77.8356L127.484 61.675L125.771 82.6756L103.209 80.1334L119.069 95.5909L103.39 112.742L124.945 109.163L130.195 130.996L140.126 109.642L162.06 119.15L149.984 99.6054L170.509 87.2679L151.575 85.528V85.5313Z" fill="#130C0E"/>
<path d="M133.008 91.847C131.017 91.5366 129.155 92.91 128.841 94.9239C128.528 96.9378 129.884 98.813 131.875 99.1234C133.866 99.4337 135.731 98.0603 136.045 96.0464C136.359 94.0325 134.998 92.1573 133.008 91.847Z" fill="#061922"/>
<path d="M130.565 78.6477L129.449 88.5686L117.342 87.3702L125.939 95.7493L117.438 105.04L129.119 103.105L131.958 114.931L137.336 103.362L149.231 108.513L142.684 97.9249L153.803 91.2395L138.508 89.5458L162.575 63.4445C159.39 62.9361 156.144 62.4244 153.513 62.0183L136.715 88.1691L130.565 78.6477ZM131.872 99.1234C129.881 98.813 128.524 96.9378 128.838 94.9239C129.152 92.91 131.014 91.5366 133.004 91.847C134.995 92.1573 136.355 94.0325 136.042 96.0464C135.728 98.0603 133.859 99.4337 131.872 99.1234Z" fill="#C4CED4"/>
<path d="M163.351 63.5702V57.7332L159.888 57.3073C149.528 56.0594 138.264 55.1845 125.916 54.5539C110.967 53.7913 100.102 53.7715 99.9964 53.7715C99.8907 53.7715 89.0256 53.7913 74.0767 54.5539C61.7259 55.1812 50.2137 56.132 39.8538 57.38L37.3645 57.6804V63.5537L40.2103 63.1674C52.1451 61.7313 64.1426 60.8729 74.2285 60.3579C89.2303 59.5953 99.9898 59.5787 99.9964 59.5787C99.9964 59.5787 110.762 59.5919 125.764 60.3579C135.85 60.8729 148.577 61.7808 160.509 63.2169L163.351 63.5669V63.5702Z" fill="#130C0E"/>
</g>
</svg>
