<svg width="200" height="200" viewBox="0 0 200 200" fill="none" xmlns="http://www.w3.org/2000/svg">
<path d="M100.025 192C83.2224 192 66.9914 185.931 54.3287 174.91C41.7937 164.001 33.5584 148.98 31.1434 132.612L12.9351 8H187.064L168.926 132.564C166.508 148.958 158.27 163.994 145.731 174.903C133.062 185.927 116.831 191.997 100.025 191.997V192Z" fill="white"/>
<path d="M100.025 188.33C84.1072 188.33 68.7356 182.58 56.7372 172.14C44.8635 161.806 37.0626 147.578 34.7754 132.076L17.1804 11.6705H182.816L165.288 132.034C162.997 147.559 155.193 161.797 143.316 172.134C131.315 182.576 115.94 188.326 100.022 188.326L100.025 188.33Z" fill="#9EA2A2"/>
<path d="M100.025 182.989C85.3977 182.989 71.2687 177.705 60.2415 168.112C49.3292 158.615 42.1577 145.54 40.0558 131.296L23.3584 17.0116H176.644L160.004 131.267C157.899 145.53 150.73 158.609 139.812 168.106C128.785 177.702 114.652 182.989 100.022 182.989H100.025Z" fill="#363B37"/>
<path d="M90.3556 133.944V133.676H85.7205V133.944C85.7205 140.387 82.4654 146.233 77.0061 149.645C74.0224 147.124 71.4413 144.112 69.4065 140.707H64.1133C70.9079 154.04 84.8452 162.761 99.955 162.761C115.065 162.761 128.98 154.053 135.774 140.707H130.481C128.459 144.093 125.9 147.089 122.945 149.6C117.524 146.185 114.295 140.362 114.295 133.944V133.65H109.66V133.944C109.66 141.371 113.122 148.163 119.01 152.517C114.062 155.679 108.34 157.628 102.328 158.037V127.766H97.6933V158.043C91.6749 157.65 85.9313 155.708 80.964 152.552C86.8801 148.198 90.362 141.39 90.362 133.944H90.3556Z" fill="#4891CE"/>
<path d="M100.035 171.475C79.8396 171.475 61.9315 159.084 54.6162 140.707H49.6584C57.2133 161.768 77.3032 176.111 100.035 176.111C122.767 176.111 142.837 161.761 150.395 140.707H145.434C138.116 159.075 120.201 171.475 100.038 171.475H100.035Z" fill="#E3173E"/>
<path d="M62.1935 90.1291L62.8516 88.4137L69.8762 70.0648L67.7072 55.4247L73.8149 59.8777L75.5367 55.3959L46.429 34.1784L55.351 95.023L49.0676 111.436L36.8552 28.8085H85.759L87.5415 24.1734H31.4854L47.0806 129.612L62.1999 90.1323L62.1935 90.1291ZM52.6262 44.4262L62.4587 51.5945L65.1165 69.5409L58.7467 86.1744L52.623 44.4262H52.6262Z" fill="#E3173E"/>
<path d="M112.448 24.1735L114.231 28.8086H163.154L150.906 111.433L144.7 95.2115L153.65 34.1817L124.466 55.4375L126.188 59.9193L132.312 55.4599L130.12 70.0712L136.781 87.4778L137.8 90.1292H137.796L152.9 129.612L168.53 24.1735H112.452H112.448ZM134.883 69.5505L137.57 51.6265L147.463 44.423L141.313 86.3597L134.883 69.5537V69.5505Z" fill="#E3173E"/>
<path d="M68.6941 39.2897L78.8876 46.6945L84.1456 50.515L86.4233 52.1697L55.2998 133.753L77.7536 133.708L82.082 121.109H117.905L122.255 133.618L144.709 133.574L113.349 52.339L115.847 50.5246L121.105 46.704L131.312 39.2865H108.308L102.52 24.2918L99.9997 16.5357L99.7824 17.2033L99.7665 17.165L91.3267 39.2865H68.6845L68.6941 39.2897ZM99.8751 69.292L111.471 102.623H88.4294L99.8751 69.292Z" fill="white"/>
</svg>
