<svg width="200" height="200" viewBox="0 0 200 200" fill="none" xmlns="http://www.w3.org/2000/svg">
<path d="M188.41 61.8404L190.83 57.6936L186.38 59.6403C184.923 60.277 183.156 60.8237 181.423 61.2704C190.367 54.8703 196 40.1233 196 40.1233L192.47 42.28L191.373 42.9267C191.203 43.0267 174.293 53.0736 151.676 60.977C146.096 62.9271 141.129 64.3237 136.746 65.5538C123.025 69.4072 114.745 71.7339 115.339 84.2774C115.559 88.9608 114.689 92.4542 112.815 94.3776C112.225 94.9843 111.585 95.3876 110.965 95.6576C110.735 95.361 110.615 94.7909 110.615 93.5009C110.672 91.8776 112.809 86.5408 112.809 86.5408C115.189 80.5874 114.099 76.294 114.099 76.294C114.099 76.294 113.195 74.9073 111.855 73.5606C115.615 68.5005 113.659 62.6171 113.569 62.347L113.159 61.1537L111.882 61.297C108.158 61.717 104.922 62.8804 102.692 64.6038C102.135 63.9971 101.678 63.6671 101.605 63.6137L99.465 62.107L99.1016 64.6438C97.935 64.2637 96.6416 64.1737 96.6416 64.1737C94.6249 62.8837 91.8415 61.717 88.1181 61.297L86.8414 61.1537L86.4314 62.347C86.3381 62.6171 84.3814 68.5005 88.1415 73.5606C86.8014 74.9073 85.8981 76.294 85.8981 76.294C85.8981 76.294 84.8081 80.5907 87.1881 86.5408C87.1881 86.5408 89.3248 91.8776 89.3815 93.5009C89.3815 94.7909 89.2615 95.361 89.0315 95.6576C88.4115 95.3876 87.7681 94.9843 87.1814 94.3776C85.3114 92.4542 84.4381 88.9608 84.6581 84.2774C85.2514 71.7339 76.9679 69.4072 63.2477 65.5538C58.8676 64.3237 53.9009 62.9271 48.3174 60.977C25.707 53.0702 8.79675 43.0234 8.62675 42.9234L7.53006 42.2767L4 40.12C4 40.12 9.63343 54.8669 18.5769 61.267C16.8436 60.8204 15.0769 60.2737 13.6202 59.637L9.17009 57.6903L11.5901 61.837C11.7835 62.1704 15.5602 68.5472 21.8903 72.9139C21.3103 72.9272 20.7103 72.9339 20.1103 72.9339C17.9602 72.9339 16.1935 72.8339 14.8502 72.6372L10.2801 71.9705L13.4668 75.2573C13.7635 75.5639 19.4403 81.3707 25.537 84.3108C23.827 84.8108 21.8003 85.2974 19.8469 85.5208L16.5269 85.9008L18.9203 88.1908C19.1569 88.4175 24.0603 93.0509 32.6672 96.7076C28.5971 97.7443 26.0204 98.3043 26.0204 98.3043C27.9237 100.584 30.4371 103.744 33.8405 107.624H33.8005C54.2875 130.832 69.3745 140.112 85.0147 150.699C89.4048 153.669 99.9283 159.879 99.9283 159.879C99.9283 159.879 110.599 153.669 114.989 150.699C130.629 140.112 145.716 130.832 166.203 107.624H166.163C169.563 103.748 172.076 100.584 173.983 98.3043C173.983 98.3043 171.406 97.7443 167.336 96.7076C175.943 93.0509 180.846 88.4175 181.083 88.1908L183.476 85.9008L180.156 85.5208C178.203 85.2974 176.176 84.8108 174.466 84.3108C180.563 81.3707 186.24 75.5639 186.536 75.2573L189.72 71.9705L185.15 72.6372C183.81 72.8339 182.04 72.9339 179.89 72.9339C179.286 72.9339 178.69 72.9239 178.11 72.9139C184.44 68.5472 188.217 62.167 188.41 61.837V61.8404Z" fill="#00A8E1"/>
<path d="M187.03 61.0637C182.193 63.177 174.326 64.2871 174.326 64.2871C185.026 58.4703 190.716 47.5934 192.246 44.3034C192.22 44.2734 192.203 44.2567 192.203 44.2567C192.203 44.2567 175.266 54.3869 152.212 62.447C129.159 70.5038 116.225 69.2405 116.929 84.2041C117.375 93.7109 113.552 96.5776 110.702 97.4076C109.588 96.7676 109.025 96.3543 109.025 93.4409C109.085 91.7609 110.212 88.7575 111.238 86.2008C111.265 86.1374 111.285 86.0741 111.308 86.0108C111.315 85.9941 111.322 85.9808 111.328 85.9641C113.548 80.414 112.608 76.8506 112.608 76.8506C112.502 76.6473 112.365 76.4506 112.215 76.2573C111.055 74.6606 109.565 73.8006 109.565 73.8006C114.228 69.1238 112.065 62.837 112.065 62.837C112.055 62.837 112.048 62.837 112.038 62.8404C107.318 63.367 104.268 65.1771 102.412 66.8171C101.608 65.5337 100.675 64.8704 100.675 64.8704C100.675 64.8704 100.525 65.9771 100.005 66.6471C99.4815 65.9804 99.3349 64.8704 99.3349 64.8704C99.3349 64.8704 98.4015 65.5337 97.5982 66.8171C95.7381 65.1771 92.6881 63.3704 87.968 62.837C87.968 62.837 87.9513 62.837 87.9413 62.837C87.9413 62.837 85.778 69.1238 90.4414 73.8006C90.4414 73.8006 88.948 74.6606 87.7913 76.2573C87.6413 76.4506 87.5047 76.6473 87.398 76.8506C87.398 76.8506 86.4546 80.414 88.6747 85.9641C88.6813 85.9808 88.688 85.9941 88.6947 86.0108C88.718 86.0741 88.7413 86.1374 88.768 86.2008C89.7914 88.7542 90.9214 91.7609 90.978 93.4409C90.978 96.7243 90.1147 96.811 89.3013 97.4076C86.4513 96.5776 82.6279 93.7109 83.0746 84.2041C83.7812 69.2405 70.8444 70.5038 47.7906 62.447C24.7369 54.3869 7.79993 44.2567 7.79993 44.2567C7.79993 44.2567 7.78326 44.2734 7.75659 44.3034C9.28662 47.5934 14.9801 58.4703 25.6769 64.2871C25.6769 64.2871 17.8101 63.177 12.9733 61.0637C12.9733 61.0637 18.6168 70.7338 27.5569 74.1872C27.5569 74.1872 19.4301 74.8872 14.62 74.1872C14.62 74.1872 23.3235 83.1674 30.3803 84.3174C30.3803 84.3174 25.0302 86.5108 20.0301 87.0808C20.0301 87.0808 26.4936 93.2642 37.6438 96.911C33.2804 98.2877 28.8536 99.2743 28.8536 99.2743C28.8536 99.2743 47.0439 121.951 70.371 138.338C80.7812 145.652 88.7847 151.525 99.9982 158.109C111.215 151.525 119.219 145.652 129.625 138.338C152.952 121.951 171.146 99.2743 171.146 99.2743C171.146 99.2743 166.723 98.2877 162.356 96.911C173.506 93.2642 179.97 87.0808 179.97 87.0808C174.97 86.5108 169.619 84.3174 169.619 84.3174C176.676 83.1674 185.38 74.1872 185.38 74.1872C180.57 74.8872 172.443 74.1872 172.443 74.1872C181.383 70.7338 187.026 61.0637 187.026 61.0637H187.03Z" fill="#002B5C"/>
<path d="M77.1514 138.662C79.7681 140.622 82.4948 142.498 85.1348 144.232C85.8382 142.815 86.7449 141.515 87.8216 140.365L77.1547 138.658L77.1514 138.662Z" fill="#00A8E1"/>
<path d="M122.865 138.662L112.062 140.395C113.145 141.559 114.058 142.875 114.762 144.312C117.442 142.559 120.209 140.652 122.869 138.662H122.865Z" fill="#00A8E1"/>
<path d="M107.608 148.808C108.612 148.148 109.635 147.461 110.665 146.751C109.378 145.481 107.635 144.325 105.268 143.621C105.475 145.541 106.445 147.221 107.612 148.808H107.608Z" fill="white"/>
<path d="M100.905 142.932V152.999C102.465 152.072 104.238 150.982 106.115 149.779C104.732 147.882 103.538 145.748 103.445 143.195C102.655 143.058 101.812 142.965 100.905 142.932Z" fill="#C4D600"/>
<path d="M96.5751 143.195C96.4784 145.752 95.2884 147.882 93.905 149.779C95.7817 150.985 97.5518 152.075 99.1151 153.002V142.932C98.2084 142.968 97.3618 143.055 96.5751 143.192V143.195Z" fill="white"/>
<path d="M89.3416 146.739C90.3749 147.452 91.4016 148.142 92.4116 148.805C93.575 147.219 94.5483 145.539 94.755 143.615C92.3783 144.315 90.6316 145.469 89.3449 146.739H89.3416Z" fill="#C4D600"/>
<path d="M100.905 141.178C101.839 141.215 102.719 141.298 103.542 141.431C103.752 140.128 104.279 139.108 105.109 138.391C105.195 138.318 105.282 138.251 105.369 138.184C103.975 137.624 102.475 137.268 100.902 137.171V141.178H100.905Z" fill="white"/>
<path d="M94.7281 141.812C94.5914 140.882 94.2648 140.182 93.7414 139.725C93.3948 139.422 93.0014 139.265 92.6547 139.182C90.2714 140.608 88.358 142.712 87.178 145.219C87.4246 145.395 87.668 145.572 87.9147 145.745C89.4847 144.115 91.6747 142.628 94.7248 141.815L94.7281 141.812Z" fill="white"/>
<path d="M107.358 139.179C107.012 139.262 106.622 139.419 106.275 139.725C105.755 140.182 105.425 140.882 105.288 141.812C108.338 142.629 110.532 144.115 112.102 145.745C112.345 145.572 112.592 145.395 112.838 145.222C111.662 142.715 109.745 140.612 107.362 139.182L107.358 139.179Z" fill="#C4D600"/>
<path d="M94.9082 138.391C95.7382 139.108 96.2616 140.128 96.4782 141.431C97.3016 141.298 98.1816 141.215 99.1183 141.178V137.171C97.5449 137.268 96.0416 137.621 94.6482 138.184C94.7349 138.248 94.8215 138.318 94.9082 138.391Z" fill="#C4D600"/>
<path d="M79.9211 89.1345C79.2744 84.6244 80.4278 81.281 79.0211 78.8309C76.5644 74.5475 73.2176 73.5409 63.0375 70.5708C52.8573 67.6007 40.7437 64.6174 21.8401 55.5339C21.8401 55.5339 30.9969 63.2207 43.6738 67.2774C56.3474 71.3341 58.3307 72.0608 66.2675 74.2009C74.201 76.3409 77.1711 78.9943 77.1277 82.651C77.0944 85.5744 76.1277 95.6912 83.4645 100.328C81.7378 97.3113 80.3344 93.3745 79.9244 89.1345H79.9211Z" fill="#00A8E1"/>
<path d="M136.979 70.5708C126.799 73.5409 123.449 74.5475 120.995 78.8309C119.682 81.121 120.602 84.1944 120.202 88.2744L120.215 88.2578C119.932 92.8279 118.429 97.0879 116.585 100.311C123.889 95.6646 122.925 85.5711 122.892 82.651C122.849 78.9976 125.819 76.3409 133.752 74.2009C141.686 72.0608 143.672 71.3375 156.346 67.2774C169.019 63.2207 178.18 55.5339 178.18 55.5339C159.276 64.6207 147.162 67.6007 136.982 70.5708H136.979Z" fill="#00A8E1"/>
<path d="M71.2078 90.9808L71.1778 90.9508C71.2078 90.9341 71.2245 90.9208 71.2578 90.9208C71.2412 90.9374 71.2245 90.9508 71.2112 90.9841L71.2078 90.9808ZM86.3748 108.108C86.3748 108.108 86.0714 107.904 85.5614 107.511C84.2514 106.541 81.5713 104.361 79.1913 101.461C77.4046 99.0309 74.4979 94.3142 74.4646 89.2374C74.4179 81.874 75.5179 79.6639 65.5077 76.8105C55.4976 73.9438 39.4973 69.4437 29.9504 66.827C29.9504 66.827 34.9472 71.1038 45.8207 74.1305C56.6942 77.1539 67.2644 80.7439 67.2644 80.7439C67.2644 80.7439 38.6206 78.5972 30.2538 77.1405C30.2538 77.1405 34.4705 80.3206 48.2008 82.0906C61.9177 83.8607 70.0278 84.174 70.0278 84.174C70.0278 84.174 43.2373 87.7307 33.2105 87.6207C33.2105 87.6207 37.8072 89.8474 51.1408 89.1707C63.881 88.5274 69.8045 87.4474 70.3178 87.354C69.7578 87.7941 60.3543 94.7675 38.7506 99.7809C38.7506 99.7809 48.0108 100.171 56.0409 97.6809C62.3943 95.7075 70.0278 91.5708 71.1278 90.9741C70.7912 91.5375 65.9377 99.4043 47.1474 109.668C48.1208 109.418 63.9277 105.234 72.1512 95.0308C71.0512 98.3842 67.8878 105.701 58.9476 116.501C58.9476 116.501 69.1178 109.794 73.6512 100.048C73.9879 103.431 74.5779 111.094 73.6979 116.391C73.6979 116.391 77.2913 110.734 76.8279 102.788C78.758 104.638 81.458 106.438 85.2747 107.741C85.6247 107.868 85.9914 107.991 86.3748 108.101V108.108Z" fill="#C4D600"/>
<path d="M128.782 90.9806C128.766 90.9506 128.736 90.934 128.736 90.9173C128.769 90.9173 128.782 90.934 128.816 90.9473L128.782 90.9773V90.9806ZM169.72 77.1437C161.369 78.6004 132.726 80.7471 132.726 80.7471C132.726 80.7471 143.296 77.157 154.169 74.1337C165.043 71.1103 170.04 66.8302 170.04 66.8302C160.493 69.4469 144.493 73.9437 134.482 76.8137C124.472 79.6671 125.556 81.8738 125.509 89.2406C125.492 94.3173 122.585 99.0341 120.799 101.464C118.292 104.521 115.435 106.778 114.219 107.671C113.899 107.908 113.692 108.048 113.629 108.094C113.899 108.018 114.155 107.938 114.412 107.844C118.389 106.544 121.182 104.694 123.162 102.797C122.682 110.741 126.276 116.401 126.276 116.401C125.416 111.104 126.006 103.441 126.339 100.057C130.872 109.804 141.029 116.511 141.029 116.511C132.106 105.714 128.926 98.3974 127.842 95.0407C136.049 105.244 151.873 109.428 152.846 109.678C134.052 99.4141 129.199 91.5473 128.866 90.984C129.969 91.5806 137.582 95.7174 143.953 97.6907C151.983 100.181 161.229 99.7908 161.229 99.7908C139.626 94.7774 130.239 87.8039 129.679 87.3639C130.189 87.4572 136.112 88.5406 148.856 89.1806C162.19 89.8539 166.786 87.6306 166.786 87.6306C156.759 87.7406 129.969 84.1838 129.969 84.1838C129.969 84.1838 138.062 83.8705 151.796 82.1005C165.526 80.3304 169.726 77.1504 169.726 77.1504L169.72 77.1437Z" fill="#C4D600"/>
<path d="M115.149 126.204C113.912 124.474 112.679 124.458 112.052 120.158L107.572 124.938C108.225 117.891 107.355 109.927 106.709 105.231L105.539 108.607C105.539 108.607 104.085 110.221 99.9651 109.877L99.8418 109.861L99.7185 109.877C95.5984 110.221 94.145 108.607 94.145 108.607L92.975 105.231C92.3283 109.924 91.4583 117.891 92.1117 124.938L87.6316 120.158C87.0049 124.461 85.7716 124.478 84.5349 126.204C83.5248 127.618 82.5982 129.444 81.5981 132.681C82.4115 134.831 83.7782 137.135 83.8315 137.221L89.2916 138.311C93.135 135.801 96.7317 134.975 99.8418 134.965C102.952 134.971 106.549 135.798 110.392 138.311L115.852 137.221C115.905 137.131 117.272 134.831 118.085 132.681C117.085 129.448 116.159 127.618 115.149 126.204Z" fill="white"/>
<path d="M117.678 136.858L117.675 136.861L117.678 136.858Z" fill="white"/>
<path d="M123.102 135.735C122.982 134.078 121.646 130.618 119.222 127.038C119.625 129.038 118.212 132.488 118.202 132.392C117.752 127.888 117.002 125.722 116.205 124.312V124.295C115.902 123.778 115.479 123.128 115.199 122.898C114.089 121.768 113.042 118.965 113.042 118.965L112.052 120.155C112.679 124.458 113.912 124.475 115.149 126.202C116.159 127.615 117.085 129.442 118.085 132.678C117.272 134.828 115.905 137.132 115.852 137.218L115.842 137.235L117.672 136.855L123.096 135.728L123.102 135.735Z" fill="#C4D600"/>
<path d="M84.5382 126.205C85.7749 124.475 87.0082 124.458 87.6349 120.158L86.6449 118.968C86.6449 118.968 85.6015 121.771 84.4882 122.901C84.2082 123.128 83.7848 123.778 83.4815 124.298V124.315C82.6848 125.725 81.9348 127.888 81.4848 132.395C81.4748 132.495 80.0581 129.042 80.4648 127.041C78.0414 130.625 76.7047 134.082 76.5847 135.738L82.0081 136.862L83.8382 137.242C83.8382 137.242 83.8282 137.228 83.8282 137.225C83.7748 137.135 82.4082 134.835 81.5948 132.685C82.5982 129.452 83.5215 127.622 84.5315 126.208L84.5382 126.205Z" fill="#C4D600"/>
<path d="M92.9784 105.231L91.595 101.241C89.855 107.178 89.605 110.848 89.605 114.118C89.605 119.338 91.035 123.191 92.115 124.935C91.4617 117.888 92.3317 109.921 92.9784 105.228V105.231Z" fill="#C4D600"/>
<path d="M107.572 124.938C108.652 123.195 110.079 119.345 110.079 114.121C110.079 110.851 109.829 107.181 108.092 101.244L106.708 105.235C107.355 109.928 108.225 117.895 107.572 124.942V124.938Z" fill="#C4D600"/>
<path d="M94.3716 73.4672C93.5749 74.2239 92.6149 75.2539 92.2516 76.1239C93.8416 73.9939 95.8416 73.1572 95.8416 73.1572C95.3883 70.0038 92.0349 67.2137 90.2482 65.9337C89.9549 70.1671 92.6782 72.4572 94.3716 73.4638V73.4672Z" fill="#C4D600"/>
<path d="M94.7082 97.8574C94.7082 97.8574 95.3149 97.184 95.8749 96.0073C97.8216 92.7306 96.7683 88.8605 96.3849 87.2005C96.1783 86.2438 96.0983 85.6938 96.0983 85.6938C96.0983 85.6938 95.6683 85.0471 94.7449 84.5538C93.8216 84.0571 93.5116 83.8838 93.1616 83.1538C92.8082 82.4204 93.0316 81.5938 93.0316 81.5938C92.7049 81.8238 92.1715 82.5938 92.1715 82.5938C91.4449 81.6004 92.0715 80.9637 92.0715 80.9637C91.4449 79.6804 91.4315 79.0537 91.4315 79.0537C90.7915 78.5204 90.1115 77.8437 90.1115 77.8437C90.1115 77.8437 90.0948 77.9537 90.0948 78.1737C89.9982 79.3804 89.9182 83.7671 92.7782 85.4905C92.7782 85.4905 92.5715 87.3705 93.5449 90.1772C93.5916 90.3506 93.9282 91.2439 93.9282 91.2439C94.2116 90.6072 94.4416 89.1672 94.4716 88.7539C94.9816 89.9772 95.8283 92.984 94.7116 97.8574H94.7082Z" fill="#C4D600"/>
<path d="M107.735 76.1238C107.368 75.2538 106.408 74.2238 105.612 73.4671C107.305 72.4604 110.028 70.1704 109.735 65.937C107.952 67.217 104.595 70.007 104.145 73.1604C104.145 73.1604 106.145 73.9938 107.735 76.1271V76.1238Z" fill="#C4D600"/>
<path d="M99.9952 105.914C99.0952 105.914 97.9685 105.711 97.2318 105.474L96.8318 105.334L97.1185 106.368L97.1651 106.414C97.1985 106.444 98.0451 107.181 99.9918 107.181C101.939 107.181 102.785 106.444 102.819 106.414L102.865 106.368L103.152 105.334L102.769 105.474C102.019 105.711 100.892 105.914 99.9918 105.914H99.9952Z" fill="#C4D600"/>
<path d="M109.885 78.1775C109.885 77.9575 109.868 77.8475 109.868 77.8475C109.868 77.8475 109.195 78.5242 108.555 79.0575C108.555 79.0575 108.542 79.6842 107.915 80.9675C107.915 80.9675 108.545 81.6042 107.818 82.5976C107.818 82.5976 107.285 81.8242 106.958 81.5975C106.958 81.5975 107.182 82.4242 106.828 83.1576C106.475 83.8909 106.168 84.0609 105.245 84.5576C104.322 85.0543 103.892 85.6976 103.892 85.6976C103.892 85.6976 103.805 86.2476 103.598 87.2043C103.215 88.8643 102.162 92.7344 104.108 96.0111C104.668 97.1878 105.275 97.8745 105.275 97.8745V97.8578C104.158 92.9844 105.005 89.9743 105.515 88.7543C105.545 89.1677 105.775 90.611 106.058 91.2444C106.058 91.2444 106.395 90.351 106.442 90.1777C107.415 87.3743 107.208 85.4909 107.208 85.4909C110.065 83.7676 109.985 79.3808 109.892 78.1741L109.885 78.1775Z" fill="#C4D600"/>
<path d="M104.442 100.728C104.442 100.728 104.422 100.728 104.418 100.728C104.408 100.744 104.412 100.761 104.402 100.774C103.822 101.588 103.175 101.538 103.175 101.538C103.175 101.538 103.692 100.928 102.852 100.368C102.852 100.368 102.142 101.074 101.112 101.481C101.112 101.481 100.415 101.758 99.9917 101.758C99.5683 101.758 98.8516 101.481 98.8516 101.481C97.8216 101.074 97.1149 100.368 97.1116 100.368C96.2783 100.928 96.7916 101.534 96.7916 101.534C96.7916 101.534 96.1449 101.584 95.5649 100.771C95.5549 100.754 95.5549 100.738 95.5449 100.721H95.5416C94.6649 100.008 94.0716 98.8544 94.0716 98.8544C93.6949 99.4477 96.0049 103.541 96.0049 103.541C97.0116 104.194 98.645 104.541 99.9883 104.544C99.9883 104.544 99.9917 104.544 99.995 104.544C99.9983 104.544 99.9983 104.544 100.002 104.544C101.342 104.544 102.978 104.194 103.985 103.541C103.985 103.541 106.292 99.451 105.918 98.8544C105.918 98.8544 105.325 100.008 104.448 100.721L104.442 100.728Z" fill="#C4D600"/>
<path d="M107.739 76.1241C107.739 76.1241 107.732 76.1174 107.729 76.1107C107.729 76.1141 107.732 76.1174 107.735 76.1207C106.145 73.9907 104.145 73.154 104.145 73.154C104.598 70.0039 107.949 67.2139 109.732 65.9339C109.712 65.9372 105.769 66.9272 104.002 69.0506L103.475 69.6939C103.732 71.5573 103.348 73.9573 101.432 76.8541C99.9618 79.0808 101.032 80.7708 101.032 80.7708C101.032 80.7708 99.3384 80.6775 98.2217 78.4508C96.8017 75.614 99.1651 73.3273 97.185 70.5206L96.515 69.6739C95.445 68.4373 94.2483 67.5906 93.2116 67.0272C91.6783 66.2739 90.2582 65.9305 90.2582 65.9305C90.2582 65.9305 90.2582 65.9339 90.2616 65.9372C92.0483 67.2206 95.3917 70.0039 95.8417 73.1507C95.8417 73.1507 93.885 73.9707 92.3049 76.0507C92.2883 76.0741 92.2716 76.0941 92.2516 76.1174C92.2516 76.1174 90.7816 76.9641 90.1116 77.8407C90.1116 77.8407 90.7916 78.5208 91.4316 79.0508C93.3016 80.6708 94.3083 80.9241 95.4283 82.2375C97.055 84.1409 96.0984 85.6875 96.0984 85.6875C96.0984 85.6875 96.1783 86.2376 96.385 87.1942C96.7684 88.8543 97.8217 92.7243 95.875 96.0011C95.315 97.1777 94.7083 97.8511 94.7083 97.8511L94.0716 98.8544C94.0716 98.8544 94.665 100.008 95.5417 100.721H95.545C94.8917 99.6745 96.9817 98.4844 96.9817 98.4844C97.9784 99.1311 98.7251 101.124 98.8517 101.478C98.8517 101.478 99.5751 101.754 99.9917 101.754C100.408 101.754 101.112 101.478 101.112 101.478C101.138 101.404 101.902 99.1844 102.982 98.4844C102.982 98.4844 105.079 99.6778 104.418 100.724C104.422 100.724 104.442 100.724 104.442 100.724C105.319 100.011 105.912 98.8578 105.912 98.8578L105.275 97.8711C105.275 97.8711 104.668 97.1811 104.108 96.0077C102.162 92.731 103.215 88.8609 103.598 87.2009C103.805 86.2442 103.892 85.6942 103.892 85.6942C103.892 85.6942 102.935 84.1475 104.562 82.2442C105.685 80.9308 106.692 80.6741 108.559 79.0574C109.199 78.5241 109.872 77.8474 109.872 77.8474C109.202 76.9707 107.739 76.1241 107.739 76.1241Z" fill="white"/>
</svg>
