<svg width="200" height="200" viewBox="0 0 200 200" fill="none" xmlns="http://www.w3.org/2000/svg">
<path d="M14.2 8L100 30.9903L185.801 8L100 192L14.2 8Z" fill="black"/>
<path d="M100 37.0055L24.7312 16.8364L100 178.251L175.269 16.8364L100 37.0055ZM92.144 107.788L94.0894 82.3277H98.9544L98.7757 105.19H101.225L101.046 82.3277H105.911L107.856 107.788H92.1411H92.144ZM100.867 59.3404H104.156L105.637 78.7467H94.3576L95.8382 59.3404H99.1272L98.9961 76.0178H100.992L100.861 59.3404H100.867ZM91.7836 41.1525L57.8984 77.275L50.1972 60.7584L91.7836 41.1525ZM48.5885 57.3115L41.8496 42.8595L90.58 39.7969L48.5885 57.3115ZM92.6386 42.7672L69.0077 101.099L59.6442 81.0169L92.6386 42.7642V42.7672ZM94.1669 43.4941L83.9155 133.066L71.2243 105.848L94.1699 43.4971L94.1669 43.4941ZM105.836 43.4941L128.782 105.845L116.091 133.063L105.839 43.4911L105.836 43.4941ZM107.365 42.7672L140.359 81.0198L130.995 101.102L107.365 42.7702V42.7672ZM108.217 41.1525L149.803 60.7584L142.102 77.275L108.217 41.1525ZM109.423 39.7969L158.154 42.8595L151.415 57.3115L109.423 39.7969ZM113.159 38.1554L167.085 23.7064L159.876 39.1654L113.159 38.1554ZM99.2732 41.4861L99.1809 53.4982H100.825L100.733 41.4861L101.174 41.367L102.759 40.9439L103.93 56.2718H96.0825L97.2533 40.9439L98.8383 41.367L99.2792 41.4861H99.2732ZM86.8441 38.1554L40.1276 39.1654L32.918 23.7064L86.8441 38.1554ZM89.3287 144.676L91.8342 111.881H98.725L98.3854 155.386L100.003 158.854L101.621 155.386L101.281 111.881H108.172L110.677 144.676L100.003 167.565L89.3287 144.676Z" fill="#B896D4"/>
</svg>
