<svg width="200" height="200" viewBox="0 0 200 200" fill="none" xmlns="http://www.w3.org/2000/svg">
<path d="M166.171 109.065H162.248C164.774 103.835 167.228 98.3717 169.561 92.6385C169.561 92.6385 158.098 85.9086 136.718 81.582L140.165 70.2888L137.631 72.3155C138.128 69.8522 138.395 67.3089 138.395 64.7023C138.395 51.8792 132.045 39.9327 121.402 32.7428C119.482 31.4462 117.428 30.3162 115.292 29.3829L114.185 28.8496C97.6255 22.593 96.5655 10.4099 96.5655 10.4099C96.5655 10.4099 92.5522 17.9598 94.5288 24.6363C95.0422 26.3729 95.7888 28.0996 96.8121 29.7929C92.2022 27.5496 85.309 24.9863 77.4291 23.5997C60.1894 20.563 60.8628 4 60.8628 4C60.8628 4 45.023 24.8796 62.4061 42.056C53.6796 36.7161 48.9263 27.9362 48.9263 27.9362C48.9263 27.9362 45.983 43.7693 53.5662 53.1358C55.0095 54.9158 56.2428 56.8491 57.6362 58.669C60.0194 61.7757 62.1861 69.5322 62.1327 72.4388L59.3761 70.2855L62.7794 81.4387L62.8361 81.622C41.5864 85.9519 30.1933 92.6351 30.1933 92.6351C32.5266 98.3717 34.9799 103.835 37.5065 109.062H25.05V143.961H57.6028C60.1261 147.681 62.6327 151.167 65.096 154.447C65.616 155.137 66.1327 155.817 66.646 156.487C67.376 157.437 68.0993 158.371 68.8193 159.284C69.2593 159.844 69.6993 160.397 70.1359 160.941C70.9059 161.901 71.6692 162.837 72.4259 163.754C72.8292 164.244 73.2325 164.731 73.6325 165.207C74.2859 165.987 74.9325 166.747 75.5725 167.49C76.0725 168.074 76.5725 168.65 77.0625 169.21C77.5858 169.807 78.1025 170.39 78.6124 170.964C78.9258 171.314 79.2358 171.654 79.5424 171.997C80.3324 172.874 81.1124 173.724 81.8724 174.54C82.1391 174.827 82.4024 175.107 82.6657 175.387C83.4424 176.214 84.2024 177.01 84.9423 177.774C85.1823 178.02 85.4223 178.267 85.6557 178.507C86.389 179.257 87.099 179.97 87.7856 180.657C88.0056 180.874 88.229 181.097 88.4423 181.307C89.1089 181.964 89.7489 182.58 90.3656 183.174C90.5689 183.37 90.7789 183.574 90.9789 183.76C91.3556 184.117 91.7189 184.457 92.0722 184.79C92.3055 185.007 92.5289 185.214 92.7555 185.42C93.2522 185.88 93.7322 186.317 94.1855 186.727C94.3955 186.917 94.6022 187.103 94.8055 187.28C95.2155 187.643 95.6022 187.987 95.9655 188.303C96.1588 188.473 96.3521 188.64 96.5321 188.797C96.8388 189.06 97.1255 189.303 97.3921 189.53C97.5788 189.687 97.7688 189.847 97.9354 189.987C98.0921 190.117 98.2454 190.243 98.3821 190.357C98.5921 190.53 98.7888 190.69 98.9554 190.827C99.0721 190.92 99.1754 191.007 99.2721 191.08C99.3521 191.143 99.4221 191.2 99.4854 191.25C99.7154 191.43 99.8454 191.533 99.8454 191.533C99.8454 191.533 100.019 191.403 100.335 191.15C100.352 191.137 100.365 191.127 100.385 191.11C100.475 191.04 100.582 190.95 100.695 190.86C100.875 190.713 101.082 190.547 101.319 190.353C101.405 190.283 101.502 190.2 101.595 190.123C101.879 189.887 102.189 189.63 102.535 189.333C102.582 189.293 102.629 189.253 102.675 189.213C103.065 188.88 103.495 188.51 103.955 188.107C104.019 188.053 104.079 188 104.142 187.943C104.629 187.517 105.155 187.047 105.712 186.54C105.785 186.473 105.859 186.407 105.932 186.34C106.515 185.81 107.129 185.247 107.782 184.637C107.825 184.597 107.872 184.554 107.915 184.514C109.299 183.217 110.829 181.744 112.485 180.087C112.509 180.064 112.532 180.04 112.555 180.017C113.365 179.204 114.212 178.344 115.078 177.447C115.145 177.377 115.215 177.307 115.282 177.237C116.148 176.337 117.042 175.397 117.958 174.41C118.008 174.354 118.062 174.297 118.112 174.244C119.988 172.224 121.958 170.027 124.008 167.65C124.072 167.574 124.138 167.5 124.202 167.427C125.178 166.291 126.172 165.111 127.178 163.894C127.308 163.737 127.442 163.577 127.572 163.417C128.565 162.211 129.572 160.967 130.588 159.684C130.715 159.524 130.845 159.357 130.972 159.197C132.022 157.864 133.082 156.501 134.155 155.087C136.775 151.627 139.448 147.917 142.135 143.958H174.951V109.058H166.168L166.171 109.065Z" fill="black"/>
<path d="M115.645 72.4325C115.025 77.3457 111.829 82.269 106.239 86.9056L110.155 90.8188L119.062 79.739C119.659 77.1624 120.102 74.3591 120.265 71.3025C118.845 71.7291 117.302 72.1125 115.649 72.4291L115.645 72.4325Z" fill="#86CEBC"/>
<path d="M126.262 68.9092C125.152 69.4758 123.958 70.0058 122.675 70.4925C122.545 74.5524 121.955 78.1957 121.122 81.4656L123.188 83.5923L131.035 77.4657C128.195 75.1391 126.792 72.1525 126.262 68.9125V68.9092Z" fill="#86CEBC"/>
<path d="M65.8891 114.765V118.082H63.6092V134.715H65.8891V138.024H57.7159L45.8695 127.458L46.0028 138.024H35.7263V134.715H38.0063V118.082H35.7263V114.765H43.9362L55.716 124.855V114.765H65.8891Z" fill="white"/>
<path d="M164.221 114.765H161.868V114.751H154.031V122.971L144.285 124.951V114.751H136.451V114.765H134.058V118.081H136.451V130.371L154.031 126.658V134.714H136.451V138.024H161.868V138.018V134.714V118.081H164.221V114.765Z" fill="white"/>
<path d="M131.665 87.1989L127.648 92.6488L122.762 87.7323L119.462 84.339L119.428 84.3823L119.412 84.3657V84.4023L110.412 95.5988L99.7953 85.249L99.6953 107.149L107.619 97.2921L110.672 100.375L118.975 90.0422L117.885 104.182L125.982 95.4621L128.401 97.8888L131.665 87.1989Z" fill="white"/>
<path d="M89.1287 95.5988L80.0789 84.339L71.939 92.7122L67.8757 87.1989L71.139 97.8888L79.8522 89.1556L79.8655 89.1722L82.3955 105.362L86.3687 97.2654L88.8687 100.375L99.7752 89.5156L99.7952 85.249L89.1287 95.5988Z" fill="#86CEBC"/>
<path d="M93.7319 123.305C93.3152 123.281 92.9386 123.258 92.5886 123.231C85.5887 122.618 77.8855 119.201 77.8855 119.201C82.0888 123.075 86.5653 124.208 88.6253 124.538C88.2953 125.961 88.0853 127.815 89.0986 128.231C91.8253 129.361 98.3651 128.035 98.6618 125.765C99.0385 122.871 96.3085 123.445 93.7319 123.301V123.305Z" fill="#86CEBC"/>
<path d="M96.6387 132.984C95.6787 133.124 94.7754 133.191 93.9587 133.218C86.9422 132.548 79.209 129.008 79.209 129.008C83.5822 133.138 88.2922 134.234 90.1821 134.518C89.6821 136.134 89.2588 136.828 91.2721 137.018C96.822 137.544 100.089 134.261 100.002 133.218C99.9153 132.174 99.9353 132.498 96.6387 132.984Z" fill="#86CEBC"/>
<path d="M95.982 141.281C95.3654 141.401 94.7754 141.481 94.2154 141.541L94.2421 141.531C87.1522 140.931 79.209 137.288 79.209 137.288C83.6889 141.518 88.5222 142.565 90.3155 142.818C89.9255 144.348 89.5255 145.008 91.3688 145.098C96.3354 145.341 99.112 142.278 98.992 141.355C98.872 140.428 98.9053 140.718 95.9854 141.285L95.982 141.281Z" fill="#86CEBC"/>
<path d="M95.9988 148.684C95.4288 148.794 94.8855 148.867 94.3655 148.924C88.7856 148.404 82.6157 145.577 82.6157 145.577C85.6757 148.467 88.9523 149.484 90.7089 149.841C90.3289 151.511 89.7689 152.201 91.6289 152.291C96.3288 152.517 98.9554 149.624 98.8388 148.747C98.7254 147.871 98.7554 148.144 95.9922 148.681L95.9988 148.684Z" fill="#86CEBC"/>
<path d="M94.9053 154.261L95.3519 158.114C95.3519 158.114 96.4552 160.037 99.7885 160.044L99.9819 151.458C97.8086 153.614 95.6719 154.138 94.9053 154.261Z" fill="#86CEBC"/>
<path d="M99.7886 160.044L99.9819 151.457C99.9819 151.457 103.839 148.294 99.6653 145.334C99.6653 145.334 104.699 141.494 100.242 138.681C100.242 138.681 106.125 134.921 102.659 130.441C102.659 130.441 105.065 133.094 107.078 133.594L104.239 158.114C104.239 158.114 102.902 160.261 99.7886 160.041" fill="white"/>
<path d="M99.7452 163.121C96.9153 163.121 95.6286 162.454 94.472 160.607C94.092 161.061 93.8787 161.571 93.8787 162.111C93.8787 164.004 96.5053 165.537 99.7452 165.537C101.635 164.297 99.7452 163.121 99.7452 163.121Z" fill="#86CEBC"/>
<path d="M105.612 162.111C105.612 161.571 105.398 161.061 105.022 160.607C103.765 162.457 102.578 163.121 99.7485 163.121C99.7485 163.121 101.639 164.297 99.7485 165.537C99.8885 165.537 100.022 165.517 100.162 165.514C100.599 165.481 101.335 165.401 102.145 165.234C104.188 164.697 105.615 163.504 105.615 162.111H105.612Z" fill="white"/>
<path d="M115.548 166.967C121.078 160.807 127.368 153.147 133.851 143.961H129.588C124.535 150.977 119.628 157.041 115.151 162.171L115.548 166.964V166.967Z" fill="white"/>
<path d="M84.3221 161.831C79.9255 156.767 75.129 150.821 70.189 143.961H65.9258C72.319 153.014 78.5256 160.591 83.9988 166.717L84.3221 161.831Z" fill="white"/>
<path d="M159.204 95.1885C154.964 93.4552 146.571 90.4519 134.725 88.1187L133.701 91.4719C144.021 93.4819 151.691 96.0152 156.218 97.7518C154.454 101.675 152.628 105.412 150.778 109.065H154.674C156.538 105.332 158.374 101.512 160.144 97.5052L160.868 95.8652L159.208 95.1885H159.204Z" fill="white"/>
<path d="M65.8528 91.5051L64.8294 88.1552C53.093 90.4851 44.7665 93.4617 40.5499 95.185L38.8899 95.8617L39.6132 97.5017C41.3832 101.508 43.2198 105.328 45.0865 109.065H48.9864C47.1331 105.412 45.3031 101.672 43.5398 97.7483C48.0364 96.0217 55.6396 93.5117 65.8528 91.5051Z" fill="white"/>
<path d="M99.7454 112.968C86.7157 112.968 75.7758 109.145 72.5559 103.958C71.3993 103.705 69.2793 103.581 68.596 105.761C68.5326 106.078 68.4526 106.398 68.4526 106.721C68.4526 113.438 82.4624 118.881 99.7454 118.881C103.849 115.501 99.7521 112.971 99.7454 112.964V112.968Z" fill="#86CEBC"/>
<path d="M131.038 106.721C131.038 106.441 130.965 106.168 130.915 105.891C130.281 103.588 128.125 103.698 126.938 103.955C123.725 109.145 112.778 112.968 99.7454 112.968C99.752 112.971 103.849 115.505 99.7454 118.884C117.028 118.884 131.035 113.438 131.035 106.725L131.038 106.721Z" fill="white"/>
<path d="M174.954 105.515H167.807C169.531 101.779 171.227 97.9653 172.851 93.9754L174.007 91.1321L171.364 89.5788C170.657 89.1655 159.048 82.4889 137.768 78.1523L136.721 81.5823C158.101 85.9089 169.564 92.6388 169.564 92.6388C167.231 98.3753 164.778 103.839 162.251 109.065H174.954V143.965H142.138C139.448 147.924 136.778 151.631 134.158 155.094C133.088 156.508 132.028 157.874 130.975 159.204C130.848 159.368 130.718 159.531 130.591 159.691C129.575 160.974 128.568 162.218 127.575 163.424C127.441 163.584 127.311 163.744 127.181 163.901C126.175 165.118 125.182 166.297 124.205 167.434C124.138 167.511 124.075 167.584 124.012 167.657C121.965 170.034 119.992 172.231 118.115 174.251C118.065 174.307 118.012 174.364 117.962 174.417C117.045 175.404 116.152 176.344 115.285 177.244C115.218 177.314 115.148 177.384 115.082 177.454C114.288 178.277 113.522 179.054 112.775 179.804C112.222 171.711 110.622 148.188 110.755 148.098C116.522 144.238 119.385 133.068 119.528 132.585C120.018 131.485 121.048 127.401 121.055 125.422C121.055 125.185 121.042 124.975 121.008 124.798L120.998 124.755L120.972 124.722C120.972 124.722 120.158 123.808 119.188 122.888C118.202 121.982 117.105 121.048 116.328 121.025C116.262 121.025 116.185 121.035 116.118 121.055C113.052 121.975 110.002 122.378 109.995 122.382H109.972L109.965 122.388C109.108 122.645 108.262 122.705 107.482 122.705C106.802 122.705 106.165 122.658 105.619 122.658C105.085 122.658 104.632 122.698 104.272 122.905C103.909 123.112 103.699 123.495 103.682 124.058C103.682 124.072 103.679 124.088 103.679 124.105C103.705 125.502 105.615 128.208 108.178 129.258C109.078 129.621 110.005 129.758 110.895 129.758C112.972 129.758 114.845 129.021 115.708 128.625C114.585 130.615 113.015 132.641 111.675 134.211C110.968 135.048 110.332 135.751 109.865 136.248L106.849 157.691C107.159 158.004 107.519 158.441 107.798 159.004C108.452 159.948 108.815 161.004 108.815 162.104C108.815 164.488 107.235 166.474 104.785 167.631L104.762 167.937C104.679 169.471 104.482 172.854 104.245 175.307C104.929 176.221 105.349 177.344 105.349 178.571C105.349 181.564 102.945 183.984 99.9653 184.034V191.45C99.8986 191.5 99.8553 191.537 99.8553 191.537C99.8553 191.537 99.722 191.437 99.4953 191.254C99.432 191.204 99.362 191.147 99.282 191.084C99.1887 191.007 99.082 190.924 98.9653 190.83C98.7987 190.697 98.602 190.537 98.392 190.36C98.2553 190.247 98.102 190.12 97.9453 189.99C97.7787 189.85 97.592 189.694 97.402 189.534C97.1354 189.307 96.8487 189.064 96.542 188.8C96.362 188.644 96.1687 188.477 95.9754 188.307C95.612 187.99 95.222 187.647 94.8154 187.284C94.6154 187.104 94.4087 186.92 94.1954 186.73C93.7421 186.324 93.2654 185.884 92.7654 185.424C92.5421 185.217 92.3154 185.01 92.0821 184.794C91.7254 184.46 91.3621 184.12 90.9888 183.764C90.7921 183.577 90.5788 183.37 90.3755 183.177C89.7555 182.584 89.1188 181.967 88.4522 181.311C88.2388 181.101 88.0155 180.877 87.7955 180.661C87.1055 179.977 86.3955 179.261 85.6656 178.511C85.4289 178.271 85.1922 178.024 84.9522 177.777C84.2122 177.014 83.4523 176.217 82.6756 175.391C82.4123 175.111 82.1489 174.831 81.8823 174.544C81.1223 173.727 80.3423 172.877 79.5523 172.001C79.2423 171.657 78.9357 171.317 78.6223 170.967C78.109 170.394 77.5957 169.811 77.0724 169.214C76.5824 168.654 76.0824 168.074 75.5824 167.494C74.9424 166.751 74.2991 165.991 73.6424 165.211C73.2424 164.734 72.8391 164.248 72.4358 163.758C71.6791 162.841 70.9158 161.904 70.1458 160.944C69.7092 160.398 69.2692 159.844 68.8292 159.288C68.1092 158.374 67.3859 157.444 66.6559 156.491C66.1392 155.821 65.6259 155.141 65.1059 154.451C62.6426 151.171 60.136 147.684 57.6127 143.965H25.0499V109.065H37.5064C34.9798 103.835 32.5265 98.372 30.1932 92.6388C30.1932 92.6388 41.5863 85.9522 62.8359 81.6223L61.7893 78.1923C40.6397 82.5323 29.0999 89.1655 28.3965 89.5788L25.7533 91.1321L26.9099 93.9754C28.5332 97.9653 30.2298 101.782 31.9532 105.515H21.5V147.511H55.7494C61.756 156.244 67.5092 163.541 72.4658 169.337C86.5822 185.847 97.252 194.024 97.6987 194.367L99.8453 196L101.992 194.37C102.439 194.03 113.125 185.854 127.261 169.341C132.221 163.544 137.981 156.248 143.995 147.514H178.507V105.519H174.957L174.954 105.515Z" fill="#86CEBC"/>
<path d="M113.415 70.3622C113.398 69.7422 113.332 69.1122 113.212 68.4722C111.835 61.2457 106.005 59.659 94.9554 57.2591C93.7821 57.0024 92.5622 56.7391 91.3088 56.4558C90.5689 56.2891 89.7589 56.0691 88.9156 55.8258C71.4792 52.0225 56.9361 43.866 51.4795 36.2328C51.4795 36.2328 50.0429 46.5359 60.5294 56.0324C79.3891 71.3189 100.925 72.2288 113.415 70.3622Z" fill="#86CEBC"/>
<path d="M95.4521 54.959C106.095 57.2689 113.788 58.9389 115.522 68.0321C115.645 68.6754 115.708 69.3187 115.742 69.962C117.538 69.6154 119.088 69.2187 120.338 68.8154C120.348 66.7121 120.235 64.5121 119.965 62.2089C118.102 46.3725 104.682 36.9126 95.7021 32.286C91.1656 30.0727 84.5823 27.5395 77.0825 26.6228C67.8426 25.4928 60.5094 19.1563 59.6261 12.683C59.6261 12.683 59.3561 13.213 58.9994 14.1497C55.9262 22.2395 57.6661 31.3761 63.4094 37.8493C71.0226 46.4291 83.719 52.3257 91.8255 54.159C93.0722 54.4423 94.2855 54.7056 95.4521 54.959Z" fill="#86CEBC"/>
<path d="M119.852 35.0061C118.055 33.7928 116.142 32.7395 114.132 31.8662C107.532 28.6763 100.179 25.513 96.8686 17.9598C96.8686 17.9598 94.322 25.6096 104.972 35.1661C115.098 42.4393 121.092 51.6692 122.298 61.9357C122.545 64.0223 122.661 66.0223 122.688 67.9489C123.878 67.4589 124.985 66.9289 126.005 66.3689C125.831 62.0457 126.821 57.4891 127.671 53.5858C127.988 52.1325 128.288 50.7559 128.501 49.5159C129.088 46.116 127.841 42.986 126.255 40.536C124.348 38.4528 122.201 36.5928 119.852 35.0061Z" fill="#86CEBC"/>
<path d="M130.822 49.9193C130.598 51.2093 130.295 52.6093 129.972 54.0893C129.222 57.5392 128.395 61.3425 128.342 64.9391C131.788 62.6025 133.865 60.2025 135.081 58.4392C134.355 54.3259 132.925 50.456 130.922 46.9561C131.002 47.9094 130.998 48.8927 130.822 49.9227V49.9193Z" fill="#86CEBC"/>
<path d="M135.508 61.7756C133.848 63.6756 131.561 65.7856 128.471 67.6722C128.851 70.9055 130.128 73.8154 132.958 75.9621L134.105 75.0687C135.095 71.7855 135.641 68.3089 135.641 64.7023C135.641 63.7156 135.588 62.7456 135.508 61.779V61.7756Z" fill="#86CEBC"/>
<path d="M80.3057 79.5222L89.3889 90.822L99.7453 80.4688V80.4188L99.7687 80.4422L99.792 80.4188V80.4688L104.559 85.2321C108.585 81.9355 112.328 77.6922 113.215 72.8423C110.325 73.2656 107.169 73.509 103.822 73.509C91.5588 73.509 76.7924 70.259 63.4226 61.0958L61.7327 60.0059C61.7327 60.0059 64.9559 64.9358 65.6193 75.1623L76.3757 83.5588L80.3023 79.5188L80.3057 79.5222Z" fill="#86CEBC"/>
<path d="M100.819 177.207L101.449 168.53C100.912 168.597 100.365 168.644 99.7954 168.644C99.2254 168.644 98.7154 168.597 98.1954 168.534L98.8254 177.207C98.3987 177.52 98.1021 178.003 98.1021 178.573C98.1021 179.523 98.872 180.297 99.8254 180.297C100.779 180.297 101.549 179.527 101.549 178.573C101.549 178.003 101.252 177.52 100.825 177.207H100.819Z" fill="#86CEBC"/>
</svg>
