<svg width="200" height="200" viewBox="0 0 200 200" fill="none" xmlns="http://www.w3.org/2000/svg">
<path d="M150.305 127.602L147.923 125.848C147.944 125.567 147.97 125.292 147.989 125.021C148.21 122.356 148.331 120.89 149.909 118.309C152.631 113.868 155.63 107.792 154.656 100.165C153.765 93.1969 150.884 86.8431 148.682 83.5176C147.721 82.0608 145.932 79.5468 144.354 77.3298C143.201 75.7102 141.767 73.6913 141.53 73.3015C141.447 73.1641 141.332 72.9917 141.188 72.7808C140.405 71.6339 138.78 69.2477 140.025 65.0788C140.469 63.6157 139.879 62.0217 138.585 61.2071C137.29 60.3925 135.601 60.5426 134.479 61.568C132.662 63.2228 128.739 67.5194 128.643 73.8574C126.477 70.5415 124.2 68.1104 122.187 65.9637C118.255 61.7661 116.542 59.7248 117.198 55.2972L117.44 53.6809C118.763 44.931 120.009 36.6636 112.872 29.706C110.319 27.2175 106.531 25.4381 102.522 23.5566C96.0209 20.4994 88.6479 17.0365 85.4598 10.0087C84.7762 8.48483 83.1054 7.69261 81.4954 8.1111C79.8853 8.53277 78.8216 10.0437 78.9686 11.7018C79.403 16.6691 81.751 26.4412 92.5708 36.0599C104.189 46.3877 102.47 48.7356 100.468 51.4639C99.8287 52.3391 98.4168 52.9812 96.7939 53.1441C94.7558 53.3422 92.756 52.8087 91.5773 51.7354C87.4596 47.9818 84.9295 43.7587 83.8498 38.8295C82.5592 32.9612 79.173 30.8976 77.2659 30.1883C75.8571 29.6645 74.295 30.1117 73.3782 31.3C72.4645 32.4852 72.4293 34.1081 73.2919 35.3283C73.8478 36.1173 75.0681 38.4845 74.4452 43.42C73.375 51.8983 75.5759 55.885 76.2756 56.9073C76.7931 57.7475 80.109 62.9672 85.3256 67.1425C86.3543 67.9634 95.2541 75.3524 91.5677 81.668C88.8907 86.252 84.8848 85.6707 84.4823 85.5972C84.4184 85.5844 84.3354 85.5685 84.2715 85.5589C83.9552 85.5109 76.5088 84.3226 74.2886 76.0072C73.6241 73.5155 73.1067 71.2921 72.6402 69.2892C71.0973 62.6446 69.9792 57.8432 65.7785 53.4731C60.6991 48.1862 54.7765 46.3686 47.6815 47.8988C46.0842 48.2438 44.9566 49.6813 45.0013 51.3169C45.0492 52.9557 46.2536 54.3293 47.8699 54.5848C52.205 55.2716 55.4346 59.383 56.984 66.264C58.3991 71.6563 59.0092 78.6299 57.6644 80.4189C57.5845 80.5275 57.5781 80.5371 57.396 80.5403C56.262 80.5882 55.7892 80.2304 55.5304 79.978C54.8085 79.2784 54.3772 77.729 54.3676 75.8348C54.3613 74.2822 53.307 72.9309 51.8024 72.5508C50.2947 72.1706 48.7262 72.8543 47.9786 74.2151C46.7327 76.4928 45.0429 81.2718 47.7646 87.7471C50.8824 95.1743 50.9432 95.3181 52.3135 103.045C53.0291 107.087 53.8309 110.936 55.3196 114.686C54.259 114.623 53.2687 115.044 52.5595 115.875C51.5182 117.088 51.4574 118.832 52.4094 120.117C52.9045 120.782 53.9651 122.823 53.192 127.41C52.9397 128.908 52.6489 130.428 52.3487 131.981C50.991 139.042 49.4545 147.041 50.9463 156.359C52.815 168.025 58.7601 173.8 58.9933 174.024C59.3351 174.356 62.4689 177.295 67.1712 178.496C70.452 179.334 72.5028 181.158 73.9244 182.653C76.2181 185.064 85.1276 191.751 93.5643 191.968C94.4236 191.991 95.251 192 96.0465 192C105.397 192 110.48 190.486 116.664 187.633C123.683 184.394 134.646 177.561 140.019 174.034C145.674 170.325 152.132 165.026 151.918 156.921C151.87 155.202 151.612 153.344 151.34 151.376C150.561 145.778 149.676 139.437 152.708 132.262C153.333 130.786 152.867 129.104 151.567 128.167C151.174 127.886 150.743 127.698 150.296 127.599L150.305 127.602Z" fill="#CEE5EB"/>
<path d="M141.044 147.567C141.044 147.567 140.558 151.785 140.233 155.107C139.91 158.432 137.074 162.403 137.074 162.403C137.074 162.403 135.288 165.159 131.238 164.591C127.184 164.023 124.183 165.111 121.51 166.249C121.51 166.249 108.458 171.318 102.784 170.591C97.3052 169.887 93.4144 166.99 93.1524 166.789C93.1428 166.783 93.1332 166.773 93.1236 166.766C92.8489 166.511 88.4117 162.333 88.0156 160.017C87.6099 157.627 89.1337 158.643 91.373 159.202C93.6092 159.761 100.02 161.339 103.733 161.646C107.448 161.95 117.418 162.508 123.723 159.764C130.033 157.016 130.643 152.183 130.643 152.183C130.643 152.183 131.304 146.74 132.985 143.639C134.662 140.536 136.799 137.077 141.582 133.31C141.582 133.31 144.226 131.48 144.734 127.257C145.242 123.034 144.836 120.794 147.329 116.725C149.82 112.655 152.516 107.314 151.654 100.548C150.788 93.7815 147.942 87.8812 146.159 85.1851C144.379 82.4889 139.546 75.8762 138.936 74.8572C138.365 73.902 135.279 70.3913 137.134 64.1971C137.246 63.8266 136.809 63.5455 136.521 63.8074C134.675 65.4877 131.077 69.5863 131.761 75.5696C132.618 83.032 135.339 91.2515 132.244 96.9888C132.059 97.3338 131.531 97.206 131.531 96.8162C131.531 93.2289 131.068 83.1757 126.219 75.6718C120.213 66.3854 112.847 64.0629 114.208 54.8532C115.568 45.6466 117.169 38.1171 110.764 31.8718C104.662 25.9237 88.3958 23.7929 82.7095 11.2481C82.5338 10.8584 81.9556 11.0085 81.9939 11.4334C82.3485 15.4841 84.3451 24.6842 94.5899 33.7917C108.282 45.9628 105.56 49.6461 102.918 53.2495C100.276 56.853 93.1492 57.2523 89.5458 53.9715C85.9423 50.6875 82.3389 46.0459 80.8982 39.478C79.9303 35.0695 77.6271 33.549 76.2182 33.0251C75.8701 32.8941 75.5602 33.2838 75.7742 33.5905C76.7198 34.9386 78.1797 38.0437 77.4545 43.8034C76.4132 52.0516 78.8154 55.2525 78.8154 55.2525C78.8154 55.2525 82.0163 60.6161 87.2234 64.7817C92.4272 68.9441 98.1134 76.4705 94.1906 83.1981C90.2678 89.9258 83.8627 88.5617 83.8627 88.5617C83.8627 88.5617 74.1738 87.2807 71.3722 76.7899C68.5706 66.2991 68.3789 60.5394 63.6064 55.5719C59.6068 51.4094 54.9364 49.4321 48.3333 50.8568C47.9309 50.9431 47.95 51.5277 48.3557 51.5916C51.6908 52.1187 57.4824 54.6455 59.9263 65.4909C59.9263 65.4909 64.6414 83.3898 57.4824 83.5622C52.039 83.6933 51.3649 78.3904 51.3522 75.8443C51.3522 75.4546 50.8346 75.3236 50.6462 75.6655C49.6655 77.4575 48.3365 81.259 50.5535 86.5395C53.7034 94.0403 53.8727 94.4427 55.3069 102.516C56.7381 110.585 58.3705 117.523 65.6412 124.593C65.6508 124.602 65.6636 124.612 65.6732 124.621C65.9511 124.839 69.7653 127.844 71.6757 132.001C73.3336 135.607 76.8412 140.731 78.7452 143.61C80.649 146.488 79.4415 146.766 78.7898 146.951C78.7898 146.951 74.522 148.027 68.561 143.274C68.2256 143.006 67.7784 143.421 68.0148 143.776C69.3948 145.843 72.1229 149.318 76.9434 153.356C84.7476 159.895 86.118 166.064 86.118 166.064C86.118 166.064 88.1306 174.606 85.543 177.973C82.9523 181.34 81.3135 180.305 79.9335 178.49C78.5502 176.679 73.1994 169.169 70.6981 165.716C68.1937 162.262 60.7696 152.424 60.3383 144.136C59.907 135.85 61.894 128.081 59.217 122.557C57.7604 119.552 56.3293 118.283 55.3293 117.75C54.9812 117.565 54.6234 117.989 54.8597 118.306C55.8308 119.615 57.115 122.471 56.1982 127.906C54.815 136.106 52.2275 145.082 53.9557 155.874C55.6808 166.664 61.121 171.843 61.121 171.843C61.121 171.843 63.8842 174.52 67.9413 175.554C71.9983 176.59 74.5028 178.836 76.1416 180.56C77.7804 182.289 85.9839 188.735 93.6635 188.933C103.765 189.192 108.685 187.985 115.415 184.876C122.149 181.768 132.851 175.123 138.377 171.497C143.9 167.871 149.082 163.384 148.909 156.995C148.743 150.865 145.444 141.715 149.938 131.071C150.095 130.7 149.65 130.374 149.347 130.64C147.255 132.483 142.974 137.355 141.051 147.558M136.006 123.19C139.728 120.213 141.223 115.913 141.812 113.297C141.907 112.863 142.549 112.933 142.556 113.374C142.588 115.805 141.901 118.99 140.961 121.28C139.661 124.448 137.956 126.723 130.566 131.515C125.682 134.681 122.5 140.383 120.903 143.887C120.718 144.293 120.105 144.088 120.191 143.651C122.8 130.544 130.733 127.407 136.006 123.19ZM69.5033 116.446C68.6665 109.942 75.2216 105.847 78.5439 104.208C78.9304 104.02 78.7515 103.445 78.3267 103.496C72.4423 104.231 67.7113 108.409 66.1523 109.942C65.9287 110.163 65.5517 110.026 65.5167 109.712C64.5008 100.979 62.5745 96.5448 61.2232 94.4109C60.9932 94.0466 61.4436 93.6474 61.779 93.9157C64.2995 95.9346 66.6443 99.1323 66.6443 99.1323C66.6443 99.1323 68.6824 101.548 71.4744 100.263C73.356 99.3975 73.455 97.1645 73.3208 95.7973C73.2857 95.4555 73.6786 95.2542 73.9373 95.4746C79.0454 99.8098 95.6345 103.758 103.174 95.5066C109.148 88.9706 107.509 80.4413 106.295 76.5375C106.17 76.1382 106.703 75.8699 106.959 76.2021C115.284 87.1369 112.332 95.35 111.275 97.9375C110.208 100.548 113.003 101.394 113.24 101.461C113.252 101.465 113.265 101.468 113.274 101.474C116.846 102.892 121.12 105.064 122.328 105.688C122.513 105.784 122.584 106.01 122.488 106.196L120.373 110.265C120.27 110.46 120.36 110.7 120.565 110.785C127.337 113.642 131.656 116.271 133.055 117.171C133.288 117.322 133.285 117.661 133.052 117.807C127.305 121.359 118.897 127.068 116.252 128.874C115.968 129.068 115.6 128.803 115.68 128.468C117.076 122.701 115.296 119.475 115.296 119.475C113.741 116.191 107.282 114.36 105.991 114.025C105.851 113.99 105.752 113.875 105.723 113.731C104.301 106.342 97.9314 105.217 95.0275 105.1C94.6379 105.083 94.4877 105.598 94.8199 105.796C97.909 107.646 98.9952 109.697 99.3721 110.943C99.4839 111.307 99.0495 111.585 98.7619 111.332C97.7525 110.447 95.9092 109.073 93.82 108.706C91.3379 108.269 88.9708 109.706 88.073 110.339C87.8526 110.495 87.5492 110.367 87.4885 110.103C87.2776 109.198 87.6834 108.17 88.0124 107.528C88.1593 107.243 87.9069 106.927 87.5939 106.988C85.3386 107.435 82.6903 109.703 83.7957 112.911C84.5559 115.115 87.4661 116.434 89.5969 117.12C90.0122 117.255 89.9067 117.875 89.4691 117.855C87.7025 117.778 85.2427 117.357 82.9299 115.881C79.7642 113.862 80.1348 110.345 80.5404 108.664C80.6203 108.336 80.2498 108.084 79.9686 108.269C76.9115 110.249 74.8925 111.716 75.3813 115.945C75.8253 119.782 81.6937 123.864 87.3863 125.848C91.1143 127.145 98.3754 128.496 102.941 129.272C103.393 129.349 103.33 130.02 102.87 130.02C89.9611 130.049 82.9299 127.704 82.9299 127.704C82.9299 127.704 70.6151 125.104 69.5002 116.44M82.9235 136.68C81.4924 134.383 78.9496 131.084 78.6237 130.678C78.6237 130.678 78.2148 130.11 78.4384 129.86C78.6621 129.608 78.9687 129.72 79.3009 129.943C79.6332 130.167 80.8567 131.026 82.8309 131.729C82.8373 131.729 82.8405 131.733 82.8501 131.736C83.1057 131.813 90.0728 133.931 95.0116 134.329C100.04 134.735 101.177 136.601 101.177 138.06C101.177 139.52 101.499 144.632 99.5541 149.58C97.6055 154.528 94.4429 152.015 94.4429 152.015C94.4429 152.015 91.6381 150.357 88.6034 145.734C86.38 142.348 84.5368 139.275 82.9235 136.68Z" fill="#C8102E"/>
</svg>
