<svg width="200" height="200" viewBox="0 0 200 200" fill="none" xmlns="http://www.w3.org/2000/svg">
<path d="M147.662 50.74C174.443 51.2368 196 73.1003 196 100C196 126.76 174.666 148.537 148.078 149.252L148.079 149.27H4L45.9138 50.73H147.662V50.74Z" fill="#441E36"/>
<path d="M187.816 121.103C180.17 136.06 164.614 146.298 146.666 146.298V146.295H8.51758L10.2997 142.097H95.5848C93.019 140.92 90.5779 139.509 88.2904 137.9H120.105C117.443 136.028 114.989 133.881 112.785 131.501C111.601 130.221 109.928 129.501 108.184 129.501H15.6458L17.4277 125.304H76.1393C75.2563 123.954 74.4436 122.552 73.7045 121.106H102.883C104.508 121.106 106.098 121.576 107.461 122.463C112.366 125.652 126.315 133.356 146.666 133.356C172.311 133.356 187.791 121.123 187.816 121.103Z" fill="#B3C7E7"/>
<path fill-rule="evenodd" clip-rule="evenodd" d="M146.666 70.7258C167.849 70.7258 183.26 81.1652 188.83 85.5804C190.356 86.7897 191.419 88.4855 191.825 90.3891C192.353 92.8621 192.685 95.4056 192.801 98.0066H157.23L155.442 102.214H192.801C192.685 104.815 192.353 107.362 191.825 109.832C191.415 111.732 190.356 113.431 188.83 114.64C183.26 119.055 168.012 129.495 146.666 129.495C125.32 129.495 109.832 118.895 104.374 114.541C102.886 113.354 101.04 112.708 99.1363 112.708H22.7741L24.5559 108.51H69.4301C69.1773 107.131 68.9853 105.733 68.8574 104.313H96.0329V104.303C97.3286 104.303 98.5957 103.941 99.6931 103.257C100.794 102.572 102.06 102.211 103.353 102.211H136.297L138.085 98.0035H103.353C102.057 98.0035 100.79 97.6421 99.6931 96.9575C98.5925 96.2728 97.3254 95.9111 96.0329 95.9111H68.8574C68.9853 94.4938 69.1773 93.0924 69.4301 91.7135H31.6842L33.4663 87.5162H99.1076C101.03 87.5162 102.892 86.8602 104.396 85.6638C109.876 81.2967 125.483 70.7259 146.666 70.7258ZM128.641 94.2667H143.713L133.782 117.641H144.849L154.78 94.2667H167.718L171.439 85.4973H132.362L128.641 94.2667Z" fill="#B3C7E7"/>
<path d="M146.666 53.9292C164.614 53.9292 180.173 64.1704 187.816 79.1242C187.785 79.0993 172.289 66.8707 146.666 66.8707C126.315 66.8707 112.365 74.5747 107.461 77.7644C106.098 78.6506 104.508 79.121 102.883 79.121H73.7045C74.4436 77.6781 75.2563 76.2768 76.1393 74.9234H38.8156L39.7113 72.8054L40.5977 70.7227H108.187C109.931 70.7227 111.601 70.0028 112.788 68.7231C114.995 66.3428 117.449 64.196 120.108 62.3244H88.2938C90.5813 60.7151 93.0224 59.3074 95.5883 58.1268H45.9438L47.7257 53.9292H146.666Z" fill="#B3C7E7"/>
</svg>
