<svg width="200" height="200" viewBox="0 0 200 200" fill="none" xmlns="http://www.w3.org/2000/svg">
<path d="M76.3122 93.3792H84.4447L76.4764 118.41H66.2902L61.4436 100.79L56.3505 118.41H46.3286L38.3603 93.3792H46.4929L51.4217 111L56.3505 93.3792H66.5367L71.4655 111L76.3122 93.3792ZM40.1676 64.6427C40.414 63.7369 41.2355 62.5018 41.5641 61.5138C41.8105 60.6904 41.7284 60.114 41.3998 59.9493C41.6462 57.2321 39.7568 54.6796 37.046 54.1032C34.0887 53.5268 31.1314 55.4206 30.5564 58.3849C29.9814 61.3491 31.8708 64.231 34.828 64.8897C35.2388 64.972 35.6495 64.972 36.0602 64.972C36.2245 65.0544 36.471 65.1367 36.5531 65.3014C36.7996 65.5484 36.9639 66.4541 36.7174 66.8658C36.5531 67.2775 35.4031 68.5126 34.0887 69.9124C32.7744 71.3122 32.3636 71.4769 31.2136 72.7943C30.6386 73.453 30.4743 74.2764 30.4743 74.2764C30.4743 74.2764 29.4064 74.8528 28.667 75.9232C27.9277 76.9113 26.9419 78.9697 26.9419 78.9697C26.9419 78.9697 26.1205 79.4638 25.6276 79.7931C25.2169 80.2048 24.8883 80.4519 24.2311 81.2753C24.2311 80.5342 24.4775 80.2048 24.9704 79.8755C25.299 79.6285 25.7919 78.3934 25.874 76.9113C26.5312 76.5819 27.0241 75.8408 27.0241 75.0175C27.0241 73.8647 26.0383 72.8766 24.8883 72.8766C24.3954 72.8766 23.9847 73.0413 23.6561 73.2883C22.8346 72.8766 21.7667 72.7119 20.5345 72.959C20.1238 73.0413 19.713 73.206 19.6309 73.5353C19.3844 73.6177 18.9737 73.7824 18.4808 74.5234C17.9058 75.3468 18.1522 75.9232 18.0701 76.1702C17.988 76.4172 17.0843 76.9113 17.4951 78.8051C17.6594 79.5461 17.5772 80.1225 17.6594 80.3695C17.7415 80.6989 17.8237 80.8636 18.1522 80.9459C18.3165 81.0282 18.563 81.1106 18.7273 81.1929C19.0559 81.2753 19.138 81.3576 19.2202 81.687V82.2633C19.2202 82.3457 19.138 82.5104 19.0559 82.5104L17.0022 82.5927C15.77 82.5104 15.1128 82.922 15.1128 82.922C15.1128 82.922 13.8806 83.0044 13.0591 83.4984C12.2377 83.9925 11.1698 85.3099 10.9233 86.4627C10.759 86.9567 10.6769 87.286 10.4304 87.6977C10.2662 87.9448 9.52683 88.4388 8.95181 89.0152C8.62322 87.7801 8.13034 86.298 8.13034 85.2276V84.9805C8.13034 84.6512 8.13034 84.3218 8.29463 83.9925C8.62322 83.4984 8.86966 82.9221 8.78751 82.2633C8.78751 81.8516 8.86966 81.3576 8.95181 80.9459C9.03395 80.6165 8.95181 80.3695 9.1161 80.1225C9.19825 79.9578 9.36254 79.7108 9.36254 79.4638C9.36254 79.4638 9.03395 79.4638 8.78751 79.5461C8.37678 79.7108 8.29463 80.2048 8.13034 80.5342C8.04819 80.7812 8.04819 81.1106 7.8839 81.1929C7.71961 81.2753 7.47317 81.2753 7.30887 81.1106C7.14458 80.8636 7.06243 80.6989 6.89814 80.4519C6.73384 80.2048 6.32311 78.6404 5.91238 77.7347C5.74808 77.57 5.66594 77.323 5.4195 77.2406C5.2552 77.1583 5.00876 77.323 5.09091 77.4876C5.2552 77.9817 5.50164 78.4757 5.58379 78.9697C5.4195 78.6404 5.17306 78.311 5.00876 78.064C4.84447 77.8993 4.68018 77.6523 4.43373 77.57C4.26944 77.4876 4.10515 77.57 4.023 77.7347C3.94085 77.817 4.10515 77.9817 4.10515 78.064C4.43373 78.4757 4.76232 78.9698 4.92662 79.5461C4.76232 79.3814 4.59803 79.2168 4.35159 79.1344C4.26944 79.1344 4.10515 79.1344 4.023 79.2168C4.023 79.2991 4.023 79.4638 4.10515 79.5461L4.84447 80.5342C5.00876 80.7812 5.17306 81.1106 5.33735 81.3576C5.33735 81.1929 5.09091 81.1929 5.09091 81.4399C5.2552 81.7693 5.66594 82.0163 5.74808 82.428C6.07667 83.2514 5.99452 84.1571 5.91238 85.1452C5.83023 86.1333 5.99452 89.0152 5.74808 90.2503C5.33735 92.2264 5.4195 92.9675 5.91238 95.1906C6.15882 96.5081 7.47317 96.5081 8.45893 95.8494C10.1019 94.7789 11.8269 92.3088 12.2377 91.8147C12.5663 91.403 12.8127 90.7443 13.0591 90.8266C13.6342 91.4854 14.0449 94.2026 13.552 96.5904C13.4699 97.0845 13.2234 97.9902 13.2234 98.2372C13.3056 98.4842 13.552 98.6489 13.552 98.7312C13.4699 100.543 12.2377 100.872 11.8269 102.766C11.4162 104.66 11.5805 105.977 11.9091 107.871C12.2377 109.765 13.1413 111.659 13.8806 113.058C14.6199 114.458 14.7842 115.446 14.7842 115.446L15.4414 115.529C15.4414 115.529 16.4272 119.563 18.4808 122.692C24.4775 131.749 26.6134 135.784 27.0241 136.69C27.4348 137.513 26.8598 137.513 26.8598 137.925C26.8598 138.337 27.1884 138.748 28.1741 139.407C29.2421 140.066 30.0635 142.371 30.4743 143.606C30.885 144.841 31.7065 147.229 33.5137 146.982C35.3209 146.735 35.3209 144.347 34.9923 142.865C34.5816 141.383 33.103 140.642 32.8565 139.654C32.6101 138.748 31.6243 137.184 31.5422 135.29C31.5422 135.043 31.5422 134.796 31.6243 134.384C31.7065 133.314 32.2815 131.914 32.2815 131.091C32.1993 130.267 30.0635 128.785 29.5706 127.879C29.0778 126.974 28.7492 125.08 28.5849 124.998C28.3384 124.915 28.092 124.915 28.092 124.915C28.092 124.915 27.7634 118.657 26.9419 116.105C26.2848 114.211 24.6418 112.564 24.6418 112.564C24.6418 112.564 25.3812 111.165 26.3669 107.542C27.517 103.178 25.7919 101.119 25.299 98.6489C24.8883 96.6728 25.3812 93.7085 26.6134 90.8266C27.1062 89.6739 28.0099 86.792 28.092 85.3099C28.092 84.6512 28.5027 84.1571 29.1599 83.2514C29.8171 82.3457 30.3921 81.3576 30.6385 80.5342C30.885 79.7108 31.5422 78.8874 32.5279 77.4876C33.0208 76.7466 33.2672 76.0879 33.2672 76.0879C33.2672 76.0879 35.0745 74.2764 36.3888 72.4649C37.9496 70.4064 38.1961 69.1713 38.2782 68.7596C38.3603 68.3479 39.0175 67.8539 39.3461 67.1129C39.6747 66.7012 39.9211 65.5484 40.1676 64.6427ZM157.966 111.494C157.966 116.434 153.859 118.41 147.616 118.41H125.682V93.3792H145.48C152.298 93.3792 156.077 95.1906 156.077 99.9663C156.077 102.848 154.434 104.495 152.462 105.236C152.38 105.236 152.298 105.318 152.298 105.401C152.298 105.483 152.38 105.565 152.462 105.565C155.584 105.977 157.966 107.953 157.966 111.494ZM133.076 103.26H145.48C147.616 103.26 148.437 102.601 148.437 101.613C148.437 100.378 147.533 99.8017 145.48 99.8017H133.076V103.26ZM150.326 110.176C150.326 109.188 149.587 108.53 147.616 108.53H133.076V111.988H147.616C149.669 112.07 150.326 111.329 150.326 110.176ZM196 118.41H187.128L184.253 112.976H170.288L167.495 118.41H158.705L172.177 93.3792H182.281L196 118.41ZM181.131 106.965L177.188 99.4723L173.327 106.965H181.131ZM112.046 110.341L97.9167 93.4615H87.402V118.493H94.7952V101.531L108.842 118.41H119.357V93.3792H111.882V110.341H112.046Z" fill="#FA4D00"/>
</svg>
