<svg width="200" height="200" viewBox="0 0 200 200" fill="none" xmlns="http://www.w3.org/2000/svg">
<g clip-path="url(#clip0_9898_54217)">
<path d="M99.9993 12C51.3987 12 12 51.3987 12 99.9993C12 148.6 51.3987 187.999 99.9993 187.999C148.6 187.999 187.999 148.6 187.999 99.9993C187.999 51.3987 148.601 12 99.9993 12Z" fill="#010101"/>
<path d="M61.6393 102.434C61.3177 102.327 60.9126 102.561 60.4747 103.051L43.067 97.7412C42.9999 99.3013 42.6674 101.039 42.0748 102.805C41.8764 103.395 41.656 103.961 41.4193 104.506L59.2047 110.755C59.1253 111.312 58.7859 111.99 58.4917 112.306L40.6693 106.044C40.3655 106.598 40.0439 107.118 39.7059 107.592L57.0671 113.769C57.1382 114.451 57.3298 114.903 57.6569 115.011C58.5943 115.323 60.2462 112.759 61.3465 109.288C62.4468 105.814 62.5768 102.746 61.6393 102.434Z" fill="#FECB00"/>
<path d="M129.811 123.416C129.42 123.277 128.916 123.556 128.366 124.147L93.5754 113.148L63.9029 104.098C63.9138 105.821 63.5772 107.807 62.8984 109.827C62.6698 110.508 62.4112 111.162 62.1306 111.784L126.441 134.366C126.33 134.808 125.93 135.607 125.628 135.882L61.3574 113.314C61.0249 113.898 60.6718 114.434 60.3036 114.922L89.4944 125.309L123.984 137.578C124.088 138.166 124.295 138.56 124.618 138.675C125.755 139.08 127.839 135.994 129.274 131.781C130.708 127.567 130.949 123.823 129.811 123.416Z" fill="#FECB00"/>
<path d="M148.689 130.571L131.997 125.294C132.059 127.37 131.67 129.819 130.853 132.255C130.475 133.382 130.021 134.455 129.513 135.443L144.856 140.84C144.738 141.348 144.33 141.956 143.895 142.321L128.662 136.945C128.242 137.616 127.798 138.229 127.338 138.77L143.952 144.68C145.415 143.403 146.888 140.943 147.831 138.133C148.774 135.322 149.086 132.472 148.689 130.571Z" fill="#FECB00"/>
<path d="M156.817 138.083C156.707 139.021 156.499 139.969 156.184 140.902C155.868 141.838 155.459 142.714 154.98 143.518C155.24 143.584 155.5 143.625 155.757 143.625C157.005 143.625 158.15 142.885 158.549 141.698C159.031 140.268 158.26 138.703 156.815 138.081L156.817 138.083Z" fill="#FECB00"/>
<path d="M151.329 129.87C151.148 129.81 150.966 129.765 150.783 129.727C151.203 132.294 150.918 135.492 149.818 138.755C148.718 142.017 147.01 144.735 145.12 146.524C145.288 146.605 145.462 146.68 145.641 146.74C146.139 146.908 146.651 146.988 147.166 146.988C150.134 146.988 153.234 144.326 154.572 140.357C156.143 135.699 154.69 131.003 151.327 129.87H151.329Z" fill="#FECB00"/>
<path d="M41.069 96.3769C40.8432 96.2756 40.5462 96.4125 40.2136 96.7368C38.7863 96.1976 37.2494 95.4531 36.2846 94.3186C36.3024 94.7784 36.2668 95.1972 36.2449 95.4422C36.1162 96.9079 35.6947 98.7568 35.057 100.649C34.4193 102.542 33.6351 104.269 32.8496 105.513C32.725 105.709 32.5184 106.039 32.2488 106.374C32.6539 106.312 33.0644 106.281 33.4832 106.281C34.4685 106.281 35.5045 106.447 36.6472 106.737C36.691 107.21 36.8169 107.529 37.0373 107.629C37.7845 107.966 39.294 105.72 40.408 102.612C41.5219 99.5053 41.8189 96.7135 41.0703 96.3769H41.069Z" fill="#FECB00"/>
<path d="M34.5547 93.9873C33.9471 94.5867 32.777 96.4329 31.7328 99.5299C30.6886 102.628 30.5011 104.804 30.6229 105.65C31.2306 105.051 32.4007 103.204 33.4449 100.107C34.489 97.009 34.6765 94.8331 34.5547 93.9873Z" fill="#FECB00"/>
<path d="M141.508 113.134C141.214 112.818 140.875 112.141 140.795 111.582L158.581 105.334C158.344 104.789 158.122 104.222 157.925 103.633C157.333 101.867 157.001 100.129 156.933 98.5691L139.525 103.879C139.087 103.39 138.682 103.155 138.361 103.262C137.423 103.574 137.555 106.642 138.653 110.115C139.754 113.589 141.404 116.151 142.343 115.839C142.67 115.729 142.863 115.277 142.933 114.597L160.294 108.42C159.957 107.945 159.634 107.426 159.331 106.872L141.508 113.134Z" fill="#FECB00"/>
<path d="M137.869 112.61C137.589 111.989 137.33 111.335 137.101 110.653C136.423 108.632 136.086 106.646 136.097 104.925L106.424 113.975L104.077 114.716L118.703 119.341L137.869 112.61Z" fill="#FECB00"/>
<path d="M74.3721 136.709C74.0697 136.434 73.6701 135.634 73.5592 135.192L93.0567 128.346L77.959 122.974L71.6351 124.974C71.0849 124.382 70.5813 124.103 70.1899 124.243C69.0526 124.648 69.2935 128.393 70.7277 132.607C72.1619 136.821 74.2462 139.908 75.3835 139.502C75.7064 139.387 75.9131 138.994 76.0171 138.404L98.6759 130.344L95.6062 129.252L74.3735 136.707L74.3721 136.709Z" fill="#FECB00"/>
<path d="M138.644 114.14L121.403 120.195L124.475 121.166L139.698 115.75C139.329 115.262 138.976 114.725 138.644 114.142V114.14Z" fill="#FECB00"/>
<path d="M56.1036 143.15C55.6684 142.784 55.2606 142.177 55.1429 141.67L70.4855 136.272C69.9791 135.283 69.5248 134.211 69.1457 133.085C68.3287 130.649 67.94 128.199 68.0016 126.123L51.3096 131.4C50.9127 133.301 51.2234 136.152 52.1677 138.963C53.1106 141.772 54.5832 144.234 56.0461 145.51L72.6601 139.599C72.2016 139.058 71.7568 138.445 71.3367 137.775L56.1036 143.15Z" fill="#FECB00"/>
<path d="M43.1833 138.909C41.7381 139.529 40.9676 141.095 41.4494 142.526C41.849 143.713 42.9931 144.453 44.2412 144.453C44.4985 144.453 44.7585 144.411 45.0185 144.346C44.5409 143.54 44.1303 142.666 43.8142 141.73C43.4994 140.798 43.2914 139.849 43.1819 138.911L43.1833 138.909Z" fill="#FECB00"/>
<path d="M49.2172 130.554C49.0338 130.593 48.8504 130.638 48.6711 130.698C45.3087 131.831 43.8566 136.527 45.4263 141.185C46.7648 145.154 49.8645 147.816 52.8328 147.816C53.3488 147.816 53.8606 147.735 54.3574 147.568C54.538 147.508 54.7105 147.433 54.8788 147.352C52.9889 145.563 51.2809 142.845 50.1806 139.583C49.0803 136.32 48.7957 133.122 49.2158 130.554H49.2172Z" fill="#FECB00"/>
<path d="M164.943 101.477C164.305 99.5846 163.882 97.7357 163.755 96.2701C163.733 96.0265 163.699 95.6063 163.715 95.1465C162.751 96.281 161.214 97.0241 159.786 97.5647C159.452 97.2417 159.157 97.1035 158.931 97.2048C158.184 97.5414 158.479 100.333 159.593 103.44C160.707 106.546 162.215 108.792 162.964 108.457C163.184 108.358 163.31 108.038 163.354 107.565C164.497 107.274 165.533 107.109 166.518 107.109C166.937 107.109 167.347 107.14 167.753 107.202C167.483 106.865 167.275 106.537 167.152 106.341C166.366 105.097 165.582 103.37 164.944 101.477H164.943Z" fill="#FECB00"/>
<path d="M168.266 100.358C167.222 97.2594 166.051 95.4146 165.444 94.8152C165.322 95.6609 165.509 97.8369 166.554 100.935C167.598 104.034 168.768 105.878 169.376 106.478C169.496 105.632 169.31 103.456 168.266 100.358Z" fill="#FECB00"/>
<path d="M57.6829 79.3399L55.1306 85.6981C54.6448 86.9092 53.7785 87.265 52.5317 86.7642L35.8603 80.072C34.6136 79.5711 34.2331 78.7158 34.7189 77.5047L37.2712 71.1465C37.7721 69.8997 38.6384 69.5234 39.8728 70.0188L44.6476 71.9361L43.4255 74.9825L39.3911 73.3635L37.8036 77.3172L53.0326 83.4304L54.6201 79.4767L50.3188 77.7496L51.5409 74.7033L56.5826 76.7273C57.817 77.2227 58.1824 78.0945 57.6829 79.3412V79.3399Z" fill="#FECB00"/>
<path d="M64.4188 69.2839L56.651 63.1871L53.8962 66.6974L61.664 72.7942L59.6372 75.3752L42.3348 61.7939L44.3616 59.2129L51.4944 64.8116L54.2493 61.3013L47.1165 55.7012L49.1611 53.0969L66.462 66.6782L64.4175 69.2825L64.4188 69.2839Z" fill="#FECB00"/>
<path d="M75.0824 60.1038L72.1264 57.0821L68.7694 59.4647L70.6456 63.2528L67.9934 65.1359L67.9606 65.0894L58.7216 44.7106L61.5394 42.7112L77.7045 58.1756L77.7374 58.2221L75.0852 60.1052L75.0824 60.1038ZM63.0708 47.9061L67.5049 56.9384L70.1338 55.0718L63.0708 47.9048V47.9061Z" fill="#FECB00"/>
<path d="M87.1515 54.7542L80.4019 46.2474L79.7573 44.3656L82.8078 43.3201L80.5456 36.7197L76.6234 38.0636L82.8488 56.2294L79.7436 57.2928L72.6136 36.4856L80.8658 33.6569C82.1194 33.2272 82.9624 33.6487 83.399 34.9187L85.9937 42.4894C86.4166 43.7238 86.017 44.5709 84.7949 45.0307L83.7329 45.3948L90.3566 53.5334L90.3936 53.6429L87.1529 54.7542H87.1515Z" fill="#FECB00"/>
<path d="M92.9896 53.3979L91.5896 31.4467L94.8645 31.2373L96.0784 50.2572L101.422 49.9164L101.61 52.8464L92.991 53.3966L92.9896 53.3979Z" fill="#FECB00"/>
<path d="M103.865 53.0012L107.656 31.3359L116.561 32.8947L116.06 35.759L110.389 34.7668L109.283 41.0908L114.161 41.9448L113.67 44.7517L108.792 43.8977L107.601 50.7034L113.359 51.7106L112.858 54.575L103.868 53.0012H103.865Z" fill="#FECB00"/>
<path d="M124.355 58.9665C123.897 59.1335 123.379 59.0828 122.806 58.8146L116.805 56.016C116.231 55.7477 115.861 55.3837 115.696 54.9211C115.531 54.4586 115.587 53.9289 115.866 53.3309L118.084 48.5752L121.058 49.9629L119.16 54.033L122.813 55.7368L124.636 51.8282L121.298 43.3885C121.16 43.0491 121.095 42.7439 121.105 42.4743C121.114 42.2034 121.209 41.8777 121.387 41.4958L123.453 37.0673C123.728 36.4774 124.095 36.0983 124.555 35.9328C125.013 35.7658 125.531 35.8164 126.104 36.0847L132.105 38.8833C132.678 39.1515 133.049 39.5156 133.214 39.9781C133.379 40.4407 133.326 40.9621 133.056 41.5424L130.972 46.0106L127.998 44.6229L129.751 40.8663L126.099 39.1625L124.422 42.7576L127.772 51.1714C127.902 51.5285 127.962 51.8419 127.953 52.1129C127.943 52.3839 127.849 52.7096 127.671 53.0914L125.459 57.8334C125.184 58.4232 124.816 58.8023 124.358 58.9692L124.355 58.9665Z" fill="#FECB00"/>
<path d="M141.586 48.671L129.933 63.7878L127.334 61.7843L138.987 46.6675L136.137 44.471L137.912 42.1677L146.234 48.5834L144.459 50.8866L141.586 48.6724V48.671Z" fill="#FECB00"/>
<path d="M140.092 74.0807C139.606 74.0287 139.164 73.7577 138.766 73.265L134.275 67.7142C133.454 66.6988 133.567 65.7696 134.611 64.9252L148.578 53.628C149.622 52.7836 150.556 52.8684 151.375 53.8825L155.865 59.4333C156.264 59.9259 156.437 60.4145 156.385 60.9003C156.333 61.3862 156.054 61.835 155.548 62.2442L141.579 73.5415C141.072 73.952 140.575 74.1313 140.089 74.0793L140.092 74.0807ZM152.881 60.1819L150.038 56.6675L137.279 66.9862L140.122 70.5006L152.881 60.1819Z" fill="#FECB00"/>
<path d="M144.431 84.5361L155.214 74.3844C155.044 74.4761 154.877 74.576 154.714 74.6841C154.587 74.7785 154.444 74.8688 154.282 74.9564C154.121 75.044 153.97 75.1165 153.828 75.1754L142.498 79.8708L141.263 76.8915L161.583 68.4709L162.681 71.1204L152.164 81.1613C152.325 81.0519 152.489 80.9437 152.652 80.8343C152.779 80.7398 152.924 80.6536 153.09 80.5742C153.254 80.4949 153.408 80.4278 153.55 80.3676L164.614 75.783L165.849 78.7623L145.529 87.1829L144.43 84.5334L144.431 84.5361Z" fill="#FECB00"/>
<path d="M116.608 154.762C116.72 154.556 116.776 154.29 116.776 153.965V150.584C116.776 150.159 116.664 149.833 116.438 149.609C116.212 149.383 115.893 149.271 115.48 149.271H111.105C110.692 149.271 110.373 149.381 110.147 149.604C109.921 149.828 109.809 150.149 109.809 150.571V153.7H111.912V151.091H114.673V154.125L112.044 155.915V156.366L114.673 158.176V161.793H111.912V159.014H109.809V162.314C109.809 163.182 110.235 163.615 111.086 163.615H115.479C116.342 163.615 116.775 163.178 116.775 162.302V158.284C116.775 157.958 116.721 157.695 116.615 157.495C116.508 157.296 116.33 157.126 116.08 156.989L114.727 156.143L116.06 155.28C116.311 155.143 116.493 154.97 116.605 154.764L116.608 154.762Z" fill="#FECB00"/>
<path d="M83.2225 151.092H84.0491V163.615H86.1511V149.271H83.2225V151.092Z" fill="#FECB00"/>
<path d="M95.2765 149.271H90.9027C90.0515 149.271 89.6259 149.708 89.6259 150.584V156.161C89.6259 156.574 89.7353 156.893 89.9557 157.119C90.176 157.345 90.4935 157.457 90.9082 157.457H94.4896V161.794H91.7854V159.279H89.682V162.315C89.682 162.737 89.7942 163.058 90.02 163.282C90.2458 163.505 90.5647 163.615 90.978 163.615H95.297C95.7103 163.615 96.0292 163.503 96.255 163.277C96.4808 163.052 96.5931 162.727 96.5931 162.302V150.586C96.5931 149.71 96.1551 149.272 95.2793 149.272L95.2765 149.271ZM94.4883 155.636H91.7279V151.092H94.4883V155.636Z" fill="#FECB00"/>
<path d="M105.621 149.271H101.247C100.396 149.271 99.9706 149.708 99.9706 150.584V156.161C99.9706 156.574 100.08 156.893 100.3 157.119C100.521 157.345 100.838 157.457 101.253 157.457H104.834V161.794H102.13V159.279H100.027V162.315C100.027 162.737 100.139 163.058 100.365 163.282C100.591 163.505 100.909 163.615 101.323 163.615H105.642C106.055 163.615 106.374 163.503 106.6 163.277C106.826 163.052 106.938 162.727 106.938 162.302V150.586C106.938 149.71 106.5 149.272 105.624 149.272L105.621 149.271ZM104.833 155.636H102.073V151.092H104.833V155.636Z" fill="#FECB00"/>
<path d="M98.5076 66.8958C97.2622 66.8958 96.0469 67.0299 94.8768 67.2844C101.96 67.3652 107.679 73.1294 107.679 80.2321C107.679 87.3348 101.881 93.1839 94.7277 93.1839C87.5744 93.1839 81.8977 87.5017 81.7814 80.4497C81.5405 81.5924 81.4119 82.7776 81.4119 83.9928C81.4119 93.4343 89.0661 101.089 98.5076 101.089C107.949 101.089 115.603 93.4343 115.603 83.9928C115.603 74.5513 107.949 66.8971 98.5076 66.8971V66.8958Z" fill="#FECB00"/>
<path d="M99.9993 16.3806C53.8182 16.3806 16.382 53.8182 16.382 99.9993C16.382 146.18 53.8196 183.618 100.001 183.618C146.182 183.618 183.619 146.18 183.619 99.9993C183.619 53.8182 146.18 16.3806 99.9993 16.3806ZM99.9993 179.644C56.012 179.644 20.3549 143.985 20.3549 99.9993C20.3549 56.0133 56.0133 20.3548 99.9993 20.3548C143.985 20.3548 179.644 56.0133 179.644 99.9993C179.644 143.985 143.985 179.644 99.9993 179.644Z" fill="#FECB00"/>
</g>
<defs>
<clipPath id="clip0_9898_54217">
<rect width="176" height="176" fill="white" transform="translate(12 12)"/>
</clipPath>
</defs>
</svg>
