<svg width="200" height="200" viewBox="0 0 200 200" fill="none" xmlns="http://www.w3.org/2000/svg">
<path d="M165.875 24.9936H90.9042C87.9231 19.9071 85.656 14.8416 84.2696 10.0528L81.3719 0L78.6827 10.1102C78.5732 10.5123 77.0983 16.1941 76.2957 24.9936H34.086V163.466L48.8925 167.409C40.9394 173.336 33.4501 178.616 27.17 182.637L18.8 188H51.7276C51.7276 188 59.4045 181.786 64.7361 177.044H85.0723L99.983 181.018L165.88 163.466V24.9936H165.875Z" fill="white"/>
<path d="M153.09 43.2349C151.563 44.7441 148.098 48.3475 147.868 48.6503C146.44 48.7757 141.312 49.5695 139.024 54.7029C136.585 60.1601 139.462 63.095 135.511 67.6592C125.307 65.2205 111.673 55.5071 100.431 42.885C100.379 44.4621 100.379 46.0862 100.447 47.7469C101.192 67.0273 109.656 83.1379 125.625 95.7444L124.718 97.3946C123.665 96.5695 122.732 95.8018 121.758 94.961C117.515 99.7132 113.57 102.643 108.202 105.432C111.032 107.86 114.117 110.189 117.484 112.393C103.829 128.18 56.2775 167.445 28.7335 185.091H50.753C60.3374 177.874 94.7296 146.374 113.7 127.981H116.468C102.964 144.175 80.5068 163.445 69.4423 174.14H85.5934C125.077 130.258 142.505 110.21 150.359 69.7742C152.33 59.6275 153.085 46.974 153.085 43.2349H153.09Z" fill="#C39955"/>
<path d="M106.69 104.084C112.189 101.29 116.129 98.4337 120.35 93.7076C117.583 91.1905 115.154 88.6055 113.017 85.9944C107.9 90.0729 103.407 92.308 97.3823 94.1933C100.098 97.6138 103.188 100.925 106.696 104.084H106.69Z" fill="#C39955"/>
<path d="M78.8807 42.6707C79.2143 48.5665 80.0429 54.9377 81.6377 61.4811C88.6371 62.7553 93.8279 62.9224 100.541 61.4811C99.566 57.6637 99.0032 53.9924 98.7322 50.5823C91.0813 49.3969 85.9061 47.0782 78.8859 42.6707H78.8807Z" fill="#C39955"/>
<path d="M98.6071 48.6505C98.5914 48.3476 98.5758 48.0395 98.5654 47.7418C98.4768 45.3396 98.5133 43.0261 98.6383 40.8171C90.8729 31.6626 84.4625 21.1607 81.4866 10.8677C81.4866 10.8677 78.1667 23.3645 78.7817 40.3785C86.0208 45.0158 91.1178 47.4389 98.6071 48.6557V48.6505Z" fill="#C39955"/>
<path d="M91.4775 64.3953C88.5068 64.3953 85.5257 64.0715 82.1485 63.4866C83.4045 68.2023 85.0723 72.9859 87.2612 77.7276C93.9478 77.3046 98.8938 76.2184 104.887 73.3462C103.235 69.9465 101.979 66.5782 101.036 63.3091C97.5908 64.0559 94.542 64.4005 91.4775 64.4005V64.3953Z" fill="#C39955"/>
<path d="M88.1315 79.5605C90.3048 83.9941 92.9576 88.3704 96.1471 92.6056C102.297 90.736 106.763 88.574 111.84 84.5268C109.406 81.3778 107.394 78.1975 105.731 75.0276C99.6755 77.9364 94.6931 79.0905 88.1315 79.5605Z" fill="#C39955"/>
<path d="M136.96 112.748C148.728 99.0186 159.188 82.9812 162.961 73.5551C162.961 73.5551 156.733 73.5237 151.689 72.5315C151.537 73.2313 151.391 73.9363 151.24 74.6569C149.375 83.5922 147.087 94.0732 136.965 112.743L136.96 112.748Z" fill="#C39955"/>
<path d="M92.6866 27.9023C93.3745 28.9833 94.1041 30.0591 94.8546 31.1349H107.571L117.354 54.7185C117.713 54.9952 118.068 55.2563 118.427 55.5227L108.379 31.1401H135.282L138.987 49.679C139.18 49.4858 139.378 49.2978 139.576 49.1255L136.027 31.1401H159.746V70.5366C161.622 70.641 162.941 70.6515 162.972 70.6515V27.9023H92.6866Z" fill="#C39955"/>
<path d="M159.746 151.361L149.838 101.139C149.687 101.342 149.541 101.546 149.39 101.75L159.746 153.601V155.81L141.593 111.75C141.463 111.907 141.333 112.063 141.202 112.22L159.746 156.928V157.345L134.688 119.672C134.563 119.808 134.438 119.944 134.318 120.074L159.746 158.113V158.165L128.929 127.213C128.825 127.354 128.715 127.5 128.611 127.641L159.558 158.578L123.519 134.388C123.41 134.529 123.305 134.67 123.196 134.806L159.23 158.87L159.193 158.881L117.812 141.647C117.698 141.788 117.578 141.935 117.463 142.076L158.516 159.058L158.224 159.137L111.1 149.684C110.964 149.841 110.834 149.998 110.693 150.154L157.281 159.382L155.962 159.732L102.38 159.669C102.219 159.852 102.052 160.04 101.885 160.228L154.331 160.165L140.655 163.81L94.0051 173.054L91.1439 172.291C90.3621 173.169 89.5543 174.067 88.7256 174.991L99.9881 177.989L162.977 161.21V80.4011C162.023 82.2446 160.944 84.1872 159.751 86.203V151.34L159.746 151.361ZM99.9829 174.662L95.2768 173.409L133.38 165.769L99.9829 174.662Z" fill="#C39955"/>
<path d="M51.2794 144.274L49.2468 148.478H53.3172L51.2794 144.274Z" fill="#C39955"/>
<path d="M69.6716 151.314V142.045L78.8286 143.857C79.0318 143.69 79.2403 143.517 79.4435 143.35L69.6716 141.392V122.32L92.8898 131.924C93.0566 131.778 93.2233 131.631 93.3901 131.485L69.6716 121.61V99.0709L103.944 121.96C104.09 121.824 104.236 121.688 104.382 121.553L69.6716 98.2563V68.735L90.4038 89.4568C89.8774 88.6474 89.3719 87.8223 88.8768 86.9919L69.6716 67.7063V31.1403H75.8944C75.9413 30.0279 75.9986 28.9522 76.0663 27.9077H36.9889V161.231L51.8579 165.189C57.695 160.787 63.725 156.087 69.6716 151.314ZM44.9732 37.9239H61.6924V39.8092H56.0794V54.7604H50.581V39.8092H44.968V37.9239H44.9732ZM46.4898 117.615C46.4898 114.79 49.7003 112.476 53.1869 112.476C55.9335 112.476 58.2058 113.641 59.7641 115.056L58.4716 116.482C57.398 115.505 55.626 114.487 53.7081 114.487C51.8996 114.487 51.097 115.437 51.097 116.294C51.097 118.116 60.1758 122.007 60.1758 125.172C60.1758 127.997 56.9654 130.31 53.4735 130.31C50.727 130.31 48.4546 129.146 46.8963 127.73L48.1888 126.305C49.2625 127.281 51.0344 128.3 52.9524 128.3C54.7608 128.3 55.5634 127.349 55.5634 126.493C55.5634 124.968 46.4846 120.487 46.4846 117.615H46.4898ZM46.4794 104.559V87.723H51.8475V102.674H60.1914V104.559H46.4794ZM55.0527 79.9942H51.9882C48.5849 79.9942 45.8279 78.0515 45.8279 74.751V63.1577H51.2794V75.7067C51.2794 77.7277 52.968 78.1246 55.0527 78.1246C57.1374 78.1246 58.826 76.8504 58.826 74.2445V63.1525H60.8429V74.7458C60.8429 78.0463 58.4507 79.9889 55.0527 79.9889V79.9942ZM47.4019 152.311H45.2651L53.7602 135.418L61.4006 152.311H55.1726L54.2292 150.358H48.3556V150.322L47.3967 152.306L47.4019 152.311Z" fill="#C39955"/>
</svg>
