<svg width="200" height="200" viewBox="0 0 200 200" fill="none" xmlns="http://www.w3.org/2000/svg">
<g clip-path="url(#clip0_9898_54212)">
<path d="M152.024 95.5412L127.67 24.5119C123.832 12.6121 112.671 4 99.4964 4C86.3219 4 75.1605 12.6121 71.3231 24.5119L46.9606 95.5412C46.541 96.9487 46.31 98.4359 46.31 99.9788C46.31 101.522 46.541 103.009 46.9606 104.414L71.3072 175.44C75.1286 187.367 86.3007 196 99.4964 196C112.692 196 123.864 187.367 127.686 175.44L152.024 104.414C152.444 103.009 152.675 101.522 152.675 99.9788C152.675 98.4359 152.441 96.9487 152.024 95.5412Z" fill="black"/>
<path d="M81.0453 83.7954V41.3696C81.0453 40.6552 80.461 40.071 79.6829 40.071C78.9686 40.071 78.3844 40.6552 78.3844 41.3696V84.8975C78.3844 85.742 79.0987 86.4537 79.9405 86.4537H95.5077C96.222 86.4537 96.87 85.8695 96.87 85.0914C96.87 84.377 96.2194 83.7928 95.5077 83.7928H81.0426L81.0453 83.7954ZM85.4562 79.3181V41.3696C85.4562 40.6552 84.872 40.071 84.0939 40.071C83.3795 40.071 82.7953 40.6552 82.7953 41.3696V81.979H95.4466C96.1609 81.979 96.8727 81.3948 96.8727 80.6804C96.8727 79.9661 96.222 79.3181 95.5103 79.3181H85.4562ZM121.453 41.6298C121.583 41.1757 121.453 40.7853 121.129 40.4613C120.935 40.2675 120.675 40.1374 120.415 40.0736C119.7 39.9435 118.989 40.3339 118.858 41.0482L109.776 84.1858C109.776 84.2522 109.712 84.4461 109.322 84.4461C108.998 84.4461 108.868 84.3159 108.868 84.1858L99.8522 41.0482C99.6584 40.3339 99.0078 39.9435 98.2961 40.0736C97.9721 40.14 97.7118 40.2675 97.518 40.4613C97.2577 40.7216 97.1276 41.1757 97.2577 41.6298C106.276 85.0276 106.34 84.8338 106.34 84.8338C106.6 85.9996 107.766 86.7803 109.325 86.7803C110.884 86.7803 112.18 86.0023 112.373 84.8338C112.373 84.8338 112.373 85.0276 121.456 41.6298M115.812 40.0736C115.098 39.9435 114.45 40.3339 114.256 41.112L109.521 64.7256C109.455 64.9858 109.33 65.6657 109.33 65.6657C109.33 65.6657 109.195 64.9832 109.131 64.7256L104.396 41.0482C104.202 40.3339 103.488 39.9435 102.773 40.0736C102.449 40.14 102.256 40.2675 102.059 40.4613C101.799 40.7216 101.671 41.112 101.799 41.5661L109.322 77.5043L116.848 41.6298C116.978 41.1757 116.782 40.7853 116.524 40.4613C116.33 40.2675 116.07 40.1374 115.81 40.0736" fill="#00ADEF"/>
<path d="M95.5502 116.505C96.3283 116.505 96.8488 115.857 96.8488 115.206C96.8488 114.492 96.2645 113.844 95.5502 113.844H82.8351V129.868H95.5502C96.2645 129.868 96.8488 129.286 96.8488 128.505C96.8488 127.791 96.2645 127.207 95.5502 127.207H85.4961V116.505H95.5502Z" fill="#00ADEF"/>
<path d="M95.5502 131.684H82.8351V154.647C82.8351 155.425 83.4194 156.009 84.1337 156.009C84.9118 156.009 85.4961 155.425 85.4961 154.647V134.342H95.5502C96.2645 134.342 96.8488 133.758 96.8488 132.98C96.8488 132.266 96.2645 131.681 95.5502 131.681" fill="#00ADEF"/>
<path d="M83.7407 110.067C83.7407 109.828 83.7805 109.595 83.8549 109.369H79.9166C79.0722 109.369 78.4242 110.147 78.4242 110.989V154.647C78.4242 155.425 79.0084 156.009 79.7228 156.009C80.5009 156.009 81.0851 155.425 81.0851 154.647V112.027H84.8295C84.1736 111.605 83.7407 110.885 83.7407 110.067Z" fill="#00ADEF"/>
<path d="M95.5502 109.369H89.8937L88.0906 111.544C87.9339 111.735 87.7427 111.894 87.5329 112.027H95.5502C96.2645 112.027 96.8487 111.443 96.8487 110.729C96.8487 110.014 96.2645 109.366 95.5502 109.366" fill="#00ADEF"/>
<path d="M120.099 121.176C120.747 121.176 121.397 120.722 121.461 119.877V117.476C121.397 115.466 120.553 113.196 118.672 111.509C117.568 110.535 114.909 108.848 111.213 108.848C108.488 108.848 106.218 109.626 104.271 111.119C102.391 112.611 101.029 114.882 101.029 117.41V148.029C101.223 150.818 102.585 152.828 104.595 154.32C106.932 156.007 109.59 156.331 111.213 156.331C115.04 156.331 118.152 154.838 119.971 152.18C120.816 150.948 121.397 149.519 121.397 147.963V145.044C121.397 144.33 120.813 143.746 120.099 143.746C119.32 143.746 118.736 144.33 118.736 145.044V147.835C118.736 149.715 117.634 150.948 117.116 151.468C116.078 152.504 114.068 153.672 111.213 153.672C108.358 153.672 106.478 152.504 105.57 151.662C104.922 151.144 103.947 149.976 103.753 148.42C103.687 148.096 103.687 147.705 103.687 147.317V117.476C103.687 115.206 105.116 113.844 105.83 113.259C107.45 111.961 109.396 111.443 111.213 111.443C113.42 111.443 115.17 112.221 116.402 113.129C117.701 114.101 118.606 115.4 118.736 116.959V119.877C118.736 120.591 119.387 121.176 120.099 121.176Z" fill="#00ADEF"/>
<path d="M115.688 121.176C116.466 121.176 117.05 120.528 117.05 119.813V117.673C117.05 117.283 116.986 116.698 116.79 116.247C116.402 115.402 114.843 113.262 111.21 113.198C109.524 113.198 107.06 113.913 105.957 115.663C105.633 116.18 105.44 116.765 105.44 117.283V147.641C105.503 150.432 108.488 151.922 111.213 151.922C113.744 151.922 116.986 150.496 116.986 147.705V145.044C116.986 144.33 116.336 143.746 115.624 143.746C114.912 143.746 114.328 144.33 114.328 145.044C114.328 145.044 114.392 147.639 114.392 147.705C114.262 148.55 112.769 149.261 111.213 149.261C110.241 149.261 108.101 148.743 108.101 147.509V117.474C108.101 116.759 109.333 115.851 111.213 115.851C112.381 115.851 113.614 116.175 114.131 116.956C114.262 117.15 114.325 117.41 114.325 117.67V119.874C114.325 120.589 114.973 121.173 115.688 121.173" fill="#00ADEF"/>
<path d="M84.07 93.1299C84.07 93.7168 84.5985 94.1895 85.2119 94.1895C85.8254 94.1895 86.3538 93.7168 86.3538 93.1299C86.3538 92.543 85.8439 92.0703 85.2119 92.0703C84.5799 92.0703 84.07 92.5616 84.07 93.1299Z" fill="#FFF200"/>
<path d="M129.539 99.4635C129.199 99.4635 128.883 99.3466 128.671 99.0917C129.497 98.2472 130.238 97.347 131 96.4627C131.021 96.7176 131.042 96.9725 131.042 97.2461C131.042 98.2074 130.894 99.4608 129.539 99.4608M91.6916 99.5591C91.5216 99.5591 91.3304 99.5007 91.3304 99.3042C91.3304 98.3242 94.0391 96.1679 94.9713 96.1679C95.2049 96.1679 95.3324 96.2449 95.3324 96.4813C95.3324 97.3629 92.6449 99.5591 91.6916 99.5591ZM146.498 99.5193H133.496C133.199 99.5193 133.053 99.3812 133.031 99.1262C133.244 98.4783 133.308 97.8117 133.308 97.1266C133.308 96.1254 133.159 95.1057 132.904 94.1257C133.22 93.754 133.73 93.2627 133.73 92.7528C133.73 92.1845 133.22 91.6932 132.588 91.6932C132.229 91.6932 131.911 91.8499 131.677 92.1234C130.514 93.4964 129.412 94.9277 128.227 96.3007C127.717 96.869 127.231 97.4771 126.661 97.987C125.2 99.2803 123.126 99.5166 121.179 99.5166H116.269C116.354 99.3201 119.127 96.0856 119.551 95.5359L121.774 92.713H127.744C128.379 92.713 128.886 92.2429 128.886 91.6534C128.886 91.0638 128.376 90.5964 127.744 90.5964H123.447C123.723 90.2804 123.997 89.9883 123.997 89.5767C123.997 88.9872 123.487 88.5171 122.855 88.5171C122.494 88.5171 122.135 88.6738 121.923 88.9473L120.632 90.5964H115.34C114.705 90.5964 114.198 91.0665 114.198 91.6534C114.198 92.2403 114.705 92.713 115.34 92.713H118.959C117.669 94.3408 116.059 96.5955 114.493 97.987C113.032 99.2803 111.354 99.514 109.407 99.514C109.054 99.514 108.969 99.3573 108.969 99.0652C108.969 98.773 109.965 97.6736 109.965 96.4574C109.965 95.2411 109.033 94.2612 107.721 94.1045L110.812 90.2034C110.961 90.0069 111.024 89.7918 111.024 89.5767C111.024 88.9872 110.514 88.5171 109.901 88.5171C109.519 88.5171 109.181 88.6738 108.969 88.9473L104.757 94.2824C103.761 95.5359 102.747 96.9088 101.52 97.9896C100.182 99.174 98.3465 99.4688 96.5513 99.5113C96.6151 99.3971 98.9812 96.5556 99.191 96.3033C99.3397 96.1281 99.422 95.8917 99.422 95.6554C99.422 95.0871 98.9148 94.5958 98.2801 94.5958C97.7942 94.5958 97.518 94.8321 97.2444 95.1641C96.7585 94.4391 95.8901 94.0461 94.9792 94.0461C93.2026 94.0461 91.0011 95.8519 89.984 97.0681C88.2898 99.105 86.3007 99.5193 83.6106 99.5193H80.9869C81.0506 99.3626 81.5153 98.8527 81.6428 98.7146C82.4899 97.8117 83.5044 96.7521 83.8655 96.3618C84.0567 96.1652 84.1629 95.9103 84.1629 95.6554C84.1629 95.0658 83.6557 94.5958 83.021 94.5958C82.7024 94.5958 82.3864 94.7339 82.1527 94.949C81.664 95.4589 79.3165 97.9286 79.2713 97.9896C77.747 99.2829 75.8005 99.5193 73.7902 99.5193H63.5024C63.5236 99.4608 63.5661 99.4024 63.6086 99.3626L73.4662 87.5292C73.6149 87.354 73.6972 87.1176 73.6972 86.8813C73.6972 86.2944 73.19 85.8217 72.5553 85.8217C72.2181 85.8217 71.8781 85.9784 71.6657 86.2333L61.7868 98.064C61.4496 98.4756 61.2159 98.9855 61.2159 99.5166C61.2159 100.712 62.1268 101.633 63.4386 101.633H73.7902C75.588 101.633 77.431 101.439 79.0615 100.672C79.4652 101.28 80.1849 101.633 80.9444 101.633H84.9809L85.4297 101.596C86.8026 101.458 88.1596 101.091 89.3467 100.438C89.8114 101.184 90.6798 101.673 91.6119 101.673H91.8669L85.4005 109.47C85.2517 109.666 85.1694 109.881 85.1694 110.118C85.1694 110.707 85.6766 111.177 86.3113 111.177C86.6725 111.177 87.0098 111.021 87.2222 110.766L95.0005 101.376C95.3191 101.5 95.7201 101.519 96.0574 101.575C96.0574 101.575 96.8913 101.62 96.9258 101.617C99.2176 101.527 101.398 101.033 103.127 99.498C103.655 99.028 104.101 98.4969 104.566 98.0082C105.009 97.5169 106.512 96.2423 107.232 96.2024H107.317C107.572 96.1838 107.697 96.2821 107.697 96.4972C107.697 97.0442 106.682 97.987 106.682 99.0466C106.682 100.536 107.782 101.633 109.412 101.633H109.986C109.986 101.633 109.997 101.633 110.005 101.633C111.699 101.617 112.737 101.41 114.304 100.656C114.705 101.264 115.427 101.636 116.187 101.636H121.182C123.171 101.636 125.205 101.381 126.939 100.441C127.595 101.187 128.506 101.58 129.542 101.58C130.283 101.58 131.045 101.405 131.658 101.012C132.166 101.423 132.822 101.638 133.499 101.638H145.369C145.327 101.846 145.279 102.053 145.221 102.257L120.89 173.263C117.9 182.594 109.301 188.864 99.4964 188.864C89.6919 188.864 81.0931 182.594 78.1029 173.263L53.7616 102.257C53.5492 101.506 53.4429 100.738 53.4429 99.976C53.4429 99.2139 53.5492 98.4491 53.7643 97.6949L78.0976 26.7425C81.1117 17.3921 89.7052 11.1355 99.4937 11.1355C109.282 11.1355 117.873 17.3921 120.877 26.7027L144.589 95.8572C144.766 96.2608 145.165 96.545 145.635 96.545C146.267 96.545 146.782 96.0325 146.782 95.3978C146.782 95.3155 146.769 95.2358 146.75 95.1588L123.038 26.0069C119.735 15.7536 110.273 8.86499 99.4964 8.86499C88.72 8.86499 79.2581 15.7536 75.9545 26.0069L51.5973 97.015C51.3158 97.9896 51.1751 98.9855 51.1751 99.976C51.1751 100.967 51.3158 101.962 51.5973 102.937L75.9386 173.953C79.2315 184.23 88.6961 191.132 99.4937 191.132C110.291 191.132 119.756 184.228 123.049 173.953L147.385 102.937C147.666 101.962 148.126 100.69 147.499 99.9681C147.106 99.5166 146.498 99.5219 146.498 99.5219" fill="#FFF200"/>
<path d="M101.079 170.341C100.447 171.003 99.9372 171.969 99.4937 173.196C99.0502 171.969 98.5404 171.003 97.9083 170.341C97.2524 169.654 96.546 169.072 95.7998 168.602C96.4584 168.175 97.1382 167.619 97.7888 166.902C98.5085 166.185 99.0529 165.163 99.4937 163.963C99.9372 165.166 100.479 166.188 101.199 166.902C101.849 167.622 102.529 168.175 103.188 168.602C102.441 169.075 101.732 169.656 101.079 170.341ZM107.264 167.797L107.06 167.731C106.34 167.622 104.489 167.173 102.853 165.346L102.819 165.312C101.61 164.141 100.896 160.811 100.471 158.819C100.413 158.54 100.357 158.28 100.304 158.043C100.256 157.618 99.8947 157.366 99.5415 157.366C99.5229 157.366 99.5097 157.369 99.4911 157.372C99.4725 157.372 99.4592 157.366 99.4406 157.366C99.0901 157.366 98.7263 157.618 98.6785 158.043C98.6253 158.28 98.5696 158.54 98.5112 158.819C98.0863 160.811 97.3719 164.143 96.1636 165.312L96.1291 165.346C94.4959 167.173 92.6449 167.622 91.9226 167.731L91.7181 167.797C91.4579 167.933 91.1366 168.103 91.1366 168.618C91.1366 169.133 91.4605 169.303 91.7181 169.441L91.9253 169.508C93.4894 169.741 94.9898 170.573 96.2645 171.908C97.4144 173.114 98.1978 176.805 98.5749 178.576L98.6811 179.068C98.7263 179.495 99.0901 179.75 99.4433 179.75C99.4619 179.75 99.4778 179.748 99.4937 179.748C99.5123 179.748 99.5256 179.75 99.5442 179.75C99.8974 179.75 100.261 179.498 100.306 179.068L100.413 178.576C100.79 176.803 101.573 173.114 102.723 171.908C103.998 170.573 105.498 169.744 107.062 169.508L107.267 169.441C107.527 169.303 107.848 169.136 107.848 168.618C107.848 168.1 107.524 167.933 107.267 167.797" fill="#EC008C"/>
</g>
<defs>
<clipPath id="clip0_9898_54212">
<rect width="106.367" height="192" fill="white" transform="translate(46.31 4)"/>
</clipPath>
</defs>
</svg>
