<svg width="200" height="200" viewBox="0 0 200 200" fill="none" xmlns="http://www.w3.org/2000/svg">
<path d="M99.9983 194C99.8061 194 99.6164 193.979 99.4294 193.935C73.9449 188.045 55.5947 175.523 44.8907 156.71C37.3485 143.457 33.68 127.562 33.68 108.116C33.68 98.96 33.68 47.7182 33.68 47.7182C33.68 43.5328 35.9793 39.7578 39.6815 37.869C42.4978 36.4322 45.3869 35.0838 48.2708 33.8653C55.7116 30.7165 63.4591 28.2509 71.3312 26.518L70.6947 24.1849C70.0894 21.9688 70.3855 19.6513 71.5261 17.656C72.6666 15.6607 74.5139 14.2317 76.73 13.6264L76.8703 13.5874C77.7848 11.4674 79.6451 9.85397 81.9418 9.29278C83.3447 8.94984 86.5299 8.17302 91.0454 7.50271L95.0672 3.89399C97.8783 1.36867 102.118 1.36867 104.929 3.89399L108.949 7.50271C113.464 8.17302 116.649 8.94984 118.052 9.29278C120.349 9.85397 122.212 11.4674 123.124 13.5874L123.264 13.6264C125.48 14.2291 127.327 15.6607 128.468 17.656C129.609 19.6513 129.902 21.9688 129.299 24.1849L128.663 26.518C136.538 28.2509 144.282 30.7191 151.723 33.8653C154.61 35.0864 157.499 36.4322 160.313 37.869C164.015 39.7578 166.314 43.5328 166.314 47.7182V108.116C166.314 127.562 162.648 143.457 155.106 156.71C144.399 175.52 126.052 188.045 100.567 193.935C100.38 193.979 100.188 194 99.9983 194Z" fill="white"/>
<path d="M159.167 40.1243C156.415 38.7187 153.607 37.4093 150.741 36.196C142.57 32.7405 134.142 30.1555 125.519 28.4433L126.86 23.52C127.741 20.2854 125.834 16.9495 122.599 16.0661L121.126 15.6634C120.785 13.7824 119.401 12.2236 117.452 11.7481C115.808 11.348 112.508 10.553 107.829 9.8957L103.238 5.77516C101.394 4.12019 98.598 4.12019 96.7533 5.77516L92.1626 9.8957C87.4834 10.5556 84.1839 11.348 82.5393 11.7481C80.5907 12.2236 79.206 13.7824 78.8656 15.6634L77.3925 16.0661C74.1579 16.9469 72.2509 20.2854 73.1317 23.52L74.4723 28.4433C65.8493 30.1555 57.4212 32.7405 49.2502 36.196C46.3871 37.4067 43.5786 38.7187 40.8247 40.1243C37.9772 41.5766 36.2027 44.5228 36.2027 47.721C36.2027 47.721 36.2027 98.9602 36.2027 108.118C36.2027 136.18 43.9476 178.521 99.9931 191.472C156.036 178.521 163.784 136.178 163.784 108.118V47.721C163.784 44.5228 162.009 41.5766 159.162 40.1243H159.167Z" fill="#002B5C"/>
<path d="M95.3503 177.884H89.4345C88.8863 177.884 88.4421 177.44 88.4421 176.892V171.303C88.4421 170.755 88.8863 170.311 89.4345 170.311H97.2262C97.7743 170.311 98.2186 170.755 98.2186 171.303C98.2186 171.852 97.7743 172.296 97.2262 172.296H90.427V175.899H95.3503C95.8985 175.899 96.3428 176.344 96.3428 176.892C96.3428 177.44 95.8985 177.884 95.3503 177.884Z" fill="#FFE512"/>
<path d="M89.4345 183.473C88.8863 183.473 88.4421 183.028 88.4421 182.48V180.589C88.4421 180.041 88.8863 179.596 89.4345 179.596C89.9827 179.596 90.427 180.041 90.427 180.589V182.48C90.427 183.028 89.9827 183.473 89.4345 183.473Z" fill="#FFE512"/>
<path d="M102.859 176.068C102.76 176.068 102.661 176.053 102.563 176.021C102.038 175.858 101.747 175.299 101.91 174.777C102.744 172.109 105.184 170.246 107.844 170.246C109.661 170.246 111.388 170.851 112.591 171.906C113.004 172.267 113.043 172.896 112.682 173.309C112.321 173.719 111.692 173.761 111.279 173.4C110.437 172.659 109.185 172.233 107.844 172.233C106.044 172.233 104.384 173.522 103.807 175.369C103.675 175.795 103.282 176.066 102.859 176.066V176.068Z" fill="#FFE512"/>
<path d="M107.844 183.532C105.184 183.532 102.744 181.67 101.91 179.004C101.747 178.482 102.038 177.923 102.563 177.759C103.085 177.598 103.643 177.887 103.807 178.412C104.384 180.259 106.044 181.547 107.844 181.547C109.185 181.547 110.435 181.124 111.279 180.384C111.692 180.022 112.318 180.061 112.682 180.474C113.043 180.888 113.004 181.514 112.591 181.877C111.391 182.932 109.661 183.538 107.844 183.538V183.532Z" fill="#FFE512"/>
<path d="M101.974 111.011C103.066 109.919 103.066 108.149 101.974 107.057C100.882 105.965 99.1122 105.965 98.0205 107.057C96.9288 108.149 96.9288 109.919 98.0205 111.011C99.1122 112.102 100.882 112.102 101.974 111.011Z" fill="#13B5EA"/>
<path d="M110.292 157.38C109.814 157.38 109.383 157.048 109.279 156.562C109.157 156.001 109.512 155.447 110.074 155.325C120.471 153.065 129.931 147.245 136.712 138.942C143.589 130.519 147.374 119.898 147.374 109.033C147.374 91.1452 137.447 74.9644 121.464 66.8064C120.952 66.5466 120.749 65.9205 121.012 65.4087C121.271 64.8969 121.897 64.6942 122.409 64.9566C139.089 73.4705 149.453 90.3605 149.453 109.033C149.453 120.376 145.498 131.465 138.32 140.256C131.243 148.924 121.367 154.998 110.513 157.357C110.437 157.373 110.365 157.38 110.292 157.38Z" fill="#13B5EA"/>
<path d="M89.7073 157.38C89.6346 157.38 89.5593 157.373 89.4865 157.357C78.6318 154.998 68.7565 148.924 61.6794 140.257C54.5009 131.465 50.5466 120.376 50.5466 109.033C50.5466 90.3606 60.9077 73.4706 77.5899 64.9567C78.1018 64.6969 78.7253 64.8995 78.9877 65.4088C79.2475 65.9206 79.0449 66.5441 78.5356 66.8065C62.5549 74.9645 52.6251 91.1452 52.6251 109.033C52.6251 119.898 56.4131 130.519 63.2876 138.942C70.0685 147.248 79.5281 153.065 89.9256 155.325C90.4868 155.448 90.8427 156.001 90.7206 156.562C90.6141 157.048 90.1854 157.38 89.7073 157.38Z" fill="#13B5EA"/>
<path d="M110.292 150.033C109.829 150.033 109.409 149.721 109.286 149.254C109.144 148.698 109.479 148.131 110.032 147.988C127.808 143.408 140.222 127.388 140.222 109.033C140.222 95.3358 133.326 82.6988 121.778 75.232C121.297 74.9202 121.16 74.2785 121.469 73.7952C121.781 73.3146 122.422 73.1769 122.906 73.4861C135.049 81.3374 142.298 94.6266 142.298 109.03C142.298 128.334 129.242 145.18 110.549 149.997C110.461 150.02 110.375 150.03 110.289 150.03L110.292 150.033Z" fill="#13B5EA"/>
<path d="M89.7074 150.033C89.6216 150.033 89.5333 150.023 89.4475 149.999C70.7544 145.183 57.6991 128.337 57.6991 109.033C57.6991 94.6293 64.9477 81.3402 77.0911 73.4888C77.5718 73.1771 78.2161 73.3148 78.5279 73.798C78.8396 74.2786 78.7019 74.923 78.2187 75.2347C66.6703 82.7016 59.775 95.3386 59.775 109.036C59.775 127.391 72.1886 143.411 89.9646 147.991C90.5206 148.134 90.8531 148.7 90.7102 149.256C90.5881 149.724 90.1672 150.036 89.7048 150.036L89.7074 150.033Z" fill="#13B5EA"/>
<path d="M110.292 142.592C109.85 142.592 109.442 142.309 109.302 141.867C109.128 141.322 109.432 140.737 109.978 140.563C116.527 138.485 122.409 134.286 126.538 128.739C130.809 123.003 133.067 116.188 133.067 109.033C133.067 98.651 128.076 88.7315 119.715 82.5014C119.255 82.1584 119.159 81.5089 119.502 81.049C119.845 80.5892 120.495 80.4931 120.954 80.836C129.837 87.4559 135.142 97.9963 135.142 109.033C135.142 116.64 132.742 123.883 128.2 129.981C123.812 135.874 117.561 140.334 110.601 142.543C110.497 142.577 110.391 142.592 110.287 142.592H110.292Z" fill="#13B5EA"/>
<path d="M89.7074 142.592C89.6034 142.592 89.4969 142.577 89.393 142.543C82.4328 140.334 76.1818 135.874 71.7937 129.981C67.2522 123.883 64.8516 116.64 64.8516 109.033C64.8516 97.9963 70.1543 87.4559 79.0397 80.836C79.4995 80.4931 80.1491 80.5892 80.492 81.049C80.835 81.5089 80.7388 82.1584 80.279 82.5014C71.9184 88.7315 66.9275 98.6484 66.9275 109.033C66.9275 116.188 69.1852 123.003 73.4564 128.739C77.5874 134.286 83.4694 138.485 90.0165 140.563C90.5621 140.737 90.8661 141.319 90.692 141.867C90.5517 142.309 90.1438 142.592 89.7022 142.592H89.7074Z" fill="#13B5EA"/>
<path d="M110.292 134.982C109.884 134.982 109.497 134.741 109.333 134.341C109.112 133.811 109.364 133.203 109.894 132.984C119.627 128.947 125.917 119.547 125.917 109.035C125.917 100.922 122.207 93.4236 115.735 88.4639C115.28 88.1157 115.194 87.4636 115.543 87.0089C115.891 86.5543 116.543 86.4685 116.997 86.8167C123.984 92.1739 127.993 100.272 127.993 109.038C127.993 120.394 121.201 130.547 110.689 134.907C110.559 134.962 110.424 134.988 110.292 134.988V134.982Z" fill="#13B5EA"/>
<path d="M89.7047 134.982C89.5722 134.982 89.4371 134.956 89.3072 134.902C78.7954 130.542 72.0041 120.389 72.0041 109.033C72.0041 100.27 76.0103 92.1688 82.9965 86.8116C83.4512 86.4634 84.1033 86.5492 84.4514 87.0038C84.7996 87.4585 84.7139 88.1106 84.2592 88.4587C77.79 93.4211 74.0774 100.919 74.0774 109.03C74.0774 119.542 80.3673 128.944 90.0997 132.979C90.6297 133.198 90.8817 133.805 90.6608 134.335C90.4946 134.736 90.1074 134.977 89.7021 134.977L89.7047 134.982Z" fill="#13B5EA"/>
<path d="M101.866 20.2594C101.57 20.2594 101.277 20.1347 101.071 19.8904C100.702 19.4514 100.757 18.7967 101.196 18.4277L103.345 16.6169L99.9983 13.6135L96.652 16.6169L98.8006 18.4277C99.2397 18.7967 99.2942 19.454 98.9253 19.8904C98.5564 20.3295 97.8991 20.3841 97.4626 20.0152L94.3995 17.4327C94.1708 17.2378 94.0357 16.9546 94.0305 16.6558C94.0253 16.3545 94.1526 16.0687 94.3761 15.866L99.3046 11.4415C99.6995 11.0882 100.297 11.0882 100.692 11.4415L105.621 15.866C105.844 16.0661 105.969 16.3545 105.966 16.6558C105.961 16.9572 105.826 17.2404 105.597 17.4327L102.537 20.0152C102.342 20.1788 102.103 20.2594 101.866 20.2594Z" fill="#FFE512"/>
<path d="M116.738 35.4399C116.691 35.4399 116.642 35.4373 116.595 35.4295C111.118 34.6735 105.535 34.289 100.001 34.289C94.467 34.289 88.8838 34.6735 83.407 35.4295C82.8355 35.5075 82.3133 35.11 82.2353 34.5436C82.1574 33.9746 82.5549 33.4498 83.1213 33.3719C88.6915 32.6028 94.3709 32.2131 99.9983 32.2131C105.626 32.2131 111.305 32.6028 116.875 33.3719C117.444 33.4498 117.839 33.9746 117.761 34.5436C117.689 35.0632 117.244 35.4399 116.735 35.4399H116.738Z" fill="#FFE512"/>
<path d="M110.505 30.3475C110.43 30.3475 110.352 30.3397 110.274 30.3215C109.715 30.1942 109.364 29.6382 109.489 29.0796L111.471 20.3241L100.617 28.4015C100.248 28.6743 99.7437 28.6743 99.3774 28.4015L88.5227 20.3241L90.505 29.0796C90.6323 29.6382 90.2815 30.1942 89.7204 30.3215C89.1592 30.4488 88.6058 30.0981 88.4785 29.5369L85.8752 18.043C85.7791 17.6195 85.9584 17.1805 86.3221 16.944C86.6858 16.7076 87.1587 16.7206 87.5094 16.9804L99.9957 26.2737L112.482 16.9804C112.833 16.7206 113.303 16.705 113.669 16.944C114.033 17.1805 114.212 17.6195 114.116 18.043L111.513 29.5369C111.404 30.0201 110.975 30.3449 110.502 30.3449L110.505 30.3475Z" fill="#FFE512"/>
<path d="M82.8537 31.0466C82.3964 31.0466 81.9781 30.7426 81.8534 30.2802L79.7724 22.647C79.6217 22.0937 79.949 21.5221 80.5024 21.3714C81.0558 21.2207 81.6274 21.5481 81.7781 22.1015L83.8591 29.7346C84.0098 30.288 83.6824 30.8595 83.1291 31.0102C83.0381 31.0362 82.9446 31.0466 82.8563 31.0466H82.8537Z" fill="#FFE512"/>
<path d="M117.146 31.0462C117.055 31.0462 116.964 31.0332 116.873 31.0098C116.319 30.8591 115.992 30.2876 116.143 29.7342L118.224 22.101C118.374 21.5477 118.949 21.2229 119.499 21.371C120.053 21.5217 120.38 22.0933 120.229 22.6466L118.148 30.2798C118.024 30.7422 117.603 31.0462 117.148 31.0462H117.146Z" fill="#FFE512"/>
<path d="M54.74 54.5174C54.5009 54.5174 54.2697 54.4316 54.0878 54.2732L49.1515 49.9837C48.7384 49.6226 48.6942 48.9965 49.0528 48.5834C49.4139 48.1703 50.04 48.1261 50.4531 48.4847L54.4931 51.9973L56.2001 49.1498C56.4833 48.6795 57.0912 48.5262 57.5641 48.8094C58.0343 49.0926 58.1876 49.7006 57.9044 50.1734L55.5895 54.0367C55.4388 54.2888 55.1842 54.4602 54.8932 54.507C54.8413 54.5148 54.7893 54.52 54.7374 54.52L54.74 54.5174Z" fill="white"/>
<path d="M49.8037 59.6252C49.2555 59.6252 48.8112 59.1809 48.8112 58.6327V53.5977C48.8112 53.0495 49.2555 52.6052 49.8037 52.6052C50.3519 52.6052 50.7961 53.0495 50.7961 53.5977V58.6327C50.7961 59.1809 50.3519 59.6252 49.8037 59.6252Z" fill="white"/>
<path d="M59.7413 55.6556C59.1931 55.6556 58.7488 55.2113 58.7488 54.6631V45.2659C58.7488 44.7177 59.1931 44.2734 59.7413 44.2734C60.2895 44.2734 60.7337 44.7177 60.7337 45.2659V54.6631C60.7337 55.2113 60.2895 55.6556 59.7413 55.6556Z" fill="white"/>
<path d="M89.5489 46.2711C89.2683 46.2711 88.9981 46.1516 88.8111 45.9412L83.5733 40.1163C83.207 39.7084 83.2408 39.0797 83.6487 38.7133C84.0566 38.347 84.6853 38.3808 85.0516 38.7887L89.4944 43.7276L91.2013 41.5218C91.5364 41.088 92.16 41.0074 92.5938 41.3452C93.0277 41.6803 93.1083 42.3039 92.7705 42.7377L90.3361 45.884C90.1569 46.1178 89.8815 46.2581 89.5879 46.2685C89.5749 46.2685 89.5645 46.2685 89.5515 46.2685L89.5489 46.2711Z" fill="white"/>
<path d="M84.3086 49.8437C83.7604 49.8437 83.3161 49.3994 83.3161 48.8513V43.8162C83.3161 43.268 83.7604 42.8237 84.3086 42.8237C84.8568 42.8237 85.3011 43.268 85.3011 43.8162V48.8513C85.3011 49.3994 84.8568 49.8437 84.3086 49.8437Z" fill="white"/>
<path d="M94.7996 48.9422C94.2514 48.9422 93.8071 48.4979 93.8071 47.9497V38.5525C93.8071 38.0043 94.2514 37.5601 94.7996 37.5601C95.3478 37.5601 95.7921 38.0043 95.7921 38.5525V47.9497C95.7921 48.4979 95.3478 48.9422 94.7996 48.9422Z" fill="white"/>
<path d="M68.2421 48.3342C68.0265 48.3342 67.8135 48.2641 67.6368 48.129C67.3926 47.9419 67.2471 47.6483 67.2471 47.3417V42.6444C67.2471 42.195 67.5485 41.8027 67.9823 41.6857C70.6687 40.9635 73.4149 40.3218 76.1455 39.784C76.6833 39.6774 77.2055 40.0282 77.312 40.566C77.4185 41.1038 77.0678 41.626 76.53 41.7325C74.0904 42.2132 71.6404 42.7769 69.2346 43.4083V46.0531C70.9052 45.6218 72.5965 45.2243 74.2801 44.8632C74.8153 44.7515 75.3453 45.0918 75.4596 45.627C75.5739 46.1648 75.231 46.6922 74.6958 46.8065C72.6251 47.2482 70.5388 47.7522 68.4994 48.3004C68.4136 48.3238 68.3279 48.3342 68.2421 48.3342Z" fill="white"/>
<path d="M103.604 48.8848C103.056 48.8848 102.612 48.4405 102.612 47.8923V38.4951C102.612 38.2119 102.732 37.9443 102.942 37.7547C103.155 37.5641 104.075 37.507 105.701 37.5832C106.519 37.6222 108.019 37.6949 108.853 37.7677C111.017 37.9235 112.789 39.7916 112.789 41.9324C112.789 42.9586 112.383 43.9017 111.645 44.5876C110.866 45.3125 109.819 45.6684 108.697 45.5879C107.356 45.4943 106.912 45.4735 106.779 45.4657C106.049 45.4294 105.784 44.85 105.784 44.4707C105.784 43.9225 106.229 43.4782 106.777 43.4782C106.805 43.4782 106.834 43.4782 106.862 43.4808C107.039 43.4912 107.507 43.5146 108.834 43.6055C109.401 43.6471 109.92 43.4782 110.289 43.1327C110.622 42.8235 110.799 42.4078 110.799 41.9324C110.799 40.8308 109.835 39.8305 108.694 39.7474C107.761 39.6669 105.792 39.5707 104.597 39.5214V47.8897C104.597 48.4379 104.153 48.8822 103.604 48.8822V48.8848Z" fill="white"/>
<path d="M135.849 54.211C135.301 54.211 134.857 53.7667 134.857 53.2185V43.8213C134.857 43.2731 135.301 42.8289 135.849 42.8289C136.397 42.8289 136.842 43.2731 136.842 43.8213V53.2185C136.842 53.7667 136.397 54.211 135.849 54.211Z" fill="white"/>
<path d="M127.125 51.8804C126.577 51.8804 126.132 51.4362 126.132 50.888V47.0298C123.716 46.4972 121.261 46.0322 118.821 45.6503C118.338 45.5749 117.982 45.1592 117.982 44.6682V39.9241C117.982 39.3759 118.426 38.9316 118.975 38.9316C119.523 38.9316 119.967 39.3759 119.967 39.9241V43.8212C122.435 44.2265 124.914 44.7123 127.343 45.2657C127.795 45.3697 128.115 45.7698 128.115 46.2348V50.888C128.115 51.4362 127.67 51.8804 127.122 51.8804H127.125Z" fill="white"/>
<path d="M127.125 44.0291C126.577 44.0291 126.132 43.5848 126.132 43.0366V41.4908C126.132 40.9426 126.577 40.4983 127.125 40.4983C127.673 40.4983 128.117 40.9426 128.117 41.4908V43.0366C128.117 43.5848 127.673 44.0291 127.125 44.0291Z" fill="white"/>
<path d="M68.2421 53.0314C68.0265 53.0314 67.8135 52.9613 67.6368 52.8262C67.3926 52.6391 67.2471 52.3455 67.2471 52.039V50.2125C67.2471 49.6643 67.6914 49.2201 68.2396 49.2201C68.7877 49.2201 69.232 49.6643 69.232 50.2125V50.7503C71.5157 50.1606 73.8358 49.6331 76.1429 49.1785C76.6807 49.072 77.2029 49.4227 77.3094 49.9605C77.4159 50.4983 77.0652 51.0205 76.5274 51.127C73.841 51.657 71.139 52.2884 68.4968 52.9976C68.411 53.021 68.3253 53.0314 68.2396 53.0314H68.2421Z" fill="white"/>
<path d="M118.975 50.3137C118.426 50.3137 117.982 49.8695 117.982 49.3213V47.7754C117.982 47.2272 118.426 46.783 118.975 46.783C119.523 46.783 119.967 47.2272 119.967 47.7754V49.3213C119.967 49.8695 119.523 50.3137 118.975 50.3137Z" fill="white"/>
<path d="M150.481 51.2363C150.18 51.2363 149.881 51.0986 149.686 50.8388C149.029 49.9632 148.034 49.2643 146.958 48.924C145.724 48.5317 144.849 48.6772 144.472 48.9188C144.01 49.2176 143.396 49.0851 143.098 48.6226C142.799 48.1627 142.931 47.547 143.394 47.2482C144.412 46.5909 145.932 46.5104 147.561 47.0274C149.024 47.4924 150.378 48.4459 151.276 49.6436C151.606 50.0827 151.518 50.7063 151.079 51.0336C150.9 51.1687 150.692 51.2337 150.484 51.2337L150.481 51.2363Z" fill="white"/>
<path d="M148.852 58.8955C148.193 58.8955 147.465 58.7734 146.706 58.5318C145.093 58.0096 142.999 56.8326 142.404 55.227C142.214 54.7126 142.477 54.141 142.991 53.9514C143.506 53.7591 144.077 54.0241 144.267 54.5385C144.534 55.2634 145.846 56.1675 147.317 56.643C148.613 57.0587 149.484 56.9314 149.832 56.6923C149.972 56.5988 150.035 56.4897 150.045 56.3156C150.097 55.5414 148.923 54.5333 146.977 53.689C145.433 53.0187 144.254 52.4185 143.508 51.6625C143.121 51.2728 143.126 50.644 143.516 50.2569C143.906 49.8698 144.534 49.875 144.922 50.2647C145.475 50.8259 146.618 51.3637 147.769 51.8651C151.44 53.4603 152.11 55.24 152.027 56.4507C151.973 57.2301 151.591 57.9004 150.946 58.3369C150.396 58.7084 149.676 58.8981 148.852 58.8981V58.8955Z" fill="white"/>
<path d="M99.2501 87.8767C93.9422 87.8767 90.705 86.1801 88.9254 84.759C86.8781 83.1248 85.566 80.9035 85.4154 78.8172C85.3946 78.5158 85.4985 78.2223 85.7037 78.0014C85.909 77.7806 86.1974 77.6559 86.4962 77.6559H89.2709C89.8685 77.6559 90.3543 78.1417 90.3543 78.7393C90.3543 79.3368 89.8685 79.8227 89.2709 79.8227H87.829C88.7539 82.4623 92.2041 85.7099 99.2527 85.7099C106.301 85.7099 113.934 82.018 113.934 71.6154C113.934 62.1844 106.509 58.8225 99.5619 58.8225C91.9599 58.8225 87.0495 62.1064 87.0495 67.1882C87.0495 71.0906 90.7674 75.0292 99.0734 75.0292C101.388 75.0292 103.446 74.6655 105.361 73.9199C105.919 73.7016 106.545 73.977 106.764 74.5356C106.982 75.0942 106.707 75.7203 106.148 75.9385C104.007 76.7725 101.627 77.196 99.0734 77.196C89.2683 77.196 84.8802 72.1687 84.8802 67.1882C84.8802 60.8879 90.7804 56.6531 99.5593 56.6531C109.606 56.6531 116.099 62.5247 116.099 71.6128C116.099 75.6086 114.771 79.5161 112.453 82.3376C109.479 85.9619 104.911 87.8767 99.2501 87.8767ZM99.2059 83.1612C94.3631 83.1612 91.5078 80.6618 91.3078 78.8588C91.2428 78.2638 91.6715 77.7286 92.2665 77.6611C92.8614 77.5961 93.3966 78.0248 93.4616 78.6172C93.5473 79.1887 95.4335 80.9918 99.2059 80.9918C103.373 80.9918 107.881 78.9731 108.042 73.3067C108.06 72.7092 108.559 72.2467 109.157 72.2545C109.754 72.2727 110.227 72.7715 110.209 73.3691C110.118 76.5751 108.858 79.1861 106.564 80.9191C104.654 82.3636 102.04 83.1586 99.2059 83.1586V83.1612ZM99.5151 72.0726C94.202 72.0726 90.77 70.0591 90.77 66.944C90.77 63.8289 94.189 61.7531 99.6918 61.7531C105.194 61.7531 109.105 64.1927 110.042 67.9677C110.185 68.5496 109.832 69.1368 109.253 69.2797C108.671 69.4252 108.084 69.0693 107.941 68.4899C107.252 65.7125 104.015 63.9199 99.6944 63.9199C96.3325 63.9199 92.9394 64.8552 92.9394 66.9414C92.9394 68.6847 95.644 69.9032 99.5177 69.9032C101.89 69.9032 103.908 69.5057 105.688 68.6873C106.231 68.4379 106.875 68.6769 107.125 69.2199C107.374 69.7629 107.135 70.4073 106.592 70.6567C104.522 71.6076 102.209 72.07 99.5177 72.07L99.5151 72.0726Z" fill="white"/>
<path d="M102.861 161.615C102.264 161.615 101.778 161.129 101.778 160.532V132.675H99.8191C99.2215 132.675 98.7357 132.189 98.7357 131.592C98.7357 130.994 99.2215 130.508 99.8191 130.508H102.861C103.459 130.508 103.945 130.994 103.945 131.592V160.534C103.945 161.132 103.459 161.618 102.861 161.618V161.615Z" fill="white"/>
<path d="M99.6086 161.615H97.1379C96.5403 161.615 96.0545 161.129 96.0545 160.532V138.775H95.1218C94.7892 138.775 94.4774 138.625 94.2722 138.365C94.0669 138.105 93.9916 137.765 94.0669 137.443L95.5141 131.34C95.6518 130.758 96.2363 130.397 96.8183 130.534C97.4003 130.672 97.7614 131.257 97.6237 131.839L96.4935 136.606H97.1405C97.738 136.606 98.2239 137.092 98.2239 137.689V159.446H99.6112C100.209 159.446 100.695 159.932 100.695 160.529C100.695 161.127 100.209 161.613 99.6112 161.613L99.6086 161.615Z" fill="white"/>
<path d="M98.4083 121.675C98.3589 121.675 98.3096 121.673 98.2602 121.665C91.9807 120.807 87.247 115.377 87.247 109.036C87.247 102.005 92.9679 96.2842 99.9983 96.2842C107.029 96.2842 112.75 102.005 112.75 109.036C112.75 115.38 108.016 120.81 101.736 121.665C101.141 121.745 100.596 121.33 100.515 120.737C100.435 120.145 100.85 119.599 101.443 119.516C106.652 118.804 110.583 114.299 110.583 109.033C110.583 103.198 105.836 98.4484 99.9983 98.4484C94.1605 98.4484 89.4138 103.195 89.4138 109.033C89.4138 114.299 93.3421 118.804 98.5538 119.516C99.1462 119.597 99.5619 120.142 99.4813 120.737C99.406 121.28 98.9435 121.675 98.4083 121.675Z" fill="white"/>
<path d="M99.9983 127.212C89.975 127.212 81.8222 119.056 81.8222 109.035C81.8222 99.6123 88.8864 91.8363 98.2576 90.9425C98.85 90.8854 99.3826 91.3219 99.4398 91.9194C99.4969 92.5144 99.0604 93.0444 98.4629 93.1015C90.2114 93.8862 83.9916 100.737 83.9916 109.035C83.9916 117.864 91.1727 125.045 100.001 125.045C108.829 125.045 116.01 117.864 116.01 109.035C116.01 100.737 109.788 93.8862 101.539 93.1015C100.944 93.0444 100.505 92.517 100.562 91.9194C100.619 91.3244 101.152 90.8854 101.744 90.9425C111.113 91.8337 118.18 99.6123 118.18 109.035C118.18 119.059 110.024 127.212 100.004 127.212H99.9983Z" fill="white"/>
<path d="M82.6822 178.874C82.5393 178.874 82.399 178.846 82.2639 178.786C69.0761 172.995 57.3796 161.924 50.9727 149.173C50.7155 148.661 50.9208 148.035 51.4352 147.778C51.947 147.521 52.5705 147.726 52.8303 148.24C58.7903 160.1 69.484 170.459 81.6429 176.219V168.864C76.2467 167.206 71.1052 164.821 66.3481 161.766C65.8649 161.457 65.7246 160.812 66.0337 160.332C66.3429 159.851 66.9872 159.708 67.4679 160.017C72.2769 163.104 77.4938 165.484 82.9732 167.094C83.4148 167.224 83.7188 167.63 83.7188 168.092V177.835C83.7188 178.186 83.5421 178.513 83.2486 178.705C83.0771 178.817 82.8796 178.874 82.6796 178.874H82.6822Z" fill="#D31245"/>
<path d="M117.314 178.874C117.117 178.874 116.917 178.817 116.745 178.705C116.452 178.513 116.275 178.185 116.275 177.835V168.092C116.275 167.632 116.579 167.224 117.021 167.094C122.5 165.486 127.717 163.104 132.526 160.017C133.009 159.708 133.651 159.848 133.96 160.331C134.269 160.815 134.129 161.456 133.646 161.766C128.889 164.818 123.747 167.203 118.351 168.864V176.219C130.51 170.459 141.206 160.1 147.164 148.24C147.421 147.728 148.047 147.52 148.559 147.778C149.071 148.035 149.279 148.658 149.021 149.173C142.614 161.924 130.918 172.992 117.73 178.786C117.598 178.845 117.455 178.874 117.312 178.874H117.314Z" fill="#D31245"/>
<path d="M102.095 166.281C101.539 166.281 101.079 165.842 101.058 165.281C101.038 164.707 101.484 164.226 102.059 164.205C116.015 163.694 129.149 157.965 139.04 148.074C148.93 138.183 154.662 125.05 155.171 111.093C155.192 110.519 155.667 110.072 156.247 110.093C156.821 110.114 157.268 110.594 157.247 111.168C156.717 125.65 150.77 139.279 140.507 149.542C130.242 159.807 116.616 165.751 102.134 166.281C102.121 166.281 102.108 166.281 102.095 166.281Z" fill="#D31245"/>
<path d="M97.9042 166.281C97.8913 166.281 97.8783 166.281 97.8653 166.281C83.3836 165.751 69.7542 159.804 59.4918 149.542C49.2268 139.277 43.2824 125.65 42.7524 111.168C42.7316 110.594 43.1785 110.114 43.7527 110.093C44.3268 110.072 44.8075 110.519 44.8283 111.093C45.3401 125.05 51.0688 138.183 60.9597 148.074C70.8505 157.965 83.9838 163.696 97.9406 164.205C98.5148 164.226 98.9617 164.707 98.9409 165.281C98.9201 165.842 98.4602 166.281 97.9042 166.281Z" fill="#D31245"/>
<path d="M43.7891 107.976C43.7761 107.976 43.7631 107.976 43.7501 107.976C43.1759 107.955 42.729 107.474 42.7498 106.9C43.2798 92.4183 49.2268 78.7888 59.4892 68.5264C69.7542 58.2615 83.3811 52.3171 97.8627 51.7871C98.4473 51.7663 98.9175 52.2132 98.9383 52.7873C98.9591 53.3615 98.5122 53.8421 97.938 53.8629C83.9812 54.3748 70.848 60.1035 60.9571 69.9944C51.0662 79.8852 45.3349 93.0185 44.8257 106.975C44.8049 107.536 44.345 107.976 43.7891 107.976Z" fill="#D31245"/>
<path d="M156.208 107.978C155.652 107.978 155.192 107.539 155.171 106.978C154.659 93.021 148.93 79.8878 139.04 69.9969C129.149 60.1061 116.015 54.3747 102.059 53.8655C101.484 53.8447 101.038 53.3641 101.058 52.7899C101.079 52.2157 101.565 51.7637 102.134 51.7896C116.616 52.3196 130.245 58.264 140.507 68.529C150.772 78.794 156.717 92.4209 157.247 106.903C157.268 107.477 156.821 107.957 156.247 107.978C156.234 107.978 156.221 107.978 156.208 107.978Z" fill="#D31245"/>
<path d="M43.3785 86.6114C43.311 86.6114 43.2434 86.6036 43.1759 86.5906C42.69 86.4945 42.3393 86.0684 42.3393 85.5722V73.091C42.3393 72.5169 42.8044 72.0518 43.3785 72.0518C43.9527 72.0518 44.4178 72.5169 44.4178 73.091V80.8359C48.4006 72.9871 53.9787 66.1126 60.8428 60.5761C56.2338 62.1532 51.708 64.0108 47.3328 66.1256C46.8158 66.375 46.1948 66.1594 45.9454 65.6424C45.696 65.1254 45.9117 64.5044 46.4287 64.255C52.8043 61.1737 59.4866 58.6276 66.2935 56.692C66.7872 56.5491 67.3094 56.7933 67.5224 57.261C67.7354 57.7287 67.5744 58.282 67.1457 58.5626C56.8911 65.2527 49.0034 74.7304 44.3372 85.9723C44.1735 86.3646 43.7916 86.614 43.3785 86.614V86.6114Z" fill="#D31245"/>
<path d="M156.618 86.6116C156.205 86.6116 155.823 86.3647 155.659 85.9698C150.993 74.728 143.108 65.2502 132.851 58.5602C132.42 58.2796 132.261 57.7262 132.474 57.2586C132.687 56.7909 133.209 56.5493 133.703 56.6896C140.51 58.6277 147.195 61.1713 153.568 64.2526C154.085 64.502 154.301 65.1229 154.051 65.6399C153.802 66.1569 153.181 66.3726 152.664 66.1232C148.289 64.0083 143.763 62.1507 139.154 60.5737C146.018 66.1102 151.596 72.9847 155.579 80.8335V73.0912C155.579 72.517 156.044 72.052 156.618 72.052C157.192 72.052 157.657 72.517 157.657 73.0912V85.5723C157.657 86.0686 157.307 86.4946 156.821 86.5908C156.753 86.6038 156.686 86.6116 156.618 86.6116Z" fill="#D31245"/>
<path d="M49.4554 70.2827H43.3786C42.8044 70.2827 42.3393 69.8177 42.3393 69.2435V47.4145C42.3393 47.0326 42.5498 46.6793 42.8875 46.5C54.2073 40.4361 66.3273 36.2428 78.9124 34.0344C79.4787 33.9331 80.0165 34.3124 80.1153 34.8788C80.214 35.4426 79.8373 35.983 79.2709 36.0817C67.1067 38.2173 55.3816 42.2392 44.4152 48.0406V68.2095H49.4528C50.027 68.2095 50.4921 68.6745 50.4921 69.2487C50.4921 69.8229 50.027 70.2879 49.4528 70.2879L49.4554 70.2827Z" fill="#D31245"/>
<path d="M156.618 70.2825H150.541C149.967 70.2825 149.502 69.8175 149.502 69.2433C149.502 68.6691 149.967 68.2041 150.541 68.2041H155.579V48.0353C144.612 42.2338 132.887 38.2094 120.723 36.0763C120.159 35.9776 119.78 35.4398 119.879 34.8734C119.977 34.3097 120.518 33.9303 121.082 34.0291C133.667 36.2374 145.787 40.4307 157.106 46.4946C157.444 46.6765 157.655 47.0272 157.655 47.4091V69.2381C157.655 69.8123 157.19 70.2773 156.615 70.2773L156.618 70.2825Z" fill="#D31245"/>
</svg>
