<svg width="200" height="200" viewBox="0 0 200 200" fill="none" xmlns="http://www.w3.org/2000/svg">
<g clip-path="url(#clip0_9898_54207)">
<path d="M36.1611 125.382L36.2129 126.071L36.2158 126.108L36.2195 126.146V126.153C36.2557 126.555 36.2897 126.935 36.317 127.304C37.1114 138.268 40.644 148.557 46.8161 157.888C51.299 164.665 56.9079 170.684 63.963 176.288C70.9559 181.843 78.8222 186.58 87.3439 190.364C88.4176 190.841 96.3814 194.017 97.9664 194.649L98.1496 194.722L98.338 194.782L98.4607 194.82L100.231 195.373L101.95 194.676L102.032 194.643C103.661 193.993 111.567 190.841 112.636 190.365C121.157 186.58 129.023 181.844 136.016 176.288C143.07 170.684 148.679 164.665 153.162 157.888C159.334 148.557 162.867 138.268 163.661 127.304C163.688 126.936 163.722 126.555 163.758 126.153V126.147L163.762 126.109L163.765 126.071L163.83 125.199L163.844 125.007V4.59106H36.1611V125.382Z" fill="#03FFF7"/>
<path d="M163.843 4.59112V125.005L163.829 125.197L163.764 126.07L163.761 126.108L163.757 126.145V126.152C163.721 126.554 163.687 126.934 163.66 127.303C162.865 138.267 159.333 148.557 153.161 157.887C148.678 164.664 143.069 170.682 136.014 176.287C129.022 181.843 121.155 186.579 112.634 190.364C111.564 190.839 103.66 193.992 102.03 194.641L101.948 194.674L100.23 195.372L98.4592 194.819L98.3365 194.78L98.1481 194.721L97.9649 194.648C96.3792 194.016 88.4153 190.84 87.3425 190.363C78.8207 186.578 70.9544 181.841 63.9615 176.286C56.9065 170.682 51.2982 164.663 46.8146 157.886C40.6426 148.555 37.1099 138.265 36.3156 127.303C36.289 126.934 36.255 126.554 36.2188 126.151V126.144L36.2151 126.107L36.2121 126.069L36.1604 125.38V4.59112H163.842M164.433 4H35.57V125.403L35.5715 125.426L35.6232 126.114L35.6262 126.152V126.156L35.6269 126.161L35.6299 126.198V126.201V126.203V126.205C35.6661 126.604 35.6993 126.981 35.7259 127.347C36.5276 138.412 40.0928 148.797 46.3217 158.213C50.8401 165.043 56.4897 171.106 63.5935 176.75C70.6256 182.337 78.5348 187.099 87.1016 190.905C88.1841 191.386 96.1583 194.565 97.7454 195.198L97.9287 195.271L97.9494 195.28L97.9708 195.286L98.1592 195.345L98.2819 195.384L100.052 195.937L100.255 196.001L100.451 195.921L102.17 195.223L102.25 195.191C103.838 194.558 111.793 191.386 112.874 190.905C121.44 187.1 129.35 182.338 136.382 176.751C143.486 171.107 149.135 165.044 153.653 158.214C159.882 148.798 163.448 138.412 164.249 127.347C164.276 126.985 164.309 126.609 164.345 126.211V126.206L164.346 126.198L164.349 126.161V126.157V126.153L164.352 126.115L164.417 125.242L164.431 125.05L164.433 125.028V4H164.433Z" fill="#001D48"/>
<path d="M41.3053 9.76343V124.812L41.3704 125.685C41.4073 126.099 41.4443 126.515 41.4746 126.929C42.2038 136.997 45.452 146.452 51.129 155.033C55.3075 161.349 60.5574 166.977 67.1794 172.238C73.8295 177.522 81.3197 182.03 89.4424 185.638C90.4791 186.098 99.8801 189.844 99.8801 189.844L100.003 189.883L100.097 189.844C100.097 189.844 109.498 186.098 110.534 185.638C118.657 182.03 126.147 177.522 132.797 172.238C139.419 166.978 144.669 161.35 148.848 155.033C154.525 146.452 157.772 136.996 158.502 126.929C158.532 126.515 158.569 126.099 158.606 125.685L158.671 124.812V9.76343H41.3053ZM108.126 180.218C106.28 181.038 104.325 181.792 102.434 182.521C101.618 182.836 100.802 183.151 99.988 183.472C99.1745 183.151 98.358 182.836 97.5415 182.521C95.6506 181.792 93.6955 181.038 91.8497 180.218C90.3077 179.533 88.79 178.813 87.2981 178.06H112.677C111.185 178.812 109.668 179.532 108.125 180.218H108.126ZM129.107 167.594C126.614 169.575 123.993 171.44 121.258 173.184H78.718C75.9826 171.44 73.3618 169.575 70.8687 167.594C70.5488 167.34 70.2333 167.085 69.9207 166.829H130.055C129.743 167.085 129.427 167.34 129.107 167.594ZM135.49 161.952H64.4861C62.3507 159.839 60.4155 157.653 58.6606 155.376H141.315C139.56 157.653 137.625 159.839 135.49 161.952ZM144.71 150.499H55.2661C54.0188 148.5 52.9135 146.452 51.9551 144.356C75.5112 144.712 94.7174 139.39 98.9986 138.104L100.002 137.791L100.978 138.104C105.26 139.391 124.465 144.712 148.021 144.356C147.062 146.452 145.957 148.501 144.71 150.499ZM149.881 139.717C142.323 139.816 121.296 139.432 100.81 133.056L100.002 132.766L99.2565 133.028C78.7417 139.431 57.6646 139.817 50.0953 139.717C49.3076 137.44 48.6825 135.114 48.2207 132.745C76.3587 133.072 96.0836 121.933 99.4257 119.923L100.001 119.54L100.603 119.955C104.102 122.052 123.767 133.069 151.755 132.745C151.293 135.114 150.668 137.44 149.88 139.717L149.881 139.717ZM152.739 124.682L152.697 125.159C152.657 125.605 152.618 126.053 152.586 126.5C152.549 127.01 152.504 127.518 152.452 128.025C144.179 128.298 122.026 127.592 100.636 114.434L100.002 113.998L99.4471 114.369C78.0235 127.591 55.8107 128.3 47.5239 128.026C47.4722 127.519 47.4271 127.011 47.3902 126.501C47.3577 126.053 47.3178 125.606 47.2786 125.16L47.2365 124.683V120.683C78.2717 119.703 98.4947 101.23 99.8542 99.9549C99.8542 99.9549 99.8557 99.9564 99.8565 99.9572L100.002 99.8116L100.212 100.039C102.2 101.878 122.252 119.72 152.739 120.683V124.683V124.682ZM152.739 115.957C144.243 115.605 119.88 112.862 100.23 93.709L100.002 93.4563L99.7914 93.6654C80.1338 112.858 55.7397 115.605 47.2365 115.958V108.867C81.3197 107.37 98.3964 81.7876 99.988 79.2842C101.58 81.7876 118.656 107.37 152.739 108.867V115.958V115.957ZM152.739 80.4236C150.286 80.2071 146.626 79.6086 142.535 78.0126C142.535 78.0126 137.658 77.052 129.973 75.9437C129.973 75.9437 138.951 84.1455 152.739 85.1526V92.3125C131.588 91.3009 118.964 74.9831 118.964 74.9831C115.047 74.6137 112.683 74.4659 112.683 74.4659C126.361 93.6144 145.31 96.6255 152.739 97.0407V104.142C143.704 103.622 115.792 99.5545 100.048 69.68C100.048 69.68 100.044 69.6726 100.039 69.6601C100.03 69.6416 100.018 69.6283 100.002 69.6194V69.6076C99.9969 69.6083 99.9924 69.6106 99.988 69.612C99.9836 69.6106 99.9784 69.6083 99.9739 69.6076V69.6194C99.9592 69.6283 99.9459 69.6416 99.937 69.6601C99.9311 69.6726 99.9281 69.68 99.9281 69.68C84.1837 99.5537 56.2717 103.622 47.2365 104.142V97.0407C54.6669 96.6255 73.6159 93.6144 87.293 74.4659C87.293 74.4659 84.9285 74.6137 81.0123 74.9831C81.0123 74.9831 68.3882 91.3009 47.2365 92.3125V85.1526C61.0251 84.1455 70.0027 75.9437 70.0027 75.9437C62.3182 77.052 57.4414 78.0126 57.4414 78.0126C53.3494 79.6086 49.6889 80.2071 47.2365 80.4236V15.6946H152.739V80.4244V80.4236Z" fill="#001D48"/>
<path d="M53.3036 31.5396V66.3085L57.1008 69.2124C57.1008 69.2124 63.4295 68.0959 67.152 67.5743L70.8746 63.4047V31.502H65.1792V61.655L64.0627 62.7714L60.1909 63.367L59.2229 62.6222V31.5012L53.3043 31.5382L53.3036 31.5396Z" fill="#001D48"/>
<path d="M75.0065 66.5694V31.5027H80.8135L86.993 47.8819V31.5027H92.8746V65.3036C92.8746 65.3036 90.2685 65.3783 87.7378 65.5268L80.9628 48.6259V65.9731C80.9628 65.9731 77.6126 66.2709 75.0065 66.5686V66.5694Z" fill="#001D48"/>
<path d="M96.9696 65.229C96.9696 65.229 99.5757 65.0797 102.851 65.229V31.5027H96.9696V65.229Z" fill="#001D48"/>
<path d="M120.869 31.5027H110.743L106.946 34.6297V62.1027L110.818 65.4529C114.317 65.5275 120.943 66.1231 120.943 66.1231L124.666 63.2938V34.779L120.869 31.5034V31.5027ZM117.816 60.837L113.87 60.5392L112.828 59.5713V37.0127L113.87 36.1193L117.668 36.194L118.784 37.1619L118.859 60.0929L117.816 60.8377V60.837Z" fill="#001D48"/>
<path d="M134.568 67.8351C134.568 67.8351 131.738 67.4627 128.611 67.0164V31.5027H134.27L140.524 50.7111L140.449 31.5027H146.331V69.9195C146.331 69.9195 143.651 69.324 141.417 68.9516L134.568 50.6365V67.8351Z" fill="#001D48"/>
<path d="M61.8792 23.4028L60.8138 21.2112H59.3337V27.5376H60.7177V23.8882L61.8792 26.2453L63.0415 23.8882V27.5376H64.4248V21.2112H62.9455L61.8792 23.4028Z" fill="#001D48"/>
<path d="M66.852 21.2112L65.9528 22.1104V26.6384L66.852 27.5376H69.402L70.3012 26.6384V22.1104L69.402 21.2112H66.852ZM67.336 26.1891V22.5604L67.4254 22.4717H68.8293L68.9187 22.5604V26.1891L68.8293 26.2786H67.4254L67.336 26.1891Z" fill="#001D48"/>
<path d="M74.7959 23.7944L73.279 21.2112H71.83V27.5376H73.214V23.6547L74.7959 26.3103V27.5376H76.1799V21.2112H74.7959V23.7944Z" fill="#001D48"/>
<path d="M77.7079 22.4717H79.1288V27.5376H80.5128V22.4717H81.9337V21.2112H77.7079V22.4717Z" fill="#001D48"/>
<path d="M83.4618 27.5376H87.1932V26.2778H84.845V25.0047H86.5134V23.7449H84.845V22.4717H87.1932V21.2112H83.4618V27.5376Z" fill="#001D48"/>
<path d="M92.9478 24.7845V22.1104L92.0485 21.2112H88.722V27.5376H90.1052V25.6224H91.0953L91.5985 27.5376H93.0224L92.435 25.2973L92.947 24.7845H92.9478ZM91.5645 22.5604V24.2732L91.4759 24.3626H90.1059V22.4717H91.4759L91.5645 22.5604Z" fill="#001D48"/>
<path d="M94.4403 27.5376H98.1718V26.2778H95.8235V25.0047H97.492V23.7449H95.8235V22.4717H98.1718V21.2112H94.4403V27.5376Z" fill="#001D48"/>
<path d="M101.751 23.4959L100.839 21.2112H99.3983L101.059 25.2101V27.5376H102.443V25.219L104.095 21.2112H102.663L101.751 23.4959Z" fill="#001D48"/>
<path d="M107.908 21.2112V27.5376H111.172L112.071 26.6384V24.7675L111.678 24.3744L112.071 23.9813V22.1104L111.172 21.2112H107.908ZM109.291 26.2778V25.0047H110.413L110.687 25.2788V26.1884L110.598 26.2778H109.29H109.291ZM109.291 23.7449V22.4717H110.599L110.688 22.5604V23.47L110.414 23.7441H109.291L109.291 23.7449Z" fill="#001D48"/>
<path d="M114.726 21.2112L113.316 27.5376H114.721L115.003 26.2401H116.491L116.764 27.5376H118.16L116.831 21.2112H114.726ZM116.23 24.9803H115.283L115.772 22.7525L116.23 24.9803Z" fill="#001D48"/>
<path d="M121.025 23.4959L120.113 21.2112H118.673L120.334 25.2101V27.5376H121.717V25.219L123.369 21.2112H121.937L121.025 23.4959Z" fill="#001D48"/>
<path d="M127.182 27.5376H128.565V25.0047H130.233V23.7449H128.565V22.4717H130.912V21.2112H127.182V27.5376Z" fill="#001D48"/>
<path d="M132.656 26.2778H131.396V27.5377H132.656V26.2778Z" fill="#001D48"/>
<path d="M135.956 22.4717H137.36L137.956 23.0666L138.873 22.1503L137.933 21.2112H135.383L134.483 22.1112V26.6384L135.383 27.5376H137.995L138.873 26.6606L137.956 25.7443L137.422 26.2778H135.956L135.867 26.1891V22.5604L135.956 22.4717Z" fill="#001D48"/>
<path d="M141.528 26.2778H140.268V27.5377H141.528V26.2778Z" fill="#001D48"/>
</g>
<defs>
<clipPath id="clip0_9898_54207">
<rect width="128.864" height="192" fill="white" transform="translate(35.57 4)"/>
</clipPath>
</defs>
</svg>
