<svg width="200" height="200" viewBox="0 0 200 200" fill="none" xmlns="http://www.w3.org/2000/svg">
<g clip-path="url(#clip0_9898_54206)">
<path d="M100 16.4832C53.9487 16.4832 16.4831 53.9488 16.4831 100C16.4831 146.051 53.9487 183.517 100 183.517C146.051 183.517 183.517 146.051 183.517 100C183.517 53.9488 146.051 16.4832 100 16.4832Z" fill="white"/>
<path d="M100 12C51.4752 12 12 51.4752 12 100C12 148.525 51.4752 188 100 188C148.525 188 188 148.525 188 100C188 51.4752 148.525 12 100 12ZM100 183.517C53.9487 183.517 16.4831 146.051 16.4831 100C16.4831 53.9487 53.9487 16.4831 100 16.4831C146.051 16.4831 183.517 53.9487 183.517 100C183.517 146.051 146.051 183.517 100 183.517Z" fill="black"/>
<path d="M26.5398 111.806C27.0689 115.106 27.8161 118.336 28.7674 121.478L36.9307 111.853L26.5398 111.806Z" fill="#FC4456"/>
<path d="M29.0041 122.272C29.0041 122.272 28.9948 122.239 28.9902 122.225C28.9948 122.239 28.9995 122.258 29.0041 122.272Z" fill="#FC4456"/>
<path d="M26.4238 111.11C26.4238 111.11 26.4284 111.143 26.4331 111.161C26.4331 111.143 26.4331 111.129 26.4238 111.11Z" fill="#FC4456"/>
<path d="M44.0637 111.881L41.7804 111.871L30.1458 125.59C30.3917 126.263 30.647 126.931 30.9161 127.595L46.7229 123.093L44.0637 111.885V111.881Z" fill="#5AC4F9"/>
<path d="M29.8673 124.843C29.8673 124.843 29.8812 124.884 29.8905 124.903C29.8812 124.884 29.8766 124.861 29.8673 124.843Z" fill="#5AC4F9"/>
<path d="M32.0903 130.393C32.0903 130.393 32.0996 130.412 32.1042 130.426C32.0996 130.416 32.0949 130.407 32.0903 130.393Z" fill="#FCE354"/>
<path d="M36.2578 138.343C36.2346 138.301 36.2114 138.264 36.1882 138.222C36.2114 138.259 36.2346 138.301 36.2578 138.343Z" fill="#FCE354"/>
<path d="M32.3919 131.034C33.4501 133.326 34.6196 135.554 35.8958 137.716L45.9015 127.186L32.3919 131.034Z" fill="#FCE354"/>
<path d="M37.5294 140.371C37.5294 140.371 37.5572 140.408 37.5711 140.431C37.5572 140.413 37.5433 140.389 37.5294 140.371Z" fill="#F7941D"/>
<path d="M54.0044 136.083L57.1788 131.948L50.4681 127.762L37.9238 140.965C38.671 142.093 39.4507 143.202 40.2536 144.288L53.4475 139.369L53.9998 136.087L54.0044 136.083Z" fill="#F7941D"/>
<path d="M40.6852 144.868C40.6852 144.868 40.6712 144.849 40.6666 144.84C40.6712 144.849 40.6805 144.859 40.6852 144.868Z" fill="#F7941D"/>
<path d="M121.186 120.638L135.479 119.998L148.307 112.331L110.405 112.168L121.186 120.638Z" fill="#11BA7D"/>
<path d="M68.1637 150.558L56.1764 145.573L54.0184 158.442C55.3456 159.487 56.7054 160.489 58.0977 161.445L68.6603 156.15L68.1637 150.558Z" fill="#5AC4F9"/>
<path d="M58.7579 161.896C58.7579 161.896 58.7432 161.886 58.7335 161.881C58.7432 161.886 58.7481 161.891 58.7579 161.896Z" fill="#5AC4F9"/>
<path d="M53.3965 157.955C53.3965 157.955 53.4243 157.974 53.4382 157.988C53.4243 157.978 53.4104 157.964 53.3965 157.955Z" fill="#5AC4F9"/>
<path d="M51.3313 156.233C51.3313 156.233 51.2988 156.206 51.2849 156.192C51.2988 156.206 51.3174 156.219 51.3313 156.233Z" fill="#11BA7D"/>
<path d="M42.6622 147.351C45.1265 150.335 47.8274 153.115 50.7187 155.681L52.7468 143.592L42.6622 147.351Z" fill="#11BA7D"/>
<path d="M42.1888 146.784C42.1888 146.784 42.212 146.812 42.2259 146.826C42.2166 146.812 42.2027 146.798 42.1934 146.784H42.1888Z" fill="#11BA7D"/>
<path d="M60.3438 133.925L57.5129 137.61L56.8075 141.819L69.8437 147.235L80.4063 141.958L81.6964 141.777L81.9378 135.085L69.7184 139.777L60.3438 133.925Z" fill="#FCE354"/>
<path d="M151.314 114.86L157.491 119.979L172.625 116.155C172.899 114.93 173.14 113.691 173.349 112.442L155.491 112.363L151.314 114.86Z" fill="#5AC4F9"/>
<path d="M112.447 148.483L104.483 136.76L101.248 141.772L100.334 154.112L112.442 160.967L121.701 150.85L112.447 148.483Z" fill="#FC4456"/>
<path d="M120.197 131.493L136.176 137.354L144.014 133.21L135.252 123.724L122.039 124.318L120.197 131.493Z" fill="#FC4456"/>
<path d="M168.471 129.075C169.687 126.216 170.731 123.269 171.59 120.243L161.037 122.912L168.471 129.075Z" fill="#FCE354"/>
<path d="M106.274 132.788L114.73 145.234L122.466 147.211L116.025 132.82L118.485 123.237L105.434 112.99L106.274 132.788Z" fill="#FCE354"/>
<path d="M61.7361 163.775C64.2979 165.32 66.9617 166.708 69.7091 167.942L69.013 160.127L61.7361 163.779V163.775Z" fill="#F7941D"/>
<path d="M70.4436 168.272C70.4436 168.272 70.4289 168.262 70.4192 168.262C70.4289 168.262 70.4338 168.272 70.4436 168.272Z" fill="#F7941D"/>
<path d="M61.026 163.352C61.026 163.352 61.04 163.362 61.0446 163.362C61.04 163.362 61.0307 163.352 61.026 163.352Z" fill="#F7941D"/>
<path d="M138.946 122.248L146.984 130.955L154.577 122.388L147.935 116.879L138.946 122.248Z" fill="#F7941D"/>
<path d="M136.449 141.41L121.473 135.916L127.061 148.386L136.264 150.738L147.439 144.134L145.731 136.5L136.449 141.41Z" fill="#5AC4F9"/>
<path d="M150.223 132.899L164.039 137.828C165.051 136.12 165.998 134.37 166.87 132.579L157.431 124.759L150.219 132.899H150.223Z" fill="#11BA7D"/>
<path d="M69.7741 121.645L62.6132 130.968L70.1129 135.646L87.9291 128.806L96.7096 112.108L94.2128 112.099L76.8003 123.487L69.7741 121.645Z" fill="#FC4456"/>
<path d="M115.617 162.995L123.455 170.601C125.659 169.868 127.822 169.033 129.934 168.105L121.608 156.447L115.617 162.995Z" fill="#5AC4F9"/>
<path d="M65.8757 120.629L59.3182 118.912L53.0577 111.922L47.8831 111.899L50.612 123.418L51.206 123.849L59.4528 128.991L65.8757 120.629Z" fill="#11BA7D"/>
<path d="M125.78 151.894L124.17 153.653L133.345 166.494C135.619 165.348 137.823 164.095 139.953 162.73L135.312 154.33L125.78 151.894Z" fill="#F7941D"/>
<path d="M85.7015 133.637L85.4277 141.253L98.3339 139.443L102.562 132.885L101.685 112.131L100.896 112.126L90.5651 131.771L85.7015 133.637Z" fill="#5AC4F9"/>
<path d="M110.999 173.576C113.853 173.154 116.651 172.569 119.394 171.827L113.551 166.156L111.003 173.572L110.999 173.576Z" fill="#11BA7D"/>
<path d="M76.146 119.478L87.4743 112.071L58.0652 111.941L61.3416 115.603L76.146 119.478Z" fill="#F7941D"/>
<path d="M153.031 152.126C156.368 148.734 159.38 145.026 162.02 141.048L149.564 136.603L153.036 152.126H153.031Z" fill="#FC4456"/>
<path d="M139.044 153.407L143.039 160.638C145.434 158.934 147.722 157.092 149.894 155.124L148.288 147.94L139.044 153.407Z" fill="#FCE354"/>
<path d="M98.2968 157.222L92.7185 159.682L105.068 174.226C105.68 174.184 106.293 174.138 106.901 174.082L110.349 164.053L98.2968 157.222Z" fill="#F7941D"/>
<path d="M78.6149 171.265C78.6149 171.265 78.6295 171.265 78.6393 171.27L78.6149 171.26V171.265Z" fill="#5AC4F9"/>
<path d="M86.7132 173.214C86.7132 173.214 86.6854 173.209 86.6668 173.205C86.6807 173.205 86.6947 173.209 86.7132 173.214Z" fill="#5AC4F9"/>
<path d="M89.1775 161.245L81.7939 164.508L79.2925 171.46C81.483 172.096 83.7106 172.634 85.9753 173.07L91.8692 164.415L89.1775 161.245Z" fill="#5AC4F9"/>
<path d="M101.248 174.388C100.989 174.388 100.729 174.398 100.469 174.398C100.729 174.398 100.989 174.393 101.248 174.388Z" fill="#FCE354"/>
<path d="M90.0175 173.72C93.2847 174.161 96.6122 174.402 100 174.402C100.116 174.402 100.227 174.402 100.343 174.402L94.3567 167.353L90.0175 173.725V173.72Z" fill="#FCE354"/>
<path d="M76.4019 170.564C76.4019 170.564 76.3922 170.564 76.3873 170.56C76.3922 170.56 76.3971 170.56 76.4019 170.564Z" fill="#FC4456"/>
<path d="M72.8602 169.279C72.902 169.293 72.9391 169.307 72.9809 169.325C72.9391 169.311 72.902 169.293 72.8602 169.279Z" fill="#FC4456"/>
<path d="M86.6714 158.294L81.3298 152.001L81.5619 145.545H81.5247L71.881 150.372L73.5889 169.553C74.3036 169.826 75.0229 170.086 75.7515 170.337L78.8423 161.751L86.6761 158.294H86.6714Z" fill="#FC4456"/>
<path d="M85.2931 145.021L85.0889 150.697L90.2124 156.73L96.6307 153.899L97.4104 143.323L85.2931 145.021Z" fill="#11BA7D"/>
<path d="M107.073 108.442L104.715 106.52L103.717 96.0878L110.702 99.276L117.942 98.6681L121.478 101.759L126.949 99.9258L134.76 100.121L135.698 96.8303L132.802 93.5074L133.925 89.1218L131.832 85.3813V82.1327L127.061 80.1L127.191 76.0996L123.033 72.4101L119.018 73.3986L116.721 69.1847L111.403 70.0711L108.604 66.4234L104.089 67.8342L102.177 64.2747L97.9023 66.2842L93.3079 64.9661L92.0084 68.6417L88.1519 66.6183L85.2142 71.1478L80.0721 70.7301L74.7908 74.3732L75.9882 77.0556L71.468 78.5128L69.9736 81.5108L71.2406 85.0286L67.0035 85.321L68.2704 90.0686L64.8316 93.2058L66.5301 95.684L64.8501 100.557L70.3124 100.032L73.5564 101.513L79.2368 98.2133L85.1214 99.4895L95.9207 94.9275L94.3242 106.321L91.5258 108.372L26.0479 108.089C26.1593 109.101 26.2846 110.108 26.4377 111.106C26.4377 111.124 26.4377 111.138 26.447 111.157C26.4795 111.375 26.5166 111.588 26.5491 111.802L36.94 111.848L28.7767 121.473C28.7906 121.524 28.8046 121.575 28.8231 121.626C28.8835 121.826 28.9438 122.026 29.0041 122.225C29.0088 122.239 29.0134 122.253 29.018 122.271C29.2918 123.135 29.5796 123.993 29.8812 124.843C29.8905 124.861 29.8952 124.884 29.9044 124.903C29.988 125.135 30.0669 125.372 30.1504 125.599L30.1597 125.59L41.7943 111.871L44.0776 111.881L46.7368 123.088L30.9301 127.59H30.9254C30.9997 127.78 31.0786 127.966 31.1575 128.156C31.1668 128.184 31.1807 128.212 31.19 128.24C31.487 128.964 31.7933 129.678 32.1135 130.388C32.1135 130.398 32.1228 130.407 32.1274 130.421C32.2202 130.625 32.313 130.829 32.4059 131.029L45.9154 127.182L35.9097 137.712C36.0072 137.883 36.1093 138.05 36.2067 138.217C36.2299 138.255 36.2531 138.296 36.2763 138.334C36.6894 139.016 37.1117 139.693 37.5479 140.366C37.5619 140.385 37.5758 140.408 37.5897 140.427C37.7057 140.608 37.8264 140.784 37.9424 140.965H37.9471L50.4913 127.757L57.202 131.943L54.0276 136.078L53.4754 139.359L40.2814 144.278H40.2721C40.4113 144.469 40.5506 144.65 40.6898 144.835C40.6944 144.845 40.7037 144.854 40.7084 144.859C41.2003 145.504 41.7015 146.144 42.212 146.775C42.2213 146.789 42.2352 146.803 42.2445 146.817C42.3884 146.993 42.5276 147.17 42.6714 147.346H42.6807L52.7653 143.582L50.7373 155.672V155.681C50.9229 155.848 51.1132 156.02 51.3035 156.182C51.3174 156.196 51.3359 156.21 51.3499 156.224C52.0274 156.809 52.7189 157.38 53.415 157.941C53.429 157.95 53.4429 157.964 53.4568 157.974C53.6517 158.131 53.842 158.289 54.0416 158.442V158.433L56.1996 145.564L68.1869 150.548L68.6835 156.14L58.1209 161.436C58.3344 161.584 58.5432 161.728 58.7567 161.872C58.766 161.877 58.7706 161.881 58.7799 161.886C59.5271 162.387 60.2835 162.87 61.0493 163.343C61.0539 163.343 61.0632 163.352 61.0678 163.352C61.2952 163.492 61.5226 163.631 61.75 163.77H61.7593L69.0362 160.113L69.7323 167.928V167.942C69.9644 168.044 70.201 168.146 70.4331 168.249C70.4424 168.249 70.447 168.258 70.4563 168.258C71.2545 168.606 72.062 168.945 72.8742 169.265C72.9159 169.279 72.9531 169.297 72.9948 169.311C73.1944 169.39 73.3986 169.464 73.5981 169.543L71.8903 150.363L81.534 145.541H81.5711L81.3391 151.992L86.6807 158.285L78.847 161.742L75.7561 170.328C75.9696 170.407 76.1831 170.481 76.3966 170.55C76.4012 170.55 76.4059 170.55 76.4105 170.555C77.1438 170.801 77.8817 171.033 78.6242 171.256L78.6474 171.265C78.8609 171.33 79.079 171.395 79.2925 171.455V171.446L81.7985 164.494L89.1822 161.232L91.8739 164.401L85.98 173.056C86.212 173.103 86.444 173.149 86.6807 173.191C86.6947 173.191 86.7086 173.196 86.7271 173.2C87.5671 173.353 88.4071 173.488 89.2564 173.609C89.2564 173.609 89.2657 173.609 89.2703 173.609C89.5209 173.646 89.7762 173.683 90.0268 173.715V173.706L94.3753 167.334L100.362 174.384C100.404 174.384 100.446 174.384 100.483 174.384C100.743 174.384 101.002 174.379 101.262 174.374C102.543 174.351 103.819 174.3 105.086 174.212L92.7371 159.668L98.3154 157.208L110.368 164.039L106.92 174.068C108.293 173.943 109.662 173.78 111.013 173.576V173.562L113.565 166.146L119.408 171.817H119.413C120.786 171.451 122.142 171.042 123.483 170.597H123.478L115.64 162.986L121.631 156.438L129.957 168.095C131.108 167.59 132.249 167.051 133.368 166.485L124.193 153.634L125.803 151.876L135.336 154.312L139.976 162.712V162.721C141.03 162.053 142.06 161.357 143.072 160.637L143.063 160.624L139.067 153.393L148.311 147.926L149.917 155.11V155.124C150.994 154.15 152.038 153.147 153.05 152.112L149.578 136.584L162.034 141.03H162.039C162.74 139.976 163.413 138.904 164.062 137.809L150.247 132.876L157.458 124.736L166.898 132.556C167.46 131.409 167.993 130.244 168.499 129.066L168.49 129.056L161.055 122.893L171.608 120.225H171.627C172.008 118.874 172.351 117.51 172.657 116.132H172.648L157.514 119.956L151.337 114.837L155.514 112.34L173.372 112.419H173.381C173.59 111.194 173.766 109.955 173.91 108.706L107.096 108.419L107.073 108.442ZM115.282 81.3205L117.645 80.9818L117.932 78.5917L121.464 82.2023L121.854 84.8012L123.984 85.9428L125.775 89.2425L124.634 90.6208L123.775 89.3724L120.995 90.6208L119.854 92.751L117.334 90.5187L119.905 88.6485C119.905 88.6485 117.283 85.8407 117.074 85.7897C116.865 85.7386 112.345 84.8012 112.345 84.8012L115.282 81.3205ZM148.302 112.335L135.475 119.997L121.181 120.643L110.396 112.173L148.297 112.335H148.302ZM144.009 133.215L136.171 137.359L120.192 131.493L122.035 124.318L135.247 123.724L144.009 133.21V133.215ZM96.705 112.113L87.9245 128.81L70.1082 135.651L62.6086 130.973L69.7648 121.654L76.7957 123.497L94.2036 112.108L96.7003 112.117L96.705 112.113ZM87.4697 112.071L76.1413 119.482L61.3324 115.603L58.0559 111.946L87.465 112.071H87.4697ZM51.2014 123.849L50.6073 123.418L47.8785 111.899L53.0577 111.922L59.3182 118.912L65.8711 120.629L59.4482 128.996L51.2014 123.849ZM81.6918 141.777L80.4016 141.958L69.8391 147.239L56.8029 141.819L57.5083 137.614L60.3392 133.929L69.7137 139.781L81.9331 135.09L81.6918 141.782V141.777ZM96.6261 153.899L90.2078 156.73L85.0843 150.697L85.2885 145.021L97.4104 143.322L96.6261 153.899ZM85.4277 141.253L85.7015 133.637L90.5651 131.771L100.896 112.127H101.685L102.562 132.885L98.3339 139.443L85.4277 141.253ZM112.438 160.972L100.334 154.112L101.248 141.772L104.478 136.76L112.447 148.488L121.701 150.855L112.438 160.976V160.972ZM114.725 145.239L106.27 132.792L105.434 112.99L118.48 123.237L116.02 132.82L122.462 147.211L114.725 145.234V145.239ZM136.259 150.743L127.052 148.39L121.469 135.916L136.445 141.415L145.726 136.505L147.434 144.139L136.259 150.743ZM154.572 122.388L146.979 130.959L138.941 122.253L147.931 116.883L154.577 122.392L154.572 122.388Z" fill="black"/>
<path d="M119.909 88.6485L117.338 90.5188L119.858 92.7511L121 90.6209L123.78 89.3725L124.638 90.6209L125.78 89.2426L123.989 85.9429L121.858 84.8013L121.469 82.2024L117.937 78.5918L117.649 80.9818L115.287 81.3206L112.349 84.8013C112.349 84.8013 116.87 85.7387 117.078 85.7898C117.287 85.8408 119.909 88.6485 119.909 88.6485Z" fill="white"/>
<path d="M68.9805 61.3601C63.9498 54.8814 58.8263 48.2821 53.7956 41.8081C52.3105 42.9869 50.8765 44.226 49.4842 45.5162C56.2274 52.9647 63.1376 60.5943 69.8808 68.0429C71.7 66.3258 73.6678 64.7618 75.7608 63.3742C74.7769 61.8334 73.7234 60.1766 72.7442 58.6359C71.4262 59.4805 70.2289 60.4412 68.9805 61.3601Z" fill="black"/>
<path d="M30.3871 73.9182C38.9216 79.71 48.2405 84.8938 57.448 89.0335C57.7775 87.7572 58.1673 86.5042 58.6035 85.2744C56.6219 84.2116 54.2829 82.9354 52.343 81.803C52.8117 80.5221 53.3269 79.283 53.8838 78.081C55.9814 78.8004 58.5293 79.761 60.6084 80.5593C61.156 79.4594 61.7408 78.3827 62.3766 77.3339C53.2619 73.0596 43.3444 69.3748 33.5429 66.7249C32.3687 69.0546 31.3153 71.4585 30.3917 73.9228L30.3871 73.9182ZM48.5653 76.3407C48.1941 77.1761 47.8414 78.0254 47.5119 78.8932C44.2029 76.9765 40.9265 74.9763 37.6964 72.8972C41.3488 73.9553 44.9733 75.1062 48.5653 76.3407Z" fill="black"/>
<path d="M47.9435 46.9827C46.5744 48.3285 45.2564 49.7254 43.9895 51.1687C46.3331 55.7539 48.8809 59.9678 51.7768 64.1121C47.962 61.1698 44.3422 58.3806 40.5274 55.4383C39.4785 56.8352 38.4761 58.2739 37.5247 59.7497C45.8876 65.3094 54.4732 71.013 62.8406 76.5774C63.4022 75.6864 63.9962 74.8185 64.6227 73.9739C62.7757 72.5492 60.5156 70.8506 58.6824 69.4352C58.1302 68.5859 57.5965 67.7273 57.072 66.8548C60.3578 68.0197 63.8755 69.5465 66.9524 71.0827C67.7507 70.173 68.586 69.2959 69.4539 68.4559C64.9244 65.6946 59.8566 63.1839 54.7655 61.2533C52.1434 56.7053 49.888 51.9809 47.9527 46.9873L47.9435 46.9827Z" fill="black"/>
<path d="M131.674 49.0386C133.581 45.8503 135.489 42.6667 137.396 39.4784C137.057 38.1001 136.575 36.4479 136.134 35.051C132.491 33.0137 128.657 31.278 124.675 29.8718C121.464 39.3253 118.016 49.1732 114.804 58.6266C115.876 59.0118 116.93 59.4341 117.96 59.8982C119.561 56.1391 121.116 52.5285 122.717 48.7694C123.07 48.9086 123.543 49.0757 123.896 49.2242C123.223 53.3778 122.207 57.4432 121.088 61.4575C122.049 61.9866 122.986 62.5481 123.905 63.1422C125.311 59.1928 126.56 54.9742 127.52 50.8532C128.866 50.2034 130.254 49.6001 131.679 49.0386H131.674ZM127.673 37.1116C129.121 37.7195 130.616 38.4853 132.059 39.2324C131.033 41.2419 129.957 43.3674 128.931 45.3769C127.608 44.7411 126.267 44.1518 124.908 43.6134C125.789 41.5436 126.792 39.1814 127.673 37.1069V37.1116Z" fill="black"/>
<path d="M30.9765 82.3416C29.677 83.2465 28.3962 84.2211 27.1292 85.2699C26.3588 89.0847 25.8855 93.0062 25.7277 97.0067C26.7208 98.4593 27.7789 99.9211 28.8324 101.295H52.8117C53.8374 100.399 55.0115 99.4756 56.0789 98.7099C56.1485 96.3337 56.4084 94.004 56.84 91.7347C55.9675 90.7554 55.0579 89.6741 54.2411 88.6253C46.4862 86.5322 38.7267 84.4392 30.9718 82.3462L30.9765 82.3416ZM50.5424 96.8721C44.2958 96.3152 37.6964 95.7211 31.4545 95.1642C31.6169 92.8856 31.9047 90.6812 32.2434 88.5278C38.4111 89.6834 44.9037 90.8854 51.0807 92.0409C50.8254 93.6281 50.6444 95.2385 50.5424 96.8721Z" fill="black"/>
<path d="M173.038 86.1377C171.789 85.0703 170.439 84.0122 169.158 83.0933C165.404 84.0678 161.649 85.0378 157.899 86.0124C157.097 87.2886 156.261 88.5323 155.398 89.7343C155.765 91.832 156.034 94.0039 156.196 96.2455C154.001 96.4404 151.657 96.6446 149.458 96.8395C149.365 95.3915 149.207 93.9622 148.994 92.5513C149.778 92.4168 150.65 92.2636 151.425 92.129C151.212 90.6811 150.947 89.2702 150.636 87.8965C149.059 88.3049 147.476 88.7133 145.898 89.1264C145.072 90.1752 144.144 91.2612 143.262 92.2404C143.638 94.3473 143.865 96.5007 143.926 98.7005C145.002 99.4709 146.172 100.39 147.211 101.299H158.804C159.862 100.153 160.897 98.965 161.904 97.7352C161.788 95.2152 161.556 92.7787 161.208 90.4258C163.427 90.0406 165.664 89.6462 167.882 89.261C168.165 91.1823 168.402 93.1454 168.55 95.1641C167.794 95.2291 167 95.3034 166.248 95.3683C166.388 97.2989 166.457 99.2806 166.457 101.304H171.158C172.198 99.9442 173.307 98.3849 174.286 96.9416C174.138 93.2707 173.72 89.6647 173.052 86.1469L173.038 86.1377Z" fill="black"/>
<path d="M166.369 82.2161C168.128 81.7103 170.017 81.1626 171.78 80.6568C170.3 75.1713 168.207 69.9318 165.58 65.0217C163.965 65.9174 162.239 66.7806 160.624 67.6763C161.389 69.1567 162.183 70.6511 162.847 72.2243C155.44 75.6493 147.764 79.1996 140.357 82.6245C140.802 83.6594 141.215 84.7175 141.582 85.7896C149.198 82.9447 157.208 79.9282 164.824 77.088C165.376 78.7587 165.942 80.448 166.374 82.2161H166.369Z" fill="black"/>
<path d="M151.62 50.8809C151.634 49.4144 151.597 47.9386 151.514 46.4536C149.244 44.2724 146.84 42.2304 144.311 40.3462C142.854 40.5875 141.267 40.9031 139.87 41.2233C135.489 47.8412 130.885 54.6168 126.504 61.2347C126.513 62.4645 126.471 63.6851 126.388 64.8917C127.892 66.0241 129.316 67.2493 130.662 68.5626C131.86 68.2424 133.085 67.9593 134.328 67.7273C140.032 62.1582 145.921 56.45 151.625 50.8809H151.62ZM130.671 61.1187C134.486 56.1205 138.491 50.8717 142.301 45.8781C143.689 46.9548 145.049 48.166 146.395 49.3541C142.213 54.0367 137.804 58.956 133.618 63.6433C132.667 62.7662 131.688 61.9215 130.671 61.1187Z" fill="black"/>
<path d="M100 25.658C99.6009 25.658 99.2064 25.6672 98.8119 25.6719C98.9651 35.6961 99.1322 46.0406 99.2853 56.0649C99.522 56.0649 99.7587 56.0556 100 56.0556C102.302 56.0556 104.557 56.232 106.766 56.5754C107.565 55.6379 108.493 54.6169 109.37 53.7212C110.911 45.8875 112.447 38.0537 113.988 30.2199C113.175 29.0087 112.224 27.6999 111.31 26.5119C107.62 25.9457 103.843 25.6533 100 25.6533V25.658ZM106.442 50.8486C106.284 50.83 106.121 50.8161 105.959 50.8021C104.868 50.6722 103.764 50.5747 102.65 50.5144C102.984 44.1564 103.318 37.7428 103.652 31.3848C105.393 31.4683 107.133 31.6493 108.859 31.8535C108.052 38.179 107.244 44.5231 106.437 50.8486H106.442Z" fill="black"/>
<path d="M162.104 65.393C162.475 63.9312 162.823 62.2651 163.106 60.7475C161.385 57.9862 159.487 55.3456 157.426 52.8395C155.941 52.6864 154.256 52.575 152.813 52.5239C146.924 57.9445 141.035 63.365 135.145 68.7855C134.853 70.0014 134.519 71.1941 134.143 72.3682C135.373 73.8858 136.51 75.4915 137.531 77.1669C138.756 77.1855 140.12 77.2644 141.359 77.385C148.274 73.3846 155.189 69.3842 162.104 65.3884V65.393ZM154.177 57.8099C155.324 59.2532 156.414 60.7568 157.445 62.3208C152.191 65.8803 146.822 69.528 141.568 73.0876C140.835 71.9552 140.06 70.8507 139.238 69.7833C144.167 65.8339 149.253 61.7546 154.177 57.8099Z" fill="black"/>
<path d="M90.9225 26.2148C91.5536 31.4636 92.3472 37.7334 92.9784 42.9822C90.8854 37.8959 88.1148 31.9927 85.2653 27.1291C83.511 27.4818 81.7753 27.8994 80.0675 28.3774C82.7174 38.1047 85.3952 47.9851 88.0451 57.7123C89.0197 57.4385 90.0036 57.1972 91.0014 56.9884C89.9572 51.8184 88.8295 46.1334 87.7853 40.9635C90.296 45.8549 92.5189 51.3311 94.2825 56.4314C95.3684 56.2876 96.4683 56.1901 97.5775 56.1298C97.0484 46.1334 96.4962 35.7703 95.9625 25.7739C94.2639 25.8667 92.5839 26.0153 90.9225 26.2194V26.2148Z" fill="black"/>
<path d="M65.7133 34.0534C68.5767 43.8642 72.2755 53.661 76.6147 62.8175C77.5893 62.2002 78.5917 61.6248 79.6173 61.0818C78.7913 59.0027 78.007 56.9236 77.2459 54.8166C78.3504 54.2876 79.4688 53.8003 80.6058 53.3501C81.7336 55.2993 82.7778 57.1556 83.8405 59.1373C84.9079 58.7149 85.9939 58.3344 87.0984 57.991C82.8938 48.7788 77.7935 39.6735 72.0991 31.0925C69.9133 31.9789 67.7831 32.9674 65.7087 34.0488L65.7133 34.0534ZM75.4127 49.5075C74.1133 45.9154 72.8881 42.2956 71.7418 38.6432C73.807 41.8918 75.7979 45.1775 77.7192 48.5004C76.9442 48.8206 76.1738 49.1548 75.4174 49.5075H75.4127Z" fill="black"/>
</g>
<defs>
<clipPath id="clip0_9898_54206">
<rect width="176" height="176" fill="white" transform="translate(12 12)"/>
</clipPath>
</defs>
</svg>
