<svg width="200" height="200" viewBox="0 0 200 200" fill="none" xmlns="http://www.w3.org/2000/svg">
<g clip-path="url(#clip0_9898_54209)">
<path d="M94.8104 193.159C89.9735 190.512 77.3896 182.895 65.0183 169.344C50.5528 153.504 33.31 126.034 33.31 85.1209V4H166.699V85.1209C166.699 126.031 149.457 153.502 134.991 169.344C122.617 182.895 110.033 190.512 105.199 193.159L100.003 196L94.8077 193.159H94.8104Z" fill="#808285"/>
<path d="M96.1073 190.781C91.39 188.2 79.1144 180.764 67.0142 167.513C52.8729 152.028 36.0155 125.164 36.0155 85.121V6.71094H163.989V85.121C163.989 125.164 147.131 152.028 132.99 167.513C120.892 180.764 108.614 188.197 103.9 190.781L100.003 192.914L96.1073 190.781Z" fill="black"/>
<path d="M155.87 85.1209C155.87 122.554 140.168 147.606 127 162.031C115.795 174.3 104.567 181.153 100.003 183.648C95.4429 181.153 84.2144 174.303 73.0098 162.031C59.8412 147.606 44.1399 122.557 44.1399 85.1209V14.8408H155.87V85.1209ZM40.079 10.7759V85.1209C40.079 123.86 56.357 149.82 70.0146 164.773C81.7029 177.572 93.5188 184.731 98.058 187.216L100.003 188.283L101.951 187.216C106.491 184.734 118.309 177.572 129.995 164.773C143.65 149.817 159.93 123.86 159.93 85.1209V10.7759H40.079Z" fill="#FCB812"/>
<path d="M57.4573 39.1906V43.0401H62.8576C65.0395 43.0401 65.4754 41.811 65.4754 41.1007C65.4754 40.3904 65.0395 39.1906 62.8576 39.1906H57.4573ZM65.2814 51.1461L62.4457 46.3149H57.4546V51.1461H53.609V35.9158H63.8356C68.1702 35.9158 69.4805 39.1667 69.4805 41.1034C69.4805 42.5772 68.7443 44.7613 66.5358 45.7722L69.6984 51.1487H65.2814V51.1461Z" fill="white"/>
<path d="M76.2681 35.9158H72.4517V51.1461H76.2681V35.9158Z" fill="white"/>
<path d="M93.9918 39.7093C92.0837 38.999 90.2579 38.6159 88.0467 38.6159C86.0827 38.6159 83.3294 38.6452 83.3294 40.119C83.3294 42.8485 95.4376 39.9008 95.4376 46.6953C95.4376 50.8986 91.3448 51.6913 86.7391 51.6913C84.0682 51.6913 81.5036 51.2285 79.4041 50.6831V47.2167C81.5009 47.8153 84.4217 48.4431 86.601 48.4431C89.7901 48.4431 91.6186 48.0334 91.6186 46.6953C91.6186 43.9658 79.513 47.0491 79.513 40.119C79.513 35.9157 84.1214 35.3677 88.0467 35.3677C90.4731 35.3677 92.384 35.8598 94.1274 36.4611L93.9918 39.7093Z" fill="white"/>
<path d="M101.896 35.9158H98.0793V51.1461H101.896V35.9158Z" fill="white"/>
<path d="M109.885 42.1116V51.146H106.039V35.3704L120.6 45.1949V35.9157H124.443V51.6914L109.885 42.1116Z" fill="white"/>
<path d="M138.183 45.7136V42.4654H147.126C147.182 42.8458 147.235 43.1757 147.235 43.5295C147.235 48.0334 143.283 51.6913 137.391 51.6913C130.819 51.6913 126.758 48.0334 126.758 43.5295C126.758 39.0256 130.792 35.3677 137.362 35.3677C140.006 35.3677 142.571 35.9396 144.617 37.3869V40.9889C143.334 40.1429 141.617 39.2411 139.544 38.8314C135.483 38.0147 130.848 39.8689 130.848 43.5269C130.848 46.2829 133.601 48.4404 137.391 48.4404C140.118 48.4404 142.026 47.3471 142.871 45.711H138.18L138.183 45.7136Z" fill="white"/>
<path d="M65.4169 24.9261H68.4971C69.7409 24.9261 69.9907 25.6285 69.9907 26.0169C69.9907 26.4053 69.7436 27.1235 68.4971 27.1235H65.4169V24.9261ZM65.4169 28.9911H69.0579C71.5321 28.9911 72.2789 27.1236 72.2789 26.0169C72.2789 24.9102 71.5321 23.0586 69.0579 23.0586H63.2217V31.7498H65.4169V28.9937V28.9911Z" fill="#ED1C24"/>
<path d="M75.5797 28.1797H81.679V31.7471H83.8583V23.0559H81.679V26.3281H75.5797V23.0559H73.4031V31.7471H75.5797V28.1797Z" fill="#ED1C24"/>
<path d="M91.4219 24.5828C93.5985 24.5828 95.1718 25.7027 95.1718 27.4027C95.1718 29.1026 93.6171 30.2067 91.4219 30.2067C89.2267 30.2067 87.6879 29.1159 87.6879 27.4027C87.6879 25.6894 89.2453 24.5828 91.4219 24.5828ZM91.4219 32.0582C95.2967 32.0582 97.5052 30.1109 97.5052 27.4C97.5052 24.6892 95.1559 22.7285 91.4219 22.7285C87.6879 22.7285 85.3545 24.6892 85.3545 27.4C85.3545 30.1109 87.672 32.0582 91.4219 32.0582Z" fill="#ED1C24"/>
<path d="M107.841 29.8929H101.181V28.2276H106.642V26.3733H101.197V24.9261H107.841V23.0559H99.0015V31.7471H107.841V29.8929Z" fill="#ED1C24"/>
<path d="M112.151 26.5914L120.462 32.0584V23.0559H118.267V28.3526L109.956 22.7446V31.7471H112.151V26.5914Z" fill="#ED1C24"/>
<path d="M125.161 23.0559H122.981V31.7471H125.161V23.0559Z" fill="#ED1C24"/>
<path d="M129.394 31.7471L132.134 28.5707L134.856 31.7471H137.628L133.471 27.323L137.455 23.0559H134.686L132.134 26.0621L129.564 23.0559H126.827L130.779 27.323L126.657 31.7471H129.394Z" fill="#ED1C24"/>
<path d="M132.243 126.481L128.541 127.22C130.572 121.9 129.211 115.345 129.211 115.345C129.211 115.345 133.936 110.607 135.151 105.041L137.843 107.688C137.933 110.936 137.529 114.251 136.551 117.531C135.573 120.814 134.098 123.81 132.246 126.478M112.885 118.739C110.998 119.979 106.6 123.046 106.6 123.046L99.5835 117.449L92.3494 112.131C92.3494 112.131 94.1566 107.079 94.8582 104.935C95.5625 102.791 98.7464 95.9323 98.7464 95.9323C98.7464 95.9323 101.268 95.496 107.038 95.7168C112.808 95.935 115.699 96.3606 115.699 96.3606C115.699 96.3606 116.866 99.0422 118.586 104.56C120.305 110.077 120.544 112.628 120.544 112.628C120.544 112.628 114.767 117.499 112.882 118.737M115.622 138.556C112.518 139.495 109.215 139.974 105.794 139.889C102.374 139.806 99.0998 139.168 96.0409 138.074L94.3559 134.693C100.019 135.26 105.98 132.224 105.98 132.224C105.98 132.224 111.787 135.547 117.469 135.26L115.622 138.556ZM102.73 74.7882C103.905 74.6844 105.457 74.9105 107.828 76.7462C111.29 79.4224 113.199 85.3682 113.199 85.3682C113.199 85.3682 110.613 81.6039 107.745 79.3745C104.075 76.5253 100.511 75.7911 100.511 75.7911C100.511 75.7911 101.271 74.9159 102.727 74.7882M80.8631 126.449C79.0134 123.78 77.5411 120.785 76.5657 117.499C75.5904 114.217 75.1864 110.902 75.2821 107.654L77.9743 105.007C79.1835 110.572 83.9034 115.315 83.9034 115.315C83.9034 115.315 82.5401 121.87 84.5625 127.191L80.8605 126.446L80.8631 126.449ZM131.265 82.1147C135.807 88.0764 132.87 101.28 125.543 98.997C118.216 96.7144 120.98 85.7167 112.877 77.9353C106.602 71.9097 99.4081 71.524 95.3844 72.8382C92.0544 73.9262 91.305 76.2912 91.305 76.2912C92.2644 75.839 93.7208 75.8177 95.1984 76.2301C103.708 78.5951 99.6287 92.2212 87.765 89.4704C79.8612 87.6375 76.959 78.1189 79.3669 70.0448C81.3627 63.3568 86.694 57.1663 86.694 57.1663C72.9938 64.7801 67.5058 76.0119 66.2275 84.6792C64.2502 98.0978 71.9839 107.856 71.9839 107.856C56.1497 99.9121 61.457 84.9798 61.457 84.9798C54.5658 95.4082 60.7581 112.626 67.5404 121.889C76.8474 134.603 90.0745 138.795 90.0745 138.795C83.7174 138.276 78.163 135.864 72.2497 131.426C65.5471 126.393 61.1514 116.438 61.1514 116.438C64.5957 135.35 81.1342 149.687 101.021 149.687C123.401 149.687 141.548 131.525 141.548 109.122C141.548 98.7522 137.659 89.2895 131.263 82.1173" fill="#ED1C24"/>
</g>
<defs>
<clipPath id="clip0_9898_54209">
<rect width="133.389" height="192" fill="white" transform="translate(33.31 4)"/>
</clipPath>
</defs>
</svg>
