<svg width="200" height="200" viewBox="0 0 200 200" fill="none" xmlns="http://www.w3.org/2000/svg">
<g clip-path="url(#clip0_9898_54200)">
<mask id="mask0_9898_54200" style="mask-type:luminance" maskUnits="userSpaceOnUse" x="12" y="12" width="176" height="176">
<path d="M188 12H12V188H188V12Z" fill="white"/>
</mask>
<g mask="url(#mask0_9898_54200)">
<path d="M188 100C188 51.399 148.601 12 100 12C51.399 12 12 51.399 12 100C12 148.601 51.399 188 100 188C148.601 188 188 148.601 188 100Z" fill="#FFC629"/>
<path d="M184.293 100C184.293 53.4451 146.552 15.7075 100 15.7075C53.4476 15.7075 15.7099 53.4451 15.7099 100C15.7099 146.555 53.4501 184.293 100 184.293C146.55 184.293 184.293 146.553 184.293 100Z" fill="#1A1717"/>
<path d="M91.9443 127.369C94.2089 127.39 96.4685 127.369 98.7307 127.292C89.2825 121.651 76.7276 115.981 70.8133 113.405C72.5627 109.257 75.0184 101.599 75.0184 91.2958C75.0184 83.1269 72.2083 75.8906 70.6399 72.4873C72.6884 69.5314 74.1914 66.1709 75.0561 64.0018C84.4892 63.3608 89.7852 59.0627 92.0121 56.7051H108.005C110.235 59.0627 115.528 63.3608 124.962 64.0018C125.824 66.1709 127.327 69.5289 129.375 72.4873C127.809 75.8856 124.999 83.1269 124.999 91.2958C124.999 101.596 127.455 109.257 129.204 113.405C123.328 115.963 110.896 121.576 101.47 127.184C102.732 127.121 103.991 127.06 105.253 126.97C106.254 126.897 108.473 126.879 108.905 126.874H108.986C120.608 120.658 133.842 115.136 133.842 115.136C133.842 115.136 128.415 106.186 128.415 91.2983C128.415 80.9729 133.374 72.1178 133.374 72.1178C129.627 67.6413 127.372 60.6663 127.372 60.6663C114.46 60.6663 109.592 53.2917 109.592 53.2917H90.4211C90.4211 53.2917 85.5524 60.6663 72.6381 60.6663C72.6381 60.6663 70.3835 67.6413 66.6384 72.1178C66.6384 72.1178 71.5975 80.9729 71.5975 91.2983C71.5975 106.186 66.1709 115.136 66.1709 115.136C66.1709 115.136 80.1107 120.953 91.9417 127.372M100.008 125.444C91.5094 120.354 80.6059 115.282 73.6862 112.223C75.4658 107.407 77.2554 100.322 77.2554 91.2983C77.2554 83.5769 74.9028 76.6924 73.186 72.7035C74.6313 70.4313 75.7774 68.056 76.6044 66.1181L126.326 112.226C119.409 115.285 108.503 120.354 100.005 125.447" fill="#FFC629"/>
<path d="M138.585 90.7276H136.609C136.335 90.7276 136.192 90.5969 136.192 90.3255V88.7797C136.192 87.9628 135.825 87.6763 135.825 87.6763H138.456C138.728 87.6763 138.874 87.807 138.874 88.0809L138.886 90.4537C138.879 90.6296 138.781 90.7251 138.587 90.7251M139.251 85.3664H135.875C135.312 85.3664 134.822 85.5699 134.402 85.9872C133.988 86.4044 133.784 86.8946 133.784 87.4576V90.7679C133.784 91.3309 133.988 91.821 134.402 92.2383C134.822 92.6555 135.312 92.8591 135.875 92.8591H138.6C138.788 92.8591 138.886 92.9596 138.886 93.1607V94.988C138.886 95.2595 138.743 95.3902 138.472 95.3902H136.74C136.451 95.3902 136.292 95.2595 136.307 94.988V94.2315L133.915 95.1464V95.6038C133.915 96.1668 134.118 96.657 134.535 97.0742C134.953 97.4915 135.428 97.68 135.976 97.68H139.251C139.811 97.68 140.301 97.4915 140.721 97.0742C141.138 96.657 141.339 96.1668 141.339 95.6038V87.4576C141.339 86.8946 141.138 86.4044 140.721 85.9872C140.301 85.5699 139.811 85.3664 139.251 85.3664ZM61.8477 90.7251H59.8721C59.6006 90.7251 59.4548 90.5944 59.4548 90.323V88.7772C59.4548 87.9603 59.0878 87.6737 59.0878 87.6737H61.7195C61.9934 87.6737 62.1367 87.8044 62.1367 88.0784L62.1493 90.4512C62.1443 90.6271 62.0437 90.7226 61.8502 90.7226M62.5137 85.3638H59.1381C58.5751 85.3638 58.085 85.5674 57.6677 85.9847C57.2505 86.4019 57.0469 86.8921 57.0469 87.4551V90.7653C57.0469 91.3284 57.2505 91.8185 57.6677 92.2357C58.085 92.653 58.5751 92.8566 59.1381 92.8566H61.8653C62.0538 92.8566 62.1518 92.9571 62.1518 93.1582V94.9855C62.1518 95.257 62.006 95.3877 61.7345 95.3877H60.0028C59.7162 95.3877 59.5553 95.257 59.5704 94.9855V94.2289L57.1776 95.1439V95.6013C57.1776 96.1643 57.3812 96.6545 57.7984 97.0717C58.2157 97.4889 58.6907 97.6775 59.2386 97.6775H62.5137C63.0768 97.6775 63.5669 97.4889 63.9841 97.0717C64.4014 96.6545 64.605 96.1643 64.605 95.6013V87.4551C64.605 86.8921 64.4014 86.4019 63.9841 85.9847C63.5669 85.5674 63.0768 85.3638 62.5137 85.3638ZM54.8727 96.3051C54.8727 97.1195 55.2397 97.6197 55.2397 97.6197H52.0827C52.0827 97.6197 52.4497 97.1195 52.4497 96.3051V87.9603L51.0296 88.4378V86.4472L52.9826 85.4367H54.8702V96.3051H54.8727ZM148.018 90.7226H146.042C145.768 90.7226 145.625 90.5919 145.625 90.3205V88.7747C145.625 87.9578 145.258 87.6712 145.258 87.6712H147.89C148.161 87.6712 148.307 87.8019 148.307 88.0759L148.319 90.4486C148.312 90.6246 148.214 90.7201 148.02 90.7201M150.154 85.9822C149.737 85.5649 149.247 85.3613 148.684 85.3613H145.308C144.745 85.3613 144.255 85.5649 143.838 85.9822C143.421 86.3994 143.217 86.8895 143.217 87.4526V90.7628C143.217 91.3259 143.421 91.816 143.838 92.2332C144.255 92.6505 144.745 92.8541 145.308 92.8541H148.033C148.221 92.8541 148.322 92.9546 148.322 93.1557V94.983C148.322 95.2544 148.176 95.3852 147.905 95.3852H146.173C145.884 95.3852 145.726 95.2544 145.741 94.983V94.2264L143.348 95.1413V95.5988C143.348 96.1618 143.551 96.652 143.969 97.0692C144.386 97.4864 144.861 97.6749 145.409 97.6749H148.684C149.247 97.6749 149.737 97.4864 150.154 97.0692C150.572 96.652 150.775 96.1618 150.775 95.5988V87.4526C150.775 86.8895 150.572 86.3994 150.154 85.9822Z" fill="white"/>
<path d="M170.486 106.447L164.65 105.919C166.718 104.798 168.739 103.547 170.783 102.187C170.722 103.607 170.622 105.03 170.486 106.447ZM169.654 112.517C167.945 110.785 166.233 109.162 164.464 107.659L170.29 108.345C170.119 109.742 169.903 111.132 169.654 112.517ZM167.641 120.973L162.058 119.241C162.114 119.226 162.171 119.213 162.227 119.196C163.182 118.904 164.142 118.585 165.112 118.248C166.316 117.828 167.53 117.363 168.754 116.876C168.425 118.25 168.05 119.618 167.641 120.973ZM165.582 126.789C164.273 124.725 162.885 122.747 161.463 120.892L167.063 122.795C166.61 124.14 166.123 125.477 165.582 126.786M157.31 131.65C159.454 131.477 161.591 131.185 163.762 130.803C163.164 132.019 162.541 133.218 161.88 134.397L157.313 131.65H157.31ZM36.2427 130.803C38.4143 131.185 40.5508 131.477 42.6973 131.65L38.1278 134.397C37.4642 133.218 36.8384 132.019 36.2452 130.803M32.9425 122.795L38.5425 120.892C37.1199 122.745 35.7324 124.725 34.4229 126.789C33.8825 125.479 33.3924 124.142 32.9425 122.797M31.2509 116.876C32.4749 117.363 33.689 117.828 34.8954 118.248C35.8631 118.585 36.8233 118.904 37.7784 119.196C37.8337 119.213 37.8915 119.226 37.9468 119.241L32.3643 120.973C31.9546 119.618 31.5827 118.25 31.2509 116.876ZM29.7151 108.345L35.5414 107.659C33.7719 109.162 32.0602 110.785 30.351 112.517C30.1047 111.132 29.886 109.74 29.7151 108.345ZM29.22 102.187C31.2634 103.544 33.2843 104.798 35.3529 105.919L29.5166 106.445C29.3783 105.03 29.2778 103.607 29.22 102.187ZM37.5472 100.842C37.5899 102.325 37.6754 103.803 37.8086 105.278C35.4007 103.994 32.9726 102.549 30.5471 100.935L37.5472 100.84V100.842ZM38.7863 112.16L31.8667 113.523C32.6459 112.726 33.4477 111.944 34.2344 111.19C35.5087 109.986 36.7931 108.855 38.0851 107.779C38.2736 109.245 38.5023 110.705 38.7863 112.16ZM40.2416 118.102C37.6351 117.343 34.9683 116.438 32.2889 115.352L39.1357 113.807C39.4549 115.249 39.8269 116.68 40.2416 118.102ZM43.3709 100.005C43.3709 68.7774 68.7748 43.3709 100.003 43.3709C131.23 43.3709 156.634 68.7774 156.634 100.005H159.977C159.866 106.299 158.904 112.545 157.026 118.532C155.9 122.101 154.367 125.525 152.547 128.787L149.694 127.073C140.075 144.66 121.423 156.632 100.003 156.632C78.5825 156.632 59.9299 144.66 50.3107 127.073L47.4579 128.787C45.6356 125.522 44.1024 122.101 42.9788 118.532C41.1013 112.542 40.1361 106.296 40.028 100.005H43.3709ZM157.401 124.632C157.989 123.288 158.519 121.918 158.994 120.528C160.668 122.664 162.362 124.987 163.848 127.402L157.401 124.632ZM154.699 130.087C155.415 128.802 156.091 127.503 156.717 126.176L163.028 129.094C160.216 129.599 157.496 129.951 154.741 130.112L154.699 130.087ZM36.1572 127.402C37.6427 124.989 39.3368 122.664 41.0108 120.528C41.4858 121.918 42.0187 123.288 42.6018 124.632L36.1572 127.402ZM43.2855 126.173C43.9113 127.5 44.5875 128.802 45.3063 130.084L45.2611 130.109C42.5063 129.946 39.7867 129.596 36.9741 129.089L43.2855 126.173ZM167.714 115.355C165.034 116.441 162.367 117.346 159.761 118.105C160.178 116.685 160.545 115.252 160.867 113.809L167.714 115.355ZM161.917 107.784C163.209 108.865 164.494 109.994 165.768 111.195C166.555 111.949 167.359 112.728 168.136 113.528L161.216 112.165C161.498 110.713 161.729 109.255 161.917 107.784ZM162.455 100.85L169.418 100.943C167.005 102.551 164.589 103.999 162.194 105.283C162.33 103.808 162.415 102.333 162.455 100.852M100 23.2957C57.7054 23.2957 23.2957 57.7054 23.2957 100.003H26.6386C26.7467 107.674 27.9305 115.332 30.2455 122.664C31.6832 127.204 33.6362 131.557 35.9737 135.692L33.1008 137.421C46.2464 160.834 71.2934 176.709 100.003 176.709C128.712 176.709 153.759 160.834 166.904 137.421L164.031 135.692C166.369 131.557 168.324 127.204 169.762 122.664C172.077 115.332 173.258 107.676 173.366 100.003H176.712C176.712 57.7054 142.302 23.2957 100.005 23.2957" fill="#FFC629"/>
<path d="M91.0645 148.025C94.043 148.101 97.0265 148.088 100.005 148.106C102.989 148.098 105.972 147.905 108.956 147.736C111.927 147.563 114.965 147.359 117.939 146.867C114.965 146.422 111.927 146.321 108.951 146.279C105.97 146.236 102.991 146.379 100.01 146.515C97.0316 146.676 94.048 146.786 91.0696 146.99C88.0936 147.194 85.0095 147.359 82.031 147.573C85.007 147.739 88.086 147.953 91.0645 148.028M106.233 131.977C104.479 132.002 102.8 132.118 101.043 132.799C102.798 133.389 104.482 133.535 106.239 133.482C107.993 133.384 109.767 133.05 111.524 132.555C109.767 132.133 107.988 131.999 106.233 131.977ZM76.5818 141.01C74.5408 140.968 72.4772 140.958 70.4388 141.357C72.4772 142.277 74.5433 142.496 76.5843 142.589C78.6227 142.624 80.6637 142.536 82.7046 141.797C80.6637 141.224 78.6202 141.101 76.5818 141.013M98.8212 140.89C102.232 140.565 105.628 139.962 109.041 139.613C112.449 139.238 115.878 139.145 119.289 138.947C122.709 138.748 126.133 138.58 129.551 138.688C126.148 137.919 122.732 137.529 119.326 137.479C115.903 137.429 112.48 137.78 109.056 138.135C105.633 138.512 102.189 138.859 98.7659 139.432C95.3576 140.002 91.987 140.739 88.5812 141.387C91.9995 141.395 95.4028 141.214 98.8212 140.887M127.143 133.027C130.227 133.09 133.394 133.294 136.486 132.824C133.397 132.03 130.23 132.1 127.141 132.062C124.052 132.087 120.97 132.062 117.881 132.469C120.97 132.836 124.052 132.899 127.143 133.025M63.68 132.821C66.2588 132.6 68.7723 132.439 71.3537 132.283C73.9351 132.13 76.5164 132.072 79.1028 132.075C81.6867 132.082 84.2731 132.075 86.8569 132.238C89.4358 132.397 92.0523 132.63 94.6287 132.96C92.0523 133.427 89.4358 133.573 86.8594 133.57C84.2731 133.57 81.6867 133.553 79.1028 133.553C76.5139 133.563 73.9275 133.528 71.3386 133.503C68.7648 133.477 66.2563 133.337 63.68 132.821Z" fill="white"/>
<path d="M157.23 61.7596L153.628 64.17L155.82 67.7769L159.57 65.6077L157.23 61.7571V61.7596ZM165.567 67.6638C164.883 66.2185 164.195 64.7783 163.32 63.4386L159.567 65.6102C160.394 66.867 161.04 68.2218 161.681 69.5816L165.567 67.6638ZM162.242 83.3203L166.429 82.2018C166.06 80.7465 165.71 79.2837 165.14 77.8887L161.038 79.2811C161.576 80.5831 161.895 81.9555 162.242 83.3178M46.372 64.17L44.1803 67.7769L47.9304 69.9485L49.9714 66.5804L47.4755 64.909L46.372 64.1675V64.17ZM152.065 69.9485C152.799 71.0419 153.354 72.2308 153.907 73.4172L157.795 71.4994C157.195 70.225 156.596 68.9532 155.817 67.7769L152.065 69.9485ZM171.753 85.7333C171.451 84.1674 170.991 82.6316 170.612 81.0808L166.427 82.2018C166.781 83.6597 167.216 85.0999 167.502 86.5753L171.753 85.7358V85.7333ZM168.608 95.5032L172.934 95.2242L172.806 92.8364C172.746 92.0447 172.587 91.2554 172.482 90.4687L168.184 91.0292C168.284 91.7732 168.44 92.5097 168.493 93.2587L168.608 95.5083V95.5032ZM163.886 91.5872L159.59 92.1477C159.678 92.7987 159.821 93.4422 159.864 94.0957L159.957 96.0638L164.283 95.7848L164.18 93.6759C164.127 92.9747 163.979 92.2835 163.886 91.5872ZM161.679 69.5816L157.793 71.4994C158.383 72.7762 159.057 74.0154 159.585 75.3174L163.586 73.6585C163.021 72.2685 162.31 70.9414 161.679 69.5816ZM163.886 91.5872L168.184 91.0267L167.502 86.5753L163.252 87.4148L163.886 91.5872ZM164.391 97.8936H168.729L168.608 95.5058L164.283 95.7848L164.391 97.8936ZM169.244 76.4987L167.593 71.9995L163.589 73.661L165.14 77.8912L169.244 76.5012V76.4987ZM28.2422 85.7333L27.5158 90.4662L31.8139 91.0267L32.495 86.5753L28.2422 85.7358V85.7333ZM39.1709 59.3491L36.68 63.4386L40.4327 65.6102L42.7727 61.7596L39.1734 59.3491H39.1709ZM31.5047 93.2562L31.3891 95.5058L35.7148 95.7848L35.8179 93.6759C35.8707 92.9747 36.019 92.2835 36.1094 91.5872L31.8139 91.0267C31.7133 91.7707 31.5575 92.5072 31.5047 93.2562ZM39.9425 97.8936L40.038 96.0663L35.7148 95.7873L35.6042 97.8961H39.9425V97.8936ZM41.9433 84.4413C42.2625 83.167 42.5566 81.8876 43.0668 80.6736L38.9648 79.2837C38.4219 80.5856 38.1026 81.958 37.7583 83.3203L41.9433 84.4413ZM44.414 76.9788C44.9067 75.7648 45.5401 74.6111 46.088 73.4197L42.2022 71.5019C41.6115 72.7787 40.9379 74.0179 40.41 75.3199L44.4115 76.9813L44.414 76.9788ZM158.057 84.4413C158.361 85.7157 158.755 86.9699 159.002 88.2568L163.255 87.4173C162.988 86.0399 162.571 84.6877 162.242 83.3228L158.057 84.4439V84.4413ZM40.4075 92.1477L40.9982 88.2543L36.7454 87.4148L36.1094 91.5872L40.4075 92.1477ZM26.9352 97.8936H31.271L31.3916 95.5058L27.0659 95.2268L26.9352 97.8961V97.8936ZM34.4355 67.6638C33.7593 69.109 33.0103 70.5241 32.4071 71.9995L36.4085 73.661C36.9741 72.271 37.6879 70.9439 38.3188 69.5841L34.4329 67.6663L34.4355 67.6638ZM34.8602 77.8887L38.9648 79.2811L40.4125 75.3174L36.4085 73.6585L34.8602 77.8887ZM32.4975 86.5728L36.7479 87.4123C37.0143 86.0349 37.429 84.6826 37.7608 83.3178L33.5733 82.1993C33.2189 83.6571 32.7841 85.0974 32.4975 86.5728ZM38.3213 69.5816L42.2072 71.4994C42.8054 70.225 43.4061 68.9532 44.1853 67.7769L40.4352 65.6077C39.6082 66.8645 38.9623 68.2192 38.3213 69.579M30.7607 76.4962C30.1575 77.9766 29.783 79.5325 29.3909 81.0783L33.5758 82.1993C33.9453 80.744 34.2922 79.2811 34.8653 77.8862L30.7632 76.4962H30.7607ZM155.591 76.9763L159.592 75.3148L161.043 79.2786L156.938 80.6686L155.591 76.9738V76.9763Z" fill="#1A1717"/>
<path d="M105.427 103.177C105.427 110.109 99.8065 115.73 92.8742 115.73C85.942 115.73 80.3218 110.109 80.3218 103.177C80.3218 96.2449 85.942 90.6248 92.8742 90.6248C99.8065 90.6248 105.427 96.2449 105.427 103.177Z" fill="#1A1717"/>
<path d="M95.443 105.273C95.443 105.273 94.2868 105.148 92.8743 105.148C91.4617 105.148 90.3055 105.273 90.3055 105.273C90.3055 105.273 89.6997 102.199 88.9331 100.468C88.9331 100.468 91.2983 99.2159 92.8743 97.8636C94.4477 99.2159 96.8154 100.468 96.8154 100.468C96.0438 102.199 95.443 105.273 95.443 105.273ZM102.737 102.451C102.654 103.062 102.398 104.102 101.594 105.123C101.737 104.069 101.742 103.232 101.709 102.637C101.433 102.159 100.855 101.212 100.136 100.292C99.1982 100.292 97.6449 100.292 97.6449 100.292C97.6449 100.292 98.9343 99.5879 99.7587 99.138C99.8291 98.6956 99.8794 97.9843 99.804 97.0568C99.5677 96.6019 98.9619 95.5035 98.0646 94.5835C99.0122 94.9857 99.7034 95.516 100.141 95.9157C100.375 95.976 100.669 96.064 100.983 96.1821C99.7135 94.5735 97.9842 93.3469 95.986 92.7185C96.2373 93.005 96.3982 93.3167 96.4937 93.548C96.921 93.7993 97.4765 94.1336 97.6449 94.302C97.6449 94.302 96.5565 94.1085 95.4606 94.0984C94.606 94.2945 93.9048 94.5609 93.4549 94.7695L92.8743 97.0518L92.2936 94.7695C91.8412 94.5609 91.1425 94.2945 90.2879 94.0984C89.192 94.1085 88.1036 94.302 88.1036 94.302C88.272 94.1336 88.825 93.7993 89.2548 93.548C89.3503 93.3142 89.5112 93.005 89.76 92.7185C87.7618 93.3494 86.03 94.5735 84.7632 96.1821C85.0774 96.0615 85.374 95.9735 85.6077 95.9157C86.0451 95.516 86.7363 94.9857 87.6814 94.5835C86.7891 95.5035 86.1808 96.6019 85.942 97.0568C85.8666 97.9843 85.9194 98.6956 85.9873 99.138C86.8142 99.5879 88.1036 100.292 88.1036 100.292C88.1036 100.292 86.5478 100.292 85.6128 100.292C84.8914 101.212 84.3158 102.159 84.0393 102.637C84.0066 103.232 84.0091 104.069 84.1524 105.123C83.3531 104.102 83.0942 103.062 83.0113 102.451C82.8379 102.333 82.6871 102.222 82.5614 102.129C82.5564 102.277 82.5388 102.421 82.5388 102.571C82.5388 104.798 83.2501 106.852 84.444 108.538C84.4515 107.993 84.5822 107.505 84.6978 107.186C84.5671 106.676 84.3736 105.884 84.3736 105.645C84.3736 105.645 84.9668 106.45 85.5927 107.071C86.6986 107.455 87.7316 107.616 88.3148 107.684C89.0965 106.95 90.0139 106.088 90.0139 106.088C90.0139 106.088 89.5037 107.443 89.1015 108.496C89.5162 109.363 90.2125 110.346 90.6599 110.939C91.1349 111.208 91.7306 111.522 92.2258 111.708C91.6527 111.821 91.0268 111.824 90.5417 111.798C90.1169 112.04 89.7299 112.221 89.4911 112.329C90.5543 112.698 91.6904 112.909 92.8793 112.909C94.0682 112.909 95.2043 112.698 96.2675 112.329C96.0262 112.221 95.6416 112.04 95.2168 111.798C94.7317 111.824 94.1059 111.821 93.5328 111.708C94.0279 111.522 94.6211 111.21 95.0987 110.939C95.5436 110.346 96.2423 109.363 96.6545 108.496C96.2549 107.443 95.7422 106.088 95.7422 106.088C95.7422 106.088 96.6596 106.95 97.4413 107.684C98.0244 107.616 99.06 107.455 100.166 107.071C100.789 106.45 101.382 105.645 101.382 105.645C101.382 105.884 101.189 106.676 101.061 107.186C101.176 107.505 101.307 107.993 101.315 108.538C102.511 106.852 103.217 104.798 103.217 102.571C103.217 102.421 103.202 102.277 103.197 102.129C103.069 102.227 102.921 102.335 102.747 102.451" fill="white"/>
<path d="M117.22 28.6017L115.096 38.5903C115.046 38.8291 114.89 38.9271 114.634 38.8718L111.994 38.3113C111.738 38.256 111.637 38.1002 111.688 37.8639L113.812 27.8753L110.268 27.1187C110.268 27.1187 110.597 27.8577 110.378 28.8958L108.463 37.9041C108.302 38.6582 108.41 39.3293 108.797 39.93C109.187 40.5308 109.765 40.8826 110.516 41.0435L114.915 41.9785C115.669 42.1394 116.338 42.0514 116.938 41.6618C117.539 41.2722 117.861 40.7369 118.032 39.9376L119.945 30.9292C120.168 29.8911 120.767 29.3532 120.767 29.3532L117.222 28.5992L117.22 28.6017ZM143.579 46.3973L144.698 44.8012C145.137 44.1703 145.303 43.5092 145.178 42.8055C145.054 42.0992 144.672 41.5336 144.041 41.0938L140.251 38.4395C139.62 37.9997 138.959 37.8338 138.255 37.9569C137.552 38.0826 136.984 38.4647 136.544 39.093L131.75 45.9398C131.311 46.5682 131.145 47.2317 131.268 47.933C131.394 48.6393 131.786 49.1897 132.414 49.6296L135.377 51.7058L136.109 51.5751L136.237 52.3065L138.389 53.8121L142.858 47.4253L138.316 44.2432L137.577 47.1815L138.655 47.938L137.733 49.2551C137.592 49.4562 137.411 49.4888 137.18 49.328L134.86 47.7043C134.644 47.5509 134.613 47.3725 134.764 47.1563L138.125 42.3606C138.733 41.4884 138.555 40.9103 138.555 40.9103L141.586 43.0342C141.817 43.1951 141.847 43.376 141.706 43.5771L140.998 44.59L143.576 46.3973H143.579ZM92.0473 33.1813C91.4617 32.7716 90.788 32.6409 90.034 32.7766L86.5377 33.3924C86.2989 33.4352 86.1481 33.3271 86.1029 33.0732L85.9722 32.3317C85.7862 31.2836 85.2508 31.0021 85.2508 31.0021L88.6013 30.4114C88.8401 30.3687 88.9909 30.4768 89.0361 30.7331L89.2322 31.8315L91.987 30.1802L91.8613 29.4714C91.7281 28.7148 91.3762 28.1317 90.7906 27.7195C90.2049 27.3098 89.5338 27.1816 88.7772 27.3148L84.6828 28.0387C83.9262 28.1719 83.338 28.5037 82.9258 29.0893C82.5161 29.6775 82.3879 30.3461 82.5212 31.1026L83.0037 33.8398C83.137 34.5964 83.4763 35.182 84.0644 35.5942C84.6501 36.0039 85.3212 36.1346 86.0778 36.0014L89.5715 35.3831C89.8128 35.3404 89.9636 35.4485 90.0089 35.7048L90.318 37.4718C90.3608 37.7106 90.2527 37.8614 89.9988 37.9067L87.5255 38.344C87.2666 38.3893 87.1183 38.2812 87.0756 38.0449L86.8343 36.6851L84.0795 38.334L84.2479 39.2841C84.3811 40.0431 84.7305 40.6263 85.3187 41.0385C85.9043 41.4482 86.5754 41.5764 87.3295 41.4431L91.424 40.7193C92.183 40.586 92.7687 40.2543 93.1809 39.6661C93.5906 39.0805 93.7213 38.4119 93.5881 37.6553L93.108 34.9357C92.9748 34.1791 92.633 33.5935 92.0473 33.1813ZM49.5969 51.2634C49.4159 51.1 49.2324 51.1101 49.054 51.3061L46.7064 53.9151C46.7064 53.9151 47.3021 53.8096 48.0888 54.5209L49.2098 55.5288L51.2407 53.2742C51.4167 53.0781 51.4066 52.8946 51.2256 52.7287L49.5969 51.2634ZM51.2005 48.4458L53.8874 50.8637C54.4605 51.379 54.7697 51.9848 54.7923 52.6885C54.8149 53.3923 54.5686 54.0257 54.0558 54.5963L51.4217 57.5195L53.5632 59.4473C54.3499 60.1561 55.1542 60.2366 55.1542 60.2366L52.4095 63.2829C52.4095 63.2829 52.2436 62.4962 51.4569 61.7849L43.9717 55.0462C43.185 54.3374 42.3831 54.257 42.3831 54.257L47.4403 48.6418C47.9531 48.0712 48.5613 47.7596 49.2752 47.7219C49.989 47.6842 50.6249 47.9305 51.1955 48.4458M129.863 36.5619C129.963 36.3382 129.896 36.1673 129.657 36.0592L126.465 34.6391C126.465 34.6391 126.746 35.172 126.316 36.1447L125.771 37.3688L128.528 38.5954C128.767 38.7034 128.94 38.6356 129.038 38.4119L129.86 36.5645L129.863 36.5619ZM125.914 45.8996L126.103 40.7318L124.579 40.0532L122.629 44.4367L119.316 42.9613C119.316 42.9613 120.015 42.5617 120.447 41.594L124.542 32.3946C124.972 31.4269 124.803 30.6376 124.803 30.6376L131.695 33.7066C132.396 34.0183 132.879 34.4984 133.118 35.1594C133.357 35.8205 133.321 36.4991 133.007 37.2029L131.627 40.2995C131.391 40.8299 131.049 41.232 130.592 41.5211C130.137 41.8101 129.647 41.9408 129.109 41.9056L129.011 45.4446C128.981 46.5657 129.267 47.3901 129.267 47.3901L125.917 45.8996H125.914ZM155.679 54.6013C156.458 53.8749 157.257 53.7819 157.257 53.7819L154.787 51.1302L151.059 54.6063L148.362 51.7158L152.09 48.2396L149.619 45.5879C149.619 45.5879 149.468 46.3797 148.691 47.1061L141.329 53.9704C140.553 54.6943 139.751 54.7873 139.751 54.7873L142.224 57.439L145.12 54.737C145.899 54.0106 145.844 53.4124 145.844 53.4124L148.865 56.6523L144.921 60.3321L147.392 62.9838C147.392 62.9838 147.543 62.1921 148.319 61.4657L155.679 54.6038V54.6013ZM102.918 34.9282C102.918 34.8151 102.901 34.7195 102.865 34.6643C102.828 34.609 102.79 34.5687 102.755 34.5687C102.717 34.5687 102.642 34.5687 102.529 34.5637C102.415 34.5637 102.34 34.5637 102.322 34.5637L99.4169 34.5134L99.3741 37.0621L102.483 37.135C102.745 37.14 102.878 37.0093 102.883 36.768L102.916 34.9332L102.918 34.9282ZM99.4847 30.9041L99.4697 31.7385L102.466 31.7712C102.599 31.7712 102.692 31.7561 102.747 31.7184C102.805 31.6832 102.825 31.5701 102.828 31.4017L102.855 29.9037C102.855 29.6599 102.73 29.5292 102.468 29.5242L99.0323 29.4638C99.0323 29.4638 99.5023 29.8434 99.4847 30.9041ZM106.078 35.2851L106.037 37.5146C106.025 38.2837 105.771 38.9146 105.256 39.4097C104.74 39.9074 104.1 40.1412 103.333 40.1286L95.6994 39.9929C95.6994 39.9929 96.187 39.3519 96.2071 38.2887L96.3831 28.2272C96.4032 27.164 95.9357 26.5029 95.9357 26.5029L103.421 26.6336C104.19 26.6487 104.821 26.9026 105.316 27.4178C105.814 27.9306 106.047 28.5338 106.035 29.3005L106 31.2308C105.985 32.1105 105.58 32.7791 104.803 33.2341C105.675 33.6966 106.095 34.3802 106.08 35.2801M65.0172 38.7839C66.4976 37.8966 68.1993 37.3361 68.1993 37.3361L65.6229 34.991L58.6832 39.1609L59.5453 42.5365C59.5453 42.5365 60.8397 41.2974 62.3202 40.4076L66.8696 47.9808C67.4176 48.8906 67.3422 49.695 67.3422 49.695L70.8585 47.5836C70.8585 47.5836 70.112 47.2719 69.5641 46.3595L65.0147 38.7864L65.0172 38.7839ZM76.4662 33.5307C78.0874 32.94 79.8619 32.7163 79.8619 32.7163L77.7832 29.9188L70.1774 32.6886L70.381 36.1673C70.381 36.1673 71.8866 35.1971 73.5103 34.6064L76.5315 42.9085C76.8934 43.9064 76.6697 44.683 76.6697 44.683L80.5229 43.2805C80.5229 43.2805 79.8518 42.8331 79.4899 41.8353L76.4687 33.5332L76.4662 33.5307ZM62.2825 51.2232C62.9536 52.0476 63.7303 52.2537 63.7303 52.2537L60.5432 54.8351C60.5432 54.8351 60.5055 54.0307 59.8343 53.2038L53.5029 45.3843C52.8317 44.5574 52.0526 44.3513 52.0526 44.3513L55.2422 41.7699C55.2422 41.7699 55.2799 42.5742 55.9485 43.4037L62.2825 51.2232Z" fill="#1A1717"/>
<path d="M127.181 157.808C127.101 157.622 126.96 157.564 126.761 157.65L123.989 158.826C123.989 158.826 124.471 158.954 124.813 159.763L126.781 164.401L129.189 163.378C129.39 163.292 129.448 163.149 129.368 162.966L127.178 157.808H127.181ZM129.338 156.272L131.987 162.513C132.236 163.096 132.253 163.659 132.047 164.202C131.841 164.743 131.434 165.135 130.851 165.384L124.999 167.864C124.999 167.864 125.155 167.216 124.808 166.409L121.561 158.755C121.219 157.949 120.646 157.607 120.646 157.607L126.482 155.096C127.068 154.847 127.631 154.829 128.164 155.056C128.697 155.284 129.089 155.689 129.338 156.275M149.151 144.557C148.561 144.557 148.045 144.788 147.598 145.238L145.524 147.312C145.381 147.452 145.23 147.452 145.077 147.301L144.637 146.862C144.016 146.241 143.521 146.304 143.521 146.304L145.507 144.318C145.65 144.175 145.801 144.175 145.954 144.328L146.608 144.979L147.689 142.558L147.269 142.141C146.821 141.691 146.306 141.463 145.715 141.46C145.125 141.46 144.61 141.694 144.162 142.141L141.732 144.569C141.284 145.019 141.043 145.522 141.043 146.115C141.043 146.708 141.274 147.219 141.722 147.668L143.345 149.292C143.793 149.74 144.303 149.976 144.894 149.976C145.484 149.976 145.999 149.745 146.449 149.297L148.523 147.224C148.666 147.08 148.817 147.08 148.97 147.234L150.019 148.282C150.159 148.425 150.159 148.576 150.006 148.729L148.541 150.194C148.387 150.35 148.237 150.35 148.093 150.207L147.286 149.4L146.203 151.821L146.769 152.386C147.219 152.834 147.731 153.065 148.324 153.065C148.918 153.065 149.43 152.834 149.878 152.386L152.306 149.956C152.756 149.508 152.997 149.006 152.997 148.412C152.997 147.819 152.766 147.306 152.316 146.859L150.705 145.245C150.257 144.796 149.747 144.562 149.154 144.559M77.2378 159.668C77.3157 159.479 77.2529 159.341 77.0518 159.258L74.3749 158.177C74.3749 158.177 74.6288 158.61 74.297 159.424L73.8823 160.45L76.1947 161.382C76.3958 161.465 76.5365 161.405 76.6119 161.216L77.2378 159.668ZM74.2467 167.49L74.2518 163.217L72.9749 162.702L71.4894 166.376L68.712 165.253C68.712 165.253 69.2776 164.903 69.6068 164.089L72.721 156.378C73.0478 155.566 72.8869 154.92 72.8869 154.92L78.6629 157.255C79.2536 157.494 79.6633 157.878 79.882 158.416C80.1007 158.954 80.0881 159.517 79.8493 160.105L78.8012 162.704C78.6202 163.149 78.3488 163.488 77.9818 163.742C77.6148 163.996 77.2101 164.114 76.7678 164.102L76.7879 167.027C76.7954 167.952 77.0543 168.626 77.0543 168.626L74.2442 167.49H74.2467ZM97.2075 163.767C97.2201 163.564 97.1195 163.451 96.9059 163.436L93.7942 163.217C93.7942 163.217 94.1662 163.551 94.1033 164.428L93.7665 169.269C93.7515 169.471 93.852 169.584 94.0682 169.599L96.461 169.767C96.6772 169.782 96.7903 169.682 96.8054 169.483L97.205 163.77L97.2075 163.767ZM99.8266 163.345L99.3465 170.232C99.3013 170.865 99.065 171.378 98.6327 171.765C98.2029 172.155 97.665 172.303 97.0316 172.258L93.1532 171.989C92.5198 171.944 92.0071 171.725 91.62 171.275C91.2354 170.83 91.0696 170.29 91.1148 169.656L91.5949 162.77C91.6401 162.136 91.8764 161.626 92.3238 161.239C92.7687 160.852 93.3091 160.686 93.9425 160.731L97.8183 161C98.4542 161.045 98.9645 161.282 99.3364 161.729C99.7084 162.174 99.8718 162.712 99.8266 163.345ZM50.1473 139.924C50.3082 139.804 50.3283 139.653 50.1976 139.479L48.4608 137.172C48.4608 137.172 48.4532 137.672 47.752 138.2L46.8672 138.866L48.3678 140.857C48.4985 141.03 48.6493 141.053 48.8102 140.93L50.1448 139.924H50.1473ZM43.5519 145.087L45.7588 141.43L44.9318 140.329L41.7673 142.712L39.9626 140.321C39.9626 140.321 40.6287 140.311 41.3275 139.786L47.9681 134.782C48.6694 134.254 48.8604 133.615 48.8604 133.615L52.6106 138.59C52.9926 139.097 53.1484 139.638 53.0554 140.211C52.965 140.784 52.6659 141.262 52.1606 141.641L49.9211 143.33C49.5391 143.617 49.1294 143.77 48.682 143.798C48.2371 143.823 47.8324 143.72 47.4554 143.481L45.9674 145.999C45.4974 146.796 45.3742 147.508 45.3742 147.508L43.5494 145.087H43.5519ZM63.6373 159.567L64.6653 157.856L67.9705 159.841L69.2474 157.717L65.9421 155.732L66.2312 155.249C66.6836 154.495 66.5026 154.03 66.5026 154.03L70.1749 156.237L72.2485 154.611L65.5425 150.582C65.5425 150.582 65.6028 151.245 65.1504 151.997L60.8699 159.122C60.4175 159.876 59.8017 160.133 59.8017 160.133L66.5077 164.162L66.9702 161.568L63.6348 159.565L63.6373 159.567ZM119.744 159.535C119.53 158.685 119.784 158.067 119.784 158.067L117.029 158.753L118.698 165.451L113.545 159.623L110.489 160.384C110.489 160.384 111.002 160.812 111.215 161.664L113.226 169.732C113.44 170.584 113.183 171.2 113.183 171.2L115.941 170.514L114.274 163.83L119.424 169.644L122.481 168.882C122.481 168.882 121.968 168.455 121.754 167.603L119.744 159.535ZM65.1655 150.396L62.7123 148.407L56.2275 153.434L59.8469 146.087L57.3435 144.059C57.3435 144.059 57.3033 144.745 56.9614 145.572L53.073 154.945L55.4081 156.833L63.768 151.082C64.5069 150.574 65.1655 150.393 65.1655 150.393M153.94 134.983L153.191 134.42C152.683 134.038 152.142 133.882 151.557 133.962C150.969 134.045 150.494 134.344 150.112 134.85L147.895 137.793C147.513 138.298 147.357 138.839 147.44 139.427C147.523 140.012 147.819 140.49 148.327 140.872L153.839 145.024C154.347 145.406 154.887 145.562 155.473 145.482C156.059 145.396 156.524 145.09 156.906 144.584L159.122 141.641C159.505 141.136 159.673 140.603 159.59 140.017C159.507 139.432 159.208 138.954 158.703 138.575L156.697 137.061L155.925 139.736L156.669 140.296C156.83 140.42 156.85 140.568 156.72 140.744L155.397 142.498C155.267 142.672 155.118 142.694 154.955 142.574L151.079 139.653C150.378 139.125 149.895 139.256 149.895 139.256L151.652 136.926C151.783 136.752 151.934 136.73 152.095 136.85L153.168 137.657L153.94 134.983ZM138.519 154.023C137.944 153.897 137.391 154.018 136.858 154.362L134.4 155.958C134.231 156.069 134.083 156.036 133.965 155.855L133.628 155.335C133.148 154.598 132.65 154.555 132.65 154.555L135.005 153.025C135.174 152.914 135.322 152.947 135.44 153.128L135.943 153.902L137.504 151.76L137.182 151.26C136.838 150.73 136.383 150.398 135.805 150.275C135.227 150.152 134.674 150.27 134.143 150.614L131.26 152.487C130.73 152.831 130.391 153.274 130.268 153.852C130.142 154.43 130.26 154.98 130.607 155.513L131.859 157.438C132.203 157.971 132.65 158.306 133.228 158.429C133.809 158.552 134.359 158.434 134.892 158.089L137.351 156.491C137.519 156.383 137.667 156.413 137.788 156.596L138.592 157.838C138.703 158.009 138.67 158.157 138.487 158.275L136.747 159.404C136.566 159.522 136.418 159.492 136.307 159.321L135.684 158.366L134.123 160.507L134.558 161.178C134.902 161.711 135.357 162.043 135.935 162.166C136.514 162.289 137.067 162.171 137.597 161.824L140.477 159.954C141.01 159.61 141.35 159.168 141.473 158.59C141.598 158.011 141.478 157.458 141.133 156.928L139.889 155.015C139.545 154.483 139.097 154.148 138.517 154.025M89.9762 161.865C90.1748 161.01 90.68 160.573 90.68 160.573L87.7643 159.899L86.8167 163.999L83.6321 163.265L84.5797 159.163L81.6641 158.487C81.6641 158.487 81.9255 159.1 81.7294 159.957L79.8594 168.055C79.6608 168.91 79.1556 169.347 79.1556 169.347L82.0738 170.021L82.8102 166.831C83.0088 165.977 82.6921 165.587 82.6921 165.587L86.2587 166.409L85.2558 170.755L88.1715 171.429C88.1715 171.429 87.9101 170.815 88.1062 169.961L89.9762 161.862V161.865ZM106.839 160.769L107.427 169.169C107.442 169.372 107.339 169.483 107.126 169.501L104.901 169.656C104.685 169.672 104.57 169.571 104.557 169.372L103.969 160.972L100.98 161.181C100.98 161.181 101.413 161.691 101.473 162.566L102.003 170.137C102.049 170.77 102.285 171.283 102.732 171.67C103.177 172.057 103.715 172.208 104.351 172.162L108.056 171.901C108.689 171.856 109.202 171.637 109.589 171.187C109.976 170.742 110.112 170.245 110.064 169.571L109.534 161.998C109.473 161.123 109.828 160.56 109.828 160.56L106.842 160.769H106.839ZM49.8432 150.054C49.1997 150.654 49.0741 151.31 49.0741 151.31L46.7617 148.832C46.7617 148.832 47.4252 148.752 48.0662 148.154L54.1463 142.483C54.7872 141.885 54.9129 141.229 54.9129 141.229L57.2253 143.707C57.2253 143.707 56.5618 143.785 55.9208 144.386L49.8432 150.054Z" fill="#1A1717"/>
<path d="M115.43 74.41C115.687 74.3572 115.908 74.1712 116.036 73.8998C116.433 73.0376 116.7 72.0448 116.695 70.9238C116.682 67.6763 114.955 66.1431 114.028 65.5499C113.686 65.3312 113.261 65.379 112.992 65.7334C111.771 67.3345 111.273 70.2904 111.333 72.4168C111.343 72.7611 111.494 73.0829 111.725 73.2839C113.276 74.6236 114.742 74.5533 115.43 74.41ZM120.588 73.6283C120.131 72.6531 118.793 72.5274 118.173 73.4071C117.391 74.513 116.287 76.0186 115.32 77.1422C114.892 77.6398 114.925 78.3914 115.398 78.8463C116.011 79.437 116.913 80.191 117.954 80.6887C118.64 81.018 119.444 80.8848 119.982 80.3469C120.756 79.5752 121.304 78.3738 121.242 76.2675C121.204 75.1012 120.885 74.2617 120.588 73.6283ZM114.774 81.1864C113.151 79.7688 113.766 77.68 110.567 77.68C107.367 77.68 107.983 79.7688 106.359 81.1864C104.871 82.4884 103.768 82.7623 103.831 84.1699C103.896 85.6126 104.539 87.4777 106.331 87.4777C108.124 87.4777 109.066 86.7965 110.567 86.7965C112.067 86.7965 113.007 87.4777 114.802 87.4777C116.597 87.4777 117.238 85.6152 117.303 84.1699C117.366 82.7623 116.262 82.4859 114.774 81.1864ZM105.814 77.1447C104.849 76.0211 103.745 74.5156 102.961 73.4096C102.338 72.5299 101.003 72.6531 100.545 73.6308C100.251 74.2642 99.9296 75.1037 99.8919 76.27C99.8266 78.3763 100.377 79.5803 101.151 80.3494C101.689 80.8873 102.493 81.023 103.18 80.6912C104.22 80.1935 105.123 79.437 105.736 78.8488C106.208 78.3939 106.241 77.6423 105.814 77.1447ZM105.311 73.8998C104.914 73.0376 104.647 72.0448 104.652 70.9238C104.665 67.6763 106.389 66.1431 107.319 65.5499C107.661 65.3312 108.086 65.379 108.355 65.7334C109.576 67.3345 110.074 70.2904 110.011 72.4168C110.004 72.7611 109.853 73.0829 109.619 73.2839C108.071 74.6236 106.605 74.5533 105.917 74.41C105.66 74.3572 105.437 74.1712 105.311 73.8998Z" fill="white"/>
</g>
</g>
<defs>
<clipPath id="clip0_9898_54200">
<rect width="176" height="176" fill="white" transform="translate(12 12)"/>
</clipPath>
</defs>
</svg>
