<svg width="200" height="200" viewBox="0 0 200 200" fill="none" xmlns="http://www.w3.org/2000/svg">
<path fill-rule="evenodd" clip-rule="evenodd" d="M44.2591 136.135C42.2706 136.135 41.8034 134.712 41.8034 134.712L34.86 113.99C34.86 113.99 34.4905 112.458 33.1866 112.458C37.2722 110.328 40.0594 106.064 40.0594 101.136V79.0232C40.0594 71.9874 34.3492 66.2827 27.3026 66.2827C25.4282 66.2827 23.6516 66.6902 22.0379 67.4182C21.0165 67.918 19.4518 67.8855 18.7455 67.8094C17.0721 67.6138 15.8497 66.5326 13.9101 66.5326C11.6988 66.5326 9.89506 68.331 9.89506 70.5531C9.89506 72.7752 11.7532 74.5735 13.9264 74.5735C15.1977 74.5735 16.1865 75.7579 16.1865 76.9152V85.9232C9.82986 86.9663 4.99988 92.4592 4.99988 99.0875C4.99988 105.71 9.84616 111.209 16.1865 112.225V165.398C16.1865 167.615 17.9903 169.424 20.2124 169.424C21.712 169.424 23.0322 168.582 23.7276 167.365C24.2872 166.376 24.8903 165.322 26.3409 164.105C27.5634 163.062 28.6337 162.719 30.2364 162.578C32.1163 162.404 34.1211 160.715 34.1211 158.493C34.1211 156.276 32.3336 154.477 30.1006 154.477L29.378 154.423C27.183 154.108 25.3575 152.619 25.3575 150.397L25.363 114.512L36.4301 147.561C36.4301 147.561 36.5822 148.094 36.5822 148.528C36.5822 149.006 36.3051 149.887 36.191 150.207C35.9955 150.663 35.9031 151.136 35.9031 151.647C35.9031 153.864 37.7014 155.662 39.9181 155.662C42.1511 155.662 43.9495 153.864 43.9495 151.647C43.9495 149.925 43.8245 148.235 44.3352 146.708C44.8785 145.111 45.7315 143.997 46.4758 143.486C47.5461 142.775 48.2742 141.541 48.2742 140.151C48.2742 137.934 46.4758 136.135 44.2591 136.135ZM16.1865 106.933C14.2741 106.618 12.7854 104.966 12.7854 102.972C12.7854 100.978 14.2415 99.3211 16.1865 99.006V106.933ZM31.0025 101.304C31.0025 104.423 28.487 106.955 25.363 106.955V73.6282C28.487 73.6282 31.0025 76.1546 31.0025 79.2786V101.304ZM92.2493 79.4742L92.2439 79.4524C92.2439 79.936 92.2493 80.4358 92.2493 79.4742ZM133.611 80.6042C133.611 73.5521 127.917 67.8529 120.876 67.8529H114.797C113.949 67.8529 113.406 67.391 113.406 67.391C112.727 66.8586 111.868 66.5326 110.939 66.5326C109.82 66.5326 108.815 66.989 108.07 67.7225C107.353 66.989 106.348 66.5326 105.223 66.5326C104.544 66.5326 104.006 66.6195 103.354 66.9999C102.431 67.5377 101.697 67.9398 100.828 68.0267C99.9969 68.1082 99.0678 68.0756 98.0844 67.641C97.3727 67.3204 96.938 67.2281 96.3132 67.2281C94.0966 67.2281 92.2874 69.021 92.2874 71.2431C92.2874 73.2153 93.7325 74.8452 95.5581 75.2092L93.3685 90.7912L91.1518 83.0654C90.9237 82.2939 91.2442 82.006 91.5974 81.4735C91.9288 80.9791 92.2439 80.2294 92.2439 79.4742V79.4307C92.2276 77.5672 90.7172 76.0568 88.8374 76.0568C88.8374 76.0568 87.7996 76.1111 87.3107 76.4099C86.8271 76.6979 86.0828 76.6979 85.5558 76.4099C85.0125 76.1111 84.0671 76.0459 84.0671 76.0459C82.1819 76.0459 80.6497 77.578 80.6497 79.4742C80.6497 80.2294 80.9649 80.9791 81.3017 81.4735C81.6494 82.006 81.9754 82.2939 81.7418 83.0654L79.536 90.7912L77.3356 75.2092C79.1665 74.8452 80.6063 73.2153 80.6063 71.2431C80.6063 69.021 78.8079 67.2281 76.5913 67.2281C75.9447 67.2281 75.5318 67.3204 74.8092 67.641C73.8313 68.0756 72.9022 68.1082 72.0709 68.0267C71.2071 67.9398 70.4628 67.5377 69.5391 66.9999C68.898 66.6195 68.3493 66.5326 67.6702 66.5326C65.4535 66.5326 63.6551 68.3255 63.6443 70.5422C61.4439 67.9017 58.1406 66.2175 54.4298 66.2175C47.8015 66.2175 42.4445 71.5908 42.4445 78.2191L42.4173 120.553C42.4173 127.187 47.8015 132.555 54.419 132.555C61.0473 132.555 66.4314 127.187 66.4314 120.553V78.2191C66.4314 76.7359 66.1544 75.3342 65.6654 74.0302C66.1381 74.2965 66.6814 74.4921 67.2573 74.5573C67.2573 74.5573 67.9853 74.5301 68.1374 75.709C68.2026 76.1817 70.5062 92.4972 73.0924 110.921C73.2391 111.991 72.9076 113.376 72.3861 114.175C71.7015 115.196 70.93 115.914 70.1911 116.897C69.5772 117.734 69.3001 118.462 69.3001 119.418C69.3001 121.64 71.1039 123.449 73.3206 123.449C75.0265 123.449 76.2598 122.439 77.0748 120.863C77.4877 120.081 78.0962 119.82 78.6612 119.624C79.2317 119.434 80.2749 119.364 81.3615 119.298C83.7249 119.157 85.3819 117.495 85.3819 115.278C85.3819 113.545 84.3279 112.067 82.7686 111.507C82.3883 111.377 82.3123 110.562 82.3123 110.562L82.1873 109.791L86.4522 94.9529L90.7063 109.791L90.5868 110.562C90.5868 110.562 90.5053 111.377 90.125 111.507C88.5657 112.067 87.5117 113.545 87.5117 115.278C87.5117 117.495 89.1688 119.157 91.5376 119.298C92.6188 119.364 93.6619 119.434 94.2378 119.624C94.7974 119.82 95.4114 120.081 95.8188 120.863C96.6392 122.439 97.8617 123.449 99.5731 123.449C101.795 123.449 103.594 121.64 103.594 119.418C103.594 118.462 103.327 117.734 102.692 116.897C101.958 115.914 101.187 115.196 100.518 114.175C99.9914 113.376 99.6546 111.991 99.8067 110.921C102.393 92.4972 104.691 76.1817 104.751 75.709C104.914 74.5301 105.642 74.5573 105.642 74.5573C106.609 74.454 107.456 74.0085 108.098 73.362L108.483 73.7477C109.065 74.1769 109.608 74.3399 109.608 75.2092V112.578C109.608 113.442 109.065 113.605 108.483 114.028C107.625 114.664 106.908 115.93 106.908 117.223C106.908 119.44 108.717 121.243 110.939 121.243C111.868 121.243 112.727 120.923 113.406 120.385C113.406 120.385 113.949 119.923 114.797 119.923H120.876C127.917 119.923 133.611 114.219 133.611 107.177V80.6042ZM57.2604 123.449C57.2604 125.003 55.9782 126.264 54.419 126.264C52.8651 126.264 51.6155 125.003 51.6155 123.449V75.2635C51.6155 73.7042 52.8705 72.4329 54.4298 72.4329C55.9837 72.4329 57.2604 73.7042 57.2604 75.2635V123.449ZM124.435 106.933C124.435 110.062 121.914 112.594 118.784 112.594V75.1331C121.914 75.1331 124.435 77.6649 124.435 80.7944V106.933ZM145.194 119.793V76.4099C145.194 74.8072 145.488 74.7094 146.33 74.4214C148.047 73.8183 149.199 72.384 149.199 70.5531C149.199 68.331 147.406 66.5326 145.189 66.5326C144.499 66.5326 143.961 66.8695 142.424 67.2281C140.859 67.5758 140.31 67.5758 138.691 67.2281C137.387 66.9347 136.665 66.5326 135.937 66.5326C133.731 66.5326 131.921 68.331 131.921 70.5531C131.921 72.384 133.149 73.9107 134.834 74.4214C135.708 74.6768 135.991 74.9376 135.991 76.4262V114.903C135.991 115.816 135.643 116.289 134.546 116.821C133.035 117.419 132.03 118.869 132.03 120.553C132.03 122.596 133.486 124.139 135.518 124.53C136.904 124.802 137.675 125.351 138.512 126.144C139.272 126.845 139.968 127.638 140.386 129.094C140.962 131.121 142.358 132.425 144.352 132.425C146.569 132.425 148.373 130.621 148.373 128.41C148.373 127.1 147.873 126.16 146.792 125.21C145.14 123.748 145.194 121.743 145.194 119.793ZM194.999 135.386C194.999 122.808 191.734 114.773 188.474 107.737C185.209 100.707 180.564 96.3601 179.928 90.4055C179.363 85.0593 179.428 75.8992 183.633 75.8992C184.845 75.8992 185.991 76.4642 186.459 77.4531C186.877 78.393 187.024 79.4742 187.1 80.7727C187.241 82.7123 188.659 84.1412 190.544 84.1412C192.435 84.1412 193.962 82.6253 193.962 80.7292C193.962 80.0772 193.777 79.4633 193.462 78.9417C192.739 77.502 192.777 76.3991 192.897 75.5787C193.022 74.7637 193.435 73.889 193.945 73.2696C194.652 72.4003 194.999 71.6071 194.999 70.5531C194.999 68.331 193.206 66.5326 190.984 66.5326C189.995 66.5326 189.137 66.9021 188.382 67.4888C187.17 68.4396 185.888 68.1245 184.448 67.5921C183.307 67.1628 182.112 66.7825 180.808 66.7825C177.804 66.7825 175.397 68.2495 173.799 70.6183V70.5531C173.799 68.331 172.007 66.5326 169.784 66.5326C168.91 66.5326 168.334 66.864 167.437 67.2987C164.813 68.532 161.64 68.1245 160.027 67.7605C158.706 67.4617 155.642 66.5326 154.914 66.5326C152.698 66.5326 150.899 68.331 150.899 70.5531C150.899 72.384 152.127 73.9107 153.8 74.4214C154.67 74.6768 154.958 74.9376 154.958 76.4262L154.963 90.2533C150.079 92.2364 146.667 97.0121 146.667 102.592C146.667 108.161 150.095 112.942 154.958 114.936V131.42C154.958 132.957 154.116 133.272 153.007 133.653C151.252 134.256 150.128 135.685 150.128 137.51C150.128 139.602 151.573 140.96 153.36 141.465C154.675 141.846 155.8 143.035 156.31 144.024C156.827 145.013 156.49 146.763 156.658 148.822C156.854 151.174 158.462 152.837 160.679 152.837C162.662 152.837 163.835 151.717 164.802 149.794C166.041 147.3 168.491 146.089 170.148 145.535C169.16 150.338 168.138 151.136 165.987 152.837C164.514 153.999 163.852 154.825 163.852 156.477C163.852 158.574 165.53 160.323 167.492 160.492C168.883 160.595 170.762 161.617 171.387 162.638C172.083 163.768 172.441 164.833 172.908 166.343C173.376 168.049 174.886 169.299 176.782 169.299C179.108 169.299 183.318 167.169 185.263 165.278C195.255 155.597 194.999 147.936 194.999 135.386ZM154.958 109.34C153.382 109.041 152.176 107.661 152.176 105.977C152.176 104.309 153.349 102.923 154.958 102.614V109.34ZM177.249 160.074L176.592 160.128C174.625 160.128 173.071 158.742 172.637 156.797C171.681 152.435 172.686 148.273 173.506 144.834C176.087 144.546 179.526 144.448 179.526 144.448C181.411 144.448 182.938 142.916 182.938 141.031C182.938 139.145 181.411 137.608 179.526 137.608C178.521 137.608 177.597 138.151 177.01 138.727C176.565 139.162 175.962 139.542 175.315 139.89C176.299 137.64 177.353 135.435 177.662 133.778C178.01 131.99 176.098 129.947 174.207 129.947C172.327 129.947 170.632 131.718 170.86 133.528C171.181 136.326 171.23 138.488 170.822 141.59C169.812 141.84 168.529 142.079 167.551 142.079C165.666 142.079 164.134 140.536 164.134 138.635L164.172 114.903C167.628 114.903 167.024 117.87 167.508 120.298C167.91 122.325 169.475 123.694 171.474 123.694C173.702 123.694 175.5 121.895 175.5 119.679C175.5 118.706 175.152 118.071 174.587 117.125C174.077 116.256 173.685 115.745 173.305 114.903C172.93 114.05 172.751 112.844 172.957 111.535C173.18 110.16 174.006 108.981 174.022 107.243C174.033 105.575 172.49 103.82 170.594 103.82C169.393 103.82 168.372 104.521 167.725 105.39C166.487 107.058 166.144 109.318 164.134 109.318L164.172 76.4099C164.172 73.9976 165.829 73.1175 167.975 74.1389C168.654 74.4649 169.132 74.5735 169.784 74.5735C170.768 74.5735 171.653 74.2041 172.349 73.6173C171.664 75.7417 169.583 83.5761 171.262 92.6547C173.023 102.206 178.293 106.982 181.063 114.903C183.818 122.808 186.084 129.849 186.084 137.51C186.084 137.51 185.328 157.172 177.249 160.074Z" fill="#3F9A39"/>
<path d="M100.051 30.9998L102.398 38.2692L110.037 38.2529L103.849 42.7352L106.229 50.0046L100.051 45.4952L93.8794 50.0046L96.2537 42.7352L90.0654 38.2529L97.6988 38.2692L100.051 30.9998Z" fill="#F9D007"/>
<path fill-rule="evenodd" clip-rule="evenodd" d="M187.772 167.363H185.822V167.841H186.501V169.716H187.088V167.841H187.772V167.363ZM189.103 167.363H188.25V169.716H188.821V168.102H188.853L189.424 169.716H189.853L190.44 168.091L190.451 168.102V169.716H191.027V167.363H190.174L189.652 168.835L189.103 167.363Z" fill="#3F9A39"/>
</svg>
