<svg width="43" height="24" viewBox="0 0 43 24" fill="none" xmlns="http://www.w3.org/2000/svg">
<path d="M27.1848 6.38044C26.1038 6.38044 25.3436 6.78455 24.9383 7.59326H25.5632C25.1412 6.78504 24.3301 6.38044 23.1982 6.38044C21.1541 6.38044 19.7186 7.82903 19.7186 9.90077V18.4402H22.827V9.85007C22.827 9.59756 23.0126 9.39526 23.2323 9.39526C23.4519 9.39526 23.6376 9.59756 23.6376 9.85007V18.4402H26.746V9.85007C26.746 9.59756 26.9316 9.39526 27.1512 9.39526C27.3709 9.39526 27.5565 9.59756 27.5565 9.85007V18.4402H30.6649V9.90077C30.6649 7.82903 29.229 6.38044 27.1853 6.38044H27.1848ZM15.8332 6.64969V15.2566C15.8332 15.5091 15.6476 15.7114 15.4279 15.7114C15.2082 15.7114 15.0226 15.5091 15.0226 15.2566V6.64969H11.8974V15.1891C11.8974 17.2609 13.3502 18.7095 15.4279 18.7095C17.5056 18.7095 18.9584 17.2609 18.9584 15.1891V6.64969H15.8332ZM5.79957 3.5V6.44738H7.89406V15.2566C7.89406 15.5091 7.70846 15.7114 7.48879 15.7114C7.26912 15.7114 7.08352 15.5091 7.08352 15.2566V12.2752H3.9751V15.2566C3.9751 17.2781 5.44465 18.7095 7.48879 18.7095C9.53293 18.7095 11.036 17.2776 11.036 15.2226V3.5H5.79957ZM35.3945 9.85007V15.2571C35.3945 15.5096 35.2088 15.7119 34.9724 15.7119C34.7359 15.7119 34.5503 15.5096 34.5503 15.2571V9.85007C34.5503 9.59756 34.7359 9.39526 34.9724 9.39526C35.2088 9.39526 35.3945 9.59756 35.3945 9.85007ZM34.9724 6.38044C32.8947 6.38044 31.4251 7.82903 31.4251 9.90077V22.5H34.5671V17.1437L33.334 16.9754C33.334 17.7167 34.2463 18.7104 35.5978 18.7104C37.3547 18.7104 38.5201 17.2958 38.5201 15.2743V9.90126C38.5201 7.82953 37.0506 6.38094 34.9729 6.38094L34.9724 6.38044Z" fill="black"/>
<path d="M27.1848 6.38044C26.1038 6.38044 25.3436 6.78455 24.9383 7.59326H25.5632C25.1412 6.78504 24.3301 6.38044 23.1982 6.38044C21.1541 6.38044 19.7186 7.82903 19.7186 9.90077V18.4402H22.827V9.85007C22.827 9.59756 23.0126 9.39526 23.2323 9.39526C23.4519 9.39526 23.6376 9.59756 23.6376 9.85007V18.4402H26.746V9.85007C26.746 9.59756 26.9316 9.39526 27.1512 9.39526C27.3709 9.39526 27.5565 9.59756 27.5565 9.85007V18.4402H30.6649V9.90077C30.6649 7.82903 29.229 6.38044 27.1853 6.38044H27.1848ZM15.8332 6.64969V15.2566C15.8332 15.5091 15.6476 15.7114 15.4279 15.7114C15.2082 15.7114 15.0226 15.5091 15.0226 15.2566V6.64969H11.8974V15.1891C11.8974 17.2609 13.3502 18.7095 15.4279 18.7095C17.5056 18.7095 18.9584 17.2609 18.9584 15.1891V6.64969H15.8332ZM5.79957 3.5V6.44738H7.89406V15.2566C7.89406 15.5091 7.70846 15.7114 7.48879 15.7114C7.26912 15.7114 7.08352 15.5091 7.08352 15.2566V12.2752H3.9751V15.2566C3.9751 17.2781 5.44465 18.7095 7.48879 18.7095C9.53293 18.7095 11.036 17.2776 11.036 15.2226V3.5H5.79957ZM35.3945 9.85007V15.2571C35.3945 15.5096 35.2088 15.7119 34.9724 15.7119C34.7359 15.7119 34.5503 15.5096 34.5503 15.2571V9.85007C34.5503 9.59756 34.7359 9.39526 34.9724 9.39526C35.2088 9.39526 35.3945 9.59756 35.3945 9.85007ZM34.9724 6.38044C32.8947 6.38044 31.4251 7.82903 31.4251 9.90077V22.5H34.5671V17.1437L33.334 16.9754C33.334 17.7167 34.2463 18.7104 35.5978 18.7104C37.3547 18.7104 38.5201 17.2958 38.5201 15.2743V9.90126C38.5201 7.82953 37.0506 6.38094 34.9729 6.38094L34.9724 6.38044Z" fill="black"/>
</svg>
