<svg width="200" height="200" viewBox="0 0 200 200" fill="none" xmlns="http://www.w3.org/2000/svg">
<g clip-path="url(#clip0_8997_1996)">
<mask id="mask0_8997_1996" style="mask-type:luminance" maskUnits="userSpaceOnUse" x="0" y="0" width="200" height="200">
<path d="M0 0H200V200H0V0Z" fill="white"/>
</mask>
<g mask="url(#mask0_8997_1996)">
<path d="M100.172 0L183.261 39.9991L176.585 98.15C174.046 120.386 168.973 135.888 160.142 148.358C151.369 160.769 138.9 169.874 127.592 178.484C118.708 185.16 108.835 192.993 100.172 200C91.5091 192.993 81.6366 185.16 72.7524 178.426C61.4403 169.874 48.9712 160.769 40.2023 148.358C31.3759 135.888 26.2982 120.386 23.7593 98.15L17.0833 39.9991L100.172 0Z" fill="#78DED4"/>
<path d="M104.314 90.3123V136.572C105.86 130.444 107.515 123.379 108.125 120.562C109.67 113.498 112.65 99.5848 114.527 89.8706C110.663 90.0914 107.405 90.2594 104.314 90.3123Z" fill="#4FB84F"/>
<path d="M65.9791 116.39C67.1141 116.39 67.9795 115.48 67.9795 114.346C67.9795 113.211 67.1141 112.323 65.9791 112.323C64.8445 112.323 63.957 113.189 63.957 114.346C63.957 115.502 64.8004 116.39 65.9791 116.39Z" fill="#4FB84F"/>
<path d="M165.754 96.8829L171.441 46.4808L100.834 12.478L103.21 43.6683C110.054 43.9467 115.962 44.9929 119.163 46.0971V46.2071C119.163 46.2071 115.684 47.4217 115.684 49.85C115.684 53.7708 127.389 56.2525 139.147 60.8354V60.9458C139.147 60.9458 123.415 57.9079 100.172 57.9079C76.9295 57.9079 61.1974 60.9458 61.1974 60.9458V60.8354C72.9557 56.2525 84.6612 53.7708 84.6612 49.85C84.6612 47.4217 81.1816 46.2071 81.1816 46.2071V46.0971C84.3828 44.9929 90.2907 43.9421 97.1345 43.6683L99.5099 12.478L28.9033 46.4808L34.5904 96.8829C39.5047 140.273 53.8549 150.539 80.9037 170.965C85.5395 174.444 90.5645 178.25 96.0307 182.612V90.3129C93.0503 90.2554 89.902 90.0921 86.2066 89.8712C87.3103 104.115 88.9128 129.893 88.9128 145.293C88.9128 154.124 88.6349 160.694 88.6349 160.694C84.9349 132.21 80.687 103.837 78.5899 89.2617C63.9041 87.7162 58.7162 84.2946 58.0007 83.7954C64.6241 81.2567 82.842 80.2058 100.177 80.2058C117.512 80.2058 135.729 81.3671 142.353 83.7954C141.633 84.3475 136.171 87.8267 120.77 89.3721C115.582 116.421 110.557 143.638 110.557 160.973C110.557 168.536 110.835 174.113 111.056 177.314C113.984 175.106 116.796 172.951 119.445 170.965C146.494 150.539 160.849 140.273 165.759 96.8829H165.754ZM65.9795 109.162C69.0262 109.162 71.2999 111.37 71.2999 114.346C71.2999 115.529 70.9378 116.62 69.9578 118.28L67.0257 123.349H63.1357L65.5245 119.141C65.432 119.163 65.2995 119.185 65.1845 119.185C62.4557 118.982 60.6591 116.911 60.6591 114.341C60.6591 111.361 62.9107 109.158 65.9795 109.158V109.162ZM58.182 109.387V123.349H54.6362V113.343L51.3866 114.911V111.454L55.7312 109.383H58.1862L58.182 109.387ZM139.147 76.3467C137.875 75.1325 127.111 72.6467 100.172 72.6467C73.2341 72.6467 62.4691 75.075 61.1974 76.3467C60.3674 76.2896 46.4591 75.2958 46.4591 72.4833C46.4591 69.9446 67.2157 65.4717 100.172 65.4717C133.129 65.4717 153.886 69.9446 153.886 72.4833C153.886 75.3004 139.973 76.2937 139.147 76.3467ZM128.674 123.349L133.676 112.527H128.153V109.387H138.816V109.453L132.493 123.344H128.674V123.349ZM137.77 120.713L142.865 109.392H146.547L142.75 117.852H144.909V115.353H148.049V117.852H149.638V120.805H148.049V123.353H144.909V120.805H137.77V120.713Z" fill="#4FB84F"/>
<path d="M138.812 109.387H128.148V112.527H133.672L128.669 123.349H132.489L138.812 109.458V109.387Z" fill="#0033A1"/>
<path d="M144.904 123.349H148.044V120.801H149.634V117.847H148.044V115.344H144.904V117.847H142.746L146.543 109.387H142.86L137.765 120.713V120.801H144.904V123.349Z" fill="#0033A1"/>
<path d="M51.3821 111.458V114.911L54.6321 113.343V123.349H58.1817V109.387H55.7225L51.3821 111.458Z" fill="#0033A1"/>
<path d="M65.1845 119.189C65.2995 119.189 65.4362 119.167 65.5245 119.145L63.1358 123.353H67.0258L69.9579 118.284C70.9333 116.624 71.2999 115.533 71.2999 114.35C71.2999 111.369 69.0262 109.166 65.9795 109.166C62.9329 109.166 60.6587 111.374 60.6587 114.35C60.6587 116.919 62.4558 118.986 65.1845 119.194V119.189ZM65.9795 112.323C67.1141 112.323 67.9795 113.189 67.9795 114.345C67.9795 115.502 67.1141 116.39 65.9795 116.39C64.8445 116.39 63.957 115.48 63.957 114.345C63.957 113.211 64.8004 112.323 65.9795 112.323Z" fill="#0033A1"/>
<path d="M100.172 5.18799L22.1167 42.7808L28.4087 97.6508C33.7071 143.911 49.6599 155.17 77.0974 175.927C83.3362 180.674 90.4007 186.083 100.172 194.035C109.943 186.087 117.008 180.674 123.247 175.927C150.684 155.17 166.637 143.911 171.936 97.6508L178.228 42.7808L100.172 5.18799ZM104.314 136.572V90.3125C107.404 90.255 110.663 90.0917 114.527 89.8708C112.65 99.585 109.669 113.498 108.124 120.562C107.515 123.38 105.859 130.444 104.314 136.572ZM111.047 177.314C110.827 174.113 110.548 168.536 110.548 160.972C110.548 143.637 115.573 116.425 120.761 89.3721C136.162 87.8267 141.628 84.3475 142.344 83.7954C135.721 81.3671 117.502 80.2058 100.168 80.2058C82.8328 80.2058 64.6149 81.2567 57.992 83.7954C58.7116 84.2942 63.8995 87.7162 78.5807 89.2617C80.6782 103.837 84.9303 132.21 88.6257 160.694C88.6257 160.694 88.9041 154.124 88.9041 145.293C88.9041 129.892 87.3012 104.111 86.1974 89.8708C89.8974 90.0917 93.0412 90.2596 96.0216 90.3125V182.612C90.5553 178.25 85.5349 174.444 80.8945 170.964C53.8457 150.539 39.4913 140.273 34.5814 96.8825L28.8944 46.4808L99.5099 12.4778L97.1345 43.6683C90.2903 43.9462 84.3828 44.9929 81.1816 46.0967V46.2071C81.1816 46.2071 84.6607 47.4212 84.6607 49.8496C84.6607 53.7708 72.9557 56.2521 61.1974 60.8354V60.9458C61.1974 60.9458 76.9295 57.9079 100.172 57.9079C123.415 57.9079 139.147 60.9458 139.147 60.9458V60.8354C127.389 56.2521 115.684 53.7708 115.684 49.8496C115.684 47.4212 119.163 46.2071 119.163 46.2071V46.0967C115.962 44.9929 110.054 43.9421 103.21 43.6683L100.834 12.4778L171.441 46.4808L165.754 96.8825C160.84 140.273 146.49 150.539 119.441 170.964C116.792 172.951 113.975 175.106 111.052 177.314H111.047Z" fill="#0033A1"/>
<path d="M153.886 72.4833C153.886 69.9446 133.129 65.4717 100.172 65.4717C67.2158 65.4717 46.4587 69.9446 46.4587 72.4833C46.4587 75.3004 60.3717 76.2938 61.1975 76.3467C62.4692 75.075 73.2337 72.6467 100.172 72.6467C127.111 72.6467 137.875 75.1325 139.147 76.3467C139.977 76.2892 153.886 75.2958 153.886 72.4833Z" fill="#0033A1"/>
</g>
</g>
<defs>
<clipPath id="clip0_8997_1996">
<rect width="200" height="200" fill="white"/>
</clipPath>
</defs>
</svg>
