<svg width="64" height="64" viewBox="0 0 64 64" fill="none" xmlns="http://www.w3.org/2000/svg">
<path d="M32.0004 60.798L31.987 60.7913L19.3903 54.2994C15.5456 52.33 13.5954 50.7634 12.1926 48.5182C10.8566 46.3558 10.3115 43.9623 10.3115 40.2583V8.1856C13.6724 6.56707 16.9563 5.38063 20.3477 4.5577C24.1169 3.64319 27.9284 3.19922 32.0004 3.19922C36.0724 3.19922 39.8843 3.64319 43.6532 4.5577C47.0445 5.38024 50.3284 6.56707 53.6893 8.1856V40.2595C53.6893 43.9635 53.1442 46.3566 51.8067 48.5206C50.4043 50.7646 48.4536 52.33 44.6101 54.299L32.0135 60.7921L32 60.7988V60.7976L32.0004 60.798Z" fill="#20604E"/>
<path d="M32.0002 59.689L31.9868 59.6823L19.8395 53.421C16.1687 51.5409 14.3221 50.069 13.0248 47.9931C11.7951 46.0023 11.2939 43.761 11.2939 40.2572V8.81677C17.8893 5.69945 24.6657 4.18359 32.0002 4.18359C39.3347 4.18359 46.1111 5.69945 52.7065 8.81677V40.2576C52.7065 43.7614 52.2053 46.0043 50.974 47.9946C49.678 50.0694 47.8313 51.5413 44.1605 53.421L32.0117 59.6823L31.9982 59.689H31.9994H32.0002Z" fill="#FBF9F4"/>
<path d="M22.5439 17.4062H12.582V18.6581H22.2632C22.3296 18.23 22.4253 17.813 22.5439 17.4062Z" fill="#C04D38"/>
<path d="M24.6178 13.6445H12.582V15.5445H23.3004C23.6648 14.8591 24.1087 14.2217 24.6178 13.6445Z" fill="#C04D38"/>
<path d="M41.7386 18.6581H51.4198V17.4062H41.458C41.5778 17.8142 41.6722 18.2316 41.7386 18.6581Z" fill="#C04D38"/>
<path d="M40.7002 15.5445H51.4186V13.6445H39.3828C39.8919 14.2217 40.3362 14.8591 40.7002 15.5445Z" fill="#C04D38"/>
<path d="M32.0001 5.47656C25.3913 5.47656 18.6458 6.84178 12.582 9.64714V12.6792H25.5977C27.3206 11.2006 29.5554 10.306 32.0017 10.306C34.448 10.306 36.6828 11.2006 38.4058 12.6792H51.4214V9.64714C45.3565 6.84178 38.6121 5.47656 32.0033 5.47656H32.0005H32.0001Z" fill="#C04D38"/>
<path d="M12.582 18.6581V25.1952L16.7631 22.6499L20.4418 19.8779L22.9494 21.6431L25.5166 19.5179L30.6444 14.0341L32.2559 12.6593L38.567 18.8337L41.3829 21.1602L44.2067 19.4882L48.0541 22.535L51.4202 24.819V18.6577H41.739C41.6726 18.2296 41.577 17.8126 41.4584 17.4059H51.4202V15.5432H40.7019C40.3374 14.8578 39.8935 14.2204 39.3844 13.6432H51.4202V12.678H38.4046C36.6816 11.1994 34.4468 10.3047 32.0005 10.3047C29.5542 10.3047 27.3194 11.1994 25.5965 12.678H12.582V13.6432H24.6178C24.1087 14.2204 23.6644 14.8578 23.3004 15.5432H12.582V17.4059H22.5439C22.4241 17.8138 22.3296 18.2312 22.2632 18.6577H12.582V18.6581Z" fill="#E6BA3F"/>
<path d="M49.1253 29.3492L49.3408 27.7037L48.0206 25.7253L43.2545 28.4811L33.318 33.3398L35.3468 31.1037L39.1426 27.557L40.9173 27.4104L41.9224 25.1624V23.6719L44.9921 25.3265L44.3806 22.3891L44.7541 21.2546L44.2039 19.4866L41.3801 21.1587L38.6094 22.7986L34.5425 25.6757L34.1302 23.8023L31.9286 20.2838L31.8341 18.3957L35.9144 21.8583L35.5223 19.8957L33.8314 17.4039L33.652 16.1239L32.4899 14.5173L32.2531 12.6602H32.2519L30.6404 14.0333L25.5127 19.5172L20.53 23.6426L14.7975 27.8876L17.5786 24.1622L19.4573 22.8157L20.5102 21.2835L20.4383 19.8783L16.7612 22.6503L12.5801 25.1957V40.2594C12.5801 43.5115 13.0255 45.5475 14.1141 47.3099C15.2774 49.171 16.9857 50.5125 20.4265 52.2753L31.9863 58.2324L31.9982 58.2376L32.01 58.2324L43.5699 52.2753C47.0107 50.5125 48.719 49.1726 49.8823 47.3099C50.9712 45.5471 51.4163 43.5112 51.4163 40.2594V32.857L49.123 29.3504L49.1257 29.3492H49.1253ZM18.8509 33.3584L22.6545 28.8093L24.1886 27.9305L25.2135 25.5944L28.0491 27.1103L27.6594 25.6024L27.9013 24.3906L27.1064 22.6825L27.7764 20.8546L32.0998 24.8881L33.5583 26.1641L18.8505 33.3584H18.8509Z" fill="#20604E"/>
<path d="M20.7741 48.896C20.6266 48.7735 20.5547 48.6213 20.5547 48.4373V48.408H21.3096C21.3148 48.4908 21.3547 48.5507 21.4413 48.5999C21.5583 48.668 21.7349 48.7013 21.9863 48.7013C22.284 48.7013 22.465 48.668 22.5512 48.5959C22.5899 48.5638 22.6097 48.5198 22.6097 48.4706C22.6097 48.364 22.5207 48.3093 22.2867 48.2546C22.046 48.1987 21.6247 48.14 21.3575 48.0758C21.133 48.0211 20.9705 47.9438 20.8496 47.8344C20.7061 47.7036 20.6341 47.5411 20.6341 47.3492C20.6341 47.1439 20.7167 46.9639 20.8693 46.8307C21.0954 46.6333 21.4622 46.5469 22.01 46.5469C22.5579 46.5469 22.9551 46.6468 23.1733 46.8521C23.2943 46.9667 23.3607 47.1121 23.3607 47.2616V47.2909H22.6267C22.6215 47.2069 22.5895 47.1538 22.5255 47.1121C22.4243 47.0467 22.2555 47.0146 22.0176 47.0146C21.7796 47.0146 21.6041 47.0479 21.5215 47.1145C21.4776 47.149 21.4642 47.1906 21.4642 47.2358C21.4642 47.3504 21.5559 47.4067 21.7685 47.4586C21.9998 47.5145 22.4357 47.5759 22.6939 47.6358C22.9915 47.704 23.1871 47.7944 23.3069 47.9184C23.416 48.0306 23.4705 48.1785 23.4705 48.3652C23.4705 48.5717 23.4026 48.7398 23.2618 48.869C23.0346 49.0823 22.6342 49.1798 21.9962 49.1798C21.3583 49.1798 21.0073 49.0906 20.7745 48.8932L20.7733 48.896H20.7741ZM24.5816 48.6922C24.5006 48.5574 24.4658 48.3882 24.4658 48.1269V46.6337H25.3923V48.0536C25.3923 48.2149 25.4097 48.3018 25.456 48.3751C25.5477 48.5245 25.7326 48.5884 26.0623 48.5884C26.3919 48.5884 26.59 48.523 26.6805 48.3779C26.7283 48.3018 26.7457 48.2126 26.7457 48.054V46.6341H27.4821V48.1273C27.4821 48.3886 27.4477 48.5578 27.3663 48.6926C27.171 49.0181 26.6947 49.1834 25.9741 49.1834C25.2536 49.1834 24.7749 49.0181 24.5808 48.6926L24.5816 48.6922ZM28.6323 46.6333H30.0137L30.6691 48.0187L31.3244 46.6333H32.666V49.0946H31.7458V47.2774L30.8762 49.0946H30.2035L29.3339 47.2774V49.0946H28.6331V46.6333H28.6319H28.6323ZM33.913 46.6333H35.2945L35.9498 48.0187L36.6051 46.6333H37.9467V49.0946H37.0265V47.2774L36.1569 49.0946H35.4842L34.6146 47.2774V49.0946H33.9138V46.6333H33.9126H33.913ZM39.1937 46.6333H40.1578V49.0946H39.1937V46.6333ZM42.1266 47.2307H41.127V46.6333H44.0812V47.2307H43.0827V49.0946H42.127V47.2307H42.1266Z" fill="#FBF9F4"/>
<path d="M28.6332 50.8583H31.417V51.4117H29.5969V51.9956H31.24V52.5315H29.5969V53.3196H28.6328V50.8583H28.6332ZM32.6764 53.0171C32.5155 52.853 32.4384 52.6263 32.4384 52.3187V51.8374C32.4384 51.539 32.5088 51.3253 32.6617 51.1655C32.9131 50.9015 33.3981 50.7695 34.1293 50.7695C34.8606 50.7695 35.3444 50.9015 35.5863 51.1723C35.7128 51.3138 35.7752 51.4961 35.7752 51.7296V51.799H34.9827V51.7645C34.9827 51.6579 34.963 51.5873 34.9203 51.5271C34.8139 51.3832 34.5641 51.311 34.1732 51.311C33.8088 51.311 33.5949 51.3737 33.4886 51.5136C33.4301 51.5909 33.4104 51.6844 33.4104 51.8684V52.3218C33.4104 52.4939 33.4301 52.5763 33.4874 52.6525C33.5993 52.8003 33.8119 52.8657 34.1788 52.8657C34.5685 52.8657 34.8155 52.7924 34.9207 52.6457C34.9645 52.5859 34.9859 52.5109 34.9859 52.415V52.3805H35.7875V52.438C35.7875 52.6913 35.7171 52.8887 35.5732 53.0382C35.3313 53.2903 34.878 53.4088 34.1681 53.4088C33.4582 53.4088 32.9356 53.2796 32.6819 53.0179H32.6768L32.6764 53.0171Z" fill="#FBF9F4"/>
<path d="M16.2188 35.8281H18.8682C19.5275 35.8281 20.0303 36.0402 20.3864 36.4774C20.7255 36.8893 20.8516 37.4054 20.8516 38.352V41.7988C20.8516 42.7454 20.724 43.2615 20.3864 43.6734C20.0303 44.1106 19.5275 44.3227 18.8682 44.3227H16.2188V35.8281ZM18.9895 42.4893C19.0801 42.3918 19.1172 42.24 19.1172 41.9855V38.1388C19.1172 37.8843 19.0812 37.7321 18.9895 37.6349C18.9046 37.5442 18.7781 37.5017 18.6026 37.5017H18.0042V42.6229H18.6026C18.7781 42.6229 18.9046 42.5801 18.9895 42.4897V42.4893ZM22.0497 35.8281H25.8493V37.4669H23.8643V39.087H25.4489V40.5735H23.8643V42.6546H25.8612V44.3227H22.0497V35.8281ZM26.9328 35.8281H28.9348L30.2656 39.9721V35.8281H31.7534V44.3227H29.9866L28.4257 39.439V44.3227H26.9312V35.8281H26.9324H26.9328ZM32.5222 35.8281H34.4032L35.2926 41.4828L36.1819 35.8281H37.6709L36.146 44.3227H34.0467L32.5218 35.8281H32.5222ZM38.4397 35.8281H42.2393V37.4669H40.2559V39.087H41.8405V40.5735H40.2559V42.6546H42.2528V44.3227H38.4412V35.8281H38.4401H38.4397ZM43.3212 35.8281H46.1955C46.8311 35.8281 47.2604 35.9922 47.5687 36.3494C47.8465 36.6772 47.9556 37.0839 47.9556 37.8292V38.1812C47.9556 38.7572 47.8706 39.1092 47.6952 39.3704C47.5438 39.6011 47.3256 39.7771 47.0358 39.8984C47.2778 39.9892 47.4774 40.1359 47.6102 40.3119C47.8042 40.5731 47.888 40.9184 47.888 41.4706V42.7454C47.888 43.4922 47.924 43.9227 48.0208 44.3227H46.2422C46.1758 44.0012 46.1449 43.6135 46.1449 43.0732V41.2291C46.1449 40.9917 46.109 40.8466 46.024 40.7558C45.9457 40.6773 45.8299 40.6345 45.6678 40.6345H45.1054V44.3239H43.32V35.8293L43.3212 35.8281ZM45.7647 39.1758C45.9216 39.1758 46.0374 39.1397 46.109 39.0545C46.1939 38.9692 46.2232 38.8305 46.2232 38.5998V37.9453C46.2232 37.7214 46.1872 37.5747 46.109 37.4962C46.0358 37.411 45.9216 37.3749 45.7647 37.3749H45.1054V39.1762H45.7647V39.1758Z" fill="#FBF9F4"/>
</svg>
