<svg width="200" height="200" viewBox="0 0 200 200" fill="none" xmlns="http://www.w3.org/2000/svg">
<path d="M196 49.8911V35.8145L192.558 32.3108C148.299 -9.79602 53.5131 45.4653 21.3029 72.1432L5.38225 96.7926L25.1755 91.875C-5.19054 129.986 5.62813 155.004 6.919 157.586C10.1154 166.561 17.4303 173.753 29.2325 178.486C38.2071 182.051 48.4111 182.543 57.1398 182.113C94.8822 180.33 139.509 156.787 168.339 131.769L169.015 131.216L174.731 102.263L163.544 108.472C124.634 125.56 93.3455 135.027 93.3455 135.027C72.8761 141.42 63.4712 142.465 56.771 140.866L55.9719 140.62C54.1278 139.883 53.8204 138.223 53.8204 137.793C53.5131 125.007 75.5807 97.4687 86.6453 85.5436C96.9722 74.4176 113.262 62.2465 127.031 56.4684C136.251 52.5958 142.214 51.059 144.98 51.3049C144.242 53.7022 142.952 56.6528 141.169 60.218L125.802 90.4612L196 49.8911Z" fill="#B48B52"/>
<path d="M108.529 47.8625C95.8658 54.5627 81.2974 68.0246 76.7487 72.8807C39.6209 112.406 13.6192 165.27 94.8822 139.944C94.8822 139.944 126.478 130.355 165.695 113.143C54.681 206.946 -50.1249 167.729 53.0213 69.0695C43.6165 71.221 34.1501 73.2495 24.8682 75.8312C57.8775 48.4772 148.484 -2.48125 188.931 35.9988L145.718 62.4923C164.282 26.1637 130.842 34.708 108.529 47.8625Z" fill="#600E2C"/>
</svg>
