<svg width="200" height="200" viewBox="0 0 200 200" fill="none" xmlns="http://www.w3.org/2000/svg">
<path d="M167.541 36.9425C150.319 18.5245 125.263 8 98.7726 8C96.5002 8 94.2279 8.0598 92.0154 8.29899C49.2594 11.1693 28.629 41.6068 26.4762 44.9555C23.2471 48.962 -3.84163 85.6185 14.3371 136.208L14.6959 137.284C14.8753 137.823 32.5756 192 95.8425 192C99.1912 192 102.719 191.821 106.247 191.522C153.548 187.396 188.65 152.473 191.64 106.668C193.493 80.2964 184.942 55.5398 167.541 36.9425Z" fill="white"/>
<path d="M163.056 41.0686C145.296 22.1125 119.104 12.3653 92.3143 14.2191C49.7975 17.0894 30.9012 48.7228 30.9012 48.7228L69.232 60.3835C72.4612 61.3403 93.3906 66.6026 102.899 71.7452C104.872 72.8216 106.785 75.0341 108.699 77.0075C110.134 78.5025 111.45 79.9376 112.825 81.0738C115.337 83.1069 117.729 84.8411 120.121 86.5752C125.921 90.8209 131.004 94.4089 133.396 99.9701C135.429 104.754 135.489 109.777 133.695 114.382C132.08 118.388 128.911 122.036 125.084 124.547C125.502 122.514 125.981 119.584 123.23 117.79C121.974 117.013 115.695 115.518 111.45 115.039C109.417 114.86 86.6334 113.784 55.0598 130.826C64.508 118.149 71.325 116.056 71.325 116.056C71.026 114.561 20.1973 135.132 20.1973 135.132C20.1973 135.132 37.778 191.402 105.59 185.422C149.781 181.535 182.67 149.184 185.54 106.07C187.214 81.4924 179.201 58.3504 163.056 41.0686ZM148.943 120.72C155.342 106.608 152.173 91.2993 141.289 79.1602C138.299 75.8115 134.532 73.4794 130.944 71.3266C128.612 69.8915 126.16 68.3965 124.007 66.6026C122.991 65.7654 122.154 64.6292 121.257 63.493C120.18 61.9981 118.925 60.2639 117.131 59.0679C107.144 51.7725 95.3042 49.2012 83.7033 45.7927C78.2018 44.1781 72.8797 42.9821 67.8567 41.1882C74.1355 36.8827 82.0887 34.0124 90.8193 33.235C93.57 32.936 96.261 32.8164 99.0117 32.8164C124.785 32.8164 147.149 45.7329 159.109 67.4995C171.009 89.2064 170.292 115.578 157.076 136.387C143.502 157.735 119.463 169.037 92.2545 166.765C75.9893 165.449 58.5879 156.838 53.2658 147.63C56.5548 145.596 86.2746 129.869 106.666 136.208C112.466 136.208 103.198 150.38 103.198 150.38C103.198 150.38 136.864 147.39 148.943 120.72ZM98.6529 77.9643C87.7696 78.3829 77.6636 65.2272 69.2918 73.898C70.9064 74.3166 74.2551 73.0608 74.7335 74.5558C70.428 91.5385 98.4137 95.9636 98.6529 77.9643Z" fill="#E03A3E"/>
</svg>
