<svg width="200" height="200" viewBox="0 0 200 200" fill="none" xmlns="http://www.w3.org/2000/svg">
<path d="M184.142 4L160.055 28.2134L139.888 8.10932L119.721 28.2134L99.5536 8.0461L79.4496 28.1501L59.3455 8.0461L39.2415 28.2134L15.85 4.50576V111.538C15.85 158.131 53.2132 196 99.7433 196C146.273 196 184.142 158.131 184.142 111.538V4Z" fill="white"/>
<path d="M23.3732 126.205C25.333 136.32 29.3159 145.74 35.0689 154.464C38.6093 148.269 45.5635 140.746 59.3455 137.458C58.334 133.918 57.3857 130.188 56.5638 126.268L23.3732 126.205ZM40.5691 161.671C55.4258 179.12 76.8575 189.109 99.3639 189.235C97.2145 188.161 95.1914 186.96 93.1051 185.632C83.5589 179.436 70.4091 167.424 61.9375 145.108C48.5981 148.079 42.9082 155.665 40.5691 161.671ZM70.2194 144.033C76.2885 159.206 85.3923 170.838 97.2777 178.678C105.18 183.862 112.767 186.138 117.698 187.276C130.215 184.431 141.848 178.362 151.521 169.827C143.934 169.005 136.032 164.643 127.876 160.028C114.979 152.821 98.9846 143.843 77.3001 143.843C75.0241 143.717 72.6218 143.78 70.2194 144.033Z" fill="#63717A"/>
<path d="M102.715 86.7553H74.961V119.883H86.5303V93.2669H95.1915V119.883H106.192V91.4336C106.192 88.968 104.611 86.7553 102.715 86.7553ZM110.997 86.7553V115.204C110.997 117.733 112.577 119.883 114.41 119.883H132.618H142.227V99.7154H131.164V113.245H122.503V93.0773H142.291V86.692L110.997 86.7553ZM44.1095 86.7553L37.8507 100.221H34.2472V86.7553H22.6779V119.946H34.2472V106.606H37.8507L44.1095 119.946H55.6156L47.5867 103.445L55.6156 86.7553H44.1095ZM58.6502 86.7553H70.5356V119.883H58.6502V86.7553ZM177.315 95.7958V86.8185H146.779V101.991C146.779 104.52 148.36 106.543 150.193 106.543H165.745V113.75H146.716V120.009H177.251V104.773C177.251 102.434 175.924 100.221 174.217 100.221H158.159V93.2669H166.188V95.7958H177.315ZM144.756 53.2485H135.084L155.124 33.0812L139.888 17.8452L119.721 37.9492L99.5537 17.8452L64.2768 53.2485H54.4777L74.6449 33.018L59.4088 17.8452L39.368 37.9492L22.6779 21.4487V54.4497V80.7493H177.315V55.2083V20.6901L144.756 53.2485Z" fill="#592D81"/>
<path d="M56.5006 74.3642C56.5006 75.1861 57.1329 75.9447 58.0812 75.9447H66.6791V73.6688H59.5984V66.1456H66.6791V63.8064H56.4374V74.3642H56.5006ZM42.2761 63.7432V75.9447H45.3739V72.7837H49.3568V75.9447H52.4546V65.2605C52.4546 64.3754 51.7591 63.68 50.6844 63.68H42.2761V63.7432ZM49.3568 70.4446H45.3739V66.0823H49.3568V70.4446ZM169.918 63.7432H162.774C161.952 63.7432 161.193 64.3754 161.193 65.3237V74.4274C161.193 75.2493 161.826 76.0079 162.774 76.0079H169.918C170.74 76.0079 171.498 75.3125 171.498 74.4274V65.3237C171.562 64.3754 170.866 63.7432 169.918 63.7432ZM168.401 73.5423H164.481V66.0191H168.401V73.5423ZM28.1147 69.433C28.1147 70.2549 28.7469 71.0135 29.6953 71.0135H35.1954V73.6688H28.1147V76.0079H38.3564V70.2549C38.3564 69.4962 37.7874 68.7376 36.9024 68.6744H36.8391H31.2125V66.0191H38.2932V63.68H28.1147V69.433ZM93.2316 63.7432H84.5705V75.9447H87.6682V72.7837H91.6511V75.9447H94.7489V65.2605C94.8121 64.3754 94.0535 63.7432 93.2316 63.7432ZM91.5879 70.4446H87.605V66.0823H91.5879V70.4446ZM147.475 66.0191H151.078V75.9447H154.176V66.0191H157.716V63.7432H147.475V66.0191ZM114.727 63.7432H98.9847V75.9447H102.082V66.0823H106.002V75.9447H109.163V66.0823H113.083V75.9447H116.181V65.2605C116.244 64.3754 115.548 63.7432 114.727 63.7432ZM142.733 63.7432H134.009V75.9447H137.107V66.0823H141.089V75.9447H144.187V65.2605C144.314 64.3754 143.618 63.7432 142.733 63.7432ZM120.543 74.3642C120.543 75.1861 121.175 75.9447 122.123 75.9447H130.784V73.6688H123.704V71.0135H130.784V68.6744H123.704V65.9559H130.784V63.68H120.543V74.3642ZM78.8806 71.4561H80.5876V65.1973C80.5876 64.3122 79.8922 63.6168 78.8174 63.6168H70.2827V75.8183H73.3805V71.3929H75.6564L77.553 75.8183H80.5876L78.8806 71.4561ZM77.4898 69.1169H73.5069V66.0191H77.4898V69.1169Z" fill="white"/>
<path d="M75.5931 135.561C92.0304 135.245 108.404 139.418 129.141 151.177C144.503 159.901 151.268 162.556 155.883 161.482C160.119 160.47 164.102 157.878 171.056 143.274C173.711 137.648 175.608 131.073 176.493 126.205H64.7825C65.5411 129.619 66.363 132.969 67.3745 136.004C70.0298 135.751 72.8747 135.561 75.5931 135.561Z" fill="#63717A"/>
</svg>
