<svg width="200" height="200" viewBox="0 0 200 200" fill="none" xmlns="http://www.w3.org/2000/svg">
<path d="M194.014 30.1176V26.9412V24.4706L191.826 23.3412C190.273 22.5647 152.932 4 101.19 4H98.7904C47.0492 4 9.70807 22.5647 8.15513 23.3412L5.9669 24.4706V26.9412V29.9765C5.54337 52 8.22572 107.976 42.461 151.459C70.2728 186.753 96.2493 194.941 99.1434 195.718L100.273 196L101.402 195.718C102.532 195.435 129.002 187.671 157.52 151.459C191.755 107.976 194.508 52 194.014 30.1176Z" fill="black"/>
<path d="M155.049 149.482C188.579 106.918 191.19 52.0706 190.767 30.4706V27.2941V26.5177L190.061 26.1647C188.508 25.3882 152.014 7.24707 101.19 7.24707H98.7904C48.0375 7.31766 11.5434 25.3882 9.99041 26.2353L9.28453 26.5882V27.3647V30.4C8.861 52.0706 11.4728 106.988 45.0022 149.553C72.0375 184 97.1669 191.835 99.9198 192.682L100.273 192.824L100.626 192.682C101.685 192.259 127.237 184.847 155.049 149.482ZM100.273 190.071C98.1551 189.435 73.4492 181.882 46.8375 148C11.7551 103.459 11.6139 45.153 11.8257 31.3883V28.353C11.8257 28.353 11.8963 28.353 11.9669 28.2824V28.1412L12.6728 27.8588C14.5081 27.0118 18.7434 25.1765 24.6728 23.0588C39.6375 17.553 66.3904 9.92943 98.7904 9.92943H101.12C133.449 9.92943 160.132 17.553 175.096 23.0588C181.167 25.2471 185.402 27.0824 187.237 27.9294L188.014 28.2824V28.4235C188.085 28.4941 188.155 28.4941 188.155 28.4941V31.5294C188.367 45.2941 188.296 103.6 153.214 148.141C126.602 181.882 102.32 189.506 100.273 190.071ZM58.8375 21.7883L53.1198 22.9882C52.9096 23.052 52.7264 23.1835 52.5987 23.3622C52.471 23.541 52.4061 23.757 52.4139 23.9765L52.9081 66.6118C52.9081 69.4353 52.9787 72.0471 53.1198 74.3765L35.261 28.9882C35.0492 28.4941 34.5551 28.2824 34.061 28.4235C30.6728 29.553 28.9786 30.1177 25.661 31.3883C25.3081 31.5294 25.0257 31.8824 25.0257 32.3059V90.9647C25.0257 91.2471 25.2375 91.6 25.4492 91.7412C25.661 91.8824 25.8022 91.953 26.0139 91.953C26.1551 91.953 26.2257 91.953 26.3669 91.8824C28.4139 91.1059 29.4728 90.6824 31.661 89.9765C32.0139 89.8353 32.3669 89.4824 32.3669 89.0588L32.1551 47.4824C32.1551 43.8824 32.0845 41.8353 31.9434 39.2235L49.3787 83.8353C49.5904 84.2588 50.0845 84.5412 50.5786 84.4706C54.1786 83.6236 55.8728 83.2 59.4728 82.4941C59.8963 82.353 60.2492 82 60.2492 81.5059V22.7059C60.2492 22.4235 60.1081 22.1412 59.8963 22C59.4728 21.7882 59.1904 21.7177 58.8375 21.7883ZM97.661 17.6235C87.5669 17.8353 77.3316 18.6824 67.3081 20.3059C66.8139 20.3765 66.5316 20.8 66.5316 21.2941V79.8824C66.5316 80.1647 66.6728 80.4471 66.8845 80.5883C67.0963 80.7294 67.3081 80.8 67.5198 80.8H67.661C77.5434 79.1765 87.6375 78.3294 97.5904 78.1177C98.1551 78.1177 98.5787 77.6941 98.5787 77.1294V73.5294C98.5787 73.3177 98.4375 73.0353 98.2963 72.8235C98.0845 72.6118 97.8728 72.5412 97.5904 72.5412C88.2022 72.753 83.261 73.0353 74.2257 74.2353V51.0824C81.7081 50.0941 85.5904 49.8118 93.3551 49.4588C93.8492 49.4588 94.2728 49.0353 94.2728 48.4706V44.8706C94.2728 44.6588 94.1316 44.3765 93.9904 44.1647C93.7786 43.953 93.5669 43.8824 93.2845 43.953C85.7316 44.2353 81.5669 44.5882 74.3669 45.5059V24.8941C83.4728 23.6941 88.2022 23.3412 97.7316 23.2C98.2963 23.2 98.7198 22.7765 98.7198 22.2118V18.6118C98.7198 18.4 98.5787 18.1177 98.4375 17.9059C98.1551 17.6235 97.8728 17.6235 97.661 17.6235ZM139.802 21.0118C127.943 18.8235 115.732 17.6235 103.661 17.4824C103.449 17.4824 103.167 17.6235 102.955 17.7647C102.743 17.9765 102.673 18.1882 102.673 18.4706V22.2118C102.673 22.7765 103.096 23.2 103.661 23.2C109.308 23.2706 112.202 23.4118 117.567 23.8353V77.9059C117.567 78.4 117.92 78.8235 118.414 78.8941C120.743 79.1059 121.943 79.1765 124.343 79.4588H124.485C124.735 79.4544 124.979 79.3812 125.19 79.2471C125.402 79.0353 125.473 78.8235 125.473 78.5412V24.5412C130.837 25.1765 133.802 25.6 139.449 26.6588C139.732 26.7294 140.085 26.6588 140.226 26.4471C140.367 26.2353 140.579 26.0235 140.579 25.7412V22C140.579 21.5059 140.226 21.0118 139.802 21.0118ZM164.861 55.8824C152.437 43.0353 150.955 40.9177 150.955 35.6235C150.955 30.4 153.214 29.6235 155.543 29.6235C156.743 29.6235 158.155 29.8353 159.779 30.3294C168.743 32.9412 168.743 37.8118 168.743 41.4824V46.7059C168.743 47.1294 168.955 47.4824 169.449 47.6235C171.637 48.3294 172.696 48.753 175.026 49.6C175.308 49.7412 175.661 49.6706 175.943 49.4588C176.155 49.2471 176.367 48.9647 176.367 48.6824V44.3059C176.367 38.7294 176.367 29.553 160.202 24.8941C148.908 21.6471 143.19 25.1059 143.19 34.8471C143.19 42.9647 148.202 47.8353 156.461 55.8824L158.155 57.5059C167.967 67.1059 169.943 70.2824 169.943 76.353C169.943 78.5412 169.661 80.0235 168.955 81.0118C168.249 82 167.19 82.4235 165.426 82.4235C164.155 82.4235 162.461 82.1412 160.485 81.5765C156.179 80.3765 153.073 78.6824 151.237 76.5647C148.979 74.0235 148.979 71.9059 148.979 67.6V63.0118C148.979 62.5882 148.696 62.1647 148.273 62.0941C145.873 61.5294 144.673 61.3177 142.414 60.8941C142.132 60.8235 141.849 60.8941 141.637 61.1059C141.426 61.3177 141.285 61.6 141.285 61.8118V70C141.285 77.6941 147.567 83.6236 159.567 87.0824C162.955 88.0706 165.849 88.5647 168.249 88.5647C177.637 88.5647 177.637 81.0118 177.637 77.7647C177.496 69.3647 173.19 64.4941 164.861 55.8824ZM136.485 125.412C137.131 124.767 137.678 124.029 138.108 123.224C141.214 117.294 138.39 110.729 137.261 108.4C128.72 94.2824 112.555 85.953 95.6845 87.5765C113.19 88.4941 130.061 104.165 136.485 125.412ZM79.5198 108.118C83.6845 109.882 89.261 112.847 95.1198 116.024C104.367 120.965 113.826 126.118 120.32 127.741C126.037 129.153 130.767 129.012 134.085 127.388C134.085 127.318 134.085 127.247 134.014 127.176C133.943 126.965 133.943 126.682 133.802 126.471C131.049 114.682 116.296 88.9883 90.8845 88.9883C89.8257 88.9883 88.6963 89.0588 87.6375 89.1294C77.7551 91.953 69.7081 98.0235 64.2022 105.788C65.1198 105.506 66.3904 105.224 68.0139 105.224C71.1198 105.224 75.0022 106.212 79.5198 108.118ZM73.2375 143.624C83.6139 147.012 89.3316 148.141 96.8845 148.141C99.6375 148.141 102.743 147.929 106.767 147.647C117.779 146.729 129.426 143.059 135.637 140.024C135.637 136.988 135.355 133.953 134.861 130.847C133.026 131.976 130.908 132.541 128.367 132.541C125.755 132.541 122.649 132.047 117.496 130.847C111.426 129.435 102.885 124.353 95.3316 119.765C91.1669 117.294 87.2845 114.965 83.9669 113.341C71.6139 107.271 64.5551 108.118 62.6492 108.471C58.2022 115.812 56.0139 124.494 56.5786 133.388C57.2845 134.518 61.5198 139.741 73.2375 143.624ZM138.461 138.329C138.602 138.259 138.673 138.118 138.743 138.118C142.414 135.576 143.332 131.412 143.473 130.706C143.473 127.247 143.049 123.718 142.132 120.188C142.061 120.047 142.061 119.906 141.99 119.765C141.708 122.941 140.085 125.976 137.261 128.659C138.108 131.906 138.461 135.082 138.461 138.329ZM139.52 140.659C139.379 140.8 139.237 140.871 139.096 140.941C138.885 141.153 138.602 141.294 138.39 141.506C138.179 144.259 137.685 147.012 136.908 149.624C138.249 149.129 138.743 149.694 138.885 149.976C138.885 150.047 138.885 150.118 138.955 150.118C141.214 145.671 142.696 140.871 143.332 135.859C142.555 137.624 141.426 139.388 139.52 140.659ZM137.896 151.529C137.826 151.318 137.826 151.318 137.685 151.318C137.543 151.318 137.261 151.388 136.626 151.741C136.485 151.812 136.414 151.953 136.273 151.953C136.167 152.006 136.071 152.078 135.99 152.165C134.861 155.059 133.449 157.741 131.826 160.212C134.226 157.671 136.343 154.847 137.967 151.741H137.896V151.529ZM93.214 169.882C98.2257 169.247 102.32 168.047 106.979 165.718C107.685 165.435 108.32 165.012 109.026 164.659C109.59 164.376 110.155 164.024 110.72 163.812L124.132 156.682L129.567 153.647L131.685 152.447C132.461 152.024 133.237 151.671 133.943 151.176C134.014 151.106 134.155 151.035 134.155 150.965C134.861 148.565 135.285 145.882 135.426 143.129C130.343 145.671 122.72 147.929 111.496 150.118C97.1669 152.941 83.1904 151.741 70.6257 146.447C62.1551 142.918 58.2728 137.976 56.5786 135.294C56.7904 137.2 57.1434 139.106 57.6375 141.082C60.3904 151.953 67.0963 160.918 75.8492 166.706L75.7786 166.635L76.9787 167.341C77.9669 167.976 79.1669 168.471 80.6492 168.894C83.3316 169.671 86.0845 170.094 88.9081 170.094C90.3904 170.165 91.7316 170.024 93.214 169.882ZM132.885 154.424C132.32 154.776 131.755 155.2 131.19 155.624C129.496 156.824 127.943 157.741 126.249 158.8C125.473 159.294 124.626 159.788 123.779 160.282C117.92 163.882 111.002 167.835 103.449 170.165C101.261 170.871 99.2845 171.365 97.3787 171.647C95.6139 171.859 93.8492 172 92.2257 172H91.9434C89.7551 172 87.5669 171.788 85.5198 171.365C93.3551 174.118 102.037 174.753 110.72 172.565C115.732 171.365 120.249 169.318 124.273 166.635C128.155 163.6 131.261 159.294 133.237 154.141C133.096 154.353 132.955 154.424 132.885 154.424Z" fill="white"/>
<path d="M117.214 139.529C117.214 136.353 117.214 131.624 113.473 127.953C113.896 127.247 114.179 126.471 114.461 125.624C115.096 123.718 115.167 121.671 115.167 120.329V111.577V111.435C115.026 108.188 114.532 104.729 111.92 101.765C109.52 99.0824 105.92 97.6707 101.543 97.6707H89.6141C88.3435 97.6707 87.0023 98.1648 86.0847 99.0824C85.167 100 84.6023 101.271 84.6023 102.612L84.7435 160C84.7398 160.836 84.9523 161.659 85.3605 162.389C85.7686 163.118 86.3585 163.73 87.0729 164.165C87.8494 164.659 88.767 164.871 89.7552 164.871H101.826C106.202 164.871 109.802 163.671 112.696 161.2H112.767C116.791 157.6 117.214 153.435 117.285 149.341V149.271L117.214 139.529Z" fill="white"/>
<path d="M114.179 139.882C114.179 136.706 114.179 132.753 110.861 130C110.155 129.435 109.308 128.871 108.32 128.518C109.833 127.512 110.955 126.017 111.496 124.282C112.061 122.659 111.991 120.682 111.991 119.906V110.8C111.849 108.259 111.638 105.365 109.591 103.035C107.826 101.059 105.002 100 101.614 100H89.2611C88.9082 100 88.5553 100.141 88.2729 100.424C87.9905 100.635 87.8494 101.059 87.8494 101.412L87.9905 161.341C87.9905 161.835 88.2023 162.259 88.6964 162.541C88.9082 162.682 89.1905 162.753 89.4729 162.753L102.038 162.682C103.379 162.682 107.473 162.682 110.932 159.718C113.967 156.965 114.249 153.718 114.391 150.118L114.179 139.882ZM105.426 155.129C104.579 155.765 103.449 156.118 100.696 156.259H95.6141C95.1905 156.259 94.9788 156.047 94.9788 155.553L94.9082 132.612C94.9082 132.4 94.9788 132.188 95.3317 132.188H97.7317C100.273 132.329 102.814 132.471 104.579 133.6C105.567 134.235 106.273 135.012 106.696 136.212C107.049 137.412 107.12 138.612 107.12 139.812V148.282C107.12 152.165 106.908 154 105.426 155.129ZM101.261 125.341C100.202 125.624 99.7082 125.694 97.52 125.765H95.2611C94.9082 125.765 94.767 125.553 94.767 125.341V106.847C94.767 106.565 94.9082 106.353 95.1905 106.353H98.5788H98.7905C100.414 106.424 102.249 106.494 103.379 107.129C103.943 107.412 104.226 107.835 104.438 108.329C104.649 108.894 104.72 109.812 104.861 111.506V118.635V119.2C104.932 121.106 104.861 124.282 101.261 125.341Z" fill="black"/>
</svg>
