<svg width="200" height="200" viewBox="0 0 200 200" fill="none" xmlns="http://www.w3.org/2000/svg">
<path d="M180.969 35.628C167.838 19.819 149.024 11 127.859 11H43.2611L4 189.406L76.2508 189.471L86.6377 146.291H121.783C145.954 146.487 165.813 138.256 179.205 122.577C203.441 96.1854 199.13 57.5776 180.969 35.628Z" fill="#BEC0C2"/>
<path d="M82.8487 141.587L72.5272 184.768H9.81396L46.9846 15.7035L127.793 15.7688C147.914 15.8341 165.16 23.9346 177.31 38.633C195.21 60.256 196.974 96.1854 175.547 119.572C162.416 134.989 143.145 141.783 121.783 141.587H82.8487Z" fill="#002D62"/>
<path d="M38.6881 53.2661H74.0949C78.1452 53.2661 82.522 56.6631 80.6276 61.8238C79.4517 65.0248 78.6024 68.7484 78.1452 72.2107C77.8185 74.9544 80.8889 76.6529 82.5873 76.6529L154.773 76.7182C156.145 76.7182 156.863 76.3263 156.863 75.673C156.863 75.0197 156.798 72.6027 156.537 70.9695C156.275 69.4017 156.014 69.0751 154.708 69.0751C145.693 69.0751 142.034 65.0901 132.627 58.9495C123.22 52.8741 109.371 49.3465 97.4817 49.3465L39.5373 49.2812L38.6881 53.2661ZM82.3914 100.04C81.1502 97.3613 79.9743 94.1603 79.2557 91.286C78.3411 87.5624 75.2055 84.4921 69.7834 84.4921H31.7635L32.6781 80.2458L155.818 80.3112C157.059 80.3112 156.798 80.8338 156.733 82.2056C156.667 83.5775 156.341 86.0599 156.145 87.5624C155.949 89.0649 154.708 88.6729 153.532 88.7383C150.788 88.8036 145.627 89.4568 142.622 91.6779C137.527 95.5322 126.617 102.261 120.542 104.221C114.009 106.311 89.4466 113.824 82.2607 99.9744M25.0349 115.391L89.3159 115.457C92.125 115.457 94.6074 116.11 96.5018 117.678C101.924 122.185 108.979 125.386 116.426 127.542C119.758 128.522 125.572 127.281 130.733 124.341C143.602 117.09 151.899 103.241 154.577 94.291C155.295 91.9392 153.924 92.1352 152.094 92.2659C146.672 92.6578 140.989 97.5573 133.476 102.326C125.964 107.095 110.743 111.602 96.2405 111.602L25.8188 111.537L25.0349 115.391ZM119.301 29.2914C120.215 29.1607 123.482 28.9647 125.245 29.618C137.461 34.4521 149.024 47.1254 153.858 60.648C154.773 63.261 155.034 64.8942 153.858 65.0248C148.24 65.6128 145.627 62.8691 139.095 58.4269C132.497 53.9847 126.421 50.9144 118.125 48.3013C109.894 45.6883 94.934 45.2963 92.9742 45.231C91.0144 45.1656 91.2757 44.3817 92.125 43.5325C99.3109 36.4119 108.914 31.1858 119.301 29.2914ZM177.898 75.673C177.964 76.1956 177.376 76.7836 176.722 76.7836H162.612C160.783 76.7836 160.783 75.9343 160.718 74.8891C160.652 73.8439 160.326 71.8188 160.326 70.5776C160.26 69.4017 159.803 68.0298 161.436 67.3766C165.356 65.7434 169.079 61.8892 170.778 58.6229C171.366 57.5123 172.215 55.6832 173.13 57.251C176.461 62.4771 177.506 69.0751 177.898 75.673ZM172.868 100.954C172.607 101.412 171.758 101.804 171.431 101.02C169.406 95.5322 164.506 91.7433 161.11 89.8488C160.064 89.2609 159.999 88.6076 160.13 87.6277C160.26 86.6478 160.718 83.4468 160.783 82.075C160.848 81.0298 161.24 80.2458 162.089 80.2458H176.788C177.31 80.2458 177.964 80.7031 177.964 81.0951C177.898 88.085 175.808 95.0096 172.868 100.954ZM134.718 128.522C133.672 128.653 131.451 128.326 134.979 126.236C145.627 120.03 155.165 105.462 157.647 97.1653C158.627 93.9644 158.692 93.8337 159.934 94.1603C161.567 94.6176 164.115 96.8387 166.074 99.5824C168.034 102.261 168.883 107.552 167.773 109.12C160.195 119.311 147.979 126.562 134.718 128.522ZM161.828 62.6731C159.346 63.9796 158.888 63.7836 158.366 61.8892C153.728 45.6229 140.074 33.6029 134.456 30.0753C133.411 29.422 133.672 28.9647 134.456 29.0301C147.848 30.7939 160.914 38.1104 167.511 48.1053C171.3 53.7887 164.245 61.3666 161.828 62.6731Z" fill="#FDBB30"/>
</svg>
