<svg width="200" height="200" viewBox="0 0 200 200" fill="none" xmlns="http://www.w3.org/2000/svg">
<path d="M192 100C192 150.811 150.811 192 100 192C49.1886 192 8.00007 150.811 8.00007 100C7.93878 49.1885 49.1273 8 100 8C150.811 8 192 49.1885 192 100Z" fill="#B3B2B1"/>
<path d="M189.365 100C189.365 149.34 149.341 189.364 100 189.364C50.6597 189.364 10.6357 149.34 10.6357 100C10.6357 50.6595 50.6597 10.6356 100 10.6356C149.341 10.6356 189.365 50.6595 189.365 100Z" fill="#1D428A"/>
<path d="M176.187 100C176.187 142.047 142.108 176.248 99.9387 176.248C57.8921 176.248 23.6909 142.169 23.6909 100C23.6909 57.9534 57.7695 23.7522 99.9387 23.7522C142.108 23.7522 176.187 57.9534 176.187 100Z" fill="#C8102E"/>
<path d="M100 23.7522C58.0147 23.7522 23.7522 57.9534 23.7522 100C23.7522 142.047 57.9534 176.248 100 176.248C142.047 176.248 176.248 142.047 176.248 100C176.187 58.0147 141.985 23.7522 100 23.7522ZM28.1653 102.268H42.2012V97.7934H28.1653C28.2265 96.1386 28.2878 94.4224 28.4717 92.7675C33.4364 67.6989 63.5923 48.453 99.9387 48.453C136.285 48.453 166.441 67.7602 171.406 92.7675C171.59 94.4224 171.651 96.1386 171.712 97.7934H157.615V102.268H171.651C171.59 103.923 171.528 105.639 171.344 107.294C166.38 132.301 136.163 151.608 99.8774 151.608C63.5923 151.608 33.4364 132.301 28.4717 107.294L28.1653 102.268ZM100 28.1652C130.401 28.1652 156.512 47.1659 166.931 73.9507C154.183 56.4823 128.991 44.5303 100 44.5303C71.0087 44.5303 45.8175 56.421 33.0686 73.9507C43.4884 47.2272 69.5377 28.1652 100 28.1652ZM100 171.896C69.599 171.896 43.4884 152.895 33.0686 126.111C45.8175 143.579 71.0087 155.531 100 155.531C128.991 155.531 154.183 143.64 166.931 126.111C156.45 152.773 130.401 171.896 100 171.896ZM67.7602 102.023H73.0926V126.233H67.7602V102.023Z" fill="white"/>
<path d="M88.4158 102.023H88.2319C86.7609 102.023 81.1833 101.961 80.1413 102.023H79.8961C78.3025 102.023 77.1993 102.758 76.9541 104.229C76.8928 104.474 76.8928 104.597 76.8928 104.597C76.8928 104.658 76.525 109.194 76.9541 110.481C77.6896 112.565 79.4058 113.362 80.8768 113.791C80.9381 113.791 80.9994 113.852 81.0607 113.852C81.1833 113.852 81.2446 113.913 81.3671 113.975C81.551 114.036 81.6736 114.159 81.7349 114.22V122.923H77.3218V126.172H83.2059C85.2899 126.111 86.6383 125.191 87.1286 123.659C87.2512 122.494 87.3125 114.342 87.1899 112.687C87.1286 112.075 86.8835 111.523 86.2705 111.094C86.0254 110.91 85.7802 110.726 85.4124 110.542C85.106 110.358 84.7382 110.236 84.4318 110.052C83.2059 109.439 81.7349 108.765 81.7349 107.11V105.761H85.9641C86.8222 105.761 87.4964 105.332 87.9867 104.536C88.2932 103.923 88.4158 103.31 88.4158 103.31C88.4771 102.942 88.4158 102.574 88.4158 102.329V102.023Z" fill="white"/>
<path d="M113.117 102.023C111.952 102.023 110.604 102.084 109.623 102.329C106.987 102.942 105.7 104.719 105.7 107.723V122.127C105.7 125.804 108.336 126.54 112.32 126.54C117.101 126.54 119.859 124.885 119.859 121.881V106.865C119.797 102.023 116.733 102.023 113.117 102.023ZM111.278 107.478C111.278 106.865 111.339 106.374 111.462 106.007L111.584 105.945C111.829 105.884 112.075 105.884 112.32 105.884H112.442C114.22 105.884 114.342 106.436 114.342 109.745V119.859V120.717C114.342 121.023 114.281 121.268 114.22 121.514L114.097 121.636C113.791 121.698 113.484 121.698 113.178 121.698C112.504 121.698 112.075 121.575 111.768 121.268C111.339 120.839 111.339 120.104 111.339 119.185V108.949C111.278 108.949 111.278 107.845 111.278 107.478ZM132.301 112.258C129.727 102.881 125.559 101.9 123.904 101.9C123.475 101.9 123.23 101.961 123.168 101.961L123.046 102.023V126.233H128.501V116.488L132.301 126.233H137.879V102.023H132.301V112.258ZM61.2018 102.023H47.5949H47.411V102.207C47.411 102.207 47.2884 105.087 50.4756 105.761V126.294H56.1146V115.997H60.7728C63.2858 115.997 64.6955 114.404 64.6955 111.523V110.665C64.6342 103.739 64.389 102.39 61.2018 102.023ZM59.0566 112.749H55.992V105.7C55.992 105.7 57.5856 105.639 57.892 105.7C58.505 105.761 58.9953 106.007 58.9953 106.742C59.0566 106.987 59.0566 112.749 59.0566 112.749ZM103.984 102.084H91.419V105.884H95.0353V126.294H100.613V105.823H100.797C101.777 105.823 102.574 105.516 103.187 104.965C104.168 103.923 104.107 102.268 104.107 102.207L103.984 102.084Z" fill="white"/>
<path d="M152.528 102.023H152.344C150.873 102.023 145.295 101.961 144.253 102.023H144.008C142.414 102.023 141.311 102.758 141.066 104.229C141.005 104.474 141.005 104.597 141.005 104.597C141.005 104.658 140.637 109.194 141.066 110.481C141.801 112.565 143.518 113.362 144.989 113.791C145.05 113.791 145.111 113.852 145.172 113.852C145.295 113.852 145.356 113.913 145.479 113.975C145.663 114.036 145.785 114.159 145.847 114.22V122.923H141.434V126.172H147.318C149.402 126.111 150.75 125.191 151.24 123.659C151.363 122.494 151.424 114.342 151.302 112.687C151.24 112.075 150.995 111.523 150.382 111.094C150.137 110.91 149.892 110.726 149.524 110.542C149.218 110.358 148.85 110.236 148.544 110.052C147.318 109.439 145.847 108.765 145.847 107.11V105.761H150.076C150.934 105.761 151.608 105.332 152.099 104.536C152.405 103.923 152.528 103.31 152.528 103.31C152.589 102.942 152.528 102.574 152.528 102.329V102.023Z" fill="white"/>
<path d="M103.065 87.006H103.984C104.842 87.006 106.436 87.3124 106.436 88.9673L106.558 93.0739V93.4417C106.558 93.5642 106.62 94.7288 106.681 94.974C107.049 96.3837 108.152 97.2418 109.868 97.4257H111.4V88.8447C111.4 88.1092 111.033 87.1285 110.42 86.3317L110.297 86.2092C111.155 85.2285 111.462 84.2478 111.462 82.7768V81.9187C111.462 75.2378 111.217 73.8894 108.091 73.5829H97.6096V97.1805H102.942V87.006H103.065ZM103.065 77.1992H103.984H104.107C105.516 77.1992 106.068 77.1992 106.007 79.7122C106.007 81.7348 106.007 81.8574 105.945 82.7768V82.9607C105.945 83.2671 105.823 83.5736 105.639 83.7575C105.516 83.88 105.394 83.9413 105.21 83.9413H103.003V77.1992H103.065ZM136.469 73.4603H131.198V97.0579H136.469V73.4603ZM86.0253 97.1192H91.4191V77.1992H91.603C92.5836 77.1992 93.3191 76.8927 93.9321 76.3411C94.9128 75.2991 94.8515 73.7668 94.8515 73.6442V73.4603H82.5317V77.1992H86.0253V97.1192ZM142.782 97.1192H148.176V77.1992H148.36C149.34 77.1992 150.076 76.8927 150.689 76.3411C151.67 75.2991 151.608 73.7668 151.608 73.6442V73.4603H139.288V77.1992H142.782V97.1192ZM79.6509 93.3191H74.012V87.5576H77.8734V82.409H74.012V77.1379H79.6509V73.4603H68.8022L68.6796 97.0579H79.6509V93.3191ZM61.9374 73.4603H48.4531V73.5829C48.4531 73.6442 48.2692 74.9926 49.1273 76.0346C49.6789 76.7088 50.4757 77.0153 51.6403 77.1379V96.9966H61.6922C64.0213 96.9966 65.4924 95.0353 65.4924 92.1545V81.1832C65.4924 75.1765 65.4924 73.5829 61.9374 73.4603ZM60.0373 93.3191H57.034V77.1992C58.9341 77.1379 59.3018 77.2605 59.3631 77.3218C60.0373 77.5669 60.0373 78.8541 60.0373 78.9154C60.1599 80.7541 60.0373 91.8481 60.0373 93.3191ZM121.636 73.4603C120.472 73.4603 119.185 73.5216 118.143 73.7668C115.507 74.3797 114.281 76.1572 114.281 79.0379V93.1352C114.281 96.7515 116.917 97.487 120.839 97.487C125.559 97.487 128.317 95.8321 128.317 92.9513V78.2411C128.378 73.4603 125.253 73.4603 121.636 73.4603ZM119.859 78.7928C119.859 78.1798 119.92 77.6895 120.043 77.3218L120.165 77.2605C120.41 77.1992 120.656 77.1992 120.901 77.1992H121.023C122.801 77.1992 122.923 77.7508 122.923 80.9993V90.9287V91.7868C122.923 92.0932 122.862 92.3384 122.801 92.5836L122.678 92.6449C122.372 92.7062 122.065 92.7062 121.759 92.7062C121.085 92.7062 120.656 92.5836 120.349 92.2771C119.92 91.8481 119.92 91.1125 119.92 90.2545V80.3251C119.859 80.3251 119.859 79.1605 119.859 78.7928Z" fill="white"/>
</svg>
