<svg width="200" height="200" viewBox="0 0 200 200" fill="none" xmlns="http://www.w3.org/2000/svg">
<path d="M123.799 93.4745L123.996 77.0124C123.996 69.3004 115.938 68.015 110.006 68.0645C113.961 66.7297 118.756 64.5051 122.217 60.748C125.875 57.3863 128.446 52.6405 128.001 46.0161C127.259 34.8436 113.269 29.3068 90.133 31.5314C89.7375 31.5809 89.3914 31.6303 88.996 31.6303C87.9084 23.3745 86.2276 15.3659 83.6569 8L82.5199 9.13702C79.4549 18.6781 77.6257 26.2912 76.5381 33.3606C62.7456 35.7335 53.0561 38.8974 53.0561 38.8974L51.9191 40.0344C51.9191 40.0344 63.0916 39.0457 75.7966 39.194C74.363 53.6787 75.846 67.4218 75.7966 93.3756C55.2313 92.7824 37.1873 96.1934 32.7875 101.73C31.3538 102.917 30.5629 104.251 30.6123 105.636C30.8595 111.914 49.5462 117.698 75.7966 119.923L76.9336 155.615L78.0707 154.478L79.8998 130.255C79.8998 129.859 79.9492 129.513 80.0481 129.217C80.5919 129.315 81.1357 130.008 81.1357 131.243L81.9266 163.129L83.0637 161.992L85.0411 136.039C85.0411 135.445 85.0905 135.001 85.1894 134.605C85.7332 134.704 86.277 135.495 86.2276 136.978L87.1174 170.199L88.2544 169.062L89.8364 120.714C92.9168 120.814 95.9988 120.863 99.0809 120.862C102.344 120.863 105.607 120.813 108.869 120.714L110.451 171.138L111.588 170.001L112.923 143.602C112.923 143.059 112.972 142.614 113.071 142.268C113.566 142.366 114.06 143.157 114.06 144.542L115.444 181.569L116.581 180.432L117.965 148.447C117.965 148.002 118.064 147.607 118.163 147.31C118.806 147.31 119.498 148.101 119.498 149.634L120.635 192L121.772 190.863L123.453 119.873C145.897 117.896 162.952 113.397 167.203 108.157C168.588 106.97 169.379 105.735 169.379 104.499C169.082 97.6765 148.269 92.3374 123.799 93.4745ZM75.5989 112.507C57.6042 110.777 45.443 107.119 45.443 102.521C45.443 102.175 45.5419 101.879 45.7396 101.533C49.9417 98.5664 62.8939 96.6878 75.846 94.7598C75.846 99.8517 75.7472 105.388 75.5989 111.469V112.507ZM112.28 50.5148C112.972 55.6067 111.489 59.4627 108.869 62.3794C104.173 66.6308 96.8068 68.5588 90.8251 69.4487C90.924 59.8581 90.7757 49.8721 89.9352 40.0838C101.503 41.3197 111.44 44.2364 112.28 50.5148ZM108.869 113.496C106.051 113.595 103.184 113.644 100.218 113.644C96.7574 113.644 93.3463 113.595 90.0835 113.447L90.2318 109.343C89.9352 98.9618 90.5779 85.9108 90.7756 71.9699C99.2292 72.9586 109.364 75.3315 109.215 81.2638L108.869 113.496ZM153.658 105.487C149.456 108.8 138.333 111.37 123.601 112.656L123.799 94.9575C140.656 97.1327 154.35 99.6045 154.35 103.658C154.35 104.251 154.103 104.894 153.658 105.487Z" fill="#061922"/>
<path d="M169.379 104.598C169.082 97.6765 148.27 92.3374 123.799 93.5239L123.997 77.0618C123.947 66.878 110.006 67.8667 105.31 68.5094C110.797 67.5207 129.138 62.9232 128.001 46.115C127.259 34.9425 113.269 29.4057 90.1331 31.6303C89.7376 31.6797 89.3916 31.7292 88.9961 31.7292C87.9085 23.4734 86.2277 15.4648 83.657 8.09888C80.4437 18.0849 78.5652 25.9452 77.527 33.2617C63.1906 35.6346 53.0563 38.9962 53.0563 38.9962C53.0563 38.9962 64.2288 38.0075 76.9338 38.1558C75.5001 52.8383 76.9832 66.7792 76.9338 93.5239C52.6114 92.6835 31.5023 97.3799 31.7495 104.598C31.9472 110.876 50.6834 116.66 76.9338 118.884L78.0708 154.577L79.8999 130.354C79.9494 127.338 82.2234 127.635 82.2234 130.205L83.0638 162.091L85.0412 136.138C84.9918 132.628 87.4636 132.825 87.3647 135.94L88.2546 169.161L89.8365 119.626L100.169 119.824C103.432 119.824 106.695 119.775 109.957 119.675L111.539 170.1L112.874 143.701C112.874 140.34 115.148 140.488 115.148 143.503L116.532 180.531L117.916 148.546C118.015 145.382 120.536 145.53 120.586 148.546L121.723 190.912L123.403 118.934V118.884C150.099 116.66 169.379 110.876 169.379 104.598ZM113.417 49.3778C115.296 63.3186 101.058 67.9162 90.8252 69.4487C90.9241 59.4132 90.7758 48.9823 89.8365 38.7985C101.899 39.985 112.528 42.8522 113.417 49.3778ZM45.4432 102.521C45.4432 98.2697 61.2132 95.9957 76.9832 93.6228C76.9832 98.7147 76.8843 104.251 76.736 110.332L76.7855 112.656C58.0987 110.925 45.4432 107.218 45.4432 102.521ZM90.0837 113.447L90.232 109.343C89.9354 98.6158 90.6275 85.1198 90.7758 70.734C99.3776 71.6239 110.501 73.9473 110.303 80.1762L110.006 113.496C106.842 113.595 103.58 113.644 100.218 113.644L90.0837 113.447ZM123.601 112.656L123.848 93.6722C141.2 95.8968 155.487 98.4181 155.487 102.521C155.487 107.218 142.436 110.975 123.601 112.656Z" fill="#CE1141"/>
</svg>
