<svg width="200" height="200" viewBox="0 0 200 200" fill="none" xmlns="http://www.w3.org/2000/svg">
<path d="M156.816 4L144.914 25.1732L142.847 42.0868L121.548 79.923H93.6722L114.47 43.2144V4H92.9205L81.5195 24.9853L79.5149 42.0868L49.1958 96.0848L54.3325 108.801H73.188L64.6059 130.601L48.4441 113.249L50.386 138.745L22.51 139.872L44.6855 155.533L28.8996 179.086L54.3952 170.755L64.8565 196L72.8748 168.5L101.377 175.829L82.9603 154.531L105.574 135.863L82.2085 137.366L107.516 108.801H140.717L177.488 43.6529V4H156.816Z" fill="white"/>
<path d="M156.816 4L144.914 25.1732L142.847 42.0868L121.548 79.923H93.6722L114.47 43.2144V4H92.9205L81.5195 24.9853L79.5149 42.0868L49.1958 96.0848L54.3325 108.801H73.188L64.6059 130.601L48.4441 113.249L50.386 138.745L22.51 139.872L44.6855 155.533L28.8996 179.086L54.3952 170.755L64.8565 196L72.8748 168.5L101.377 175.829L82.9603 154.531L105.574 135.863L82.2085 137.366L107.516 108.801H140.717L177.488 43.6529V4H156.816Z" fill="black"/>
<path d="M152.368 22.8554H162.454L169.47 9.70047H159.76L152.368 22.8554ZM89.0366 22.9181L99.8738 22.8554L106.827 9.70047H96.3032L89.0366 22.9181ZM86.4683 39.4558H96.2405L97.1175 28.1801H87.7211L86.4683 39.4558ZM149.549 39.4558H159.384L160.261 28.1801H150.802L149.549 39.4558ZM147.482 46.2212L125.432 85.0597H72.4989L94.5492 46.2212H84.1505L57.5273 93.2032H87.0947L64.7312 143.255L55.4601 132.919L55.9612 145.071L40.9896 145.948L53.017 154.405L44.435 167.122L58.279 162.611L63.9795 176.33L68.3019 161.421L83.712 165.368L73.8144 153.841L86.0298 143.756L67.1116 144.633L101.878 93.2659H131.508L157.693 46.2838L147.482 46.2212ZM60.91 157.349C58.4043 157.349 56.3997 155.345 56.3997 152.902C56.3997 150.396 58.4043 148.454 60.91 148.454C63.4157 148.454 65.3576 150.459 65.3576 152.902C65.3527 154.08 64.8825 155.208 64.0495 156.041C63.2165 156.874 62.0881 157.344 60.91 157.349Z" fill="#C2CCD2"/>
</svg>
