<svg width="200" height="200" viewBox="0 0 200 200" fill="none" xmlns="http://www.w3.org/2000/svg">
<path d="M4 180.044L97.4396 128.892L34.0637 180.044L110.93 135.885L109.718 144.749L122.548 137.647L151.455 165.012L166.872 118.705L186.419 115.952L177.83 89.1923L196 73.3896L171.883 63.2032L178.49 35.1217L156.301 45.3081L145.839 20.2L127.063 38.921L96.1732 22.7328L90.612 53.1269L62.09 59.2938L78.994 69.5352L61.9799 78.0698L76.4061 79.2812L17.0496 125.478L76.7915 93.7073L12.6447 142.492L80.8661 106.977L8.07456 161.764L88.3545 118.926L4 180.044Z" fill="#F79E1E"/>
<path d="M174.967 89.6327C173.92 115.291 152.226 135.224 126.567 134.178C100.909 133.131 80.9764 111.437 82.0225 85.7784C83.0687 60.1197 104.763 40.1874 130.422 41.2336C156.08 42.2797 176.013 63.919 174.967 89.6327Z" fill="#E46025"/>
<path d="M134.166 127.79C108.507 126.744 88.5749 105.05 89.621 79.3913C90.1166 67.498 95.0171 56.8711 102.726 48.9973C90.7773 56.9812 82.6833 70.3612 82.0225 85.7784C80.9764 111.437 100.909 133.131 126.567 134.178C140.333 134.728 152.997 129.277 161.917 120.027C153.988 125.313 144.407 128.231 134.166 127.79Z" fill="#B65B27"/>
<path d="M175.022 88.2011L174.801 83.2456C172.103 81.3735 168.965 79.9419 165.11 79.4463C164.395 79.3362 163.734 79.2812 163.018 79.2261C162.578 76.1426 161.862 73.1693 160.981 70.196C161.476 70.251 161.917 70.251 162.412 70.3061C165.661 70.5814 168.91 70.9118 172.103 71.3523C171.663 70.1409 171.167 68.9846 170.672 67.8834C167.093 67.3328 163.459 66.9473 159.77 66.617H159.714C158.503 63.5886 157.127 60.7804 155.42 57.9723C157.787 57.4767 159.935 56.5407 161.642 54.8888C160.816 54.0079 159.825 53.1269 158.889 52.356C157.402 53.7325 155.475 54.4483 153.217 54.7787C152.887 54.2832 152.501 53.8427 152.171 53.4022C149.032 49.2726 145.343 45.8037 141.324 42.9405C137.8 41.9494 134.166 41.3437 130.367 41.1234H129.706C136.754 43.9316 143.086 48.6118 148.152 54.8338C143.306 54.3933 137.745 52.7414 132.239 51.1446L127.503 49.7681C118.088 47.1802 110.875 46.7397 105.479 47.2353C101.459 49.5479 97.8252 52.4111 94.6316 55.7698C100.468 53.2921 112.306 49.1624 126.677 53.1269C128.164 53.5123 129.761 54.0079 131.413 54.5034C137.745 56.3755 144.848 58.4678 151.015 58.5229C152.722 61.0557 154.153 63.6987 155.365 66.5068C154.153 66.4518 152.942 66.3967 151.731 66.3967C121.887 65.9012 96.2284 74.8212 82.0225 89.0821C82.1326 91.9453 82.4079 94.6984 82.9585 97.3964C86.978 91.615 92.8696 86.4392 100.523 82.0893C115.004 73.9952 134.166 69.6454 154.539 70.0859C155.254 70.0859 155.915 70.1409 156.631 70.1409C157.677 73.1142 158.448 76.1426 158.944 79.2812C145.839 79.8318 137.304 88.036 127.503 96.7908C118.749 104.665 108.012 112.483 92.3741 117.164C93.8057 118.981 95.4575 120.688 97.1644 122.229C111.976 116.338 121.722 107.032 129.981 99.5989C139.397 91.1745 147.491 83.1355 159.274 82.695C159.549 85.9436 159.549 89.3024 159.274 92.6611C157.677 110.887 147.16 126.359 132.734 133.957C136.368 133.627 140.002 132.856 143.361 131.645C144.517 130.709 145.674 129.718 146.72 128.616C156.135 119.366 162.027 106.647 163.183 92.9915C163.459 89.6016 163.459 86.195 163.183 82.8051C163.789 82.8602 164.395 82.9152 165 83.0253C169.295 83.6861 172.489 85.7784 175.022 88.2011Z" fill="black"/>
</svg>
