<svg width="200" height="200" viewBox="0 0 200 200" fill="none" xmlns="http://www.w3.org/2000/svg">
<path d="M192 100C192 150.818 150.832 192 100.031 192C49.2297 192 8 150.818 8 100C8 49.1821 49.1684 8 100.031 8C150.893 8 192 49.1821 192 100Z" fill="#1D428A"/>
<path d="M160.28 39.7919C144.205 23.7118 122.793 14.8739 100.092 14.8739C77.3912 14.8739 56.0401 23.7118 39.904 39.7919C23.8293 55.8719 14.9944 77.2915 14.9944 100C14.9944 122.708 23.8293 144.067 39.904 160.208C55.9787 176.288 77.3912 185.126 100.092 185.126C122.793 185.126 144.144 176.288 160.28 160.208C176.355 144.128 185.19 122.708 185.19 100C185.19 77.2915 176.294 55.9333 160.28 39.7919ZM43.0944 43.0447C58.3102 27.8239 78.4956 19.4156 100.031 19.4156C121.505 19.4156 141.751 27.8239 156.967 43.0447C172.183 58.2655 180.588 78.4576 180.588 100C180.588 111.6 178.195 122.77 173.594 133.019C163.839 129.705 154.267 126.023 144.819 121.788L141.076 120.131L137.395 118.412L135.555 117.553L133.714 116.694L130.033 114.853L126.413 112.95L124.634 112.029C124.02 111.722 123.468 111.354 122.854 111.047L119.296 109.083L115.799 106.997C106.473 101.534 97.4539 95.3969 88.9871 88.7072C84.7536 85.3316 80.6429 81.7719 76.7163 78.0894C74.753 76.1868 72.851 74.2842 71.0104 72.3816C70.5196 71.8906 70.0901 71.3996 69.6606 70.9086C69.1698 70.4176 68.8017 69.9266 68.3108 69.3743C67.8635 68.8781 67.4338 68.3663 67.0224 67.8399L66.961 67.7785L66.7156 58.3269L62.7276 57.4063V62.8072H59.2918V57.0994L54.9971 58.0814L55.0584 60.1681L53.0337 61.2729C53.115 63.4609 53.1559 65.6503 53.1564 67.8399C51.4999 70.6631 33.7073 101.534 20.3322 110.986C19.964 107.426 19.6573 103.744 19.6573 100C19.5959 78.519 27.94 58.2655 43.0944 43.0447ZM148.868 139.525L140.524 139.832L133.775 122.279L135.064 122.954L138.806 124.795C140.033 125.409 141.26 125.961 142.549 126.575C142.917 126.759 143.285 126.943 143.592 127.066L148.868 139.525ZM146.844 128.539C150.218 130.073 153.593 131.546 156.906 132.897L159.667 139.095L151.323 139.402L146.844 128.539ZM138.07 139.893L129.603 140.2L120.768 115.159C121.321 115.466 121.873 115.835 122.425 116.08L124.265 117.062C125.431 117.737 126.658 118.412 127.885 119.087L130.646 120.56L138.07 139.893ZM127.088 140.262L119.541 140.507L108.498 107.61L113.59 110.863L117.148 113.073L117.639 113.38L127.088 140.262ZM117.026 140.568L109.111 140.875L95.9814 98.8953C98.9877 101.166 102.055 103.314 105.184 105.462L117.026 140.568ZM106.534 140.937L98.9264 141.182L83.4039 88.7685L86.717 91.5917C88.6803 93.2488 90.6436 94.8446 92.6683 96.3789L106.534 140.937ZM96.4722 141.305L88.0054 141.612L69.4765 75.2662L74.5076 80.5444C76.2868 82.3242 78.1888 84.1041 79.968 85.8226L96.4722 141.305ZM85.5512 141.673L78.2501 141.919L68.0654 102.946L67.2678 76.1254L85.5512 141.673ZM75.796 141.919L69.4765 142.164L68.4335 113.686L75.796 141.919ZM165.066 147.565C164.514 148.363 163.961 149.038 163.409 149.775L69.8447 147.933L69.7833 147.074L165.066 147.565ZM162.305 139.034L160.157 134.247L170.894 138.359C170.833 138.482 170.71 138.666 170.649 138.789L162.305 139.034ZM62.789 80.1761V85.1474H58.9851V89.7505H62.789V94.7218H58.9851V99.3249H62.789V108.592H58.9851V113.195H62.789V122.77H58.9851V127.373H62.789V142.41L59.2918 142.532V72.443H62.7276V75.5731H58.9237V80.1761H62.789ZM26.5903 133.081L37.0817 97.7292C41.3152 92.0827 45.978 84.9633 50.8864 76.1254L32.1121 143.33C30.0261 140.016 28.1855 136.579 26.5903 133.081ZM25.1178 129.582C23.2771 124.857 21.866 120.008 20.9457 114.975C23.8907 112.643 28.0627 108.777 33.0938 102.762L25.1178 129.582ZM53.1564 76.9847L52.8497 101.841L42.0514 143.085L34.5662 143.33L53.1564 76.9847ZM52.6043 112.213L51.4385 142.778L44.5056 143.023L52.6043 112.213ZM38.2475 151.677L50.8864 152.168L50.0888 163.215C47.696 161.252 45.3032 159.226 43.1558 157.017C41.4379 155.298 39.7813 153.518 38.2475 151.677ZM100.092 180.523C90.0301 180.523 80.3362 178.682 71.2558 175.183L70.2128 155.851L62.9117 153.396V171.378C61.746 170.765 60.5803 170.151 59.4145 169.414V152.352L62.9117 152.475V152.598H66.7156L73.5259 152.843L158.255 155.851C157.887 156.219 157.581 156.587 157.274 156.894C141.813 172.176 121.566 180.523 100.092 180.523Z" fill="#FDB927"/>
</svg>
