<svg width="200" height="200" viewBox="0 0 200 200" fill="none" xmlns="http://www.w3.org/2000/svg">
<path d="M163.273 9.18262H30.7151V122.22C30.7151 140.686 38.0506 158.395 51.1078 171.452C64.165 184.51 81.8744 191.845 100.34 191.845C118.806 191.845 136.515 184.51 149.572 171.452C162.63 158.395 169.965 140.686 169.965 122.22V9.18262H163.273Z" fill="black"/>
<path d="M78.7975 24.6625H82.59V42.8275C82.59 43.7557 82.2212 44.646 81.5649 45.3023C80.9085 45.9587 80.0182 46.3275 79.09 46.3275H71.9325C71.474 46.3305 71.0195 46.2418 70.5958 46.0665C70.1722 45.8911 69.7879 45.6328 69.4657 45.3066C69.1434 44.9804 68.8898 44.593 68.7196 44.1672C68.5495 43.7414 68.4663 43.2859 68.475 42.8275V24.6625H72.2675V42C72.2684 42.1131 72.292 42.2249 72.3367 42.3288C72.3814 42.4327 72.4464 42.5267 72.5279 42.6051C72.6094 42.6836 72.7057 42.745 72.8113 42.7858C72.9168 42.8265 73.0294 42.8458 73.1425 42.8425H77.9225C78.0356 42.8458 78.1482 42.8265 78.2537 42.7858C78.3592 42.745 78.4556 42.6836 78.5371 42.6051C78.6186 42.5267 78.6836 42.4327 78.7283 42.3288C78.773 42.2249 78.7965 42.1131 78.7975 42V24.6625ZM62.345 28.15V46.3175H58.5525V39.215H52.0225V46.3175H48.23V28.15C48.23 27.2217 48.5987 26.3315 49.2551 25.6751C49.9115 25.0187 50.8017 24.65 51.73 24.65H58.8975C59.3551 24.6482 59.8085 24.7379 60.231 24.9139C60.6535 25.0898 61.0366 25.3484 61.3578 25.6745C61.679 26.0005 61.9317 26.3875 62.1013 26.8126C62.2708 27.2377 62.3536 27.6924 62.345 28.15ZM58.5525 28.9775C58.5515 28.8643 58.528 28.7525 58.4833 28.6486C58.4386 28.5447 58.3736 28.4508 58.2921 28.3723C58.2106 28.2938 58.1142 28.2324 58.0087 28.1917C57.9032 28.1509 57.7906 28.1316 57.6775 28.135H52.8975C52.7844 28.1316 52.6718 28.1509 52.5663 28.1917C52.4607 28.2324 52.3644 28.2938 52.2829 28.3723C52.2014 28.4508 52.1364 28.5447 52.0917 28.6486C52.047 28.7525 52.0234 28.8643 52.0225 28.9775V35.4225H58.5525V28.9775ZM107.512 28.135H112.982V46.3175H116.775V28.135H122.25V24.6625H107.512V28.135ZM127.137 46.3175H130.93V24.66H127.137V46.3175ZM99.535 34.1875C98.31 33.835 97.225 33.5575 96.1725 33.2875C95.235 33.0375 94.35 32.8225 93.4425 32.56C93.0275 32.45 92.5775 32.145 92.5775 31.6225V28.9775C92.5784 28.8643 92.602 28.7525 92.6467 28.6486C92.6914 28.5447 92.7564 28.4508 92.8379 28.3723C92.9194 28.2938 93.0157 28.2324 93.1213 28.1917C93.2268 28.1509 93.3394 28.1316 93.4525 28.135H98.105C98.2181 28.1316 98.3307 28.1509 98.4362 28.1917C98.5417 28.2324 98.6381 28.2938 98.7196 28.3723C98.8011 28.4508 98.8661 28.5447 98.9108 28.6486C98.9555 28.7525 98.979 28.8643 98.98 28.9775V30.7925H102.772V28.15C102.772 27.2239 102.405 26.3355 101.752 25.6795C101.098 25.0235 100.211 24.6533 99.285 24.65H92.25C91.7917 24.6472 91.3375 24.7362 90.9141 24.9117C90.4907 25.0872 90.1068 25.3456 89.7848 25.6718C89.4628 25.9979 89.2094 26.3852 89.0394 26.8108C88.8694 27.2364 88.7863 27.6917 88.795 28.15V32.515C88.795 34.6575 90.735 35.4975 92.1925 35.94C93.5825 36.355 94.5875 36.615 95.65 36.8925C96.43 37.095 97.21 37.295 98.19 37.5675C98.94 37.755 99.055 38.215 99.055 38.4725V42C99.054 42.1131 99.0305 42.2249 98.9858 42.3288C98.9411 42.4327 98.8761 42.5267 98.7946 42.6051C98.7131 42.6836 98.6167 42.745 98.5112 42.7858C98.4057 42.8265 98.2931 42.8458 98.18 42.8425H93.3875C93.2744 42.8458 93.1618 42.8265 93.0563 42.7858C92.9507 42.745 92.8544 42.6836 92.7729 42.6051C92.6914 42.5267 92.6264 42.4327 92.5817 42.3288C92.537 42.2249 92.5134 42.1131 92.5125 42V40.2275H88.72V42.8275C88.72 43.7557 89.0887 44.646 89.7451 45.3023C90.4015 45.9587 91.2917 46.3275 92.22 46.3275H99.39C99.8484 46.3302 100.303 46.2412 100.726 46.0658C101.15 45.8903 101.534 45.6319 101.856 45.3058C102.178 44.9797 102.432 44.5924 102.602 44.1668C102.772 43.7412 102.856 43.2858 102.847 42.8275V37.6125C102.837 35.955 101.725 34.8025 99.535 34.1875ZM148.785 24.66V35.16L140.732 24.66H137.06V46.3175H140.725V31.8025L148.785 42.2725V46.3175H152.45V24.66H148.785Z" fill="white"/>
<path d="M72.54 144.43H69.1075V132.165C69.1088 131.405 69.4113 130.676 69.9488 130.139C70.4863 129.601 71.2149 129.299 71.975 129.298H80.13V132.5H72.8275C72.7562 132.495 72.686 132.519 72.6321 132.566C72.5782 132.612 72.5451 132.679 72.54 132.75V136.432H80.13V139.865H72.54V144.43ZM120.575 132.165V141.562C120.576 142.323 120.879 143.051 121.416 143.589C121.954 144.126 122.682 144.429 123.442 144.43H131.597V141.227H124.292C124.221 141.232 124.151 141.209 124.097 141.162C124.043 141.115 124.01 141.049 124.005 140.977V132.762C124.01 132.691 124.043 132.625 124.097 132.578C124.151 132.531 124.221 132.508 124.292 132.512H131.597V129.298H123.442C122.682 129.299 121.954 129.601 121.416 130.139C120.879 130.676 120.576 131.405 120.575 132.165ZM146.617 116.632L146.585 116.912L146.865 116.878C148.901 116.613 150.789 115.673 152.227 114.208C153.666 112.743 154.571 110.838 154.797 108.798L154.827 108.518L154.55 108.552C152.515 108.818 150.627 109.759 149.189 111.223C147.751 112.688 146.846 114.593 146.617 116.632ZM134.437 102.535C133.971 102.764 133.525 103.032 133.102 103.335C132.43 103.814 131.827 104.381 131.307 105.022C130.023 106.623 129.311 108.606 129.282 110.658V110.94L129.555 110.875C131.555 110.411 133.341 109.29 134.628 107.691C135.916 106.092 136.629 104.108 136.655 102.055V101.772L136.38 101.838C135.708 101.996 135.057 102.23 134.437 102.535ZM115.525 97.1275L115.457 96.855L115.207 96.9875C113.431 97.9317 112.016 99.4344 111.179 101.263C110.342 103.093 110.131 105.146 110.577 107.107C110.595 107.185 110.607 107.265 110.627 107.342L110.697 107.615L110.947 107.482C111.331 107.279 111.7 107.047 112.05 106.79C113.486 105.744 114.586 104.302 115.215 102.64C115.844 100.979 115.975 99.1699 115.592 97.435C115.567 97.3325 115.552 97.23 115.525 97.1275ZM137.25 89.6025L137.527 89.555C139.552 89.2143 141.404 88.2036 142.785 86.685C144.167 85.1663 144.999 83.2278 145.147 81.18L145.167 80.9L144.89 80.945C142.866 81.287 141.015 82.298 139.633 83.8164C138.252 85.3348 137.42 87.2727 137.27 89.32L137.25 89.6025ZM118.415 84.5L118.472 84.775L118.722 84.6525C120.572 83.7637 122.07 82.28 122.977 80.4388C123.883 78.5977 124.146 76.5056 123.722 74.4975L123.662 74.22L123.412 74.3425C121.563 75.2321 120.065 76.7163 119.158 78.5578C118.252 80.3993 117.989 82.4916 118.412 84.5H118.415ZM100.325 85.08V85.065L100.337 85.08L100.51 84.8575C101.778 83.2429 102.468 81.2493 102.468 79.1963C102.468 77.1432 101.778 75.1496 100.51 73.535L100.335 73.3125L100.16 73.535C98.8934 75.1503 98.2051 77.1436 98.2051 79.1963C98.2051 81.2489 98.8934 83.2422 100.16 84.8575L100.325 85.08ZM48.445 114.207C49.8848 115.669 51.771 116.609 53.805 116.878L54.085 116.912L54.055 116.632C53.8255 114.593 52.9196 112.689 51.4819 111.225C50.0441 109.76 48.1573 108.819 46.1225 108.552L45.8425 108.518L45.875 108.798C46.1048 110.837 47.0093 112.741 48.445 114.207ZM69.3625 105.022C68.8436 104.382 68.2406 103.814 67.57 103.335C67.1474 103.031 66.7 102.764 66.2325 102.535C65.6134 102.23 64.9617 101.996 64.29 101.838L64.015 101.772V102.055C64.0408 104.108 64.7544 106.092 66.0416 107.691C67.3289 109.29 69.1152 110.411 71.115 110.875L71.39 110.94V110.658C71.3609 108.606 70.6473 106.622 69.3625 105.022ZM85.4625 97L85.2125 96.8675L85.1425 97.14C85.1175 97.2425 85.1 97.345 85.0775 97.4475C84.6539 99.3996 84.8782 101.436 85.7164 103.25C86.5546 105.063 87.961 106.553 89.7225 107.495L89.9725 107.628L90.0425 107.355C90.06 107.278 90.0725 107.198 90.09 107.12C90.5383 105.159 90.3279 103.105 89.4914 101.276C88.6549 99.4464 87.2389 97.9436 85.4625 97ZM57.8925 86.685C59.2748 88.1987 61.1221 89.2085 63.1425 89.555L63.4225 89.6025L63.4 89.32C63.2502 87.2727 62.4179 85.3348 61.0365 83.8164C59.655 82.298 57.8041 81.287 55.78 80.945L55.5 80.9L55.52 81.18C55.6752 83.2281 56.5102 85.1657 57.8925 86.685ZM81.9425 84.6525L82.1925 84.775L82.25 84.5C82.6727 82.4916 82.4099 80.3995 81.5034 78.5581C80.597 76.7167 79.0994 75.2324 77.25 74.3425L77 74.22L76.9425 74.4975C76.5194 76.5055 76.7822 78.5975 77.6886 80.4385C78.5951 82.2796 80.093 83.7634 81.9425 84.6525ZM60.415 98.9375C73.4775 98.9375 77.5075 93.1725 86.9525 93.1725C89.8325 93.1725 92.4725 94.22 94.7025 96.05C95.7655 94.4839 96.9518 93.005 98.25 91.6275C95.585 88.2075 93.345 84.855 93.345 79.3775C93.345 73.095 96.325 69.6275 97.9025 67.92L95.2025 63.645C92.8089 66.0472 90.9507 68.9286 89.75 72.1C87.3325 68.565 83.085 67.125 82 67.125V72.1775C84.45 72.1775 87.9825 75.9275 88.5 81.235C88.7554 83.8826 89.4437 86.4704 90.5375 88.895C89.1945 88.4052 87.7793 88.1424 86.35 88.1175C81.3925 88.1175 76.35 90.3125 76.35 90.3125C73.655 79.6925 69.26 75.5125 61.6425 73.68V78.725C65.9925 79.975 69.1975 82.9025 71.545 91.96C71.545 91.96 66.7775 93.905 62.295 93.905C59.14 93.905 56.295 93.2325 53.87 89.9225L49.1975 91.75C49.1975 91.75 51.4075 98.9375 60.415 98.9375ZM35.8175 14.285H164.862V122.22C164.862 157.798 135.917 186.75 100.34 186.75C64.7625 186.75 35.8175 157.798 35.8175 122.22V14.285ZM93.4275 146.607C87.9575 156.67 76.9725 169.08 60.9125 169.17C65.664 173.17 70.9946 176.426 76.7225 178.827C80.885 176.083 92.405 165.62 93.4275 146.607ZM139.767 169.17C123.707 169.08 112.722 156.67 107.252 146.607C108.275 165.62 119.797 176.083 123.957 178.827C129.686 176.427 135.016 173.17 139.767 169.17ZM39 53.5375H161.682V17.4675H39V53.5375ZM39 122.22C38.9881 135.036 43.0116 147.53 50.5 157.93C76.8825 157.93 93.4 149.402 93.4 127.052C93.4 118.947 89.2175 117.527 84.2625 117.527C73.855 117.527 64.73 126.723 56.4075 126.723C50.845 126.723 47.0075 124.4 44.8225 123.393L46.92 118.83C46.92 118.83 51.7 121.662 55.5025 121.662C59.54 121.662 63.6125 119.033 63.6125 119.033C61.37 117.922 59.4272 116.288 57.9475 114.27C56.3975 112.182 55.32 108.97 54.92 106.285H59.975C60.655 109.445 62.8125 115.415 69.3925 115.423C71.615 115.423 76.32 113.007 78.9425 113.007C75.2275 108.442 73.495 100.882 73.495 100.882C73.495 100.882 75.6775 100.08 78.2225 99.0925C82.675 115.277 86.1975 108.048 93.63 114.787C93.63 94.005 107.322 92.935 107.322 79.3725C107.322 73.09 104.345 69.6225 102.767 67.915L105.467 63.64C107.863 66.0441 109.722 68.9282 110.922 72.1025C113.337 68.5675 117.585 67.1275 118.672 67.1275V72.18C116.22 72.18 112.687 75.93 112.172 81.2375C111.917 83.8851 111.229 86.4729 110.135 88.8975C111.478 88.4073 112.893 88.1445 114.322 88.12C119.28 88.12 124.322 90.315 124.322 90.315C127.017 79.695 131.412 75.515 139.032 73.6825V78.725C134.682 79.975 131.477 82.9025 129.13 91.96C129.13 91.96 133.895 93.905 138.38 93.905C141.537 93.905 144.38 93.2325 146.805 89.9225L151.472 91.75C151.472 91.75 149.265 98.9325 140.257 98.9325C127.192 98.9325 123.162 93.1675 113.72 93.1675C107.562 93.1675 98.695 98.3975 98.695 116.507V123.19C98.695 123.19 98.59 141.613 98.59 142.208C98.59 162.67 94.5 177 92.25 183.027C97.6132 183.738 103.047 183.738 108.41 183.027C106.16 177.007 102.08 162.67 102.08 142.212C102.08 141.617 101.975 123.195 101.975 123.195C101.975 120.365 101.975 118.477 101.975 116.512C101.975 107.012 105.125 103.15 105.125 103.15C107.085 107.86 107.017 113.82 107.017 114.802C114.462 108.035 117.975 115.302 122.435 99.0925C123.67 99.575 127.16 100.882 127.16 100.882C127.16 100.882 125.457 108.442 121.75 113C124.375 113 129.077 115.41 131.302 115.415C137.88 115.415 140.037 109.438 140.717 106.277H145.775C145.375 108.962 144.297 112.175 142.747 114.262C141.267 116.281 139.323 117.914 137.08 119.025C137.08 119.025 141.152 121.655 145.192 121.655C148.995 121.655 153.772 118.823 153.772 118.823L155.87 123.385C153.685 124.385 149.847 126.715 144.285 126.715C135.962 126.715 126.84 117.52 116.43 117.52C111.475 117.52 107.292 118.94 107.292 127.045C107.292 149.395 123.81 157.913 150.192 157.923C157.682 147.523 161.706 135.028 161.692 122.213V56.7125H39V122.22ZM173.147 6V122.22C173.147 141.53 165.477 160.049 151.823 173.703C138.169 187.357 119.65 195.027 100.34 195.027C81.0302 195.027 62.5113 187.357 48.8573 173.703C35.2032 160.049 27.5325 141.53 27.5325 122.22V6H173.147ZM169.965 9.1825H30.715V122.22C30.715 140.686 38.0504 158.395 51.1077 171.452C64.1649 184.51 81.8743 191.845 100.34 191.845C118.806 191.845 136.515 184.51 149.572 171.452C162.63 158.395 169.965 140.686 169.965 122.22V9.1825Z" fill="#00B140"/>
</svg>
