<svg width="200" height="200" viewBox="0 0 200 200" fill="none" xmlns="http://www.w3.org/2000/svg">
<path d="M100 13.75C52.4425 13.75 13.75 52.4425 13.75 100C13.75 147.557 52.4425 186.25 100 186.25C147.557 186.25 186.25 147.557 186.25 100C186.25 52.4425 147.557 13.75 100 13.75Z" fill="#141946"/>
<path d="M99.9998 180.035C144.202 180.035 180.035 144.202 180.035 99.9998C180.035 55.7977 144.202 19.9648 99.9998 19.9648C55.7977 19.9648 19.9648 55.7977 19.9648 99.9998C19.9648 144.202 55.7977 180.035 99.9998 180.035Z" fill="white"/>
<path d="M140.86 137.923L154.36 147.743C178.3 120.523 178.3 79.4776 154.36 52.2576L140.86 62.0776C139.917 61.0626 138.938 60.0834 137.923 59.1401L147.743 45.6401C120.523 21.7001 79.4776 21.7001 52.2576 45.6401L62.0776 59.1401C61.0626 60.0834 60.0834 61.0626 59.1401 62.0776L45.6401 52.2576C21.7001 79.4776 21.7001 120.523 45.6401 147.743L59.1401 137.923C60.0834 138.938 61.0626 139.917 62.0776 140.86L52.2576 154.36C79.4776 178.3 120.523 178.3 147.743 154.36L137.923 140.86C138.938 139.917 139.917 138.938 140.86 137.923ZM100 151.04C71.8576 151.04 48.9601 128.143 48.9601 100C48.9601 71.8576 71.8576 48.9601 100 48.9601C128.143 48.9601 151.04 71.8576 151.04 100C151.04 128.143 128.143 151.04 100 151.04Z" fill="#7CCDEF"/>
<path d="M103.112 94.3898L100 81.4873L96.88 94.3898L84.595 90.7473L93.7725 99.9973L84.595 109.247L96.88 105.615L100 118.512L103.112 105.615L115.407 109.247L106.222 99.9973L115.407 90.7473L103.112 94.3898Z" fill="#FF0000"/>
<path d="M134.943 90.7001V78.1976L121.803 65.0576H78.1975L65.0575 78.1976V93.5876L58.645 100L65.0575 106.413V121.803L78.1975 134.943H121.803L134.943 121.803V109.3H121.683V117.795L117.795 121.683H82.205L78.3175 117.795V82.2051L82.205 78.3176H117.795L121.683 82.2051V90.7001H134.943Z" fill="#FF0000"/>
</svg>
