<svg width="200" height="200" viewBox="0 0 200 200" fill="none" xmlns="http://www.w3.org/2000/svg">
<path d="M131.582 41.7875L100 16.96L68.4175 41.7875L100 20.345L131.582 41.7875Z" fill="white"/>
<path d="M83.0173 159.743L99.9998 180.128L116.98 159.743L99.9998 175.568L83.0173 159.743Z" fill="white"/>
<path d="M115.865 106.675L100 90.3374L84.135 106.675L81.25 104.117L67.165 118.652C67.8317 119.779 68.515 120.884 69.215 121.967L82.56 106.187L85.25 108.922L100 91.4524L114.75 108.922L117.448 106.187L130.79 121.967C131.485 120.882 132.165 119.78 132.84 118.652L118.75 104.117L115.865 106.675Z" fill="white"/>
<path d="M99.9999 127.5C102.623 127.499 105.149 126.509 107.073 124.727C108.998 122.945 110.18 120.503 110.382 117.887L109.755 117.537L110.227 115.16C109.917 113.482 109.198 111.905 108.136 110.57C107.073 109.234 105.698 108.18 104.132 107.5L99.9999 110.5L95.8699 107.5C94.3036 108.18 92.9284 109.234 91.8656 110.57C90.8027 111.906 90.0847 113.483 89.7749 115.162L90.2474 117.535L89.6199 117.885C89.8219 120.5 91.003 122.943 92.9271 124.725C94.8513 126.507 97.377 127.498 99.9999 127.5ZM99.9999 116.375L104.135 119.375L102.555 124.238H97.4449L95.8674 119.375L99.9999 116.375Z" fill="white"/>
<path d="M70.9125 76.7499L74.0525 75.8299C75.7325 75.3299 77.105 73.5649 77.105 71.8874V57.3674C77.105 55.6824 75.7325 54.7149 74.0525 55.2024L70.9125 56.1224C69.235 56.6224 67.8625 58.3924 67.8625 60.0699V74.5999C67.8625 76.2774 69.235 77.2499 70.9125 76.7499ZM70.6175 59.6899C70.6364 59.4079 70.7393 59.138 70.9132 58.9152C71.087 58.6924 71.3236 58.5268 71.5925 58.4399L73.3725 57.9174C73.4831 57.8715 73.6035 57.8545 73.7224 57.8678C73.8413 57.8811 73.955 57.9244 74.0526 57.9936C74.1503 58.0628 74.2288 58.1556 74.2808 58.2634C74.3328 58.3712 74.3566 58.4904 74.35 58.6099V72.2674C74.3333 72.5527 74.2311 72.8263 74.0567 73.0528C73.8824 73.2793 73.644 73.4481 73.3725 73.5374L71.5925 74.0524C71.4825 74.0982 71.3627 74.1153 71.2443 74.1023C71.1259 74.0892 71.0127 74.0464 70.9153 73.9777C70.8179 73.909 70.7396 73.8168 70.6875 73.7097C70.6354 73.6025 70.6114 73.4839 70.6175 73.3649V59.6899Z" fill="white"/>
<path d="M97.1324 69.25V54.715C97.1367 54.3233 97.0589 53.935 96.904 53.5752C96.749 53.2154 96.5203 52.8921 96.2327 52.6262C95.9451 52.3602 95.6049 52.1575 95.2341 52.0312C94.8633 51.9048 94.4701 51.8576 94.0799 51.8925L90.9424 52.1425C90.1188 52.2158 89.3514 52.5911 88.7879 53.1962C88.2244 53.8012 87.9045 54.5933 87.8899 55.42V69.95C87.8848 70.342 87.962 70.7306 88.1167 71.0908C88.2714 71.451 88.5001 71.7746 88.7879 72.0407C89.0757 72.3068 89.4162 72.5095 89.7874 72.6356C90.1585 72.7616 90.552 72.8083 90.9424 72.7725L94.0799 72.535C94.9035 72.4584 95.67 72.081 96.2331 71.4751C96.7961 70.8692 97.1163 70.077 97.1324 69.25ZM91.6324 70.21C91.5076 70.2216 91.3817 70.2068 91.2631 70.1666C91.1444 70.1263 91.0355 70.0615 90.9435 69.9763C90.8515 69.8912 90.7785 69.7876 90.7292 69.6724C90.6799 69.5572 90.6554 69.4329 90.6574 69.3075V55.64C90.6635 55.3761 90.766 55.1235 90.9457 54.9301C91.1253 54.7366 91.3696 54.6156 91.6324 54.59L93.4124 54.455C93.5371 54.4435 93.6628 54.4582 93.7815 54.4983C93.9001 54.5384 94.009 54.603 94.1012 54.6878C94.1933 54.7726 94.2666 54.8758 94.3163 54.9908C94.3661 55.1057 94.3911 55.2298 94.3899 55.355V69.02C94.3859 69.2848 94.2836 69.5386 94.103 69.7321C93.9223 69.9257 93.6762 70.0452 93.4124 70.0675L91.6324 70.21Z" fill="white"/>
<path d="M139.9 60.2201L136.762 58.8801C135.082 58.1551 133.71 58.9426 133.71 60.6301V75.1501C133.71 76.8276 135.082 78.7926 136.762 79.5101L139.9 80.8501C141.577 81.5676 142.952 80.7776 142.952 79.1001V64.5726C142.952 62.8926 141.577 60.9301 139.9 60.2201ZM140.2 77.5001C140.2 78.0351 139.76 78.2901 139.222 78.0576L137.442 77.3076C137.17 77.1833 136.937 76.9888 136.765 76.744C136.593 76.4993 136.489 76.2131 136.465 75.9151V62.2351C136.465 61.6951 136.905 61.4476 137.442 61.6726L139.222 62.4376C139.495 62.5608 139.73 62.7551 139.902 63C140.074 63.245 140.177 63.5317 140.2 63.8301V77.5001Z" fill="white"/>
<path d="M65.4224 60.9651C65.4224 59.2876 64.0474 58.5051 62.3699 59.2351L60.0999 60.2201C58.4199 60.9426 57.0474 62.9101 57.0474 64.5901V79.1176C57.0474 80.7951 58.4199 81.5776 60.0999 80.8501L62.3699 79.8651C64.0474 79.1426 65.4224 77.1726 65.4224 75.4951V74.1076L65.8349 73.6626V73.3826L62.2499 74.9301V75.2151L62.6624 75.3001V76.2501C62.6376 76.5486 62.5344 76.8354 62.3632 77.0812C62.192 77.3271 61.9588 77.5233 61.6874 77.6501L60.7699 78.0476C60.2349 78.2801 59.7949 78.0301 59.7949 77.4901V63.8301C59.8198 63.5316 59.9232 63.2449 60.0943 62.9991C60.2655 62.7533 60.4985 62.557 60.7699 62.4301L61.6874 62.0326C62.2249 61.8026 62.6624 62.0501 62.6624 62.5901V64.3651L62.2499 64.8076V65.0926L65.8299 63.5401V63.2501L65.4174 63.1676L65.4224 60.9651Z" fill="white"/>
<path d="M85.8624 70.4477L85.5799 70.4952L85.3174 70.9577L82.2974 71.5027V53.9277L82.7124 53.5902V53.3052L79.1299 53.9577V54.2427L79.5424 54.4252V73.9652L79.1299 74.3027V74.5877L85.8624 73.3652V70.4477Z" fill="white"/>
<path d="M131.685 74.3848V59.8498C131.685 58.1798 130.31 56.4348 128.632 55.9848L122.032 54.2173V54.4998L122.442 54.8723V74.4173L122.032 74.5648V74.8498L128.632 76.6173C130.31 77.0648 131.685 76.0573 131.685 74.3848ZM127.955 73.9298L125.205 73.1798V57.5748L127.955 58.3098C128.227 58.3914 128.467 58.5555 128.642 58.7794C128.816 59.0034 128.917 59.2761 128.93 59.5598V73.2223C128.934 73.3411 128.908 73.459 128.856 73.5658C128.804 73.6725 128.726 73.7648 128.63 73.8346C128.534 73.9044 128.422 73.9496 128.304 73.9662C128.187 73.9828 128.067 73.9703 127.955 73.9298Z" fill="white"/>
<path d="M108.772 72.4577L108.162 72.0427L105.89 64.2752C106.488 64.0911 107.011 63.7195 107.382 63.2153C107.752 62.711 107.95 62.1009 107.947 61.4752V55.1252C107.938 54.3071 107.617 53.5234 107.05 52.9339C106.483 52.3443 105.712 51.9934 104.895 51.9527L99.1575 51.7202V52.0002L99.5725 52.2802V71.8177L99.1575 72.0677V72.3527L102.74 72.3877V72.1027L102.325 71.8252V64.2977L103.187 64.3402L105.575 72.5127L108.772 72.7427V72.4577ZM105.192 60.9302C105.194 61.0571 105.169 61.1828 105.12 61.2998C105.07 61.4167 104.998 61.5223 104.906 61.6101C104.815 61.6979 104.706 61.7661 104.587 61.8104C104.468 61.8547 104.342 61.8742 104.215 61.8677L102.325 61.7952V54.3602L104.215 54.4377C104.477 54.4486 104.724 54.5599 104.906 54.7484C105.088 54.9369 105.191 55.1882 105.192 55.4502V60.9302Z" fill="white"/>
<path d="M116.423 73.4423V73.7274L120.005 74.4023V74.1174L119.59 73.7924V56.7499C119.56 55.9012 119.242 55.0881 118.686 54.4456C118.131 53.8031 117.373 53.3697 116.538 53.2174L114.265 52.8549C112.588 52.5874 111.215 53.7449 111.215 55.4224V72.4599L110.8 72.6549V72.9399L114.38 73.3948V73.1124L113.968 72.7849V65.8824L116.835 66.3374V73.2499L116.423 73.4423ZM113.968 63.3724V56.2999C113.964 56.177 113.988 56.0549 114.038 55.9427C114.089 55.8305 114.163 55.731 114.257 55.6517C114.351 55.5725 114.462 55.5154 114.581 55.4848C114.7 55.4541 114.825 55.4507 114.945 55.4749L115.86 55.6224C116.128 55.6709 116.371 55.8099 116.548 56.016C116.725 56.2221 116.827 56.483 116.835 56.7549V63.8299L113.968 63.3724Z" fill="white"/>
<path d="M105.885 79.4501V79.3076H103.44V79.4501C103.622 79.4501 103.772 79.5451 103.772 79.6626V85.1901C103.772 85.3026 103.622 85.4026 103.44 85.4026V85.5451H105.885V85.4026C105.7 85.4026 105.552 85.3026 105.552 85.1901V79.6626C105.552 79.5451 105.7 79.4501 105.885 79.4501Z" fill="white"/>
<path d="M109.115 85.4026V85.5451H113.115C114.837 85.5451 116.235 84.4951 116.235 82.4276C116.235 80.3601 114.837 79.3076 113.115 79.3076H109.115V79.4501C109.3 79.4501 109.447 79.5451 109.447 79.6626V85.1901C109.447 85.3026 109.3 85.4026 109.115 85.4026ZM111.227 80.7076H112.75C113.702 80.7076 114.47 81.1701 114.47 82.4276C114.47 83.6851 113.702 84.1451 112.75 84.1451H111.232L111.227 80.7076Z" fill="white"/>
<path d="M98.69 83.4051C99.221 83.3866 99.724 83.1626 100.093 82.7804C100.462 82.3982 100.668 81.8877 100.668 81.3564C100.668 80.8251 100.462 80.3145 100.093 79.9323C99.724 79.5501 99.221 79.3262 98.69 79.3076H94.2275V79.4501C94.41 79.4501 94.56 79.5451 94.56 79.6626V85.1901C94.56 85.3026 94.41 85.4026 94.2275 85.4026V85.5451H96.6725V85.4026C96.49 85.4026 96.34 85.3026 96.34 85.1901V83.4051H98.69ZM96.34 80.7076H98.3075C98.3961 80.7021 98.4849 80.7148 98.5684 80.7449C98.6519 80.775 98.7283 80.8219 98.793 80.8827C98.8576 80.9435 98.9092 81.0169 98.9444 81.0983C98.9797 81.1798 98.9978 81.2676 98.9978 81.3564C98.9978 81.4451 98.9797 81.5329 98.9444 81.6144C98.9092 81.6958 98.8576 81.7692 98.793 81.83C98.7283 81.8908 98.6519 81.9377 98.5684 81.9678C98.4849 81.9979 98.3961 82.0106 98.3075 82.0051H96.34V80.7076Z" fill="white"/>
<path d="M81.57 81.3526C81.57 81.0836 81.5169 80.8173 81.4139 80.5689C81.3108 80.3204 81.1597 80.0948 80.9693 79.9048C80.7788 79.7149 80.5528 79.5643 80.3041 79.4619C80.0554 79.3594 79.789 79.307 79.52 79.3076H74.75V79.4501C74.935 79.4501 75.0825 79.5451 75.0825 79.6626V85.1901C75.0825 85.3026 74.935 85.4026 74.75 85.4026V85.5451H77.195V85.4026C77.01 85.4026 76.8625 85.3026 76.8625 85.1901V83.4051H78.0575L79.3075 85.1901C79.3875 85.3026 79.3075 85.4026 79.125 85.4026V85.5451H81.5675V85.4026C81.4773 85.4016 81.3882 85.3823 81.3056 85.3457C81.2231 85.3092 81.1489 85.2563 81.0875 85.1901L79.8125 83.3876C80.3008 83.3156 80.747 83.0705 81.0697 82.6969C81.3923 82.3233 81.5699 81.8462 81.57 81.3526ZM79.14 82.0001H76.855V80.7026H79.14C79.2286 80.6971 79.3174 80.7098 79.4008 80.7399C79.4843 80.77 79.5608 80.8169 79.6254 80.8777C79.6901 80.9385 79.7417 81.0119 79.7769 81.0933C79.8121 81.1748 79.8303 81.2626 79.8303 81.3514C79.8303 81.4401 79.8121 81.5279 79.7769 81.6094C79.7417 81.6909 79.6901 81.7642 79.6254 81.825C79.5608 81.8858 79.4843 81.9327 79.4008 81.9628C79.3174 81.9929 79.2286 82.0056 79.14 82.0001Z" fill="white"/>
<path d="M89.4299 85.4026V85.5451H91.5899V85.3851C91.5314 85.3753 91.4758 85.3527 91.427 85.319C91.3782 85.2853 91.3374 85.2413 91.3074 85.1901L89.2024 79.6626C89.1549 79.5451 89.2674 79.4501 89.4524 79.4501V79.3076H86.1399V79.4501C86.3249 79.4501 86.4374 79.5451 86.3899 79.6626L84.2824 85.1901C84.2533 85.2415 84.213 85.2857 84.1646 85.3194C84.1161 85.3532 84.0607 85.3756 84.0024 85.3851V85.5451H86.1624V85.4026C85.9774 85.4026 85.8649 85.3026 85.9124 85.1901L86.3099 84.1451H89.2824L89.6799 85.1901C89.7274 85.3026 89.6124 85.4026 89.4299 85.4026ZM86.6524 83.2501L87.7949 80.2501L88.9399 83.2501H86.6524Z" fill="white"/>
<path d="M119.275 83.1025L118.4 85.2125L118.542 85.25C118.542 85.25 118.655 85.095 118.777 85.095C119.142 85.095 119.692 85.595 121.977 85.595C123.542 85.595 125.257 85.185 125.257 83.485C125.257 80.84 120.48 82.0075 120.48 81.07C120.48 80.6375 121.23 80.4525 121.715 80.4525C123.39 80.4525 124.34 80.875 124.19 81.2025L124.332 81.2725L125.15 79.6125L125.022 79.565C124.99 79.6212 124.943 79.6679 124.887 79.7003C124.831 79.7328 124.767 79.7499 124.702 79.75C124.475 79.75 123.152 79.25 121.715 79.25C120.165 79.25 118.697 79.95 118.697 81.0825C118.697 83.7275 123.477 82.43 123.477 83.4975C123.477 83.9975 122.977 84.2075 121.977 84.2075C119.695 84.2075 119.262 83.4775 119.397 83.165L119.275 83.1025Z" fill="white"/>
<path d="M99.9999 0L33.0549 56.435C33.0549 103.193 62.2699 163.5 99.9999 200C137.727 163.5 166.945 103.193 166.945 56.435L99.9999 0ZM99.9999 193.928C63.8274 157.428 37.7499 101.592 37.0549 58.2075C39.7499 55.9375 95.4124 9.0125 99.9999 5.14C104.59 9.0125 160.25 55.9375 162.945 58.2075C162.25 101.592 136.175 157.428 99.9999 193.928Z" fill="#C1C5C8"/>
<path d="M100 25.3975L45.25 61.2275C47.5 112.652 82 153.615 100 171.625C118 153.625 152.5 112.652 154.75 61.2275L100 25.3975ZM100 166.845C84.545 151.32 56.085 117.372 49.6075 74.6575C48.973 70.5042 48.5616 66.3198 48.375 62.1225L100 28.285L151.628 62.1225C151.438 66.3196 151.027 70.5038 150.395 74.6575C143.915 117.372 115.452 151.32 100 166.845Z" fill="#C1C5C8"/>
<path d="M96.4599 141.922C95.8349 141.922 95.3274 142.265 95.3274 142.672C95.3274 143.08 95.8274 143.437 96.4599 143.437C97.0924 143.437 97.5899 143.1 97.5899 142.672C97.5899 142.245 97.0849 141.922 96.4599 141.922Z" fill="#C1C5C8"/>
<path d="M82.5498 106.188L69.2048 121.968C78.5973 136.633 89.5473 147.468 99.9973 155.05V137C95.8476 136.948 91.8856 135.263 88.9696 132.31C86.0536 129.357 84.4184 125.374 84.4184 121.224C84.4184 117.074 86.0536 113.091 88.9696 110.138C91.8856 107.185 95.8476 105.5 99.9973 105.448V91.4526L85.2473 108.923L82.5498 106.188ZM96.1673 145.385C97.8623 145.385 97.9373 143.955 97.9373 143.955C97.3455 144.292 96.6804 144.479 95.9998 144.5C94.8673 144.5 93.9998 143.75 93.9998 142.69C93.9998 141.47 95.2498 140.888 96.4573 140.888C98.3798 140.888 99.3123 141.888 99.3123 143.638C99.3123 145.423 97.7623 146.388 96.1648 146.388C95.5244 146.391 94.8882 146.282 94.2848 146.068C94.1957 146.074 94.1123 146.114 94.0523 146.18L93.9248 146.125L94.7373 144.75L94.8423 144.798C94.7923 145.048 95.0723 145.385 96.1673 145.385Z" fill="#C1C5C8"/>
<path d="M99.9999 14.0723L40.8799 59.5298C43.2949 110.75 79.6199 163.25 99.9999 183.602C120.38 163.25 156.702 110.75 159.12 59.5298L99.9999 14.0723ZM99.9999 16.9598L131.585 41.7873L99.9999 20.3448L68.4174 41.7873L99.9999 16.9598ZM99.9999 25.3973L154.75 61.2273C152.5 112.652 118 153.615 99.9999 171.625C81.9999 153.625 47.4999 112.652 45.2624 61.2273L99.9999 25.3973ZM99.9999 180.127L83.0174 159.75L99.9999 175.567L116.98 159.75L99.9999 180.127Z" fill="#8AB7E9"/>
<path d="M103.54 145.325C104.162 145.325 104.67 144.983 104.67 144.56C104.67 144.138 104.17 143.81 103.54 143.81C102.91 143.81 102.407 144.148 102.407 144.56C102.407 144.973 102.915 145.325 103.54 145.325Z" fill="#8AB7E9"/>
<path d="M115.775 121.215C115.776 123.287 115.369 125.34 114.576 127.255C113.784 129.17 112.622 130.91 111.157 132.375C109.693 133.841 107.953 135.004 106.039 135.798C104.124 136.591 102.072 137 100 137V155.05C110.455 147.468 121.405 136.633 130.795 121.968L117.45 106.188L114.75 108.923L100 91.4526V105.435C102.072 105.435 104.124 105.844 106.038 106.637C107.952 107.43 109.691 108.593 111.156 110.058C112.62 111.523 113.782 113.263 114.575 115.177C115.368 117.092 115.775 119.143 115.775 121.215ZM103.83 141.858C102.138 141.858 102.062 143.285 102.062 143.285C102.656 142.953 103.32 142.769 104 142.75C105.135 142.75 106 143.5 106 144.553C106 145.775 104.75 146.363 103.545 146.363C101.625 146.363 100.688 145.348 100.688 143.613C100.688 141.82 102.24 140.863 103.835 140.863C104.475 140.86 105.112 140.968 105.715 141.183C105.805 141.176 105.889 141.136 105.95 141.07L106.075 141.125L105.262 142.5L105.16 142.448C105.205 142.2 104.928 141.858 103.83 141.858Z" fill="#8AB7E9"/>
<path d="M113.68 119.595C113.678 116.89 112.875 114.245 111.371 111.997C109.867 109.748 107.73 107.996 105.23 106.962C102.73 105.927 99.9796 105.657 97.3264 106.186C94.6732 106.715 92.2364 108.018 90.324 109.932C88.4115 111.845 87.1094 114.283 86.5821 116.936C86.0549 119.59 86.3262 122.34 87.3619 124.839C88.3975 127.338 90.1509 129.475 92.4004 130.977C94.6499 132.48 97.2945 133.282 99.9998 133.282C101.797 133.282 103.576 132.928 105.237 132.24C106.897 131.552 108.405 130.544 109.676 129.273C110.946 128.002 111.954 126.493 112.641 124.832C113.328 123.172 113.681 121.392 113.68 119.595ZM89.6173 117.882L87.6173 118.997C87.6173 118.885 87.6173 118.772 87.6173 118.657C87.6134 116.505 88.1737 114.389 89.2423 112.52L89.7648 115.16C90.0758 113.481 90.7951 111.903 91.8593 110.568C92.9235 109.232 94.2999 108.178 95.8673 107.5L96.0548 106.925C98.6156 106.071 101.384 106.071 103.945 106.925L104.132 107.5C105.697 108.18 107.071 109.234 108.134 110.569C109.196 111.904 109.914 113.48 110.225 115.157L110.75 112.52C111.819 114.388 112.38 116.504 112.377 118.657C112.377 118.772 112.377 118.885 112.377 118.997L110.377 117.882C110.156 120.482 108.967 122.903 107.046 124.668C105.125 126.433 102.611 127.412 100.002 127.412C97.3936 127.412 94.8799 126.433 92.9586 124.668C91.0374 122.903 89.8485 120.482 89.6273 117.882H89.6173Z" fill="#8AB7E9"/>
<path d="M100 137C103.121 137.001 106.172 136.076 108.767 134.343C111.363 132.61 113.386 130.146 114.581 127.262C115.775 124.379 116.088 121.207 115.48 118.146C114.871 115.085 113.368 112.273 111.161 110.066C108.955 107.859 106.143 106.356 103.082 105.748C100.021 105.139 96.8481 105.452 93.9649 106.647C91.0818 107.842 88.6177 109.865 86.8844 112.46C85.1512 115.055 84.2266 118.106 84.2275 121.227C84.2289 125.41 85.891 129.421 88.8487 132.379C91.8063 135.336 95.8173 136.999 100 137ZM100 105.927C102.707 105.926 105.354 106.727 107.606 108.23C109.857 109.733 111.612 111.871 112.649 114.371C113.686 116.872 113.958 119.624 113.43 122.279C112.903 124.935 111.599 127.374 109.685 129.288C107.771 131.203 105.332 132.506 102.677 133.034C100.022 133.563 97.2697 133.291 94.7688 132.255C92.2678 131.219 90.1304 129.464 88.627 127.212C87.1235 124.961 86.3216 122.314 86.3225 119.607C86.3209 117.81 86.6734 116.03 87.36 114.369C88.0466 112.708 89.0538 111.199 90.324 109.927C91.5942 108.655 93.1026 107.646 94.7628 106.958C96.4231 106.27 98.2027 105.915 100 105.915V105.927Z" fill="#323E48"/>
<path d="M132.842 118.652C132.167 119.78 131.487 120.882 130.792 121.967C121.402 136.632 110.452 147.467 99.9975 155.05C89.5475 147.467 78.5975 136.632 69.205 121.967C68.5133 120.882 67.83 119.777 67.155 118.652C59.8775 106.537 53.6775 91.9723 49.605 74.6523C56.0825 117.372 84.5425 151.32 100 166.845C115.455 151.32 143.917 117.372 150.397 74.6573C146.322 91.9723 140.122 106.537 132.842 118.652Z" fill="#323E48"/>
<path d="M100 5.14014C95.4125 9.01264 39.75 55.9376 37.0525 58.2076C37.75 101.593 63.825 157.428 100 193.928C136.177 157.428 162.25 101.593 162.945 58.2076C160.25 55.9376 104.587 9.01264 100 5.14014ZM40.88 59.5301L100 14.0726L159.12 59.5301C156.702 110.75 120.38 163.25 100 183.603C79.62 163.25 43.295 110.75 40.88 59.5301Z" fill="#8A2432"/>
<path d="M79.14 80.7074H76.855V81.9999H79.14C79.2286 82.0054 79.3173 81.9927 79.4008 81.9626C79.4843 81.9325 79.5607 81.8856 79.6254 81.8248C79.6901 81.764 79.7416 81.6907 79.7769 81.6092C79.8121 81.5277 79.8303 81.4399 79.8303 81.3512C79.8303 81.2624 79.8121 81.1746 79.7769 81.0931C79.7416 81.0117 79.6901 80.9383 79.6254 80.8775C79.5607 80.8167 79.4843 80.7698 79.4008 80.7397C79.3173 80.7096 79.2286 80.6969 79.14 80.7024V80.7074Z" fill="#8A2432"/>
<path d="M139.222 62.4373L137.442 61.6723C136.905 61.4473 136.465 61.6948 136.465 62.2348V75.8973C136.489 76.1954 136.593 76.4815 136.765 76.7262C136.936 76.971 137.17 77.1655 137.442 77.2898L139.222 78.0398C139.76 78.2723 140.2 78.0173 140.2 77.4823V63.8298C140.177 63.5314 140.074 63.2447 139.902 62.9998C139.73 62.7548 139.495 62.5605 139.222 62.4373Z" fill="#8A2432"/>
<path d="M73.3724 57.9124L71.5924 58.4349C71.3235 58.5218 71.0868 58.6874 70.913 58.9102C70.7392 59.1331 70.6362 59.4029 70.6174 59.6849V73.3474C70.6112 73.4664 70.6353 73.585 70.6874 73.6922C70.7394 73.7993 70.8178 73.8915 70.9152 73.9602C71.0126 74.0289 71.1257 74.0717 71.2442 74.0848C71.3626 74.0978 71.4824 74.0807 71.5924 74.0349L73.3724 73.5199C73.6439 73.4306 73.8823 73.2618 74.0566 73.0353C74.2309 72.8088 74.3331 72.5352 74.3499 72.2499V58.6049C74.3565 58.4854 74.3327 58.3662 74.2807 58.2584C74.2286 58.1506 74.1501 58.0578 74.0525 57.9886C73.9548 57.9194 73.8412 57.8761 73.7223 57.8628C73.6033 57.8495 73.483 57.8665 73.3724 57.9124Z" fill="#8A2432"/>
<path d="M127.955 58.3102L125.205 57.5752V73.1877L127.955 73.9377C128.067 73.9786 128.188 73.991 128.307 73.9739C128.425 73.9569 128.538 73.9108 128.634 73.8398C128.731 73.7688 128.808 73.6751 128.86 73.5671C128.911 73.459 128.935 73.3398 128.93 73.2202V59.5502C128.915 59.2682 128.813 58.9978 128.639 58.7758C128.464 58.5538 128.225 58.3912 127.955 58.3102Z" fill="#8A2432"/>
<path d="M98.3074 80.7074H96.3398V81.9999H98.3074C98.3959 82.0054 98.4847 81.9927 98.5682 81.9626C98.6517 81.9325 98.7281 81.8856 98.7928 81.8248C98.8575 81.764 98.909 81.6907 98.9442 81.6092C98.9795 81.5277 98.9976 81.4399 98.9976 81.3512C98.9976 81.2624 98.9795 81.1746 98.9442 81.0931C98.909 81.0117 98.8575 80.9383 98.7928 80.8775C98.7281 80.8167 98.6517 80.7698 98.5682 80.7397C98.4847 80.7096 98.3959 80.6969 98.3074 80.7024V80.7074Z" fill="#8A2432"/>
<path d="M99.9998 28.2852L48.3723 62.1227C48.5589 66.32 48.9703 70.5043 49.6048 74.6577C53.6773 91.9727 59.8773 106.538 67.1548 118.658L81.2498 104.118L84.1448 106.675L99.9998 90.3377L115.867 106.675L118.75 104.118L132.835 118.653C140.115 106.538 146.315 91.9727 150.387 74.6527C151.019 70.499 151.431 66.3148 151.62 62.1177L99.9998 28.2852ZM65.8373 63.5352L62.2498 65.0927V64.8077L62.6623 64.3652V62.5902C62.6623 62.0502 62.2248 61.8027 61.6873 62.0327L60.7698 62.4302C60.4985 62.5571 60.2655 62.7534 60.0943 62.9992C59.9231 63.245 59.8198 63.5317 59.7948 63.8302V77.5002C59.7948 78.0402 60.2348 78.2902 60.7698 78.0577L61.6873 77.6602C61.9588 77.5334 62.1919 77.3372 62.3632 77.0913C62.5344 76.8455 62.6376 76.5587 62.6623 76.2602V75.3002L62.2498 75.2152V74.9302L65.8298 73.3827V73.6627L65.4173 74.1077V75.5002C65.4173 77.1777 64.0423 79.1477 62.3648 79.8702L60.0948 80.8552C58.4148 81.5827 57.0423 80.8002 57.0423 79.1227V64.5902C57.0423 62.9102 58.4148 60.9427 60.0948 60.2202L62.3648 59.2352C64.0423 58.5052 65.4173 59.2877 65.4173 60.9652V63.1727L65.8298 63.2552L65.8373 63.5352ZM79.1323 74.2852L79.5448 73.9477V54.4252L79.1323 54.2427V53.9577L82.7123 53.3052V53.5902L82.2998 53.9277V71.5002L85.3198 70.9552L85.5823 70.4927L85.8648 70.4452V73.3627L79.1323 74.5852V74.2852ZM70.9123 76.7502C69.2348 77.2502 67.8623 76.2702 67.8623 74.5927V60.0702C67.8623 58.3927 69.2348 56.6127 70.9123 56.1227L74.0523 55.2027C75.7323 54.7152 77.1048 55.6827 77.1048 57.3677V71.8952C77.1048 73.5727 75.7323 75.3452 74.0523 75.8377L70.9123 76.7502ZM81.0898 85.1827C81.1512 85.2488 81.2254 85.3017 81.308 85.3383C81.3905 85.3748 81.4796 85.3942 81.5698 85.3952V85.5377H79.1273V85.3952C79.3098 85.3952 79.3898 85.2952 79.3098 85.1827L78.0598 83.3977H76.8648V85.1827C76.8648 85.2952 77.0123 85.3952 77.1973 85.3952V85.5377H74.7498V85.3952C74.9348 85.3952 75.0823 85.2952 75.0823 85.1827V79.6627C75.0823 79.5452 74.9348 79.4502 74.7498 79.4502V79.3077H79.5273C80.047 79.3053 80.5483 79.5003 80.9297 79.8535C81.311 80.2066 81.544 80.6914 81.5815 81.2098C81.619 81.7282 81.4581 82.2415 81.1315 82.6458C80.805 83.0501 80.337 83.3153 79.8223 83.3877L81.0898 85.1827ZM91.5898 85.5377H89.4298V85.3952C89.6123 85.3952 89.7273 85.2952 89.6798 85.1827L89.2823 84.1377H86.3098L85.9123 85.1827C85.8673 85.2952 85.9798 85.3952 86.1623 85.3952V85.5377H83.9998V85.3777C84.0581 85.3682 84.1135 85.3457 84.162 85.3119C84.2104 85.2782 84.2507 85.234 84.2798 85.1827L86.3873 79.6552C86.4323 79.5377 86.3198 79.4427 86.1373 79.4427V79.3002H89.4498V79.4427C89.2648 79.4427 89.1523 79.5377 89.1998 79.6552L91.3048 85.1827C91.3347 85.2339 91.3756 85.2779 91.4244 85.3116C91.4732 85.3453 91.5288 85.3678 91.5873 85.3777L91.5898 85.5377ZM90.9423 72.7602C90.552 72.7959 90.1585 72.7493 89.7873 72.6232C89.4162 72.4971 89.0756 72.2944 88.7878 72.0283C88.5 71.7622 88.2714 71.4386 88.1167 71.0784C87.962 70.7183 87.8847 70.3296 87.8898 69.9377V55.4152C87.9044 54.5885 88.2243 53.7964 88.7878 53.1913C89.3514 52.5862 90.1187 52.211 90.9423 52.1377L94.0798 51.8877C94.47 51.8527 94.8632 51.8999 95.234 52.0263C95.6048 52.1526 95.945 52.3553 96.2326 52.6213C96.5202 52.8873 96.7489 53.2106 96.9039 53.5704C97.0589 53.9301 97.1367 54.3184 97.1323 54.7102V69.2502C97.1162 70.0772 96.7961 70.8693 96.233 71.4752C95.6699 72.0812 94.9034 72.4585 94.0798 72.5352L90.9423 72.7602ZM98.6923 83.3977H96.3423V85.1827C96.3423 85.2952 96.4923 85.3952 96.6748 85.3952V85.5377H94.2298V85.3952C94.4123 85.3952 94.5623 85.2952 94.5623 85.1827V79.6627C94.5623 79.5452 94.4123 79.4502 94.2298 79.4502V79.3077H98.6923C99.2233 79.3262 99.7263 79.5502 100.095 79.9324C100.464 80.3146 100.671 80.8251 100.671 81.3564C100.671 81.8877 100.464 82.3983 100.095 82.7804C99.7263 83.1626 99.2233 83.3866 98.6923 83.4052V83.3977ZM105.887 79.4427C105.702 79.4427 105.555 79.5377 105.555 79.6552V85.1827C105.555 85.2952 105.702 85.3952 105.887 85.3952V85.5377H103.442V85.3952C103.625 85.3952 103.775 85.2952 103.775 85.1827V79.6627C103.775 79.5452 103.625 79.4502 103.442 79.4502V79.3077H105.887V79.4427ZM108.772 72.7502L105.575 72.5202L103.187 64.3477L102.325 64.3052V71.8377L102.74 72.1152V72.4002L99.1573 72.3652V72.0802L99.5723 71.8302V52.2852L99.1573 52.0002V51.7152L104.895 51.9477C105.712 51.9883 106.483 52.3393 107.05 52.9288C107.617 53.5183 107.938 54.3021 107.947 55.1202V61.4702C107.95 62.0959 107.752 62.706 107.381 63.2102C107.011 63.7145 106.488 64.0861 105.89 64.2702L108.162 72.0377L108.772 72.4527V72.7502ZM113.125 85.5527H109.125V85.4102C109.31 85.4102 109.457 85.3102 109.457 85.1977V79.6627C109.457 79.5452 109.31 79.4502 109.125 79.4502V79.3077H113.125C114.847 79.3077 116.245 80.3577 116.245 82.4277C116.245 84.4977 114.847 85.5452 113.125 85.5452V85.5527ZM113.967 65.8902V72.7977L114.38 73.1252V73.4077L110.8 72.9527V72.6677L111.215 72.4727V55.4277C111.215 53.7502 112.587 52.5927 114.265 52.8602L116.537 53.2227C117.372 53.3748 118.13 53.8074 118.685 54.449C119.24 55.0905 119.559 55.9024 119.59 56.7502V73.7877L120.005 74.1127V74.3977L116.422 73.7227V73.4377L116.835 73.2427V66.3377L113.967 65.8902ZM121.967 85.6127C119.682 85.6127 119.132 85.1127 118.767 85.1127C118.645 85.1127 118.532 85.2677 118.532 85.2677L118.39 85.2302L119.265 83.1202L119.387 83.1802C119.252 83.4927 119.685 84.2227 121.967 84.2227C122.967 84.2227 123.467 84.0102 123.467 83.5127C123.467 82.4452 118.687 83.7427 118.687 81.0977C118.687 79.9652 120.155 79.2652 121.705 79.2652C123.142 79.2652 124.455 79.7652 124.692 79.7652C124.757 79.7651 124.821 79.748 124.877 79.7155C124.933 79.683 124.98 79.6363 125.012 79.5802L125.14 79.6277L124.322 81.2877L124.18 81.2177C124.33 80.8977 123.38 80.4677 121.705 80.4677C121.217 80.4677 120.47 80.6527 120.47 81.0852C120.47 82.0227 125.247 80.8552 125.247 83.5002C125.25 85.1952 123.542 85.6052 121.977 85.6052L121.967 85.6127ZM131.675 74.3927C131.675 76.0652 130.3 77.0727 128.622 76.6227L122.022 74.8552V74.5702L122.432 74.4227V54.8702L122.032 54.5002V54.2202L128.632 55.9877C130.31 56.4377 131.685 58.1827 131.685 59.8527L131.675 74.3927ZM142.942 79.1077C142.942 80.7852 141.567 81.5752 139.89 80.8577L136.762 79.5002C135.082 78.7827 133.71 76.8177 133.71 75.1402V60.6227C133.71 58.9427 135.082 58.1552 136.762 58.8727L139.9 60.2127C141.577 60.9227 142.952 62.8852 142.952 64.5652L142.942 79.1077Z" fill="#8A2432"/>
<path d="M86.6523 83.2451H88.9398L87.7948 80.2451L86.6523 83.2451Z" fill="#8A2432"/>
<path d="M104.215 54.4374L102.325 54.3599V61.7949L104.215 61.8674C104.342 61.8738 104.468 61.8543 104.587 61.81C104.706 61.7657 104.815 61.6976 104.906 61.6098C104.998 61.522 105.07 61.4163 105.12 61.2994C105.169 61.1825 105.194 61.0567 105.192 60.9299V55.4499C105.191 55.1878 105.088 54.9365 104.906 54.748C104.724 54.5595 104.477 54.4483 104.215 54.4374Z" fill="#8A2432"/>
<path d="M93.3999 54.455L91.6199 54.59C91.3571 54.6156 91.1128 54.7365 90.9332 54.93C90.7535 55.1235 90.651 55.376 90.6449 55.64V69.3025C90.6429 69.4278 90.6674 69.5521 90.7167 69.6674C90.766 69.7826 90.839 69.8862 90.931 69.9713C91.023 70.0564 91.1319 70.1212 91.2506 70.1615C91.3692 70.2018 91.4951 70.2166 91.6199 70.205L93.3999 70.0675C93.6637 70.0452 93.9098 69.9257 94.0905 69.7321C94.2711 69.5385 94.3734 69.2847 94.3774 69.02V55.355C94.3786 55.2298 94.3536 55.1057 94.3038 54.9907C94.2541 54.8758 94.1808 54.7726 94.0887 54.6877C93.9965 54.6029 93.8876 54.5384 93.769 54.4983C93.6503 54.4582 93.5246 54.4434 93.3999 54.455Z" fill="#8A2432"/>
<path d="M112.75 80.7075H111.232V84.145H112.75C113.702 84.145 114.47 83.685 114.47 82.4275C114.47 81.17 113.697 80.7075 112.75 80.7075Z" fill="#8A2432"/>
<path d="M116.835 56.75C116.827 56.4781 116.725 56.2173 116.548 56.0111C116.37 55.805 116.128 55.666 115.86 55.6175L114.945 55.47C114.824 55.4459 114.7 55.4493 114.581 55.4799C114.462 55.5105 114.351 55.5676 114.257 55.6469C114.163 55.7262 114.088 55.8256 114.038 55.9378C113.988 56.05 113.964 56.1721 113.967 56.295V63.3675L116.835 63.825V56.75Z" fill="#8A2432"/>
<path d="M104.132 119.37L99.9999 116.37L95.8674 119.37L97.4449 124.233H102.552L104.132 119.37Z" fill="#8A2432"/>
<path d="M104.132 107.5L103.945 106.925C101.384 106.072 98.6157 106.072 96.0549 106.925L95.8674 107.5L99.9999 110.5L104.132 107.5Z" fill="#8A2432"/>
<path d="M89.25 112.52C88.1813 114.389 87.6211 116.505 87.625 118.658C87.625 118.773 87.625 118.885 87.625 118.998L89.625 117.883L90.2525 117.533L89.78 115.16L89.25 112.52Z" fill="#8A2432"/>
<path d="M110.225 115.155L109.75 117.533L110.378 117.883L112.378 118.998C112.378 118.885 112.378 118.773 112.378 118.658C112.381 116.505 111.819 114.389 110.75 112.52L110.225 115.155Z" fill="#8A2432"/>
<path d="M96.46 140.877C95.2525 140.877 94.0025 141.46 94.0025 142.68C94.0025 143.737 94.8725 144.49 96.0025 144.49C96.6806 144.471 97.3438 144.287 97.935 143.955C97.935 143.955 97.86 145.385 96.165 145.385C95.07 145.385 94.79 145.047 94.8425 144.78L94.7375 144.732L93.925 146.107L94.0525 146.162C94.1126 146.096 94.1959 146.056 94.285 146.05C94.8885 146.265 95.5246 146.373 96.165 146.37C97.7625 146.37 99.3125 145.41 99.3125 143.62C99.315 141.887 98.3825 140.877 96.46 140.877ZM96.46 143.445C95.835 143.445 95.3275 143.107 95.3275 142.68C95.3275 142.252 95.8275 141.93 96.46 141.93C97.0925 141.93 97.59 142.272 97.59 142.68C97.59 143.087 97.085 143.445 96.46 143.445Z" fill="#8A2432"/>
<path d="M105.25 142.515L106.063 141.14L105.938 141.085C105.876 141.151 105.792 141.191 105.703 141.197C105.099 140.983 104.463 140.874 103.823 140.878C102.228 140.878 100.675 141.833 100.675 143.628C100.675 145.358 101.613 146.378 103.533 146.378C104.738 146.378 105.988 145.79 105.988 144.568C105.988 143.52 105.12 142.765 103.988 142.765C103.311 142.783 102.649 142.964 102.058 143.292C102.058 143.292 102.133 141.865 103.825 141.865C104.923 141.865 105.2 142.208 105.15 142.47L105.25 142.515ZM103.533 143.803C104.155 143.803 104.663 144.14 104.663 144.553C104.663 144.965 104.163 145.318 103.533 145.318C102.903 145.318 102.4 144.975 102.4 144.553C102.4 144.13 102.915 143.803 103.54 143.803H103.533Z" fill="#8A2432"/>
</svg>
