<svg width="200" height="200" viewBox="0 0 200 200" fill="none" xmlns="http://www.w3.org/2000/svg">
<mask id="mask0_8997_2244" style="mask-type:luminance" maskUnits="userSpaceOnUse" x="16" y="11" width="168" height="178">
<path d="M183.65 11.1826H16.3501V188.815H183.65V11.1826Z" fill="white"/>
</mask>
<g mask="url(#mask0_8997_2244)">
<mask id="mask1_8997_2244" style="mask-type:luminance" maskUnits="userSpaceOnUse" x="16" y="11" width="168" height="178">
<path d="M183.653 11.1826H16.3501V188.815H183.653V11.1826Z" fill="white"/>
</mask>
<g mask="url(#mask1_8997_2244)">
<path d="M183.638 44.5451C183.513 49.9118 181.662 55.0954 178.36 59.3276C179.364 63.0093 179.868 66.8091 179.86 70.6251C179.838 82.4051 174.325 88.6501 172.93 90.7701C174.118 98.5751 172.633 106.073 169.65 111.938C165.96 119.188 160.935 124.2 153.033 128.188C153.033 128.188 147.05 143.103 139.24 153.81C122.525 176.725 103.24 187.703 99.8826 188.81C96.2176 187.648 77.5251 176.81 60.7401 153.81C52.9326 143.103 46.9501 128.195 46.9501 128.195C39.0451 124.195 34.0226 119.195 30.3326 111.945C27.3501 106.075 25.8676 98.5826 27.0501 90.7776C25.6551 88.6576 20.1426 82.4101 20.1226 70.6326C20.1152 66.8167 20.6197 63.0169 21.6226 59.3351C18.3304 55.098 16.488 49.9145 16.3676 44.5501C16.2676 40.6201 16.6376 34.7826 19.9201 28.4701C20.3189 27.7461 20.7631 27.048 21.2501 26.3801C21.7795 28.3717 22.5431 30.2934 23.5251 32.1051C24.4601 33.7726 25.4851 35.2751 27.7426 37.3376C29.9095 39.3358 32.4774 40.8494 35.2751 41.7776L35.2501 17.2001C46.5151 14.7126 69.2926 11.1826 99.9201 11.1826C130.548 11.1826 153.123 14.7126 164.75 17.1951L164.723 41.7726C167.52 40.8437 170.088 39.3292 172.255 37.3301C174.505 35.2676 175.525 33.7676 176.473 32.1001C177.455 30.285 178.22 28.36 178.75 26.3651C179.24 27.0326 179.685 27.7316 180.083 28.4576C183.365 34.7626 183.738 40.6076 183.635 44.5376" fill="white"/>
<path d="M74.84 107.913L76.3825 112.663H81.3825L77.34 115.595L78.895 120.345L74.855 117.413L70.81 120.353L72.3525 115.603L68.3125 112.663H73.3125L74.84 107.913ZM98.225 112.663H93.25L97.2925 115.595L95.7375 120.345L99.7925 117.418L103.827 120.35L102.285 115.6L106.317 112.663H101.317L99.7825 107.913L98.225 112.663ZM122.83 112.663H117.842L121.882 115.595L120.34 120.345L124.377 117.413L128.422 120.353L126.867 115.603L130.91 112.663H125.91L124.367 107.913L122.83 112.663ZM82.195 155.788C80.5 158.895 78.3625 161.5 77.39 162.908H122.87C121.895 161.505 119.832 158.84 117.965 155.79C116.577 153.518 115.347 151.29 114.547 148.685H85.3875C84.6575 151.1 83.4925 153.435 82.2125 155.79M130.275 130C137.135 127.78 145.295 124.988 145.295 124.988H54.605C54.605 124.988 62.99 127.938 69.9025 130.028C75.84 131.828 83.0025 134.388 85.1975 139.298H114.79C117.197 134.388 124.37 131.903 130.275 130.003" fill="#EB0029"/>
<path d="M107.09 78.6076C106.574 78.2647 106.008 78.0025 105.413 77.8301C104.625 77.5801 103.618 77.3976 101.38 77.4801C100.005 77.5301 98.2126 77.4801 98.2126 77.4801C98.2126 77.4801 99.7501 79.5676 100.445 80.0876C101.555 80.9276 103.405 80.1726 104.923 79.5326C105.648 79.1826 107.09 78.6076 107.09 78.6076ZM127.59 93.2501C128.34 92.3126 128.923 90.6101 128.945 88.8276C128.968 85.7776 127.835 81.7551 125.695 76.7901C124.375 73.7226 122.178 68.8076 122.498 64.2401C122.72 61.0926 125.085 58.1776 128.558 56.2951C134.368 53.1451 142.343 51.2951 142.343 51.2951C129.773 50.0326 115.048 49.0451 99.8426 49.0451C85.6773 49.078 71.5227 49.8248 57.4326 51.2826C57.4326 51.2826 65.3051 53.1276 71.2176 56.2826C74.7026 58.1401 77.0626 61.0801 77.2826 64.2276C77.5976 68.7951 75.4051 73.7101 74.0851 76.7776C71.9426 81.7451 70.8151 85.7776 70.8351 88.8151C70.8501 90.5926 71.3951 92.2951 72.1026 93.2701C73.0401 94.5701 74.4701 95.8901 77.6526 95.8901C82.9976 95.8901 85.0301 91.1201 85.0301 88.2776C85.0301 85.4351 83.5576 84.1176 82.5301 83.2276C81.1956 82.1398 79.6693 81.3114 78.0301 80.7851C78.0301 80.7851 84.1876 78.8076 84.1876 75.2201C84.1876 72.2776 82.4001 68.9176 80.0926 66.4701L80.2451 66.3126C80.8776 66.6676 83.1651 67.5301 85.1301 67.8851C88.0002 68.3705 90.9066 68.6097 93.8176 68.6001C98.5501 68.6001 100.7 68.0401 104.205 68.0401C107.853 68.0401 111.088 69.7651 111.878 73.0701C113.161 72.9056 114.458 72.8771 115.748 72.9851C120.088 73.4276 123.05 76.4701 123.128 80.4426C123.278 88.2676 116.585 90.7901 115.303 90.9776C115.477 90.4681 115.518 89.9225 115.423 89.3926C115.288 88.4576 114.423 87.2051 112.998 87.2051C110.968 87.2051 109.953 88.8726 110.02 90.5351C110.168 94.1726 114.255 95.7251 118.358 95.9526C118.98 95.9851 119.42 96.0026 120.005 95.9851C123.815 95.8851 126.208 94.9426 127.588 93.2351M183.645 44.5501C183.52 49.9158 181.671 55.0988 178.373 59.3326C179.376 63.0125 179.881 66.8107 179.873 70.6251C179.85 82.4101 174.338 88.6551 172.943 90.7751C174.125 98.5801 172.638 106.075 169.66 111.94C165.96 119.19 160.938 124.19 153.033 128.19C153.033 128.19 147.05 143.105 139.24 153.81C122.528 176.723 103.24 187.698 99.8851 188.81C96.2301 187.648 77.5276 176.81 60.7426 153.81C52.9326 143.108 46.9501 128.2 46.9501 128.2C39.0451 124.2 34.0201 119.2 30.3326 111.95C27.3501 106.08 25.8626 98.5851 27.0501 90.7776C25.6551 88.6576 20.1426 82.4126 20.1226 70.6276C20.1154 66.8133 20.6199 63.0153 21.6226 59.3351C18.3229 55.1017 16.4734 49.9186 16.3476 44.5526C16.2451 40.6226 16.6201 34.7826 19.9001 28.4726C20.305 27.7447 20.7559 27.0432 21.2501 26.3726C21.7797 28.3661 22.5425 30.2902 23.5226 32.1051C24.4626 33.7726 25.4826 35.2751 27.7401 37.3376C29.907 39.3358 32.4749 40.8494 35.2726 41.7776L35.2501 17.2001C46.5201 14.7001 69.2951 11.1826 99.9276 11.1826C130.56 11.1826 153.125 14.7126 164.75 17.1976L164.723 41.7751C167.52 40.8469 170.088 39.3333 172.255 37.3351C174.505 35.2726 175.525 33.7701 176.473 32.1026C177.456 30.2886 178.22 28.3643 178.75 26.3701C179.24 27.0376 179.685 27.7366 180.083 28.4626C183.365 34.7651 183.735 40.6126 183.635 44.5426M179.12 32.3526C178.02 35.1426 175.603 37.7701 173.198 39.8526C170.31 42.3526 165.348 44.6176 162.36 45.1026V18.9551C158.575 18.1651 136.47 13.5001 99.9776 13.5001C63.4851 13.5001 41.4376 18.1676 37.6426 18.9551V45.1176C34.6426 44.6176 29.6826 42.3551 26.8051 39.8676C24.4001 37.7801 21.9801 35.1526 20.8851 32.3676C19.4001 35.8301 18.8301 40.2501 18.9426 44.0001C19.1476 50.6726 21.3851 54.4576 24.4576 58.9251C24.4576 58.9251 22.2376 63.6751 22.7351 72.9976C23.1526 80.8951 27.7201 87.3176 29.8151 90.2476C27.4276 104.19 33.8676 113.65 37.8301 118.198C42.6726 123.748 49.2251 126.678 49.2251 126.678C51.3101 132.158 56.6801 144.235 63.9426 153.645C72.7501 165.053 85.5026 178.43 99.8701 185.895C114.24 178.42 127.258 165.045 136.063 153.645C143.33 144.235 148.7 132.145 150.783 126.678C150.783 126.678 157.335 123.758 162.175 118.198C166.138 113.65 172.573 104.198 170.175 90.2476C172.273 87.3276 176.838 80.9051 177.255 73.0101C177.755 63.6851 175.535 58.9376 175.535 58.9376C178.613 54.4676 180.843 50.6876 181.035 44.0126C181.15 40.2626 180.578 35.8576 179.098 32.3751M172.73 61.8301C174.365 67.7976 173.593 73.7351 172.538 77.3301C169.273 88.4701 159.925 92.5926 152.788 96.6176C149.375 98.5401 146.723 100.23 144.805 101.903C138.145 107.733 139.363 111.903 139.363 111.903C141.765 107.11 148.975 103.975 155.28 100.8C163.88 96.4501 166.625 92.4976 166.625 92.4976C167.875 99.9751 165.588 106.93 162.585 111.788C156.13 122.223 145.693 124.835 145.383 124.993H54.6326C54.3201 124.835 43.8826 122.218 37.4401 111.788C34.4401 106.938 32.1401 99.9751 33.3976 92.4976C33.3976 92.4976 36.1476 96.4501 44.7526 100.795C51.0576 103.978 58.2676 107.113 60.6701 111.895C60.6701 111.895 61.8876 107.725 55.2301 101.895C53.3126 100.223 50.6576 98.5351 47.2476 96.6101C40.0976 92.5851 30.7476 88.4626 27.4976 77.3226C26.4476 73.7326 25.6726 67.7951 27.3051 61.8226C27.3051 61.8226 28.8326 66.9826 39.9851 72.5301C48.0726 76.5601 53.5926 80.3726 56.0201 85.9051C56.0201 85.9051 57.8926 79.0651 50.4951 73.5101C48.3751 71.9201 46.6326 70.8451 41.9301 68.2601C38.8226 66.5376 31.7526 62.9826 26.7326 55.6526C23.5526 51.0401 21.5001 45.5251 22.5001 39.6601C22.5001 39.6601 23.5151 41.8701 27.3401 44.2326C31.9676 47.0926 37.0101 48.5426 44.1126 50.4676C50.8226 52.2826 62.3201 54.5376 69.0926 58.3251C72.1601 60.0351 74.1151 62.4776 74.1551 65.2076C74.2651 72.4576 67.7501 79.3351 67.7501 88.7576C67.7501 94.6726 70.8076 98.5676 77.4126 98.5676C80.5226 98.5676 82.9501 97.4576 84.7401 95.8176C86.9601 93.8026 88.1401 91.0026 88.1401 88.5826C88.1401 82.5826 83.8551 81.2551 82.8901 80.7576C85.1951 79.8151 86.7851 78.3026 87.0076 76.0076C87.1876 74.1851 86.8251 72.8976 86.4751 72.1551C86.1179 71.3709 85.6707 70.631 85.1426 69.9501C86.7144 70.4632 88.3372 70.8043 89.9826 70.9676C97.0876 71.7176 99.5726 70.5751 103.125 70.5751C106.543 70.5751 109.72 72.2326 109.58 75.6101C110.888 75.2575 112.238 75.0851 113.593 75.0976C118.773 75.0976 120.645 78.2176 120.645 81.0301C120.645 85.2276 117.873 87.2476 117.145 87.4676C116.723 85.5801 114.48 84.6051 112.725 84.6051C110.225 84.6051 107.173 86.2276 107.173 90.2926C107.18 91.3393 107.401 92.3735 107.821 93.3323C108.241 94.2911 108.851 95.1545 109.615 95.8701C111.048 97.1201 113.95 98.6401 119.83 98.6401C127.723 98.6401 132.28 94.6726 132.28 88.7551C132.28 79.3351 125.713 72.5051 125.873 65.2076C125.93 62.4576 127.818 60.0751 130.96 58.3226C137.738 54.5251 149.21 52.2851 155.915 50.4651C163.02 48.5426 168.058 47.0926 172.688 44.2301C176.513 41.8676 177.528 39.6601 177.528 39.6601C178.528 45.5226 176.473 51.0351 173.308 55.6451C168.295 62.9726 161.23 66.5251 158.113 68.2526C153.41 70.8476 151.673 71.9201 149.553 73.5026C142.153 79.0526 144.025 85.8951 144.025 85.8951C146.455 80.3651 151.97 76.5526 160.06 72.5226C171.215 66.9701 172.738 61.8151 172.738 61.8151M77.3301 115.603L81.3726 112.668H76.3726L74.8301 107.918L73.2876 112.668H68.2876L72.3301 115.603L70.7851 120.353L74.8226 117.418L78.8651 120.353L77.3301 115.603ZM102.263 115.603L106.305 112.668H101.305L99.7751 107.918L98.2201 112.668H93.2201L97.2626 115.603L95.7176 120.353L99.7651 117.418L103.805 120.353L102.263 115.603ZM106.705 96.8526C106.293 96.4776 104.313 93.9176 104.23 90.7001C104.095 85.2601 107.84 82.0026 112.73 82.0026C116.345 82.0026 117.43 84.1351 117.43 84.1351C117.803 83.6901 118.43 82.1101 118.208 80.7526C117.813 78.4526 115.878 77.5026 112.808 77.5026C109.61 77.5026 107.62 78.3901 107.62 78.3901L107.225 78.5401C107.225 78.5401 107.81 75.6801 105.725 74.0126C104.113 72.7226 101.333 73.1451 98.9151 73.5551C95.8876 74.0551 91.2376 74.0551 88.8176 72.8501C89.6139 74.148 89.9691 75.6687 89.8301 77.1851C89.6101 79.0051 88.2601 80.2926 87.5201 80.8201C88.7901 81.7626 91.1976 83.4201 91.1976 88.1976C91.1976 92.0976 88.5926 95.8151 87.4701 96.7176C89.7501 96.2951 92.2651 96.1601 93.8951 96.7526C97.7326 98.1426 98.3951 100.885 98.8951 102.218L99.2526 102.065C98.9151 100.26 98.8076 97.0401 100.668 96.0376C102.14 95.2476 104.888 96.1376 106.668 97.0801C106.668 97.0801 106.668 96.8176 106.743 96.8601M126.903 115.61L130.943 112.675H125.943L124.4 107.925L122.855 112.675H117.843L121.883 115.61L120.33 120.36L124.37 117.425L128.423 120.36L126.903 115.61ZM69.4151 134.163C64.8601 132.74 59.7276 131.053 54.1476 128.913C56.0426 133.728 59.5476 140.31 62.3626 144.688C65.4726 149.523 69.6751 155.123 74.1726 159.823C76.4226 157.495 83.4826 149.098 83.4826 143.11C83.4826 138.5 75.2651 136.005 69.4201 134.17M116.58 143.075C116.045 149.038 123.955 157.73 125.95 159.728C130.45 155.035 134.6 149.49 137.7 144.655C140.515 140.28 144.015 133.695 145.918 128.88C140.335 131.028 135.378 132.578 130.648 134.083C124.805 135.933 117.01 138.355 116.585 143.083M85.1976 139.3C85.8176 140.378 86.0276 141.8 86.1451 143.348C86.3026 145.418 85.6451 147.978 85.3951 148.688H114.55C114.3 147.978 113.645 145.418 113.8 143.348C113.915 141.81 114.155 140.378 114.775 139.3H85.1976ZM99.8676 181.55C106.65 177.958 117.368 167.943 122.9 162.898H77.3826C82.7476 168.978 93.7001 178.285 99.8826 181.55M55.8451 27.0226C55.8451 26.2901 55.7776 24.6426 55.2926 23.7876C54.9232 23.0931 54.3279 22.5454 53.6051 22.2351C52.9726 21.9851 52.0301 21.8676 50.1801 22.1276C48.4301 22.3501 44.2651 23.0151 44.2651 23.0151L44.2876 47.8026C44.2876 47.8026 46.7876 47.4801 47.6901 47.3576C48.6401 47.2226 51.5801 46.8576 52.2451 46.7276C53.6226 46.4401 54.1451 45.9376 54.5526 45.5626C55.3826 44.8126 55.8651 43.6676 55.8651 42.2301L55.8451 27.0226ZM51.3901 44.2726C51.1089 44.4836 50.7731 44.6094 50.4226 44.6351L48.4226 44.8851V24.7201L50.5351 24.4376C51.0101 24.3726 51.2851 24.4651 51.4701 24.6726C51.6551 24.8801 51.6926 25.3176 51.6926 26.0601L51.7076 43.1951C51.7076 43.5701 51.6926 43.9626 51.3876 44.2451M155.638 28.7926C155.638 28.2051 155.71 26.1876 155.415 25.2926C155.023 24.1751 154.5 23.7501 153.75 23.2751C153 22.8001 151.75 22.6101 149.955 22.3126C148.16 22.0151 144.135 21.5451 144.135 21.5451V46.5626C144.135 46.5626 146.7 46.8926 147.548 47.0326C148.395 47.1726 151.518 47.5976 152.183 47.6101C153.565 47.6276 153.92 47.3351 154.33 47.0751C155.16 46.5526 155.638 45.5476 155.638 44.1101V28.7926ZM151.475 43.8826C151.475 44.3676 151.39 44.6051 151.225 44.7251C150.975 44.9151 150.598 44.8826 150.188 44.8201L148.273 44.5451V24.5451L150.338 24.8376C150.955 24.9226 151.135 25.0876 151.293 25.4226C151.403 25.6726 151.468 26.0326 151.468 26.7826L151.475 43.8826ZM58.7026 46.2501C58.8975 46.2361 59.0872 46.1812 59.2595 46.089C59.4318 45.9969 59.5827 45.8695 59.7026 45.7151C59.9598 45.4076 60.0868 45.0118 60.0565 44.6121C60.0261 44.2123 59.8408 43.8402 59.5401 43.5751C59.2698 43.3234 58.9108 43.189 58.5417 43.2012C58.1725 43.2133 57.8232 43.3712 57.5701 43.6401L57.4851 43.7376C57.2252 44.0464 57.0976 44.4453 57.1301 44.8476C57.1432 45.0462 57.1957 45.2403 57.2845 45.4184C57.3734 45.5965 57.4968 45.7552 57.6476 45.8851C57.7883 46.0186 57.9558 46.1207 58.139 46.1844C58.3222 46.2482 58.5169 46.2723 58.7101 46.2551M76.2501 44.7701C76.4449 44.7569 76.6347 44.7026 76.807 44.6108C76.9793 44.519 77.1303 44.3918 77.2501 44.2376C77.5042 43.9281 77.6289 43.5325 77.5981 43.1332C77.5674 42.734 77.3836 42.362 77.0851 42.0951C76.9421 41.9582 76.7709 41.8541 76.5835 41.7902C76.396 41.7263 76.1969 41.7041 76.0001 41.7251C75.8051 41.739 75.6153 41.7938 75.443 41.886C75.2707 41.9782 75.1198 42.1057 75.0001 42.2601C74.7439 42.5678 74.6178 42.9632 74.6486 43.3624C74.6794 43.7615 74.8647 44.1329 75.1651 44.3976C75.3054 44.5311 75.4724 44.6333 75.6551 44.6975C75.8378 44.7617 76.0321 44.7865 76.2251 44.7701M67.7876 20.0376C67.0551 20.0901 64.7376 20.2326 63.3226 21.6851C62.0151 23.0176 62.0951 24.7651 62.1051 25.3801V41.2501C62.1276 42.6776 62.6576 43.8326 63.6176 44.5801C64.0626 44.9351 65.0601 45.7151 67.7451 45.4701C70.0176 45.2601 71.2701 44.5376 71.9651 43.9301C72.39 43.5473 72.7239 43.0742 72.9424 42.5456C73.1608 42.017 73.2583 41.4463 73.2276 40.8751V35.0001L69.1376 36.7276V40.9476C69.1376 42.2276 68.6801 42.8026 67.7001 42.9251C67.0551 43.0026 66.1826 42.9076 66.1826 41.3051V24.1276C66.1826 23.1526 66.6826 22.5751 67.5301 22.4926C68.3776 22.4101 69.0851 22.7726 69.0851 23.9126V28.8351L73.1651 27.0851V24.6776C73.1651 23.4026 73.0401 22.3951 72.5826 21.6926C71.6701 20.2876 69.4751 19.9151 67.7801 20.0351M91.6026 19.0151L87.3951 19.1201V40.1351C87.3951 41.6126 86.5451 41.8851 85.7001 41.8851C84.6576 41.9026 84.0751 41.4401 84.0751 40.3001V19.2326L79.9301 19.4226V40.0976C79.9301 42.2576 80.8176 42.9001 81.2201 43.2726C82.0126 43.9751 83.7926 44.4526 85.6626 44.3826C87.8551 44.2926 89.0901 43.8301 90.1626 43.0351C91.1626 42.2851 91.6176 41.1226 91.6176 39.7851V19.0151M107.75 19.0001L103.598 18.9576V28.1426L99.4351 18.9176L95.5826 18.9351V43.8601H99.7001V26.6351L103.7 34.5626V43.8451L107.748 43.9251V19.0001M116.25 19.2501L112.135 19.1101V44.0226L116.25 44.2726V19.2501ZM141.675 43.4051L136.61 42.8151V33.8151L139.318 34.0926L140.818 31.2276L136.598 30.7826V23.2876L141 23.7501L141.018 21.1451C141.018 21.1451 138.188 20.8526 136.93 20.7126C135.9 20.6051 132.5 20.2726 132.5 20.2726V45.2726C132.5 45.2726 135.645 45.5876 136.83 45.7151L141.695 46.2351L141.675 43.4051ZM130.5 20.1301C130.5 20.1301 126.318 19.8301 124.63 19.7276L119.043 19.3976L117.808 21.8976L122.28 22.1476V44.5251C122.28 44.5251 126.48 44.8126 126.39 44.8126V22.3826L130.523 22.6701L130.5 20.1301Z" fill="#2E2A25"/>
</g>
</g>
</svg>
