<svg width="200" height="200" viewBox="0 0 200 200" fill="none" xmlns="http://www.w3.org/2000/svg">
<mask id="mask0_8997_1693" style="mask-type:luminance" maskUnits="userSpaceOnUse" x="13" y="13" width="174" height="174">
<path d="M186.807 13.5449H13.1925V186.455H186.807V13.5449Z" fill="white"/>
</mask>
<g mask="url(#mask0_8997_1693)">
<mask id="mask1_8997_1693" style="mask-type:luminance" maskUnits="userSpaceOnUse" x="13" y="13" width="174" height="174">
<path d="M186.807 13.5449H13.1925V186.455H186.807V13.5449Z" fill="white"/>
</mask>
<g mask="url(#mask1_8997_1693)">
<path d="M184.095 27.295C178.205 25.16 148.957 15.5625 100 15.5625C51.0425 15.5625 21.7925 25.16 15.9025 27.295C15.45 33.33 15.21 39.185 15.21 44.795C15.21 131.582 67.0425 169.132 100 184.227C132.96 169.132 184.792 131.582 184.792 44.795C184.792 39.1775 184.542 33.3225 184.097 27.295M178.03 78.75C170.905 118.467 152.302 144.102 124 163.572C116.645 168.635 108.637 173.283 100 177.643C89.6925 172.432 80.28 166.825 71.805 160.587C78.5 137.325 93.9075 127.11 93.9075 127.11C84.695 116.493 95.88 108.723 95.88 108.723C93.8925 112.86 93.445 118.973 98.1675 122.94C102.89 126.908 107.917 122.44 111.517 122.603C115.117 122.765 119.812 125.45 119.812 125.45C123.695 124.212 124.417 121.06 124.417 121.06C124.417 121.06 123.827 119.618 122.527 119.147C121.974 119.133 121.425 119.256 120.93 119.506C120.436 119.756 120.012 120.125 119.695 120.58C119.405 118 122.715 116.195 122.715 116.195C123.747 116.202 124.764 116.437 125.695 116.883C126.626 117.329 127.446 117.975 128.097 118.775L133.255 118.868C134.212 116.29 135.985 116.022 135.985 116.022L127.057 106.645C122.222 101.335 127.5 97.225 127.5 97.225C127.164 96.154 126.624 95.1582 125.91 94.2925C125.91 94.2925 132.5 93.975 137.357 93.5C149.155 92.34 150.182 77.465 178.035 78.75C151.25 74.6025 146.262 87.8725 133.63 88.88C127.13 89.4 121.6 89.325 121.6 89.325C121.6 89.325 117.922 86.55 114.287 84.75L96.835 84.6325C96.835 84.6325 91.95 86.405 88.545 89.8275L68.145 89.645C49.8325 88.9725 44.4575 70.995 21.9075 78.5025C45.3925 74.945 44.6725 92.9625 67.765 95.0775L93.0325 96.41C93.0325 96.41 95.14 95.3 93.9725 91.91C95.2225 92.2875 99.3475 97.9875 94.3825 102.8C92.6975 104.588 87.2775 108.908 72.5325 111.732C73.8378 108.348 76.0547 105.39 78.9375 103.188C77.065 103.012 75.135 102.82 73.235 102.63C61.5431 110.282 51.0628 119.642 42.1425 130.398C32.44 116.195 25.61 99.2675 21.915 78.5C19.3875 64.2675 18.325 48.25 18.81 30.05C18.81 30.05 49.2275 18.4375 100 18.4375C150.772 18.4375 181.19 30.05 181.19 30.05C181.675 48.355 180.6 64.4675 178.03 78.7525M113.435 90.75C112.12 89.5725 111.827 87.7125 113.935 86.6675C113.17 88.875 117.76 89.2725 119.645 92.1325C122.032 95.7775 118.632 97.8 118.825 100.408C117.505 96.63 114.05 96.6025 112.472 95.2475C110.895 93.8925 110.892 92.5325 111.605 91.705C112.192 93.41 115.055 92.205 113.43 90.7525M117.27 106.812C110.375 103.098 101.182 103.885 101.182 103.885C102.342 101.671 104.077 99.8111 106.205 98.5C111.172 99.815 114.162 101 117.272 106.81" fill="white"/>
<path d="M30.7825 67.6101L36.425 66.5276V51.2751L41.3675 50.3376V44.9301L36.425 45.8901V38.9676L41.3675 37.9426V32.3901L30.7825 34.8001V67.6101Z" fill="white"/>
<path d="M51.835 30.4623C45.8575 31.4273 45.4575 32.3948 45.4 38.1423V59.0473C45.455 64.4198 45.835 65.0248 51.835 64.4423C57.895 63.6923 58.7575 63.0698 58.81 57.7148V51.1398L53.1675 51.6623V58.0348C53.1675 58.9248 52.6125 59.2123 52.12 59.2848C51.66 59.3048 51.0475 59.2323 51.0475 58.1823V37.4998C51.0475 36.6673 51.5125 36.2623 52.0475 36.1973C52.6375 36.1023 53.175 36.4473 53.175 37.2823V41.3598L58.8175 40.7723V36.5498C58.775 30.5498 57.905 29.6848 51.8425 30.4623" fill="white"/>
<path d="M82.25 27.6526L74.525 28.2126V62.3751L82.4275 61.9277C87.34 61.6526 88.1275 60.9552 88.205 56.1777V34.7501C88.1025 28.2101 87.1625 27.4576 82.24 27.6501M82.5625 55.9002C82.5625 56.6726 82.4625 56.9426 81.695 56.9851L80.15 57.1201V34.0376L81.695 33.8976C82.2275 33.8976 82.53 34.1476 82.5625 35.3676V55.9002Z" fill="white"/>
<path d="M95.4425 27.27L92.0575 61.7225L97.265 61.665L97.7 55.665L100.792 55.625L101.27 61.555L106.477 61.595L103.067 27.1475L95.4425 27.27ZM97.9925 50.42L99.2825 36.8825L100.51 50.3825L97.9925 50.42Z" fill="white"/>
<path d="M116.31 56.9248V27.5848L110.665 27.3423V61.7023L120.22 62.0123L120.215 57.0398L116.31 56.9248Z" fill="white"/>
<path d="M130.007 57.6172L130.012 28.5747L124.365 28.0947V62.2697L133.795 63.0097V57.9747L130.007 57.6172Z" fill="white"/>
<path d="M140.915 29.8374L137.545 63.2899L142.753 63.7899L143.188 57.6599L146.225 57.9299L146.66 64.1799L151.868 64.7724L148.455 30.8074L140.915 29.8374ZM143.465 52.4074L144.715 39.3699L145.943 52.6199L143.465 52.4074Z" fill="white"/>
<path d="M162.205 32.7822C156.168 31.7822 155.823 32.5647 155.77 38.3322V42.9547C155.818 45.8197 156.358 47.4347 158.213 49.0672L162.285 52.3172C163.073 53.0022 163.56 53.7822 163.585 54.8172V60.1647C163.585 60.9722 162.935 61.0847 162.435 61.0522C162.148 60.9974 161.89 60.8438 161.704 60.6182C161.519 60.3926 161.418 60.1092 161.42 59.8172V55.0147L155.773 54.3447V59.2097C155.825 64.5922 156.45 65.3947 162.43 66.3122C168.505 67.0847 169.18 66.7972 169.223 61.2947V54.4522C169.163 52.2397 168.473 50.4047 166.745 48.9072L162.455 45.4697C161.743 44.8172 161.44 44.2622 161.415 43.1122V39.2497C161.415 38.4472 161.973 38.2497 162.433 38.2922C162.92 38.4072 163.575 39.0647 163.575 39.9147V43.2147L169.218 44.0372V40.7297C169.163 35.2547 168.218 33.9597 162.218 32.7822" fill="white"/>
<path d="M101.175 149.662L100.71 142.052L95.39 149.662H86.5375L92.36 154.73L87.815 162.61L96.305 157.72L102.07 162.527L101.505 154.672L110.06 149.662H101.175Z" fill="white"/>
<path d="M94.8575 71.4998H90.1075C87.5275 71.4998 86.2175 71.7173 86.2175 73.4748V74.0923C86.2175 75.3723 86.795 76.0673 90.005 76.0673H93.1125C94.415 76.0673 95.0475 75.8848 95.5875 75.5273V76.3773C95.5875 76.9298 95.11 77.2248 93.965 77.2248H86.14V78.7498H94C97.56 78.7498 98.75 78.1198 98.75 75.9623V73.9748C98.75 72.1298 97.4625 71.4873 94.8625 71.4873M93.89 74.5848H90.9825C89.635 74.5848 89.2875 74.4023 89.2875 73.8123C89.2875 73.2223 89.65 73.0148 90.9225 73.0148H93.96C95.2375 73.0148 95.595 73.1998 95.595 73.8123C95.595 74.4248 95.2475 74.5848 93.885 74.5848" fill="#C3C6C8"/>
<path d="M110.07 74.17H106.965C105.662 74.17 105.025 74.355 104.482 74.705V73.8775C104.482 73.31 104.962 73.0075 106.11 73.0075H113.56V71.5H106.09C102.532 71.5 101.34 72.1275 101.34 74.285V76.25C101.34 78.0975 102.642 78.75 105.23 78.75H109.98C112.565 78.75 113.87 78.5225 113.87 76.775V76.1575C113.87 74.8725 113.3 74.175 110.087 74.175M109.17 77.215H106.112C104.842 77.215 104.48 77.03 104.48 76.4225C104.48 75.815 104.83 75.645 106.175 75.645H109.092C110.445 75.645 110.787 75.8225 110.787 76.4225C110.787 77.0225 110.43 77.215 109.155 77.215" fill="#C3C6C8"/>
<path d="M186.04 25.8724C186.04 25.8724 155.902 13.5449 100 13.5449C44.0975 13.5449 13.96 25.8724 13.96 25.8724C6.83 114.607 50.44 164.102 100 186.452C149.557 164.1 193.167 114.607 186.04 25.8724ZM100 184.227C67.04 169.132 15.21 131.582 15.21 44.7949C15.21 39.1774 15.46 33.3224 15.905 27.2949C21.795 25.1674 51.0475 15.5699 100 15.5699C148.952 15.5699 178.208 25.1674 184.095 27.3024C184.553 33.3374 184.79 39.1924 184.79 44.8024C184.79 131.58 132.958 169.13 100 184.222" fill="#C6093B"/>
<path d="M139 99.25L129.835 101.298C128.24 102.382 125.495 104.723 127.045 106.65L135.983 116C134.29 119.618 137.683 121.827 137.683 121.827C137.233 124.392 133.87 127.885 133.87 127.885L130.285 128.102L128.75 130.575L118.943 131.337L116.865 130.365C109.07 145.5 114.685 157.06 124 163.57C152.303 144.103 170.903 118.467 178.033 78.75C151.91 80.21 151.69 96.23 139 99.25Z" fill="#C6093B"/>
<path d="M21.9175 78.4998C25.6075 99.2498 32.44 116.185 42.145 130.4C51.0682 119.639 61.5528 110.275 73.25 102.62C70.13 102.302 67.1075 101.97 64.62 101.655C43.37 98.9798 42.43 78.8148 21.93 78.4873" fill="#C6093B"/>
<path d="M118.825 100.398C118.627 97.7952 122.022 95.7702 119.64 92.1277C117.76 89.2577 113.167 88.8777 113.93 86.6602C111.83 87.7127 112.117 89.5677 113.43 90.7452C115.062 92.2077 112.195 93.4052 111.605 91.6952C110.885 92.5277 110.89 93.8902 112.475 95.2377C114.06 96.5852 117.502 96.6202 118.825 100.398Z" fill="#C6093B"/>
<path d="M135.985 116.012C135.985 116.012 134.212 116.277 133.255 118.857L128.097 118.762C127.446 117.962 126.626 117.316 125.695 116.87C124.764 116.424 123.747 116.189 122.715 116.182C122.715 116.182 119.405 117.997 119.692 120.577C120.009 120.123 120.434 119.753 120.928 119.503C121.422 119.252 121.971 119.127 122.525 119.14C123.827 119.612 124.415 121.057 124.415 121.057C124.415 121.057 123.695 124.207 119.81 125.445C119.81 125.445 115.112 122.762 111.515 122.6C107.917 122.437 102.89 126.895 98.165 122.937C93.44 118.98 93.89 112.86 95.8775 108.72C95.8775 108.72 84.6925 116.487 93.905 127.105C93.905 127.105 78.4975 137.317 71.8025 160.585C80.2775 166.82 89.6925 172.427 99.9975 177.642C108.63 173.28 116.637 168.63 123.997 163.572C114.687 157.072 109.075 145.507 116.857 130.367L118.935 131.337L128.75 130.575L130.29 128.115L133.88 127.897C133.88 127.897 137.245 124.397 137.69 121.842C137.69 121.842 134.295 119.627 135.995 116.01M102.067 162.53L96.3175 157.722L87.8175 162.607L92.3725 154.727L86.5425 149.665H95.4L100.722 142.047L101.182 149.665H110.08L101.522 154.665L102.067 162.53Z" fill="#001F5B"/>
<path d="M97.985 50.4223L100.502 50.3898L99.275 36.8823L97.985 50.4223Z" fill="#001F5B"/>
<path d="M181.193 30.04C181.193 30.04 150.783 18.4375 100 18.4375C49.2175 18.4375 18.8075 30.04 18.8075 30.04C18.325 48.2325 19.3875 64.25 21.915 78.48C44.46 70.98 49.835 88.9525 68.14 89.62L88.54 89.8025C91.94 86.3875 96.83 84.61 96.83 84.61L114.28 84.7275C117.918 86.535 121.59 89.31 121.59 89.31C121.59 89.31 127.118 89.385 133.618 88.865C146.25 87.85 151.25 74.59 178.028 78.75C180.598 64.47 181.678 48.3575 181.193 30.0425M41.3675 37.9425L36.415 38.9675V45.8825L41.36 44.9275V50.3325L36.415 51.2775V66.5275L30.7725 67.6125V34.8125L41.3575 32.3975L41.3675 37.9425ZM58.8125 40.785L53.17 41.3675V37.2825C53.17 36.4625 52.63 36.1125 52.04 36.1975C51.5125 36.2575 51.04 36.6625 51.04 37.5V58.1775C51.04 59.23 51.655 59.3 52.1125 59.28C52.6125 59.2025 53.165 58.9125 53.165 58.03V51.66L58.8075 51.1325V57.7075C58.7525 63.07 57.89 63.695 51.83 64.435C45.83 65.025 45.4525 64.4175 45.395 59.045V38.1425C45.45 32.3925 45.8525 31.415 51.83 30.4625C57.9075 29.6825 58.7575 30.545 58.8075 36.55L58.8125 40.785ZM74.5175 62.3875V28.205L82.2425 27.6525C87.165 27.4575 88.1025 28.2075 88.21 34.7525V56.1925C88.1275 60.965 87.3425 61.655 82.43 61.9275L74.5175 62.3875ZM98.75 75.955C98.75 78.11 97.5525 78.7425 94 78.7425H86.145V77.205H93.97C95.1175 77.205 95.595 76.915 95.595 76.3625V75.5C95.055 75.8575 94.43 76.04 93.12 76.04H90.0175C86.805 76.04 86.23 75.3475 86.23 74.065V73.4475C86.23 71.6975 87.5325 71.47 90.12 71.47H94.8575C97.46 71.47 98.745 72.1225 98.745 73.9575L98.75 75.955ZM100.795 55.6175L97.7075 55.655L97.2725 61.655L92.065 61.715L95.4475 27.2675L103.08 27.145L106.5 61.5875L101.293 61.5475L100.795 55.6175ZM113.858 76.7675C113.858 78.5175 112.555 78.7425 109.968 78.7425H105.218C102.615 78.7425 101.33 78.09 101.33 76.2425V74.2625C101.33 72.1025 102.533 71.475 106.08 71.475H113.55V73H106.11C104.965 73 104.483 73.2925 104.483 73.855V74.695C105.025 74.3425 105.655 74.155 106.965 74.155H110.07C113.285 74.155 113.853 74.8525 113.853 76.1375L113.858 76.7675ZM110.665 61.7V27.3425L116.308 27.5925V56.925L120.213 57.04V62.0125L110.665 61.7ZM124.365 62.27V28.085L130 28.5625V57.61L133.788 57.9675V63L124.365 62.27ZM146.66 64.1675L146.225 57.9175L143.188 57.645L142.75 63.78L137.543 63.28L140.91 29.83L148.45 30.8L151.868 64.75L146.66 64.1675ZM169.228 44.0325L163.585 43.21V39.91C163.585 39.06 162.935 38.3925 162.443 38.2875C161.983 38.2475 161.423 38.4425 161.423 39.245V43.115C161.45 44.265 161.755 44.825 162.463 45.4675L166.75 48.9075C168.5 50.4075 169.17 52.235 169.23 54.45V61.29C169.18 66.79 168.508 67.0825 162.438 66.31C156.46 65.395 155.833 64.5875 155.78 59.2075V54.345L161.423 55.0225V59.8175C161.42 60.1099 161.521 60.3939 161.706 60.62C161.891 60.8461 162.15 61 162.438 61.055C162.938 61.0875 163.588 60.9725 163.588 60.1675V54.8125C163.573 53.775 163.088 52.9975 162.288 52.3125L158.218 49.0625C156.363 47.435 155.83 45.8125 155.775 42.9575V38.3275C155.825 32.5625 156.17 31.775 162.208 32.775C168.208 33.9575 169.165 35.2475 169.23 40.7275L169.228 44.0325Z" fill="#001F5B"/>
<path d="M109.095 75.6372H106.177C104.83 75.6372 104.48 75.8197 104.48 76.4122C104.48 77.0047 104.845 77.2047 106.117 77.2047H109.155C110.427 77.2047 110.79 77.0197 110.79 76.4122C110.79 75.8047 110.447 75.6372 109.095 75.6372Z" fill="#001F5B"/>
<path d="M143.463 52.4122L145.935 52.6247L144.708 39.3647L143.463 52.4122Z" fill="#001F5B"/>
<path d="M81.705 33.8997L80.16 34.0372V57.1272L81.705 56.9922C82.455 56.9397 82.555 56.6647 82.5725 55.9072V35.3697C82.545 34.1422 82.2425 33.8897 81.705 33.8997Z" fill="#001F5B"/>
<path d="M93.96 73H90.9225C89.645 73 89.2825 73.185 89.2825 73.7975C89.2825 74.41 89.63 74.57 90.9775 74.57H93.8825C95.245 74.57 95.5925 74.3925 95.5925 73.7975C95.5925 73.2025 95.235 73 93.9575 73" fill="#001F5B"/>
<path d="M137.353 93.4998C132.495 93.9723 125.9 94.2923 125.9 94.2923C126.617 95.1557 127.161 96.1498 127.5 97.2198C127.5 97.2198 122.235 101.332 127.065 106.642C125.52 104.715 128.255 102.367 129.853 101.29L139 99.2498C151.68 96.2498 151.9 80.2173 178.023 78.7648C150.17 77.4623 149.14 92.3448 137.345 93.5148" fill="#001F5B"/>
<path d="M73.235 102.615C75.135 102.808 77.065 103 78.9375 103.175C76.0576 105.378 73.842 108.333 72.535 111.715C87.285 108.895 92.705 104.575 94.39 102.788C99.35 97.98 95.225 92.2875 93.98 91.89C95.1425 95.2775 93.0375 96.39 93.0375 96.39L67.77 95.0625C44.6825 92.945 45.3975 74.9275 21.915 78.4825C42.415 78.8175 43.3575 98.9825 64.6075 101.658C67.0925 101.973 70.1075 102.308 73.235 102.623" fill="#001F5B"/>
<path d="M117.28 106.795C114.172 100.995 111.182 99.7948 106.21 98.4873C104.082 99.7959 102.347 101.655 101.188 103.867C101.188 103.867 110.38 103.08 117.275 106.795" fill="#001F5B"/>
</g>
</g>
</svg>
