<svg width="200" height="200" viewBox="0 0 200 200" fill="none" xmlns="http://www.w3.org/2000/svg">
<path d="M100 187.165C148.14 187.165 187.165 148.14 187.165 100C187.165 51.8601 148.14 12.835 100 12.835C51.8601 12.835 12.835 51.8601 12.835 100C12.835 148.14 51.8601 187.165 100 187.165Z" fill="#231F20"/>
<path d="M100 188.75C51.0625 188.75 11.25 148.938 11.25 100C11.25 51.0625 51.0625 11.25 100 11.25C148.938 11.25 188.75 51.0625 188.75 100C188.75 148.938 148.938 188.75 100 188.75ZM100 14.42C52.8125 14.42 14.42 52.8125 14.42 100C14.42 147.188 52.8125 185.58 100 185.58C147.188 185.58 185.58 147.188 185.58 100C185.58 52.8125 147.188 14.42 100 14.42Z" fill="#F7B5CD"/>
<path d="M146.28 157.985L145.275 153.45L144.275 157.988L139.725 158.988L144.278 159.983L145.283 164.518L146.28 159.983L150.833 158.98L146.28 157.985Z" fill="#F7B5CD"/>
<path d="M55.7224 157.985L54.7174 153.45L53.7199 157.988L49.1699 158.988L53.7199 159.983L54.7249 164.518L55.7249 159.983L60.2749 158.98L55.7224 157.985Z" fill="#F7B5CD"/>
<path d="M99.9999 162.685C134.62 162.685 162.685 134.62 162.685 99.9999C162.685 65.38 134.62 37.3149 99.9999 37.3149C65.38 37.3149 37.3149 65.38 37.3149 99.9999C37.3149 134.62 65.38 162.685 99.9999 162.685Z" fill="#231F20"/>
<path d="M100 163.477C65 163.477 36.5225 135 36.5225 100C36.5225 65 65 36.5225 100 36.5225C135 36.5225 163.477 65 163.477 100C163.477 135 135 163.477 100 163.477ZM100 38.1075C65.8725 38.1075 38.1075 65.8725 38.1075 100C38.1075 134.127 65.8725 161.892 100 161.892C134.127 161.892 161.892 134.127 161.892 100C161.892 65.8725 134.127 38.1075 100 38.1075Z" fill="#F7B5CD"/>
<path d="M55.155 47.8926V99.0226C55.1551 113.044 59.1343 126.778 66.6301 138.628C74.1258 150.478 84.8305 159.958 97.5 165.965L100.098 167.195L102.848 165.875C115.428 159.831 126.045 150.356 133.476 138.542C140.906 126.728 144.848 113.054 144.848 99.0976V47.8926H55.155Z" fill="#231F20"/>
<path d="M131.17 137.112C138.333 125.733 142.132 112.559 142.127 99.1123V50.6123H57.8774V99.0373C57.8762 112.547 61.7093 125.78 68.9313 137.198C76.1533 148.616 86.4674 157.75 98.6749 163.537L100.092 164.21L101.667 163.46C113.79 157.636 124.018 148.502 131.17 137.112ZM100.975 162.02L100.085 162.447L99.3499 162.1C87.414 156.441 77.3293 147.512 70.2679 136.348C63.2066 125.185 59.4587 112.247 59.4599 99.0373V52.2073H140.54V99.1123C140.541 112.26 136.827 125.141 129.827 136.27C122.827 147.4 112.826 156.326 100.975 162.02Z" fill="#F7B5CD"/>
<path d="M100 91.8775C97.59 91.8775 95.5 90.81 94.5 89.26C94.5013 90.7187 95.0821 92.1171 96.1144 93.1476C97.1468 94.1781 98.5463 94.7563 100.005 94.755C101.464 94.7537 102.862 94.1729 103.893 93.1405C104.923 92.1082 105.501 90.7087 105.5 89.25C104.5 90.81 102.41 91.8775 100 91.8775Z" fill="#F7B5CD"/>
<path d="M111.045 89.25L105.545 86.98L109.458 83.515L104.135 84.905L105.53 79.655L101.465 83.4375L100 78.21L98.5351 83.44L94.4701 79.6575L95.8651 84.9075L90.5426 83.5175L94.4551 87L88.9551 89.27H94.5001C94.5001 87.8113 95.0795 86.4123 96.111 85.3809C97.1424 84.3494 98.5414 83.77 100 83.77C101.459 83.77 102.858 84.3494 103.889 85.3809C104.921 86.4123 105.5 87.8113 105.5 89.27L111.045 89.25Z" fill="#F7B5CD"/>
<path d="M123.83 87.6829C123.318 87.168 122.708 86.7598 122.037 86.4817C121.366 86.2036 120.646 86.0613 119.92 86.0629H117.5C117.085 86.0683 116.683 85.9168 116.375 85.6387C116.067 85.3606 115.875 84.9763 115.838 84.5629C115.823 84.3429 115.853 84.1222 115.927 83.9145C116.001 83.7068 116.117 83.5164 116.268 83.3552C116.418 83.194 116.6 83.0654 116.802 82.9773C117.004 82.8891 117.222 82.8434 117.443 82.8428H132.078L120.603 80.7679C120.486 80.4468 120.273 80.1695 119.993 79.9736C119.713 79.7777 119.379 79.6727 119.038 79.6729H109.42L114.133 80.9978C113.659 81.4489 113.284 81.9922 113.029 82.5943C112.775 83.1963 112.647 83.8442 112.653 84.4978C112.681 85.7704 113.21 86.9806 114.123 87.867C115.037 88.7534 116.262 89.2449 117.535 89.2354H119.92C120.298 89.2273 120.671 89.3132 121.008 89.4854C121.468 89.7252 121.837 90.11 122.058 90.5805C122.278 91.051 122.337 91.5808 122.226 92.0883C122.115 92.5958 121.84 93.0526 121.444 93.3883C121.047 93.7239 120.551 93.9197 120.033 93.9454H112.563C110.521 93.944 108.513 94.4716 106.736 95.4766C104.958 96.4817 103.471 97.9299 102.42 99.6804C101.394 101.412 100.859 103.39 100.873 105.403L109.135 97.1528H111.635L100.885 107.903V111.718L115.455 97.1504H117.955L100.895 114.21V118.515L122.435 96.9779L123.9 95.4653C124.919 94.4248 125.486 93.0239 125.478 91.5673C125.469 90.1108 124.886 88.7165 123.855 87.6879L123.83 87.6829ZM117.063 80.7354H118.973V81.7929H117.063V80.7354Z" fill="white"/>
<path d="M74.5476 91.5973C74.5457 93.042 75.1124 94.4295 76.1251 95.4598L77.5901 96.9723L99.1301 118.51V114.21L82.0676 97.1498H84.5676L99.1376 111.717V107.902L88.3876 97.1523H90.8876L99.1501 105.402C99.1639 103.39 98.6289 101.411 97.6026 99.6798C96.5512 97.9294 95.0644 96.4811 93.2869 95.4761C91.5095 94.471 89.502 93.9435 87.4601 93.9448H79.9676C79.4544 93.9123 78.9657 93.7135 78.5756 93.3783C78.1856 93.0432 77.9154 92.59 77.806 92.0875C77.6966 91.585 77.754 91.0605 77.9695 90.5936C78.185 90.1266 78.5468 89.7426 79.0001 89.4998C79.3363 89.3277 79.71 89.2418 80.0876 89.2498H82.4726C83.7463 89.2573 84.9717 88.7632 85.884 87.8743C86.7963 86.9854 87.322 85.7732 87.3476 84.4998C87.3536 83.8462 87.2254 83.1983 86.9708 82.5962C86.7162 81.9942 86.3407 81.4508 85.8676 80.9998L90.5801 79.6748H80.9726C80.6309 79.6747 80.2975 79.7797 80.0175 79.9756C79.7375 80.1715 79.5246 80.4487 79.4076 80.7698L67.9326 82.8448H82.5676C82.7881 82.8453 83.0061 82.8911 83.2082 82.9792C83.4103 83.0673 83.5922 83.196 83.7426 83.3572C83.8931 83.5184 84.0088 83.7087 84.0828 83.9164C84.1567 84.1241 84.1873 84.3448 84.1726 84.5648C84.1355 84.9783 83.9436 85.3625 83.6354 85.6406C83.3271 85.9188 82.9252 86.0702 82.5101 86.0648H80.0801C78.6126 86.0655 77.2054 86.6489 76.1679 87.6869C75.1304 88.7248 74.5476 90.1323 74.5476 91.5998V91.5973ZM82.9376 81.7923H81.0276V80.7348H82.9376V81.7923Z" fill="white"/>
<path d="M115.945 113.02V105.875L114.36 107.463V112.363L111.11 115.613V110.713L109.525 112.298V117.2L100.01 126.713L90.4999 117.195V112.33L88.9149 110.75V115.613L85.6649 112.363V107.5L84.0774 105.912V113.02L88.9099 117.85V143.062H84.0549V144.648H90.4999V119.438L98.8924 127.83L94.7024 132.023L100.017 137.33L105.327 132.023L101.135 127.83L109.53 119.438V144.648H115.945V143.062H111.115V117.85L115.945 113.02ZM103.085 132.02L100.017 135.087L96.9449 132.018L100.015 128.947L103.085 132.02Z" fill="#F7B5CD"/>
<path d="M90.0575 61.1201H86.8425V72.2576H90.0575V61.1201Z" fill="#F7B5CD"/>
<path d="M80.72 61.1201V61.1251L80.715 61.1201L76.255 65.5801L71.8 61.1251V61.1201H71.7975H71.795H68.5825V72.2601H71.8V65.4701L76.255 69.9251L80.72 65.4601V72.2601H83.935V61.1201H80.72Z" fill="#F7B5CD"/>
<path d="M102.285 61.1201H97.715L92.23 72.2501H95.65L97.15 69.2251L100 72.0926L102.857 69.2351L104.357 72.2601H107.777L102.285 61.1201ZM100 68.4426L98.345 66.7876L100 63.4251L101.655 66.7876L100 68.4426Z" fill="#F7B5CD"/>
<path d="M131.415 61.1201H128.2V72.2576H131.415V61.1201Z" fill="#F7B5CD"/>
<path d="M122.077 61.1201V61.1251L122.072 61.1201L117.612 65.5801L113.157 61.1251V61.1201H113.155H113.152H109.94V72.2601H113.157V65.4701L117.612 69.9251L122.077 65.4601V72.2601H125.292V61.1201H122.077Z" fill="#F7B5CD"/>
<path d="M39.1476 143.135C38.2008 143.702 37.0928 143.94 35.9965 143.812C34.9001 143.684 33.877 143.197 33.0868 142.426C32.2965 141.655 31.7834 140.645 31.6275 139.552C31.4716 138.459 31.6817 137.346 32.2251 136.385L34.0826 137.442C33.752 137.992 33.6161 138.637 33.6966 139.273C33.777 139.91 34.0693 140.501 34.5263 140.951C34.9833 141.401 35.5785 141.684 36.216 141.755C36.8535 141.826 37.4964 141.68 38.041 141.341C38.5856 141.002 39.0004 140.49 39.2186 139.887C39.4368 139.284 39.4456 138.625 39.2438 138.016C39.0419 137.407 38.6411 136.884 38.1058 136.53C37.5704 136.177 36.9318 136.014 36.2926 136.067L36.1676 133.932C37.2681 133.874 38.3571 134.18 39.2655 134.804C40.1738 135.428 40.8505 136.335 41.1904 137.383C41.5302 138.432 41.5142 139.563 41.1448 140.601C40.7753 141.64 40.0732 142.527 39.1476 143.125V143.135Z" fill="white"/>
<path d="M27.545 132.18L26.75 130.2L33.695 127.39L32.215 123.73L34.1075 122.965L36.39 128.602L27.545 132.18Z" fill="white"/>
<path d="M29.4449 120.875L23.8424 122.21L23.3424 120.132L28.9724 118.792C30.0824 118.527 30.5924 117.662 30.3474 116.63C30.1024 115.597 29.2549 115.055 28.1449 115.32L22.5149 116.66L22.0149 114.582L27.6299 113.25C29.9399 112.7 31.8349 113.932 32.3649 116.152C32.8949 118.372 31.7499 120.325 29.4449 120.875Z" fill="white"/>
<path d="M21.1099 107.87L20.9049 104.293C20.8626 103.543 21.1195 102.808 21.6192 102.247C22.1189 101.687 22.8205 101.348 23.5699 101.305C23.8745 101.285 24.1801 101.326 24.4681 101.428C24.756 101.529 25.0203 101.688 25.2449 101.895C25.4318 101.469 25.7346 101.105 26.1187 100.843C26.5028 100.58 26.9528 100.431 27.4174 100.413C27.7928 100.393 28.1683 100.448 28.5219 100.576C28.8755 100.703 29.2 100.9 29.4763 101.155C29.7526 101.41 29.9751 101.718 30.1307 102.06C30.2863 102.402 30.3719 102.772 30.3824 103.148L30.6324 107.328L21.1099 107.87ZM24.7649 104.315C24.7624 104.187 24.7343 104.062 24.6824 103.945C24.6304 103.828 24.5556 103.723 24.4625 103.636C24.3693 103.548 24.2596 103.48 24.1398 103.436C24.02 103.392 23.8925 103.372 23.7649 103.378C23.6358 103.385 23.5096 103.418 23.3936 103.476C23.2776 103.533 23.1742 103.612 23.0894 103.71C23.0046 103.807 22.9402 103.921 22.8999 104.044C22.8597 104.167 22.8443 104.296 22.8549 104.425L22.9249 105.63L24.8274 105.52L24.7649 104.315ZM28.4374 103.433C28.437 103.302 28.4099 103.173 28.3578 103.054C28.3057 102.935 28.2297 102.827 28.1345 102.738C28.0393 102.649 27.9269 102.58 27.8042 102.537C27.6815 102.493 27.5511 102.474 27.421 102.483C27.291 102.491 27.164 102.526 27.048 102.585C26.9319 102.645 26.8292 102.727 26.7462 102.827C26.6632 102.928 26.6016 103.044 26.5653 103.169C26.5289 103.295 26.5186 103.426 26.5349 103.555L26.6399 105.418L28.5424 105.308L28.4374 103.433Z" fill="white"/>
<path d="M21.8474 86.9726L22.2224 84.8701L31.6074 86.5551L31.2299 88.6551L21.8474 86.9726Z" fill="white"/>
<path d="M35.0001 74.7326L27.9101 77.1776L33.4726 79.1176L32.7701 81.1326L23.7676 78.0001L24.3726 76.2501L31.4476 73.8126L25.8976 71.8776L26.6051 69.8501L35.6051 72.9876L35.0001 74.7326Z" fill="white"/>
<path d="M32.1775 63.1376L30.985 65.2501L29.21 64.2501L32.66 58.1226L34.435 59.1226L33.2325 61.2626L39.7575 64.9376L38.7025 66.8076L32.1775 63.1376Z" fill="white"/>
<path d="M35.895 53.3774L39.62 48.6274L41.225 49.8774L38.815 52.9499L40.1575 54.0024L42.07 51.5624L43.675 52.8124L41.7625 55.2524L43.105 56.3049L45.5125 53.2499L47.1175 54.4999L43.3925 59.2499L35.895 53.3774Z" fill="white"/>
<path d="M44.6074 43.275L47.4074 40.775C48.7474 39.575 50.4674 39.775 51.5224 40.945C52.3474 41.865 52.3849 42.895 51.7724 44.02L57.0824 44.9025L55.1749 46.6125L50.1899 45.795L49.9399 46.0275L52.5624 48.9575L50.9724 50.3825L44.6074 43.275ZM49.7499 43.75C50.2199 43.33 50.3174 42.75 49.9499 42.345C49.5824 41.94 49.0024 41.97 48.5324 42.39L47.4999 43.31L48.7174 44.6725L49.7499 43.75Z" fill="white"/>
<path d="M66.23 38.9797L59.2125 36.3297L62.25 41.3772L60.4225 42.4772L55.5 34.3147L57.075 33.3672L64.075 36.0122L61.04 30.9772L62.88 29.8672L67.7975 38.0297L66.23 38.9797Z" fill="white"/>
<path d="M72.3999 25.7248L74.2199 25.0723L81.2749 32.6673L79.1774 33.4173L77.7024 31.8073L73.9999 33.1398L73.8824 35.3198L71.7849 36.0698L72.3999 25.7248ZM76.3449 30.3273L74.2524 28.0273L74.0974 31.1323L76.3449 30.3273Z" fill="white"/>
<path d="M84.205 27.0904C84.0585 25.9981 84.277 24.888 84.8265 23.9327C85.3761 22.9774 86.2258 22.2304 87.2436 21.8079C88.2615 21.3853 89.3904 21.3109 90.4549 21.5962C91.5194 21.8815 92.4599 22.5105 93.13 23.3854L91.4275 24.6754C91.0529 24.1539 90.5137 23.7738 89.8967 23.596C89.2798 23.4182 88.621 23.4532 88.0263 23.6953C87.4317 23.9375 86.9358 24.3726 86.6185 24.9308C86.3012 25.489 86.181 26.1376 86.2771 26.7725C86.3733 27.4073 86.6802 27.9913 87.1486 28.4304C87.6169 28.8696 88.2194 29.1384 88.8591 29.1936C89.4988 29.2488 90.1384 29.0871 90.675 28.7346C91.2117 28.3821 91.6141 27.8593 91.8175 27.2504L93.8175 27.9754C93.4376 29.0097 92.7266 29.8896 91.795 30.4783C90.8634 31.0669 89.7635 31.3313 88.6662 31.2304C87.5689 31.1295 86.5356 30.6689 85.7271 29.9202C84.9185 29.1715 84.3799 28.1767 84.195 27.0904H84.205Z" fill="white"/>
<path d="M99.0001 20.7876H101.133V30.3176H98.9976L99.0001 20.7876Z" fill="white"/>
<path d="M106.315 25.6575C106.458 24.6935 106.884 23.7936 107.538 23.0716C108.193 22.3497 109.047 21.8382 109.993 21.602C110.938 21.3657 111.933 21.4153 112.85 21.7444C113.767 22.0736 114.566 22.6674 115.146 23.4509C115.726 24.2344 116.06 25.1722 116.106 26.1457C116.152 27.1191 115.909 28.0845 115.406 28.9195C114.904 29.7546 114.165 30.4217 113.283 30.8366C112.401 31.2514 111.416 31.3953 110.452 31.25C109.163 31.055 108.004 30.3569 107.228 29.3086C106.453 28.2604 106.124 26.9475 106.315 25.6575ZM113.92 26.8025C113.984 26.2619 113.887 25.7143 113.642 25.2282C113.397 24.742 113.014 24.3388 112.541 24.0689C112.069 23.7989 111.527 23.6741 110.984 23.7101C110.44 23.7461 109.92 23.9412 109.487 24.2711C109.053 24.6011 108.727 25.0512 108.548 25.5654C108.369 26.0796 108.346 26.6352 108.48 27.1627C108.615 27.6902 108.902 28.1664 109.306 28.5318C109.709 28.8972 110.212 29.1357 110.75 29.2175C111.49 29.3157 112.239 29.1168 112.833 28.6642C113.427 28.2117 113.818 27.5423 113.92 26.8025Z" fill="white"/>
<path d="M125.72 35.17L123.318 28.06L121.343 33.6125L119.33 32.8975L122.528 23.915L124.25 24.5325L126.643 31.625L128.615 26.085L130.638 26.805L127.443 35.785L125.72 35.17Z" fill="white"/>
<path d="M139.607 31.3828L141.267 32.3703L139.905 42.6453L138 41.5003L138.302 39.3378L134.912 37.3228L133.162 38.6203L131.232 37.5003L139.607 31.3828ZM138.57 37.3553L139.012 34.2753L136.512 36.1353L138.57 37.3553Z" fill="white"/>
<path d="M149.417 38.0273L151.04 39.4148L146.17 45.1073L149.17 47.6748L147.842 49.2248L143.22 45.2698L149.417 38.0273Z" fill="white"/>
<path d="M162.45 51.1274L164.33 53.7749C164.703 54.2847 164.972 54.8636 165.119 55.4781C165.267 56.0925 165.291 56.7302 165.19 57.354C165.088 57.9777 164.864 58.5751 164.53 59.1114C164.196 59.6477 163.758 60.1121 163.243 60.4777C162.727 60.8433 162.144 61.1026 161.528 61.2408C160.911 61.3789 160.273 61.393 159.651 61.2822C159.029 61.1714 158.435 60.938 157.904 60.5956C157.373 60.2531 156.915 59.8084 156.557 59.2874L154.68 56.6374L162.45 51.1274ZM158.157 58.1549C159.087 59.4674 160.755 59.6174 162.005 58.7324C163.255 57.8474 163.662 56.2324 162.732 54.9099L162.087 53.9999L157.512 57.2499L158.157 58.1549Z" fill="white"/>
<path d="M169.973 62.73L172.625 68.1575L170.79 69.0525L169.075 65.5525L167.543 66.3025L168.905 69.0875L167.073 69.985L165.71 67.1975L164.178 67.9475L165.893 71.4475L164.06 72.345L161.405 66.9175L169.973 62.73Z" fill="white"/>
<path d="M176.767 80.2124L178.035 85.9424L176.035 86.3824L175.235 82.7499L173.557 83.1224L174.187 85.9674L172.187 86.4074L171.557 83.5624L167.915 84.3699L167.452 82.2849L176.767 80.2124Z" fill="white"/>
<path d="M173.075 91.5L178.825 91.145L178.957 93.275L173.182 93.6325C172.042 93.7025 171.39 94.47 171.455 95.5275C171.52 96.585 172.262 97.265 173.4 97.195L179.177 96.84L179.307 98.97L173.557 99.325C171.187 99.4725 169.53 97.9325 169.39 95.655C169.25 93.3775 170.702 91.6475 173.075 91.5ZM182 95.175L182.137 97.3975L179.93 95.855L179.837 94.3675L182 95.175Z" fill="white"/>
<path d="M176.92 106.327L177.15 103.907L179.18 104.1L178.515 111.1L176.485 110.905L176.717 108.46L169.262 107.75L169.465 105.612L176.92 106.327Z" fill="white"/>
<path d="M177.545 116.535L176.657 120C176.471 120.728 176.004 121.352 175.358 121.735C174.712 122.118 173.94 122.228 173.212 122.043C172.916 121.969 172.638 121.837 172.395 121.653C172.152 121.469 171.948 121.237 171.797 120.973C171.488 121.319 171.089 121.573 170.644 121.706C170.199 121.838 169.726 121.844 169.277 121.723C168.914 121.629 168.572 121.463 168.274 121.235C167.975 121.007 167.725 120.721 167.539 120.395C167.352 120.068 167.233 119.708 167.188 119.335C167.143 118.962 167.174 118.584 167.277 118.223L168.315 114.165L177.545 116.535ZM169.217 118.55C169.181 118.673 169.17 118.802 169.185 118.93C169.199 119.057 169.239 119.181 169.302 119.292C169.366 119.404 169.451 119.502 169.552 119.58C169.654 119.658 169.771 119.715 169.895 119.748C170.021 119.777 170.152 119.781 170.28 119.759C170.408 119.738 170.53 119.69 170.64 119.62C170.749 119.551 170.843 119.459 170.917 119.352C170.99 119.245 171.041 119.125 171.067 118.998L171.53 117.19L169.682 116.718L169.217 118.55ZM172.985 118.82C172.949 118.942 172.937 119.07 172.951 119.197C172.965 119.323 173.004 119.446 173.066 119.557C173.128 119.668 173.212 119.766 173.312 119.845C173.412 119.924 173.527 119.981 173.65 120.015C173.775 120.047 173.905 120.053 174.033 120.034C174.16 120.014 174.283 119.97 174.393 119.902C174.503 119.835 174.599 119.746 174.674 119.642C174.75 119.537 174.803 119.418 174.832 119.293L175.13 118.12L173.285 117.65L172.985 118.82Z" fill="white"/>
<path d="M169.698 126.675C170.582 127.083 171.326 127.744 171.834 128.575C172.343 129.406 172.594 130.369 172.555 131.342C172.516 132.315 172.19 133.255 171.617 134.043C171.044 134.831 170.251 135.431 169.337 135.768C168.422 136.105 167.429 136.163 166.482 135.935C165.535 135.707 164.677 135.204 164.016 134.488C163.355 133.772 162.921 132.877 162.769 131.915C162.617 130.952 162.754 129.967 163.163 129.082C163.71 127.897 164.706 126.977 165.931 126.525C167.157 126.074 168.512 126.128 169.698 126.675ZM166.475 133.657C166.977 133.87 167.53 133.93 168.065 133.83C168.601 133.73 169.095 133.475 169.487 133.095C169.878 132.716 170.149 132.23 170.265 131.698C170.382 131.166 170.339 130.611 170.142 130.103C169.945 129.595 169.603 129.156 169.158 128.841C168.714 128.527 168.186 128.35 167.641 128.333C167.097 128.317 166.559 128.461 166.096 128.748C165.633 129.035 165.265 129.452 165.038 129.947C164.74 130.63 164.724 131.403 164.993 132.098C165.262 132.793 165.795 133.353 166.475 133.657Z" fill="white"/>
<path d="M166.882 142.54L165.675 144.29L159.5 140.065L157.267 143.315L155.587 142.162L159.025 137.15L166.882 142.54Z" fill="white"/>
<path d="M77.0224 169.812L75.4074 175.587L73.3799 174.895L75.9699 165.67L77.8524 166.3L79.5874 171L83.5149 167.887L85.4499 168.33L82.8574 177.58L80.7674 177.08L82.3874 171.297L78.6699 174.275L77.0224 169.812Z" fill="white"/>
<path d="M91.5475 172.898L91.1275 178.898L89 178.61L89.675 169.04L91.6375 169.29L94.2925 173.555L97.5425 169.68L99.505 169.715L98.8325 179.308L96.6825 179.283L97.1025 173.283L94.0625 176.93L91.5475 172.898Z" fill="white"/>
<path d="M108.278 175.5L106.183 179.09L103.775 179.247L106.808 173.997L102.883 169.642L105.43 169.462L107.888 172.212L109.638 168.99L112.173 168.572L109.35 173.705L113.5 178.137L111.135 178.53L108.278 175.5Z" fill="white"/>
<path d="M121.022 172.912L119.565 176.812L117.22 177.385L119.317 171.677L114.692 168.045L117.177 167.437L120.075 169.732L121.267 166.232L123.682 165.39L121.777 170.947L126.62 174.617L124.337 175.397L121.022 172.912Z" fill="white"/>
</svg>
