<svg width="200" height="200" viewBox="0 0 200 200" fill="none" xmlns="http://www.w3.org/2000/svg">
<mask id="mask0_8997_1583" style="mask-type:luminance" maskUnits="userSpaceOnUse" x="21" y="0" width="158" height="200">
<path d="M178.678 0H21.3225V200H178.678V0Z" fill="white"/>
</mask>
<g mask="url(#mask0_8997_1583)">
<mask id="mask1_8997_1583" style="mask-type:luminance" maskUnits="userSpaceOnUse" x="21" y="0" width="158" height="200">
<path d="M178.678 0.00244141H21.3225V200H178.678V0.00244141Z" fill="white"/>
</mask>
<g mask="url(#mask1_8997_1583)">
<path d="M100 200C51.75 174.79 21.815 106.188 21.3225 49.2775C37.75 45.5 70.4025 38.75 100 0C129.598 38.75 162.25 45.5 178.678 49.28C178.178 106.188 148.25 174.78 100 200Z" fill="#FFCE00"/>
<path d="M31.5452 56.7998C32.7552 81.6923 39.7952 108.757 51.3277 132.05C63.8627 157.362 81.0477 177.05 100 188.2C118.948 177.06 136.135 157.362 148.668 132.05C160.203 108.75 167.25 81.6898 168.45 56.7998C152.22 52.8248 125.283 44.1923 100 15.0923C74.7202 44.1923 47.7777 52.8248 31.5452 56.7998Z" fill="#004987"/>
<path d="M36.5376 60.3025C38.0751 83.7775 44.6851 108.382 55.3626 129.945C66.8451 153.132 82.6476 171.637 100 182.412C117.35 171.635 133.15 153.132 144.638 129.945C155.308 108.382 161.923 83.7725 163.463 60.3025C146.52 55.875 122.77 46.8025 100 21.8975C77.2201 46.805 53.4701 55.875 36.5376 60.3025Z" fill="#15284B"/>
<path d="M97.7776 10.79L100 8.23V0C70.4001 38.75 37.7501 45.5 21.3176 49.2775L26.7926 53.3025L28.6526 52.85C45.8276 48.645 74.8876 39.055 97.7726 10.7925" fill="#EDAA00"/>
<path d="M178.588 49.25L172.97 53.2725L172.88 55.245C172.783 80.8875 163.98 111.265 152.268 134.91C139.61 160.468 120.97 180.973 101.5 192.42L100 193.298V200C148.25 174.79 178.18 106.188 178.675 49.2775C178.646 49.2669 178.616 49.2585 178.585 49.2525" fill="#EDAA00"/>
<path d="M92.8776 121.352H67.2201C65.5421 121.342 63.9358 120.67 62.7495 119.484C61.5632 118.297 60.8924 116.69 60.8826 115.012V76.8848H70.3826V112.46H92.8826L92.8776 121.352Z" fill="#DADBE1"/>
<path d="M62.6152 78V113.933C62.6263 115.03 63.0665 116.079 63.8418 116.856C64.617 117.632 65.6655 118.074 66.7627 118.088H90.2202V113.573H67.7202V78H62.6152Z" fill="white"/>
<path d="M97.1401 121.367H106.87L110.678 111.64H125.428L122.25 103.5H113.933L119.87 88.4299L132.555 121.36H142.645C142.645 121.36 127.6 84.2724 127.025 82.7149C125.843 79.5149 123.988 76.8999 119.865 76.8999H119.78C115.663 76.8999 113.95 79.4924 112.78 82.6949L97.1401 121.367Z" fill="#DADBE1"/>
<path d="M99.8501 118.102H104.77C105.553 116.102 108.575 108.352 108.575 108.352H122.548C121.868 106.602 121.495 105.65 121.088 104.602H110.038L119.355 80.775L130.3 108.865C130.318 108.902 132.653 115.237 133.7 118.097H139.058C136.97 112.975 125.95 85.5 124.77 82.62C123.59 79.74 122.22 78.2775 119.97 78.2775H119.86C116.558 78.22 115.375 79.7175 114.2 82.6125C114.2 82.6125 101.5 114.03 99.8551 118.112" fill="white"/>
<path d="M147.293 137C133.013 134.25 116.953 132.712 99.9701 132.712C82.2051 132.712 65.4701 134.392 50.7026 137.372C44.4151 138.637 38.7751 139.892 34.9526 141.122C38.5826 146.795 42.7501 153.387 46.2501 158.75C49.7501 157.882 53.4626 157.065 57.2876 156.292C70.0601 153.73 84.5776 152.27 99.9776 152.27C114.7 152.27 128.623 153.602 140.993 155.972C145.528 156.845 149.82 157.722 153.788 158.617C157.428 153.065 161.45 146.727 165.078 141.195C160.89 139.922 154.643 138.395 147.308 136.99" fill="#FFCE00"/>
<path d="M54.3751 144.697C54.3751 146.405 55.0101 147.585 56.2601 148.197C57.5101 148.81 58.6826 148.72 60.0926 148.527L65.9026 147.777V142.052L60.6801 142.667V144.645C62.0626 144.53 62.3226 144.517 62.9301 144.43V146L60.0876 146.362C58.6851 146.55 57.7476 146.247 57.7476 144.172C57.7476 141.77 58.8701 141.29 60.0876 141.127L65.8976 140.377V138.25L60.0876 139C56.2476 139.515 54.3701 141.377 54.3701 144.687M76.0826 137.187L70.9701 147.132L74.2851 146.855C74.2851 146.855 74.7851 145.75 74.9426 145.387L80.1301 144.955C80.2976 145.29 80.8226 146.312 80.8226 146.312L84.2501 146.02L79.0851 136.935L76.0826 137.187ZM75.9451 142.977L77.5001 139.63C77.9251 140.445 78.7851 142.11 79.1026 142.712L75.9451 142.977ZM92.1451 143.182C91.8476 142.932 91.8226 142.447 91.8226 141.752V136.217L88.7276 136.355V141.962C88.7276 143.227 88.9026 144.062 89.8526 144.8C90.9826 145.697 92.2326 145.712 93.8776 145.632L97.2501 145.482V143.435L94.0776 143.585C93.0301 143.635 92.5276 143.527 92.1451 143.185M106.415 136.22L101.285 145.582L104.613 145.687L105.298 144.247L110.423 144.402C110.585 144.75 111.133 145.902 111.133 145.902L114.583 146.012L109.42 136.327L106.415 136.22ZM106.265 141.97C106.57 141.35 107.423 139.625 107.835 138.802C108.26 139.66 109.148 141.437 109.463 142.085L106.265 141.97ZM129.833 137.8L126.22 137.5C126.22 137.5 124.528 139.405 124.075 139.917C123.623 139.322 121.915 137.127 121.915 137.127L118.25 136.822C118.25 136.822 122.095 141.605 122.353 141.915C122.103 142.197 118.103 146.327 118.103 146.327L121.818 146.637C121.818 146.637 123.685 144.517 124.163 143.967C124.61 144.595 126.36 147.03 126.36 147.03L130.095 147.352L125.925 142.102C126.175 141.837 129.828 137.8 129.828 137.8M143.14 139.66C143.14 139.66 140.97 141.977 140.47 142.485C139.998 141.832 137.865 138.922 137.865 138.922L134.298 138.422L138.97 144.452V148.59L142.073 149.03V144.895C142.2 144.772 146.79 140.185 146.79 140.185L143.14 139.66Z" fill="#15284B"/>
<path d="M158.61 143.165C155.54 148.01 151.268 153.915 151.268 153.915C147.483 153.165 143.383 152.443 139.068 151.718C127.258 149.718 113.97 148.625 99.9402 148.625C85.2627 148.625 71.4152 149.835 59.2177 151.98C55.5727 152.625 52.0377 153.31 48.6927 154.03L46.2202 158.75C48.8752 158.093 53.0377 157.188 54.4702 156.865C54.4952 156.865 57.5477 161.455 57.6127 161.365C57.7102 161.218 59.7902 159.143 61.0577 158.018C62.3185 156.913 63.6344 155.874 65.0002 154.903C75.8227 153.428 87.5852 152.26 99.9477 152.26C114.67 152.26 128.595 153.59 140.963 155.968C147.055 157.133 151.463 158.12 153.895 158.68C157.56 153.053 161.225 147.105 165.048 141.225L158.61 143.165Z" fill="#EDAA00"/>
<path d="M99.7626 30.1874C99.7689 38.1927 96.613 45.8763 90.9818 51.5661C85.3506 57.2558 77.6999 60.491 69.6951 60.5674C69.6186 60.5744 69.5475 60.6096 69.4958 60.6663C69.444 60.723 69.4153 60.7969 69.4153 60.8737C69.4153 60.9505 69.444 61.0244 69.4958 61.0811C69.5475 61.1378 69.6186 61.173 69.6951 61.1799C77.6899 61.2466 85.334 64.4714 90.9609 70.1511C96.5877 75.8309 99.7408 83.5049 99.7326 91.4999C99.7344 91.5495 99.7478 91.5978 99.7717 91.6413C99.7955 91.6847 99.8293 91.7219 99.8701 91.7499C99.9139 91.7783 99.9644 91.7948 100.017 91.7979C100.069 91.8009 100.121 91.7905 100.168 91.7674L100.238 91.7349C100.289 91.709 100.333 91.6695 100.364 91.6206C100.395 91.5716 100.411 91.5152 100.413 91.4574C100.408 83.4529 103.569 75.7713 109.205 70.0874C114.841 64.4035 122.496 61.1783 130.5 61.1149C130.539 61.1156 130.579 61.1085 130.615 61.094C130.652 61.0796 130.685 61.058 130.714 61.0306C130.742 61.0032 130.765 60.9705 130.78 60.9344C130.796 60.8982 130.804 60.8593 130.805 60.8199C130.807 60.7786 130.801 60.7371 130.787 60.6982C130.773 60.6593 130.751 60.6237 130.722 60.5937C130.693 60.5637 130.659 60.5399 130.621 60.5238C130.583 60.5076 130.542 60.4995 130.5 60.4999C122.498 60.4426 114.842 57.2263 109.2 51.5514C103.558 45.8764 100.386 38.2024 100.375 30.1999C100.379 30.1574 100.374 30.1145 100.36 30.074C100.347 30.0336 100.325 29.9964 100.296 29.9648C100.267 29.9333 100.232 29.9081 100.193 29.8909C100.154 29.8736 100.112 29.8647 100.069 29.8647C100.026 29.8647 99.9839 29.8736 99.9448 29.8909C99.9057 29.9081 99.8706 29.9333 99.8418 29.9648C99.813 29.9964 99.7911 30.0336 99.7774 30.074C99.7638 30.1145 99.7587 30.1574 99.7626 30.1999" fill="#004987"/>
<path d="M100 40.5298C100.013 40.5304 100.026 40.5337 100.038 40.5393C100.05 40.5449 100.061 40.5528 100.069 40.5626C100.078 40.5723 100.085 40.5837 100.09 40.5961C100.094 40.6085 100.096 40.6216 100.095 40.6348C100.491 45.8176 102.711 50.6924 106.362 54.393C110.012 58.0936 114.856 60.3804 120.033 60.8473C120.046 60.8466 120.059 60.8486 120.072 60.8532C120.084 60.8578 120.096 60.8648 120.106 60.8739C120.116 60.883 120.123 60.8939 120.129 60.9061C120.134 60.9183 120.137 60.9314 120.138 60.9448C120.138 61.0048 120.068 61.0348 120.023 61.0348C114.858 61.4957 110.023 63.7689 106.373 67.4521C102.723 71.1354 100.494 75.991 100.08 81.1598C100.08 81.1873 100.06 81.2573 99.9977 81.2573C99.9352 81.2573 99.9152 81.1873 99.9127 81.1598C99.4995 75.9916 97.2713 71.1363 93.6224 67.4531C89.9735 63.7699 85.1392 61.4963 79.9752 61.0348C79.9302 61.0348 79.8577 61.0073 79.8577 60.9448C79.8577 60.8823 79.9102 60.8598 79.9627 60.8473C85.1396 60.3804 89.9835 58.0936 93.6337 54.393C97.284 50.6924 99.5043 45.8176 99.9002 40.6348C99.8991 40.6214 99.9009 40.6079 99.9053 40.5952C99.9098 40.5825 99.9168 40.5708 99.9259 40.5609C99.9351 40.5511 99.9462 40.5432 99.9585 40.5379C99.9709 40.5325 99.9842 40.5297 99.9977 40.5298" fill="#FFCE00"/>
<path d="M100 40.5298C99.9552 40.5298 99.9102 40.5623 99.9027 40.6348C99.5071 45.8186 97.2863 50.6942 93.6349 54.395C89.9836 58.0958 85.1382 60.382 79.9602 60.8473C79.9469 60.8466 79.9335 60.8486 79.921 60.8532C79.9084 60.8578 79.8969 60.8648 79.8871 60.8739C79.8774 60.883 79.8695 60.8939 79.864 60.9061C79.8585 60.9183 79.8555 60.9314 79.8552 60.9448H100V40.5298Z" fill="#EDAA00"/>
<path d="M100 81.25C100.06 81.25 100.078 81.18 100.083 81.1525C100.497 75.9838 102.726 71.1281 106.375 67.4449C110.025 63.7616 114.86 61.4884 120.025 61.0275C120.07 61.0275 120.14 61 120.14 60.9375H100V81.25Z" fill="#EDAA00"/>
<path d="M113.398 60.8723C106.055 60.8073 100.08 54.8948 100.08 47.6898C100.082 47.6805 100.082 47.6709 100.08 47.6615C100.078 47.6522 100.074 47.6433 100.069 47.6354C100.064 47.6275 100.057 47.6208 100.049 47.6155C100.041 47.6103 100.032 47.6066 100.023 47.6048C100.013 47.603 100.004 47.6031 99.9942 47.605C99.9849 47.6069 99.976 47.6106 99.9681 47.616C99.9602 47.6213 99.9534 47.6282 99.9482 47.6361C99.9429 47.6441 99.9393 47.653 99.9375 47.6623C99.9351 47.6713 99.9351 47.6808 99.9375 47.6898C99.9337 51.1854 98.5486 54.5378 96.0842 57.0168C93.6197 59.4958 90.2755 60.9004 86.78 60.9248C86.761 60.9255 86.7429 60.9333 86.7294 60.9468C86.716 60.9602 86.7081 60.9783 86.7075 60.9973C86.7088 61.0155 86.7171 61.0324 86.7306 61.0445C86.7442 61.0566 86.7619 61.063 86.78 61.0623C90.2847 61.1135 93.629 62.5393 96.0924 65.0327C98.5559 67.526 99.9412 70.8873 99.95 74.3923C99.9497 74.4006 99.951 74.4087 99.9538 74.4165C99.9566 74.4242 99.961 74.4312 99.9665 74.4373C99.9721 74.4433 99.9788 74.4482 99.9863 74.4516C99.9938 74.4551 100.002 74.457 100.01 74.4573C100.019 74.458 100.028 74.4569 100.036 74.4542C100.045 74.4514 100.053 74.447 100.059 74.4412C100.066 74.4354 100.072 74.4283 100.076 74.4203C100.08 74.4124 100.082 74.4037 100.083 74.3948C100.099 70.8642 101.505 67.482 103.995 64.9788C106.485 62.4757 109.86 61.0528 113.39 61.0173C113.408 61.0162 113.425 61.0084 113.438 60.9955C113.451 60.9826 113.459 60.9655 113.46 60.9473C113.46 60.9285 113.453 60.9105 113.44 60.8969C113.427 60.8834 113.409 60.8755 113.39 60.8748" fill="white"/>
</g>
</g>
</svg>
