<svg width="200" height="200" viewBox="0 0 200 200" fill="none" xmlns="http://www.w3.org/2000/svg">
<path d="M100 15.0224C116.803 15.0299 133.227 20.0176 147.197 29.3552C161.167 38.6928 172.055 51.9614 178.488 67.4848C184.92 83.0081 186.607 100.09 183.335 116.571C180.064 133.053 171.981 148.195 160.107 160.085C152.233 168.004 142.866 174.282 132.548 178.554C122.23 182.827 111.167 185.01 100 184.977C77.2925 184.977 55.9525 176.152 39.915 160.13C23.8775 144.107 15.0225 122.75 15.0225 99.9999C15.0189 88.8395 17.2144 77.7877 21.4837 67.4761C25.7529 57.1646 32.0122 47.7953 39.9038 39.9037C47.7954 32.0121 57.1647 25.7528 67.4762 21.4836C77.7878 17.2143 88.8396 15.0188 100 15.0224ZM100 11.1449C76.23 11.1449 53.9025 20.3949 37.125 37.1974C28.8611 45.4307 22.3104 55.2198 17.8512 65.9992C13.392 76.7786 11.1127 88.3346 11.145 99.9999C11.145 123.775 20.395 146.105 37.175 162.872C53.955 179.64 76.25 188.855 100 188.855C117.575 188.852 134.755 183.639 149.367 173.873C163.979 164.107 175.368 150.228 182.092 133.991C188.817 117.753 190.576 99.8858 187.147 82.6485C183.718 65.4111 175.255 49.5776 162.827 37.1499C154.594 28.8775 144.802 22.3198 134.018 17.8561C123.234 13.3924 111.671 11.1114 100 11.1449Z" fill="#0A2240"/>
<path d="M100 15.0225C116.803 15.03 133.227 20.0176 147.197 29.3553C161.167 38.6929 172.055 51.9615 178.488 67.4848C184.92 83.0081 186.607 100.09 183.335 116.571C180.064 133.053 171.981 148.195 160.107 160.085C152.233 168.004 142.866 174.282 132.548 178.555C122.23 182.827 111.167 185.011 100 184.977C77.2925 184.977 55.9525 176.152 39.915 160.13C23.8775 144.107 15.0225 122.75 15.0225 100C15.0189 88.8395 17.2144 77.7878 21.4836 67.4762C25.7529 57.1646 32.0121 47.7953 39.9037 39.9037C47.7953 32.0121 57.1646 25.7529 67.4762 21.4836C77.7878 17.2144 88.8395 15.0189 100 15.0225Z" fill="white"/>
<path d="M31.5825 94.4678C29.5825 94.4678 28.12 95.8178 28.12 97.6953C28.12 99.5728 29.53 100.75 31.23 100.75C31.6365 100.765 32.0406 100.682 32.4082 100.508C32.7759 100.334 33.0963 100.074 33.3425 99.7503C33.225 101.393 32.11 102.33 30.4675 102.33C29.8969 102.313 29.3366 102.173 28.825 101.92L28.355 103.5C28.825 103.793 29.705 103.97 30.4675 103.97C33.5775 103.97 35.2175 102.033 35.2175 98.8053C35.22 95.8778 33.5775 94.4678 31.5825 94.4678ZM31.525 99.1053C30.645 99.1053 29.94 98.5178 29.94 97.6378C29.9563 97.2286 30.1302 96.8416 30.4255 96.5579C30.7207 96.2742 31.1143 96.1157 31.5237 96.1157C31.9332 96.1157 32.3268 96.2742 32.622 96.5579C32.9173 96.8416 33.0912 97.2286 33.1075 97.6378C33.1011 97.8384 33.0549 98.0358 32.9717 98.2184C32.8884 98.4011 32.7698 98.5654 32.6226 98.7019C32.4754 98.8384 32.3026 98.9443 32.1142 99.0136C31.9258 99.0828 31.7255 99.114 31.525 99.1053Z" fill="#0A2240"/>
<path d="M20.845 96.4046V97.6946H23.0175V103.797H24.9525V94.7021H23.25C23.075 95.6421 22.135 96.4046 20.845 96.4046Z" fill="#0A2240"/>
<path d="M167 94.4678C165 94.4678 163.54 95.8178 163.54 97.6378C163.54 99.5153 164.948 100.688 166.65 100.688C167.588 100.688 168.4 100.278 168.763 99.7503C168.645 101.393 167.53 102.273 165.888 102.273C165.321 102.272 164.76 102.152 164.243 101.92L163.775 103.445C164.424 103.794 165.15 103.976 165.888 103.975C168.995 103.975 170.638 102.038 170.638 98.7528C170.648 95.8778 169 94.4678 167 94.4678ZM166.943 99.1053C166.739 99.1165 166.536 99.0847 166.345 99.0119C166.155 98.939 165.982 98.8269 165.838 98.6827C165.694 98.5385 165.583 98.3655 165.51 98.1751C165.437 97.9847 165.406 97.7812 165.418 97.5778C165.417 97.38 165.457 97.1842 165.534 97.0022C165.611 96.8201 165.724 96.6555 165.867 96.5184C166.009 96.3813 166.178 96.2745 166.363 96.2043C166.548 96.1342 166.745 96.1022 166.943 96.1103C167.823 96.1103 168.528 96.6978 168.528 97.5778C168.535 98.5178 167.83 99.1053 166.95 99.1053H166.943Z" fill="#0A2240"/>
<path d="M176.925 97.6951C176.503 97.6727 176.082 97.7578 175.702 97.9423C175.321 98.1268 174.994 98.4047 174.75 98.7501C174.925 97.0476 176.215 96.1076 177.75 96.1076C178.277 96.1213 178.796 96.2412 179.275 96.4601L179.803 94.8776C179.203 94.5781 178.537 94.4361 177.868 94.4651C174.868 94.4651 172.82 96.5201 172.82 99.8051C172.82 102.505 174.523 103.973 176.518 103.973C178.513 103.973 180.038 102.623 180.038 100.745C180.038 98.8676 178.75 97.6951 176.925 97.6951ZM176.515 102.33C176.31 102.338 176.105 102.305 175.913 102.232C175.721 102.159 175.546 102.048 175.398 101.905C175.25 101.763 175.132 101.592 175.052 101.403C174.971 101.214 174.93 101.011 174.93 100.805C174.93 99.8676 175.635 99.2801 176.515 99.2801C177.395 99.2801 178.098 99.8676 178.098 100.805C178.098 101.743 177.395 102.33 176.515 102.33Z" fill="#0A2240"/>
<path d="M76.06 160.598L69.84 167.053L70.72 158.133L68.49 157.075L67.61 169.163L69.665 170.16L78.1725 161.535L76.06 160.598Z" fill="#0A2240"/>
<path d="M56.1676 148.333L52.8826 145.333L45.1951 153.608L46.8401 155.133L49.7726 151.905L50.5951 152.728L49.3026 157.42L51.1226 159.063L52.4726 154.075C53.8226 154.723 55.3476 154.428 56.4726 153.313C57.8126 151.855 57.7501 149.86 56.1676 148.333ZM54.7501 151.795C54.1051 152.5 53.2251 152.558 52.3451 151.738L51.0526 150.563L53.2251 148.275L54.5151 149.448C55.3476 150.21 55.4051 151.15 54.7501 151.795Z" fill="#0A2240"/>
<path d="M54.525 161.652L60.3925 165.585L61.5675 163.882L57.5175 161.125L58.9275 159.012L62.6825 161.417L63.7375 159.775L60.04 157.37L61.45 155.257L65.5575 157.957L66.73 156.195L60.8625 152.265L54.525 161.652Z" fill="#0A2240"/>
<path d="M123.765 160.89L127.988 171.392L130.043 170.572L125.818 160.067L123.765 160.89Z" fill="#0A2240"/>
<path d="M133.093 156.137C130.453 157.662 129.22 161.007 131.04 164.175C132.86 167.342 136.38 167.872 139.02 166.405C141.72 164.822 142.953 161.477 141.133 158.307C139.25 155.14 135.735 154.612 133.093 156.137ZM137.963 164.527C136.498 165.35 134.268 165.232 133.035 163.002C131.745 160.772 132.625 158.895 134.15 157.957C135.675 157.135 137.848 157.252 139.138 159.422C140.428 161.652 139.5 163.59 137.963 164.527Z" fill="#0A2240"/>
<path d="M145.71 146.983L150.755 152.558L142.248 150.093L140.135 151.913L147.705 160.42L149.348 158.955L143.948 152.91L153.16 155.493L154.92 153.968L147.41 145.518L145.71 146.983Z" fill="#0A2240"/>
<path d="M84.685 163.12C81.685 162.415 78.465 163.94 77.645 167.52C76.705 171.1 78.8775 173.918 81.87 174.62C84.87 175.37 88.0875 173.8 88.91 170.278C89.85 166.7 87.6775 163.825 84.685 163.12ZM86.75 169.693C86.1025 172.215 84.05 172.92 82.4075 172.568C80.705 172.155 79.2375 170.513 79.825 168.048C80.47 165.525 82.525 164.823 84.1675 165.233C85.86 165.585 87.325 167.228 86.75 169.693Z" fill="#0A2240"/>
<path d="M94.9525 165.057L92.725 164.88L92.02 176.205L99.59 176.732L99.7075 174.562L94.3675 174.267L94.9525 165.057Z" fill="#0A2240"/>
<path d="M121.535 161.83L112.498 164.293L113.028 166.288L116.488 165.35L118.895 174.268L121.005 173.683L118.6 164.763L122.12 163.883L121.535 161.83Z" fill="#0A2240"/>
<path d="M110.268 164.645L108.098 164.94L108.803 171.98C108.978 173.448 108.215 174.328 106.925 174.445C105.635 174.563 104.695 173.858 104.518 172.39L103.933 165.35L101.703 165.525L102.405 172.803C102.64 175.553 104.695 176.85 107.1 176.615C109.505 176.38 111.325 174.68 111.03 171.923L110.268 164.645Z" fill="#0A2240"/>
<path d="M47.6025 59.5549L41.5 54.4499L50.945 55.6824L52.4725 53.8649L43.7875 46.5874L42.38 48.2899L48.13 53.1024L39.3275 51.8699L37.5675 53.9824L46.195 61.2574L47.6025 59.5549Z" fill="#0A2240"/>
<path d="M66.495 43.0076L64.97 34.6776L71.0725 40.6026L73.01 39.5476L70.485 28.1626L68.4325 29.0426L70.3675 36.9651L64.4425 31.2151L62.4475 32.3301L63.915 40.3676L58.28 34.4426L56.4625 35.7326L64.4425 44.1251L66.495 43.0076Z" fill="#0A2240"/>
<path d="M60.4525 47.0574L59.1025 45.4724L55.3475 48.5824L53.645 46.5299L57.0475 43.7124L55.8175 42.1874L52.4125 45.0624L50.7125 43.0074L54.525 39.8999L53.1775 38.3149L47.72 42.8324L54.9375 51.5174L60.4525 47.0574Z" fill="#0A2240"/>
<path d="M145.533 41.6L144.36 51.1075L146.12 52.6325L153.395 43.9475L151.695 42.54L146.883 48.23L148.115 39.4875L146.003 37.7275L138.728 46.4125L140.428 47.82L145.533 41.6Z" fill="#0A2240"/>
<path d="M131.098 38.9604L135.098 41.1903L134.748 43.8904L136.8 45.0629L138.5 33.0928L136.328 31.8604L126.998 39.6104L129.053 40.7253L131.098 38.9604ZM136.203 34.6179L135.453 39.0779L132.75 37.6104L136.203 34.6179Z" fill="#0A2240"/>
<path d="M126.227 37.1397L121.535 35.4397L124.585 26.7547L122.472 25.9922L118.777 36.6722L125.582 39.1347L126.227 37.1397Z" fill="#0A2240"/>
<path d="M157.268 47.8799L148.468 54.9799L151.048 58.1474C153.048 60.6699 156.213 61.2574 158.97 59.0274C161.788 56.7399 161.845 53.5124 159.85 51.0474L157.268 47.8799ZM157.503 57.2074C155.625 58.7349 153.808 58.2074 152.575 56.7974L151.4 55.4474L157.093 50.8724L158.208 52.2199C159.38 53.6874 159.44 55.6249 157.5 57.2074H157.503Z" fill="#0A2240"/>
<path d="M101.938 22.6475L99.7075 22.7075L100 30.2175L95.0125 22.8825L92.255 23L92.665 34.265L94.895 34.1475L94.6025 26.2275L100 34.0325L102.348 33.915L101.938 22.6475Z" fill="#0A2240"/>
<path d="M84.45 33.7375L83.9225 31.1575L88.265 30.275L87.795 28.34L83.5125 29.22L82.925 26.6975L87.7375 25.7L87.2675 23.645L80.3425 25.1725L82.75 36.26L89.6725 34.795L89.2625 32.74L84.45 33.7375Z" fill="#0A2240"/>
<path d="M113.79 33.9722L113.73 35.2622L115.48 35.5572L116.43 29.7497L110.855 28.8122L110.562 30.6897L114.082 31.3347C113.847 32.0397 112.85 33.3347 110.737 33.0372C108.917 32.6847 107.452 31.0997 107.805 28.5772C108.272 25.9372 110.327 25.0572 111.97 25.3497C113.79 25.6422 114.552 26.9922 114.67 27.9897L116.84 27.5797C116.547 25.7597 115.255 23.8297 112.322 23.2947C109.27 22.7672 106.22 24.5872 105.632 28.2247C105.047 31.8047 107.275 34.5022 110.327 34.9147C111.912 35.2047 113.202 34.6172 113.79 33.9722Z" fill="#0A2240"/>
<path d="M159.982 99.7152C159.984 94.1098 158.478 88.6071 155.622 83.7837C152.766 78.9604 148.666 74.994 143.75 72.3002C144.415 70.0395 144.458 67.6413 143.874 65.3583C143.29 63.0753 142.101 60.9921 140.432 59.3284C138.763 57.6646 136.676 56.482 134.391 55.905C132.107 55.3281 129.709 55.3783 127.45 56.0502C124.754 51.1015 120.77 46.9736 115.92 44.103C111.071 41.2325 105.535 39.7261 99.9 39.7433C94.2645 39.7605 88.7384 41.3005 83.9064 44.2005C79.0743 47.1005 75.1159 51.2527 72.4499 56.2177C70.2328 55.6251 67.8989 55.6253 65.6818 56.2181C63.4648 56.811 61.4423 57.9757 59.8169 59.5958C58.1915 61.216 57.0201 63.2346 56.42 65.4497C55.8198 67.6648 55.8121 69.9987 56.3974 72.2177C51.4494 74.8958 47.3157 78.8594 44.4321 83.6905C41.5486 88.5216 40.0219 94.0412 40.0132 99.6675C40.0045 105.294 41.5141 110.818 44.3827 115.658C47.2513 120.498 51.3727 124.474 56.3124 127.168C55.6343 129.43 55.5804 131.833 56.1567 134.123C56.7329 136.414 57.9177 138.505 59.5857 140.177C61.2536 141.849 63.3426 143.038 65.6314 143.62C67.9203 144.201 70.3238 144.153 72.5874 143.48C75.2837 148.393 79.2505 152.49 84.0729 155.345C88.8953 158.199 94.3961 159.705 99.9999 159.705C105.604 159.705 111.105 158.199 115.927 155.345C120.749 152.49 124.716 148.393 127.412 143.48C129.68 144.162 132.09 144.216 134.386 143.638C136.682 143.059 138.778 141.869 140.452 140.194C142.126 138.52 143.315 136.423 143.892 134.126C144.469 131.83 144.413 129.42 143.73 127.153C148.653 124.46 152.76 120.491 155.619 115.663C158.479 110.835 159.986 105.326 159.982 99.7152Z" fill="#0A2240"/>
<path d="M87.4625 106.715L79.7125 113.095C79.7137 113.101 79.7137 113.108 79.7125 113.115L65.9625 124.435C60.6338 117.083 57.8273 108.204 57.9625 99.1251C58.0977 90.0461 61.1673 81.2547 66.7125 74.0648C66.815 73.9298 66.9225 73.7973 67.0275 73.6648L67.2775 73.3498C67.825 72.6698 68.3925 72.0048 68.9825 71.3623C55.075 72.6123 44.1575 84.8448 44.1575 99.7598C44.1575 114.675 55.075 126.912 68.9825 128.157L71.5 128.39C71.5 128.39 71.6875 131.18 71.7125 131.42C73.25 145.037 85.34 155.642 100.04 155.642C114.955 155.642 127.192 144.725 128.437 130.82C127.795 131.407 127.13 131.975 126.437 132.525L126.125 132.775C125.99 132.88 125.857 132.987 125.722 133.09C118.533 138.634 109.742 141.704 100.663 141.839C91.585 141.974 82.7066 139.168 75.355 133.84L96.055 108.84C95.555 108.09 95.0275 107.497 94.49 107.185L87.845 106.41L87.465 106.72M48.5 99.7498C48.5 87.6998 55.6075 77.5573 65.2725 74.5198C58.205 79.4048 53.41 88.8698 53.41 99.7498C53.41 110.63 58.205 120.105 65.2725 125C55.6075 121.952 48.5 111.812 48.5 99.7498ZM100.03 151.29C87.98 151.29 77.8375 144.185 74.8 134.517C79.685 141.587 89.15 146.38 100.03 146.38C110.91 146.38 120.375 141.587 125.25 134.517C122.222 144.185 112.082 151.29 100.03 151.29ZM131.862 71.4498H131.832C131.55 71.4198 131.267 71.3873 130.982 71.3648L128.64 71.1448C128.64 71.1448 128.417 68.6998 128.427 68.7098C127.177 54.8023 114.945 43.8848 100.03 43.8848C85.115 43.8848 72.8775 54.8023 71.6325 68.7098C72.2775 68.1198 72.9441 67.5506 73.6325 67.0023L73.9475 66.7523C74.08 66.6473 74.2125 66.5398 74.3475 66.4373C81.5378 60.8919 90.3297 57.8222 99.409 57.687C108.488 57.5518 117.368 60.3584 124.72 65.6873L120.45 70.8923L115.407 76.9998L99.2175 96.7498C102.927 96.7673 106.112 96.7823 107.757 96.7823H107.955L134.352 75.4173C139.565 82.7661 142.281 91.5941 142.101 100.602C141.921 109.61 138.855 118.323 133.352 125.457C133.25 125.592 133.145 125.725 133.037 125.86L132.787 126.172C132.237 126.852 131.67 127.517 131.082 128.16C144.987 126.91 155.905 114.677 155.905 99.7623C155.912 85.1223 145.397 73.0723 131.862 71.4498ZM100.03 53.1398C89.15 53.1398 79.685 57.9323 74.8 65.0023C77.8375 55.3348 87.98 48.2298 100.03 48.2298C112.08 48.2298 122.222 55.3373 125.25 64.9998C120.375 57.9323 110.91 53.1398 100.03 53.1398ZM134.78 124.99C141.85 120.105 146.642 110.64 146.642 99.7598C146.642 89.0623 142.007 79.7348 135.142 74.7823L135.215 74.7248L135.137 74.6473C144.637 77.8173 151.562 87.8548 151.562 99.7598C151.56 111.812 144.455 121.952 134.787 125L134.78 124.99ZM140.362 130.927C140.364 132.31 140.052 133.676 139.451 134.921C138.85 136.167 137.974 137.26 136.89 138.119C135.806 138.978 134.542 139.58 133.192 139.881C131.842 140.181 130.441 140.173 129.095 139.855C129.525 138.761 129.892 137.643 130.195 136.507C131.011 136.657 131.851 136.625 132.653 136.413C133.456 136.201 134.202 135.815 134.839 135.283C135.475 134.75 135.987 134.083 136.336 133.331C136.686 132.578 136.866 131.757 136.862 130.927C136.861 130.592 136.829 130.257 136.767 129.927C137.903 129.624 139.021 129.258 140.115 128.83C140.281 129.517 140.367 130.221 140.37 130.927H140.362ZM69.055 59.6773C69.6331 59.6773 70.2099 59.7326 70.7775 59.8423C70.358 60.9468 70.0024 62.0745 69.7125 63.2198C69.4944 63.1917 69.2748 63.1775 69.055 63.1773C67.5511 63.1793 66.1095 63.7775 65.0461 64.8409C63.9827 65.9043 63.3845 67.3459 63.3825 68.8498C63.3819 69.0494 63.3927 69.2489 63.415 69.4473C62.2694 69.7423 61.1417 70.1029 60.0375 70.5273C59.9351 69.974 59.8832 69.4125 59.8825 68.8498C59.8878 66.4183 60.8572 64.0882 62.5781 62.3706C64.2991 60.6529 66.631 59.6879 69.0625 59.6873L69.055 59.6773ZM136.79 69.4998C136.841 69.1965 136.867 68.8897 136.87 68.5823C136.875 67.7537 136.697 66.9343 136.349 66.1823C136.001 65.4303 135.492 64.7641 134.858 64.2311C134.224 63.6982 133.48 63.3115 132.679 63.0987C131.878 62.8859 131.04 62.8521 130.225 62.9998C129.926 61.8626 129.563 60.7433 129.137 59.6473C130.649 59.2976 132.225 59.3376 133.717 59.7634C135.209 60.1893 136.568 60.987 137.668 62.082C138.767 63.1769 139.571 64.533 140.003 66.0233C140.435 67.5136 140.481 69.0891 140.137 70.6023C139.043 70.1718 137.926 69.8037 136.79 69.4998ZM71.0125 140.14C69.4872 140.472 67.9023 140.41 66.408 139.958C64.9136 139.507 63.5593 138.681 62.4732 137.56C61.3872 136.438 60.6054 135.058 60.2019 133.55C59.7984 132.042 59.7865 130.456 60.1675 128.942C61.1876 129.33 62.2273 129.664 63.2825 129.942C63.2218 130.272 63.1908 130.607 63.19 130.942C63.192 132.447 63.7906 133.889 64.8545 134.952C65.9184 136.015 67.3607 136.613 68.865 136.615C69.1784 136.613 69.4911 136.585 69.8 136.532C70.1294 137.759 70.5343 138.963 71.0125 140.14Z" fill="#CE0E2D"/>
<path d="M83.5175 129.95L87.6375 122.512C88.3875 128.4 91.3425 131.822 91.3425 131.822L89.0725 134.59L83.5175 129.95ZM74.83 106.5C74.83 105.472 75.0025 103.595 77.33 103.595H79.945V108.5C79.9654 110.033 79.886 111.567 79.7075 113.09L87.4575 106.705V103.587H95.535C97.5947 104.484 99.3902 105.894 100.75 107.682C107.387 116.365 111.33 129.382 120.4 131.152L131.707 119.94L128.49 117.067C128.49 117.067 123.892 121.605 120.07 121.417C115.532 121.197 113.707 115.107 111.15 110.502C109.843 108.085 108.35 105.773 106.685 103.587H107C107 103.587 113.915 103.81 117.897 101.652C123.232 98.7623 126.572 93.6198 127.372 87.3273L116.455 92.9998C114.68 95.3448 111.827 96.7873 107.762 96.7873C104.462 96.7873 94.96 96.7323 87.4625 96.6848V77.0173C91.0425 74.9073 96.815 71.6898 104.942 72.3348C109.592 72.7023 113.09 74.5273 115.4 77.0123L120.42 70.8848C118.609 69.4888 116.598 68.3738 114.455 67.5773C101.2 62.5248 88.4325 68.9998 83.25 71.9998C77.5525 75.3198 72.9075 73.5498 72.9075 73.5498L71.745 79.2998C74.2995 80.4932 77.1705 80.8316 79.9325 80.2648V96.6298L77.42 96.6148C75.0975 96.6148 74.92 94.7348 74.92 93.7098V89.6073H70.8275L70.725 110.607H74.83V106.5Z" fill="white"/>
</svg>
