<svg width="200" height="200" viewBox="0 0 200 200" fill="none" xmlns="http://www.w3.org/2000/svg">
<g clip-path="url(#clip0_8997_2181)">
<path d="M100 186C77.0287 186 55.432 177.054 39.1888 160.811C22.9456 144.568 14 122.972 14 100C14 77.0285 22.9456 55.432 39.1888 39.1888C55.432 22.9454 77.0287 14 100 14C122.971 14 144.568 22.9454 160.811 39.1888C177.054 55.432 186 77.0285 186 100C186 122.972 177.055 144.568 160.811 160.811C144.568 177.054 122.972 186 100 186Z" fill="#000229"/>
<path d="M100 182.87C77.8645 182.87 57.0541 174.25 41.4021 158.598C25.7498 142.946 17.1299 122.135 17.1299 100C17.1299 77.8645 25.7498 57.0541 41.4021 41.4018C57.0541 25.7498 77.8648 17.1299 100 17.1299C122.135 17.1299 142.946 25.7498 158.598 41.4021C174.251 57.0543 182.87 77.8648 182.87 100C182.87 122.136 174.251 142.946 158.598 158.598C142.946 174.251 122.135 182.87 100 182.87Z" fill="#EB5A3B"/>
<path d="M100 179.74C78.7007 179.74 58.6758 171.446 43.6151 156.385C28.554 141.324 20.2595 121.299 20.2595 99.9998C20.2595 78.7004 28.554 58.6759 43.6151 43.6148C58.6761 28.5537 78.7007 20.2593 100 20.2593C121.299 20.2593 141.324 28.5537 156.385 43.6148C171.446 58.6759 179.741 78.7004 179.741 99.9998C179.741 121.299 171.446 141.324 156.385 156.385C141.324 171.446 121.299 179.74 100 179.74Z" fill="#000229"/>
<path d="M99.9999 176.61C142.311 176.61 176.611 142.311 176.611 99.9998C176.611 57.6889 142.311 23.3892 99.9999 23.3892C57.689 23.3892 23.3893 57.6889 23.3893 99.9998C23.3893 142.311 57.689 176.61 99.9999 176.61Z" fill="#9FD2FF"/>
<path d="M113.683 36.949C114.713 35.8472 114.863 34.0008 114.779 32.5704C114.622 30.9147 113.33 29.8256 111.758 29.5251C108.679 28.9586 105.499 28.8397 102.394 28.4546C102.607 29.0556 102.754 29.6219 102.676 30.2699C102.385 33.6751 102.034 37.0742 101.799 40.4794C101.771 41.0645 101.43 41.481 101.145 41.9754C102.535 42.0661 103.918 42.1849 105.305 42.3196C104.892 40.6953 105.242 39.2556 105.349 37.6187C105.921 37.6721 106.494 37.7251 107.067 37.7752C107.771 39.3182 109.195 40.9802 109.183 42.7077C110.86 42.9926 112.541 43.2899 114.215 43.6154C112.876 42.0284 111.874 40.0569 110.87 38.2415C111.921 37.941 112.904 37.7909 113.683 36.949ZM109.953 35.3748C108.478 35.3247 107.001 35.0743 105.54 34.8676C105.702 33.8003 105.812 32.7269 105.89 31.6503C107.402 31.7975 108.957 31.8818 110.444 32.198C112.184 32.3762 111.69 35.722 109.953 35.3748Z" fill="#000229"/>
<path d="M96.7168 30.6798C94.7514 28.8271 91.9252 28.4203 89.3868 29.1932C87.6373 29.7502 86.1506 30.9708 85.2742 32.5859C83.6812 35.5998 84.5764 39.6936 87.3837 41.6686C90.4165 43.8282 94.9766 43.246 97.3457 40.3729C99.6618 37.5998 99.3645 33.1368 96.7165 30.6798H96.7168ZM94.1755 39.1867C92.5199 40.5732 89.8407 40.2634 88.6232 38.4512C87.1646 36.3791 87.5903 33.2087 90.0409 32.1196C91.1833 31.6063 92.4321 31.622 93.54 32.2291C95.9436 33.5312 96.3569 37.4873 94.1753 39.1867H94.1755Z" fill="#000229"/>
<path d="M82.306 30.5469C81.3027 32.7343 80.9343 35.2176 80.2371 37.5198C80.0661 38.362 79.5265 39.4835 79.9015 40.3057C80.3159 41.4107 80.7402 42.5129 81.181 43.6112C81.3783 44.1671 81.7994 44.4696 82.2367 44.8316C80.8883 45.3184 79.5528 45.8314 78.2371 46.3971C78.3884 44.8939 77.6254 43.7558 77.1452 42.3645C76.8951 41.8118 76.711 41.0322 76.165 40.7068C74.5303 39.5884 72.8297 38.5623 71.1854 37.4604C70.3171 36.8652 69.4355 36.3653 68.4719 35.9343C69.883 35.3686 71.2251 34.6876 72.5834 34.0135C73.547 35.6022 75.6422 36.4145 77.0765 37.5659C77.3857 36.214 77.7508 34.8786 78.0502 33.5269C78.2212 32.8624 78.1456 32.5236 77.8659 31.9055C79.3624 31.5206 80.8491 31.07 82.3063 30.5472L82.306 30.5469Z" fill="#000229"/>
<path d="M120.733 31.3169C122.062 31.8727 123.411 32.3761 124.749 32.9155C124.483 33.0931 124.216 33.2739 123.95 33.4516C123.391 34.8922 122.838 36.3395 122.279 37.7801C124.332 36.9611 126.378 36.1256 128.427 35.2936C128.548 35.0667 128.673 34.8397 128.795 34.6094C130.403 35.3231 131.999 36.0598 133.597 36.7901C131.088 37.3428 128.703 38.5037 126.286 39.3755C126.697 41.7765 127.19 44.1645 127.618 46.5623C127.779 47.5062 128.045 48.424 128.342 49.3351C126.858 48.595 125.375 47.8516 123.891 47.1181C124.187 44.9472 123.451 42.6447 123.171 40.4871C122.375 40.7732 121.589 41.0792 120.809 41.4049C120.368 42.8522 119.625 43.9442 119.688 45.4802C118.389 44.9704 117.073 44.4737 115.737 44.0561C116.178 43.6515 116.583 43.2832 116.787 42.7041C117.987 39.609 119.158 36.5009 120.382 33.409C120.675 32.7346 120.714 32.044 120.734 31.3172L120.733 31.3169Z" fill="#000229"/>
<path d="M60.8605 40.0823C61.0414 40.7961 61.2289 41.5 61.5152 42.1808C63.0546 45.7494 64.5347 49.3412 66.0938 52.9035C65.5446 53.3411 65.005 53.8245 64.4098 54.1995C63.9887 54.101 63.5876 53.8772 63.2027 53.6831C61.1602 52.5746 59.1043 51.4858 57.0421 50.4135C58.0584 52.9429 59.1536 55.4393 60.1865 57.9623C59.6176 58.459 59.0452 58.9491 58.463 59.4293C56.2066 58.0084 53.7792 56.8605 51.4472 55.5677C49.6643 54.6762 47.9211 53.4822 46.0232 52.9134C46.9474 51.9199 47.8849 50.9268 48.763 49.8971C49.0624 50.486 49.3716 50.8114 49.957 51.1206C51.8648 52.1535 53.7462 53.2223 55.6473 54.2685C54.6277 51.6504 53.4369 49.1077 52.4238 46.4896C52.8678 46.1015 53.3117 45.7132 53.756 45.3252C56.2622 46.6901 58.7853 48.0189 61.2848 49.3972C60.6896 48.009 60.0743 46.6278 59.4527 45.2527C58.9429 44.1442 58.6305 43.049 57.7226 42.1805C58.7554 41.46 59.7981 40.7596 60.8605 40.082V40.0823Z" fill="#000229"/>
<path d="M142.837 44.2959C145.225 44.3518 147.484 45.6742 148.856 47.6049C149.52 48.4569 149.806 49.3614 150.971 49.6442C149.928 50.7527 148.925 51.9006 147.971 53.0848C147.876 50.7791 146.451 48.5424 144.317 47.628C141.939 46.7302 139.314 48.5818 138.952 50.993C138.666 52.8448 139.765 54.5419 141.38 55.3774C142.462 56.0286 143.613 56.055 144.84 56.0483C143.955 56.8508 143.097 57.6796 142.245 58.5186C138.545 58.1404 135.492 54.7392 135.667 50.9996C135.759 47.3388 139.183 44.1449 142.837 44.2962L142.837 44.2959Z" fill="#000229"/>
<path d="M95.1371 47.2465C97.7256 47.0491 100.278 46.8123 102.873 47.092C117.023 47.7333 130.63 54.4466 139.916 65.1067C146.353 72.4054 150.717 81.4835 152.342 91.0847C154.372 102.669 152.326 114.879 146.672 125.184C142.123 133.538 135.317 140.626 127.144 145.491C118.809 150.467 109.142 153.132 99.4259 152.898C83.9733 152.865 69.0241 145.494 59.2618 133.581C52.6406 125.578 48.4405 115.625 47.4242 105.28C46.8223 98.5868 47.3222 91.8278 49.2233 85.3678C52.1474 75.1351 58.2718 65.9223 66.4683 59.153C74.5533 52.4299 84.6639 48.2066 95.1368 47.2462L95.1371 47.2465Z" fill="#000229"/>
<path d="M154.072 53.1797C154.964 54.2618 155.806 55.3735 156.77 56.3933C156.026 56.7156 155.336 57.0874 154.72 57.6201C152.273 59.6759 149.777 61.6724 147.297 63.6885C146.82 64.047 146.619 64.5437 146.379 65.0732C145.497 63.9647 144.593 62.8727 143.685 61.7874C145.139 61.4947 145.955 60.4256 147.112 59.5542C149.326 57.6696 151.717 55.9624 153.826 53.9659C153.908 53.7028 153.99 53.4396 154.072 53.1797Z" fill="#000229"/>
<path d="M43.8753 55.8081C44.7832 56.3048 45.612 56.9395 46.487 57.4922C45.9673 57.8967 45.4935 58.3277 45.1153 58.8705C43.9903 60.4395 42.8951 62.0313 41.9052 63.6925C42.5827 64.1431 43.267 64.5903 43.941 65.0476C44.8061 63.7812 45.6349 62.4887 46.5264 61.2419C46.9506 60.6597 47.2434 60.0578 47.4737 59.377C48.3782 60.0349 49.3024 60.6664 50.2564 61.2584C49.6907 61.7288 49.194 62.2319 48.8025 62.857C48 64.1136 47.1086 65.2745 46.4377 66.6099C47.1283 67.0342 47.816 67.4585 48.4999 67.8926C49.638 66.1657 50.7366 64.4193 51.9799 62.7614C52.4239 62.189 52.6905 61.5543 52.9174 60.8733C53.7462 61.5181 54.6145 62.1134 55.4862 62.6988C53.1739 65.9451 50.9076 69.2411 48.8289 72.6419C48.3553 71.4644 47.3685 71.1355 46.3884 70.4843C44.03 69.0107 41.6751 67.5306 39.3398 66.0208C38.751 65.6229 38.0931 65.4452 37.4124 65.2841C39.5372 62.1264 41.5206 58.8012 43.8755 55.8081H43.8753Z" fill="#000229"/>
<path d="M159.003 59.1495C161.217 62.6724 163.351 66.3757 165.246 70.0826C164.315 70.6156 163.381 71.1419 162.47 71.7041C162.253 70.0957 161.325 68.882 160.585 67.428C158.043 68.8127 155.553 70.2962 153.02 71.7006C152.356 72.046 151.882 72.5164 151.432 73.105C150.764 71.8684 150.06 70.648 149.389 69.4146C150.05 69.3619 150.659 69.2897 151.234 68.9278C153.793 67.4608 156.342 65.9807 158.911 64.5367C158.158 63.1618 157.382 61.8198 156.329 60.6423C157.214 60.1392 158.096 59.6094 159.003 59.1489L159.003 59.1495Z" fill="#000229"/>
<path d="M100.413 61.906C107.166 61.7548 113.941 63.7347 119.691 67.2509C125.381 70.721 130.065 75.8357 133.104 81.7561C134.762 84.8544 135.834 88.1767 137.419 91.3014C134.15 91.4164 130.874 91.3211 127.601 91.3541C127.851 89.8344 127.92 88.328 127.532 86.8248C126.723 83.5094 124.588 80.5557 122.315 78.0724C117.316 72.336 110.067 68.6225 102.459 68.08C97.5381 67.8464 92.67 68.5767 88.427 71.2113C86.8646 69.6293 85.0589 68.08 83.8779 66.1856C85.4536 65.35 86.96 64.5244 88.6406 63.8964C92.3738 62.5051 96.436 61.913 100.412 61.9063L100.413 61.906Z" fill="#FFFFFE"/>
<path d="M67.5606 63.8695C71.8824 63.7741 76.2112 63.8564 80.5362 63.8266C80.6942 64.7409 80.7829 65.6949 81.2434 66.5203C82.1313 68.1287 83.6577 69.4346 84.9404 70.7436C90.1273 75.9505 95.3539 81.1244 100.521 86.3541C104.794 82.1407 108.968 77.8189 113.227 73.5921C115.181 74.569 116.865 75.7497 118.424 77.2824C113.474 81.9596 108.55 86.6666 103.616 91.3567C103.636 93.636 103.643 95.9188 103.613 98.1981C97.3373 92.1757 91.1175 86.0841 84.8876 80.0089C80.0955 75.5094 75.5334 70.6874 70.5206 66.4345C69.524 65.5596 68.432 64.8852 67.5603 63.8689L67.5606 63.8695Z" fill="#FFFFFE"/>
<path d="M121.355 63.8268C125.397 63.8796 129.456 63.7248 133.495 63.9123C131.252 65.8726 128.894 67.685 126.749 69.7637C124.94 68.2837 123.046 66.9251 120.99 65.8068C121.125 65.1489 121.247 64.4879 121.355 63.8265L121.355 63.8268Z" fill="#FFFFFE"/>
<path d="M35.2773 69.4549L35.33 69.5041C35.8334 70.0139 36.3235 70.3791 36.9975 70.6324C39.267 71.5336 41.5301 72.4578 43.7865 73.3887C45.1187 73.928 46.2863 74.5858 47.7632 74.6319C47.4177 75.4805 47.0757 76.3325 46.737 77.1842C43.4216 78.3913 40.0532 79.5064 36.7871 80.8485C38.7277 81.5556 40.7111 82.1213 42.6649 82.7826C43.3425 83.0293 44.0102 83.0556 44.724 83.0359C44.2765 84.2957 43.8786 85.572 43.5036 86.8547C43.0168 86.3614 42.5826 85.9766 41.8886 85.7989C38.6981 84.7924 35.5207 83.7529 32.3468 82.6972C31.7283 82.4636 31.1792 82.4868 30.541 82.605C30.9917 81.5658 31.2154 80.3848 31.7811 79.4111C34.886 78.0986 38.1359 77.0364 41.2736 75.783C39.3725 74.9707 37.4746 74.1581 35.5636 73.3721C34.9846 73.0893 34.4386 73.1452 33.8204 73.1977C34.3632 71.9709 34.8498 70.7242 35.2776 69.4546L35.2773 69.4549Z" fill="#000229"/>
<path d="M165.788 71.6221C166.315 73.076 166.943 74.4871 167.469 75.9439C165.854 76.809 164.973 78.8385 163.746 80.1771C165.328 80.6903 166.91 81.2001 168.499 81.6835C168.729 81.5716 168.959 81.4565 169.186 81.3415C169.545 82.8282 169.867 84.3247 170.232 85.8114C167.739 84.5024 164.887 83.8839 162.256 82.8873C161.161 82.4201 160.328 82.9003 159.276 83.1965C158.065 83.6208 156.914 83.713 156.003 84.7226C155.625 83.384 155.207 82.0518 154.743 80.7396C156.605 80.881 158.532 79.8713 160.335 79.401C161.963 77.0854 163.788 74.9015 165.374 72.5596C165.518 72.2504 165.653 71.938 165.788 71.6221H165.788Z" fill="#000229"/>
<path d="M74.4318 73.0301C76.05 74.6089 77.6419 76.2173 79.2176 77.8356C75.4811 81.2104 72.5637 85.4041 70.9947 90.2093C69.2811 95.4884 69.0113 101.287 69.9192 106.744C70.9686 112.819 73.7545 118.562 78.1354 122.927C82.6152 127.518 88.5458 130.344 94.8281 131.442C94.7788 133.584 94.7788 135.688 94.2195 137.777C85.2269 136.34 76.8099 131.889 70.9257 124.89C65.9362 119.026 63.0121 111.608 62.3869 103.951C62.1829 99.7378 62.2093 95.5672 63.239 91.4459C64.9065 84.3052 68.9261 77.8452 74.432 73.0298L74.4318 73.0301Z" fill="#FFFFFE"/>
<path d="M86.822 85.9202C95.8804 94.3471 104.949 102.873 113.997 111.306C113.994 104.471 114.017 97.6265 113.987 90.7947C113.991 89.0678 113.385 87.5712 112.866 85.9628C115.76 85.9101 118.664 85.9234 121.562 85.9561C121.148 87.2719 120.641 88.4264 120.503 89.8076C120.372 91.2285 120.378 92.6628 120.369 94.0869C120.382 100.553 120.352 107.023 120.385 113.493C120.336 115.69 120.711 117.647 121.375 119.732C118.668 119.749 115.961 119.742 113.254 119.736C104.439 111.332 95.5254 103.027 86.6777 94.6558C86.671 101.375 86.6679 108.099 86.6809 114.815C86.6612 116.568 87.2367 118.127 87.8879 119.723C85.0099 119.756 82.122 119.752 79.244 119.719C79.7604 118.111 80.2177 116.525 80.2209 114.819C80.2406 107.582 80.2177 100.34 80.2307 93.1001C80.2307 91.8238 80.2899 90.4588 80.0696 89.2025C79.8691 88.1074 79.4216 87.0087 79.0336 85.9727C81.6288 85.884 84.2271 85.966 86.8223 85.9199L86.822 85.9202Z" fill="#FFFFFE"/>
<path d="M34.9409 93.6499C36.2763 94.9227 37.6479 96.1332 39.1772 97.1725C38.5324 98.7446 37.9009 100.31 37.5294 101.975C35.7828 101.755 34.0955 101.768 32.3457 101.958C31.9608 100.294 31.3195 98.7348 30.7242 97.1397C32.2669 96.1332 33.6089 94.9129 34.9409 93.6499Z" fill="#000229"/>
<path d="M165.194 93.6565C166.529 94.9131 167.885 96.1234 169.417 97.1397C168.786 98.7185 168.177 100.294 167.789 101.952C166.049 101.771 164.352 101.751 162.615 101.975C162.201 100.314 161.586 98.7284 160.948 97.1429C162.5 96.1396 163.846 94.9062 165.194 93.6562V93.6565Z" fill="#000229"/>
<path d="M97.0677 107.576C98.3144 108.652 99.4423 109.842 100.653 110.957C101.613 111.921 102.778 112.78 103.59 113.865C103.695 121.058 103.58 128.35 103.646 135.554C103.705 137.225 104.297 138.688 104.823 140.244C101.827 140.261 98.8306 140.257 95.834 140.244C96.3043 138.889 96.8338 137.636 96.9523 136.185C97.1036 134.333 97.028 132.455 97.0445 130.597C97.061 122.923 97.0115 115.25 97.0674 107.576H97.0677Z" fill="#FFFFFE"/>
<path d="M128.075 108.514C131.308 108.524 134.541 108.507 137.775 108.527C136.436 111.451 135.657 114.569 134.308 117.487C132.318 121.874 129.404 125.828 125.841 129.064C120.497 133.798 113.497 136.735 106.472 137.771C105.84 135.656 105.866 133.449 105.853 131.252C109.685 130.808 113.435 129.436 116.803 127.578C121.329 125.075 125.529 121.009 127.417 116.125C128.42 113.674 128.499 111.102 128.075 108.514H128.075Z" fill="#FFFFFE"/>
<path d="M42.747 110.014C43.655 113.862 44.7469 117.71 45.9737 121.47C44.9672 121.74 43.9674 122.026 42.9806 122.365C42.9641 121.582 42.849 120.891 42.6056 120.144C42.0135 118.26 41.4939 116.355 40.9644 114.454C40.1025 114.691 39.241 114.934 38.3791 115.171C39.0897 117.138 39.2737 119.447 40.3854 121.22C39.2836 121.496 38.1948 121.799 37.1257 122.183C37.0698 120.078 36.1224 118.016 35.6488 115.97C34.103 116.506 32.0901 116.628 30.9024 117.763C30.5506 116.401 30.1953 115.046 29.7676 113.704C30.5602 113.868 31.1459 113.813 31.9121 113.579C35.0171 112.668 38.1319 111.8 41.2467 110.921C41.8651 110.773 42.2926 110.434 42.7464 110.013L42.747 110.014Z" fill="#000229"/>
<path d="M169.037 113.275C168.292 112.12 166.852 111.691 165.547 111.635C164.74 111.632 164.06 112.076 163.372 112.436C162.295 110.8 160.427 110.139 158.561 110.777C157.459 111.212 156.796 112.18 156.48 113.291C155.732 115.92 155.115 118.618 154.211 121.2C154.865 121.068 155.435 120.993 156.079 121.225C158.627 122.02 161.171 122.821 163.722 123.6C164.983 123.998 166.173 124.148 167.152 125.124C167.9 122.542 168.714 119.979 169.378 117.372C169.706 116.029 169.91 114.461 169.037 113.275L169.037 113.275ZM161.525 115.137C161.362 116.511 160.824 117.848 160.492 119.193C159.641 118.946 158.79 118.689 157.945 118.427C158.329 117.146 158.589 115.819 159.059 114.568C159.388 113.275 161.707 113.863 161.525 115.137ZM166.736 116.114C166.558 117.663 165.923 119.175 165.535 120.68C164.68 120.508 163.838 120.286 162.993 120.064C163.331 118.608 163.679 117.144 164.148 115.723C164.305 115.231 164.618 114.94 165.081 114.737C165.829 114.799 166.871 115.187 166.736 116.114Z" fill="#000229"/>
<path d="M153.24 123.348C154.26 124.7 155.714 124.959 157.171 125.772C158.707 126.601 160.542 127.206 161.855 128.367C163.381 129.795 163.627 131.886 163.111 133.834C162.404 136.159 160.7 138.402 158.247 139.007C156.74 139.461 155.286 138.968 153.984 138.205C152.277 137.169 150.563 136.153 148.849 135.126C148.287 134.765 147.695 134.649 147.044 134.558C147.764 133.344 148.508 132.163 149.142 130.903C149.932 132.199 151.27 132.627 152.52 133.443C153.833 134.169 155.079 135.14 156.477 135.679C159.046 136.525 161.365 132.643 159.434 130.772C158.368 129.834 156.849 129.364 155.596 128.703C154.129 128.071 152.842 127.075 151.274 127.062C151.991 125.855 152.602 124.595 153.241 123.348L153.24 123.348Z" fill="#000229"/>
<path d="M48.9532 126.796C47.2004 124.955 44.4714 124.242 42.024 124.883C39.5734 125.481 37.4483 127.362 36.8692 129.866C36.1931 132.607 37.2292 135.559 39.4418 137.299C42.3651 139.715 47.1286 139.205 49.5009 136.257C51.7918 133.578 51.4194 129.24 48.9532 126.796ZM44.6652 135.628C42.6746 136.151 40.5402 134.977 39.958 132.996C39.1943 130.752 40.8532 128.467 42.9971 127.847C45.1254 127.281 47.1442 128.532 47.7763 130.586C48.4648 132.827 46.8185 135.068 44.6652 135.628V135.628Z" fill="#000229"/>
<path d="M57.7634 139.033C55.8699 137.663 53.4442 137.281 51.2223 138.035C48.7308 138.864 46.684 141.093 46.3429 143.737C45.8389 147.396 48.468 150.964 52.061 151.675C55.5914 152.435 59.4066 150.282 60.4487 146.808C61.3187 143.928 60.1734 140.783 57.7634 139.033ZM54.0357 148.726C52.0763 149.118 50.1454 147.794 49.6101 145.913C49.078 143.857 50.2955 141.772 52.1954 140.958C54.2548 140.091 56.668 141.284 57.3597 143.365C58.1579 145.687 56.3863 148.32 54.036 148.726H54.0357Z" fill="#000229"/>
<path d="M142.623 139.291C143.192 140.626 144.267 141.336 145.267 142.31C146.863 143.81 148.415 145.362 150.063 146.803C151.342 145.517 152.549 144.165 153.711 142.774C154.079 142.35 154.247 141.846 154.424 141.327C155.227 142.06 156.049 142.771 156.862 143.491C154.625 146.326 152.125 148.902 149.691 151.559C149.402 151.026 149.142 150.504 148.692 150.083C146.179 147.767 143.712 145.399 141.209 143.07C140.801 142.702 140.327 142.547 139.837 142.32C140.748 141.29 141.692 140.3 142.623 139.291Z" fill="#000229"/>
<path d="M137.386 144.546C138.557 145.467 139.518 146.648 140.633 147.638C139.514 147.573 138.469 147.474 137.403 147.911C135.676 148.572 134.239 150.029 134.281 151.983C134.275 154.391 136.495 156.391 138.903 156.059C141.347 155.651 143.014 153.401 143.379 151.043C144.08 151.951 144.813 152.832 145.563 153.704C144.356 157.115 140.909 159.565 137.241 159.147C133.883 158.858 131.278 155.947 131.068 152.631C130.87 150.273 131.992 148 133.87 146.592C134.785 145.856 135.83 145.56 136.85 145.027C137.028 144.866 137.206 144.705 137.386 144.547V144.546Z" fill="#000229"/>
<path d="M63.765 145.497C67.2745 147.918 70.9124 150.197 74.5961 152.345C74.0371 153.263 73.4613 154.167 72.9054 155.085C72.0502 153.805 70.2708 153.213 69.0177 152.348C67.4783 154.707 66.0246 157.124 64.4785 159.479C64.0279 160.14 63.8305 160.713 63.7221 161.505C62.5971 160.713 61.4098 160.025 60.2717 159.255C60.9064 158.742 61.4362 158.196 61.8407 157.486C63.2518 155.147 64.8109 152.891 66.1727 150.523C64.8176 149.773 63.5546 148.497 62.0416 148.161C62.6403 147.289 63.2025 146.395 63.765 145.497Z" fill="#000229"/>
<path d="M86.5607 158.203C86.1915 157.111 85.3589 156.306 84.2854 155.903C82.0696 155.054 79.8036 154.328 77.6034 153.43C77.2716 153.292 76.9369 153.152 76.6082 153.011C76.7366 154.441 76.0637 155.471 75.5661 156.741C74.8057 158.613 74.0606 160.488 73.3033 162.359C72.8182 163.511 72.5397 164.625 71.5758 165.502C74.4898 166.65 77.2658 167.912 80.3142 168.716C81.5349 169.016 82.8619 168.806 83.8133 167.949C85.2279 166.587 85.6379 164.443 84.5176 162.753C86.1796 161.887 87.0777 160.021 86.5612 158.203L86.5607 158.203ZM80.6704 165.84C79.0837 165.53 77.5469 164.829 76.0634 164.19C76.3857 163.374 76.705 162.541 77.065 161.746C78.4485 162.222 79.8381 162.729 81.1932 163.27C82.511 163.618 82.082 166.068 80.6704 165.84ZM82.0507 160.732C80.6832 160.416 79.3811 159.793 78.0573 159.327C78.3578 158.513 78.6612 157.699 79.0275 156.911C79.9163 157.195 80.7863 157.537 81.6659 157.846C82.32 158.106 82.9772 158.269 83.3873 158.892C83.5374 159.69 83.021 160.892 82.051 160.732H82.0507Z" fill="#000229"/>
<path d="M118.267 155.003C118.132 156.533 118.714 157.792 119.164 159.207C119.822 161.193 120.434 163.196 121.079 165.19C122.76 164.706 124.414 164.13 126.045 163.502C126.631 163.285 127.101 162.91 127.565 162.502C127.914 163.525 128.289 164.538 128.664 165.551C125.299 166.94 121.852 168.008 118.418 169.17C118.481 168.541 118.54 167.969 118.316 167.364C117.3 164.206 116.254 161.062 115.267 157.894C115.083 157.256 114.705 156.763 114.3 156.253C115.639 155.891 116.954 155.46 118.267 155.003H118.267Z" fill="#000229"/>
<path d="M107.254 157.479C107.1 157.614 106.948 157.752 106.794 157.887C106.764 158.996 106.866 160.091 107.021 161.186C107.294 163.469 107.484 165.758 107.794 168.038C110.05 167.742 112.612 167.735 114.698 166.765C114.796 167.824 114.974 168.873 115.152 169.919C111.629 170.567 108.057 171.014 104.491 171.373C104.824 169.978 104.541 168.686 104.383 167.291C104.037 164.656 103.83 161.999 103.478 159.361C103.409 158.812 103.097 158.423 102.814 157.973C104.297 157.825 105.774 157.65 107.254 157.479H107.254Z" fill="#000229"/>
<path d="M100.366 169.752C99.0421 165.771 97.5835 161.831 96.3098 157.831C95.3271 157.759 94.2974 157.599 93.3147 157.696C91.4087 161.255 89.3305 164.688 87.39 168.231C87.008 168.936 86.52 169.555 85.9879 170.147C87.3213 170.369 88.6515 170.619 89.9658 170.929C89.9437 169.953 90.3538 169.23 90.8076 168.41C92.7795 168.591 94.7449 168.773 96.7135 168.967C96.9013 169.565 97.0859 170.162 97.2801 170.76C97.1642 171.017 97.0454 171.276 96.9265 171.533C98.4069 171.555 99.8875 171.54 101.368 171.54C100.923 170.989 100.57 170.438 100.366 169.752H100.366ZM92.1755 165.831C92.9331 164.463 93.6309 163.08 94.4571 161.753C94.9611 163.18 95.4085 164.626 95.8375 166.081C94.6136 166.034 93.3962 165.943 92.1755 165.831Z" fill="#000229"/>
</g>
<defs>
<clipPath id="clip0_8997_2181">
<rect width="172" height="172" fill="white" transform="translate(14 14)"/>
</clipPath>
</defs>
</svg>
