<svg width="200" height="200" viewBox="0 0 200 200" fill="none" xmlns="http://www.w3.org/2000/svg">
<path d="M171.867 26.905C171.854 26.8797 171.833 26.8588 171.807 26.845C149.968 14.2703 125.201 7.67294 99.9999 7.71751H99.9499C73.8974 7.71751 49.3574 14.4675 28.2749 26.6425C28.2327 26.6792 28.1964 26.7222 28.1674 26.77C19.5124 48.0325 12.3424 83.02 23.3499 113.893C33.0124 141.023 49.2224 158.953 67.4599 172.32C85.6974 185.688 99.2649 192.008 99.4099 192.07C99.5917 192.157 99.7818 192.226 99.9774 192.275C100.17 192.225 100.358 192.156 100.537 192.07C100.687 191.998 114.25 185.678 132.485 172.32C150.72 158.963 166.947 141.023 176.61 113.893C187.63 82.985 180.532 48.1625 171.867 26.905Z" fill="#888B8D"/>
<path d="M98.3974 187.613C97.3074 187.135 71.4974 175.613 49.9974 152.035C29.9124 130 10.2049 93.0625 30.3549 42.18L30.7924 41.0825L31.7924 40.4275C32.9349 39.6625 60.4499 21.7075 99.9249 21.7075C139.4 21.7075 166.905 39.6625 168.06 40.4275L169.04 41.0825L169.477 42.18C189.625 93.0625 169.925 130.005 149.842 152.035C128.342 175.623 102.532 187.135 101.445 187.613L99.9249 188.283L98.3974 187.613Z" fill="white"/>
<path d="M166 43.7026C165.962 43.6213 165.904 43.5508 165.832 43.4976C163.857 42.2226 137.22 25.4976 99.9074 25.4976C62.4724 25.4976 35.7824 42.3426 33.9599 43.5201C33.8986 43.5671 33.8504 43.6291 33.8199 43.7001C-3.68015 138.613 99.9074 184.168 99.9074 184.168C99.9074 184.168 203.482 138.61 166 43.7026Z" fill="#0A2240"/>
<path d="M131.057 86.03C130.74 86.1325 130.957 86.4625 131.122 86.66C131.41 86.995 133.122 89.12 133.415 89.395C133.665 89.645 133.695 89.8325 134.165 89.7775C134.629 89.6365 135.099 89.5188 135.575 89.425C136.312 89.2948 137.057 89.2113 137.805 89.175L138.212 89.1625C139.614 89.1123 141.017 89.2171 142.395 89.475C147.44 90.3175 147.895 94.51 147.917 94.6725V94.8025C147.957 95.76 148.025 97.755 145.917 99.3825C145.875 99.4153 145.843 99.4604 145.826 99.5117C145.81 99.5631 145.809 99.6183 145.825 99.67C145.837 99.7222 145.866 99.7691 145.907 99.8038C145.948 99.8385 145.999 99.859 146.052 99.8625C146.883 99.9476 147.718 99.9893 148.552 99.9875H149.25C151.237 99.9375 152.75 99.4875 153.75 98.6075C154.75 97.7275 155.272 96.4275 155.232 94.765C155.232 94.7025 155.215 88.7025 146.56 85.945C143.922 85.1025 141.125 84.925 139.237 84.925C138.411 84.9188 137.585 84.9564 136.762 85.0375C135.682 85.1112 134.607 85.2565 133.545 85.4725C132.622 85.6375 131.932 85.8 131.057 86.03Z" fill="white"/>
<path d="M155.863 125.647C155.819 125.611 155.764 125.589 155.706 125.586C155.649 125.584 155.592 125.6 155.545 125.632C152.818 127.48 149.57 128.415 145.885 128.415C143.63 128.405 141.387 128.073 139.225 127.43C138.766 127.303 138.314 127.152 137.87 126.977C137.216 126.734 136.577 126.454 135.955 126.137C134.762 125.536 133.628 124.824 132.568 124.012C132.153 123.692 131.755 123.365 131.383 123.037C128.63 120.598 126.462 117.569 125.04 114.177C123.808 111.095 123.04 108.47 123.088 104.855C123.106 103.481 123.274 102.113 123.588 100.775C123.588 100.775 123.588 100.775 123.588 100.762C123.613 100.67 123.66 100.32 123.66 100.32C123.678 100.239 123.673 100.154 123.646 100.076C123.62 99.9969 123.573 99.9267 123.51 99.8724C123.25 99.5649 119.25 94.7 119 94.4475C118.785 94.24 118.64 93.8575 118.345 93.9325C117.535 95.0329 116.84 96.2132 116.27 97.455C116.19 97.6375 116.1 97.8274 116.02 98.0124C115.973 98.1149 115.93 98.205 115.893 98.3C115.889 98.3156 115.889 98.3318 115.893 98.3475C114.735 101.17 114.188 104.392 114.283 107.93C114.283 108.027 114.683 117.93 121.94 124.7C123.862 126.498 126.017 128.028 128.348 129.25C128.795 129.48 129.223 129.685 129.663 129.887C131.464 130.709 133.349 131.334 135.285 131.75C135.863 131.872 136.39 131.97 136.86 132.037C138.059 132.224 139.27 132.319 140.483 132.322C141.017 132.328 141.551 132.304 142.083 132.25C151.035 131.925 154.998 128.142 155.94 125.96C155.961 125.906 155.965 125.847 155.951 125.791C155.937 125.735 155.906 125.685 155.863 125.647Z" fill="white"/>
<path d="M121.087 90.5851L126.857 97.7326C126.868 97.7548 126.883 97.7744 126.902 97.7901L126.97 97.8751C127.235 98.2051 127.505 98.5301 127.765 98.8576L127.887 99.0476C132.287 105.38 134.51 111.35 134.51 116.798C134.51 117.255 134.492 117.715 134.47 118.168L134.437 118.525C134.412 118.855 134.375 119.178 134.335 119.505V119.578C134.315 119.723 134.297 119.863 134.272 120.013C134.242 120.225 134.207 120.435 134.172 120.643C134.004 121.473 133.791 122.295 133.535 123.103C133.465 123.315 133.725 123.443 133.927 123.573C135.644 124.622 137.467 125.484 139.367 126.145C139.582 126.218 139.657 126.218 139.727 126.075C140.241 124.861 140.666 123.612 141 122.338C141 122.303 141.015 122.27 141.022 122.23C141.759 119.549 142.133 116.781 142.135 114C142.14 109.308 141.106 104.673 139.107 100.428C137.892 97.9057 136.444 95.5028 134.782 93.2501C134.507 92.8576 134.22 92.4726 133.932 92.0801C133.855 91.9776 133.775 91.8776 133.682 91.7701L133.462 91.4801C133.165 91.0951 132.86 90.7026 132.545 90.3176C132.387 90.1076 132.225 89.9026 132.045 89.6901C131.815 89.4251 131.592 89.1551 131.367 88.8826L130.882 88.3126C130.6 87.9751 130.315 87.6401 130.032 87.2951L128.815 85.8526C127.087 83.7926 125.357 81.7251 123.66 79.6626C118.835 73.5376 116.307 68.9476 116.16 66.0226C116.062 64.3326 116.637 63.0226 117.91 62.0226C119.28 60.9426 120.66 60.5026 122.66 60.5026C123.91 60.5026 125.3 61.1926 126.235 62.2526C127.125 63.3626 127.555 64.3701 127.555 65.3276V65.4651C127.555 66.4226 127.575 68.4251 125.43 69.9976C125.386 70.0273 125.353 70.0702 125.335 70.1201C125.317 70.1699 125.315 70.2242 125.33 70.2751C125.344 70.3272 125.373 70.374 125.413 70.4096C125.454 70.4452 125.504 70.468 125.557 70.4751C126.616 70.6088 127.683 70.6748 128.75 70.6726C132.75 70.6726 134.822 68.9626 134.872 65.5901C134.91 63.9451 134.345 61.5301 131.425 59.3751C129.19 57.7251 126.307 56.6651 123.712 56.5351C119.893 56.3269 116.108 57.3581 112.922 59.4751C109.842 61.4751 108.215 64.5151 108.215 68.2251C108.215 72.2726 110.527 77.3026 115.075 83.1826C117.098 85.641 119.102 88.1085 121.087 90.5851Z" fill="white"/>
<path d="M128.697 133.62C128.267 133.423 128.155 133.433 127.895 133.795C127.46 134.37 126.997 134.96 126.52 135.545C121.912 140.97 115.995 145.598 108.92 149.295C108.869 149.324 108.829 149.369 108.806 149.422C108.783 149.476 108.778 149.536 108.792 149.592C108.807 149.649 108.839 149.7 108.885 149.736C108.93 149.773 108.986 149.793 109.045 149.795H109.087C117.04 148.523 123.975 145.213 129.747 139.938C129.779 139.911 129.809 139.883 129.837 139.853L129.917 139.775C130.705 139.043 131.417 138.348 132.057 137.65C132.707 136.976 133.315 136.263 133.877 135.515C133.967 135.408 133.877 135.293 133.77 135.265C132.015 134.937 130.31 134.384 128.697 133.62Z" fill="white"/>
<path d="M123.6 100.775C123.6 100.775 123.6 100.775 123.6 100.763C123.6 100.75 123.602 100.773 123.6 100.775Z" fill="#0A2240"/>
<path d="M50.0574 41.2948C46.5774 42.8348 43.2149 44.4473 39.8649 46.3373C39.2221 46.7061 38.7365 47.2975 38.4999 47.9998C38.2224 48.9548 37.8749 50.0873 37.5974 51.0423C37.4524 51.5423 37.5274 51.7423 38.0599 51.5748C40.7533 50.7848 43.5416 50.1056 46.4249 49.5373C46.2974 50.0523 46.1074 50.8748 45.9849 51.3873C43.6299 52.4773 41.2474 53.7673 38.9549 55.0048C39.1174 54.3998 39.2799 53.8698 39.4549 53.2548C38.4549 53.7873 37.4549 54.4073 36.4749 54.9673C36.2074 55.8898 35.9749 56.7398 35.7249 57.6598C35.5374 58.2948 35.8624 58.4423 36.5599 58.0498C40.0974 56.0498 43.7874 54.0848 47.4674 52.4598C48.1949 52.1423 48.7549 51.5423 48.8949 50.9298C49.1199 49.9298 49.3599 48.8023 49.5849 47.8023C49.6974 47.3298 49.5574 47.1123 49.0274 47.2048C46.1349 47.7048 43.3249 48.3248 40.6224 49.0523C40.7349 48.6023 40.9949 47.8023 41.1224 47.3498C43.2574 46.1748 45.4474 45.0998 47.7874 44.0298C47.6599 44.5423 47.5374 45.0498 47.4174 45.5673C48.4174 45.1048 49.4174 44.6598 50.4174 44.2273C50.6099 43.4173 50.7899 42.6073 50.9724 41.7948C51.0699 41.1948 50.7349 40.9998 50.0574 41.2948Z" fill="white"/>
<path d="M66.8199 35.3652C62.8518 36.4652 58.9468 37.7814 55.1224 39.3077C54.3549 42.8902 53.5449 46.6852 52.7849 50.2677C53.8249 49.8477 54.8724 49.4377 55.9224 49.0477C56.4974 46.1527 57.1224 43.0077 57.6924 40.1177C59.9849 39.2602 62.2874 38.5127 64.6224 37.8077C64.4424 38.9077 64.2299 40.2227 64.0499 41.3277C61.8499 41.991 59.6666 42.7152 57.4999 43.5002C58.2099 43.8427 58.9274 44.1927 59.6649 44.5452C61.6649 43.8602 63.6774 43.2318 65.7024 42.6602C66.4349 42.4477 66.9524 41.9427 67.0324 41.3352C67.2824 39.6102 67.5624 37.7552 67.8099 36.0252C67.8999 35.4352 67.5299 35.1652 66.8199 35.3652Z" fill="white"/>
<path d="M84.8599 31.9051C80.7381 32.3932 76.6443 33.0941 72.5949 34.0051C71.8699 34.1701 71.3799 34.6676 71.3024 35.2726C70.9124 38.1101 70.5124 41.0576 70.1324 43.8426C70.0449 44.4276 70.4499 44.6976 71.2099 44.5226C75.4324 43.5617 79.7013 42.8174 83.9999 42.2926C84.7499 42.2001 85.2499 41.7751 85.3174 41.1926C85.5299 38.4301 85.7474 35.5701 85.9699 32.7551C86.0124 32.1501 85.5824 31.8151 84.8599 31.9051ZM82.0524 40.7501C79.1849 41.1526 76.3474 41.6351 73.5149 42.2351C73.7824 40.0876 74.0824 37.6251 74.3499 35.4501C76.9824 34.8976 79.8774 34.4076 82.6774 34.0176C82.4749 36.1951 82.2499 38.6201 82.0524 40.7501Z" fill="white"/>
<path d="M102.762 37.7926C103.512 37.8126 103.99 37.4676 103.972 36.8951C103.94 35.3226 103.91 33.6651 103.875 32.0751C103.875 31.4776 103.375 31.0751 102.662 31.0626C98.5021 30.961 94.3393 31.0853 90.1924 31.4351C90.0599 34.8751 89.9424 38.3401 89.7949 41.7076C90.8824 41.6226 91.9774 41.5526 93.0674 41.4951C93.1374 38.7601 93.2099 35.8426 93.2824 33.0601C95.7449 32.9201 98.2199 32.8776 100.705 32.8926C100.705 33.8926 100.72 34.9476 100.727 35.9401C98.3574 35.9226 95.9774 35.9551 93.6199 36.0726C94.1774 36.4526 99.5399 39.9876 101.68 41.3851C103.025 41.4101 104.372 41.4526 105.72 41.5226V41.4276C103.77 40.1651 102.125 38.9276 100.25 37.7576C101.202 37.7501 101.807 37.7701 102.762 37.7926Z" fill="white"/>
<path d="M106.605 33.0774C108.493 33.1749 110.387 33.3274 112.277 33.5249C112.48 36.3324 112.685 39.3324 112.885 42.0674C113.96 42.1799 115.043 42.3174 116.12 42.4524C115.893 39.7024 115.66 36.7024 115.425 33.8949C117.313 34.1449 119.207 34.4424 121.082 34.7849C121.017 34.1074 120.977 33.5774 120.902 32.8924C116.142 32.0306 111.331 31.4695 106.5 31.2124C106.54 31.8874 106.568 32.4074 106.605 33.0774Z" fill="white"/>
<path d="M124.865 43.7724C125.96 43.9949 127.055 44.2224 128.147 44.4674C127.71 41.0099 127.26 37.4174 126.81 33.9674C125.78 33.7374 124.744 33.5207 123.702 33.3174C124.09 36.7499 124.48 40.3324 124.865 43.7724Z" fill="white"/>
<path d="M143.072 45.5698C139.995 42.3198 136.902 38.8573 133.87 35.7473C132.84 35.4623 131.767 35.1723 130.73 34.9048C131.282 38.4448 131.832 42.0873 132.36 45.5098C133.452 45.7723 134.53 46.0773 135.61 46.3698C135.225 44.0273 134.812 41.4273 134.412 39.0273C137.477 42.1623 140.662 45.7123 143.775 48.9848C144.795 49.3423 145.735 49.7123 146.822 50.1348C146.14 46.7248 145.375 42.9123 144.677 39.3848C143.677 38.9973 142.677 38.6223 141.677 38.2573C142.117 40.6198 142.635 43.2498 143.072 45.5698Z" fill="white"/>
<path d="M164.032 57.3976C163.56 55.6476 162.957 53.3776 162.685 52.3651C159.985 50.8501 158.99 50.3001 155.832 48.7151L157.487 51.0451C158.91 51.7826 159.17 51.9176 160.317 52.5451C160.58 53.4051 160.87 54.4976 161.067 55.1701C158.45 53.6926 156.597 52.8051 153.957 51.5376C153.262 48.8326 152.695 46.4501 152.142 44.1776C154.842 45.4276 156.597 46.3051 159.02 47.5926C159.147 48.1351 159.327 48.8026 159.327 48.8026L162.145 50.3926C162.145 50.3926 161.745 48.9601 161.51 48.1426C161.422 47.7985 161.262 47.4768 161.041 47.1985C160.82 46.9203 160.543 46.6917 160.227 46.5276C156.685 44.6126 154.2 43.3401 149.82 41.3826C149.142 41.0776 148.762 41.3351 148.912 41.9601C149.595 44.8976 150.31 48.1876 150.995 51.1126C151.137 51.7326 151.68 52.2226 152.4 52.5376C156.172 54.2101 159.27 55.7651 162.987 57.8401C163.865 58.3201 164.29 58.3226 164.032 57.3976Z" fill="white"/>
<path d="M38.5849 31.6349C37.7774 31.2249 36.9899 30.8324 36.2174 30.4499C35.9399 31.3724 35.6574 32.3174 35.3699 33.2924C34.8124 33.5924 34.2524 33.8924 33.6924 34.2024C34.4674 31.8049 35.1924 29.5574 35.8674 27.4524C36.3674 27.2024 36.8424 26.9674 37.3249 26.7374C37.0949 27.5174 36.6099 29.1274 36.6099 29.1274L40.1099 25.3774C40.1099 25.3774 41.4299 24.8224 42.0024 24.5724C42.0024 24.5724 42.2524 24.4699 42.2524 24.4849C41.0274 25.8174 39.0649 27.9099 37.7149 29.4174C38.6724 29.8874 39.3349 30.2299 40.3499 30.7449C40.3516 30.7615 40.3516 30.7783 40.3499 30.7949C39.6699 31.1199 39.2749 31.2949 38.5849 31.6349Z" fill="white"/>
<path d="M51.4525 26.1602C51.3625 25.8702 51.2725 25.5802 51.185 25.2927C50.01 25.7277 48.8175 26.1877 47.6325 26.6727C47.365 27.1027 47.1025 27.5352 46.8325 27.9677L45.25 28.6352C45.2506 28.6293 45.2506 28.6235 45.25 28.6177C46.8133 26.1493 48.3258 23.751 49.7875 21.4227C50.2875 21.2277 50.805 21.0327 51.31 20.8477C51.78 22.4293 52.28 24.031 52.81 25.6527C52.8114 25.6576 52.8114 25.6628 52.81 25.6677L51.4525 26.1602ZM50.2725 22.3377C49.66 23.3377 49.04 24.3702 48.4075 25.4002C49.2475 25.0702 50.08 24.7452 50.9075 24.4327C50.695 23.7327 50.4775 23.0327 50.2725 22.3377Z" fill="white"/>
<path d="M64.8399 22.0298L61.6674 19.2173C61.4174 20.5048 61.1799 21.7948 60.9349 23.0998L59.3899 23.5648C59.7699 21.6498 60.1457 19.7623 60.5174 17.9023C61.0174 17.7598 61.4874 17.6198 61.9724 17.4898L65.1174 20.1798C65.3174 18.9481 65.5157 17.729 65.7124 16.5223C66.1999 16.3973 66.6799 16.2873 67.1674 16.1748C66.8891 17.9798 66.6099 19.8065 66.3299 21.6548C65.8324 21.7773 65.3424 21.9023 64.8399 22.0298Z" fill="white"/>
<path d="M80.045 19.0474C78.26 19.2957 76.4683 19.5807 74.67 19.9024C74.315 19.9699 74.1125 19.8199 74.1475 19.5074C74.2025 19.0699 74.2525 18.6249 74.305 18.1849C74.805 18.0899 75.305 17.9999 75.805 17.9174C75.7725 18.2099 75.7425 18.5049 75.7075 18.7974C76.8725 18.6024 78.03 18.4124 79.1875 18.2474C79.2075 17.9974 79.24 17.7474 79.2575 17.4974C77.7741 17.2924 76.2933 17.1132 74.815 16.9599C74.5225 16.9399 74.4575 16.8149 74.485 16.5699C74.54 16.1124 74.59 15.6549 74.6475 15.1974C74.6699 15.0418 74.7435 14.8981 74.8567 14.789C74.9699 14.6799 75.1162 14.6116 75.2725 14.5949C77.0308 14.2899 78.7808 14.0216 80.5225 13.7899C80.8625 13.7499 81.0525 13.9049 81.0225 14.2049C80.99 14.5999 80.9575 14.9974 80.9225 15.3949C80.4225 15.4624 79.9225 15.5249 79.4225 15.5974C79.445 15.3474 79.4675 15.0974 79.4975 14.8474C78.3575 15.0049 77.2125 15.1799 76.0725 15.3699C76.0475 15.5874 76.0275 15.8049 76.0025 16.0199C77.4725 16.1849 78.9475 16.3724 80.43 16.5949C80.705 16.6299 80.79 16.7674 80.765 16.9974C80.7275 17.4974 80.6825 17.9799 80.6425 18.4724C80.624 18.6223 80.5546 18.7613 80.4458 18.866C80.337 18.9707 80.1954 19.0347 80.045 19.0474Z" fill="white"/>
<path d="M94.4673 17.7502C94.3073 17.4502 94.1448 17.1527 93.9798 16.8527C92.7698 16.9077 91.5673 16.9777 90.3623 17.0702C90.1673 17.3902 89.9773 17.7102 89.7798 18.0327L88.2048 18.1652C89.3382 16.3452 90.4473 14.5427 91.5323 12.7577C92.0573 12.7202 92.5823 12.6877 93.1148 12.6602C94.0782 14.3268 95.0648 16.0035 96.0748 17.6902V17.7052C95.5423 17.6927 94.9998 17.7177 94.4673 17.7502ZM92.2798 13.7502C91.8298 14.5318 91.3765 15.3143 90.9198 16.0977C91.7748 16.0402 92.6323 15.9877 93.4848 15.9477C93.0798 15.2177 92.6723 14.4852 92.2798 13.7502Z" fill="white"/>
<path d="M110.2 18.0173C108.385 17.8848 106.56 17.7873 104.732 17.7348C104.372 17.7348 104.13 17.5248 104.122 17.2348C104.122 16.8023 104.102 16.3723 104.09 15.9398C104.607 15.9398 105.125 15.9748 105.635 15.9923C105.635 16.2798 105.655 16.5673 105.662 16.8548C106.846 16.9048 108.024 16.9665 109.197 17.0398C109.182 16.7898 109.173 16.5398 109.16 16.2898C107.583 15.7698 106.017 15.2773 104.452 14.8123C104.147 14.7273 104.057 14.5898 104.047 14.3573C104.047 13.9023 104.027 13.4623 104.02 13.0123C104.005 12.7148 104.23 12.5348 104.577 12.5448C106.362 12.6115 108.14 12.7132 109.91 12.8498C110.056 12.8409 110.199 12.8895 110.31 12.9854C110.42 13.0812 110.488 13.2166 110.5 13.3623C110.53 13.7523 110.555 14.1448 110.577 14.5298L109.077 14.4198C109.065 14.1698 109.057 13.9198 109.04 13.6873C107.885 13.6048 106.732 13.5423 105.575 13.4923C105.575 13.7048 105.575 13.9148 105.587 14.1273C107.151 14.6007 108.713 15.1007 110.275 15.6273C110.389 15.6481 110.491 15.7075 110.566 15.7954C110.641 15.8834 110.683 15.9944 110.685 16.1098C110.717 16.5948 110.745 17.0798 110.78 17.5648C110.772 17.8698 110.56 18.0423 110.2 18.0173Z" fill="white"/>
<path d="M131.067 21.1476C129.16 20.7051 127.26 20.3151 125.355 19.9676C125.203 19.9483 125.061 19.8797 124.952 19.7722C124.843 19.6647 124.772 19.5243 124.75 19.3726C124.587 17.9326 124.417 16.4951 124.25 15.0426C124.217 14.7326 124.397 14.5726 124.732 14.6326C126.599 14.9492 128.477 15.3151 130.367 15.7301C130.526 15.7595 130.672 15.8369 130.785 15.9519C130.898 16.0668 130.973 16.2136 131 16.3726C131.057 16.8726 131.127 17.3726 131.192 17.8726C130.692 17.7576 130.192 17.6459 129.692 17.5376C129.647 17.2126 129.605 16.8826 129.565 16.5576C128.295 16.2876 127.031 16.0376 125.772 15.8076C125.905 16.9301 126.035 18.0576 126.17 19.1551C127.448 19.3851 128.725 19.6434 130 19.9301C129.962 19.5901 129.915 19.2426 129.87 18.9001L131.37 19.2401C131.435 19.7551 131.504 20.2676 131.577 20.7776C131.627 21.0901 131.42 21.2301 131.067 21.1476Z" fill="white"/>
<path d="M139 23.1501C138.637 21.2751 138.282 19.4151 137.92 17.5801C138.42 17.7201 138.895 17.8651 139.385 18.0101C139.762 19.8601 140.135 21.7276 140.525 23.6151C140.02 23.4576 139.5 23.2976 139 23.1501Z" fill="white"/>
<path d="M149.905 22.4001C150.292 23.9851 150.687 25.6051 151.09 27.2601C150.575 27.0376 150.067 26.8151 149.562 26.6051C149.19 24.9951 148.812 23.4126 148.47 21.8551C147.637 21.5526 146.822 21.2676 146.017 20.9976C145.94 20.6501 145.867 20.3001 145.797 19.9551C147.847 20.6217 150.021 21.3959 152.317 22.2776C152.42 22.6676 152.53 23.0576 152.635 23.4451C151.702 23.0876 150.795 22.7351 149.905 22.4001Z" fill="white"/>
<path d="M163 30.4475C163.215 31.1575 163.5 32.265 163.72 32.9775C163.197 32.6925 162.69 32.4125 162.177 32.1425C161.975 31.4475 161.787 30.6425 161.587 29.9375C160.222 28.1575 158.805 26.16 157.537 24.5075C157.537 24.4925 157.537 24.475 157.537 24.46C158.025 24.6725 159.142 25.17 159.64 25.395C160.587 26.66 161.517 28.025 162.14 28.795C162.727 28.16 163.452 27.2125 163.452 27.2125C163.452 27.2125 164.327 27.6725 164.892 27.9625C164.9 27.9803 164.906 27.9987 164.91 28.0175C164.265 28.8375 163.632 29.6475 163 30.4475Z" fill="white"/>
<path d="M99.9148 108.412V95.3848C75.8248 96.5098 53.8648 104.345 36.6123 116.72C38.1487 120.353 39.926 123.879 41.9323 127.275C57.8898 116.555 77.9298 109.677 99.9148 108.412Z" fill="#A6BBD6"/>
<path d="M29.8975 83.8874C43.22 74.9299 58.71 68.4124 75.555 65.0749C71.93 60.7749 68.5 56.8249 65.22 53.1499C53.6167 56.2589 42.508 60.9834 32.22 67.1849C30.75 73.2899 29.97 78.5699 29.8975 83.8874Z" fill="#A6BBD6"/>
<path d="M82.5474 73.5C63.1274 76.565 45.3899 83.93 30.6299 94.455C31.0599 97.48 31.6824 100.662 32.4999 104.147C32.7499 105.237 33.0374 106.322 33.3449 107.397C49.7274 95.6825 70.1274 87.9275 92.5624 85.8975C89.0657 81.5125 85.7274 77.38 82.5474 73.5Z" fill="#A6BBD6"/>
<path d="M99.9149 166.105C94.3981 166.775 88.9377 167.848 83.5774 169.315C88.8197 172.8 94.2764 175.951 99.9149 178.75V166.105Z" fill="#A6BBD6"/>
<path d="M99.915 131.425V118.877C80.1475 120.302 62.0675 126.337 47.415 135.627C49.655 138.709 52.1 141.732 54.75 144.697C67.685 137.537 83.1275 132.815 99.915 131.425Z" fill="#A6BBD6"/>
<path d="M99.915 154.515V142.44C86.225 143.785 73.505 147.372 62.48 152.69C65.69 155.735 68.9475 158.522 72.1425 161.052C81.0846 157.702 90.4173 155.505 99.915 154.515Z" fill="#A6BBD6"/>
</svg>
