<svg width="200" height="200" viewBox="0 0 200 200" fill="none" xmlns="http://www.w3.org/2000/svg">
<path d="M185.59 113.463V107.275C185.59 107.275 181.795 106.433 175.498 105.275L178.06 95.8875C178.06 95.8875 171.71 93.815 159.728 91.6375V45.5275C159.728 45.5275 147.925 43.4325 130.895 41.98L134 32.0875L123.113 24.17L120.783 17.065L116.98 19.8025L118.43 15.3425H110.908L100 7.41504L89.0875 15.3425H81.5675L83 19.8025L79.215 17.065L76.9 24.17L66 32.0875L69.1125 41.98C52.0675 43.4325 40.2875 45.5275 40.2875 45.5275V91.6275C28.3125 93.805 21.935 95.8775 21.935 95.8775L24.5275 105.265C18.205 106.433 14.415 107.265 14.415 107.265V113.453L0.915039 127.843L14.415 137.403V145.073C14.415 145.073 25.07 143.033 40.3725 140.938C42.97 176.875 100 192.585 100 192.585C100 192.585 157.03 176.875 159.625 140.948C174.933 143.043 185.593 145.083 185.593 145.083V137.413L199.093 127.853L185.59 113.463ZM68.34 87.95C63.525 88.3525 59.06 88.8175 54.935 89.375L61.5 80.86C63.795 80.6525 66.0575 80.445 68.335 80.22L68.34 87.95ZM58.3775 78.395L52.8575 86.2175V64.67C63.1975 63.3225 80.775 61.5 100 61.5C119.225 61.5 136.813 63.3275 147.138 64.675V86.2225L141.638 78.4C133.213 77.4225 121.918 76.4 109.468 76.0275V86.7375C106.403 86.6725 103.24 86.6275 99.9975 86.6275C96.755 86.6275 93.58 86.6725 90.52 86.7375V76.0225C78.06 76.395 66.77 77.4175 58.38 78.395M131.653 80.22C133.918 80.445 136.2 80.6525 138.485 80.86L145.045 89.375C140.93 88.8175 136.465 88.3525 131.653 87.95V80.22ZM103.903 58.245L112.113 52.245C137.023 53.18 156.763 56.48 156.763 56.48V91.095C154.845 90.765 152.778 90.4075 150.613 90.1125V61.8275C142.113 60.6625 124.07 58.4775 103.903 58.245ZM43.2275 47.995C43.2275 47.995 55.5225 45.91 72.9925 44.585L69.46 33.25L79.38 26.04L80.775 21.8425L88.615 27.5L85.615 18.285H90.0275L100 11.0675L109.965 18.2925H114.375L111.395 27.5L119.228 21.84L120.605 26.0375L130.548 33.25L127 44.5775C144.47 45.9025 156.768 48 156.768 48V53.7C156.768 53.7 136.483 50.25 111.07 49.3625L100 57.4275L88.915 49.3625C63.52 50.25 43.2325 53.7 43.2325 53.7L43.2275 47.995ZM43.2275 56.495C43.2275 56.495 62.95 53.1775 87.88 52.25L96.0775 58.25C75.9125 58.4825 57.85 60.6675 49.405 61.8325V90.1125C47.2175 90.4075 45.155 90.765 43.2325 91.095L43.2275 56.495ZM100 89.5625C145.873 89.5625 174.48 97.9025 174.48 97.9025L170.828 111.153L174.48 127.403C174.48 127.403 145.87 119.068 100 119.068C54.13 119.068 25.54 127.405 25.54 127.405L29.18 111.155L25.54 97.905C25.54 97.905 54.1225 89.5625 100 89.5625ZM159.728 127.205C165.893 128.388 170.618 129.455 173.765 130.308L159.728 135.883V127.205ZM118.29 136.75H126.175V138.718H118.275C116.44 138.718 114.925 137.53 114.925 136.053V132.905C114.925 131.405 116.44 130.225 118.275 130.225H126.175V132.75L125.318 132.2H118.29C117.768 132.2 117.353 132.488 117.353 132.908V136.065C117.353 136.433 117.768 136.763 118.29 136.763M128.975 157.763V165.513C125.648 167.862 122.165 169.982 118.55 171.858L112.3 166.68C118.131 164.243 123.715 161.253 128.975 157.75M115.818 173.25C110.683 175.778 105.401 177.995 100 179.888C94.5968 178.018 89.3185 175.805 84.1975 173.263L90.5225 168.013V122.128C93.6075 122.06 96.75 122.035 100 122.035C103.25 122.035 106.405 122.06 109.47 122.128V168L115.818 173.25ZM52.86 131V125.185C57.57 124.503 62.7075 123.9 68.3425 123.41V150.945C68.3425 150.945 54.2175 141.023 52.86 130.995M68.3425 155.915V163.545C60.285 157.37 53.7475 149.593 52.96 140.32C55.21 143.855 59.83 149.74 68.3425 155.915ZM83.25 133.523V135.438H76.75V138.028L77.55 138.728H73.6025L74.3775 138.028V130.905L73.6025 130.225H85.27V132.75L84.43 132.2H76.7725V133.525L83.25 133.523ZM71.025 157.75C76.29 161.246 81.8771 164.23 87.71 166.663L81.46 171.84C77.8397 169.97 74.3531 167.851 71.025 165.5V157.75ZM131.653 155.913C140.168 149.738 144.785 143.853 147.05 140.318C146.24 149.59 139.728 157.368 131.653 163.543V155.913ZM131.653 150.943V123.41C137.303 123.91 142.44 124.503 147.135 125.185V131C145.788 141.028 131.653 150.95 131.653 150.95M40.275 135.883L26.2225 130.308C29.3875 129.465 34.1075 128.388 40.275 127.205V135.883ZM17.3575 141.535V135.925L5.34504 127.405L17.3575 114.655V109.68C17.3575 109.68 20.2975 109.028 25.2775 108.113L26.1375 111.235L21.5675 131.625L38.2175 138.25C25.7175 140 17.3575 141.538 17.3575 141.538M156.768 138.4C156.768 173.25 100 189.53 100 189.53C100 189.53 43.2325 173.25 43.2325 138.398V126.7C45.1625 126.338 47.2175 125.975 49.405 125.673V138.398C49.405 165.108 91.0325 180.148 99.9975 183.053C108.943 180.155 150.618 165.108 150.618 138.398V125.673C152.783 125.975 154.85 126.338 156.768 126.7V138.4ZM182.653 135.928V141.538C182.653 141.538 174.285 140 161.805 138.25L178.443 131.628L173.865 111.235L174.723 108.113C179.69 109.028 182.653 109.68 182.653 109.68V114.655L194.64 127.405L182.653 135.928Z" fill="white"/>
<path d="M82.9901 30.3701L76.0276 35.3776L78.8601 44.1401L87.2226 43.7101L89.9301 35.3776L82.9901 30.3701Z" fill="white"/>
<path d="M104.293 31.1823L106.95 23.0198L100.003 18.0073L93.0352 23.0198L95.6802 31.1823H104.293Z" fill="white"/>
<path d="M121.128 44.1377L123.978 35.3802L117.015 30.3677L110.05 35.3802L112.763 43.7102L121.128 44.1377Z" fill="white"/>
<path d="M106.95 45.4349L104.292 37.2749H95.68L93.0325 45.4349L100.002 50.4749L106.95 45.4349Z" fill="white"/>
<path d="M95.0001 111.067H103.25C104.238 111.055 105.182 110.655 105.877 109.953C106.573 109.252 106.966 108.305 106.97 107.317V99.7974C106.966 98.8092 106.574 97.8621 105.878 97.1606C105.182 96.459 104.238 96.0592 103.25 96.0474H95.0001C94.0052 96.0506 93.0517 96.4463 92.3467 97.1484C91.6418 97.8506 91.2423 98.8024 91.2351 99.7974V107.325C91.243 108.32 91.6427 109.271 92.3475 109.973C93.0523 110.675 94.0054 111.071 95.0001 111.075M94.3426 99.7774C94.3425 99.6765 94.3628 99.5767 94.4022 99.4839C94.4416 99.391 94.4993 99.3071 94.5719 99.2371C94.6445 99.1671 94.7304 99.1124 94.8246 99.0764C94.9188 99.0403 95.0193 99.0237 95.1201 99.0274H103.1C103.308 99.0192 103.51 99.0936 103.662 99.2341C103.815 99.3747 103.906 99.57 103.915 99.7774V107.345C103.909 107.556 103.82 107.756 103.667 107.902C103.515 108.049 103.311 108.129 103.1 108.127H95.1126C95.0102 108.127 94.9088 108.107 94.8143 108.067C94.7198 108.028 94.634 107.97 94.5618 107.897C94.4896 107.824 94.4324 107.738 94.3935 107.644C94.3546 107.549 94.3348 107.447 94.3351 107.345L94.3426 99.7774Z" fill="white"/>
<path d="M152.465 114.92L160.715 116.323C162.79 116.675 164.465 115.253 164.465 113.198V105.75C164.465 103.69 162.78 101.728 160.715 101.39L152.465 100.005C150.41 99.6351 148.715 101.005 148.715 103.093V110.5C148.747 111.552 149.135 112.562 149.817 113.364C150.498 114.165 151.432 114.712 152.465 114.913M151.823 103.555C151.818 103.461 151.835 103.366 151.873 103.279C151.911 103.193 151.968 103.116 152.041 103.056C152.114 102.995 152.2 102.952 152.292 102.931C152.385 102.91 152.481 102.91 152.573 102.933L160.573 104.288C160.785 104.331 160.977 104.445 161.118 104.61C161.258 104.775 161.339 104.983 161.348 105.2V112.713C161.354 112.812 161.337 112.911 161.299 113.002C161.261 113.094 161.202 113.175 161.127 113.24C161.052 113.305 160.962 113.352 160.866 113.377C160.77 113.401 160.67 113.403 160.573 113.383L152.573 111.998C152.366 111.948 152.181 111.833 152.046 111.669C151.91 111.506 151.832 111.302 151.823 111.09V103.555Z" fill="white"/>
<path d="M55.8376 113.75L64.0876 112.78C66.1276 112.547 67.8126 110.685 67.8126 108.647V101.185C67.8126 99.1473 66.1276 97.6848 64.0876 97.9023L55.8376 98.8448C53.7701 99.0773 52.0876 100.922 52.0876 102.982V110.427C52.0876 112.507 53.7776 113.965 55.8376 113.76M55.1976 102.605C55.1992 102.392 55.2771 102.188 55.4171 102.028C55.557 101.868 55.7498 101.764 55.9601 101.735L63.9601 100.822C64.0569 100.81 64.1553 100.819 64.2482 100.848C64.3412 100.878 64.4265 100.928 64.4981 100.994C64.5697 101.06 64.6258 101.142 64.6624 101.232C64.6991 101.322 64.7154 101.42 64.7101 101.517V109.017C64.7087 109.228 64.6326 109.432 64.4953 109.592C64.358 109.752 64.1684 109.859 63.9601 109.892L55.9601 110.82C55.8595 110.832 55.7576 110.821 55.6616 110.789C55.5656 110.756 55.478 110.703 55.4051 110.633C55.3321 110.562 55.2757 110.477 55.2398 110.382C55.204 110.287 55.1896 110.186 55.1976 110.085V102.605Z" fill="white"/>
<path d="M40.0674 104.297V114.96L38.8349 116.42L44.4074 115.4L43.1474 114.385V103.71L48.2624 102.855L49.4749 103.865V99.6748L33.7524 102.485V106.627L34.9774 105.205L40.0674 104.297Z" fill="white"/>
<path d="M136.695 100.978V111.673L135.467 112.758L141.002 113.363L139.795 112.005V101.33L144.88 101.88L146.102 103.258V99.0778L130.377 97.3853V101.553L131.597 100.438L136.695 100.978Z" fill="white"/>
<path d="M109.575 111.172L115.152 111.357L113.887 110.047V100.537L122.575 111.722L127.76 112.067L126.552 110.827V98.3399L127.76 97.1774L122.22 96.7699L123.457 98.0849V107.715L114.795 96.4399L109.575 96.2549L110.795 97.5599V109.98L109.575 111.172Z" fill="white"/>
<path d="M70.435 112.25L75.985 111.822L74.75 110.677V107.387L83.5275 106.92C83.6287 106.91 83.7309 106.922 83.8272 106.954C83.9235 106.987 84.0116 107.04 84.0858 107.11C84.1599 107.179 84.2183 107.264 84.2569 107.358C84.2956 107.452 84.3137 107.553 84.31 107.655V110.117L83.085 111.417L88.6125 111.232L87.405 110.047V107.68C87.4113 107.126 87.2419 106.584 86.9213 106.132C86.6006 105.68 86.1451 105.342 85.62 105.165C86.1371 104.927 86.5778 104.551 86.8931 104.077C87.2083 103.603 87.3855 103.051 87.405 102.482V100.02C87.4085 99.5378 87.3119 99.0602 87.1213 98.6173C86.9308 98.1745 86.6504 97.776 86.298 97.447C85.9455 97.1181 85.5286 96.8658 85.0737 96.7062C84.6188 96.5467 84.1357 96.4832 83.655 96.5199L70.4275 97.3324L71.66 98.4799V110.947L70.435 112.25ZM74.75 99.9099L83.5275 99.4224C83.6296 99.4138 83.7325 99.427 83.8291 99.4612C83.9258 99.4954 84.014 99.5498 84.0881 99.6207C84.1621 99.6917 84.2201 99.7775 84.2584 99.8727C84.2967 99.9678 84.3143 100.07 84.31 100.172V103.142C84.306 103.356 84.2245 103.562 84.0806 103.72C83.9367 103.879 83.7402 103.98 83.5275 104.005L74.75 104.48V99.9099Z" fill="white"/>
<path d="M68.3401 80.2202C66.0651 80.4452 63.8026 80.6527 61.5076 80.8602L54.9326 89.3752C59.0626 88.8177 63.5276 88.3527 68.3401 87.9502V80.2202Z" fill="#A2A9AD"/>
<path d="M52.8601 131C54.2176 141.028 68.3401 150.95 68.3401 150.95V123.41C62.7076 123.91 57.5701 124.503 52.8601 125.185V131Z" fill="#A2A9AD"/>
<path d="M71.0251 165.5C74.3532 167.854 77.8408 169.974 81.4626 171.845L87.7126 166.665C81.8785 164.233 76.2905 161.247 71.0251 157.75V165.5Z" fill="#A2A9AD"/>
<path d="M138.485 80.8602C136.2 80.6527 133.92 80.4452 131.653 80.2202V87.9502C136.465 88.3552 140.925 88.8177 145.048 89.3777L138.485 80.8602Z" fill="#A2A9AD"/>
<path d="M131.653 150.945C131.653 150.945 145.788 141.023 147.135 130.995V125.185C142.44 124.508 137.303 123.9 131.653 123.408V150.945Z" fill="#A2A9AD"/>
<path d="M118.55 171.842C122.165 169.968 125.648 167.849 128.975 165.5V157.75C123.713 161.246 118.127 164.23 112.295 166.66L118.55 171.842Z" fill="#A2A9AD"/>
<path d="M96.0975 101.567C96.0994 101.355 96.1842 101.152 96.3337 101.002C96.4831 100.852 96.6855 100.766 96.8975 100.762H102.897V100.012H96.0775C95.9778 100.01 95.8786 100.028 95.7859 100.065C95.6931 100.102 95.6087 100.157 95.5374 100.227C95.4662 100.297 95.4096 100.38 95.371 100.472C95.3324 100.564 95.3125 100.663 95.3125 100.762V107.167H96.0975V101.567Z" fill="#A2A9AD"/>
<path d="M107.955 99.7977V107.325C107.949 108.571 107.452 109.765 106.57 110.646C105.689 111.527 104.496 112.024 103.25 112.03H95C94.808 112.035 94.6159 112.026 94.425 112.005C95.0834 112.54 95.9067 112.831 96.755 112.828H104.04C105.288 112.825 106.484 112.328 107.367 111.446C108.249 110.564 108.747 109.368 108.75 108.12V101.573C108.757 100.734 108.46 99.9204 107.915 99.2827C107.915 99.4227 107.945 99.6227 107.945 99.7977" fill="#A2A9AD"/>
<path d="M153.603 105.645C153.602 105.551 153.622 105.457 153.663 105.372C153.703 105.287 153.762 105.211 153.836 105.152C153.91 105.093 153.996 105.051 154.088 105.03C154.18 105.009 154.275 105.009 154.368 105.03L160.385 106.05V105.265L153.563 104.078C153.469 104.059 153.372 104.061 153.279 104.084C153.186 104.108 153.099 104.151 153.025 104.213C152.951 104.274 152.892 104.351 152.852 104.438C152.812 104.524 152.791 104.619 152.793 104.715V111.07L153.603 111.2V105.645Z" fill="#A2A9AD"/>
<path d="M165.395 105.362C165.445 105.556 165.466 105.755 165.455 105.955V113.39C165.455 115.967 163.317 117.747 160.705 117.297L152.455 115.92C152.262 115.857 152.09 115.807 151.897 115.747C152.529 116.392 153.346 116.822 154.235 116.977L161.515 118.227C164.117 118.682 166.232 116.927 166.232 114.38V107.86C166.222 106.958 165.926 106.082 165.385 105.36" fill="#A2A9AD"/>
<path d="M56.17 103.478V109.803L56.9575 109.73V104.198C56.9583 103.98 57.0398 103.771 57.1863 103.61C57.3327 103.449 57.5336 103.349 57.75 103.328L63.75 102.64V101.833L56.94 102.605C56.7291 102.636 56.5359 102.741 56.3946 102.9C56.2533 103.06 56.1728 103.264 56.1675 103.478" fill="#A2A9AD"/>
<path d="M68.7925 101.073V108.535C68.7925 111.135 66.6724 113.535 64.0924 113.77L55.8424 114.743C55.6497 114.762 55.4561 114.769 55.2625 114.765C55.9481 115.245 56.7926 115.442 57.6199 115.315L64.8949 114.508C67.5199 114.21 69.6175 111.86 69.6175 109.27V102.805C69.6261 101.974 69.332 101.168 68.79 100.538C68.79 100.7 68.79 100.875 68.79 101.073" fill="#A2A9AD"/>
<path d="M35.5376 108.12L36.7526 106.653L39.0801 106.25V105.448L35.5376 106.05V108.12Z" fill="#A2A9AD"/>
<path d="M44.1274 104.563V113.838L44.9449 114.49V105.205L48.6549 104.563L47.8449 103.89L44.1274 104.563Z" fill="#A2A9AD"/>
<path d="M50.4675 104.655L51.2675 105.318V101.158L50.4675 101.333V104.655Z" fill="#A2A9AD"/>
<path d="M41.425 116.897L40.625 117.852L46.165 116.882L45.3575 116.235L41.425 116.897Z" fill="#A2A9AD"/>
<path d="M133.408 102.41L135.728 102.68V101.87L132.16 101.478V103.505L133.408 102.41Z" fill="#A2A9AD"/>
<path d="M144.47 102.813L140.782 102.385V111.695L141.582 112.61V103.328L145.29 103.695L144.47 102.813Z" fill="#A2A9AD"/>
<path d="M147.11 104.297L147.898 105.205V101.065L147.11 100.962V104.297Z" fill="#A2A9AD"/>
<path d="M137.268 114.742L142.815 115.317L142.005 114.435L138.063 114.022L137.268 114.742Z" fill="#A2A9AD"/>
<path d="M123.703 112.79L124.363 113.613L129.55 113.965L128.763 113.11L123.703 112.79Z" fill="#A2A9AD"/>
<path d="M127.53 110.463L128.323 111.275V100.23L129.55 99.0775L127.53 98.9375V110.463Z" fill="#A2A9AD"/>
<path d="M116.11 112.385L112.175 112.292L111.353 113.035L116.913 113.235L116.11 112.385Z" fill="#A2A9AD"/>
<path d="M115.68 104.408L114.885 103.345V109.728L115.68 110.55V104.408Z" fill="#A2A9AD"/>
<path d="M89.1851 110.365V109.365C89.1875 109.007 89.1178 108.652 88.9799 108.322C88.842 107.991 88.6388 107.692 88.3826 107.442V109.625L89.1851 110.365Z" fill="#A2A9AD"/>
<path d="M76.54 109.113L83.3225 108.723V107.913L75.75 108.325V110.19L76.54 110.975V109.113Z" fill="#A2A9AD"/>
<path d="M76.9625 112.757L73.0325 113.087L72.23 113.932L77.7675 113.537L76.9625 112.757Z" fill="#A2A9AD"/>
<path d="M87.3325 105.055C87.4761 105.22 87.6113 105.393 87.7375 105.572C88.1732 105.306 88.5345 104.934 88.7876 104.491C89.0407 104.048 89.1774 103.548 89.185 103.037V101.702C89.1917 100.866 88.895 100.056 88.35 99.4224C88.3781 99.6034 88.389 99.7867 88.3825 99.9699V102.385C88.37 103.373 87.9966 104.323 87.3325 105.055Z" fill="#A2A9AD"/>
<path d="M76.54 101.572L83.3225 101.185V100.425L75.75 100.822V103.422L76.54 103.367V101.572Z" fill="#A2A9AD"/>
<path d="M85.6676 112.28L84.8726 113.11L90.4251 112.91L89.6276 112.143L85.6676 112.28Z" fill="#A2A9AD"/>
<path d="M182.652 114.652V109.675C182.652 109.675 179.69 109.025 174.722 108.11L173.865 111.235L178.442 131.622L161.805 138.25C174.285 140 182.652 141.537 182.652 141.537V135.925L194.64 127.405L182.652 114.652Z" fill="#AA182C"/>
<path d="M26.1374 111.232L25.2774 108.11C20.2974 109.025 17.3574 109.677 17.3574 109.677V114.652L5.35742 127.402L17.3574 135.922V141.532C17.3574 141.532 25.7149 140 38.2174 138.25L21.5674 131.625L26.1374 111.232Z" fill="#AA182C"/>
<path d="M49.4049 61.8276C57.8499 60.6626 75.9049 58.4776 96.0774 58.2451L87.8799 52.2451C62.9499 53.1826 43.2324 56.4826 43.2324 56.4826V91.0951C45.1624 90.7651 47.2174 90.4076 49.4049 90.1126V61.8276Z" fill="#AA182C"/>
<path d="M156.767 91.0927V56.4802C156.767 56.4802 137.017 53.1777 112.117 52.2427L103.907 58.2427C124.075 58.4752 142.13 60.6602 150.615 61.8252V90.1127C152.782 90.4077 154.85 90.7652 156.767 91.0927Z" fill="#AA182C"/>
<path d="M150.617 138.397C150.617 165.107 108.942 180.147 99.9975 183.052C91.0325 180.155 49.405 165.107 49.405 138.397V125.672C47.2175 125.977 45.155 126.337 43.23 126.7V138.397C43.23 173.25 100 189.53 100 189.53C100 189.53 156.77 173.25 156.77 138.397V126.7C154.85 126.337 152.77 125.977 150.617 125.672V138.397Z" fill="#AA182C"/>
<path d="M99.9999 57.4273L111.072 49.3623C136.485 50.2398 156.772 53.6998 156.772 53.6998V47.9848C156.772 47.9848 144.472 45.9048 126.992 44.5773L130.547 33.2498L120.605 26.0398L119.225 21.8473L111.395 27.4998L114.372 18.2798H109.96L99.9999 11.0698L90.0324 18.2898H85.6224L88.6224 27.5098L80.7749 21.8473L79.3799 26.0448L69.4599 33.2498L72.9999 44.5773C55.5299 45.9048 43.2324 47.9848 43.2324 47.9848V53.6998C43.2324 53.6998 63.5199 50.2498 88.9149 49.3623L99.9999 57.4273ZM117.017 30.3673L123.98 35.3798L121.13 44.1298L112.765 43.7023L110.05 35.3798L117.017 30.3673ZM99.9999 17.9998L106.952 22.9998L104.295 31.1648H95.6774L93.0324 23.0198L99.9999 17.9998ZM95.6799 37.2698H104.295L106.952 45.4273L99.9999 50.4748L93.0349 45.4348L95.6799 37.2698ZM78.8624 44.1298L76.0299 35.3798L82.9999 30.3673L89.9399 35.3798L87.2274 43.7098L78.8624 44.1298Z" fill="#AA182C"/>
<path d="M152.577 112L160.577 113.385C160.675 113.406 160.775 113.403 160.871 113.379C160.967 113.354 161.056 113.307 161.132 113.243C161.207 113.178 161.266 113.096 161.304 113.005C161.342 112.913 161.359 112.814 161.352 112.715V105.207C161.344 104.991 161.263 104.783 161.122 104.618C160.982 104.453 160.79 104.34 160.577 104.297L152.577 102.937C152.485 102.916 152.389 102.915 152.297 102.937C152.205 102.959 152.119 103.002 152.046 103.062C151.973 103.123 151.916 103.2 151.878 103.287C151.84 103.373 151.823 103.468 151.827 103.562V111.1C151.837 111.312 151.915 111.515 152.05 111.679C152.186 111.842 152.371 111.957 152.577 112.005M152.792 104.715C152.792 104.619 152.812 104.524 152.853 104.438C152.893 104.351 152.952 104.274 153.026 104.213C153.1 104.152 153.186 104.107 153.279 104.084C153.372 104.06 153.468 104.057 153.562 104.075L160.382 105.265V106.047L154.367 105.032C154.275 105.011 154.18 105.01 154.088 105.031C153.995 105.052 153.909 105.094 153.836 105.153C153.762 105.213 153.703 105.288 153.663 105.374C153.623 105.459 153.603 105.553 153.605 105.647V111.197L152.792 111.07V104.715Z" fill="#AA182C"/>
<path d="M25.5376 127.405C25.5376 127.405 54.1201 119.067 100 119.067C145.88 119.067 174.475 127.405 174.475 127.405L170.825 111.155L174.475 97.905C174.475 97.905 145.87 89.5625 100 89.5625C54.1301 89.5625 25.5401 97.9025 25.5401 97.9025L29.1801 111.152L25.5376 127.405ZM35.5376 108.12V106.05L39.0801 105.448V106.25L36.7501 106.652L35.5376 108.12ZM40.6201 117.853L41.4226 116.897L45.3626 116.25L46.1651 116.895L40.6201 117.853ZM44.9426 105.207V114.5L44.1301 113.848V104.573L47.8476 103.9L48.6551 104.573L44.9426 105.207ZM72.2301 113.933L73.0326 113.088L76.9626 112.75L77.7676 113.53L72.2301 113.933ZM76.5401 110.975L75.7501 110.188V108.325L83.3251 107.912V108.723L76.5426 109.113L76.5401 110.975ZM111.353 113.035L112.175 112.285L116.11 112.378L116.913 113.228L111.353 113.035ZM115.68 110.55L114.885 109.73V103.345L115.68 104.408V110.55ZM124.363 113.613L123.703 112.79L128.763 113.11L129.55 113.965L124.363 113.613ZM132.163 103.5V101.473L135.728 101.865V102.675L133.41 102.405L132.163 103.5ZM137.268 114.75L138.063 114.025L142 114.438L142.808 115.317L137.268 114.75ZM141.583 103.332V112.613L140.783 111.702V102.387L144.468 102.812L145.29 103.695L141.583 103.332ZM166.25 107.86V114.372C166.25 116.92 164.14 118.675 161.538 118.22L154.258 116.97C153.368 116.814 152.549 116.383 151.918 115.738C152.115 115.8 152.285 115.85 152.475 115.912L160.725 117.29C163.338 117.74 165.475 115.96 165.475 113.38V105.955C165.486 105.756 165.465 105.556 165.415 105.363C165.955 106.085 166.25 106.961 166.258 107.863M148.735 103.113C148.735 101.028 150.43 99.6525 152.485 100.022L160.735 101.408C162.81 101.748 164.485 103.707 164.485 105.765V113.21C164.485 115.262 162.8 116.69 160.735 116.335L152.485 114.935C151.452 114.733 150.518 114.186 149.836 113.383C149.155 112.58 148.767 111.57 148.735 110.518V103.113ZM147.13 100.975L147.918 101.077V105.22L147.13 104.31V100.975ZM130.398 97.3975L146.123 99.09V103.25L144.9 101.872L139.815 101.323V112L141.023 113.36L135.465 112.75L136.698 111.665V100.978L131.598 100.435L130.378 101.552L130.398 97.3975ZM128.343 100.243V111.275L127.55 110.463V98.94L129.57 99.0775L128.343 100.243ZM109.593 96.2675L114.815 96.4525L123.478 107.728V98.085L122.24 96.7725L127.783 97.18L126.575 98.34V110.827L127.783 112.065L122.59 111.723L113.908 100.537V110.037L115.158 111.35L109.583 111.168L110.803 109.973V97.56L109.593 96.2675ZM108.75 101.573V108.12C108.747 109.371 108.247 110.57 107.361 111.453C106.474 112.336 105.274 112.831 104.023 112.83H96.7501C95.901 112.833 95.0774 112.54 94.4201 112.003C94.611 112.024 94.8031 112.032 94.9951 112.027H103.245C104.493 112.026 105.69 111.53 106.573 110.649C107.457 109.768 107.957 108.573 107.963 107.325V99.7975C107.963 99.6225 107.933 99.4225 107.933 99.285C108.478 99.9216 108.775 100.734 108.768 101.573M91.2351 99.7975C91.2423 98.8026 91.6418 97.8507 92.3467 97.1486C93.0517 96.4464 94.0052 96.0508 95.0001 96.0475H103.25C104.239 96.0587 105.183 96.4582 105.88 97.1598C106.576 97.8615 106.969 98.8089 106.973 99.7975V107.325C106.967 108.313 106.574 109.26 105.878 109.961C105.182 110.663 104.238 111.063 103.25 111.075H95.0001C94.0056 111.07 93.0528 110.674 92.3482 109.973C91.6435 109.271 91.2436 108.32 91.2351 107.325V99.7975ZM90.4351 112.912L84.8801 113.11L85.6751 112.28L89.6351 112.14L90.4351 112.912ZM88.3901 107.435C88.6461 107.685 88.8491 107.984 88.987 108.315C89.1249 108.645 89.1948 109 89.1926 109.357V110.357L88.3901 109.607V107.425V107.435ZM89.1926 101.702V103.037C89.1855 103.547 89.0496 104.047 88.7974 104.491C88.5451 104.934 88.1849 105.306 87.7501 105.573C87.6245 105.393 87.4893 105.22 87.3451 105.055C88.0086 104.324 88.382 103.375 88.3951 102.387V99.97C88.4016 99.7869 88.3907 99.6036 88.3626 99.4225C88.9076 100.056 89.2043 100.867 89.1976 101.702M70.4476 97.3225L83.6776 96.515C84.1585 96.4776 84.6419 96.5405 85.0972 96.6998C85.5524 96.8591 85.9696 97.1113 86.3222 97.4404C86.6748 97.7695 86.9552 98.1683 87.1455 98.6115C87.3357 99.0548 87.4318 99.5327 87.4276 100.015V102.48C87.4082 103.048 87.2312 103.6 86.9165 104.073C86.6017 104.546 86.1615 104.923 85.6451 105.16C86.1699 105.337 86.6251 105.676 86.9454 106.128C87.2656 106.579 87.4344 107.121 87.4276 107.675V110.04L88.6376 111.228L83.1101 111.415L84.3376 110.113V107.65C84.3406 107.548 84.3218 107.447 84.2826 107.353C84.2433 107.259 84.1845 107.174 84.11 107.105C84.0355 107.035 83.947 106.982 83.8505 106.949C83.7539 106.917 83.6515 106.905 83.5501 106.915L74.7501 107.387V110.68L75.9826 111.823L70.4326 112.25L71.6676 110.94V98.4725L70.4476 97.3225ZM69.6276 102.805V109.27C69.6276 111.86 67.5301 114.212 64.9051 114.507L57.6301 115.317C56.8026 115.441 55.9592 115.243 55.2726 114.765C55.4653 114.769 55.6581 114.762 55.8501 114.745L64.1001 113.77C66.6801 113.537 68.8001 111.138 68.8001 108.533V101.073C68.8001 100.875 68.8001 100.7 68.8001 100.537C69.3415 101.168 69.6347 101.974 69.6251 102.805M52.0926 102.982C52.0926 100.922 53.7826 99.0775 55.8426 98.845L64.0926 97.9025C66.1326 97.6925 67.8176 99.1525 67.8176 101.185V108.658C67.8176 110.695 66.1326 112.558 64.0926 112.79L55.8426 113.762C53.7776 113.965 52.0926 112.513 52.0926 110.425V102.982ZM50.4801 101.33L51.2801 101.158V105.317L50.4801 104.655V101.33ZM33.7501 102.485L49.4751 99.675V103.865L48.2626 102.865L43.1476 103.72V114.395L44.3976 115.41L38.8251 116.43L40.0576 114.97V104.298L34.9651 105.207L33.7501 106.628V102.485Z" fill="#AA182C"/>
<path d="M84.315 103.14V100.168C84.3185 100.065 84.3003 99.9626 84.2614 99.8675C84.2226 99.7724 84.164 99.6866 84.0897 99.6157C84.0153 99.5449 83.9267 99.4906 83.8298 99.4564C83.7329 99.4223 83.6299 99.409 83.5275 99.4176L74.75 99.9101V104.483L83.5275 104C83.7407 103.975 83.9378 103.875 84.0825 103.716C84.2272 103.558 84.3098 103.352 84.315 103.138M83.315 101.183L76.5325 101.57V103.365L75.74 103.42V100.818L83.315 100.425V101.183Z" fill="#AA182C"/>
<path d="M55.96 110.828L63.96 109.9C64.1683 109.867 64.3579 109.76 64.4952 109.6C64.6324 109.44 64.7086 109.236 64.71 109.025V101.525C64.7151 101.428 64.6988 101.33 64.6621 101.239C64.6255 101.149 64.5695 101.067 64.4981 101.001C64.4266 100.934 64.3414 100.884 64.2484 100.853C64.1555 100.823 64.057 100.813 63.96 100.825L55.96 101.74C55.7497 101.771 55.5572 101.875 55.4173 102.035C55.2775 102.195 55.1995 102.4 55.1975 102.613V110.1C55.1894 110.201 55.2038 110.303 55.2397 110.397C55.2756 110.492 55.332 110.578 55.4049 110.648C55.4778 110.718 55.5655 110.772 55.6614 110.804C55.7574 110.836 55.8594 110.847 55.96 110.835M56.17 103.485C56.1754 103.272 56.2558 103.068 56.3971 102.908C56.5385 102.748 56.7316 102.644 56.9425 102.613L63.75 101.833V102.64L57.75 103.328C57.5336 103.349 57.3327 103.449 57.1863 103.61C57.0399 103.771 56.9583 103.98 56.9575 104.198V109.73L56.17 109.803V103.485Z" fill="#AA182C"/>
<path d="M95.1125 108.12H103.09C103.301 108.123 103.505 108.042 103.658 107.897C103.811 107.751 103.9 107.551 103.907 107.34V99.7673C103.898 99.5595 103.807 99.3638 103.654 99.2232C103.501 99.0825 103.298 99.0085 103.09 99.0173H95.1125C95.0117 99.0136 94.9112 99.0303 94.817 99.0663C94.7228 99.1023 94.6368 99.157 94.5643 99.227C94.4917 99.297 94.434 99.381 94.3946 99.4738C94.3552 99.5666 94.3349 99.6665 94.335 99.7673V107.34C94.335 107.546 94.4168 107.744 94.5625 107.89C94.7083 108.037 94.906 108.119 95.1125 108.12ZM95.3125 100.757C95.3124 100.658 95.3323 100.559 95.3709 100.467C95.4096 100.375 95.4662 100.291 95.5374 100.222C95.6086 100.152 95.6931 100.097 95.7858 100.06C95.8786 100.023 95.9777 100.005 96.0775 100.007H102.907V100.757H96.9075C96.6954 100.761 96.4931 100.847 96.3436 100.997C96.1941 101.147 96.1094 101.35 96.1075 101.562V107.157H95.3225L95.3125 100.757Z" fill="#AA182C"/>
<path d="M84.43 132.195L85.27 132.748V130.223H73.6025L74.3775 130.905V138.028L73.6025 138.728H77.5725L76.7725 138.028V135.44H83.26V133.523H76.7725V132.195H84.43Z" fill="#AA182C"/>
<path d="M118.29 132.198H125.318L126.175 132.748V130.225H118.275C116.44 130.225 114.925 131.42 114.925 132.905V136.063C114.925 137.54 116.44 138.728 118.275 138.728H126.175V136.75H118.29C117.768 136.75 117.353 136.418 117.353 136.053V132.905C117.353 132.485 117.768 132.198 118.29 132.198Z" fill="#AA182C"/>
<path d="M159.728 127.208V135.883L173.765 130.308C170.618 129.468 165.893 128.388 159.728 127.208Z" fill="#323E48"/>
<path d="M40.2752 135.883V127.208C34.1077 128.388 29.3852 129.458 26.2227 130.308L40.2752 135.883Z" fill="#323E48"/>
<path d="M52.96 140.32C53.7475 149.592 60.285 157.37 68.34 163.542V155.917C59.84 149.74 55.2175 143.855 52.96 140.32Z" fill="#323E48"/>
<path d="M131.653 155.917V163.545C139.728 157.372 146.238 149.59 147.055 140.32C144.785 143.852 140.168 149.737 131.653 155.917Z" fill="#323E48"/>
<path d="M52.8601 64.67V86.2175L58.3801 78.395C66.7676 77.4175 78.0601 76.395 90.5251 76.02V86.7325C93.5801 86.67 96.7451 86.6225 99.9976 86.6225C103.25 86.6225 106.4 86.67 109.468 86.7325V76.02C121.918 76.3975 133.218 77.4175 141.643 78.395L147.143 86.2175V64.67C136.81 63.3225 119.215 61.5 100 61.5C80.7851 61.5 63.2001 63.33 52.8626 64.6775" fill="#323E48"/>
<path d="M109.468 122.127C106.401 122.061 103.246 122.029 100.003 122.032C96.7526 122.032 93.6051 122.06 90.5251 122.127V168L84.1951 173.25C89.3156 175.799 94.5949 178.016 100 179.887C105.399 177.998 110.679 175.786 115.813 173.262L109.465 168.012L109.468 122.127Z" fill="#323E48"/>
</svg>
