<svg width="180" height="180" viewBox="0 0 180 180" fill="none" xmlns="http://www.w3.org/2000/svg">
<path d="M129.34 26.58L130.46 19.5L132.23 8.26999L123.46 15.5L113.11 24.03H104.31L102.9 21.54C99.9999 16.44 96.87 11.35 93.59 6.40997L90 1L86.4099 6.40997C83.1299 11.35 80 16.44 77.1 21.54L75.6899 24.03H66.89L56.5399 15.5L47.77 8.26999L49.5399 19.5L50.6599 26.58H32.51V120.5L32.5299 120.59V120.68C33.6599 134.65 43.18 148.1 60.84 160.67C72.37 168.87 85.8799 175.03 86.4399 175.28L87.33 175.68L88.22 176.08L90 176.89L91.7799 176.08L92.6699 175.68L93.5599 175.28C94.1299 175.02 107.64 168.86 119.16 160.67C136.82 148.11 146.34 134.66 147.47 120.69V120.62V120.61V120.51V120.34L147.48 120.17V26.6H129.33L129.34 26.58ZM53.02 41.67H47.58V74.52L60.1 59.6C59.72 56.96 59.34 54.32 58.97 51.68C58.75 49.91 61.56 47.14 63.2 46.92C61.59 47.13 57.9999 45.54 57.6899 43.58L53.7799 18.81L66.77 29.51H60.24L60.5599 31.51C60.9099 34.25 64.2299 36.18 67.7999 35.81C70.7999 35.49 73.21 33.69 73.84 31.44C74.8 33.58 77.44 35 80.46 34.87C83.38 34.73 86.6899 33.04 86.6599 30.39V22.23C84.7499 22.7 82.73 23.14 80.85 23.66C83.7 18.64 86.75 13.68 90 8.78C93.25 13.68 96.2999 18.64 99.1499 23.66C97.2599 23.15 95.24 22.7 93.34 22.23V30.39C93.31 33.04 96.6299 34.74 99.5399 34.87C102.55 35 105.2 33.57 106.16 31.44C106.8 33.7 109.2 35.5 112.2 35.81C115.77 36.18 119.09 34.26 119.44 31.51L119.76 29.51H113.23L126.22 18.81L122.31 43.58C122 45.53 118.41 47.12 116.8 46.91C118.44 47.12 121.26 49.9 121.03 51.67C120.65 54.31 120.28 56.95 119.9 59.59L132.42 74.51V41.66H126.98L128 35.19H138.89V119.97C137.98 131.29 129.67 142.61 114.18 153.63C103.22 161.43 90.01 167.42 90.01 167.42C90.01 167.42 76.81 161.43 65.84 153.63C50.35 142.61 42.04 131.29 41.13 119.97V35.19H52.02L53.0399 41.66L53.02 41.67ZM143.18 120.15V120.24L143.17 120.32C142.16 132.97 133.24 145.36 116.66 157.15C105.47 165.11 92.33 171.1 91.77 171.35L90.88 171.75L89.99 172.15L89.1 171.75L88.21 171.35C87.66 171.1 74.5099 165.1 63.3199 157.15C46.7399 145.36 37.8299 132.97 36.8099 120.33V120.24L36.7999 120.15V30.89H51.3199L51.6599 33.05H38.96V120.15C39.93 132.13 48.5399 143.99 64.5699 155.39C75.5799 163.22 88.55 169.14 89.1 169.38L89.99 169.78L90.88 169.38C91.43 169.13 104.4 163.21 115.41 155.39C131.44 143.99 140.06 132.13 141.02 120.15V120.06V33.04H128.32L128.66 30.88H143.18V120.14V120.15Z" fill="white"/>
<path d="M89.99 49.92C91.88 49.92 93.49 48.41 93.49 46.51C93.49 43.19 90.02 39.7 89.99 39.71C89.96 39.71 86.49 43.18 86.49 46.51C86.49 48.41 88.1 49.92 89.99 49.92Z" fill="white"/>
<path d="M104.78 49.64C104.87 48.27 107.97 45.8 109.62 45.98C108.01 45.81 105.31 42.82 105.39 41.47C105.27 42.83 102.15 45.33 100.53 45.26C102.18 45.33 104.89 48.28 104.77 49.64" fill="white"/>
<path d="M75.2 49.64C75.08 48.27 77.7899 45.33 79.4399 45.26C77.8199 45.33 74.7 42.83 74.58 41.47C74.67 42.83 71.97 45.82 70.35 45.98C72 45.81 75.1099 48.27 75.1899 49.64" fill="white"/>
<path d="M78.97 129.67V124.94H84.35V121.7H78.97V116.05H84.52V112.81H75.3999V129.89C75.3999 132.8 76.84 134.23 79.74 134.23L84.59 133.96V130.72L80.3099 130.99C79.4099 130.99 78.97 130.56 78.97 129.66" fill="white"/>
<path d="M91.72 112.81H88.1499V133.84H91.72V112.81Z" fill="white"/>
<path d="M100.56 124.86H102.43V129.92C102.43 130.85 101.97 131.32 101.09 131.32C100.7 131.32 100.2 131.28 100.2 131.28C99.26 131.28 98.89 130.68 98.89 129.74V117.12C98.89 116.19 99.32 115.75 100.26 115.75H101C101.9 115.75 102.33 116.18 102.33 117.12V119.6L105.83 117.85V116.92C105.83 114.05 104.43 112.62 101.53 112.62H99.6599C96.7599 112.62 95.3199 114.05 95.3199 116.96V129.91C95.3199 132.81 96.6999 134.09 99.6899 134.26C99.9299 134.28 101.55 134.43 101.55 134.43C104.53 134.8 105.89 133 105.89 130.09V121.79H100.55V124.86H100.56Z" fill="white"/>
<path d="M65.14 124.94H66.74C67.77 124.94 68.24 125.41 68.24 126.44V135.59L71.8099 135.06V126.23C71.8099 124.46 71.21 123.56 69.74 123.16C71.04 122.63 71.7799 121.62 71.7799 119.56V117.14C71.7799 114.24 70.3399 112.8 67.4399 112.8H61.5599V136.87L65.13 136.14V124.93L65.14 124.94ZM65.14 115.98H66.88C67.78 115.98 68.21 116.41 68.21 117.31V120.26C68.21 121.23 67.74 121.69 66.74 121.69H65.14V115.97V115.98Z" fill="white"/>
<path d="M109.47 135.39L113.04 135.98V115.95H115.01C115.91 115.95 116.35 116.38 116.35 117.32V136.64L119.86 137.45V117.13C119.86 114.23 118.46 112.82 115.55 112.82H109.47V135.4V135.39Z" fill="white"/>
<path d="M75.22 82.2C76.98 93.34 89.99 97.25 89.99 97.25C89.99 97.25 103 93.34 104.76 82.2L106.27 63.25L93.34 65.39C92.94 69.52 92.5799 73.63 92.1699 77.84H87.8099C87.3999 73.63 87.04 69.52 86.64 65.39L73.7 63.25L75.22 82.2ZM93.5599 88.32H86.4299L86.1899 86.62C86.1899 86.62 87.82 87.25 90 87.25C92.18 87.25 93.8099 86.62 93.8099 86.62L93.5699 88.32H93.5599ZM88.39 80.82C88.39 80.82 88.92 81.7 89.99 81.7C91.06 81.7 91.59 80.82 91.59 80.82L96.4399 83.34L96.09 84.02C96.09 84.02 93.1399 83.46 91.9099 83.46C90.6799 83.46 89.99 84.01 89.99 84.01C89.99 84.01 89.2999 83.46 88.0699 83.46C86.8399 83.46 83.89 84.02 83.89 84.02L83.5299 83.34L88.38 80.82H88.39Z" fill="white"/>
<path d="M86.1799 86.62L86.4199 88.32H93.5499L93.7899 86.62C93.7899 86.62 92.16 87.25 89.98 87.25C87.8 87.25 86.1699 86.62 86.1699 86.62" fill="#292431"/>
<path d="M127.98 35.2L126.96 41.67H132.4V74.52L119.88 59.5999C111.37 58.2499 102.79 57.49 94.2 57.3C93.88 60.03 93.6 62.71 93.34 65.39L106.28 63.24L104.76 82.1899C103 93.3299 89.99 97.25 89.99 97.25C89.99 97.25 76.98 93.3399 75.21 82.1899L73.7 63.24L86.63 65.39C86.37 62.71 86.09 60.03 85.77 57.3C77.18 57.49 68.6 58.2499 60.09 59.5999L47.5699 74.52V41.67H53.01L51.99 35.2H41.1V119.97C42.01 131.29 50.3199 142.61 65.8099 153.63C76.7699 161.43 89.98 167.42 89.98 167.42C89.98 167.42 103.18 161.43 114.15 153.63C129.64 142.61 137.95 131.29 138.86 119.97V35.2H127.97H127.98ZM47.58 82.9099L63.95 63.4C64.77 63.29 65.5899 63.1799 66.4099 63.0699L47.58 103.46V82.9099ZM51.58 130.69C49.25 126.96 47.91 123.28 47.58 119.7V116.21L69.7999 68.56L70.08 72.03L51.59 130.68L51.58 130.69ZM71.8099 135.07L68.24 135.6V126.45C68.24 125.41 67.77 124.95 66.74 124.95H65.14V136.16L61.5699 136.89V112.82H67.45C70.35 112.82 71.7899 114.26 71.7899 117.16V119.58C71.7899 121.65 71.06 122.65 69.75 123.19C71.22 123.59 71.8199 124.49 71.8199 126.26V135.09L71.8099 135.07ZM73.63 108.34C73.47 108.5 73.2199 108.59 72.7899 108.59H70.85C70.4 108.59 70.14 108.53 69.95 108.35C69.73 108.13 69.65 107.8 69.64 106.84H70.8099C70.8299 107.37 70.85 107.49 70.89 107.54C70.94 107.59 71.01 107.61 71.24 107.61H72.3199C72.5399 107.61 72.6299 107.59 72.6899 107.55C72.7399 107.49 72.76 107.34 72.76 107.02C72.76 106.75 72.7599 106.65 72.6799 106.58C72.6299 106.53 72.5299 106.51 72.3099 106.49L70.73 106.32C70.36 106.28 70.14 106.2 69.97 106.04C69.76 105.82 69.6899 105.51 69.6899 104.78C69.6899 104.1 69.7899 103.71 70.0399 103.47C70.1999 103.31 70.46 103.22 70.86 103.22H72.6599C73.1199 103.22 73.3799 103.28 73.5499 103.45C73.7799 103.68 73.85 103.97 73.87 104.92H72.71C72.69 104.44 72.67 104.32 72.62 104.27C72.58 104.22 72.5099 104.21 72.2899 104.21H71.2899C71.0899 104.21 71.01 104.21 70.97 104.26C70.92 104.31 70.8999 104.46 70.8999 104.75C70.8999 105.02 70.9 105.12 70.98 105.18C71.03 105.23 71.11 105.24 71.35 105.27L72.9299 105.44C73.2999 105.48 73.5099 105.55 73.6699 105.71C73.8799 105.92 73.96 106.25 73.96 106.98C73.96 107.71 73.86 108.1 73.62 108.35M105.76 107.64H106.41V104.19H105.76V103.23H110.26V105.02H109.19V104.18H107.61V105.39H108.89V106.3H107.61V107.65H109.23V106.71H110.31V108.61H105.77V107.64H105.76ZM100.09 107.64H100.73V104.19H100.09V103.23H102.62V104.19H101.94V107.65H103.4V106.67H104.48V108.61H100.1V107.64H100.09ZM93.7799 103.23H98.76V105.2H97.75V104.18H96.87V107.64H97.5599V108.61H94.98V107.64H95.6699V104.18H94.7899V105.2H93.7799V103.23ZM87.52 103.23H92.5V105.2H91.49V104.18H90.61V107.64H91.2999V108.61H88.72V107.64H89.4099V104.18H88.5299V105.2H87.52V103.23ZM81.27 107.64H81.7899L83.11 103.59C83.21 103.29 83.32 103.21 83.62 103.21H84.49C84.79 103.21 84.9 103.29 85 103.59L86.3199 107.64H86.83V108.61H84.3999V107.66H85.01L84.7999 106.95H83.1799L82.98 107.66H83.59V108.61H81.25V107.64H81.27ZM75.46 107.64H76.11V104.19H75.46V103.23H79.96V105.02H78.88V104.18H77.2999V105.39H78.58V106.3H77.2999V107.65H78.9199V106.71H79.99V108.61H75.45V107.64H75.46ZM75.37 129.91V112.82H84.49V116.06H78.9399V121.71H84.3199V124.95H78.9399V129.68C78.9399 130.58 79.3799 131.02 80.2799 131.02L84.5599 130.75V133.98L79.71 134.25C76.8 134.25 75.37 132.81 75.37 129.91ZM88.6699 142.59H84.08V144.52H88.22V146.8H84.08V151.01H81.59V140.32H88.6699V142.6V142.59ZM88.13 112.82H91.7V133.85H88.13V112.82ZM99.48 148.39C99.48 150.23 98.57 151.14 96.73 151.14H93.85C92.01 151.14 91.1 150.23 91.1 148.39V142.94C91.1 141.1 92.01 140.19 93.85 140.19H96.71C98.55 140.19 99.4399 141.08 99.4399 142.92V143.62L96.99 144.4V143.28C96.99 142.69 96.7199 142.41 96.1499 142.41H94.47C93.88 142.41 93.6 142.68 93.6 143.28V148.06C93.6 148.65 93.88 148.93 94.47 148.93H96.1899C96.7599 148.93 97.0299 148.65 97.0299 148.06V146.94L99.48 147.72V148.39ZM105.87 130.1C105.87 133 104.52 134.81 101.53 134.44C101.53 134.44 99.9099 134.3 99.6599 134.27C96.6699 134.1 95.2799 132.82 95.2799 129.92V116.97C95.2799 114.07 96.72 112.63 99.62 112.63H101.49C104.39 112.63 105.8 114.07 105.8 116.94V117.87L102.3 119.62V117.14C102.3 116.21 101.87 115.77 100.97 115.77H100.24C99.31 115.77 98.87 116.2 98.87 117.14V129.76C98.87 130.69 99.2399 131.3 100.18 131.3C100.18 131.3 100.68 131.33 101.07 131.34C101.95 131.34 102.41 130.88 102.41 129.94V124.88H100.54V121.81H105.88V130.1H105.87ZM119.82 137.46L116.31 136.66V117.34C116.31 116.41 115.88 115.97 114.98 115.97H113.01V136L109.44 135.41V112.83H115.52C118.42 112.83 119.82 114.23 119.82 117.14V137.46ZM132.37 119.72C132.04 123.3 130.69 126.98 128.37 130.71L109.88 72.06L110.16 68.59L132.38 116.24V119.73L132.37 119.72ZM132.37 103.48L113.54 63.09C114.36 63.19 115.18 63.3 116 63.42L132.37 82.93V103.48Z" fill="#292431"/>
<path d="M83.8999 84.02C83.8999 84.02 86.85 83.46 88.08 83.46C89.31 83.46 90 84.0099 90 84.0099C90 84.0099 90.6899 83.46 91.9199 83.46C93.1499 83.46 96.09 84.02 96.09 84.02L96.4399 83.34L91.59 80.8199C91.59 80.8199 91.06 81.7 89.99 81.7C88.92 81.7 88.39 80.8199 88.39 80.8199L83.5399 83.34L83.89 84.02H83.8999Z" fill="#292431"/>
<path d="M66.88 115.98H65.14V121.7H66.74C67.74 121.7 68.21 121.24 68.21 120.27V117.32C68.21 116.42 67.78 115.99 66.88 115.99" fill="#292431"/>
<path d="M84.0699 104.27H83.97L83.46 106.02H84.58L84.0699 104.27Z" fill="#292431"/>
<path d="M47.58 119.7C47.91 123.28 49.26 126.96 51.58 130.69L70.0699 72.0399L69.7899 68.5699L47.5699 116.22V119.71L47.58 119.7Z" fill="#2E4079"/>
<path d="M132.4 82.9099L116.03 63.4C115.21 63.29 114.39 63.1799 113.57 63.0699L132.4 103.46V82.9099Z" fill="#2E4079"/>
<path d="M132.4 119.7V116.21L110.18 68.5601L109.9 72.0301L128.39 130.68C130.72 126.95 132.06 123.27 132.39 119.69" fill="#2E4079"/>
<path d="M47.58 103.46L66.4099 63.0699C65.5899 63.1699 64.77 63.28 63.95 63.4L47.58 82.9099V103.46Z" fill="#2E4079"/>
<path d="M128.66 30.89L128.32 33.05H141.02V120.15C140.06 132.13 131.44 143.99 115.41 155.39C104.4 163.22 91.43 169.14 90.88 169.38L89.99 169.78L89.1 169.38C88.55 169.13 75.5799 163.22 64.5699 155.39C48.5399 143.99 39.92 132.13 38.96 120.15V120.07V119.98V33.05H51.6599L51.3199 30.89H36.7999V120.24L36.8099 120.33C37.8199 132.97 46.7399 145.36 63.3199 157.15C74.4999 165.11 87.65 171.1 88.21 171.35L89.1 171.75L89.99 172.15L90.88 171.75L91.77 171.35C92.32 171.1 105.47 165.11 116.66 157.15C133.24 145.36 142.15 132.97 143.17 120.32V120.24L143.19 120.15V30.89H128.67H128.66Z" fill="#A8855B"/>
<path d="M78.95 107.63H77.33V106.29H78.61V105.38H77.33V104.17H78.9099V105H79.99V103.21H75.48V104.17H76.13V107.62H75.48V108.59H80.02V106.69H78.95V107.63Z" fill="#A8855B"/>
<path d="M72.95 105.43L71.37 105.26C71.13 105.23 71.05 105.22 71 105.17C70.93 105.11 70.9199 105.01 70.9199 104.74C70.9199 104.45 70.94 104.3 70.99 104.25C71.04 104.2 71.1099 104.2 71.3099 104.2H72.3099C72.5299 104.2 72.6 104.21 72.64 104.26C72.69 104.31 72.72 104.43 72.73 104.91H73.89C73.87 103.96 73.8099 103.67 73.5699 103.44C73.3999 103.27 73.1399 103.21 72.6799 103.21H70.88C70.47 103.21 70.2199 103.3 70.0599 103.46C69.8099 103.71 69.71 104.09 69.71 104.77C69.71 105.5 69.78 105.81 69.99 106.03C70.16 106.19 70.38 106.27 70.75 106.31L72.3199 106.48C72.5399 106.5 72.6399 106.53 72.6899 106.57C72.7599 106.64 72.77 106.74 72.77 107.01C72.77 107.33 72.75 107.48 72.7 107.54C72.64 107.59 72.55 107.6 72.33 107.6H71.25C71.02 107.6 70.9399 107.58 70.8999 107.53C70.8499 107.48 70.8299 107.36 70.8199 106.83H69.6499C69.6499 107.79 69.73 108.12 69.96 108.34C70.14 108.52 70.4 108.58 70.86 108.58H72.7999C73.2299 108.58 73.48 108.49 73.64 108.33C73.88 108.08 73.99 107.7 73.99 106.96C73.99 106.22 73.91 105.9 73.7 105.69C73.54 105.53 73.32 105.46 72.95 105.42" fill="#A8855B"/>
<path d="M84.4199 108.59H86.85V107.62H86.34L85.02 103.57C84.92 103.27 84.81 103.19 84.51 103.19H83.64C83.34 103.19 83.23 103.27 83.13 103.57L81.8099 107.62H81.2899V108.59H83.63V107.64H83.02L83.22 106.93H84.84L85.0499 107.64H84.4399V108.59H84.4199ZM83.46 106.02L83.97 104.27H84.0699L84.58 106.02H83.47H83.46Z" fill="#A8855B"/>
<path d="M109.25 107.63H107.63V106.29H108.91V105.38H107.63V104.17H109.21V105H110.28V103.21H105.78V104.17H106.43V107.62H105.78V108.59H110.32V106.69H109.25V107.63Z" fill="#A8855B"/>
<path d="M88.74 107.62V108.59H91.3199V107.62H90.63V104.16H91.51V105.18H92.52V103.21H87.5399V105.18H88.5599V104.16H89.4299V107.62H88.74Z" fill="#A8855B"/>
<path d="M103.41 107.63H101.95V104.17H102.63V103.21H100.11V104.17H100.75V107.62H100.11V108.59H104.49V106.65H103.41V107.63Z" fill="#A8855B"/>
<path d="M98.7799 105.18V103.21H93.7999V105.18H94.8199V104.16H95.6899V107.62H95V108.59H97.58V107.62H96.89V104.16H97.77V105.18H98.7799Z" fill="#A8855B"/>
<path d="M126.2 18.83L113.21 29.5301H119.74L119.42 31.5301C119.07 34.2701 115.75 36.2 112.18 35.83C109.18 35.51 106.78 33.7101 106.14 31.4601C105.18 33.5901 102.54 35.02 99.52 34.89C96.6 34.75 93.2899 33.06 93.3199 30.41V22.2501C95.2299 22.7201 97.25 23.1701 99.14 23.6801C96.29 18.6601 93.24 13.7 89.99 8.80005C86.74 13.7 83.69 18.6601 80.84 23.6801C82.73 23.1701 84.7499 22.7201 86.6499 22.2501V30.41C86.6799 33.06 83.37 34.76 80.45 34.89C77.44 35.02 74.79 33.5901 73.83 31.4601C73.19 33.7201 70.7899 35.52 67.7899 35.83C64.2199 36.2 60.8999 34.2801 60.5499 31.5301L60.23 29.5301H66.76L53.77 18.83L57.6799 43.6C57.9899 45.56 61.5799 47.14 63.1899 46.94C61.5399 47.15 58.73 49.93 58.96 51.7C59.34 54.34 59.71 56.98 60.09 59.63C68.6 58.28 77.18 57.52 85.77 57.33C86.59 64.26 87.1299 70.9301 87.8099 77.8701H92.1699C92.8399 70.9301 93.38 64.26 94.2 57.33C102.79 57.52 111.37 58.28 119.88 59.63C120.26 56.99 120.64 54.35 121.01 51.7C121.23 49.93 118.42 47.16 116.78 46.94C118.39 47.14 121.98 45.56 122.29 43.6L126.2 18.83ZM75.2 49.64C75.11 48.27 72.01 45.8 70.36 45.98C71.97 45.81 74.67 42.82 74.59 41.47C74.71 42.83 77.83 45.33 79.45 45.26C77.8 45.33 75.09 48.28 75.21 49.64M90 49.92C88.11 49.92 86.5 48.41 86.5 46.51C86.5 43.19 89.97 39.7001 90 39.7101C90.03 39.7101 93.5 43.19 93.5 46.51C93.5 48.41 91.89 49.92 90 49.92ZM104.79 49.64C104.91 48.27 102.2 45.33 100.55 45.26C102.17 45.33 105.29 42.83 105.41 41.47C105.32 42.83 108.02 45.82 109.64 45.98C107.99 45.81 104.88 48.27 104.8 49.64" fill="#A8855B"/>
<path d="M97.0599 148.04C97.0599 148.63 96.79 148.91 96.22 148.91H94.5C93.91 148.91 93.63 148.63 93.63 148.04V143.26C93.63 142.67 93.9 142.39 94.5 142.39H96.1799C96.7499 142.39 97.02 142.66 97.02 143.26V144.38L99.47 143.6V142.91C99.47 141.07 98.58 140.18 96.75 140.18H93.89C92.05 140.18 91.14 141.09 91.14 142.93V148.38C91.14 150.22 92.05 151.13 93.89 151.13H96.77C98.61 151.13 99.52 150.22 99.52 148.38V147.71L97.0699 146.93V148.05L97.0599 148.04Z" fill="#A8855B"/>
<path d="M81.61 151H84.1V146.79H88.24V144.51H84.1V142.58H88.6899V140.3H81.61V151Z" fill="#A8855B"/>
</svg>
