<svg width="200" height="200" viewBox="0 0 200 200" fill="none" xmlns="http://www.w3.org/2000/svg">
<path d="M99.5852 187.404L98.6998 187.073L98.5344 187.014C94.4642 185.545 80.3435 180.239 69.5664 173.571C50.1657 161.559 40.326 148.213 40.326 133.907V122.916C30.2883 122.131 24.4733 116.758 24.1912 112.953L24.0096 110.521C23.0496 97.759 21.762 80.4567 21.6193 77.5184C21.3956 72.9163 22.829 68.8558 25.7641 65.7781C29.1759 62.1944 34.271 60.3328 40.326 60.4301V44.0553H48.4469C57.1159 44.0553 62.7525 42.304 69.281 40.2737C70.3383 39.9462 71.4085 39.6121 72.5047 39.2846C72.7155 24.5314 84.7834 12.5933 99.5852 12.5933C114.387 12.5933 126.455 24.5314 126.669 39.2846C127.765 39.6121 128.832 39.9462 129.889 40.2737C136.418 42.304 142.055 44.0553 150.727 44.0553H158.844V60.4301C164.909 60.336 169.995 62.1944 173.406 65.7781C176.341 68.8558 177.775 72.9163 177.551 77.5184C177.392 80.8588 175.69 103.49 175.132 110.93L174.983 112.953C174.697 116.77 168.84 122.174 158.844 122.923V133.907C158.844 148.213 149.005 161.559 129.604 173.571C118.82 180.246 104.703 185.548 100.633 187.018L99.5852 187.404Z" fill="#DDCBA4"/>
<path d="M159.258 62.9449C158.236 62.9449 157.257 63.0162 156.326 63.1492V46.5766H150.725C139.381 46.5766 132.755 43.6253 124.076 41.1507C124.105 40.661 124.151 40.1745 124.151 39.6783C124.151 26.1121 113.153 15.1145 99.5869 15.1145C86.0174 15.1145 75.0198 26.1121 75.0198 39.6783C75.0198 40.1745 75.0652 40.661 75.0944 41.1507C66.4124 43.6253 59.7931 46.5766 48.4453 46.5766H42.8475V63.1492C41.9135 63.0162 40.9341 62.9449 39.9125 62.9449C29.7776 62.9449 23.7323 69.0323 24.1344 77.3964C24.3193 81.165 26.5182 110.243 26.703 112.766C26.8911 115.29 32.2521 120.495 42.7048 120.495C42.7502 120.495 42.7989 120.488 42.8475 120.485V133.905C42.8475 147.284 52.2819 159.909 70.8945 171.429C82.8942 178.859 99.0874 184.528 99.5869 184.716C100.086 184.528 116.276 178.859 128.276 171.429C146.889 159.909 156.326 147.284 156.326 133.905V120.485C156.372 120.488 156.423 120.495 156.466 120.495C166.922 120.495 172.279 115.29 172.467 112.766C172.656 110.243 174.854 81.165 175.033 77.3964C175.438 69.0323 169.396 62.9449 159.258 62.9449Z" fill="#0C2340"/>
<path d="M136.109 113.655C126.438 109.857 113.011 104.811 99.5846 104.811C86.1578 104.811 72.7343 109.857 63.0632 113.655C61.5519 114.249 58.5098 115.753 55.0234 117.203V133.905C55.0234 155.31 99.5846 172.194 99.5846 172.194C99.5846 172.194 144.149 155.31 144.149 133.905V117.203C140.659 115.753 137.621 114.249 136.109 113.655Z" fill="#DDCBA4"/>
<path d="M62.2468 84.1733C73.2963 79.9409 85.6917 75.4881 99.5855 75.4881C113.479 75.4881 125.878 79.9409 136.924 84.1733C139.139 85.023 141.591 85.8014 144.147 86.4597V58.7533C129.539 58.7533 125.278 50.0162 99.5855 50.0162C73.8931 50.0162 69.6315 58.7533 55.0243 58.7533V86.4597C57.5799 85.8014 60.0318 85.023 62.2468 84.1733Z" fill="#DDCBA4"/>
<path d="M40.7268 76.4841L40.9798 68.9146C35.9723 68.5092 33.8416 70.4745 34.0134 72.6831V72.6864C34.0134 72.6864 35.0026 76.0398 40.7268 76.4841Z" fill="#DDCBA4"/>
<path d="M165.158 72.6846C165.327 70.476 163.199 68.5074 158.189 68.9128L158.445 76.4856C164.172 76.0413 165.158 72.6846 165.158 72.6846Z" fill="#DDCBA4"/>
<path d="M103.533 19.3905L100.584 21.3202V22.9353L108.053 28.2217L114.164 25.1147C111.329 22.2348 107.651 20.1981 103.533 19.3905ZM85.0075 25.1147L91.1176 28.2217L98.5867 22.9353V21.3202L95.6419 19.3905C91.5198 20.1981 87.8388 22.2348 85.0075 25.1147Z" fill="white"/>
<path d="M102.243 36.2646C102.837 34.6236 103.462 32.9858 104.114 31.3577C102.652 30.2648 101.144 29.2043 99.5836 28.1794C98.0269 29.2043 96.5188 30.2648 95.0561 31.3577C95.708 32.9858 96.3339 34.6236 96.9274 36.2646C98.7015 36.216 100.472 36.216 102.243 36.2646ZM95.455 38.457C94.4853 35.8625 93.4443 33.2809 92.3254 30.7156C94.6248 28.9189 97.0442 27.1967 99.5836 25.5687C102.129 27.1967 104.546 28.9189 106.842 30.7156C105.729 33.2809 104.685 35.8625 103.715 38.457C100.965 38.337 98.2085 38.337 95.455 38.457Z" fill="#DDCBA4"/>
<path d="M92.2816 36.6137C92.2816 36.6137 87.5919 37.0807 84.9423 37.5574C84.3553 36.4061 83.7553 35.2613 83.1618 34.1618C84.1088 33.2473 85.0915 32.3424 86.0871 31.4603C87.7411 32.3003 91.2665 34.2916 91.2665 34.2916L89.6806 30.8116C88.4092 30.1241 85.7336 28.7847 85.7336 28.7847C83.3758 30.8441 80.4343 33.7078 80.4343 33.7078L83.7391 39.7693C83.7391 39.7693 88.9833 38.7574 93.0599 38.5563L92.2816 36.6137Z" fill="#DDCBA4"/>
<path d="M115.089 41.8491C109.959 40.98 104.773 40.5454 99.5869 40.5454C94.3978 40.5454 89.212 40.98 84.0813 41.8491C84.0813 41.8491 83.6045 43.075 83.1667 44.395C88.5925 43.3831 94.0897 42.8805 99.5869 42.8805C105.084 42.8805 110.581 43.3831 116.004 44.395C115.566 43.075 115.089 41.8491 115.089 41.8491Z" fill="#DDCBA4"/>
<path d="M106.89 36.6137C106.89 36.6137 111.576 37.0807 114.226 37.5574C114.816 36.4061 115.413 35.2613 116.01 34.1618C115.063 33.2473 114.08 32.3424 113.084 31.4603C111.427 32.3003 107.905 34.2916 107.905 34.2916L109.491 30.8116C110.762 30.1241 113.438 28.7847 113.438 28.7847C115.796 30.8441 118.734 33.7078 118.734 33.7078L115.432 39.7693C115.432 39.7693 110.188 38.7574 106.111 38.5563L106.89 36.6137Z" fill="#DDCBA4"/>
<path d="M36.5759 95.1919V111.632L34.0819 111.074V94.6341L36.5759 95.1919Z" fill="white"/>
<path d="M42.5498 111.945C41.765 111.981 40.9834 111.987 40.2018 111.968V95.5281C41.0515 95.5475 41.9077 95.5378 42.7639 95.4957C43.9801 98.794 45.1995 102.027 46.4157 105.196V95.1194C47.2135 94.993 48.0146 94.8438 48.8092 94.6622V111.099C48.0146 111.28 47.2135 111.436 46.4157 111.559C45.1282 108.507 43.8374 105.381 42.5498 102.183V111.945Z" fill="white"/>
<path d="M54.6656 95.428V106.795L57.471 105.796C57.7823 105.683 57.938 105.518 57.938 105.226V94.7048C57.938 94.4162 57.7823 94.3156 57.471 94.4259L54.6656 95.428ZM52.2625 93.7416L59.2742 91.2346C59.8774 91.0206 60.3671 91.3611 60.3671 91.9838V106.124C60.3671 106.75 59.8774 107.437 59.2547 107.681L52.2625 110.178V93.7416Z" fill="white"/>
<path d="M66.2 102.704L71.5285 100.813V103.271L63.7903 106.012V89.5721L71.5285 86.8316V89.3094L66.2 91.2001V95.7795L70.0788 94.4012V96.8822L66.2 98.2573V102.704Z" fill="white"/>
<path d="M77.4739 92.0675L80.2955 91.2696C80.6166 91.1788 80.7723 90.9778 80.7723 90.6859V87.0016C80.7723 86.7097 80.6166 86.5995 80.2955 86.6903L77.4739 87.4881V92.0675ZM77.4512 94.529V101.388L74.9702 102.089V85.6492L82.1409 83.6222C82.7538 83.4471 83.2533 83.8201 83.2533 84.446V91.7723C83.2533 92.3756 82.7538 93.0307 82.1409 93.2058L77.4512 94.529Z" fill="white"/>
<path d="M89.041 96.2393L94.642 95.4869V97.9484L86.5114 99.0349V82.5953L94.642 81.5056V83.9866L89.041 84.7358V89.3151L93.1177 88.7703V91.2481L89.041 91.7961V96.2393Z" fill="white"/>
<path d="M100.694 97.8608L98.3334 97.7441V81.3044L100.908 81.4309L104.567 91.6858V81.6125L106.976 81.7293V98.1689L104.567 98.0522L100.694 88.0989V97.8608Z" fill="white"/>
<path d="M113.07 85.4454V96.8127L115.963 97.5068C116.288 97.5846 116.45 97.5133 116.45 97.2214V86.7005C116.45 86.4119 116.288 86.2173 115.963 86.1394L113.07 85.4454ZM110.589 82.3028L117.828 84.0379C118.448 84.187 118.953 84.8227 118.953 85.4486V99.5856C118.953 100.212 118.448 100.604 117.802 100.474L110.589 98.7424V82.3028Z" fill="white"/>
<path d="M124.835 100.278L130.164 102.159V104.617L122.429 101.883V85.4435L130.164 88.1775V90.6553L124.835 88.7743V93.3536L128.714 94.7255V97.2033L124.835 95.8314V100.278Z" fill="white"/>
<path d="M135.756 106.78L133.551 105.93V89.4907L135.957 90.415L139.372 101.808V91.735L141.626 92.6041V109.041L139.372 108.175L135.756 97.0181V106.78Z" fill="white"/>
<path d="M147.831 108.035C147.831 108.437 148.019 108.707 148.392 108.791C149.125 108.953 149.861 109.096 150.597 109.216C150.97 109.209 151.11 109.005 151.11 108.629V107.221C151.946 107.344 152.78 107.445 153.613 107.513V110.909C153.613 111.535 153.104 112.008 152.478 111.937C150.484 111.706 148.479 111.321 146.485 110.772C145.856 110.604 145.327 109.926 145.327 109.3V95.1371C145.327 94.5144 145.856 94.1641 146.485 94.3328C148.479 94.8809 150.484 95.2668 152.478 95.4938C153.104 95.5684 153.613 96.1198 153.613 96.7457V100.164C152.815 100.096 152.008 100.005 151.204 99.8851V98.4776C151.204 98.1176 151.087 97.8808 150.759 97.8062C150.023 97.6895 149.29 97.55 148.551 97.3878C148.061 97.2808 147.831 97.4041 147.831 97.8938V108.035Z" fill="white"/>
<path d="M159.344 109.841C161.215 109.699 163.093 109.355 164.948 108.807V111.262C162.256 112.056 159.512 112.426 156.817 112.368V95.9282C159.512 95.9865 162.256 95.6168 164.948 94.8255V97.3033C163.093 97.8514 161.215 98.1951 159.344 98.3378V102.917C160.706 102.813 162.071 102.603 163.433 102.285V104.763C162.071 105.08 160.706 105.291 159.344 105.398V109.841Z" fill="white"/>
<path d="M85.7022 152.827C85.5628 152.921 85.5465 152.976 85.5465 153.226V157.608C85.5465 158.253 85.7087 158.574 86.1141 158.746H83.6979C84.0936 158.545 84.2428 158.24 84.2428 157.608V154.669C83.9379 154.851 83.5552 154.965 83.3347 154.961L83.1466 154.952C83.0461 154.945 82.9779 154.974 82.8677 155.068V153.748C82.9617 153.898 83.0785 153.969 83.2633 153.969C83.8925 153.969 84.5541 153.482 84.5541 153.025C84.5541 152.938 84.5314 152.882 84.4536 152.827H85.7022Z" fill="#0C2340"/>
<path d="M91.8189 158.747C91.9972 158.582 92.0199 158.537 92.0426 158.271C92.0751 156.99 92.7075 155.585 94.021 153.85H92.6167C91.7183 153.85 91.047 154.038 90.4762 154.437L90.9594 153.117C90.9821 153.069 90.9919 153.023 90.9919 153C90.9919 152.936 90.9529 152.9 90.8589 152.851H96.2393C96.0188 152.974 95.6361 153.429 95.0912 154.2C94.0502 155.692 93.5605 156.889 93.5605 157.937C93.5605 158.287 93.6156 158.475 93.8004 158.747H91.8189Z" fill="#0C2340"/>
<path d="M100.873 158.747C101.052 158.582 101.074 158.537 101.1 158.271C101.129 156.99 101.762 155.585 103.075 153.85H101.668C100.769 153.85 100.101 154.038 99.5305 154.437L100.014 153.117C100.04 153.069 100.046 153.023 100.046 153C100.046 152.936 100.007 152.9 99.9132 152.851H105.294C105.073 152.974 104.69 153.429 104.146 154.2C103.104 155.692 102.612 156.889 102.612 157.937C102.612 158.287 102.67 158.475 102.858 158.747H100.873Z" fill="#0C2340"/>
<path d="M109.082 157.241C110.127 157.686 110.924 157.89 111.651 157.89C112.52 157.89 113.065 157.53 113.065 156.959C113.065 156.388 112.588 156.012 111.862 156.012C111.229 156.012 110.519 156.21 110.042 156.515V156.46C110.042 156.382 109.987 156.304 109.877 156.21L109.598 155.977C109.514 155.912 109.471 155.889 109.416 155.889C109.394 155.889 109.374 155.899 109.326 155.912L109.598 153.265C109.604 153.226 109.604 153.181 109.604 153.155C109.604 153.028 109.582 152.983 109.465 152.853H114.074C113.954 152.931 113.908 152.993 113.908 153.087C113.908 153.119 113.915 153.187 113.941 153.265L114.174 154.358C113.798 154.024 113.247 153.852 112.52 153.852H110.83L110.701 155.188C111.035 155.078 111.495 155.023 112.05 155.023C112.77 155.023 113.298 155.162 113.727 155.474C114.197 155.811 114.463 156.32 114.463 156.881C114.463 158.101 113.324 158.879 111.534 158.879C111.044 158.879 110.285 158.811 109.903 158.733C109.815 158.711 109.737 158.701 109.692 158.701C109.588 158.701 109.527 158.74 109.465 158.834L109.082 157.241Z" fill="#0C2340"/>
<path d="M101.298 147.326L102.705 145.773C102.705 145.773 90.9328 144.79 81.6605 149.635C91.3609 147.411 97.2829 148.04 97.2829 148.04C97.2829 148.04 96.3002 149.016 95.791 149.788C95.791 149.788 105.748 148.864 116.81 150.287C110.505 147.651 101.298 147.326 101.298 147.326Z" fill="#0C2340"/>
<path d="M130.022 119.973C130.022 119.973 128.433 117.365 126.296 116.743C125.093 114.33 122.109 114.041 122.109 114.041C122.109 114.041 123.377 115.189 122.414 115.442C120.536 115.935 120.024 114.463 116.408 115.429C113.463 116.22 112.503 115.157 112.503 115.157C112.26 116.843 113.563 117.025 113.563 117.025C113.563 117.025 112.422 118.014 110.82 117.229C110.606 117.453 110.625 117.797 110.722 118.131C109.273 118.646 107.696 119.295 106.003 120.08C105.523 119.73 105.079 119.421 104.674 119.155C105.261 117.793 106.101 116.769 106.101 116.769C106.101 116.769 105.511 116.24 106.049 115.993C106.451 115.812 107.07 116.146 107.437 116.298C107.904 116.496 108.196 116.25 108.322 116.016C108.478 115.737 108.656 115.338 108.656 115.338L109.282 115.283L109.049 114.106C109.049 114.106 109.11 113.944 109.143 113.717L112.646 113.438C112.646 113.438 111.426 111.618 109.804 110.957C108.861 110.574 107.765 110.752 106.843 111.09C106.169 111.339 105.906 111.041 106.36 110.652C106.626 110.422 106.451 110.321 106.172 110.399C105.893 110.48 104.602 111.009 104.122 111.339C103.642 111.661 103.545 111.923 104.408 112.186C104.677 112.27 104.992 112.368 105.313 112.478C104.998 112.731 104.752 113.058 104.508 113.415C103.594 112.715 102.212 112.426 100.808 112.896C99.2869 113.405 98.022 113.266 97.5388 112.682C97.5745 113.279 98.8328 114.33 100.445 114.485C98.2718 114.852 95.7291 115.783 91.9768 118.001C89.7584 119.314 87.9909 118.961 87.9909 118.961C87.8839 119.48 88.0882 120.073 88.3995 120.641C86.7066 120.323 85.0072 120.047 83.3207 119.96C79.5846 119.762 76.8701 120.774 75.375 122.509C74.5123 121.786 73.2928 121.367 71.7037 121.685C66.4497 122.736 64.1341 119.707 64.1341 119.707C64.0595 121.247 65.2173 122.399 65.2173 122.399C63.7579 122.843 63.3298 122.279 61.7666 122.96C59.9212 123.764 60.1256 125.943 60.1256 125.943C60.1256 125.943 60.878 124.234 63.106 126.07C66.1676 128.587 68.7102 128.233 71.2367 125.707C72.4139 124.526 73.4777 124.283 74.3209 124.396C74.2301 124.685 74.1425 124.967 74.1004 125.269C73.8409 127.212 74.7847 130.043 78.0376 131.428C78.0635 132.057 77.976 132.686 77.6938 133.267C76.6982 135.303 75.4333 135.984 75.4333 135.984C75.4333 135.984 75.8095 137.045 81.3943 138.696C87.0406 140.363 84.8029 142.743 84.8029 142.743C84.8029 142.743 87.1542 143.836 89.8427 143.849C89.8103 142.347 88.9995 140.706 88.9995 140.706C88.9995 140.706 87.0212 138.929 82.244 137.444C80.2559 136.828 80.9889 135.365 84.3229 134.223C85.1499 133.941 85.8666 133.623 86.538 133.299C87.3001 134.985 87.3715 136.889 87.3715 136.889C92.914 138.015 91.8957 140.59 91.8957 140.59C91.8957 140.59 93.5854 141.044 96.0502 140.703C96.0502 140.703 95.8296 139.114 95.168 138.164C95.168 138.164 92.1713 136.506 89.619 136.036C89.4536 134.703 90.8643 133.124 92.327 131.882C96.0307 132.054 98.9269 132.637 100.733 133.189C100.205 133.4 99.6923 133.646 99.209 133.944C99.209 133.944 106.344 135.054 111.896 139.646C111.073 140.742 107.975 141.751 107.975 141.751L107.878 142.707C106.558 142.536 106.039 141.877 106.039 141.877C104.414 142.5 103.279 143.466 103.279 143.466C103.279 143.466 104.213 144.177 106.075 144.89C106.075 144.89 108.517 144.952 110.917 144.128C110.917 144.128 109.83 143.139 112.337 142.578C115.305 141.916 116.417 139.837 116.417 139.837C114.828 137.207 112.753 135.015 111.335 133.672C111.877 133.377 112.412 133.004 112.937 132.543C114.047 132.543 115.272 132.465 116.57 132.326C119.998 131.96 121.645 132.673 121.645 132.673C121.645 132.673 121.765 134.713 120.205 136.036L120.737 136.967C119.998 137.661 118.461 137.661 118.461 137.661C117.981 138.475 117.899 140.123 117.899 140.123C117.899 140.123 119.226 140.2 120.987 139.672C120.987 139.672 122.913 138.55 123.76 136.802C123.76 136.802 122.437 136.464 124.288 134.505C125.758 132.949 124.516 130.698 124.516 130.698C121.311 129.787 116.735 129.093 114.4 128.771C114.381 128.129 114.277 127.682 114.277 127.682C116.926 123.424 121.791 122.22 121.791 122.22C122.858 125.979 127.434 124.828 127.434 124.828C127.434 124.828 130.321 125.752 131.099 127.533L132.594 127.322C132.594 127.322 134.605 126.07 135.432 124.873C135.432 124.873 132.15 121.465 130.022 119.973Z" fill="#0C2340"/>
<path d="M103.004 116.832C103.004 116.832 99.7707 118.35 98.7945 120.854C98.7945 120.854 103.75 121.386 107.48 123.202L107.729 123.046C107.729 123.046 104.288 120.828 101.616 119.887C101.853 118.781 103.004 116.832 103.004 116.832Z" fill="#003DA5"/>
<path d="M107.747 121.477C107.747 121.477 115.087 116.333 123.736 116.93L123.775 117.112C118.599 117.449 113.828 118.84 109.453 122.628C108.613 122.071 107.747 121.477 107.747 121.477Z" fill="#003DA5"/>
<path d="M110.957 129.19C110.957 129.19 106.708 131.496 104.185 132.168C104.185 132.168 108.573 134.227 112.608 137.662L112.961 137.555C112.961 137.555 110.95 134.519 108.19 132.447C110.243 131.532 110.957 129.19 110.957 129.19Z" fill="#003DA5"/>
<path d="M102.461 115.099C102.461 115.099 99.0199 114.726 94.3595 118.086C90.6136 120.785 89.1445 119.718 89.1445 119.718C89.1445 119.718 91.0352 122.808 95.7216 119.102C100.213 115.55 102.461 115.099 102.461 115.099Z" fill="#003DA5"/>
<path d="M75.7567 125.265C75.7567 125.265 76.068 123.241 78.8474 121.957C81.4711 120.744 86.7186 121.753 88.6937 122.132C88.6937 122.132 89.3326 122.92 90.4093 123.481C88.1196 123.348 79.7717 120.994 75.7567 125.265Z" fill="#003DA5"/>
<path d="M62.1973 123.951C62.1973 123.951 64.9053 124.35 66.7993 123.397L65.9918 122.168C65.9918 122.168 67.4609 123.124 69.6047 122.985C71.6608 122.852 73.0068 122.463 73.0068 122.463C73.0068 122.463 70.6814 123.916 68.8263 123.708L69.8544 124.525C69.8544 124.525 65.3204 126.306 62.1973 123.951Z" fill="#003DA5"/>
<path d="M65.2562 71.5066C65.2562 71.7336 65.3535 71.8179 65.5481 71.7401C65.9308 71.5812 66.3167 71.4255 66.7027 71.2731C66.8973 71.1596 66.9686 71.0071 66.9686 70.7931V69.9985C67.4097 69.8266 67.8475 69.6612 68.2918 69.4958V71.4093C68.2918 71.7628 68.0194 72.152 67.6918 72.2785C66.641 72.6774 65.5935 73.099 64.5557 73.5368C64.2281 73.6763 63.9525 73.5076 63.9525 73.1541V65.1694C63.9525 64.8159 64.2281 64.404 64.5557 64.2678C65.5935 63.8268 66.641 63.4051 67.6918 63.0062C68.0194 62.8797 68.2918 63.0711 68.2918 63.4246V65.351C67.867 65.51 67.4421 65.6689 67.0173 65.8343V65.0397C67.0173 64.8386 66.9589 64.7348 66.787 64.7932C66.401 64.9424 66.0151 65.0981 65.6324 65.2538C65.3762 65.3575 65.2562 65.51 65.2562 65.7856V71.5066Z" fill="#0C2340"/>
<path d="M73.6891 64.9483C74.2956 64.7666 74.9021 64.5915 75.5118 64.4229V60.4403C75.9626 60.317 76.4134 60.1938 76.8642 60.077V69.3493C76.4134 69.466 75.9626 69.5892 75.5118 69.7125V65.8207C74.9021 65.9893 74.2956 66.1645 73.6891 66.3461V70.2411C73.2416 70.3741 72.794 70.5136 72.3464 70.6562V61.384C72.794 61.2413 73.2416 61.1019 73.6891 60.9689V64.9483Z" fill="#0C2340"/>
<path d="M82.3672 65.7567C82.7564 65.6821 83.1455 65.6107 83.5347 65.5394C83.3466 64.3394 83.1553 63.1394 82.9639 61.9394C82.7629 63.2108 82.565 64.4821 82.3672 65.7567ZM82.2796 58.8422C82.7531 58.7514 83.2266 58.6638 83.7001 58.5795C84.2288 61.5762 84.7606 64.5761 85.2925 67.5826C84.8255 67.6572 84.3585 67.735 83.8915 67.8161C83.8526 67.5274 83.8169 67.2355 83.778 66.9437C83.2104 67.0442 82.6396 67.1512 82.0753 67.2615C82.0234 67.5696 81.9748 67.8777 81.9229 68.1858C81.4656 68.2766 81.0115 68.3707 80.5575 68.4712C81.1283 65.254 81.7023 62.0465 82.2796 58.8422Z" fill="#0C2340"/>
<path d="M90.4443 61.6603C90.9794 61.6052 91.5113 61.5598 92.0464 61.5144C92.2281 61.4982 92.3189 61.4041 92.3189 61.2387V59.1631C92.3189 58.9977 92.2281 58.9166 92.0464 58.9328C91.5113 58.975 90.9794 59.0236 90.4443 59.0788V61.6603ZM92.3286 66.7456C92.0335 65.4776 91.7383 64.216 91.4432 62.9511C91.1059 62.9803 90.7686 63.0128 90.4313 63.0452V66.9143C89.9708 66.9597 89.5103 67.0116 89.0497 67.0635V57.7912C90.3924 57.6356 91.7383 57.5123 93.0875 57.4183C93.4345 57.3923 93.7167 57.6648 93.7167 58.015V62.1501C93.7167 62.5652 93.4215 62.7955 92.8443 62.8376C93.1394 64.1057 93.4345 65.3738 93.7296 66.6451C93.2626 66.6743 92.7956 66.71 92.3286 66.7456Z" fill="#0C2340"/>
<path d="M97.961 66.4788V57.2066C98.4248 57.2001 98.8885 57.1969 99.3491 57.1969V65.081C100.374 65.081 101.402 65.1005 102.427 65.1362V66.521C100.938 66.4691 99.4496 66.4561 97.961 66.4788Z" fill="#0C2340"/>
<path d="M107.691 65.1848C107.691 65.3988 107.795 65.4864 108.003 65.5059C108.392 65.5448 108.781 65.5837 109.167 65.6259C109.384 65.6518 109.498 65.5869 109.498 65.3632V59.5287C109.498 59.3147 109.41 59.2044 109.193 59.1784C108.8 59.1363 108.405 59.0941 108.012 59.0552C107.795 59.0357 107.691 59.1136 107.691 59.3276V65.1848ZM106.948 66.7934C106.601 66.7642 106.306 66.4496 106.306 66.0994V58.1147C106.306 57.7579 106.601 57.492 106.948 57.5212C108.051 57.6152 109.154 57.732 110.253 57.8682C110.6 57.9104 110.879 58.2379 110.879 58.5914V66.5761C110.879 66.9296 110.6 67.1826 110.253 67.1404C109.154 67.0042 108.051 66.8875 106.948 66.7934Z" fill="#0C2340"/>
<path d="M114.555 58.505C116.118 58.7774 117.678 59.0887 119.231 59.4455V60.8303C118.677 60.7038 118.129 60.5838 117.574 60.4671V68.3545C117.12 68.2572 116.663 68.1664 116.206 68.0788V60.1914C115.654 60.0876 115.106 59.9871 114.555 59.8931V58.505Z" fill="#0C2340"/>
<path d="M122.35 60.2189C123.89 60.634 125.424 61.088 126.948 61.5843V62.9658C126.407 62.7907 125.865 62.6188 125.32 62.4567V70.3408C124.876 70.2046 124.425 70.0716 123.978 69.9419V62.0545C123.436 61.9021 122.895 61.7497 122.35 61.607V60.2189Z" fill="#0C2340"/>
<path d="M131.829 71.2176C132.798 71.597 133.765 71.9959 134.725 72.4111V73.7959C133.33 73.1927 131.926 72.6284 130.509 72.0965V62.8242C131.926 63.3561 133.33 63.9204 134.725 64.5269V65.9247C133.765 65.5096 132.798 65.1107 131.829 64.7312V67.3128C132.532 67.5885 133.239 67.8739 133.94 68.1722V69.57C133.239 69.2749 132.532 68.9863 131.829 68.7106V71.2176Z" fill="#0C2340"/>
<path d="M99.5852 72.4135C85.6947 72.4135 73.296 76.8988 62.2466 81.1312C59.999 81.9906 57.5537 82.7852 55.024 83.4436V58.7533C69.6313 58.7533 73.8928 50.0162 99.5852 50.0162C125.278 50.0162 129.539 58.7533 144.15 58.7533V83.4436C141.617 82.7852 139.171 81.9906 136.924 81.1312C125.878 76.8988 113.479 72.4135 99.5852 72.4135ZM171.759 79.3831C167.406 85.4997 158.147 86.1419 149.021 84.5235V84.2706C156.976 84.8057 162 81.8966 164.783 79.448C164.779 75.5983 165.159 72.686 165.159 72.686C165.159 72.686 163.855 77.1875 155.381 76.461C151.716 76.1432 149.588 74.9691 148.346 73.727V73.6751C147.377 72.6697 146.822 71.5184 146.822 70.2957C146.822 69.0698 147.377 67.9185 148.346 66.9131V54.5566H144.15C133.382 54.5566 124.911 45.8163 99.5852 45.8163C74.2593 45.8163 65.7881 54.5566 55.024 54.5566H50.8241V66.9131C51.797 67.9185 52.3484 69.0698 52.3484 70.2957C52.3484 71.5184 51.797 72.6697 50.8241 73.6751V73.727C49.582 74.9691 47.4577 76.1432 43.7896 76.461C35.3185 77.1875 34.0115 72.686 34.0115 72.686C34.0115 72.686 34.3909 75.5983 34.3877 79.448C37.1703 81.8966 42.194 84.8057 50.1495 84.2706V84.5235C41.0232 86.1419 31.764 85.4997 27.4116 79.3831L27.6581 83.9754C29.2764 85.5451 31.3715 86.6089 33.7358 87.3029C33.7358 87.3127 33.7326 87.3224 33.7326 87.3321C33.7326 87.3321 33.9174 87.3873 34.2612 87.4618C42.4924 89.638 53.9862 87.3386 62.2466 84.1733C73.296 79.9409 85.6947 75.4881 99.5852 75.4881C113.479 75.4881 125.878 79.9409 136.924 84.1733C145.184 87.3386 156.678 89.638 164.909 87.4618C165.256 87.3873 165.441 87.3321 165.441 87.3321C165.438 87.3224 165.438 87.3127 165.435 87.3029C167.802 86.6089 169.894 85.5451 171.512 83.9754L171.759 79.3831Z" fill="#003DA5"/>
<path d="M144.148 117.202V133.907C144.148 155.309 99.5868 172.193 99.5868 172.193C99.5868 172.193 55.0224 155.309 55.0224 133.907V117.202C55.4796 117.01 52.7327 118.149 50.8224 118.8V133.907C50.8224 158.176 94.748 174.975 99.5868 176.811C104.426 174.975 148.348 158.176 148.348 133.907V118.8C146.441 118.149 143.691 117.01 144.148 117.202Z" fill="#003DA5"/>
</svg>
