<svg width="200" height="200" viewBox="0 0 200 200" fill="none" xmlns="http://www.w3.org/2000/svg">
<g clip-path="url(#clip0_9898_54214)">
<path d="M184.868 75.0623C184.868 73.2483 183.906 71.5584 182.375 70.5826L181.874 70.2633C183.662 69.3718 184.864 67.5355 184.864 65.4997V52.003C184.886 51.7457 184.877 51.4885 184.819 51.2268C184.531 49.9095 183.311 49.018 181.967 49.1466L150.849 52.1227V27.3292C150.849 26.1938 150.131 25.1869 149.057 24.8144L100.876 8.14637C100.313 7.95121 99.7007 7.95121 99.1375 8.14637L50.9475 24.8099C49.8742 25.1825 49.1556 26.1893 49.1556 27.3248L49.1468 86.8914L16.4007 106.562C15.5136 107.094 15.0435 108.07 15.1189 109.046C15.1189 109.117 15.11 109.179 15.11 109.254V122.955C15.11 124.769 16.2499 126.455 17.7756 127.435L20.2638 129.032L18.9288 129.493C16.7821 130.233 15.1233 132.256 15.1233 134.522V148.046C15.11 148.285 15.1144 148.529 15.1676 148.773C15.4559 150.09 16.6801 150.982 18.0196 150.853L49.1379 147.877V172.671C49.1379 173.806 49.8564 174.813 50.9298 175.186L99.1153 191.849C99.3991 191.947 99.6919 191.996 99.9846 191.996C100.277 191.996 100.575 191.947 100.854 191.849L149.044 175.186C150.117 174.813 150.836 173.806 150.836 172.671L150.845 113.104L183.586 93.4335C184.411 92.9412 184.864 92.063 184.868 91.1537H184.877L184.859 75.0534L184.868 75.0623Z" fill="black"/>
<path d="M101.945 84.4607V113.996L98.7294 115.109V101.971L94.3074 103.502V116.644L88.3684 118.697L91.0917 114.244V91.5838L88.3684 89.2242L94.3074 87.1086V100.1L98.7294 98.5739V85.5828L101.945 84.474V84.4607ZM57.2634 129.466L52.5753 131.089L54.0478 126.774V101.107L57.2634 99.9932V129.466ZM149.164 87.3969V88.9271C149.164 92.125 148.64 94.693 147.602 96.5603C146.56 98.4453 144.977 99.5275 143.26 99.5275C140.577 99.5275 137.858 96.8442 137.858 91.7213V75.4569L135.117 73.0796L148.738 68.3249L148.751 76.2775L145.536 77.3863V72.8357L141.074 74.3747V91.7125C141.074 94.7108 142.342 96.3075 143.26 96.3075C143.77 96.3075 144.329 95.8285 144.79 94.999C145.318 94.0455 145.948 92.2181 145.948 88.9226V88.5013L149.164 87.3924V87.3969ZM86.4745 109.081V110.616C86.4745 113.814 85.9467 116.382 84.9133 118.249C83.8666 120.134 82.2876 121.216 80.5711 121.216C77.8877 121.216 75.1689 118.533 75.1689 113.41V97.1458L72.4278 94.7729L86.0488 90.0182L86.0576 97.9707L82.842 99.084V94.5333L78.3801 96.0768V113.415C78.3801 116.413 79.6486 118.005 80.5667 118.005C81.0767 118.005 81.6356 117.526 82.0969 116.692C82.6247 115.739 83.2545 113.911 83.2545 110.616V110.195L86.4701 109.081H86.4745ZM165.832 91.9032L162.709 92.981L156.806 83.649V95.0212L150.867 97.0748L153.59 92.6217V70.1567L151.599 67.3492L156.806 65.5484V73.4389L161.002 64.098L165.171 62.6566L157.768 79.1516L164.35 89.5569L165.836 87.4989V91.9032H165.832ZM117.402 93.9656L118.067 93.114V82.4116L116.067 79.6971L104.646 83.5869L107.387 85.9643V108.642L104.664 113.095L118.067 108.46V94.4934L117.402 93.9656ZM114.852 106.172L110.603 107.64V97.9264L114.852 96.4583V106.176V106.172ZM114.852 93.0519L110.603 94.5245V84.9974L114.852 83.5293V93.0519ZM31.6893 128.947C31.7647 133.755 31.8489 138.279 28.2918 139.508L20.663 142.147V134.531L24.8943 133.072L23.8786 135.494V137.632L27.2406 136.469C28.5978 135.999 28.5136 131.573 28.4736 128.996C28.4692 128.65 28.4603 128.308 28.4603 127.976L20.6453 122.964V112.678L29.6889 109.6L31.6671 112.244V116.644L28.4515 117.757V113.419L23.8609 114.98V121.203L31.6671 126.211V127.089C31.6671 127.679 31.6759 128.304 31.6848 128.943L31.6893 128.947ZM179.519 77.8032C179.594 82.6112 179.683 87.1352 176.122 88.3682L168.493 91.0028V83.3873L172.724 81.9281L171.708 84.3498V86.4876L175.07 85.3256C176.428 84.8554 176.343 80.429 176.303 77.852C176.299 77.5061 176.295 77.1646 176.29 76.8275L168.48 71.82V61.5344L177.528 58.4563L179.506 61.0998V65.4996L176.29 66.6129V62.2751L171.7 63.8364V70.0591L179.506 75.0666V75.9448C179.506 76.5347 179.515 77.1601 179.523 77.7988L179.519 77.8032ZM67.6465 122.303L69.1191 125.35L67.6465 125.86L64.4309 126.973V100.876L59.6674 102.521V99.155L64.4309 97.4917L67.6465 96.3784V96.3696L70.0416 95.5357L72.8448 97.9663L67.6465 99.7626V122.299V122.303ZM47.0799 133.005L43.5804 134.216L43.0748 133.764L42.2986 134.66L34.0355 137.521L35.5081 133.205V111.024L33.521 108.216L38.7281 106.424V132.491L41.3982 131.568V111.836L44.6138 110.722V130.455L46.0376 129.963C47.3948 129.493 47.3105 125.337 47.2706 122.764C47.2706 122.418 47.2573 103.484 47.2573 103.484L50.4685 102.308C50.4685 102.898 50.4773 122.072 50.4862 122.715C50.5616 127.523 50.6503 131.772 47.0887 133.005H47.0799Z" fill="white"/>
<path d="M136.785 103.195L129.967 78.2733H129.976L132.504 73.9622L123.9 76.9383V80.3712L125.448 79.8345L121.296 107.4L125.324 102.268V102.26C125.443 102.26 125.563 102.264 125.687 102.264C127.359 102.264 129.293 101.949 130.961 101.089C131.586 100.769 132.141 100.379 132.633 99.9399V99.9577L136.776 103.191L136.785 103.195ZM129.493 98.2279C128.331 98.8267 126.969 99.0351 125.812 99.0484L128.127 83.6844L131.56 96.059C131.174 96.9993 130.495 97.709 129.488 98.2279H129.493Z" fill="white"/>
<path d="M17.7712 148.21L51.8035 144.954L136.141 115.792V164.102L99.989 176.605L63.8366 164.106V153.506H63.7656L76.9829 143.287L51.7991 151.998V172.68L99.9846 189.343L148.175 172.68L148.183 111.605L182.216 91.1582L149.008 102.783L17.7712 148.21Z" fill="#00B5EF"/>
<path d="M182.225 51.79L148.192 55.0456L63.8543 84.2079V35.8982L100.007 23.395L136.159 35.8938V46.4942H136.23L123.013 56.7132L148.197 48.0022V27.3203L100.002 10.6611L51.8124 27.3247L51.8035 88.3993L17.7712 108.846L50.9786 97.2212L182.225 51.7945V51.79Z" fill="#00B5EF"/>
<path d="M69.8909 42.2764V41.7308C69.8909 41.6288 69.8376 41.5623 69.7445 41.5845C69.5848 41.6244 69.4252 41.6599 69.2699 41.6998C69.1856 41.722 69.1324 41.8151 69.1324 41.9171V44.9243C69.1324 45.0263 69.1856 45.0928 69.2699 45.0706C69.4296 45.0307 69.5893 44.9952 69.7445 44.9553C69.8376 44.9331 69.8909 44.84 69.8909 44.738V44.2013C70.2767 44.1082 70.6582 44.0195 71.044 43.9308V44.8267C71.044 45.4299 70.6183 46.0242 70.0905 46.1484C69.6913 46.246 69.2877 46.3436 68.8885 46.4412C68.3695 46.5698 67.9482 46.1839 67.9482 45.5807V41.8595C67.9482 41.2429 68.3695 40.6397 68.8885 40.5111C69.2877 40.4135 69.6913 40.316 70.0905 40.2184C70.6183 40.0942 71.044 40.4889 71.044 41.1055V42.0014C70.6582 42.0901 70.2767 42.1788 69.8909 42.2719V42.2764Z" fill="#00B5EF"/>
<path d="M73.8605 39.3224C74.8895 39.1095 75.6391 40.0365 75.6391 42.0013C75.6391 43.9573 74.8895 45.1593 73.8605 45.3722C72.8271 45.5851 72.0864 44.6936 72.0864 42.7376C72.0864 40.7727 72.8226 39.5353 73.8605 39.3224ZM73.8605 44.0327C74.1665 43.9706 74.3573 43.3275 74.3573 42.2453C74.3573 41.1675 74.1665 40.5998 73.8605 40.6619C73.5633 40.724 73.3637 41.3715 73.3637 42.4493C73.3637 43.5271 73.5633 44.0904 73.8605 44.0283V44.0327Z" fill="#00B5EF"/>
<path d="M76.6858 44.658V38.9275C77.0894 38.8521 77.4886 38.7812 77.8922 38.7102V43.15C78.4244 43.0568 78.9522 42.9681 79.4845 42.8839V44.1745C78.5486 44.3253 77.6172 44.485 76.6858 44.658Z" fill="#00B5EF"/>
<path d="M81.9284 37.9165C82.9618 37.7701 83.7203 38.7459 83.7203 40.7107C83.7203 42.6667 82.9662 43.8199 81.9284 43.9663C80.8861 44.1126 80.1409 43.1723 80.1409 41.2163C80.1409 39.2515 80.8861 38.0628 81.9284 37.9165ZM81.9284 42.6268C82.2344 42.5824 82.4296 41.9526 82.4296 40.8748C82.4296 39.797 82.2344 39.216 81.9284 39.2604C81.6312 39.3047 81.4272 39.939 81.4272 41.0168C81.4272 42.0945 81.6268 42.6711 81.9284 42.6312V42.6268Z" fill="#00B5EF"/>
<path d="M85.8935 43.3098C85.4899 43.3541 85.0907 43.3985 84.6871 43.4473V37.7168C85.3214 37.6414 85.9556 37.5705 86.5899 37.5039C87.1266 37.4463 87.5568 37.9031 87.5568 38.5152V39.9789C87.5568 40.3603 87.3794 40.724 87.1177 40.9502C87.4016 41.6643 87.681 42.3828 87.9648 43.0969C87.5257 43.1368 87.0822 43.1812 86.6431 43.2255C86.4125 42.5647 86.1863 41.9038 85.9556 41.2429C85.9335 41.2429 85.9157 41.2474 85.8935 41.2518V43.3098ZM86.1996 40.0986C86.2972 40.0897 86.3504 40.001 86.3504 39.9035V38.9055C86.3504 38.8035 86.2972 38.7281 86.1996 38.7414C86.0976 38.7503 85.9956 38.7636 85.8935 38.7769V40.1385C85.9956 40.1252 86.0976 40.1163 86.1996 40.103V40.0986Z" fill="#00B5EF"/>
<path d="M91.0518 42.0458C90.6926 42.0724 90.3333 42.0946 89.9741 42.1256C89.9253 42.4006 89.872 42.6712 89.8233 42.9462C89.4108 42.9772 88.9938 43.0127 88.5814 43.0482C89.0293 41.0966 89.4817 39.1539 89.9297 37.2068C90.32 37.1758 90.7059 37.1492 91.0962 37.1226C91.5442 39.0031 91.9966 40.8837 92.449 42.7643C92.0321 42.7865 91.6196 42.8131 91.2026 42.8441C91.1539 42.578 91.1006 42.3119 91.0518 42.0458ZM90.187 40.9902C90.4043 40.9724 90.6216 40.9591 90.839 40.9414C90.7281 40.3737 90.6216 39.8059 90.5107 39.2382C90.3999 39.8192 90.2934 40.4047 90.1825 40.9857L90.187 40.9902Z" fill="#00B5EF"/>
<path d="M93.3715 37.912C93.2961 37.606 93.2163 37.3 93.1409 36.9939C93.9925 36.9496 94.8485 36.9141 95.7045 36.883C96.2456 36.8653 96.6758 37.3487 96.6758 37.9653C96.6758 39.1406 96.6758 40.3116 96.6758 41.4869C96.6758 42.0901 96.2412 42.5958 95.7045 42.6135C94.9283 42.6401 94.1477 42.6712 93.3715 42.7111V37.912ZM94.5824 38.2181C94.5824 39.2693 94.5824 40.316 94.5824 41.3672C94.8263 41.3583 95.0702 41.3494 95.3142 41.3406C95.4118 41.3406 95.465 41.2563 95.465 41.1543V38.3689C95.465 38.2669 95.4118 38.187 95.3142 38.1915C95.0702 38.2003 94.8263 38.2092 94.5824 38.2181Z" fill="#00B5EF"/>
<path d="M99.5855 36.6567C100.628 36.6567 101.391 37.7345 101.391 39.6994C101.391 41.6554 100.632 42.7021 99.5855 42.7065C98.5343 42.7065 97.7803 41.6642 97.7803 39.7082C97.7803 37.7434 98.5298 36.6567 99.5855 36.6567ZM99.5855 41.3671C99.8959 41.3671 100.091 40.7639 100.091 39.6816C100.091 38.6039 99.8959 37.9962 99.5855 37.9962C99.2839 37.9962 99.0798 38.6039 99.0798 39.6816C99.0798 40.7594 99.2839 41.3626 99.5855 41.3626V41.3671Z" fill="#00B5EF"/>
<path d="M104.81 40.0186C104.473 39.9033 104.26 39.5441 104.26 39.1493V37.8897C104.26 37.2865 104.695 36.803 105.232 36.8252C105.622 36.8429 106.017 36.8607 106.407 36.8784C106.939 36.905 107.369 37.424 107.369 38.0316V38.7191C106.979 38.6969 106.593 38.6747 106.203 38.657V38.3332C106.203 38.2312 106.15 38.1514 106.061 38.1469C105.906 38.1381 105.751 38.1336 105.591 38.1248C105.493 38.1248 105.44 38.2002 105.44 38.2977V39.0251C105.44 39.0739 105.476 39.136 105.52 39.1493C105.955 39.3046 106.385 39.4598 106.82 39.615C107.157 39.7436 107.369 40.0985 107.369 40.4932V41.7662C107.369 42.3694 106.935 42.8395 106.398 42.8129C106.008 42.7952 105.613 42.773 105.223 42.7597C104.691 42.7375 104.26 42.2274 104.26 41.6242V40.9368C104.651 40.9501 105.037 40.9634 105.427 40.9811V41.3049C105.427 41.4069 105.48 41.4867 105.569 41.4912C105.724 41.5 105.879 41.5045 106.039 41.5133C106.136 41.5178 106.19 41.4379 106.19 41.3404V40.5952C106.19 40.5464 106.154 40.4932 106.11 40.471C105.675 40.3202 105.245 40.1694 104.81 40.0231V40.0186Z" fill="#00B5EF"/>
<path d="M110.603 37.2645C111.139 37.3088 111.574 37.8455 111.574 38.4576V40.1208C111.574 40.724 111.144 41.1809 110.603 41.1365C110.372 41.1188 110.137 41.0966 109.906 41.0788C109.906 41.6954 109.906 42.3163 109.906 42.9328C109.503 42.9018 109.099 42.8707 108.696 42.8441V38.0451C108.62 37.7302 108.545 37.4153 108.465 37.1003C109.179 37.1491 109.889 37.2024 110.598 37.26L110.603 37.2645ZM110.212 39.9877C110.31 39.9966 110.363 39.9212 110.363 39.8192V38.6172C110.363 38.5152 110.31 38.4309 110.212 38.4221C110.11 38.4132 110.008 38.4043 109.902 38.3955C109.902 38.9144 109.902 39.4378 109.902 39.9567C110.004 39.9656 110.106 39.9744 110.212 39.9833V39.9877Z" fill="#00B5EF"/>
<path d="M113.925 43.3186C113.521 43.2742 113.122 43.2298 112.719 43.1899C112.719 41.2783 112.719 39.3711 112.719 37.4595C113.353 37.5216 113.987 37.5925 114.621 37.6635C115.158 37.7256 115.588 38.2756 115.588 38.8877V40.3513C115.588 40.7328 115.411 41.0565 115.149 41.2251C115.428 42.0013 115.712 42.7774 115.992 43.5581C115.553 43.5004 115.114 43.4472 114.674 43.3984C114.444 42.6843 114.218 41.9746 113.987 41.265C113.965 41.265 113.947 41.2606 113.925 41.2561C113.925 41.9436 113.925 42.6266 113.925 43.3141V43.3186ZM114.231 40.1739C114.329 40.1828 114.382 40.1118 114.382 40.0098V39.0118C114.382 38.9098 114.329 38.8256 114.231 38.8123C114.129 38.7989 114.027 38.7901 113.925 38.7768C113.925 39.2292 113.925 39.686 113.925 40.1384C114.027 40.1517 114.129 40.1606 114.231 40.1739Z" fill="#00B5EF"/>
<path d="M117.047 43.6999V37.9695C117.464 38.0271 117.877 38.0848 118.294 38.1425V43.8729C117.877 43.8108 117.464 43.7532 117.047 43.6999Z" fill="#00B5EF"/>
<path d="M120.982 41.123C120.982 42.1786 120.982 43.2343 120.982 44.2899C120.582 44.2233 120.183 44.1568 119.784 44.0947C119.784 42.1831 119.784 40.2759 119.784 38.3643C120.112 38.4175 120.436 38.4663 120.764 38.5239C121.137 39.2291 121.509 39.9344 121.882 40.6396V38.7146C122.286 38.7856 122.685 38.8566 123.088 38.932V44.6624C122.685 44.587 122.286 44.5161 121.882 44.4451V42.8218C121.58 42.2541 121.283 41.6908 120.982 41.123Z" fill="#00B5EF"/>
<path d="M126.402 43.9528V43.3274C126.282 43.3008 126.162 43.2786 126.047 43.252V42.1919C126.552 42.2984 127.054 42.4048 127.559 42.5157V44.5515C127.559 45.168 127.133 45.5672 126.601 45.4519C126.197 45.3676 125.794 45.2834 125.39 45.1991C124.867 45.0926 124.441 44.516 124.441 43.9128V40.1916C124.441 39.5751 124.867 39.167 125.39 39.269C125.794 39.3489 126.197 39.4331 126.601 39.5218C127.133 39.6327 127.559 40.2226 127.559 40.8391V41.7351C127.173 41.6508 126.787 41.5665 126.402 41.4867V40.9412C126.402 40.8391 126.348 40.7504 126.255 40.7283C126.095 40.6928 125.936 40.6617 125.776 40.6307C125.687 40.6129 125.639 40.6839 125.639 40.7815V43.7886C125.639 43.8907 125.692 43.9794 125.776 43.9971C125.936 44.0282 126.095 44.0636 126.255 44.0947C126.353 44.1169 126.402 44.0459 126.402 43.9439V43.9528Z" fill="#00B5EF"/>
<path d="M129.307 43.3408C128.978 43.1634 128.77 42.7598 128.77 42.3694C128.77 41.9481 128.77 41.5267 128.77 41.1098C128.77 40.5066 129.196 40.1074 129.724 40.236C130.109 40.3292 130.491 40.4223 130.872 40.5155C131.391 40.6441 131.813 41.2473 131.813 41.8505V42.538C131.431 42.4404 131.054 42.3428 130.673 42.2497V41.9259C130.673 41.8239 130.619 41.7308 130.535 41.7086C130.384 41.6731 130.229 41.6332 130.078 41.5977C129.985 41.5755 129.932 41.642 129.932 41.7441V42.4715C129.932 42.5202 129.967 42.5912 130.007 42.6089C130.433 42.844 130.855 43.0835 131.28 43.3275C131.609 43.5226 131.817 43.9174 131.817 44.3121V45.5851C131.817 46.1883 131.396 46.5741 130.868 46.4455C130.486 46.3524 130.101 46.2548 129.719 46.1661C129.2 46.0419 128.774 45.452 128.774 44.8444C128.774 44.6137 128.774 44.3875 128.774 44.1569C129.156 44.2456 129.537 44.3343 129.919 44.4274V44.7512C129.919 44.8532 129.972 44.9464 130.056 44.9641C130.207 44.9996 130.362 45.0395 130.513 45.075C130.606 45.0972 130.659 45.0306 130.659 44.9286C130.659 44.6803 130.659 44.4319 130.659 44.1835C130.659 44.1347 130.624 44.0726 130.58 44.0416C130.154 43.8065 129.732 43.5714 129.307 43.3408Z" fill="#00B5EF"/>
<path d="M97.1637 62.4749H98.104C98.2016 62.4749 98.2548 62.4039 98.2548 62.3329V61.7918C98.2548 61.7209 98.2016 61.6499 98.104 61.6499H97.1637C97.0662 61.6499 97.0129 61.7209 97.0129 61.7918V62.3329C97.0129 62.4039 97.0662 62.4749 97.1637 62.4749Z" fill="#414042"/>
<path d="M98.2371 63.4595H97.0307C96.9331 63.4595 96.8799 63.5304 96.8799 63.6014V64.3465C96.8799 64.4175 96.9331 64.4885 97.0307 64.4885H98.2371C98.3347 64.4885 98.3879 64.4175 98.3879 64.3465V63.6014C98.3879 63.5304 98.3347 63.4595 98.2371 63.4595Z" fill="#414042"/>
<path d="M100.002 53.1118L83.5695 58.7979V77.3909L116.435 66.0275V58.7979L100.002 53.1163V53.1118ZM94.6622 65.6328H91.3091V64.3998H92.3204V62.4216L91.8946 62.7587L91.2027 61.8805L92.8349 60.5942H93.6421L93.651 64.3998H94.6622V65.6328ZM99.6742 64.7368C99.6742 65.2779 99.2306 65.7215 98.6895 65.7215H96.5783C96.0372 65.7215 95.5937 65.2779 95.5937 64.7368V63.8409C95.5937 63.3087 96.0017 63.0159 96.3477 62.9893C96.0638 62.9361 95.6912 62.6611 95.6824 62.1643V61.4902C95.6824 60.9491 96.1259 60.5055 96.667 60.5055H98.6008C99.1508 60.5055 99.5855 60.9491 99.5855 61.4902V62.1643C99.5855 62.6611 99.204 62.9361 98.9202 62.9893C99.2661 63.0159 99.6742 63.3087 99.6742 63.8409V64.7368ZM104.748 61.091L102.735 65.6328H101.271L103.036 61.7474H100.473V60.5942H104.748V61.091ZM108.784 65.6328H105.431V64.3998H106.442V62.4216L106.017 62.7587L105.325 61.8805L106.957 60.5942H107.764L107.773 64.3998H108.784V65.6328Z" fill="#414042"/>
<path d="M109.853 166.271L116.426 164V148.126L109.853 150.401V166.271Z" fill="#414042"/>
<path d="M96.7068 152.672V168.546L99.9934 169.681L103.28 168.546V152.672L99.9934 153.812L96.7068 152.672Z" fill="#414042"/>
<path d="M70.4142 159.453L76.9874 161.724V143.282L70.4142 148.365V159.453Z" fill="#414042"/>
<path d="M83.5605 164L90.1337 166.271V150.401L83.5605 148.13V164Z" fill="#414042"/>
<path d="M83.5605 141.202L99.9935 146.884L116.426 141.198V122.605L83.5605 133.968V141.198V141.202ZM100.282 134.806C100.282 134.106 100.858 133.529 101.559 133.529H103.968C104.677 133.529 105.245 134.106 105.245 134.806V135.316L103.737 135.84V135.157C103.737 135.072 103.675 134.988 103.559 134.988H102.02C101.914 134.988 101.843 135.072 101.843 135.157V138.066C101.843 138.151 101.918 138.235 102.02 138.235H103.559C103.675 138.235 103.737 138.151 103.737 138.066V137.578H105.245V138.408C105.245 139.109 104.682 139.685 103.968 139.685H101.559C100.858 139.685 100.282 139.109 100.282 138.408V134.806ZM99.2883 133.635V134.997H96.6182V136.035H98.6185V137.343H96.6182V139.583H95.0569V134.718L94.7642 133.64H99.2838L99.2883 133.635Z" fill="#414042"/>
<path d="M123 120.338V161.724L129.573 159.454V118.067L123 120.338Z" fill="#414042"/>
</g>
<defs>
<clipPath id="clip0_9898_54214">
<rect width="169.776" height="184" fill="white" transform="translate(15.11 8)"/>
</clipPath>
</defs>
</svg>
