<svg width="200" height="200" viewBox="0 0 200 200" fill="none" xmlns="http://www.w3.org/2000/svg">
<g clip-path="url(#clip0_9898_54216)">
<path d="M100.272 171.013C92.0272 171.013 83.9925 169.415 76.3926 166.268C68.4854 162.989 61.4837 158.189 55.5761 152.005L54.3852 150.759L54.4655 31.5566L145.672 31.5677L145.7 108.026L145.73 108.331L145.766 150.332L144.639 151.589C138.975 157.89 132.104 162.801 124.232 166.163C116.68 169.384 108.617 171.018 100.272 171.018" fill="white"/>
<path d="M137.438 90.9459C134.397 88.8382 133.131 89.9737 131.203 88.4975C129.863 87.47 128.151 85.667 126.814 84.7724C125.368 83.8058 121.452 82.853 118.283 82.7339C118.195 82.7312 118.109 82.7284 118.023 82.7256C117.976 82.6951 117.929 82.6619 117.882 82.6314C116.898 81.9806 115.447 81.2633 112.481 80.4684C109.974 79.7954 108.257 79.2165 106.853 78.8315C106.908 78.8454 106.964 78.862 107.022 78.8786C106.931 78.8509 106.839 78.8288 106.75 78.8038C106.684 78.7872 106.62 78.7678 106.557 78.7512C106.584 78.7567 106.609 78.7651 106.637 78.7734C106.593 78.7623 106.546 78.7484 106.504 78.7374C106.728 78.0754 106.759 77.4273 106.324 76.8235C106.324 76.8069 106.324 76.7903 106.324 76.7765C106.324 76.7848 106.324 76.7903 106.324 76.7958C106.352 76.0287 106.213 75.0177 105.759 73.6274C105.726 73.5249 105.69 73.4224 105.654 73.3172V73.3117C105.654 73.3117 105.648 73.3061 105.648 73.3006C105.618 73.212 105.587 73.1289 105.56 73.0458C105.548 73.0153 105.537 72.9876 105.529 72.9599C105.51 72.9045 105.488 72.8464 105.468 72.7937C105.457 72.7633 105.446 72.7356 105.435 72.7051C105.416 72.6525 105.396 72.5999 105.377 72.5472C105.371 72.5306 105.363 72.5112 105.357 72.4974C105.363 72.514 105.371 72.5306 105.377 72.5472C105.338 72.4475 105.302 72.3534 105.266 72.262C105.238 72.1955 105.213 72.129 105.186 72.0681C105.177 72.0459 105.169 72.0266 105.161 72.0072C105.141 71.9656 105.125 71.9241 105.108 71.8825C104.562 70.614 104.247 70.3731 104.075 69.833C103.853 69.1323 102.663 66.9 101.837 66.2547C101.424 65.9334 100.735 65.3379 100.109 64.7978C100.092 64.784 100.076 64.7701 100.059 64.7535C99.9843 64.6898 99.9123 64.6289 99.8403 64.568C99.8292 64.5596 99.8181 64.5486 99.807 64.5403C99.7322 64.4766 99.6602 64.4156 99.5882 64.3547C99.5799 64.3492 99.5744 64.3436 99.5661 64.3381C99.1756 64.0057 98.8626 63.7509 98.7463 63.6844C98.4111 63.4961 97.5304 63.0613 95.3535 62.776C95.1181 62.7455 94.866 62.7317 94.6084 62.7317C94.5974 62.7317 94.5863 62.7317 94.578 62.7317C94.5614 62.7317 94.5447 62.7317 94.5281 62.7317C92.4121 62.7455 89.7394 63.6263 89.2409 63.7897C88.6731 63.9753 88.0195 64.1137 87.1831 64.4987C86.3467 64.8865 85.549 65.3158 84.5353 64.9612C84.0617 65.7949 83.7848 66.1688 83.7848 66.1688C83.6906 66.1328 83.6324 66.0552 83.613 65.9555C83.6075 65.9223 83.602 65.8891 83.6047 65.8531C83.6047 65.781 83.6213 65.7007 83.6518 65.6232C83.6823 65.5456 83.7266 65.4653 83.7848 65.3933C82.9234 65.4348 82.2615 65.745 81.8737 66.5842C81.8516 66.5704 81.8322 66.5621 81.81 66.551C81.8017 66.5482 81.7962 66.5427 81.7879 66.5399C81.7768 66.5344 81.7685 66.5316 81.7574 66.5261C81.6771 66.4901 81.5967 66.4568 81.533 66.4014C81.497 66.371 81.4638 66.3294 81.4389 66.2796C81.4278 66.2519 81.4167 66.2242 81.4084 66.191C81.389 66.1106 81.3835 66.0054 81.3973 65.8697C81.3503 65.8974 81.3032 65.9223 81.2589 65.95C80.9819 66.1217 80.7603 66.3239 80.5803 66.5455C80.5775 66.5482 80.5748 66.5538 80.572 66.5565C80.5388 66.5981 80.5083 66.6396 80.4778 66.6812C79.9322 67.4456 79.838 68.39 79.8242 69.0326C79.8242 69.1268 79.8242 69.2126 79.8242 69.2902C79.3063 69.1877 78.949 69.1268 78.5363 68.8664C78.4782 68.8304 78.4172 68.7889 78.3563 68.7418C78.1818 69.5921 78.4366 73.777 82.4636 75.6631C82.4387 76.1339 82.796 76.7128 83.3028 76.8679C83.2004 78.0228 83.084 79.3938 85.7567 81.7258C85.6238 82.6204 85.2111 84.7502 85.2693 86.0852C85.1779 86.4397 85.0588 86.9438 85.0532 87.4118C83.9343 88.8299 82.9262 89.6358 81.0871 90.3947C78.6277 91.4112 76.0243 93.5798 74.6478 95.1585C73.1245 96.9089 72.7118 98.1635 72.5041 99.1218C72.4791 99.2381 72.457 99.3489 72.4376 99.4541C72.3074 100.127 72.2326 100.642 71.8172 101.083C70.7841 102.174 66.5328 104.589 65.8819 109.369C65.8708 109.452 65.857 109.536 65.8404 109.616C65.7933 109.854 65.7268 110.076 65.6465 110.283C65.5911 110.342 65.5385 110.397 65.4858 110.452C65.472 110.466 65.4609 110.48 65.4471 110.494C65.3917 110.552 65.3391 110.607 65.2837 110.663C64.7685 111.186 64.2589 111.607 63.3754 111.995C62.2398 111.987 60.2651 111.006 57.8445 110.535C57.5813 110.486 57.3127 110.438 57.0385 110.4C57.008 110.394 56.972 110.391 56.9388 110.386H56.9332C56.9 110.38 56.864 110.375 56.828 110.372C56.7338 110.358 56.6314 110.344 56.5233 110.33C56.5178 110.33 56.5067 110.33 56.5012 110.328C56.2325 110.289 55.9251 110.245 55.5844 110.195C55.5014 110.184 55.4155 110.17 55.3269 110.156C55.3213 110.156 55.3158 110.156 55.3102 110.156C55.3047 110.156 55.2992 110.156 55.2936 110.156C55.0305 110.117 54.7092 110.065 54.4157 110.017L54.4073 121.215C54.4655 121.232 54.5348 121.262 54.5901 121.279C57.4733 122.06 63.3837 123.001 64.4639 123.173C65.544 123.345 66.0425 123.409 67.0673 122.68C70.521 120.224 74.1714 117.263 75.1878 116.457C76.2043 115.651 80.3033 112.577 81.4472 111.857C82.9566 110.707 83.2502 110.311 84.84 109.12C85.5573 108.586 84.9369 110.508 86.3716 114.141C86.4519 114.346 87.8533 118.207 89.4791 120.933C87.2302 126.862 88.0223 127.798 87.6788 130.142C87.6788 130.316 87.6788 130.488 87.6788 130.662C87.6456 130.662 87.6096 130.668 87.5764 130.668C76.7554 131.222 65.2144 135.454 58.6532 139.456L58.6698 141.774V149.006C61.4671 151.933 64.4168 154.434 67.6406 156.639C67.7819 156.733 67.9979 156.877 68.2582 157.049C68.2555 157.049 68.2499 157.049 68.2472 157.049C68.3995 157.151 68.5546 157.248 68.7069 157.348C68.8232 157.422 68.9423 157.492 69.0587 157.566C69.596 157.91 70.2496 158.314 70.9475 158.732C71.0306 158.782 71.1137 158.838 71.1968 158.888C71.2273 158.907 71.2605 158.924 71.291 158.943C71.3187 158.96 71.3491 158.976 71.3768 158.993C71.4461 159.034 71.5209 159.076 71.5929 159.117C71.6566 159.153 71.7203 159.192 71.7867 159.228C71.8754 159.278 71.9612 159.325 72.0471 159.375C72.0637 159.383 72.0775 159.392 72.0942 159.4C72.8641 159.838 73.659 160.264 74.4511 160.649C74.5674 160.707 74.6838 160.768 74.8001 160.824C74.8001 160.824 74.8029 160.815 74.8056 160.812C75.3679 161.076 75.9135 161.308 76.4397 161.499L76.3455 161.549C91.0218 168.216 107.964 168.462 122.523 162.269C122.507 162.269 122.49 162.266 122.474 162.264C123.21 162.056 123.861 161.796 124.31 161.472C128.326 159.602 132.109 157.195 135.607 154.315C135.613 154.32 135.621 154.326 135.627 154.331C135.837 154.16 136.045 153.988 136.253 153.814C136.241 153.808 136.233 153.797 136.225 153.791C136.782 153.321 137.349 152.869 137.889 152.371C138.047 152.224 138.208 152.077 138.363 151.927C138.554 151.745 138.745 151.562 138.934 151.376C139.1 151.216 139.266 151.052 139.432 150.889C139.307 151.013 139.183 151.135 139.058 151.257C139.269 151.049 139.482 150.842 139.69 150.631C139.947 150.371 140.202 150.108 140.454 149.842C140.501 149.792 140.545 149.742 140.593 149.695C140.869 149.399 141.146 149.102 141.418 148.798C141.418 148.798 141.429 148.784 141.437 148.778V139.988L141.235 139.882L141.224 139.877C141.019 139.763 140.809 139.652 140.598 139.536C140.54 139.506 140.479 139.472 140.421 139.439C140.232 139.34 140.044 139.237 139.853 139.135C139.817 139.115 139.781 139.096 139.742 139.076C139.512 138.955 139.277 138.83 139.042 138.705C139.008 138.686 138.972 138.669 138.939 138.65C138.726 138.539 138.51 138.426 138.291 138.312C138.258 138.293 138.222 138.276 138.186 138.257C137.682 137.996 137.166 137.736 136.64 137.473C136.615 137.462 136.59 137.448 136.565 137.437C136.025 137.168 135.474 136.902 134.909 136.634C134.904 136.634 134.898 136.628 134.895 136.628C130.672 134.634 125.756 132.717 120.092 131.485C120.15 131.399 120.197 131.333 120.225 131.291C120.79 130.499 120.36 129.446 119.311 129.147C119.291 129.142 119.269 129.136 119.25 129.131C119.197 129.117 119.145 129.106 119.092 129.097C119.07 129.095 119.048 129.089 119.025 129.086C118.951 129.075 118.873 129.067 118.793 129.064C118.804 129.023 118.812 128.984 118.82 128.942C119.034 127.962 118.242 126.957 117.353 127.012C117.785 126.236 116.835 124.935 116.081 124.929H116.079C116.079 124.929 116.07 124.929 116.067 124.929C116.07 124.929 116.076 124.929 116.079 124.929C116.004 124.929 115.932 124.94 115.863 124.968C115.034 123.63 114.456 122.794 114.422 122.306C114.422 122.273 114.422 122.243 114.422 122.215C114.428 122.143 114.439 122.071 114.45 121.996C114.453 121.977 114.456 121.96 114.458 121.941C114.472 121.866 114.486 121.791 114.503 121.711C115.306 118.105 120.884 110.92 121.197 103.398C121.23 102.6 121.213 101.72 121.15 100.759C123.257 101.645 125.238 102.559 127.581 103.149C131.032 104.018 141.75 106.184 144.467 106.844C144.969 106.965 145.362 107.071 145.691 107.151L145.686 91.5524C144.902 92.7157 144.187 93.962 143.559 95.4493C139.515 94.9507 140.684 93.1976 137.432 90.9431" fill="#490000"/>
<path d="M106.701 78.7871C106.718 78.7928 106.735 78.7956 106.752 78.8013C106.755 78.8013 106.76 78.8013 106.763 78.8041C106.743 78.7985 106.721 78.7928 106.701 78.7871Z" fill="#490000"/>
<path d="M133.505 105.409C132.959 105.29 132.527 105.193 132.262 105.132C131.899 105.049 127.855 104.259 127.808 104.218C127.251 104.102 126.706 103.985 126.199 103.869C126.107 103.93 124.138 103.509 124.163 103.323C124.03 103.279 123.911 103.235 123.806 103.19C123.521 103.074 123.246 102.977 122.981 102.886C122.687 102.783 122.391 102.678 122.083 102.548C122.083 102.853 122.078 103.149 122.067 103.431C121.856 108.497 119.419 113.275 117.461 117.113C116.364 119.263 115.417 121.121 115.292 122.262C115.347 122.514 115.807 123.242 116.212 123.891C116.253 123.954 116.295 124.021 116.336 124.087C116.948 124.19 117.569 124.655 117.968 125.331C118.167 125.669 118.286 126.018 118.322 126.353C118.668 126.516 118.981 126.774 119.225 127.103C119.505 127.48 119.671 127.918 119.715 128.364C120.338 128.58 120.837 129.003 121.119 129.574C121.324 129.989 121.388 130.438 121.316 130.873C129.22 132.734 135.657 135.864 141.443 139.004L141.454 107.104C138.834 106.556 135.676 105.882 133.743 105.462L133.505 105.409Z" fill="#490000"/>
<path d="M86.7815 129.745C86.8092 127.541 86.8424 125.056 88.687 121.004C87.2163 119.611 86.2581 117.31 85.6958 115.532C85.1142 113.693 84.7625 111.829 84.5824 110.339C84.1476 110.848 83.638 111.41 83.0314 111.967C81.5719 113.305 79.2509 114.803 77.5559 115.9C76.7389 116.426 76.0354 116.883 75.7252 117.13C75.5978 117.229 75.4316 117.362 75.2322 117.523C74.4761 118.127 73.1605 119.177 71.6289 120.359C71.6926 120.498 68.1696 122.951 67.5686 123.381C66.8042 123.924 66.1977 124.145 65.4748 124.145C65.3889 124.145 65.2975 124.142 65.2034 124.134C65.2034 124.134 63.7742 123.954 63.0209 123.829C62.0571 123.674 61.0628 123.514 60.3787 123.431C59.9993 123.384 59.401 123.284 58.692 123.145L58.6809 138.362C62.1236 136.354 66.5411 134.445 71.2135 132.947C76.5588 131.235 81.9208 130.169 86.7843 129.845C86.7843 129.812 86.7843 129.779 86.7843 129.748" fill="#490000"/>
<path d="M58.7003 109.84C59.6531 110.065 60.5227 110.347 61.2678 110.591C62.0543 110.846 62.744 111.073 63.2065 111.123C63.9598 110.763 64.3697 110.378 64.8904 109.824C64.9514 109.641 64.9929 109.452 65.0206 109.256C65.2283 107.727 65.7739 106.425 66.4636 105.317C67.0535 104.381 68.2971 102.85 69.0947 102.268C69.2221 102.155 69.3495 102.044 69.4742 101.939C69.3966 101.761 71.3104 100.748 71.7757 98.4571C72.0416 97.4849 72.5844 96.2109 73.9942 94.5907C75.4372 92.9345 78.168 90.6661 80.7548 89.5971C82.3031 88.9573 83.2032 88.3064 84.203 87.0878C84.2363 86.7056 84.3166 86.3289 84.3997 85.9938C84.372 84.825 84.6295 83.2463 84.804 82.1911C84.8123 82.144 84.8179 82.0997 84.8262 82.0554C83.7322 81.0417 83.0259 80.0917 82.677 79.1611C82.4138 78.4604 82.3778 77.8594 82.4 77.347C82.1341 77.1337 81.9181 76.8512 81.7768 76.5327C80.6108 76.1117 79.4808 75.1396 78.6139 73.7963C77.6667 72.3284 77.1405 70.6002 77.1709 69.0547L77.326 67.2379L78.6915 67.922L78.866 68.0521C78.9213 68.0937 78.974 68.1297 79.0238 68.1602C79.1651 67.1631 79.6082 65.8641 80.9819 65.1136L82.4305 64.3215L82.3723 64.8615C82.7656 64.6677 83.2226 64.5569 83.746 64.5319H83.7931L84.1449 63.9088L84.8234 64.147C84.9841 64.2024 85.1364 64.2301 85.2943 64.2301C85.718 64.2301 86.1501 64.0279 86.6514 63.7952C86.7095 63.7675 86.7649 63.7426 86.8231 63.7149C87.4906 63.4047 88.0611 63.2413 88.5181 63.1056C88.6787 63.0585 88.8311 63.0142 88.9751 62.9671L89.0055 62.9588C91.1991 62.2442 93.1267 61.8676 94.5808 61.8676C94.8965 61.8676 95.1957 61.887 95.4698 61.923C97.1261 62.139 98.3724 62.4797 99.1756 62.9366C99.4083 63.0696 99.8486 63.4407 100.868 64.3159C101.43 64.8006 102.014 65.2991 102.369 65.5761C103.397 66.3793 104.646 68.775 104.898 69.5727C104.945 69.7222 105.011 69.8358 105.155 70.0795C105.438 70.5587 105.864 71.2815 106.471 73.0292C106.953 74.4167 107.191 75.5827 107.196 76.5826C107.46 77.0479 107.568 77.563 107.52 78.1225C107.972 78.2527 108.454 78.3995 108.983 78.5573C110.033 78.8758 111.226 79.2359 112.711 79.6347C115.86 80.4794 117.369 81.2605 118.303 81.8726C120.604 81.9557 123.152 82.5899 125.227 83.1161C127.301 83.6424 129.977 86.1378 129.93 86.2541C130.578 86.844 131.19 87.398 131.733 87.8134C132.45 88.3618 133.026 88.4587 133.826 88.5944C134.854 88.7689 136.131 88.985 137.934 90.2368C139.349 91.2173 140.005 92.1202 140.532 92.8458C140.845 93.2779 141.094 93.6213 141.459 93.8927V83.6728L138.302 85.5396L137.574 85.9799L137.438 86.063L137.408 86.0686L137.358 86.099L137.175 86.1184L137.059 86.1295L135.834 86.3483L134.558 86.5782L134.84 85.3124L135.186 83.7615L135.272 83.382L135.613 83.1937L141.465 79.9865V69.9853L120.444 72.2786L120.305 72.2924L120.081 72.3201L119.862 72.3478L119.657 72.2647L118.649 71.8576L117.635 71.4477L118.269 70.5559L119.206 69.2431L119.435 68.9218L119.829 68.8858L141.473 66.8612L141.484 35.8691L58.764 35.8386L58.7086 109.843L58.7003 109.84Z" fill="#490000"/>
<path d="M135.676 85.5006L136.928 85.2763L137.075 85.2597L137.097 85.2458L137.122 85.2431L137.853 84.7999L145.689 80.1774V78.6514L136.023 83.9524L135.676 85.5006Z" fill="#490000"/>
<path d="M118.965 71.0544L119.975 71.4615L120.338 71.4172L120.344 71.42L145.686 68.6587V67.332L119.901 69.7416L118.965 71.0544Z" fill="#490000"/>
<path d="M145.703 90.0401C144.717 91.3778 143.825 92.7876 143.041 94.4992C142.761 94.4466 142.523 94.3884 142.312 94.3192V83.1659L145.694 81.1717L145.7 90.0373L145.703 90.0401ZM142.321 69.8938V79.5183L145.691 77.6682L145.686 69.5255L142.321 69.8911V69.8938ZM145.016 107.868C144.858 107.827 144.689 107.785 144.503 107.738C143.902 107.616 143.149 107.458 142.31 107.284L142.299 140.17V149.102L142.077 149.349C141.928 149.515 141.772 149.678 141.62 149.845C141.592 149.875 141.562 149.908 141.534 149.939C136.729 155.135 131.06 159.275 124.667 162.253L124.484 162.338H124.476C123.955 162.579 123.432 162.812 122.903 163.039C115.81 166.064 108.227 167.598 100.361 167.598C92.4953 167.598 84.937 166.083 77.7442 163.097C76.9106 162.751 76.0908 162.388 75.2793 162.006V162.017L74.4152 161.596C74.0579 161.422 73.7034 161.242 73.3488 161.056C73.155 160.956 72.9611 160.854 72.7672 160.751C72.734 160.735 72.7008 160.715 72.6675 160.699C70.9171 159.768 69.2249 158.749 67.588 157.649L65.1923 156.054L65.3419 156.06C62.7412 154.129 60.3399 152.002 58.0439 149.601L57.8057 149.352V141.813L57.8168 138.882L57.8279 122.976C56.8696 122.772 55.8005 122.517 54.8228 122.234C54.6816 122.198 54.5431 122.162 54.4129 122.129L54.3908 150.753L55.5817 151.999C61.6361 158.336 68.7651 163.094 76.3982 166.257C84.0313 169.423 92.1657 171.002 100.272 171.002C108.465 171.002 116.633 169.387 124.221 166.149C131.81 162.912 138.82 158.04 144.645 151.559L145.747 150.335L145.714 108.048C145.506 108.001 145.276 107.943 145.013 107.874M57.8389 109.666L57.8943 34.9827L142.332 35.016L142.321 66.7863L145.683 66.4706L145.655 31.5899L54.4794 31.5789L54.4212 109.153C55.5457 109.331 56.4929 109.469 57.1465 109.555C57.382 109.585 57.6118 109.624 57.8389 109.666ZM179.007 69.5338C179.802 68.6614 180.461 67.9246 180.567 67.7862C180.813 67.4566 180.799 67.1685 180.334 66.7697C179.869 66.3736 179.362 66.1742 178.75 66.9442C178.235 66.9442 177.739 67.091 177.279 67.6394C176.8 67.4704 176.221 67.584 175.806 68.4232C175.72 68.3705 175.631 68.3484 175.54 68.3539L175.266 68.2598C175.468 67.476 175.534 66.6423 175.443 65.7893C175.401 65.4071 175.326 65.0387 175.227 64.6786L195.024 59.2696L195.802 58.4941L194.689 58.1839L175.061 64.1663C174.814 63.4988 174.473 62.8839 174.05 62.3355L183.015 55.3228L182.732 54.3175L173.67 61.8869C173.011 61.1695 172.205 60.599 171.305 60.2085L172.861 53.3315L172.236 52.3649L170.748 59.998C169.94 59.7265 169.067 59.6019 168.17 59.649L166.893 39.849L166.054 38.7577L165.342 39.86L167.38 59.7349C166.898 59.8152 166.436 59.9453 165.996 60.1171L162.564 52.8662L162.071 52.6197L161.473 53.0988L165.367 60.3968C164.278 60.9507 163.364 61.7788 162.708 62.7787L148.082 55.5832L146.921 55.6247L147.218 56.4861L162.273 63.5459C161.927 64.2549 161.703 65.0304 161.617 65.8391L119.903 69.7415L118.967 71.0543L119.975 71.4614L120.341 71.4171H120.347L161.586 66.922C161.595 67.0494 161.603 67.1796 161.617 67.3098C161.642 67.5286 161.675 67.7418 161.719 67.9551L150.22 72.8407L151.558 73.2119L161.863 68.5229C161.971 68.8829 162.107 69.2291 162.268 69.5615L136.023 83.9497L135.676 85.5007L136.931 85.2763L137.075 85.2597L137.1 85.2459H137.125L137.856 84.8L162.614 70.1902C162.797 70.481 162.999 70.7552 163.22 71.0155C161.938 70.9934 160.545 71.8243 159.113 73.6965C157.659 74.965 157.149 76.2834 155.499 79.1333C155.166 79.0225 154.718 79.3244 154.108 80.2966C149.602 87.5114 145.991 89.7299 143.57 95.4492C139.526 94.9506 140.695 93.1975 137.444 90.943C134.402 88.8353 133.137 89.9708 131.209 88.4946C129.869 87.4671 128.157 85.6641 126.819 84.7695C125.373 83.8029 121.457 82.8501 118.289 82.731C118.2 82.7283 118.114 82.7255 118.028 82.7227C117.981 82.6923 117.934 82.659 117.887 82.6286C117.882 82.6258 117.879 82.623 117.873 82.6203C117.876 82.623 117.882 82.6258 117.887 82.6286C116.904 81.9777 115.453 81.2604 112.486 80.4655C109.98 79.7925 108.263 79.2164 106.859 78.8287C106.914 78.8453 106.969 78.8591 107.027 78.8757C106.919 78.8453 106.811 78.8148 106.706 78.7871C106.726 78.7926 106.748 78.7982 106.767 78.8037C106.698 78.7843 106.631 78.7677 106.562 78.7483C106.59 78.7566 106.618 78.7622 106.643 78.7705C106.598 78.7594 106.551 78.7456 106.51 78.7345C106.734 78.0725 106.764 77.4244 106.33 76.8207C106.33 76.8041 106.33 76.7874 106.33 76.7736C106.33 76.7791 106.33 76.7874 106.33 76.793C106.357 76.0258 106.219 75.0149 105.765 73.6245C105.731 73.522 105.698 73.4196 105.659 73.3143V73.3088C105.659 73.3088 105.654 73.3005 105.654 73.2977C105.623 73.2091 105.593 73.126 105.562 73.0429C105.551 73.0124 105.54 72.9847 105.532 72.957C105.512 72.9017 105.49 72.8463 105.471 72.7909C105.46 72.7604 105.449 72.7327 105.438 72.7022C105.418 72.6496 105.399 72.597 105.38 72.5444C105.374 72.5278 105.366 72.5084 105.36 72.4917C105.366 72.5084 105.374 72.525 105.38 72.5416C105.341 72.4419 105.305 72.3477 105.269 72.2563C105.241 72.1899 105.216 72.1234 105.188 72.0625C105.18 72.0403 105.172 72.0209 105.164 72.0015C105.144 71.96 105.128 71.9184 105.111 71.8769C105.105 71.8658 105.103 71.8547 105.097 71.8464C105.103 71.8575 105.105 71.8686 105.111 71.8769C104.565 70.6084 104.25 70.3674 104.078 69.8274C103.856 69.1294 102.665 66.8943 101.84 66.249C101.427 65.925 100.738 65.3323 100.112 64.7922C100.095 64.7783 100.078 64.7645 100.062 64.7479C99.9871 64.6842 99.9151 64.6232 99.8431 64.5623C99.832 64.554 99.8209 64.5429 99.8098 64.5346C99.7351 64.4709 99.663 64.4072 99.591 64.3491C99.5827 64.3435 99.5772 64.338 99.5689 64.3297C99.1784 63.9973 98.8654 63.7425 98.7491 63.676C98.4139 63.4877 97.536 63.0529 95.359 62.7676C95.1236 62.7371 94.8716 62.7233 94.614 62.7205C94.6029 62.7205 94.5919 62.7205 94.5836 62.7205C94.5669 62.7205 94.5503 62.7205 94.5337 62.7205C92.4149 62.7344 89.745 63.6151 89.2437 63.7785C88.6759 63.9641 88.0223 64.1026 87.1859 64.4875C86.3495 64.8725 85.5518 65.3046 84.5381 64.9501C84.0645 65.7837 83.7876 66.1576 83.7876 66.1576C83.6934 66.1216 83.6352 66.0441 83.6158 65.9444C83.6075 65.9111 83.6048 65.8779 83.6048 65.8419C83.6048 65.7699 83.6214 65.6896 83.6519 65.612C83.6823 65.5345 83.7266 65.4541 83.7848 65.3821C82.9234 65.4237 82.2615 65.7311 81.8737 66.5703C81.8516 66.5592 81.8322 66.5481 81.8101 66.5371C81.8017 66.5343 81.7962 66.5287 81.7879 66.526C81.7768 66.5204 81.7685 66.5149 81.7574 66.5121C81.6771 66.4761 81.5968 66.4429 81.5331 66.3875C81.4943 66.3543 81.4638 66.3155 81.4389 66.2656C81.4278 66.2379 81.4168 66.2102 81.4085 66.177C81.3891 66.0967 81.3835 65.9914 81.3974 65.8557C81.3503 65.8807 81.3032 65.9084 81.2589 65.936C80.9819 66.1078 80.7604 66.3099 80.5803 66.5315C80.5776 66.5343 80.5748 66.5398 80.572 66.5426C80.5388 66.5841 80.5083 66.6257 80.4779 66.6672C79.9322 67.4316 79.8381 68.3761 79.8242 69.0186C79.8242 69.1128 79.8242 69.1987 79.8242 69.279C79.3063 69.1765 78.949 69.1156 78.5364 68.8552C78.4782 68.8192 78.4173 68.7777 78.3563 68.7306C78.1846 69.5809 78.4366 73.763 82.4637 75.6519C82.4388 76.1227 82.796 76.7016 83.3029 76.8567C83.2004 78.0116 83.0841 79.3826 85.7568 81.7146C85.6238 82.612 85.2112 84.739 85.2693 86.074C85.1779 86.4285 85.0588 86.9326 85.0533 87.4006C83.9344 88.8187 82.9262 89.6246 81.0872 90.3835C78.6278 91.4 76.0243 93.5658 74.6478 95.1473C73.1217 96.8977 72.7118 98.1523 72.5041 99.1106C72.4792 99.2269 72.457 99.3377 72.4376 99.443C72.4155 99.5537 72.3961 99.6618 72.3767 99.7642C72.3961 99.6618 72.4183 99.5537 72.4376 99.443C72.3075 100.119 72.2327 100.634 71.8172 101.074C70.7842 102.166 66.5328 104.581 65.8792 109.361C65.8986 109.211 65.9235 109.067 65.9512 108.923C65.9235 109.067 65.9013 109.214 65.8792 109.361C65.8681 109.444 65.8542 109.527 65.8376 109.605C65.7905 109.843 65.7241 110.064 65.6437 110.272C65.677 110.186 65.7047 110.1 65.7324 110.009C65.7047 110.098 65.6742 110.186 65.6437 110.272C65.5884 110.33 65.5357 110.386 65.4831 110.441C65.4693 110.455 65.4582 110.469 65.4443 110.483C65.3889 110.541 65.3363 110.596 65.2809 110.652C65.3336 110.596 65.3889 110.541 65.4416 110.483C65.3862 110.541 65.3336 110.596 65.2809 110.652C64.7658 111.175 64.2562 111.596 63.3727 111.984C62.2371 111.976 60.2624 110.995 57.8417 110.527C57.5786 110.474 57.3099 110.43 57.0358 110.391C57.0025 110.389 56.9721 110.383 56.936 110.377H56.9305C56.8973 110.372 56.8613 110.366 56.8253 110.361C56.7311 110.347 56.6286 110.333 56.5206 110.319C56.2464 110.281 55.9307 110.233 55.5817 110.184C55.4986 110.172 55.4128 110.159 55.3241 110.145H55.3075C55.1469 110.117 54.9752 110.092 54.8007 110.064C54.9752 110.092 55.1441 110.117 55.3047 110.142C51.2445 109.527 43.1129 108.134 39.2575 106.677C38.4488 106.123 37.388 105.436 35.9811 104.874C35.7733 104.484 35.5961 104.049 35.5379 103.631C35.3745 102.487 35.2665 98.1246 35.1557 97.3076C35.0449 96.4905 33.7183 92.3056 33.3582 91.6382C32.8846 90.7657 34.1725 88.9433 33.4856 87.7413C33.649 87.1431 36.3383 84.6975 36.3383 84.6975C36.3383 84.6975 36.5738 84.3873 36.3577 83.5149C36.1389 82.6424 35.7207 80.1165 35.7207 80.1165C35.7207 80.1165 35.7872 79.8257 35.7927 79.1167C35.7983 78.6209 35.0588 77.9368 34.8981 78.6763C34.7624 79.3078 34.7486 78.8951 34.7486 79.4407C34.7486 79.8396 34.9591 79.906 35.0477 80.2633C35.1031 80.4821 35.1031 84.2599 35.1031 84.2599C35.1031 84.2599 34.2417 85.0326 33.5798 85.5284C33.2751 85.7583 33.2197 85.6142 32.8403 85.905C32.5661 86.1128 32.2559 86.6085 32.1064 86.2402C31.8709 85.6585 32.4221 85.2736 32.3501 84.8581C32.3335 84.7584 32.2421 84.6698 32.1202 84.4676C32.0648 84.3762 32.1008 84.246 32.0343 84.1879C31.9651 84.1297 31.5607 84.1159 31.5607 84.1159L31.0705 83.789C31.0705 83.789 30.6329 83.5896 30.3615 83.8084C30.0901 84.0272 29.4891 85.0991 29.4891 85.4259C29.4891 85.7527 29.6359 86.2069 29.6359 86.3703C29.6359 86.5337 29.9821 86.952 29.6552 87.0074C29.3284 87.0627 28.9739 87.3175 28.7468 87.625C28.5474 87.8936 28.4172 88.9405 28.4034 89.8656C28.1929 89.7825 27.8024 89.7327 27.8024 89.7327C28.0212 89.2424 27.2651 88.3783 26.6585 88.6414C26.1904 88.8436 26.1544 89.5277 26.3455 89.7714C26.653 90.1703 26.977 90.1121 27.1321 90.0927C26.9133 90.3641 26.8053 90.1481 26.7693 90.6549C26.7333 91.1646 26.7471 91.3612 26.6973 91.5274C26.5339 92.0536 26.9881 92.0176 27.1709 92.037C27.3537 92.0564 27.4617 91.8902 27.6445 91.9096C27.8079 92.2004 28.0073 92.9648 28.4975 92.9648C28.8853 92.9648 29.0376 93.0202 29.334 92.9537C29.4697 92.951 29.6054 92.9371 29.7328 92.9094C29.7383 92.9094 29.7466 92.9094 29.7522 92.9067C29.5915 93.5077 29.4171 94.3773 29.3866 95.6181C29.3312 97.9086 29.658 98.18 29.6054 98.6148C29.55 99.0524 29.0598 100.088 29.1152 101.177C29.1346 101.551 29.1789 101.833 29.2287 102.057C29.0348 101.725 28.877 101.47 28.7413 101.271C28.456 100.548 27.675 98.637 27.2457 98.2493C26.8164 97.8615 26.0658 97.3713 25.667 98.0388C25.3651 97.6372 24.9884 97.0583 24.332 97.2383C23.7033 96.9475 22.6315 96.87 22.565 98.1551C22.5899 98.5013 22.9583 98.8641 23.1605 99.1106C22.842 99.4374 22.6204 99.9858 23.335 100.689C24.0495 101.393 25.4482 103.423 25.6698 103.714C25.6337 103.971 25.5867 104.074 25.9135 104.392C26.2403 104.711 28.107 107.217 28.5834 107.971C29.0598 108.727 29.0958 108.835 29.7716 109.109C30.4612 109.488 35.0754 111.776 37.2772 111.964C37.377 111.973 37.4988 112.014 37.6345 112.072C38.1109 112.369 38.6067 112.671 39.1107 112.973C39.5539 113.272 39.9804 113.563 40.2961 113.72C40.3321 113.74 40.3626 113.74 40.3931 113.729C41.7419 114.515 43.0907 115.263 44.2456 115.847C46.6469 117.063 51.7125 120.481 54.5957 121.262C57.4789 122.043 63.3893 122.985 64.4694 123.156C65.5496 123.328 66.0481 123.392 67.0756 122.663C70.5294 120.207 74.1797 117.246 75.1962 116.44C76.2126 115.634 80.3117 112.56 81.4555 111.84C82.965 110.693 82.0289 107.813 83.6214 106.622C84.3387 106.087 84.6461 103.467 81.3475 100.772C85.0727 102.974 86.3938 104.018 88.8255 106.838C91.2572 109.66 93.4065 110.172 95.1818 110.208C96.9571 110.244 99.1978 110.134 100.211 111.56C97.9127 111.668 93.8441 112.773 91.1686 111.316C90.3405 112.347 90.9637 115.219 98.9873 114.133C95.2012 115.31 92.2017 115.67 91.4096 115.457C90.0137 116.93 96.4475 118.858 100.281 117.083C98.389 118.188 94.7857 119.933 94.5614 120.952C94.2346 122.428 93.3566 123.181 93.0132 123.165C92.6697 123.145 91.7253 121.492 90.7587 123.561C89.853 125.497 88.0306 127.782 87.6872 130.125C87.6872 130.299 87.6872 130.471 87.6872 130.646C87.654 130.646 87.6207 130.648 87.5847 130.651C76.7638 131.208 65.2228 135.437 58.6615 139.439L58.6781 141.757V148.989C61.4755 151.916 64.4251 154.417 67.649 156.622C68.25 156.558 68.9784 156.414 69.5794 156.248C70.9753 155.863 75.8138 154.991 76.6447 154.462C77.4756 153.933 77.7802 153.548 78.4062 153.636C78.3508 153.628 78.3009 153.625 78.2483 153.625C78.2982 153.625 78.3508 153.628 78.4062 153.636C78.4062 153.636 78.4117 153.636 78.4145 153.636C78.4366 153.639 78.4616 153.645 78.4865 153.65C78.5003 153.65 78.5142 153.656 78.528 153.658C78.5447 153.661 78.5613 153.664 78.5779 153.669C78.5973 153.675 78.6167 153.678 78.6361 153.683C78.6499 153.686 78.6638 153.689 78.6776 153.694C78.6998 153.7 78.7247 153.708 78.7468 153.714C78.7579 153.717 78.769 153.719 78.7801 153.725C78.8078 153.733 78.8355 153.741 78.8632 153.75C78.8715 153.75 78.8798 153.755 78.8881 153.758C78.9213 153.769 78.9518 153.777 78.985 153.789C78.9906 153.789 78.9933 153.791 78.9989 153.794C79.0349 153.805 79.0709 153.819 79.1069 153.83C79.4946 153.963 79.9212 154.135 80.2286 154.262C80.4834 154.016 80.9681 153.523 83.0481 153.063C83.0093 153.077 82.9705 153.093 82.929 153.113L82.8957 153.127C81.9319 153.561 80.1981 154.991 79.9433 155.738C76.0797 157.298 77.8467 159.627 77.8467 159.627C77.8467 159.627 77.8135 159.693 77.7747 159.799C77.8855 159.74 77.9963 159.682 78.1071 159.63C77.9963 159.685 77.8855 159.74 77.7747 159.799C77.8855 159.74 77.9963 159.682 78.1071 159.63C84.1282 156.641 88.6123 160.148 91.2849 160.173C91.2932 160.173 91.3043 160.173 91.3126 160.173C91.3154 160.173 91.3182 160.173 91.3237 160.173C91.3154 160.173 91.3071 160.173 91.296 160.173C91.3514 160.173 91.4096 160.173 91.4622 160.17C94.1016 160.028 101.948 157.854 104.629 158.281C105.133 158.361 105.609 158.444 106.064 158.527C106.1 158.533 106.138 158.541 106.174 158.547C106.288 158.566 106.399 158.588 106.51 158.61C106.537 158.616 106.565 158.622 106.59 158.624C106.723 158.649 106.853 158.674 106.98 158.702C107.011 158.707 107.044 158.713 107.075 158.721C107.18 158.743 107.285 158.763 107.388 158.785C107.418 158.79 107.446 158.796 107.476 158.804C107.601 158.829 107.725 158.857 107.847 158.882C107.872 158.887 107.897 158.893 107.925 158.898C108.027 158.921 108.127 158.943 108.229 158.965C108.26 158.97 108.293 158.979 108.324 158.984C108.443 159.012 108.562 159.037 108.678 159.062C108.698 159.065 108.714 159.07 108.734 159.073C108.836 159.095 108.941 159.12 109.041 159.142L109.138 159.164C109.246 159.189 109.354 159.214 109.459 159.239C109.479 159.245 109.498 159.247 109.517 159.253C109.623 159.278 109.725 159.303 109.83 159.325C109.866 159.333 109.902 159.342 109.938 159.35C110.03 159.372 110.121 159.391 110.213 159.414C110.343 159.444 110.473 159.475 110.603 159.505C110.625 159.511 110.65 159.516 110.672 159.522C110.78 159.547 110.886 159.572 110.994 159.596C111.013 159.602 111.032 159.605 111.052 159.61C111.171 159.638 111.29 159.666 111.409 159.693C111.431 159.699 111.453 159.704 111.475 159.707C111.575 159.729 111.678 159.754 111.78 159.776C111.805 159.782 111.833 159.788 111.858 159.793C111.977 159.821 112.099 159.848 112.221 159.876C112.24 159.879 112.259 159.884 112.279 159.89C112.533 159.948 112.791 160.004 113.057 160.062C113.051 160.062 113.046 160.062 113.043 160.059C113.049 160.059 113.054 160.059 113.057 160.062C113.074 160.064 113.087 160.067 113.104 160.073C113.215 160.098 113.328 160.12 113.445 160.145C113.478 160.15 113.511 160.159 113.544 160.167C113.675 160.195 113.808 160.222 113.94 160.247C113.808 160.22 113.675 160.192 113.544 160.167C114.547 160.375 115.647 160.58 116.923 160.779C117.109 160.807 117.297 160.837 117.488 160.865C117.66 160.89 117.84 160.915 118.017 160.942C117.987 160.937 117.956 160.934 117.929 160.929C117.959 160.931 117.99 160.937 118.017 160.942C118.07 160.951 118.125 160.956 118.178 160.965C118.314 160.984 118.452 161.003 118.591 161.02C118.646 161.028 118.699 161.034 118.754 161.042C118.945 161.067 119.136 161.092 119.336 161.117C120.967 161.322 122.679 161.427 124.31 161.46C129.209 159.178 133.785 156.143 137.889 152.357C138.047 152.21 138.208 152.063 138.363 151.913C138.554 151.731 138.745 151.548 138.934 151.362C139.1 151.202 139.266 151.038 139.432 150.875C139.307 151 139.183 151.121 139.055 151.243C139.266 151.036 139.479 150.828 139.687 150.617C139.944 150.357 140.199 150.094 140.451 149.828C140.498 149.778 140.543 149.728 140.59 149.681C140.867 149.388 141.144 149.088 141.415 148.787C141.415 148.787 141.426 148.773 141.435 148.767V139.976L141.232 139.871C141.232 139.871 141.224 139.866 141.221 139.866C141.016 139.755 140.806 139.641 140.595 139.525C140.537 139.494 140.476 139.461 140.418 139.428C140.23 139.328 140.041 139.226 139.85 139.123C139.814 139.104 139.776 139.085 139.74 139.065C139.51 138.943 139.274 138.819 139.039 138.694C139.006 138.675 138.97 138.658 138.936 138.639C138.723 138.528 138.507 138.414 138.288 138.301C138.252 138.281 138.219 138.265 138.183 138.245C137.679 137.985 137.167 137.725 136.638 137.462C136.613 137.451 136.588 137.437 136.563 137.426C136.023 137.157 135.472 136.891 134.907 136.625C134.901 136.625 134.895 136.62 134.893 136.617C130.669 134.623 125.753 132.706 120.089 131.474C120.147 131.385 120.194 131.321 120.222 131.28C120.787 130.488 120.358 129.435 119.308 129.136C119.289 129.131 119.266 129.125 119.247 129.119C119.194 129.106 119.142 129.095 119.086 129.086C119.064 129.083 119.045 129.078 119.02 129.075C118.945 129.064 118.868 129.056 118.787 129.053C118.801 129.011 118.807 128.973 118.818 128.931C119.031 127.951 118.239 126.943 117.35 127.001C117.782 126.225 116.832 124.921 116.079 124.918H116.076C116.076 124.918 116.068 124.918 116.065 124.918C116.068 124.918 116.073 124.918 116.076 124.918C116.001 124.918 115.929 124.929 115.86 124.957C115.032 123.619 114.453 122.783 114.42 122.295C114.42 122.262 114.42 122.231 114.42 122.204C114.425 122.132 114.436 122.06 114.447 121.985C114.45 121.966 114.453 121.946 114.456 121.93C114.469 121.855 114.483 121.78 114.5 121.7C115.303 118.094 120.881 110.909 121.194 103.387C121.227 102.589 121.211 101.709 121.147 100.747C123.252 101.634 125.235 102.548 127.578 103.138C131.029 104.007 141.748 106.173 144.465 106.832C144.969 106.954 145.37 107.062 145.7 107.143C145.68 107.137 145.661 107.131 145.642 107.129C145.664 107.134 145.686 107.14 145.705 107.145C147.148 107.494 147.251 107.303 148.841 105.342C149.331 104.738 151.832 102.919 152.82 101.595C153.806 100.271 159.39 90.4694 161.949 80.7231C162.342 80.5098 163.121 80.0113 163.079 79.0308C163.09 78.9948 163.101 78.9588 163.112 78.9256C163.697 78.5683 164.536 78.3633 166.051 78.0393C169.615 77.2804 171.33 77.0589 172.02 76.4911C172.709 75.9261 173.346 75.242 173.95 74.6437C174.554 74.0455 175.75 73.6495 176.03 72.6884C176.121 72.5998 176.235 72.4834 176.368 72.345L184.015 77.5519L184.793 77.0145L176.897 71.7883C177.362 71.2925 177.922 70.6915 178.462 70.1016L197.486 77.0339L197.99 76.8927L198.514 76.1449L178.999 69.5172L179.007 69.5338ZM80.572 66.5509C80.572 66.5509 80.5665 66.5592 80.5637 66.562C80.5637 66.5592 80.5693 66.5537 80.572 66.5509ZM81.8017 66.5509C81.8017 66.5509 81.7879 66.5426 81.7796 66.5398C81.7879 66.5426 81.7934 66.5454 81.8017 66.5509ZM81.4306 66.2795C81.4195 66.2546 81.4085 66.2241 81.4001 66.1936C81.4085 66.2269 81.4195 66.2546 81.4306 66.2795ZM81.4306 66.2795C81.4555 66.3293 81.486 66.3681 81.5248 66.4013C81.486 66.3709 81.4555 66.3293 81.4306 66.2795ZM29.3367 91.2006C29.3367 90.7103 29.6691 89.4142 29.6691 89.4142C29.7771 90.3447 29.9239 90.9707 29.9959 91.3972C29.8048 91.3335 29.5888 91.267 29.3367 91.2006ZM55.5817 110.195C55.4986 110.184 55.4128 110.17 55.3269 110.156C55.4128 110.17 55.4986 110.181 55.5817 110.195ZM78.481 153.661C78.481 153.661 78.5059 153.667 78.517 153.669C78.5059 153.667 78.492 153.664 78.481 153.661ZM78.5724 153.681C78.589 153.683 78.6084 153.689 78.625 153.694C78.6056 153.689 78.589 153.683 78.5724 153.681ZM78.8826 153.769C78.913 153.78 78.9463 153.789 78.9767 153.8C78.9435 153.789 78.913 153.777 78.8826 153.769ZM106.321 76.8207C106.318 76.901 106.313 76.9813 106.307 77.0561C106.307 76.9675 106.302 76.8761 106.296 76.7847C106.305 76.7957 106.313 76.8096 106.321 76.8207ZM105.465 72.7909C105.454 72.7632 105.443 72.7327 105.435 72.705C105.446 72.7327 105.457 72.7604 105.465 72.7909ZM102.737 78.6071C103.903 79.0281 103.748 80.3935 104.56 80.4793C105.294 80.5569 106.238 79.33 106.307 77.4106C106.302 77.3607 106.296 77.3109 106.288 77.2583C106.296 77.1973 106.302 77.1364 106.31 77.0727C106.31 77.1863 106.31 77.2998 106.31 77.4106C106.305 77.3607 106.299 77.3109 106.291 77.261C106.374 77.851 106.368 78.3107 106.302 78.6902C106.368 78.7068 106.44 78.7262 106.51 78.7428C106.174 79.7288 105.407 80.7425 105.103 81.6703C104.025 81.7423 103.948 82.0968 103.668 81.6952C103.737 80.9253 103.352 80.0722 103.352 80.0722C102.851 78.9699 101.569 78.031 99.8957 79.3189C100.344 78.9699 100.835 77.923 102.743 78.6071M101.804 80.1054C101.369 79.7177 101.145 79.6595 100.475 79.9642C100.425 79.9864 100.657 80.1775 100.436 80.3076C100.383 80.3353 100.211 80.0971 100.156 80.1304C100.112 80.1553 100.067 80.183 100.02 80.2135C100.599 79.5903 101.665 79.3576 102.158 79.7842C102.651 80.2107 103.341 81.3601 102.505 83.0939C102.804 81.8282 102.325 80.5735 101.801 80.1054M99.6049 84.7335C99.7905 85.5699 100.214 85.7167 101.123 85.4287C100.743 85.7001 100.259 85.8801 99.8098 85.7749C99.267 85.6502 99.5301 84.3928 99.6077 84.7335M99.3639 82.9305C99.3612 83.6256 100.289 83.9414 100.109 84.1048C99.9289 84.2682 99.8126 84.1934 99.6464 84.0909C99.3612 83.9165 99.3584 83.2157 99.3639 82.9305ZM101.114 82.3405C100.691 82.2104 100.943 82.6812 100.286 82.2602C99.7046 81.8863 99.8957 81.4958 99.8957 81.4958C100.106 80.7535 100.139 82.4679 101.231 81.7368C101.588 81.4986 101.66 81.7312 101.643 82.0746C101.627 82.4181 101.538 82.4707 101.114 82.3405ZM100.106 64.7922C100.106 64.7922 100.081 64.77 100.067 64.759C100.081 64.77 100.092 64.7811 100.106 64.7922ZM99.8403 64.5651C99.8403 64.5651 99.8237 64.5512 99.8126 64.5429C99.8209 64.5512 99.8292 64.5568 99.8403 64.5651ZM99.591 64.3518C99.591 64.3518 99.58 64.3435 99.5744 64.338C99.58 64.3435 99.5855 64.3491 99.591 64.3518ZM89.3517 76.0119C90.1937 75.2808 90.7919 74.9429 90.5815 74.4139C90.1522 73.3309 88.5652 74.0704 87.9088 75.1035C88.4211 74.0704 89.5401 73.4971 90.3156 73.4805C90.8086 73.4694 91.3514 74.0427 91.6671 74.7711C91.933 74.8155 92.3319 74.9318 92.3734 75.2226C92.523 76.2335 92.8664 76.2224 94.3814 76.3028C98.6688 76.5271 97.4972 74.2588 100.688 73.511C98.2062 74.4443 97.7437 76.7431 95.2206 77.2361C94.4838 77.3801 93.5588 77.2804 92.8525 77.0312C93.6585 78.175 96.0847 78.8619 98.8516 76.8539C97.4834 78.9034 94.5614 79.0364 93.8801 78.8868C94.2429 79.7869 96.5555 79.6291 97.8766 79.0668C97.3975 79.4435 95.4754 80.3326 94.2318 79.978C94.3841 80.6317 97.9736 81.1856 98.9208 79.895C98.5053 80.8394 96.6802 81.2465 95.3535 81.133C95.323 81.2659 95.3535 81.4238 95.4338 81.59C95.9102 81.493 96.2703 81.3989 96.6635 81.9971C97.1011 82.6646 96.7688 82.4319 96.8048 82.5621C96.827 82.6424 96.9267 82.7587 97.0014 82.8363C97.4501 83.008 97.9736 83.1188 98.5524 83.1133C95.7856 83.4262 95.0128 82.2962 94.7137 81.421C92.523 80.3187 92.1324 76.9231 92.102 76.6351C91.8998 76.4689 91.7807 76.2834 91.7835 76.0812C91.7835 76.0424 91.7835 76.0064 91.7835 75.9704C91.5979 75.8264 91.2628 75.5937 90.9526 75.5522C90.299 75.4608 89.4764 76.3637 89.0803 76.829C88.7036 77.2721 87.665 77.5352 86.2968 77.4217C88.0833 77.5435 88.9862 76.3304 89.3545 76.0119M86.2941 81.8974C86.8258 82.6701 87.2994 82.4098 88.2577 82.6895C89.0942 82.9332 90.5981 83.8223 92.0383 83.9497C90.0995 83.8361 88.1719 82.8224 87.9558 83.0191C87.7537 83.2019 87.8035 83.2462 88.0833 83.6118C88.122 83.6007 88.1663 83.5869 88.219 83.5758C88.3464 84.3984 89.5539 84.7418 90.6119 84.6476C89.7506 84.8941 89.1496 84.7833 88.7397 84.5728C88.9252 84.8747 89.0582 85.1157 89.0997 85.1711C87.233 84.9744 87.9088 84.0937 87.2634 83.7198C86.2415 83.1299 86.2913 81.9002 86.2913 81.9002M88.4793 90.0595C89.7672 89.2895 89.2825 89.9293 90.6119 89.7188C90.8224 89.6856 90.936 89.6413 90.9941 89.5942C90.8556 89.3449 90.7033 89.1344 90.5731 89.0707C90.346 88.9599 89.8253 88.611 89.4764 88.3534C89.5013 88.3839 89.5151 88.4088 89.5041 88.4282C88.8034 88.3783 88.3214 88.7245 88.6815 89.1012C88.4101 89.3311 88.4156 89.5471 88.2633 89.7105C87.521 89.3061 87.8284 88.7301 87.2108 88.4669C86.7954 88.6165 85.5103 88.6774 85.0699 87.7385C85.5103 88.3645 86.2747 88.2454 87.1665 88.0792C88.0583 87.9102 88.266 88.4365 88.7424 87.9684C88.9612 87.7524 88.9585 87.1403 87.9863 86.423C88.5098 86.6445 89.385 86.9713 89.3213 88.1152C90.1522 88.3839 91.0191 88.6137 91.5841 89.2286C91.7807 89.4419 92.2986 89.5388 92.2266 90.3641C92.2072 90.5996 92.1574 91.1479 91.7585 91.0704C91.3625 90.9928 90.6091 91.411 90.382 91.3418C90.1549 91.2726 89.8337 90.8682 90.0026 90.9347C90.13 90.9845 90.7449 90.8904 91.1188 90.8322C90.0441 89.957 89.5456 90.9402 88.4793 90.0595ZM98.4001 91.5024C98.1591 91.7185 98.1314 92.8069 98.0622 93.0313C97.993 93.2556 96.5971 93.9425 96.5915 95.391C95.7745 94.9617 94.9048 94.4936 94.603 93.9397C94.434 93.6323 94.1653 93.5077 93.9161 93.1919C92.9578 93.4107 91.2683 93.5437 90.1078 92.2142C90.587 92.7155 92.9633 93.4523 94.0324 92.5854C94.6639 92.0785 96.2204 91.267 97.7021 90.5774C99.5827 89.7022 99.9068 88.9738 100.943 87.8244C99.8154 89.6579 98.6411 91.2864 98.4001 91.5024ZM102.109 124.926C102.131 124.497 101.959 122.827 101.887 122.608C101.812 122.389 102.026 121.999 100.912 121.941C99.7988 121.882 101.679 121.653 101.945 121.536C102.208 121.42 102.416 119.11 102.416 119.11C102.422 120.614 102.078 121.47 102.818 121.697C103.089 121.78 103.258 121.805 103.33 121.81C103.23 121.81 102.945 121.833 102.48 121.979C102.217 122.093 102.566 124.433 102.635 124.738C102.704 125.043 105.36 125.239 105.49 125.203C105.549 125.187 104.382 125.497 102.804 125.729C102.519 125.314 102.208 125.533 102.026 125.832C100.139 126.054 97.8933 126.101 96.4087 125.414C98.9097 125.286 102.086 125.353 102.109 124.924M104.684 116.761C107.027 117.185 110.866 120.223 111.548 122.796C110.113 119.841 106.274 117.52 104.272 117.257C102.649 117.044 102.466 116.155 102.607 115.726C102.585 115.831 102.571 116.379 104.684 116.761ZM103.025 113.058C105.061 114.665 111.01 114.427 113.165 118.152C111.545 116.232 109.157 115.731 106.061 114.798C102.964 113.867 102.023 114.18 103.025 113.058ZM82.929 153.118C82.929 153.118 82.9068 153.127 82.8985 153.132C82.9096 153.127 82.9207 153.124 82.929 153.118ZM92.9384 153.847C93.3095 154.556 93.7776 154.495 95.3369 154.301C95.3507 154.453 94.7248 154.498 92.8802 155.259C91.0191 154.689 88.4765 153.885 88.0943 153.633C87.064 152.805 84.9231 152.894 83.8845 153.013C86.7178 152.257 86.8425 151.249 87.1804 150.534C87.5182 149.82 88.4073 143.505 88.6344 142.486C88.8587 141.466 88.4239 139.938 88.8061 139.184C89.1883 138.431 89.601 137.121 89.5151 136.298C89.4293 135.479 89.9029 134.642 90.0525 134.263C91.1105 131.571 91.1714 133.418 91.1548 134.578C92.9772 134.243 94.9547 133.446 98.6161 133.293C102.278 133.141 104.305 132.474 114.021 126.45C100.04 137.295 99.3196 134.62 95.4837 134.85C91.645 135.077 91.3763 136.096 90.7753 136.107C90.1715 136.118 90.2076 135.476 90.0608 135.811C89.914 136.146 90.5621 136.096 90.3239 138.19C90.2463 138.86 90.022 139.603 89.7063 140.287C89.9444 140.456 90.443 140.652 91.4844 140.661C92.6559 140.666 107.479 135.78 113.126 130.582C107.03 136.362 95.5529 142.342 89.3019 141.345C90.4679 143.613 90.2768 147.191 89.889 149.82C89.4902 152.506 97.7049 148.582 107.03 143.452C97.6634 149.382 92.2488 152.077 92.9439 153.849M106.515 158.616C106.543 158.622 106.57 158.627 106.595 158.63C106.568 158.624 106.54 158.619 106.515 158.616ZM106.989 158.707C107.019 158.713 107.05 158.718 107.08 158.727C107.05 158.721 107.019 158.716 106.989 158.707ZM107.396 158.79C107.426 158.796 107.454 158.802 107.484 158.81C107.457 158.804 107.426 158.799 107.396 158.79ZM109.841 159.336C109.875 159.344 109.908 159.353 109.944 159.358C109.911 159.35 109.875 159.342 109.841 159.336ZM110.598 159.513C110.506 159.491 110.412 159.469 110.318 159.447C110.412 159.469 110.503 159.491 110.598 159.513ZM111.063 159.621C111.179 159.649 111.298 159.677 111.417 159.704C111.298 159.677 111.182 159.649 111.063 159.621ZM111.487 159.718C111.586 159.74 111.686 159.765 111.786 159.788C111.686 159.765 111.584 159.74 111.487 159.718ZM111.866 159.807C111.985 159.835 112.107 159.862 112.226 159.89C112.104 159.862 111.985 159.835 111.866 159.807ZM118.189 160.973C118.322 160.992 118.46 161.009 118.599 161.028C118.46 161.009 118.325 160.99 118.189 160.973ZM119.266 129.133C119.214 129.119 119.161 129.108 119.109 129.1C119.164 129.108 119.217 129.119 119.266 129.133ZM120.82 147.748C124.249 147.928 129.279 147.934 133.851 151.742C134.682 152.434 135.364 153.273 136.264 153.811C136.056 153.985 135.845 154.157 135.638 154.329C133.004 152.376 130.068 149.554 126.963 149.044C116.223 147.277 116.236 149.875 112.442 150.105C115.123 149.773 117.389 147.571 120.82 147.748ZM114.478 121.943C114.492 121.869 114.505 121.794 114.522 121.714C114.505 121.791 114.492 121.869 114.478 121.943ZM106.878 111.898C103.061 111.74 102.391 112.222 102.056 108.766C102.095 108.973 102.737 110.339 104.189 110.726C107.509 111.615 115.602 111.109 116.536 109.74C116.572 110.688 110.999 112.07 106.878 111.901M173.36 65.2963L173.075 66.5426L172.13 65.3517L171.416 65.2686L171.222 65.9111L170.643 65.9859L170.097 65.4569L170.042 64.5263L169.078 64.1579L168.56 64.8808L168.599 65.9942L168.272 66.4983L168.211 67.7308L167.663 67.6006L167.635 66.3986L167.414 66.1853L167.391 65.4375L166.99 64.9279L166.577 64.8614L166.043 65.3794L166.001 66.3986L165.641 66.5481L165.594 67.4039L164.866 67.1935L164.785 66.5509C164.785 66.5509 164.345 66.3376 163.877 66.2601C163.855 65.9914 163.758 65.3489 163.716 65.1329C163.19 64.8642 162.921 64.6814 162.794 64.5817C163.796 61.6293 166.544 60.3276 168.995 60.394C171.144 60.4522 173.623 62.2801 174.302 64.6759C174.05 64.8171 173.366 65.3018 173.366 65.3018" fill="#C79B2D"/>
<path d="M98.1092 59.7348C97.198 59.4773 96.5416 60.5574 96.9294 61.3883C97.3033 62.1915 98.6521 62.3521 99.3002 61.668C99.663 61.2886 99.6741 60.8344 99.832 60.2971C99.9261 60.5076 99.9178 60.8261 99.8624 61.0365C99.8236 61.1833 99.6685 61.2941 99.5799 61.4935C99.422 61.848 99.4054 62.2607 99.1091 62.4435C99.3639 62.4352 99.5965 62.4047 99.735 62.269C99.8181 62.7371 100.087 63.1387 100.222 63.5486C100.416 63.2024 100.635 62.7122 100.738 62.269C100.873 62.3992 101.092 62.4352 101.333 62.4435C101.283 62.2857 101.164 62.2136 101.081 62.0198C101.023 61.8813 101.02 61.6874 100.956 61.5268C100.826 61.2055 100.469 60.9064 100.643 60.2943C100.807 60.6765 100.765 60.8676 100.893 61.175C101.447 62.4878 103.934 62.4324 103.671 60.5768C103.588 59.9979 103.103 59.6545 102.397 59.6988C102.424 59.9287 102.615 60.2223 102.554 60.5408C102.422 61.2443 101.303 61.0338 101.333 60.2943C102.217 60.5352 102.305 59.3609 101.397 59.5576C101.552 58.2198 104.172 57.2837 104.216 59.2751C104.222 59.5437 104.161 59.6684 104.092 59.9093C104.917 59.6767 105.532 59.2058 105.72 58.2558V57.7989C105.501 56.7021 104.839 55.9848 103.809 55.9709C102.178 55.946 101.153 57.3557 100.832 58.8901C100.787 59.1006 100.782 59.372 100.643 59.5576C100.707 58.7655 100.876 58.1257 101.114 57.4804C101.397 56.7076 101.923 56.1399 101.929 55.1954C101.934 54.3008 101.491 53.625 101.175 52.9077C100.865 52.2042 100.519 51.5617 100.267 50.8333C99.9538 51.4509 99.6741 52.1294 99.3583 52.8385C98.9928 53.6527 98.3336 54.5972 98.6382 55.7576C98.7906 56.342 99.1562 56.8987 99.3916 57.5164C99.6298 58.1423 99.8153 58.7932 99.8292 59.5576C99.5079 57.7601 98.6493 55.9848 96.7272 55.9681C95.503 55.9571 94.6583 57.0012 94.7829 58.2558C94.8799 59.228 95.564 59.613 96.381 59.9093C96.0514 59.0092 96.5776 58.1118 97.259 58.0814C98.1203 58.0426 98.8598 58.8901 99.1091 59.5243C98.2893 59.4357 98.1729 60.4189 99.1395 60.2971C99.098 60.6433 98.9318 60.9064 98.7019 60.9673C97.9929 61.1529 97.727 60.3164 98.1065 59.7348" fill="#C79B2D"/>
<path d="M131.298 55.1981C131.303 54.3035 130.86 53.6277 130.544 52.9104C130.234 52.2069 129.888 51.5643 129.636 50.8359C129.323 51.4536 129.043 52.1321 128.727 52.8411C128.362 53.6554 127.703 54.5999 128.007 55.7603C128.16 56.3447 128.525 56.9014 128.761 57.519C128.999 58.145 129.184 58.7958 129.198 59.5603C128.877 57.7628 128.018 55.9874 126.096 55.9708C124.872 55.9597 124.027 57.0039 124.152 58.2585C124.249 59.2307 124.933 59.6156 125.75 59.912C125.421 59.0119 125.947 58.1145 126.628 58.084C127.487 58.0453 128.229 58.8928 128.475 59.527C127.656 59.4384 127.539 60.4216 128.506 60.2997C128.464 60.6459 128.298 60.9091 128.068 60.97C127.359 61.1556 127.093 60.3191 127.473 59.7375C126.564 59.4799 125.905 60.5601 126.293 61.391C126.667 62.1942 128.016 62.3548 128.664 61.6735C129.027 61.294 129.038 60.8398 129.196 60.3025C129.29 60.513 129.281 60.8287 129.226 61.042C129.187 61.1888 129.032 61.2996 128.944 61.499C128.786 61.8535 128.769 62.2662 128.473 62.449C128.727 62.4407 128.96 62.4102 129.099 62.2745C129.182 62.7426 129.45 63.1442 129.586 63.5541C129.777 63.2079 129.996 62.7176 130.101 62.2745C130.237 62.4047 130.456 62.4407 130.697 62.449C130.647 62.2911 130.528 62.2191 130.445 62.028C130.386 61.8895 130.384 61.6956 130.32 61.535C130.19 61.2137 129.833 60.9146 130.007 60.3025C130.17 60.6847 130.129 60.8758 130.256 61.1833C130.807 62.4961 133.297 62.4407 133.034 60.585C132.951 60.0062 132.466 59.6627 131.76 59.707C131.788 59.9369 131.979 60.2305 131.918 60.549C131.782 61.2525 130.666 61.042 130.697 60.3025C131.577 60.5435 131.669 59.3692 130.76 59.563C130.915 58.2253 133.536 57.2892 133.58 59.2805C133.585 59.5492 133.524 59.6738 133.455 59.9148C134.283 59.6821 134.895 59.2113 135.087 58.2613V57.8043C134.865 56.7075 134.209 55.9902 133.176 55.9764C131.544 55.9514 130.519 57.3612 130.198 58.8955C130.154 59.106 130.148 59.3775 130.01 59.563C130.074 58.7709 130.242 58.1311 130.481 57.4886C130.763 56.7159 131.289 56.1481 131.295 55.2009" fill="#C79B2D"/>
<path d="M69.2775 55.7604C69.4298 56.3448 69.7954 56.9015 70.0308 57.5191C70.269 58.1451 70.4546 58.7959 70.4684 59.5603C70.1471 57.7629 69.2886 55.9875 67.3664 55.9709C66.1423 55.9598 65.2975 57.004 65.4222 58.2586C65.5191 59.2308 66.2032 59.6157 67.0202 59.9121C66.6906 59.012 67.2169 58.1146 67.8982 58.0841C68.7596 58.0454 69.499 58.8929 69.7483 59.5271C68.9285 59.4385 68.8122 60.4217 69.7788 60.2998C69.7372 60.646 69.571 60.9091 69.3412 60.9673C68.6321 61.1529 68.3663 60.3164 68.7457 59.7348C67.8345 59.4773 67.1781 60.5574 67.5658 61.3883C67.9397 62.1915 69.2885 62.3521 69.9366 61.668C70.2995 61.2886 70.3105 60.8344 70.4684 60.2971C70.5626 60.5076 70.557 60.8233 70.4989 61.0365C70.4601 61.1833 70.305 61.2941 70.2164 61.4935C70.0585 61.848 70.0419 62.2607 69.7455 62.4435C70.0003 62.4352 70.233 62.4047 70.3715 62.269C70.4546 62.7371 70.7232 63.1387 70.8589 63.5486C71.0528 63.2024 71.2716 62.7122 71.3741 62.269C71.5098 62.3992 71.7286 62.4352 71.9695 62.4435C71.9197 62.2857 71.8006 62.2136 71.7203 62.0198C71.6621 61.8813 71.6594 61.6874 71.5956 61.5295C71.4655 61.2055 71.1082 60.9091 71.2827 60.2971C71.4461 60.6793 71.4045 60.8704 71.5319 61.175C72.0859 62.4878 74.573 62.4324 74.3099 60.5768C74.2268 59.9979 73.7421 59.6545 73.0359 59.6988C73.0635 59.9287 73.2547 60.2223 73.1937 60.5436C73.058 61.247 71.9418 61.0365 71.9723 60.2971C72.8558 60.538 72.9445 59.3637 72.036 59.5576C72.1911 58.2198 74.8112 57.2837 74.8555 59.2751C74.861 59.5437 74.8001 59.6684 74.7309 59.9093C75.559 59.6767 76.1711 59.2058 76.3594 58.2558V57.7989C76.1406 56.7021 75.4787 55.9848 74.4484 55.9709C72.8171 55.946 71.7923 57.3557 71.471 58.8901C71.4267 59.1006 71.4212 59.372 71.2827 59.5576C71.3464 58.7655 71.5181 58.1257 71.7535 57.4831C72.036 56.7104 72.5622 56.1426 72.5678 55.1954C72.5733 54.3008 72.1302 53.625 71.8144 52.9077C71.5042 52.2014 71.158 51.5617 70.906 50.8333C70.593 51.4509 70.3133 52.1294 69.9976 52.8385C69.632 53.6527 68.9728 54.5972 69.2775 55.7576" fill="#C79B2D"/>
<path d="M69.2775 123.625C69.4298 124.209 69.7954 124.766 70.0308 125.383C70.269 126.009 70.4546 126.66 70.4684 127.425C70.1471 125.627 69.2886 123.852 67.3664 123.835C66.1423 123.824 65.2975 124.868 65.4222 126.123C65.5191 127.095 66.2032 127.48 67.0202 127.776C66.6906 126.876 67.2169 125.979 67.8982 125.948C68.7596 125.91 69.499 126.757 69.7483 127.391C68.9285 127.303 68.8122 128.286 69.7788 128.164C69.7372 128.51 69.571 128.773 69.3412 128.834C68.6321 129.02 68.3663 128.183 68.7457 127.602C67.8345 127.344 67.1781 128.424 67.5658 129.255C67.9397 130.058 69.2885 130.219 69.9366 129.535C70.2995 129.156 70.3105 128.701 70.4684 128.164C70.5626 128.375 70.557 128.69 70.4989 128.904C70.4601 129.05 70.305 129.161 70.2164 129.36C70.0585 129.715 70.0419 130.128 69.7455 130.31C70.0003 130.302 70.233 130.272 70.3715 130.136C70.4546 130.604 70.7232 131.006 70.8589 131.416C71.0528 131.069 71.2716 130.579 71.3741 130.136C71.5098 130.266 71.7286 130.302 71.9695 130.31C71.9197 130.153 71.8006 130.081 71.7203 129.889C71.6621 129.751 71.6594 129.557 71.5956 129.396C71.4655 129.075 71.1082 128.776 71.2827 128.164C71.4461 128.546 71.4045 128.737 71.5319 129.045C72.0859 130.358 74.573 130.302 74.3099 128.447C74.2268 127.868 73.7421 127.524 73.0359 127.569C73.0635 127.798 73.2547 128.092 73.1937 128.413C73.058 129.117 71.9418 128.906 71.9723 128.167C72.8558 128.408 72.9445 127.233 72.036 127.427C72.1911 126.09 74.8112 125.153 74.8555 127.145C74.861 127.413 74.8001 127.538 74.7309 127.779C75.559 127.546 76.1711 127.076 76.3594 126.126V125.669C76.1406 124.572 75.4787 123.854 74.4484 123.841C72.8171 123.816 71.7923 125.225 71.471 126.76C71.4267 126.97 71.4212 127.242 71.2827 127.427C71.3464 126.638 71.5181 125.995 71.7535 125.353C72.036 124.58 72.5622 124.01 72.5678 123.065C72.5733 122.171 72.1302 121.495 71.8144 120.777C71.7507 120.633 71.6954 120.495 71.6289 120.356C71.6289 120.356 71.6261 120.356 71.6233 120.359C71.6593 120.44 70.4795 121.306 69.3689 122.101C69.211 122.567 69.1279 123.071 69.2747 123.627" fill="#C79B2D"/>
<path d="M133.178 78.5931C131.544 78.5682 130.522 79.9779 130.201 81.5123C130.157 81.7228 130.151 81.9942 130.013 82.1826C130.076 81.3905 130.245 80.7507 130.483 80.1081C130.766 79.3354 131.292 78.7649 131.298 77.8204C131.303 76.9258 130.86 76.25 130.544 75.5327C130.234 74.8264 129.888 74.1867 129.636 73.4583C129.323 74.0759 129.043 74.7544 128.727 75.4635C128.362 76.2777 127.703 77.2222 128.007 78.3826C128.16 78.967 128.525 79.5237 128.761 80.1414C128.996 80.7673 129.184 81.4182 129.198 82.1826C128.877 80.3851 128.018 78.6098 126.096 78.5931C124.872 78.5821 124.027 79.6262 124.152 80.8808C124.249 81.853 124.933 82.238 125.75 82.5343C125.421 81.6342 125.947 80.7368 126.628 80.7064C127.487 80.6676 128.229 81.5151 128.475 82.1493C127.656 82.0607 127.539 83.0439 128.506 82.9221C128.464 83.2683 128.298 83.5314 128.068 83.5895C127.359 83.7751 127.093 82.9387 127.473 82.3571C126.747 82.1521 126.207 82.7974 126.207 83.4898C126.861 83.7973 127.512 84.2127 128.09 84.6365C128.307 84.5672 128.506 84.4564 128.664 84.2903C129.027 83.9108 129.038 83.4566 129.196 82.9193C129.29 83.1298 129.281 83.4455 129.226 83.6588C129.187 83.8056 129.032 83.9164 128.944 84.1158C128.802 84.4315 128.75 84.7694 128.536 84.9743C128.559 84.9937 128.581 85.0104 128.606 85.0297C128.797 85.0131 128.991 84.9993 129.101 84.8913C129.151 85.1738 129.265 85.4313 129.381 85.6834C129.5 85.7914 129.592 85.88 129.675 85.9631C129.841 85.6391 130.018 85.2652 130.107 84.894C130.242 85.0242 130.461 85.0602 130.702 85.0685C130.652 84.9106 130.533 84.8386 130.45 84.6475C130.392 84.5091 130.389 84.3152 130.326 84.1545C130.195 83.8333 129.838 83.5341 130.013 82.9221C130.176 83.3043 130.134 83.4954 130.262 83.8028C130.813 85.1156 133.303 85.0602 133.04 83.2046C132.957 82.6257 132.472 82.2823 131.766 82.3238C131.793 82.5537 131.985 82.8473 131.924 83.1686C131.788 83.872 130.672 83.6615 130.702 82.9221C131.583 83.163 131.674 81.9887 130.766 82.1853C130.921 80.8476 133.541 79.9115 133.585 81.9028C133.591 82.1715 133.53 82.2961 133.461 82.5371C134.289 82.3044 134.901 81.8336 135.092 80.8836V80.4266C134.871 79.3299 134.214 78.6125 133.181 78.5987" fill="#C79B2D"/>
<path d="M71.3769 84.8887C71.5126 85.0188 71.7314 85.0548 71.9724 85.0631C71.9225 84.9053 71.8034 84.8333 71.7231 84.6422C71.6649 84.5037 71.6622 84.3098 71.5985 84.1492C71.4683 83.8279 71.111 83.5288 71.2855 82.9167C71.4489 83.2989 71.4074 83.49 71.5375 83.7947C72.0915 85.1075 74.5786 85.0521 74.3155 83.1964C74.2324 82.6176 73.7477 82.2741 73.0414 82.3184C73.0691 82.5483 73.2602 82.8419 73.1993 83.1604C73.0636 83.8639 71.9474 83.6562 71.9779 82.9139C72.8614 83.1549 72.95 81.9806 72.0416 82.1744C72.1967 80.8367 74.8168 79.9006 74.8611 81.8919C74.8666 82.1606 74.8057 82.2852 74.7365 82.5262C75.5646 82.2935 76.1767 81.8227 76.3678 80.8727V80.4157C76.149 79.3189 75.487 78.6016 74.4567 78.5878C72.8254 78.5628 71.8007 79.9726 71.4794 81.507C71.4351 81.7174 71.4295 81.9889 71.291 82.1772C71.3547 81.3851 71.5265 80.7453 71.7619 80.1027C72.0444 79.33 72.5706 78.7595 72.5761 77.815C72.5817 76.9205 72.1385 76.2447 71.8228 75.5273C71.5126 74.8211 71.1664 74.1813 70.9144 73.4529C70.6014 74.0705 70.3217 74.7491 70.0059 75.4581C69.6403 76.2724 68.9812 77.2168 69.2858 78.3773C69.4382 78.9617 69.8038 79.5184 70.0392 80.136C70.2774 80.7619 70.4629 81.4128 70.4768 82.1772C70.1555 80.3797 69.2997 78.6044 67.3748 78.5878C66.1506 78.5767 65.3059 79.6208 65.4305 80.8755C65.5275 81.8476 66.2115 82.2326 67.0286 82.5289C66.699 81.6288 67.2252 80.7315 67.9066 80.701C68.7679 80.6622 69.5074 81.5097 69.7567 82.144C68.9369 82.0553 68.8205 83.0386 69.7871 82.9167C69.7456 83.2629 69.5794 83.526 69.3495 83.5842C68.6405 83.7697 68.3746 82.9333 68.7541 82.3517C67.8429 82.0941 67.1865 83.1743 67.5742 84.0052C67.9481 84.8083 69.2969 84.969 69.945 84.2877C70.3078 83.9082 70.3189 83.454 70.4768 82.9167C70.5709 83.1272 70.5626 83.4429 70.5072 83.6562C70.4685 83.803 70.3134 83.9138 70.2247 84.1132C70.0669 84.4677 70.0502 84.8804 69.7539 85.0631C70.0087 85.0548 70.2414 85.0244 70.3798 84.8887C70.4629 85.3567 70.7316 85.7583 70.8673 86.1682C71.0612 85.822 71.28 85.3318 71.3824 84.8887" fill="#C79B2D"/>
<path d="M132.261 105.132C132.201 105.118 132.018 105.079 131.793 105.035C131.846 105.251 131.976 105.503 131.924 105.785C131.791 106.489 130.672 106.278 130.702 105.539C131.32 105.708 131.519 105.198 131.292 104.932C130.918 104.858 130.486 104.772 130.046 104.683C130.029 104.719 130.037 104.766 130.013 104.799C130.015 104.755 130.035 104.725 130.04 104.683C129.738 104.622 129.439 104.564 129.162 104.506C129.171 104.606 129.198 104.694 129.198 104.799C129.179 104.697 129.14 104.6 129.118 104.497C128.758 104.425 128.464 104.365 128.232 104.315C128.334 104.467 128.423 104.622 128.478 104.766C127.658 104.678 127.542 105.661 128.509 105.539C128.467 105.885 128.301 106.148 128.071 106.209C127.362 106.395 127.096 105.558 127.476 104.977C126.567 104.719 125.908 105.799 126.296 106.63C126.67 107.433 128.018 107.594 128.667 106.913C129.029 106.533 129.04 106.079 129.198 105.542C129.292 105.752 129.284 106.071 129.229 106.281C129.19 106.428 129.035 106.539 128.946 106.738C128.788 107.093 128.772 107.505 128.475 107.688C128.73 107.68 128.963 107.649 129.101 107.514C129.184 107.982 129.453 108.383 129.589 108.793C129.78 108.447 130.001 107.957 130.104 107.514C130.237 107.644 130.456 107.68 130.699 107.688C130.65 107.53 130.53 107.458 130.447 107.267C130.389 107.129 130.386 106.935 130.323 106.774C130.193 106.45 129.835 106.151 130.01 105.542C130.173 105.924 130.132 106.115 130.259 106.42C130.81 107.732 133.3 107.677 133.037 105.821C133.001 105.567 132.86 105.378 132.682 105.229C132.522 105.193 132.367 105.157 132.259 105.132" fill="#C79B2D"/>
<path d="M69.2775 101.002C69.3467 101.271 69.4686 101.534 69.5932 101.797C69.8979 101.459 71.3603 100.476 71.7702 98.457C71.7896 98.385 71.8256 98.2991 71.8477 98.2243C71.8366 98.1994 71.8256 98.1745 71.8145 98.1523C71.5043 97.4461 71.1581 96.8063 70.906 96.0779C70.5931 96.6955 70.3133 97.3741 69.9976 98.0831C69.632 98.8974 68.9728 99.839 69.2775 101.002Z" fill="#C79B2D"/>
<path d="M130.702 130.308C130.652 130.15 130.533 130.078 130.45 129.887C130.392 129.748 130.389 129.554 130.326 129.394C130.195 129.072 129.838 128.773 130.013 128.161C130.176 128.543 130.134 128.734 130.262 129.039C130.816 130.352 133.303 130.297 133.04 128.441C132.957 127.862 132.472 127.519 131.766 127.56C131.793 127.79 131.985 128.084 131.924 128.405C131.788 129.108 130.672 128.898 130.702 128.158C131.583 128.399 131.674 127.225 130.766 127.419C130.921 126.081 133.541 125.145 133.585 127.136C133.591 127.405 133.53 127.53 133.461 127.771C134.289 127.538 134.901 127.067 135.092 126.117V125.66C134.871 124.563 134.211 123.846 133.181 123.832C131.547 123.807 130.525 125.217 130.204 126.751C130.159 126.962 130.154 127.233 130.015 127.419C130.079 126.627 130.248 125.987 130.486 125.344C130.769 124.572 131.295 124.001 131.3 123.057C131.306 122.162 130.863 121.486 130.547 120.769C130.237 120.066 129.891 119.423 129.639 118.695C129.326 119.312 129.046 119.991 128.73 120.7C128.365 121.514 127.706 122.459 128.01 123.619C128.162 124.203 128.528 124.76 128.761 125.378C128.999 126.004 129.184 126.654 129.198 127.419C128.877 125.621 128.018 123.846 126.096 123.829C124.872 123.818 124.027 124.863 124.152 126.117C124.249 127.089 124.933 127.474 125.75 127.771C125.421 126.871 125.947 125.973 126.628 125.943C127.489 125.904 128.229 126.751 128.478 127.386C127.658 127.297 127.542 128.28 128.509 128.158C128.467 128.505 128.301 128.765 128.071 128.826C127.362 129.011 127.096 128.175 127.476 127.593C126.567 127.336 125.908 128.416 126.296 129.247C126.67 130.05 128.018 130.211 128.667 129.527C129.029 129.147 129.04 128.693 129.198 128.156C129.292 128.366 129.284 128.682 129.229 128.895C129.19 129.042 129.035 129.153 128.946 129.352C128.788 129.707 128.772 130.119 128.475 130.302C128.73 130.294 128.963 130.263 129.101 130.128C129.184 130.596 129.453 130.997 129.589 131.407C129.78 131.061 130.002 130.571 130.104 130.128C130.24 130.258 130.456 130.294 130.699 130.302" fill="#C79B2D"/>
<path d="M65.4222 103.5C65.5053 104.326 66.0454 104.697 66.6962 104.979C66.7765 104.86 66.8486 104.75 66.9427 104.625C66.9316 103.933 67.3526 103.348 67.8982 103.326C67.9287 103.326 67.9564 103.343 67.9896 103.343C68.3829 102.905 68.7734 102.503 69.0947 102.271C69.1556 102.218 69.211 102.168 69.272 102.116C68.7956 101.595 68.1974 101.221 67.3692 101.213C66.1451 101.202 65.3003 102.246 65.425 103.5" fill="#C79B2D"/>
<path d="M125.747 105.154C125.567 104.664 125.653 104.19 125.869 103.838C125.293 103.744 124.149 103.47 124.166 103.326C124.166 103.387 124.144 103.439 124.149 103.5C124.246 104.473 124.93 104.858 125.747 105.154Z" fill="#C79B2D"/>
<path d="M69.3883 40.9844H73.4403V41.6962H70.1527V43.7152H73.2215V44.427H70.1527V46.7203H73.6037V47.4293H69.3883V40.9844Z" fill="white"/>
<path d="M79.3368 41.6962H77.2069V47.4293H76.4425V41.6962H74.3127V40.9844H79.3368V41.6962Z" fill="white"/>
<path d="M95.9656 40.9844H100.987V41.6962H98.8571V47.4293H98.0926V41.6962H95.9656V40.9844Z" fill="white"/>
<path d="M94.8356 40.9844H94.0712V47.4265H94.8356V40.9844Z" fill="white"/>
<path d="M109.166 47.3215C108.756 47.5043 108.293 47.5957 107.778 47.5957C107.316 47.5957 106.886 47.5098 106.485 47.3409C106.083 47.172 105.737 46.9365 105.443 46.6346C105.15 46.3355 104.92 45.9782 104.751 45.5656C104.585 45.1529 104.502 44.7014 104.502 44.2112C104.502 43.721 104.582 43.2945 104.743 42.8818C104.903 42.4691 105.13 42.1119 105.421 41.8072C105.712 41.5025 106.058 41.2643 106.46 41.0871C106.861 40.9098 107.299 40.824 107.781 40.824C108.218 40.824 108.637 40.9043 109.041 41.0622C109.445 41.22 109.783 41.4776 110.055 41.8349L109.39 42.3168C109.196 42.0565 108.955 41.8598 108.67 41.7296C108.385 41.5995 108.088 41.533 107.778 41.533C107.421 41.533 107.091 41.605 106.789 41.7518C106.49 41.8986 106.23 42.0925 106.011 42.339C105.792 42.5855 105.623 42.8707 105.501 43.1948C105.38 43.5188 105.319 43.8567 105.319 44.2085C105.319 44.5851 105.38 44.9341 105.501 45.2581C105.623 45.5822 105.792 45.8647 106.005 46.1056C106.222 46.3466 106.479 46.5349 106.778 46.6734C107.077 46.8147 107.41 46.8839 107.775 46.8839C108.169 46.8839 108.52 46.8064 108.831 46.6513C109.141 46.4962 109.409 46.2746 109.639 45.981L110.213 46.4629C109.922 46.8507 109.57 47.1359 109.16 47.3187" fill="white"/>
<path d="M112.273 40.9844H111.509V47.4293H112.273V40.9844Z" fill="white"/>
<path d="M133.101 42.8789C133.261 42.4662 133.488 42.1089 133.779 41.8043C134.07 41.4996 134.416 41.2614 134.818 41.0842C135.219 40.9097 135.657 40.821 136.136 40.821C136.574 40.821 136.995 40.8986 137.396 41.0565C137.801 41.2143 138.139 41.4719 138.41 41.8292L137.745 42.3111C137.551 42.0508 137.311 41.8541 137.025 41.7239C136.74 41.5938 136.444 41.5273 136.133 41.5273C135.776 41.5273 135.447 41.5993 135.145 41.7461C134.846 41.8929 134.585 42.0868 134.366 42.3333C134.148 42.5798 133.979 42.865 133.857 43.1891C133.735 43.5131 133.674 43.851 133.674 44.2028C133.674 44.5794 133.735 44.9284 133.857 45.2552C133.979 45.5793 134.148 45.8618 134.361 46.1C134.577 46.3409 134.834 46.5292 135.134 46.6677C135.436 46.8062 135.768 46.8782 136.131 46.8782C136.524 46.8782 136.876 46.8007 137.186 46.6456C137.496 46.4905 137.765 46.2689 137.995 45.9753L138.568 46.4572C138.277 46.845 137.925 47.1303 137.515 47.313C137.106 47.4958 136.643 47.5872 136.128 47.5872C135.668 47.5872 135.236 47.5014 134.834 47.3324C134.433 47.1635 134.087 46.9281 133.793 46.6262C133.5 46.3271 133.267 45.9698 133.101 45.5571C132.935 45.1444 132.851 44.693 132.851 44.2C132.851 43.707 132.932 43.2832 133.092 42.8706" fill="white"/>
<path d="M127.946 40.9844H131.94V41.6962H128.711V43.826H131.713V44.535H128.711V47.4293H127.946V40.9844Z" fill="white"/>
<path d="M119.646 40.9844L121.457 43.898L123.321 40.9844H124.241L121.839 44.6541V47.4293H121.075V44.6541L118.671 40.9844H119.646Z" fill="white"/>
<path d="M116.297 41.6962V47.4293H115.53V41.6962H113.403V40.9844H118.424V41.6962H116.297Z" fill="white"/>
<path d="M65.4498 47.3573C65.6853 47.3074 65.9207 47.2326 66.1561 47.1246C66.3887 47.0194 66.6131 46.8809 66.8291 46.712C67.0451 46.543 67.2335 46.3381 67.3997 46.0971C67.5631 45.8561 67.6932 45.582 67.7902 45.269C67.8871 44.956 67.937 44.6043 67.937 44.2082C67.937 43.8122 67.8899 43.4604 67.7902 43.1475C67.6932 42.8345 67.5631 42.5603 67.3997 42.3193C67.2363 42.0784 67.0451 41.8762 66.8291 41.7045C66.6131 41.5355 66.3887 41.397 66.1561 41.289C65.9234 41.1838 65.688 41.1062 65.4498 41.0564C65.2144 41.0093 64.9901 40.9844 64.7768 40.9844H62.3008V47.4265H64.7768C64.9901 47.4265 65.2144 47.4016 65.4498 47.3545M63.0652 46.7175V41.6934H64.522C64.8932 41.6934 65.2338 41.7433 65.5496 41.8402C65.8653 41.9371 66.1367 42.0867 66.3694 42.2916C66.5992 42.4938 66.782 42.7542 66.915 43.0699C67.0479 43.3856 67.1144 43.7651 67.1144 44.2082C67.1144 44.6514 67.0479 45.0308 66.915 45.3465C66.782 45.6623 66.5992 45.9226 66.3694 46.1248C66.1395 46.327 65.8653 46.4793 65.5496 46.5762C65.2338 46.6732 64.8904 46.7203 64.522 46.7203H63.0652V46.7175Z" fill="white"/>
<path d="M83.9593 47.4295H84.8982L83.0702 44.4632C83.5743 44.3856 83.9676 44.2001 84.2529 43.9093C84.5381 43.6184 84.6821 43.2362 84.6821 42.7626C84.6821 42.361 84.6074 42.0453 84.455 41.8127C84.3027 41.58 84.1061 41.4027 83.8651 41.2809C83.6214 41.159 83.3472 41.0815 83.0425 41.0427C82.7351 41.0067 82.4277 40.9873 82.1175 40.9873H80.4695V47.4322H81.234V44.538H82.2172L83.9648 47.4322L83.9593 47.4295ZM81.2284 43.8262V41.6963H82.303C82.4914 41.6963 82.6769 41.7074 82.8625 41.7323C83.0481 41.7573 83.2142 41.8071 83.3638 41.8819C83.5134 41.9594 83.6325 42.0647 83.7239 42.2059C83.8152 42.3444 83.8596 42.53 83.8596 42.7599C83.8596 43.0257 83.7959 43.2307 83.674 43.3747C83.5494 43.516 83.3915 43.6212 83.2004 43.6877C83.0093 43.7542 82.7988 43.7957 82.5717 43.8068C82.3446 43.8179 82.123 43.8262 81.9125 43.8262H81.2312H81.2284Z" fill="white"/>
<path d="M90.598 47.3381C91.0079 47.1691 91.3625 46.9337 91.6643 46.6318C91.9635 46.3327 92.1989 45.9726 92.3651 45.5572C92.5312 45.1417 92.6143 44.6903 92.6143 44.2056C92.6143 43.7209 92.5312 43.2695 92.3651 42.854C92.1989 42.4386 91.9635 42.0813 91.6643 41.7794C91.3652 41.4803 91.0079 41.2449 90.598 41.0732C90.1881 40.9042 89.7367 40.8184 89.2465 40.8184C88.7562 40.8184 88.3048 40.9042 87.8949 41.0732C87.485 41.2421 87.1305 41.4775 86.8286 41.7794C86.5295 42.0785 86.294 42.4386 86.1279 42.854C85.9617 43.2695 85.8786 43.7209 85.8786 44.2056C85.8786 44.6903 85.9617 45.1417 86.1279 45.5572C86.294 45.9726 86.5295 46.3299 86.8286 46.6318C87.1277 46.9309 87.485 47.1663 87.8949 47.3381C88.3048 47.5098 88.7535 47.5929 89.2465 47.5929C89.7395 47.5929 90.1881 47.507 90.598 47.3381ZM88.2134 46.6733C87.9004 46.5349 87.6318 46.3438 87.4074 46.1C87.1831 45.8563 87.0086 45.5738 86.884 45.2498C86.7593 44.9257 86.6984 44.5767 86.6984 44.2084C86.6984 43.84 86.7593 43.491 86.884 43.167C87.0086 42.843 87.1831 42.5577 87.4074 42.3167C87.6318 42.073 87.9004 41.8819 88.2134 41.7434C88.5264 41.6049 88.8698 41.5329 89.2465 41.5329C89.6231 41.5329 89.9666 41.6022 90.2795 41.7434C90.5925 41.8847 90.8612 42.073 91.0855 42.3167C91.3098 42.5605 91.4843 42.843 91.609 43.167C91.7336 43.491 91.7945 43.84 91.7945 44.2084C91.7945 44.5767 91.7308 44.9257 91.609 45.2498C91.4843 45.5738 91.3098 45.8591 91.0855 46.1C90.8612 46.341 90.5925 46.5349 90.2795 46.6733C89.9666 46.8118 89.6231 46.8838 89.2465 46.8838C88.8698 46.8838 88.5264 46.8146 88.2134 46.6733Z" fill="white"/>
<path d="M54.4655 31.5539L145.672 31.565L145.686 66.357V67.3292L161.614 65.8391C161.697 65.0304 161.924 64.2549 162.27 63.5459L147.212 56.4861L146.916 55.6247L148.076 55.5832L162.702 62.7787C163.359 61.7788 164.273 60.9507 165.361 60.3968L161.467 53.0988L162.065 52.6197L162.558 52.8662L165.987 60.1171C166.428 59.9454 166.89 59.8152 167.372 59.7349L165.334 39.86L166.045 38.7577L166.885 39.849L168.164 59.649C168.289 59.6435 168.416 59.6379 168.538 59.6379C169.302 59.6379 170.045 59.7626 170.74 59.9952L172.227 52.3621L172.853 53.3287L171.297 60.2057C172.197 60.5934 173.003 61.1668 173.659 61.8841L182.721 54.3147L183.004 55.3201L174.039 62.3328C174.462 62.8812 174.806 63.496 175.049 64.1635L194.678 58.1811L195.791 58.4913L195.013 59.2668L175.216 64.6759C175.315 65.0332 175.39 65.4043 175.432 65.7865C175.526 66.6395 175.457 67.4704 175.257 68.2542L175.531 68.3484C175.531 68.3484 175.545 68.3484 175.554 68.3484C175.637 68.3484 175.72 68.3706 175.8 68.4176C176.113 67.7889 176.517 67.5674 176.9 67.5674C177.027 67.5674 177.154 67.5923 177.273 67.6338C177.733 67.0854 178.226 66.9387 178.744 66.9359C179.049 66.5537 179.326 66.4097 179.583 66.4097C179.841 66.4097 180.093 66.5592 180.328 66.7586C180.794 67.1547 180.807 67.4427 180.561 67.7751C180.456 67.9163 179.799 68.6503 179.002 69.5227L198.514 76.1504L197.993 76.8982L197.489 77.0395L178.464 70.1071C177.924 70.6943 177.365 71.298 176.897 71.7938L184.793 77.0173L184.015 77.5546L176.368 72.3505C176.238 72.4862 176.121 72.6025 176.03 72.6939C175.75 73.6522 174.554 74.0483 173.95 74.6493C173.346 75.2475 172.706 75.9316 172.019 76.4966C171.33 77.0616 169.618 77.286 166.051 78.0449C164.536 78.3689 163.697 78.5739 163.112 78.9311C163.101 78.9671 163.09 79.0004 163.079 79.0364C163.123 80.0168 162.342 80.5126 161.949 80.7286C159.39 90.4749 153.806 100.277 152.82 101.601C151.834 102.924 149.331 104.741 148.84 105.348C147.652 106.816 147.295 107.292 146.586 107.292C146.348 107.292 146.071 107.239 145.708 107.151C145.702 107.151 145.697 107.151 145.691 107.148V108.021V108.034C145.697 108.034 145.702 108.037 145.708 108.037V108.187L145.722 108.322L145.758 150.324L144.631 151.581C138.967 157.882 132.095 162.793 124.224 166.155C116.671 169.376 108.609 171.01 100.264 171.01C91.9192 171.01 83.9842 169.412 76.3843 166.266C68.4771 162.984 61.4755 158.187 55.5678 152.002L54.3769 150.756L54.3963 121.218C51.4882 120.351 46.5804 117.052 44.229 115.861C43.0713 115.277 41.7225 114.526 40.3765 113.743C40.3654 113.745 40.3515 113.748 40.3405 113.748C40.3211 113.748 40.3017 113.743 40.2823 113.731C39.9666 113.574 39.54 113.283 39.0969 112.984C38.5928 112.679 38.0971 112.38 37.6207 112.084C37.485 112.025 37.3631 111.984 37.2634 111.976C35.0615 111.787 30.4474 109.499 29.7577 109.12C29.0847 108.849 29.0459 108.738 28.5695 107.982C28.0932 107.226 26.2264 104.722 25.8996 104.403C25.5728 104.085 25.6199 103.98 25.6559 103.725C25.4343 103.434 24.0357 101.404 23.3211 100.7C22.6065 99.9969 22.8281 99.4485 23.1466 99.1217C22.9444 98.8752 22.5761 98.5124 22.5512 98.1662C22.5955 97.3298 23.0608 97.0694 23.5565 97.0694C23.8224 97.0694 24.0994 97.1442 24.3182 97.2467C24.404 97.2245 24.4816 97.2134 24.5591 97.2134C25.0687 97.2134 25.39 97.6981 25.6531 98.0471C25.7972 97.8089 25.9855 97.7175 26.1849 97.7175C26.5477 97.7175 26.9549 98.0083 27.2318 98.2576C27.6639 98.6453 28.4449 100.556 28.7274 101.279C28.8631 101.476 29.0182 101.731 29.2121 102.066C29.1622 101.841 29.1179 101.559 29.0985 101.185C29.0432 100.094 29.5334 99.058 29.5888 98.6232C29.6442 98.1883 29.3146 97.9141 29.37 95.6264C29.4004 94.3856 29.5722 93.516 29.7356 92.915C29.73 92.915 29.7245 92.915 29.7162 92.9177C29.5888 92.9454 29.4531 92.9565 29.3173 92.9593C29.2066 92.9842 29.1152 92.9925 29.021 92.9925C28.8714 92.9925 28.7191 92.9704 28.4782 92.9704C27.9879 92.9704 27.7885 92.2059 27.6251 91.9151C27.614 91.9151 27.6057 91.9151 27.5974 91.9151C27.4395 91.9151 27.3371 92.0453 27.182 92.0453C27.1737 92.0453 27.1626 92.0453 27.1543 92.0453C26.9715 92.0259 26.5173 92.0647 26.6807 91.5357C26.7305 91.3723 26.7167 91.1729 26.7527 90.6633C26.7887 90.1537 26.8967 90.3725 27.1155 90.101C27.0712 90.1066 27.013 90.1149 26.9438 90.1149C26.7748 90.1149 26.5505 90.0623 26.3289 89.7798C26.1406 89.536 26.1766 88.8519 26.6419 88.6497C26.7194 88.6165 26.7998 88.5999 26.8801 88.5999C27.4285 88.5999 27.9768 89.3117 27.7857 89.7382C27.7857 89.7382 28.1763 89.7881 28.3868 89.8712C28.4006 88.9461 28.5308 87.902 28.7302 87.6305C28.9573 87.3231 29.3118 87.0683 29.6386 87.0129C29.9654 86.9575 29.6192 86.5421 29.6192 86.3787C29.6192 86.2152 29.4752 85.761 29.4752 85.4342C29.4752 85.1074 30.0762 84.0356 30.3476 83.8167C30.4446 83.7392 30.5609 83.7143 30.6717 83.7143C30.8739 83.7143 31.0567 83.7974 31.0567 83.7974L31.5469 84.1242C31.5469 84.1242 31.9513 84.138 32.0205 84.1962C32.0897 84.2544 32.0537 84.3845 32.1064 84.4759C32.2255 84.6781 32.3196 84.7667 32.3362 84.8664C32.4082 85.2847 31.8571 85.6696 32.0925 86.2513C32.1313 86.3454 32.1811 86.3842 32.2365 86.3842C32.3999 86.3842 32.6215 86.0712 32.8265 85.9161C33.2087 85.6253 33.2613 85.7693 33.566 85.5395C34.2279 85.0437 35.0892 84.271 35.0892 84.271C35.0892 84.271 35.0892 80.4904 35.0339 80.2744C34.9452 79.9171 34.7347 79.8507 34.7347 79.4518C34.7347 78.9062 34.7486 79.3189 34.8843 78.6874C34.9341 78.452 35.0422 78.3606 35.1668 78.3606C35.4354 78.3606 35.7817 78.7871 35.7789 79.1278C35.7733 79.8368 35.7069 80.1276 35.7069 80.1276C35.7069 80.1276 36.1251 82.6535 36.3439 83.5259C36.5627 84.3984 36.3245 84.7058 36.3245 84.7058C36.3245 84.7058 33.6352 87.1514 33.4718 87.7496C34.1587 88.9516 32.8735 90.7741 33.3444 91.6465C33.7044 92.314 35.0339 96.4989 35.1419 97.3159C35.2499 98.1329 35.3607 102.495 35.5241 103.639C35.585 104.057 35.7595 104.492 35.9672 104.883C37.3742 105.442 38.4349 106.129 39.2437 106.686C42.8359 108.043 50.1338 109.344 54.3991 110.012L54.4517 31.5512M165.563 67.3873L165.611 66.5315L165.971 66.382L166.012 65.3627L166.547 64.8448L166.959 64.9085L167.361 65.4181L167.383 66.1659L167.605 66.3792L167.632 67.5812L168.181 67.7086L168.242 66.4789L168.569 65.9748L168.53 64.8614L169.048 64.1386L170.011 64.5069L170.067 65.4375L170.613 65.9665L171.191 65.8917L171.385 65.2492L172.103 65.3323L173.047 66.5204L173.332 65.2769C173.332 65.2769 174.019 64.7894 174.268 64.6509C173.59 62.2552 171.111 60.4273 168.962 60.3691C168.904 60.3691 168.843 60.3691 168.785 60.3691C166.381 60.3691 163.738 61.6791 162.761 64.5595C162.891 64.6593 163.157 64.8421 163.683 65.1107C163.727 65.324 163.824 65.9693 163.844 66.2379C164.312 66.3155 164.752 66.5288 164.752 66.5288L164.83 67.1713L165.558 67.3818M145.666 69.5172L145.672 77.6599H145.666V78.6459L162.245 69.556C162.085 69.2236 161.946 68.8774 161.841 68.5173L151.535 73.2063L150.198 72.8352L161.697 67.9496C161.653 67.7391 161.617 67.523 161.595 67.3042C161.581 67.1741 161.57 67.0467 161.564 66.9165L145.666 68.6503V69.5172ZM145.672 81.169H145.678L145.683 90.029L145.675 90.0429V91.5357C147.91 88.2288 150.754 85.6226 154.086 80.2882C154.615 79.4407 155.025 79.1028 155.341 79.1028C155.388 79.1028 155.432 79.1112 155.477 79.125C157.127 76.2751 157.64 74.9567 159.091 73.6882C160.506 71.8381 161.883 71.0072 163.151 71.0072C163.168 71.0072 163.184 71.0072 163.201 71.0072C162.979 70.7469 162.777 70.4727 162.594 70.1819L145.672 80.1664V81.1662M29.9959 91.3972C29.9239 90.9707 29.7771 90.3448 29.6691 89.4142C29.6691 89.4142 29.3367 90.7076 29.3367 91.2006C29.5888 91.267 29.8048 91.3335 29.9959 91.3972ZM53.9116 31V31.5539L53.859 109.367C50.3222 108.799 43.1322 107.544 39.5151 106.193C38.6842 105.625 37.6705 104.985 36.3827 104.45C36.2248 104.121 36.1251 103.825 36.0863 103.564C36.0005 102.955 35.9257 101.332 35.8592 99.8972C35.8038 98.6813 35.7567 97.6316 35.7041 97.2439C35.5878 96.3715 34.2307 92.1007 33.8429 91.3834C33.7321 91.1756 33.8734 90.6051 33.9897 90.1481C34.1725 89.4252 34.3913 88.5473 34.1005 87.7662C34.4522 87.2705 35.6542 86.074 36.7095 85.1157L36.7455 85.0825L36.7759 85.0437C36.8701 84.9218 37.1554 84.4399 36.8923 83.3902C36.7039 82.6424 36.3577 80.5901 36.2802 80.1276C36.3051 79.967 36.3411 79.6485 36.3439 79.1305C36.3467 78.7317 36.1223 78.3606 35.9118 78.1473C35.693 77.9258 35.4327 77.8039 35.1806 77.8039C34.8621 77.8039 34.4772 78.0033 34.3553 78.5655C34.3331 78.6653 34.3054 78.7899 34.2805 78.837C34.1919 79.0142 34.1919 79.1333 34.1919 79.4463C34.1919 79.8313 34.3276 80.0584 34.419 80.2107C34.4605 80.2772 34.4855 80.3215 34.5021 80.3796C34.5298 80.6677 34.5436 82.4042 34.5464 84.0162C34.2611 84.2654 33.6989 84.7501 33.2447 85.0908C33.181 85.1379 33.1671 85.1406 33.1007 85.16C33.0259 85.1822 32.9511 85.2071 32.8652 85.2431C32.904 85.0991 32.9234 84.9412 32.8929 84.764C32.8625 84.5812 32.7738 84.4538 32.6935 84.3374C32.6741 84.3097 32.652 84.2765 32.627 84.2405C32.6132 84.1325 32.5772 83.9248 32.3861 83.7641C32.2947 83.6866 32.159 83.6007 31.738 83.5703L31.3724 83.3265L31.3364 83.3016L31.2976 83.2822C31.2478 83.2601 30.9902 83.1493 30.6828 83.1493C30.428 83.1493 30.1953 83.2268 30.0125 83.3736C29.6469 83.6672 28.9324 84.8775 28.9324 85.4231C28.9324 85.6724 28.9905 85.9438 29.0348 86.1599C29.0515 86.2402 29.0736 86.3454 29.0764 86.3814C29.0764 86.459 29.093 86.5338 29.1152 86.603C28.8077 86.7526 28.5142 86.9963 28.2954 87.2926C28.1098 87.5419 28.0018 88.0321 27.9381 88.5223C27.6833 88.2592 27.3204 88.0377 26.8912 88.0377C26.7333 88.0377 26.5782 88.0709 26.4342 88.1318C26.0824 88.2842 25.8332 88.5888 25.7279 88.9932C25.6227 89.4003 25.6919 89.8379 25.9024 90.1121C26.0021 90.2395 26.1129 90.3475 26.232 90.4334C26.2237 90.4915 26.2154 90.5553 26.2126 90.6217C26.1988 90.8073 26.1932 90.9541 26.1877 91.0704C26.1821 91.2089 26.1766 91.3307 26.1627 91.3695C26.0353 91.7822 26.1378 92.0536 26.2458 92.2115C26.484 92.5549 26.8912 92.5798 27.0656 92.5909C27.0823 92.5909 27.0961 92.5909 27.1072 92.5937C27.1349 92.5965 27.1626 92.5992 27.1903 92.5992C27.2401 92.5992 27.29 92.5937 27.3343 92.5854C27.5282 92.9925 27.8578 93.5243 28.4892 93.5243C28.6056 93.5243 28.6997 93.5298 28.7911 93.5354C28.877 93.5409 28.9545 93.5464 29.0321 93.5464C28.9102 94.189 28.8437 94.8703 28.8244 95.6126C28.7883 97.1774 28.9241 97.8504 29.0044 98.252C29.0376 98.421 29.0542 98.4958 29.0459 98.5539C29.0348 98.6426 28.9767 98.8364 28.9185 99.0248C28.8548 99.238 28.7773 99.4901 28.708 99.7753C28.2538 98.7423 27.8855 98.0969 27.6057 97.8477C27.1016 97.3935 26.6253 97.1636 26.1877 97.1636C26.027 97.1636 25.8775 97.194 25.7362 97.255C25.4593 96.9475 25.0881 96.6567 24.5619 96.6567C24.501 96.6567 24.44 96.6595 24.3791 96.6678C24.1077 96.5653 23.8224 96.5127 23.5593 96.5127C22.8475 96.5127 22.0637 96.9392 22 98.1329V98.1662V98.1994C22.0277 98.5705 22.241 98.8891 22.4487 99.1494C22.1828 99.6784 22.2105 100.379 22.9334 101.088C23.4734 101.62 24.4705 103.016 24.9496 103.686C24.9995 103.755 25.0438 103.816 25.0798 103.869C25.0632 104.182 25.1518 104.445 25.5119 104.794C25.7833 105.057 27.6085 107.492 28.1015 108.273L28.1818 108.4C28.6277 109.109 28.7773 109.314 29.5195 109.616C30.2618 110.017 34.9148 112.325 37.2163 112.521C37.2163 112.521 37.2579 112.527 37.3659 112.571C37.8229 112.854 38.3048 113.147 38.8005 113.446C39.2603 113.759 39.6924 114.05 40.0358 114.224C40.094 114.255 40.1577 114.274 40.2214 114.288C41.6256 115.105 42.9245 115.817 43.9825 116.352C44.7303 116.731 45.7828 117.349 46.8934 118.005C49.1119 119.312 51.8399 120.921 53.8451 121.617L53.8258 150.75V150.972L53.9781 151.132L55.169 152.379C61.1293 158.619 68.1973 163.463 76.1739 166.773C83.8457 169.949 91.9524 171.561 100.267 171.561C108.581 171.561 116.821 169.913 124.443 166.662C132.389 163.269 139.319 158.317 145.046 151.95L146.173 150.692L146.315 150.534V150.321L146.279 108.32V108.261L146.265 108.153V107.821C146.376 107.835 146.484 107.843 146.589 107.843C147.536 107.843 148.004 107.264 149.137 105.863L149.275 105.691C149.43 105.5 149.929 105.076 150.458 104.628C151.422 103.811 152.624 102.794 153.266 101.927C154.266 100.587 159.8 90.9291 162.428 81.0859C163.317 80.5264 163.589 79.8368 163.63 79.2746C164.123 79.0392 164.868 78.8563 166.167 78.5794C166.97 78.4077 167.679 78.2664 168.305 78.139C170.585 77.6765 171.731 77.4438 172.371 76.9204C172.922 76.4662 173.429 75.9538 173.919 75.4608C174.061 75.3168 174.202 75.1755 174.34 75.0398C174.507 74.8764 174.75 74.7158 175.011 74.544C175.534 74.1978 176.174 73.7769 176.473 73.0928L183.702 78.0144L184.015 78.2276L184.328 78.0116L185.106 77.4743L185.782 77.009L185.098 76.5576L177.747 71.6941C178.016 71.4061 178.309 71.0876 178.617 70.7552L197.295 77.5602L197.464 77.6211L197.636 77.574L198.14 77.4328L198.331 77.3801L198.444 77.2167L198.968 76.4689L199.389 75.8652L198.691 75.627L179.977 69.2707C180.403 68.7998 180.893 68.2487 181.001 68.1074C181.312 67.6892 181.511 67.0439 180.683 66.3376C180.439 66.1299 180.06 65.8557 179.578 65.8557C179.187 65.8557 178.816 66.0358 178.475 66.393C177.935 66.4429 177.476 66.6506 177.082 67.0217C177.019 67.0134 176.958 67.0107 176.894 67.0107C176.67 67.0107 176.329 67.0633 175.983 67.3126C176.038 66.7863 176.035 66.2518 175.977 65.72C175.952 65.5012 175.919 65.2824 175.875 65.0636L195.154 59.7958L195.295 59.757L195.401 59.6545L196.179 58.879L196.852 58.2088L195.935 57.954L194.822 57.6438L194.667 57.5995L194.512 57.6466L175.368 63.4822C175.205 63.1193 175.013 62.7704 174.795 62.438L183.342 55.7521L183.635 55.5223L183.536 55.165L183.253 54.1596L183.02 53.337L182.364 53.8854L173.692 61.128C173.169 60.6322 172.579 60.2168 171.931 59.89L173.39 53.4478L173.443 53.2207L173.316 53.0241L172.69 52.0575L171.945 50.9025L171.682 52.2541L170.311 59.2917C169.776 59.1615 169.23 59.0895 168.679 59.0812L167.436 39.8102L167.425 39.6412L167.322 39.5083L166.483 38.4171L166.004 37.7967L165.577 38.4558L164.863 39.5581L164.758 39.7215L164.777 39.9154L166.763 59.2917C166.597 59.3305 166.43 59.3776 166.267 59.4274L163.051 52.628L162.968 52.4563L162.797 52.3704L162.306 52.1239L161.988 51.9661L161.711 52.1876L161.11 52.6668L160.75 52.9548L160.966 53.362L164.605 60.1808C163.794 60.6738 163.082 61.3191 162.511 62.0752L148.309 55.0902L148.184 55.0293L148.046 55.0348L146.885 55.0764L146.223 55.1013L146.215 31.5705V31.0111H145.661L54.4655 31H53.9116ZM146.237 66.7226V66.465V66.3598L146.231 55.3478L146.389 55.8075L146.686 56.6689L146.76 56.8905L146.974 56.9902L161.542 63.8201C161.348 64.3075 161.207 64.8144 161.121 65.3323L146.237 66.7254V66.7226ZM163.447 64.3518C164.503 61.837 166.951 60.9313 168.798 60.9313C168.854 60.9313 168.906 60.9313 168.962 60.9313C170.654 60.9784 172.839 62.3715 173.623 64.4211C173.354 64.6011 173.072 64.8005 173.028 64.8337L172.856 64.9556L172.809 65.1606L172.781 65.2824L172.554 64.9944L172.413 64.8144L172.186 64.7867L171.471 64.7036L171.009 64.6482L170.876 65.0941L170.795 65.3572L170.626 65.1938L170.585 64.4792L170.563 64.1219L170.228 63.9945L169.264 63.6262L168.865 63.4739L168.616 63.8228L168.098 64.5457L167.987 64.698L167.992 64.8864L168.026 65.8253L167.954 65.9361L167.945 65.9277L167.932 65.4043L167.926 65.2215L167.812 65.0775L167.411 64.5679L167.278 64.3961L167.065 64.3629L166.652 64.2992L166.378 64.2577L166.178 64.4488L165.644 64.9667L165.483 65.1218L165.475 65.3434L165.447 66.0081L165.414 66.0219L165.181 66.1188L165.012 66.0385C164.974 66.0191 164.713 65.8945 164.367 65.7948C164.328 65.4985 164.273 65.1633 164.242 65.011L164.19 64.7479L163.952 64.626C163.741 64.518 163.578 64.4266 163.45 64.3518M146.24 69.1544L161.085 67.5369C161.088 67.5646 161.093 67.5923 161.096 67.62L150.001 72.3339L148.541 72.9543L150.067 73.378L151.405 73.7492L151.599 73.8046L151.782 73.7215L161.536 69.2845C161.542 69.2984 161.548 69.3122 161.553 69.3261L146.245 77.718V77.671L146.24 69.5283V69.1599V69.1544ZM146.248 80.4904L158.963 72.9875C158.875 73.0955 158.786 73.2035 158.7 73.3171C157.537 74.3446 156.953 75.3943 155.992 77.1226C155.751 77.5546 155.482 78.0365 155.175 78.5739C154.673 78.6597 154.189 79.1112 153.632 80.0057C151.663 83.1576 149.854 85.365 148.259 87.3092C147.561 88.1595 146.888 88.9793 146.254 89.8158L146.248 81.1745V80.4904Z" fill="white"/>
</g>
<defs>
<clipPath id="clip0_9898_54216">
<rect width="177.4" height="140.567" fill="white" transform="translate(22 31)"/>
</clipPath>
</defs>
</svg>
