<svg width="200" height="200" viewBox="0 0 200 200" fill="none" xmlns="http://www.w3.org/2000/svg">
<g clip-path="url(#clip0_9898_54218)">
<path d="M167.148 53.1376H160.22L137.084 34.6477L128.94 36.3226L106.913 22.9766L100 18.7881L71.0599 36.3226L62.9158 34.6477L39.7798 53.1376H32.8518C31.5944 61.1744 25.0573 67.5581 16.9666 68.6569V98.9734C17.0661 98.988 17.1632 99.005 17.2627 99.0196C26.0088 100.354 32.8688 107.866 33.0654 116.911V116.958V136.977C36.8134 137.883 44.2026 141.083 51.8151 152.311C55.8592 158.279 61.2481 160.856 65.0932 161.967C67.7901 162.747 70.6351 162.864 72.361 162.842V169.642C75.5531 169.809 80.9396 170.901 86.314 175.639C93.0138 181.544 96.99 181.541 100 181.541C103.01 181.541 106.986 181.546 113.686 175.639C119.06 170.901 124.447 169.812 127.639 169.642V162.842C129.362 162.862 132.21 162.745 134.907 161.967C138.752 160.854 144.141 158.279 148.185 152.311C155.795 141.083 163.187 137.883 166.935 136.977V116.914C167.134 107.766 174.147 100.184 183.033 98.9759V68.6593C174.943 67.5605 168.406 61.1768 167.148 53.14V53.1376Z" fill="#031D40"/>
<path d="M103.821 40.5986L114.553 49.4887L110.525 42.8667L103.821 40.5986Z" fill="white"/>
<path d="M99.3397 28.9131L94.4824 34.6647L98.9708 37.8056L99.3397 28.9131Z" fill="white"/>
<path d="M105.518 34.6647L100.629 28.9131L101.029 37.8056L105.518 34.6647Z" fill="white"/>
<path d="M117.536 35.3406H108.916L105.202 36.7384L117.536 35.3406Z" fill="white"/>
<path d="M90.7781 35.3406H82.1582L94.4921 36.7384L90.7781 35.3406Z" fill="white"/>
<path d="M112.147 41.3207L122.068 36.8623L102.282 38.6491L112.147 41.3207Z" fill="white"/>
<path d="M101.534 46.7831L114.599 51.8273L101.063 40.6716L101.534 46.7831Z" fill="white"/>
<path d="M97.7813 38.6491L77.932 36.8623L87.8336 41.3134L97.7813 38.6491Z" fill="white"/>
<path d="M98.9392 40.6716L85.411 51.8225L98.4998 46.7223L98.9392 40.6716Z" fill="white"/>
<path d="M85.2945 49.6613L96.2107 40.5598L89.4843 42.8498L85.2945 49.6613Z" fill="white"/>
<path d="M67.9188 61.9524H60.2407V60.4452H67.3823L67.5571 58.4858H60.2407V56.9786H67.5571V55.0193H58.0026V63.9117H67.9188V61.9524Z" fill="#FFCD00"/>
<path d="M80.3134 61.9524H73.8831V55.0193H71.645V63.9117H80.141L80.3134 61.9524Z" fill="#FFCD00"/>
<path d="M98.0046 55.6586C97.7716 55.4277 97.4973 55.2624 97.1793 55.1651C96.8613 55.0679 96.4535 55.0193 95.9534 55.0193H87.9137V63.9142H90.1518V61.2474H95.9534C96.4535 61.2474 96.8613 61.1988 97.1793 61.1016C97.4973 61.0043 97.7716 60.839 98.0046 60.6081C98.2376 60.3771 98.4003 60.1073 98.4925 59.801C98.5872 59.4947 98.6333 59.0887 98.6333 58.5806V57.6885C98.6333 57.1828 98.5872 56.7744 98.4925 56.4681C98.3979 56.1618 98.2352 55.892 98.0046 55.6611V55.6586ZM96.3952 58.6195C96.3952 58.8772 96.3394 59.0523 96.2277 59.1446C96.1161 59.237 95.9024 59.2856 95.5917 59.2856H90.1518V56.9786H95.5917C95.9024 56.9786 96.1161 57.0248 96.2277 57.1196C96.3394 57.212 96.3952 57.3895 96.3952 57.6472V58.6195Z" fill="#FFCD00"/>
<path d="M103.874 62.1516H110.05L111.161 63.9116H113.749L107.906 54.99H106.03L100.175 63.9116H102.762L103.874 62.1516ZM106.969 57.2313L108.885 60.2846H105.039L106.969 57.2313Z" fill="#FFCD00"/>
<path d="M118.017 55.1651C117.699 55.2624 117.429 55.4277 117.206 55.6586C117.002 55.8628 116.844 56.1181 116.737 56.4244C116.63 56.7307 116.577 57.0613 116.577 57.4186V57.951C116.577 58.3059 116.63 58.639 116.737 58.9453C116.844 59.2516 117.002 59.5068 117.206 59.711C117.429 59.942 117.701 60.1073 118.017 60.2045C118.332 60.3018 118.747 60.3504 119.255 60.3504H124.241C124.551 60.3504 124.765 60.3966 124.877 60.4914C124.988 60.5838 125.044 60.7612 125.044 61.0189V61.2839C125.044 61.5416 124.988 61.719 124.877 61.8114C124.765 61.9038 124.554 61.9524 124.241 61.9524H119.886C119.502 61.9524 119.238 61.9111 119.094 61.8308C118.951 61.7506 118.859 61.5829 118.813 61.3252L116.575 61.5926C116.609 62.0278 116.672 62.3705 116.762 62.6185C116.851 62.8689 116.997 63.0901 117.203 63.2846C117.436 63.5058 117.711 63.6687 118.029 63.7659C118.347 63.8631 118.755 63.9117 119.255 63.9117H124.614C125.124 63.9117 125.537 63.8631 125.852 63.7659C126.17 63.6687 126.44 63.5033 126.663 63.2724C126.867 63.0682 127.025 62.813 127.132 62.5067C127.238 62.2004 127.292 61.8697 127.292 61.5124V60.98C127.292 60.6251 127.238 60.292 127.132 59.9857C127.025 59.6794 126.867 59.4242 126.663 59.22C126.44 58.9891 126.17 58.8237 125.852 58.7265C125.534 58.6293 125.122 58.5806 124.614 58.5806H119.628C119.315 58.5806 119.104 58.5345 118.992 58.4397C118.881 58.3473 118.825 58.1698 118.825 57.9121V57.6472C118.825 57.3895 118.881 57.212 118.992 57.1196C119.104 57.0273 119.315 56.9786 119.628 56.9786H123.983C124.367 56.9786 124.631 57.02 124.775 57.1002C124.918 57.1804 125.01 57.3482 125.056 57.6058L127.294 57.3384C127.258 56.9033 127.197 56.5605 127.107 56.3126C127.018 56.0646 126.872 55.841 126.666 55.644C126.433 55.4228 126.158 55.2624 125.84 55.1651C125.522 55.0679 125.114 55.0193 124.614 55.0193H119.255C118.745 55.0193 118.332 55.0679 118.017 55.1651Z" fill="#FFCD00"/>
<path d="M131.906 63.2724C132.139 63.5034 132.414 63.6687 132.732 63.7659C133.05 63.8631 133.458 63.9118 133.958 63.9118H139.317C139.817 63.9118 140.225 63.8631 140.543 63.7659C140.861 63.6687 141.136 63.5034 141.369 63.2724C141.602 63.0415 141.764 62.7692 141.857 62.4605C141.951 62.1493 141.997 61.7409 141.997 61.2328V57.7007C141.997 57.195 141.951 56.7842 141.857 56.473C141.762 56.1619 141.599 55.892 141.369 55.6611C141.136 55.4301 140.861 55.2648 140.543 55.1676C140.225 55.0703 139.817 55.0217 139.317 55.0217H133.958C133.458 55.0217 133.05 55.0703 132.732 55.1676C132.414 55.2648 132.139 55.4301 131.906 55.6611C131.673 55.892 131.511 56.1643 131.419 56.473C131.324 56.7842 131.278 57.1926 131.278 57.7007V61.2328C131.278 61.7385 131.324 62.1493 131.419 62.4605C131.513 62.7716 131.676 63.0415 131.906 63.2724ZM133.516 57.6447C133.516 57.3871 133.572 57.2096 133.683 57.1172C133.795 57.0248 134.006 56.9762 134.319 56.9762H138.956C139.279 56.9762 139.492 57.02 139.599 57.1099C139.706 57.1999 139.759 57.3773 139.759 57.6447V61.2839C139.759 61.5416 139.703 61.719 139.592 61.8114C139.48 61.9038 139.269 61.9524 138.956 61.9524H134.319C134.006 61.9524 133.795 61.9062 133.683 61.8114C133.572 61.719 133.516 61.5416 133.516 61.2839V57.6447Z" fill="#FFCD00"/>
<path d="M171.848 48.1931H161.968L138.371 29.3336L129.853 31.0864L100 13L70.1472 31.0864L61.6293 29.3336L38.032 48.1931H28.1523C28.1523 58.7386 22.0497 64.2034 12 64.2034V103.425C22.0497 103.425 27.9265 109.687 28.0989 116.992V140.81C31.1744 140.876 38.7772 141.851 47.6981 155.07C53.9925 164.396 63.0542 166.941 67.3945 167.512V174.601C69.7539 174.387 76.6406 173.711 83.02 179.334C91.1301 186.483 96.6598 186.483 100 186.483C103.34 186.483 108.87 186.483 116.98 179.334C123.359 173.711 130.246 174.387 132.606 174.601V167.512C136.946 166.941 146.008 164.396 152.302 155.07C161.223 141.851 168.826 140.876 171.901 140.81V116.992C172.073 109.687 177.95 103.425 188 103.425V64.2034C177.95 64.2034 171.848 58.7386 171.848 48.1931ZM183.033 98.9734C174.147 100.182 167.134 107.764 166.935 116.912V136.974C163.187 137.881 155.797 141.08 148.185 152.309C144.141 158.277 138.752 160.854 134.907 161.965C132.21 162.745 129.365 162.862 127.639 162.84V169.639C124.447 169.807 119.06 170.898 113.686 175.636C106.986 181.541 103.01 181.539 100 181.539C96.99 181.539 93.0138 181.544 86.314 175.636C80.9397 170.898 75.5531 169.809 72.361 169.639V162.84C70.6375 162.859 67.7901 162.742 65.0932 161.965C61.2482 160.851 55.8592 158.277 51.8151 152.309C44.205 141.08 36.8134 137.881 33.0654 136.974V116.955L32.978 116.912H33.0654C32.8688 107.866 26.0088 100.354 17.2627 99.0196C17.1632 99.0051 17.0661 98.9856 16.9666 98.9734V68.6569C25.0573 67.5581 31.592 61.172 32.8494 53.1376H39.7798L62.9158 34.6477L71.0599 36.3227L100 18.7881L106.913 22.9767L128.943 36.3227L137.087 34.6477L160.223 53.1376H167.153C168.41 61.1744 174.945 67.5581 183.036 68.6569V98.9734H183.033Z" fill="#65B2E8"/>
<path d="M97.3856 103.743V101.784H87.8336V110.679H90.0693V107.533H97.2109L97.3856 105.574H90.0693V103.743H97.3856Z" fill="#FFCD00"/>
<path d="M103.699 104.623V104.412C103.699 104.154 103.755 103.976 103.867 103.884C103.979 103.792 104.19 103.743 104.503 103.743H108.858C109.241 103.743 109.506 103.784 109.649 103.865C109.792 103.945 109.885 104.113 109.931 104.37L112.169 104.103C112.132 103.668 112.072 103.325 111.982 103.077C111.892 102.829 111.746 102.605 111.54 102.408C111.307 102.187 111.033 102.027 110.715 101.93C110.397 101.832 109.989 101.784 109.489 101.784H104.129C103.619 101.784 103.207 101.832 102.891 101.93C102.573 102.027 102.304 102.192 102.08 102.423C101.876 102.627 101.719 102.882 101.612 103.189C101.505 103.495 101.452 103.826 101.452 104.183V108.277C101.452 108.632 101.505 108.962 101.612 109.271C101.719 109.577 101.876 109.833 102.08 110.037C102.304 110.268 102.576 110.433 102.891 110.53C103.207 110.628 103.622 110.676 104.129 110.676H109.489C109.989 110.676 110.397 110.628 110.715 110.53C111.033 110.433 111.307 110.273 111.54 110.051C111.744 109.854 111.892 109.633 111.982 109.385C112.072 109.137 112.132 108.795 112.169 108.359L109.931 108.092C109.887 108.35 109.792 108.517 109.649 108.598C109.506 108.678 109.241 108.719 108.858 108.719H104.503C104.192 108.719 103.979 108.673 103.867 108.578C103.755 108.486 103.699 108.308 103.699 108.051V104.623Z" fill="#FFCD00"/>
<path d="M159.526 108.525C160.883 103.699 164.48 101.757 164.48 101.757H128.736C144.947 104.195 159.526 108.525 159.526 108.525Z" fill="#65B2E8"/>
<path d="M35.5196 101.757C35.5196 101.757 39.1171 103.699 40.474 108.525C40.474 108.525 55.0533 104.195 71.2638 101.757H35.5196Z" fill="#65B2E8"/>
<path d="M118.017 91.457V74.2215C118.017 71.1998 115.783 69.0071 112.705 69.0071C109.627 69.0071 107.394 71.1998 107.394 74.2215V91.457C107.394 94.4787 109.627 96.6714 112.705 96.6714C115.783 96.6714 118.017 94.4787 118.017 91.457ZM111.577 92.0939V73.587C111.577 72.9768 112.04 72.5514 112.705 72.5514C113.37 72.5514 113.834 72.9768 113.834 73.587V92.0939C113.834 92.7017 113.37 93.1271 112.705 93.1271C112.04 93.1271 111.577 92.7017 111.577 92.0939Z" fill="white"/>
<path d="M72.4072 74.2215V91.457C72.4072 94.4787 74.6404 96.6714 77.7184 96.6714C80.7964 96.6714 83.0297 94.4787 83.0297 91.457V74.2215C83.0297 71.1998 80.7964 69.0071 77.7184 69.0071C74.6404 69.0071 72.4072 71.1998 72.4072 74.2215ZM78.8472 73.5846V92.0915C78.8472 92.6993 78.3836 93.1247 77.7184 93.1247C77.0533 93.1247 76.5897 92.6993 76.5897 92.0915V73.5846C76.5897 72.9744 77.0533 72.549 77.7184 72.549C78.3836 72.549 78.8472 72.9744 78.8472 73.5846Z" fill="white"/>
<path d="M46.9966 96.6714C50.0746 96.6714 52.3078 94.4787 52.3078 91.457V74.2215C52.3078 71.1998 50.0746 69.0071 46.9966 69.0071C43.9186 69.0071 41.6853 71.1998 41.6853 74.2215V91.457C41.6853 94.4787 43.9186 96.6714 46.9966 96.6714ZM45.8678 73.5846C45.8678 72.9744 46.3314 72.549 46.9966 72.549C47.6617 72.549 48.1253 72.9744 48.1253 73.5846V92.0915C48.1253 92.6993 47.6617 93.1247 46.9966 93.1247C46.3314 93.1247 45.8678 92.6993 45.8678 92.0915V73.5846Z" fill="white"/>
<path d="M120.128 74.2166H120.454C120.684 73.9152 121.789 72.7289 124.809 72.7289H124.869V91.0267C124.869 94.7704 123.947 95.8157 123.624 96.0661V96.28H130.358V96.0661C130.035 95.8157 129.112 94.7704 129.112 91.0267V72.7289H129.173C132.193 72.7289 133.297 73.9176 133.528 74.2166H133.853L132.596 69.3984H121.388L120.131 74.2166H120.128Z" fill="white"/>
<path d="M142.393 69.6124V69.3984H135.659V69.6124C135.982 69.8628 136.905 70.9081 136.905 74.6517V91.0267C136.905 94.7728 135.982 95.8157 135.659 96.0661V96.28H142.393V96.0661C142.07 95.8157 141.148 94.7704 141.148 91.0267V74.6517C141.148 70.9081 142.07 69.8628 142.393 69.6124Z" fill="white"/>
<path d="M172.19 91.4619C171.916 91.7536 170.598 92.9496 167.549 92.9496H166.286V83.498H170.481V80.1676H166.286V72.7264H167.27C170.318 72.7264 171.637 73.9224 171.911 74.2142H172.246L170.988 69.396H160.796V69.6099C161.118 69.8603 162.041 70.9056 162.041 74.6493V91.0243C162.041 94.768 161.118 95.8133 160.796 96.0637V96.2776H171.268L172.525 91.4594H172.19V91.4619Z" fill="white"/>
<path d="M39.1268 91.4619H38.7918C38.5175 91.7536 37.1994 92.9496 34.1505 92.9496H33.6068V74.6517C33.6068 70.9081 34.5292 69.8628 34.852 69.6124V69.3984H28.1183V69.6124C28.4411 69.8628 29.3636 70.9081 29.3636 74.6517V91.0267C29.3636 94.7728 28.4411 95.8157 28.1183 96.0661V96.28H37.8718L39.1292 91.4619H39.1268Z" fill="white"/>
<path d="M95.2131 81.3928L91.453 69.3984H86.9549V69.6172C87.2535 69.8676 88.1055 70.9154 88.1055 74.6542V91.0292C88.1055 94.768 87.2535 95.8133 86.9549 96.0661V96.2849H93.0794V96.0661C92.7808 95.8157 91.9312 94.7728 91.9287 91.051V80.3062L94.9145 89.8234H95.5141L98.4999 80.3062V91.051C98.4974 94.7728 97.6478 95.8157 97.3492 96.0661V96.2849H103.474V96.0661C103.175 95.8157 102.323 94.768 102.323 91.0292V74.6542C102.323 70.9154 103.175 69.87 103.474 69.6172V69.3984H98.9756L95.2155 81.3928H95.2131Z" fill="white"/>
<path d="M145.906 73.4825L149.418 96.28H153.904L157.417 73.4825C157.868 70.7476 158.516 69.8773 158.795 69.6221V69.3984H152.974V69.6221C153.499 70.0548 153.7 71.015 153.576 72.4712L151.659 88.6371L149.741 72.4736C149.617 71.015 149.819 70.0572 150.343 69.6221V69.3984H144.522V69.6221C144.801 69.8798 145.452 70.7501 145.901 73.4825H145.906Z" fill="white"/>
<path d="M62.0905 96.6714C65.1685 96.6714 67.4018 94.4787 67.4018 91.457V91.3962C67.5353 88.3502 68.3436 87.4581 68.6301 87.2369V87.0229H63.2217V92.0915C63.2217 92.6992 62.7581 93.1247 62.0929 93.1247C61.4278 93.1247 60.9642 92.6992 60.9642 92.0915V73.5846C60.9642 72.9744 61.4278 72.549 62.0929 72.549C62.7581 72.549 63.2217 72.9744 63.2217 73.5846V78.6531H68.6301V78.4392C68.3436 78.218 67.5353 77.3258 67.4018 74.2798V74.2191C67.4018 71.1974 65.1685 69.0046 62.0905 69.0046C59.0125 69.0046 56.7792 71.1974 56.7792 74.2191V91.4546C56.7792 94.4763 59.0125 96.669 62.0905 96.669V96.6714Z" fill="white"/>
<path d="M113.837 92.0913V73.5844C113.837 72.9742 113.373 72.5488 112.708 72.5488C112.043 72.5488 111.579 72.9742 111.579 73.5844V92.0913C111.579 92.6991 112.043 93.1245 112.708 93.1245C113.373 93.1245 113.837 92.6991 113.837 92.0913Z" fill="#031D40"/>
<path d="M76.5897 73.5844V92.0913C76.5897 92.6991 77.0533 93.1245 77.7184 93.1245C78.3836 93.1245 78.8472 92.6991 78.8472 92.0913V73.5844C78.8472 72.9742 78.3836 72.5488 77.7184 72.5488C77.0533 72.5488 76.5897 72.9742 76.5897 73.5844Z" fill="#031D40"/>
<path d="M46.9966 93.1269C47.6617 93.1269 48.1253 92.7015 48.1253 92.0938V73.5869C48.1253 72.9767 47.6617 72.5513 46.9966 72.5513C46.3314 72.5513 45.8678 72.9767 45.8678 73.5869V92.0938C45.8678 92.7015 46.3314 93.1269 46.9966 93.1269Z" fill="#031D40"/>
<path d="M95.5918 56.9785H90.1519V59.2855H95.5918C95.9025 59.2855 96.1161 59.2393 96.2278 59.1445C96.3394 59.0521 96.3953 58.8747 96.3953 58.6194V57.647C96.3953 57.3893 96.3394 57.2119 96.2278 57.1195C96.1161 57.0271 95.9025 56.9785 95.5918 56.9785Z" fill="#031D40"/>
<path d="M106.969 57.2339L105.039 60.2872H108.884L106.969 57.2339Z" fill="#031D40"/>
<path d="M134.319 61.9523H138.956C139.267 61.9523 139.48 61.9061 139.592 61.8113C139.703 61.7189 139.759 61.5414 139.759 61.2837V57.6446C139.759 57.3772 139.706 57.1997 139.599 57.1098C139.492 57.0198 139.276 56.9761 138.956 56.9761H134.319C134.006 56.9761 133.795 57.0223 133.683 57.1171C133.572 57.2094 133.516 57.3869 133.516 57.6446V61.2837C133.516 61.5414 133.572 61.7189 133.683 61.8113C133.795 61.9036 134.006 61.9523 134.319 61.9523Z" fill="#031D40"/>
<path d="M153.513 125.517L148.386 128.602V113.88C147.134 113.496 145.838 113.119 144.529 112.762V130.924L138.985 134.261V111.369C137.592 111.048 136.128 110.737 134.625 110.44V136.887L128.2 140.755V109.303C126.598 109.052 124.966 108.821 123.335 108.615V143.681L116.031 148.077V116.068H110.661V151.307L102.818 156.028V116.071H97.1842V156.028L89.3411 151.307V116.068H83.9716V148.077L76.6674 143.681V108.615C75.0361 108.821 73.4049 109.052 71.8027 109.303V140.755L65.3773 136.887V110.44C63.8747 110.737 62.4109 111.051 61.0176 111.369V134.261L55.4733 130.924V112.764C54.1624 113.122 52.8686 113.499 51.6161 113.883V128.605L46.4893 125.52V115.584C45.3678 115.985 44.2439 116.411 43.137 116.851V130.501L100.002 171.523L156.868 130.501V116.851C155.761 116.411 154.637 115.985 153.516 115.584V125.52L153.513 125.517Z" fill="#FFCD00"/>
</g>
<defs>
<clipPath id="clip0_9898_54218">
<rect width="176" height="173.486" fill="white" transform="translate(12 13)"/>
</clipPath>
</defs>
</svg>
