<svg width="200" height="200" viewBox="0 0 200 200" fill="none" xmlns="http://www.w3.org/2000/svg">
<g clip-path="url(#clip0_9898_54213)">
<path d="M99.9988 186.418C147.728 186.418 186.419 147.727 186.419 99.9987C186.419 52.2705 147.728 13.5791 99.9988 13.5791C52.27 13.5791 13.5782 52.2705 13.5782 99.9987C13.5782 147.727 52.27 186.418 99.9988 186.418Z" fill="white"/>
<path d="M88.2811 106.423H90.1459V97.5251H71.6273V78.0708C72.1785 74.5953 73.9291 69.3132 79.2101 67.3718V65.9775C79.2101 65.9775 73.4435 66.6572 67.8153 70.8324C62.1872 75.01 54.687 71.7468 54.687 71.7468V73.1161C54.687 73.1161 59.9 74.4478 60.6308 81.8612V91.9407C60.6308 99.8338 56.4789 101.705 56.4789 101.705V102.068C56.4789 102.068 60.6308 102.367 60.6308 111.365V125.894C60.6308 134.882 54.5972 135.691 54.5972 135.691V137.061C54.5972 137.061 62.0949 135.254 67.7231 139.429C73.3512 143.605 82.0266 143.552 82.0266 143.552V141.923C77.1608 140.596 74.5725 139.297 72.8608 135.512C71.9697 133.543 71.6273 131.369 71.6273 129.208V106.418H88.2787L88.2811 106.423Z" fill="#009A44"/>
<path d="M139.367 125.899V109.074C139.367 102.37 143.519 102.07 143.519 102.07V101.708C142.844 101.445 139.367 99.8337 139.367 91.9431V81.8637C140.098 74.4503 145.311 73.1185 145.311 73.1185V71.7493C145.311 71.7493 137.813 75.01 132.185 70.8348C126.556 66.6596 120.79 65.98 120.79 65.98V67.3742C126.071 69.3156 127.821 74.5977 128.373 78.0733V97.5275H110.464V106.425H128.373V129.215C128.373 131.376 128.03 133.55 127.139 135.519C125.427 139.307 122.839 140.604 117.973 141.93V143.56C117.973 143.56 126.649 143.612 132.277 139.437C137.905 135.262 145.403 137.068 145.403 137.068V135.699C145.403 135.699 139.369 134.889 139.369 125.902L139.367 125.899Z" fill="#009A44"/>
<path d="M120.744 116.932V88.2878C121.081 82.9183 125.44 83.6629 125.44 83.6629C125.44 83.6629 125.255 82.5485 125.068 82.2711C124.884 81.9938 123.49 81.7614 123.49 81.7614C117.179 80.9719 112.819 75.9621 112.819 75.9621C109.759 73.2936 106.53 72.0218 103.709 71.4596C103.549 71.4172 102.22 71.1023 100.237 71.0574V71.0474C100.154 71.0474 100.079 71.0499 99.9988 71.0524C99.9187 71.0524 99.8434 71.0474 99.7608 71.0474V71.0574C97.7772 71.1023 96.449 71.4172 96.2888 71.4596C93.4674 72.0218 90.2406 73.2936 87.1788 75.9621C87.1788 75.9621 82.8181 80.9719 76.5077 81.7614C76.5077 81.7614 75.1164 81.9938 74.9295 82.2711C74.7449 82.5485 74.558 83.6629 74.558 83.6629C74.558 83.6629 78.9163 82.9183 79.2538 88.2878V116.932C79.2101 122.137 75.2184 123.029 73.6888 123.181V124.603C75.6506 124.608 82.2038 124.888 86.4747 128.253C90.6703 131.561 94.7761 133.063 97.0512 133.698L96.6918 132.263C91.7289 130.409 90.6169 124.583 90.3765 121.125V106.255C90.4178 106.273 90.4591 106.29 90.4979 106.308C90.5975 106.353 90.6995 106.395 90.799 106.44C90.8986 106.485 90.9981 106.53 91.0977 106.575C91.1972 106.62 91.2968 106.665 91.3963 106.71C91.4959 106.755 91.5954 106.8 91.695 106.843C91.7945 106.888 91.8941 106.93 91.996 106.972C92.0956 107.015 92.1976 107.057 92.2995 107.1C92.4015 107.142 92.5035 107.182 92.6079 107.222C92.7123 107.262 92.8167 107.302 92.9235 107.34C93.0304 107.377 93.1372 107.415 93.2465 107.452C93.3557 107.487 93.465 107.522 93.5767 107.555C93.6884 107.587 93.8025 107.62 93.9166 107.65C94.0331 107.68 94.1497 107.707 94.2687 107.735C94.3876 107.762 94.509 107.785 94.6329 107.807C94.7567 107.829 94.883 107.849 95.0116 107.867C95.1403 107.884 95.2714 107.902 95.405 107.914C95.5385 107.927 95.6745 107.939 95.808 107.952C95.9416 107.962 96.0751 107.972 96.2062 107.982C96.3373 107.992 96.4685 108.002 96.5971 108.009C96.7258 108.019 96.8545 108.029 96.9783 108.039C97.1046 108.049 97.2284 108.062 97.3498 108.077C97.4712 108.089 97.5902 108.107 97.7067 108.124C97.8233 108.142 97.9374 108.162 98.0467 108.184C98.1584 108.207 98.2652 108.234 98.3696 108.262C98.474 108.292 98.5735 108.324 98.6707 108.362C98.7678 108.399 98.86 108.442 98.9499 108.487C99.0373 108.534 99.1223 108.584 99.2024 108.642C99.2825 108.699 99.3578 108.761 99.4282 108.829C99.4986 108.896 99.5642 108.971 99.6224 109.054C99.6734 109.124 99.7171 109.201 99.7608 109.281V109.289C99.7608 109.289 99.7706 109.301 99.773 109.311C99.7997 109.366 99.8167 109.441 99.8361 109.514C99.8434 109.544 99.858 109.569 99.8628 109.599C99.8725 109.693 99.9065 109.733 99.9381 109.751C99.9697 109.768 99.9988 109.763 99.9988 109.763H100.004C100.004 109.763 100.033 109.768 100.064 109.751C100.096 109.733 100.13 109.693 100.14 109.599C100.142 109.569 100.159 109.544 100.166 109.514C100.183 109.441 100.203 109.366 100.229 109.311C100.234 109.304 100.239 109.296 100.242 109.289V109.281C100.283 109.201 100.329 109.124 100.38 109.054C100.441 108.971 100.504 108.899 100.574 108.829C100.645 108.761 100.72 108.699 100.8 108.642C100.88 108.584 100.965 108.534 101.053 108.487C101.142 108.439 101.235 108.399 101.332 108.362C101.429 108.324 101.528 108.292 101.633 108.262C101.737 108.232 101.844 108.207 101.956 108.184C102.067 108.162 102.179 108.142 102.296 108.124C102.412 108.107 102.531 108.092 102.653 108.077C102.774 108.064 102.898 108.052 103.024 108.039C103.15 108.029 103.277 108.019 103.405 108.009C103.534 107.999 103.665 107.989 103.796 107.982C103.927 107.972 104.061 107.962 104.194 107.952C104.328 107.942 104.461 107.929 104.597 107.914C104.731 107.902 104.862 107.884 104.991 107.867C105.119 107.849 105.246 107.829 105.37 107.807C105.493 107.785 105.615 107.76 105.734 107.735C105.853 107.707 105.972 107.68 106.086 107.65C106.202 107.62 106.314 107.587 106.426 107.555C106.537 107.522 106.647 107.487 106.756 107.452C106.865 107.417 106.972 107.38 107.079 107.34C107.186 107.302 107.29 107.262 107.395 107.222C107.499 107.182 107.601 107.14 107.703 107.1C107.805 107.057 107.907 107.015 108.006 106.972C108.106 106.93 108.208 106.885 108.307 106.843C108.407 106.8 108.507 106.755 108.606 106.71C108.706 106.665 108.805 106.62 108.905 106.575C109.004 106.53 109.104 106.485 109.203 106.44C109.303 106.395 109.403 106.35 109.504 106.308C109.546 106.29 109.585 106.273 109.626 106.255V121.125C109.386 124.583 108.276 130.409 103.311 132.263L102.951 133.698C105.226 133.063 109.33 131.561 113.528 128.253C117.801 124.885 124.354 124.608 126.314 124.603V123.181C124.784 123.029 120.792 122.137 120.749 116.932H120.744ZM100.239 97.3178H90.986C90.5174 97.2329 90.5829 96.7057 90.5829 96.7057H90.5805V84.25C90.5805 84.25 90.0658 78.4932 94.9461 76.7792C96.364 76.282 97.6533 76.0046 98.7921 75.8722C99.1587 75.8447 99.569 75.8322 100.004 75.8322C100.438 75.8322 100.849 75.8422 101.215 75.8722C102.354 76.0046 103.643 76.2795 105.061 76.7792C109.942 78.4957 109.427 84.25 109.427 84.25V96.8581C109.41 97.0205 109.332 97.2628 109.026 97.3178H100.244H100.239Z" fill="#002D72"/>
<path d="M99.9988 62.1698L92.5059 66.1101L93.936 57.7648L87.8732 51.8555L96.2523 50.6362L99.9988 43.0454L103.748 50.6362L112.124 51.8555L106.062 57.7648L107.494 66.1101L99.9988 62.1698Z" fill="#BE1E2D"/>
<path d="M66.7373 33.4381L64.6346 28.9281L69.4858 26.6669L71.5885 31.1769L66.7373 33.4381ZM187.998 100.001C187.998 148.524 148.52 188 99.9988 188C51.4772 188 12 148.522 12 99.9987C12 51.4756 51.4772 12 99.9988 12C148.52 12 187.998 51.4756 187.998 99.9987V100.001ZM139.248 44.0922L142.297 46.7433L144.313 44.427L146.721 46.5209L146.236 50.1664L149.186 52.7299L149.275 52.625L149.154 51.0234L149.487 48.7996L149.63 48.8596C150.659 49.2993 151.895 49.0095 152.636 48.1575L156.807 43.3601C157.774 42.2482 157.657 40.5567 156.543 39.5897L148.919 32.9634L148.824 33.0708L148.583 34.4001L140.622 43.56L139.338 43.9823L139.243 44.0897L139.248 44.0922ZM124.303 36.4689L130.456 39.2099C131.803 39.8096 133.387 39.2024 133.986 37.8557L137.81 29.2679C138.41 27.9212 137.803 26.3371 136.456 25.7374L130.303 22.9964C128.955 22.3967 127.372 23.0039 126.773 24.3507L122.948 32.9384C122.349 34.2852 122.956 35.8693 124.303 36.4689ZM102.866 31.8315L107.552 32.4911L107.572 32.3487L107.047 31.1019L107.662 26.7368L113.049 27.4939L114.479 24.3407L108.123 23.4462L108.453 21.105L116.121 22.1819L117.556 19.0036L104.918 17.2271L104.899 17.3695L105.423 18.6163L103.733 30.6347L102.886 31.6891L102.866 31.8315ZM99.9988 37.4009C65.4262 37.4009 37.402 65.4279 37.402 99.9987C37.402 134.57 65.4286 162.597 99.9988 162.597C134.569 162.597 162.596 134.57 162.596 99.9987C162.596 65.4279 134.569 37.4009 99.9988 37.4009ZM82.1747 22.4092L87.0064 21.7296L88.4098 31.7216L87.8854 32.9659L87.9048 33.1083L92.5909 32.4487L92.5715 32.3062L91.7241 31.2543L90.3207 21.2624L95.1816 20.5802L93.7466 17.397L82.6773 18.9536L82.1747 22.4067V22.4092ZM59.5577 27.6014L59.6184 27.7313L60.7352 28.4909L65.8632 39.4898L65.7273 40.834L65.788 40.964L69.4518 39.2549L68.1553 36.4714L71.0471 35.1222L74.1816 37.0486L77.7241 35.397L77.6658 35.2721L76.1532 34.7299L74.2569 33.5231L74.371 33.4156C75.1893 32.6536 75.4296 31.4067 74.9513 30.3823L72.2635 24.6205C71.6395 23.2837 70.0467 22.7041 68.7113 23.3287L59.5577 27.5989V27.6014ZM42.0662 43.8948L49.5858 52.2452L49.848 53.5695L49.9451 53.6769L52.9486 50.9734L50.8338 48.6247L54.8109 45.0417L56.9257 47.3904L59.951 44.6669L59.8563 44.5595L58.5646 44.1597L51.045 35.8093C50.2316 34.9073 48.8355 34.8324 47.9347 35.6469L42.2094 40.8015C41.3184 41.6036 41.2552 42.9903 42.0686 43.8948H42.0662ZM27.2844 62.8443L37.5768 69.2758L38.1959 70.4776L38.3173 70.5526L40.4588 67.1245L35.6392 64.1136L39.0506 58.6567L43.8702 61.6675L46.0117 58.2419L45.8903 58.1669L44.5403 58.1394L34.2455 51.708L33.6288 50.5062L33.5074 50.4312L31.3659 53.8593L36.2098 56.8876L32.7984 62.3446L27.9545 59.3163L25.813 62.7444L25.9344 62.8218L27.2844 62.8493V62.8443ZM48.3718 143.862L43.6274 137.79C42.8893 136.846 41.5102 136.686 40.5511 137.433L31.6961 144.352L30.3558 144.522L30.2417 144.609L32.7304 147.792L35.2192 145.848L38.514 150.066L36.0253 152.01L38.531 155.218L38.6451 155.131L39.1331 153.871L47.9881 146.953C48.9448 146.206 49.1172 144.816 48.3693 143.859L48.3718 143.862ZM64.2437 157.849L55.1994 151.278L52.4387 153.414L56.3867 156.283L50.455 164.446L49.2143 164.978L49.1293 165.095L52.9583 167.876L53.0433 167.759L53.1647 166.414L59.0963 158.251L63.0661 161.137L64.2437 157.852V157.849ZM83.6849 166.292L79.8875 164.91L77.9329 170.28L71.8847 168.079L73.8393 162.709L70.0419 161.327L69.9933 161.462L70.2458 162.789L66.0939 174.195L65.0474 175.05L64.9989 175.185L68.7963 176.566L70.7387 171.227L76.7869 173.428L74.8445 178.768L78.6419 180.152L78.6905 180.017L78.438 178.69L82.5899 167.284L83.6363 166.429L83.6849 166.295V166.292ZM101.145 179.6L92.8968 179.022L93.6908 167.654L89.6603 167.371L89.6506 167.516L90.26 168.721L89.3228 182.128L99.9357 182.87L101.145 179.597V179.6ZM122.157 176.571L114.244 178.11L113.792 175.792L119.569 174.67L118.935 171.409L113.159 172.531L112.707 170.21L120.183 168.756L120.503 165.283L108.101 167.694L108.128 167.834L109.029 168.841L111.593 182.033L121.832 180.042L122.152 176.566L122.157 176.571ZM140.535 172.134L140.467 172.006L139.311 171.307L134.574 162.397L138.908 160.093L136.47 157.594L126.6 162.844L127.309 166.262L131.616 163.971L136.354 172.881L136.288 174.23L136.356 174.358L140.535 172.136V172.134ZM155.719 161.29L155.627 161.18L154.35 160.735L146.549 151.438L146.333 150.103L146.24 149.994L142.615 153.037L142.708 153.147L143.985 153.592L151.786 162.889L152.002 164.223L152.094 164.333L155.719 161.29ZM168.877 142.353L165.905 140.194L163.919 142.927L165.939 144.394L162.792 148.724L156.283 143.994L159.429 139.664L161.45 141.131L163.436 138.397L160.491 136.256C159.507 135.542 158.128 135.761 157.414 136.746L152.886 142.98C152.182 143.949 152.408 145.319 153.391 146.033L161.78 152.127C162.734 152.819 164.123 152.6 164.815 151.645L169.343 145.411C170.057 144.429 169.851 143.055 168.879 142.35L168.877 142.353ZM171.363 58.1619L166.022 49.9365L165.9 50.0139L165.303 51.2258L155.125 57.8346L153.775 57.8871L153.653 57.9645L158.995 66.19C159.886 67.5617 161.726 67.954 163.101 67.062L170.492 62.2622C171.863 61.3727 172.252 59.5312 171.361 58.1594L171.363 58.1619ZM158.667 59.5337L161.583 64.0237L168.333 59.6411L165.417 55.1511L158.667 59.5337ZM52.6087 42.6005L49.2993 38.9251L45.3222 42.5056L48.6316 46.1811L52.6087 42.6005ZM153.816 41.6511L149.776 38.1405L146.51 41.8959L150.55 45.4065L153.816 41.6511ZM134.448 28.5084L129.558 26.3321L126.285 33.683L131.175 35.8593L134.448 28.5084ZM37.8099 143.824L41.1047 148.042L45.0017 144.996L41.7068 140.779L37.8099 143.824Z" fill="#002D72"/>
</g>
<defs>
<clipPath id="clip0_9898_54213">
<rect width="176" height="176" fill="white" transform="translate(12 12)"/>
</clipPath>
</defs>
</svg>
