<svg width="200" height="200" viewBox="0 0 200 200" fill="none" xmlns="http://www.w3.org/2000/svg">
<g clip-path="url(#clip0_9898_54202)">
<path d="M166.814 18.375L166.473 15.831L164.014 15.1151C143.246 9.06671 121.747 6 100.113 6H99.8408C78.2228 6 56.7359 9.06671 35.9838 15.1126L33.525 15.8284L33.1858 18.3724C31.9115 27.9201 28.4712 62.0968 37.718 101.179C45.8396 135.505 61.1268 162.641 83.2458 182.118C83.7494 190.958 91.0616 198.003 100.003 198.003C108.944 198.003 116.269 190.95 116.762 182.1C138.871 162.623 154.153 135.494 162.274 101.179C171.529 62.0839 168.086 27.915 166.812 18.375H166.814Z" fill="white"/>
<path d="M90.8481 84.3517V84.102C90.7838 83.9294 90.6554 83.6256 90.5809 83.4454C89.9514 81.9236 88.898 79.3744 88.9134 76.1198C88.9211 74.7293 89.2423 73.5011 89.7022 72.4428C88.9699 72.4789 88.2377 72.4943 87.5054 72.5381V84.4959C88.6205 84.4315 89.733 84.4006 90.8481 84.3517ZM75.0341 87.9205C75.0829 88.0029 75.1446 88.0802 75.1806 88.1677L75.2705 88.3789C75.3501 88.5617 75.3861 88.7625 75.3758 88.9582L78.3973 87.9798C78.6568 87.6502 78.9857 87.3824 79.3608 87.2021C79.7205 87.0245 80.1393 86.9292 80.5529 86.9292C81.6141 86.9292 82.5673 87.524 83.0349 88.4844C83.1685 88.7677 83.2558 89.0664 83.2918 89.3651C84.4249 88.2501 86.1206 87.5755 87.5054 87.179V84.4959C83.3432 84.7328 79.1835 85.0881 75.0341 85.5645V87.9205ZM87.5054 48.6198V60.5622C87.9551 60.5365 88.4021 60.5262 88.8517 60.5056C92.0993 57.3616 95.4497 56.7436 97.5822 56.7436C98.8154 56.7436 99.6042 56.9599 99.689 56.9831L99.8149 57.0166C99.8817 57.0346 99.9459 57.0655 100.008 57.0938V48.2722C99.9588 48.2722 99.9074 48.2722 99.8586 48.2722C95.7374 48.2722 91.6189 48.3907 87.508 48.6224L87.5054 48.6198ZM65.5689 74.9224C65.8104 75.1027 66.0981 75.2958 66.4501 75.4735L66.6634 75.5816C66.9409 75.7232 67.1567 75.9575 67.2749 76.2485L67.3648 76.4725C67.4856 76.7686 67.8067 77.6493 67.8607 78.6818L68.169 78.8492C68.5775 79.068 68.837 79.4903 68.8473 79.9564L68.8653 80.6748L70.2707 83.1982C70.3811 83.1595 70.4942 83.1389 70.6124 83.1338L70.9695 83.1158C72.2208 83.1158 73.2999 83.7775 73.8497 84.8899L73.9525 85.0933C74.0424 85.2813 74.0706 85.4847 74.0681 85.6907C74.3918 85.652 74.713 85.6031 75.0341 85.5671V73.6092C71.8713 73.9723 68.7162 74.4255 65.5689 74.925V74.9224ZM75.0341 73.6067C79.1835 73.1303 83.3432 72.775 87.5054 72.5381V70.1511L84.9721 70.8232C84.8642 70.8515 84.7537 70.867 84.6432 70.867C84.2733 70.867 83.9136 70.7047 83.6643 70.4138C83.3432 70.0378 83.2661 69.5074 83.4639 69.0542L84.0061 67.826C85.08 65.3824 86.2722 63.4667 87.508 61.9655V60.5596C83.3458 60.7965 79.1861 61.1544 75.0367 61.6282V73.6015L75.0341 73.6067ZM62.6707 83.7028L62.6296 83.6694V87.3463C63.1306 87.2588 63.6342 87.1918 64.1352 87.1094L62.6707 83.7054V83.7028ZM62.6296 51.4599V63.4126C66.7482 62.702 70.8873 62.1072 75.0341 61.6334V49.6807C70.8873 50.157 66.7507 50.7493 62.6296 51.4625V51.4599ZM51.0832 68.4981C51.3325 71.5467 51.6331 74.5516 51.9825 77.5179C54.6391 76.9231 57.3035 76.385 59.9755 75.8854C59.9447 75.6563 59.955 75.4245 60.0475 75.2082L60.7001 73.6736C60.9108 73.1895 61.3809 72.8908 61.8871 72.8908C61.995 72.8908 62.1055 72.9063 62.2185 72.9346L62.6296 73.0428V63.4126C58.6986 64.0924 54.7804 64.888 50.8803 65.7841C50.9445 66.6931 51.0087 67.6046 51.0832 68.4981ZM102.366 60.6498C102.793 60.485 103.096 60.3974 103.188 60.3691L103.592 60.2558C103.16 60.2481 102.731 60.2429 102.299 60.2378C102.34 60.3717 102.369 60.5081 102.369 60.6472L102.366 60.6498ZM88.2993 100.705C88.1606 100.854 88.063 101.001 88.0219 101.081L87.9602 101.202C87.8728 101.382 87.7418 101.537 87.5799 101.658L87.5054 101.717V108.424C86.0615 108.507 84.6201 108.623 83.1762 108.733C83.9161 110.255 84.6946 111.865 85.4988 113.538C86.1334 111.689 86.8374 110.098 87.5029 108.777V108.427C87.5645 108.424 87.6236 108.422 87.6853 108.419C88.6282 106.601 89.4786 105.353 89.9154 104.753L90.1646 102.984C89.9026 102.327 89.1292 101.449 88.2968 100.705H88.2993ZM123.537 60.606C123.486 60.4103 123.455 60.2249 123.429 60.0653L122.949 58.7675C122.854 58.5229 122.841 58.2525 122.905 57.9976L122.954 57.8045C123.121 57.1505 123.568 56.5994 124.264 56.1849L124.341 53.7774L124.105 52.9714C124.077 52.8761 124.059 52.7757 124.051 52.6779V52.598C122.568 51.7844 121.659 50.6334 121.441 49.3537C118.468 49.0627 115.493 48.8078 112.51 48.6353V60.5622C116.114 60.7682 119.714 61.0798 123.308 61.4634C123.283 61.1596 123.36 60.8558 123.537 60.6034V60.606ZM105.812 85.6675C106.289 85.7834 106.816 85.9121 107.194 85.9997C107.551 85.8761 108.445 85.5053 110.66 84.4315C110.67 84.4264 110.678 84.4238 110.688 84.4187C108.974 84.3363 107.261 84.2616 105.547 84.2204L105.814 85.6701L105.812 85.6675ZM114.139 82.5802L116.695 79.7607C116.939 79.4929 117.286 79.3384 117.648 79.3384C117.653 79.3384 118.296 79.3487 118.296 79.3487L119.963 78.0896C120.307 76.9798 120.996 75.3782 122.016 73.3105C118.851 72.9913 115.683 72.7209 112.51 72.5381V83.5277C112.931 83.2883 113.501 82.9587 114.139 82.5828V82.5802ZM60.0141 99.6698C59.3538 98.318 59.9216 96.6623 61.2859 95.9903C61.6738 95.8049 62.0721 95.7148 62.4755 95.7148H62.4934L62.6296 95.6221V87.3438C59.6235 87.8639 56.6278 88.4664 53.6422 89.1127C54.3026 93.0214 55.0554 96.8451 55.9007 100.592C57.2906 100.306 58.6832 100.038 60.0757 99.7779C60.0552 99.7419 60.0321 99.7084 60.0141 99.6698ZM107.597 70.3417C107.628 70.7022 107.613 71.2429 107.59 71.7193C107.713 71.9716 107.795 72.1905 107.844 72.3347C109.401 72.3913 110.955 72.4454 112.51 72.5355V60.5596C110.894 60.4669 109.28 60.4077 107.664 60.3536V60.3588L107.831 61.0231C108.717 64.5688 107.888 67.996 107.423 69.4842C107.515 69.7701 107.572 70.0584 107.595 70.3391L107.597 70.3417ZM50.3099 53.9087V53.9499C54.3976 52.9997 58.5059 52.168 62.6296 51.4548V51.4342C58.5008 52.1423 54.3925 52.9663 50.3099 53.9061V53.9087ZM75.0341 49.673C75.16 49.6601 75.2859 49.6498 75.4118 49.6343C75.2859 49.6472 75.16 49.6575 75.0341 49.673ZM50.3099 54.0863V53.9499H50.3047C50.3047 53.9962 50.3073 54.04 50.3099 54.0863ZM146.357 89.1076C146.997 85.3147 147.547 81.4472 148.012 77.5076C144.482 76.7171 140.947 75.9962 137.388 75.3833V87.3412C140.389 87.8587 143.377 88.4638 146.357 89.1076ZM118.545 128.934L118.563 129.003C118.581 129.088 118.594 129.173 118.599 129.263V129.33C118.604 129.418 118.643 130.618 118.432 132.757C120.616 132.943 122.8 133.156 124.981 133.406V121.456C122.209 121.137 119.429 120.892 116.646 120.681C117.386 124.144 118.19 127.52 118.542 128.936L118.545 128.934ZM137.493 123.253C137.457 123.246 137.424 123.238 137.388 123.233V123.539C137.424 123.444 137.457 123.349 137.493 123.253ZM124.981 145.379C125.731 145.467 126.481 145.575 127.234 145.67C129.264 142.076 131.16 138.345 132.915 134.48C130.276 134.078 127.63 133.71 124.981 133.406V145.379ZM124.981 109.488V97.5301C122.242 97.2159 119.498 96.9739 116.754 96.7653L116.361 102.662C116.361 102.726 116.351 102.793 116.335 102.855C116.317 102.922 115.714 105.79 115.364 108.625C118.573 108.849 121.78 109.125 124.978 109.49V121.453C129.125 121.927 133.262 122.519 137.386 123.233V111.272C138.65 111.491 139.906 111.741 141.168 111.983C142.241 108.275 143.22 104.477 144.097 100.586C141.864 100.128 139.629 99.6981 137.386 99.3119V111.27C133.262 110.556 129.128 109.964 124.978 109.488H124.981ZM112.51 154.495V156.276C115.064 156.423 117.612 156.629 120.158 156.863C121.836 154.482 123.442 152.028 124.978 149.502V145.379C122.001 145.04 119.018 144.779 116.03 144.561C114.799 148.904 113.519 152.213 112.507 154.495H112.51ZM133.087 62.7303L133.164 65.4545V65.5369C133.041 68.9873 132.517 72.0566 131.928 74.5233C133.75 74.7911 135.572 75.0718 137.388 75.3859V63.4101C135.957 63.1629 134.521 62.9492 133.087 62.7303ZM74.4714 109.568C72.5162 105.499 70.9078 102.103 69.9007 99.9659L68.4259 99.3402L64.3356 100.535C64.1455 100.71 63.9271 100.854 63.6882 100.968C63.3721 101.125 63.0022 101.207 62.6296 101.225V111.272C61.3604 111.491 60.0937 111.743 58.8296 111.986C59.9498 115.845 61.1754 119.605 62.5089 123.258C62.55 123.253 62.5911 123.243 62.6296 123.235V111.275C66.5606 110.595 70.5122 110.031 74.4689 109.568H74.4714ZM125.801 86.579L125.641 87.7351C125.595 88.0879 125.402 88.402 125.115 88.6106L124.984 88.7059V97.5352C129.13 98.009 133.267 98.6038 137.391 99.317V87.3463C133.737 86.7155 130.071 86.1928 126.394 85.7473L125.801 86.579ZM149.695 53.9782C145.618 53.0306 141.514 52.2015 137.388 51.4883V63.4101C141.311 64.0898 145.224 64.8829 149.114 65.7764C149.387 61.9604 149.585 58.0156 149.695 53.9782ZM75.0341 121.459C70.8873 121.932 66.7507 122.525 62.6296 123.238V123.596C63.6316 126.328 64.6902 129.008 65.8104 131.622C66.224 132.585 66.6531 133.537 67.0848 134.485C69.7311 134.083 72.3801 133.713 75.0341 133.409V121.459ZM75.0341 149.538V145.385C74.2762 145.472 73.5208 145.583 72.7629 145.678C73.5003 146.984 74.2608 148.266 75.0341 149.538ZM86.5676 142.753C85.2522 139.38 84.3478 135.986 83.8416 132.608C80.9024 132.824 77.9657 133.079 75.0341 133.414V145.387C78.8264 144.952 82.6264 144.63 86.4315 144.393C86.4752 143.731 86.524 143.168 86.5676 142.753ZM110.901 157.785C110.991 158.931 111.02 159.809 110.986 160.492L111.677 160.968L112.51 161.568V156.282C112.24 156.266 111.968 156.261 111.698 156.248C111.366 156.923 111.094 157.438 110.901 157.783V157.785ZM75.0341 110.744V121.461C76.6887 121.271 78.3434 121.116 80.0005 120.964C78.2329 117.367 76.5449 113.883 75.0341 110.744ZM111.171 168.185C111.621 167.683 112.07 167.181 112.51 166.671V166.658C112.065 167.171 111.618 167.683 111.166 168.188H111.169L111.171 168.185ZM87.5054 166.697V166.692C87.4746 166.656 87.4412 166.62 87.4104 166.581C87.4438 166.62 87.4746 166.658 87.5054 166.694V166.697ZM83.1813 156.588C82.0663 156.678 80.9538 156.771 79.8413 156.874C81.5061 159.235 83.2404 161.521 85.0389 163.741L87.5054 161.694V161.586C87.2742 161.429 87.007 161.259 86.6884 161.058C84.7126 159.83 83.7003 158.076 83.1813 156.588Z" fill="#8A2432"/>
<path d="M110.85 162.168L109.442 161.197C109.565 160.638 109.599 159.564 109.414 157.45C109.987 156.477 113.234 150.676 115.775 139.748C117.278 133.275 117.152 129.541 117.145 129.387C117.145 129.353 117.14 129.322 117.132 129.291C117.096 129.147 113.568 114.856 113.674 111.375C113.782 107.876 114.891 102.646 114.912 102.525L115.387 95.4056L120.96 89.7949L124.043 87.5856C124.151 87.5084 124.221 87.3925 124.238 87.2612L124.406 86.0226L128.575 80.175C128.593 80.1493 128.609 80.1236 128.622 80.0927C128.735 79.8403 131.412 73.7996 131.71 65.4955L131.571 60.5466C131.571 60.4951 131.561 60.4436 131.543 60.3947L130.952 58.7802L130.587 54.8097C130.567 54.5883 130.397 54.4106 130.176 54.3797L129.796 54.3282L129.783 53.9188L130.258 52.7961L130.42 52.0752C131.831 51.7559 132.828 51.0504 133.164 50.1491C133.375 50.368 133.488 50.507 133.493 50.5096C133.601 50.6435 133.773 50.7105 133.945 50.677C134.115 50.6461 134.256 50.5251 134.313 50.3603C134.86 48.7252 137.111 48.6428 137.555 48.6428H137.658C137.838 48.6557 137.992 48.5681 138.082 48.424C138.174 48.2798 138.182 48.0969 138.102 47.945L137.316 46.4464C137.195 46.2147 136.908 46.1246 136.679 46.243C136.258 46.4593 135.574 46.3615 135.279 46.261C134.477 44.559 133.038 43.8175 132.974 43.784C132.882 43.7376 132.776 43.7222 132.676 43.7402C132.419 43.7866 132.178 43.8072 131.957 43.8072C130.872 43.8072 130.353 43.2793 129.755 42.6665C129.177 42.0768 128.521 41.4099 127.35 41.4099C124.942 41.4099 122.633 43.7351 122.535 43.8329C122.412 43.9591 122.368 44.1393 122.419 44.3093C122.735 45.3418 123.391 46.1941 124.012 46.8172C123.329 47.273 122.923 47.8652 122.851 48.527C122.715 49.7372 123.73 50.9422 125.456 51.6503L125.505 52.5206C125.505 52.5567 125.513 52.5927 125.523 52.6288L125.803 53.5866L125.69 57.176C125.616 57.1683 125.546 57.1812 125.477 57.2095C125.187 57.3254 124.495 57.6498 124.364 58.1545C124.339 58.2498 124.346 58.3502 124.38 58.4403L124.855 59.7072C124.873 59.9029 124.948 60.4178 125.166 60.8478L124.891 61.2161C124.809 61.3268 124.781 61.4632 124.806 61.5971C124.829 61.7156 125.04 62.6915 125.495 63.3506L125.413 65.9204L124.809 66.7547C124.732 66.8628 124.701 66.9967 124.727 67.128C124.752 67.2568 124.832 67.3701 124.945 67.4422C124.95 67.4447 125.477 67.7975 125.431 68.6369C125.428 68.6987 125.436 68.7579 125.454 68.8172C125.467 68.8532 125.546 69.0644 125.762 69.2575C123.897 72.7001 121.71 76.977 121.227 78.952L118.768 80.8085L117.931 80.7956C117.795 80.8111 117.664 80.8522 117.571 80.9527L115.064 83.7181C113.933 84.3902 112.674 85.1137 112.402 85.2347C112.281 85.2605 112.073 85.3583 111.292 85.7368C110.215 86.2595 107.695 87.48 107.155 87.4826C106.595 87.3564 105.169 87.0088 104.547 86.8569L103.851 83.0744C104.19 82.6598 104.822 81.8565 104.977 81.4754C105.141 81.0557 105.814 77.2731 106.017 76.1247C106.027 76.0604 106.025 75.996 106.012 75.9342L105.822 75.1076L106.485 73.1816C106.518 73.0863 106.521 72.9859 106.49 72.8881C106.474 72.8392 106.351 72.4375 106.104 72.0487C106.128 71.6882 106.176 70.8745 106.143 70.4574C106.11 70.0814 105.971 69.7364 105.866 69.5253C106.194 68.6163 107.333 65.0552 106.413 61.3731C106.382 61.247 106.297 61.1362 106.184 61.0719C106.069 61.0075 105.932 60.9946 105.809 61.0332C105.678 61.0744 104.779 61.3706 104.046 61.901C104.021 61.8727 103.99 61.8469 103.957 61.8263C103.844 61.7542 103.702 61.7336 103.574 61.7697C103.458 61.8031 100.891 62.537 99.6941 64.2287C99.4166 64.0974 99.0158 63.8193 98.8437 63.2451C99.3884 62.9129 100.431 62.1276 100.835 60.8169C100.871 60.6985 100.861 60.5723 100.807 60.4616C100.732 60.3123 100.054 58.9733 99.468 58.4764C99.4141 58.43 99.355 58.3965 99.2882 58.3785C99.2599 58.3708 98.6124 58.1957 97.5796 58.1957C94.6814 58.1957 89.2371 59.5218 85.3318 68.4077C85.2573 68.5751 85.2881 68.7708 85.4063 68.9099C85.5271 69.0489 85.7146 69.1107 85.8893 69.0618L89.6431 68.0653C89.7536 68.037 89.8512 67.9674 89.9154 67.8722C91.0382 66.2088 92.644 66.0285 93.2863 66.0285C94.1881 66.0285 94.8741 66.3478 95.1336 66.7057C94.8125 67.1563 94.1573 68.1683 93.9081 69.2961C93.2015 69.8523 90.3907 72.3061 90.3702 76.1221C90.3548 79.0859 91.3362 81.4599 91.9246 82.8787C92.0993 83.2984 92.2946 83.7773 92.2997 83.9112C92.2997 84.1481 92.4744 84.349 92.7057 84.3824C93.2837 84.47 93.9107 84.6528 94.0854 84.7455C94.0391 85.966 93.9158 87.3461 93.7771 87.8843C92.9986 87.959 90.8249 88.1624 89.7304 88.1675C89.2474 88.2448 85.0749 88.9683 83.8313 90.9922L82.038 91.5252C81.6166 91.7235 79.5843 92.7277 79.0396 93.7963L77.9451 94.458L76.4318 93.9121L80.5118 90.9871C80.7225 90.9974 80.9332 90.9587 81.1182 90.866C81.7631 90.557 82.0354 89.7768 81.7245 89.1228C81.4162 88.4894 80.5992 88.2165 79.9903 88.5177C79.6999 88.6542 79.479 88.8988 79.3608 89.2001L73.9936 90.9407L73.9447 90.8866C74.0167 90.6806 74.0886 90.4849 74.0912 90.4824C74.1297 90.3794 74.1323 90.2635 74.0963 90.1579C73.9961 89.8721 73.8625 89.6687 73.7366 89.5297L73.8651 89.0687C73.8934 88.9632 73.8882 88.8525 73.8445 88.752C73.7623 88.5589 73.5516 88.3632 73.2202 88.1701L73.0994 87.6088C73.084 87.5367 73.0506 87.4697 73.0044 87.4105C72.8117 87.1711 72.5676 87.0191 72.3518 86.9239L72.5856 85.845C72.6087 85.7394 72.5959 85.6287 72.547 85.5308C72.1951 84.8202 71.5347 84.5652 70.9824 84.5652H70.9772C70.8462 84.573 70.7229 84.6348 70.6406 84.7352L70.34 85.0931L69.6258 85.0262L67.4188 81.0608L67.4033 80.3579C67.4008 80.1853 67.3031 80.0309 67.1516 79.9485L66.3679 79.5262C66.558 78.3675 66.0416 77.0723 66.0159 77.0131C65.9722 76.9075 65.8926 76.8199 65.7898 76.7659C64.1917 75.9496 63.5006 74.9119 63.4955 74.9016C63.4312 74.8012 63.331 74.7291 63.2154 74.6982L62.3804 74.4768C62.1517 74.4176 61.9128 74.5334 61.8203 74.7497L61.4786 75.5428C61.4323 75.6509 61.4272 75.7745 61.4657 75.8853C61.4709 75.8981 61.8563 77.0877 61.5068 78.8515C61.4837 78.9648 61.5043 79.0807 61.5608 79.1811C61.5916 79.2378 62.2879 80.448 63.3105 81.0119L63.1563 81.8925C63.1255 82.0624 63.1897 82.235 63.3233 82.3431L63.868 82.7937L65.813 87.3127L65.4044 88.1006C65.3787 88.1495 65.3633 88.2036 65.3556 88.2577L64.5925 94.0357C64.5848 94.095 64.5874 94.1568 64.6028 94.216C64.7339 94.731 64.9728 95.1944 65.3017 95.5781L62.8506 97.2235C62.5448 97.1308 62.2211 97.1514 61.9256 97.293C61.6096 97.4475 61.3758 97.7153 61.2628 98.0474C61.1523 98.377 61.1754 98.7298 61.3244 99.0362C61.625 99.6619 62.4523 99.9374 63.0561 99.6439C63.2462 99.5537 63.4055 99.4198 63.5314 99.2396L68.5107 97.7874L70.9721 98.8354C73.2664 103.699 79.0294 115.843 84.8257 127.417C84.9567 132.409 86.0409 137.5 88.0475 142.542C87.9422 143.466 87.3744 149.012 88.3841 152.2C86.9325 152.635 84.985 153.184 84.5199 153.217C84.2707 153.235 84.0806 153.444 84.0806 153.694C84.0806 153.858 84.1191 157.734 87.4515 159.806C89.0932 160.826 89.6611 161.382 89.8563 161.624L86.0358 164.794C86.0075 164.817 85.9895 164.845 85.9716 164.871C86.971 166.074 87.991 167.253 89.0316 168.412C91.9785 165.857 95.8094 164.3 100.002 164.3C104.196 164.3 108.016 165.852 110.96 168.399C112.073 167.155 113.167 165.891 114.236 164.598L110.85 162.157V162.168ZM91.308 105.324C90.7324 106.066 87.526 110.443 85.8405 117.612C83.4408 112.583 80.8227 107.191 78.0479 101.557L81.7733 101.266L82.5775 101.732C82.6418 101.768 82.7137 101.791 82.7882 101.796C82.7882 101.796 82.8422 101.802 82.9424 101.802C83.41 101.802 85.0518 101.714 86.5831 100.581C86.6447 100.537 86.6935 100.476 86.7269 100.409C86.7321 100.396 87.2947 99.2937 88.4175 98.91C89.3527 99.6181 91.3054 101.356 91.66 102.868L91.3105 105.327L91.308 105.324ZM70.9618 21.9591C70.8282 26.5656 70.692 31.1695 70.5584 35.7735C71.229 35.6859 71.8996 35.6009 72.5676 35.5186C72.8245 35.2096 73.0737 34.9006 73.3307 34.5916C73.4386 30.549 73.5465 26.5038 73.6518 22.4612C73.4155 22.2115 73.1791 21.9617 72.9453 21.7119C72.2824 21.7918 71.6247 21.8742 70.9618 21.9617V21.9591ZM162.917 18.8976C142.362 12.9135 121.168 9.92662 99.9767 9.93949C78.7981 9.92662 57.6169 12.9109 37.0806 18.8976C33.0546 49.0522 32.5099 129.747 83.69 177.184C84.2065 175.05 85.1263 173.077 86.3698 171.347C76.5397 160.484 68.4336 147.699 62.198 133.177C54.1869 114.524 49.1254 92.8719 47.1625 68.8172C46.6898 63.0133 46.402 56.9597 46.3018 50.816C70.8796 44.7727 96.2204 42.9574 121.261 45.3598C121.173 45.1538 121.094 44.9453 121.029 44.7367L120.919 44.3685C120.783 43.9153 120.904 43.4235 121.232 43.0862L121.5 42.8132C121.785 42.5223 124.382 39.9525 127.35 39.9525C129.133 39.9525 130.132 40.9722 130.793 41.6468C131.33 42.1927 131.502 42.3523 131.959 42.3523C132.098 42.3523 132.255 42.3369 132.429 42.306L132.635 42.2674C132.712 42.2545 132.787 42.2468 132.864 42.2468C133.067 42.2468 133.264 42.2957 133.444 42.3884L133.634 42.4862C133.799 42.5686 135.153 43.2819 136.165 44.8603L136.581 44.6569C136.771 44.5616 136.969 44.5178 137.165 44.5178C137.63 44.5178 138.074 44.7676 138.308 45.2053L139.736 47.9115C144.41 48.7561 149.065 49.7475 153.695 50.8907C153.593 56.8207 153.32 62.6863 152.868 68.3408C150.944 92.4753 145.908 114.21 137.897 132.942C131.648 147.56 123.511 160.417 113.632 171.337C114.876 173.067 115.798 175.037 116.317 177.172C167.48 129.732 166.948 49.0522 162.919 18.9001L162.917 18.8976ZM54.3873 24.534C53.7219 24.6731 53.0642 24.8121 52.4013 24.9589C52.1726 29.7482 51.9491 34.5401 51.723 39.3294C52.3936 39.1801 53.0667 39.0359 53.7373 38.8942C53.6962 39.8444 53.6474 40.7919 53.6088 41.7447C51.1346 42.2699 48.663 42.839 46.2016 43.4518C46.2504 42.4991 46.3018 41.5438 46.3506 40.5911C47.0186 40.4263 47.6866 40.2641 48.3572 40.1044C48.5987 35.3048 48.8403 30.5078 49.0818 25.7108C48.4189 25.8653 47.7612 26.0223 47.1034 26.1845C47.1522 25.2318 47.2036 24.2791 47.2524 23.3264C49.6676 22.7393 52.0904 22.1909 54.5184 21.6862C54.4773 22.6363 54.431 23.5865 54.3899 24.534H54.3873ZM64.8829 39.6538C63.922 39.8058 62.9636 39.9628 62.0027 40.1302C60.8696 36.3425 59.752 32.56 58.6498 28.7878C58.4828 32.802 58.3209 36.8137 58.1565 40.828C57.157 41.0185 56.1576 41.2168 55.1581 41.4202C55.451 34.7384 55.7439 28.0565 56.0368 21.3746C56.972 21.1867 57.9124 21.0064 58.8476 20.8287C59.9421 24.5392 61.0521 28.2548 62.1774 31.9781C62.3239 28.0359 62.4703 24.0963 62.6219 20.1567C63.6034 19.9893 64.5874 19.8297 65.5714 19.6778C65.3428 26.3339 65.1115 32.9926 64.8803 39.6538H64.8829ZM76.7093 35.6859C75.9462 36.5717 75.1857 37.46 74.4226 38.3535C71.9638 38.6342 69.505 38.956 67.0539 39.3191C67.2697 32.6656 67.4856 26.012 67.7039 19.3585C70.1062 19.0083 72.5162 18.6993 74.9262 18.4315C75.6353 19.1602 76.3445 19.8915 77.0561 20.6228C76.9405 25.6438 76.8249 30.6649 76.7093 35.6885V35.6859ZM84.5919 31.3575C84.5585 33.384 84.5276 35.4104 84.4968 37.4394C83.3612 37.5167 82.2281 37.6016 81.0899 37.6969C81.1285 35.6679 81.1696 33.6414 81.2055 31.6124C80.0648 27.1089 78.9446 22.6132 77.8423 18.1251C79.0114 18.0092 80.1907 17.9037 81.3623 17.8084C81.9198 20.8442 82.4876 23.88 83.0554 26.9184C83.7954 23.7822 84.5251 20.6511 85.2496 17.5251C86.321 17.4582 87.3898 17.3964 88.4612 17.3423C87.1894 22.0029 85.8971 26.6738 84.5919 31.3601V31.3575ZM93.4276 37.0171C93.4739 30.3945 93.515 23.7719 93.5587 17.1466C96.2025 17.0771 98.8386 17.0565 101.48 17.0823C101.48 18.1663 101.48 19.2503 101.485 20.3369C99.9588 20.3215 98.4429 20.3241 96.9193 20.3369C96.9141 21.9591 96.9064 23.5813 96.9039 25.2035C98.2913 25.1881 99.6787 25.1855 101.071 25.1984C101.071 26.2824 101.076 27.369 101.071 28.453C99.6787 28.4401 98.2861 28.4427 96.891 28.4582C96.8859 30.204 96.8756 31.9523 96.873 33.6981C98.4352 33.6801 99.9921 33.6801 101.554 33.6981C101.554 34.7821 101.554 35.8662 101.559 36.9502C98.8488 36.9219 96.1382 36.945 93.4251 37.0171H93.4276ZM103.885 36.9862C103.859 30.3636 103.836 23.741 103.808 17.1183C104.933 17.1415 106.056 17.1724 107.178 17.2136C107.22 22.7522 107.261 28.2934 107.302 33.832C108.612 33.8809 109.925 33.9401 111.233 34.0097C111.248 35.0937 111.258 36.1803 111.271 37.2669C108.815 37.133 106.349 37.0403 103.887 36.9888L103.885 36.9862ZM112.759 37.3519C112.677 30.7241 112.592 24.0963 112.507 17.4685C115.143 17.6281 117.782 17.8341 120.41 18.0865C120.431 19.1731 120.459 20.2597 120.48 21.3463C118.964 21.1995 117.443 21.0682 115.927 20.9523C115.95 22.5771 115.978 24.1993 116.004 25.8241C117.389 25.9296 118.779 26.0481 120.158 26.1794C120.182 27.266 120.205 28.3526 120.225 29.4392C118.838 29.3053 117.44 29.1869 116.058 29.0813C116.086 30.8297 116.114 32.578 116.143 34.3289C117.695 34.45 119.254 34.5839 120.809 34.7384C120.834 35.825 120.857 36.9116 120.875 37.9982C118.175 37.7304 115.467 37.5141 112.759 37.3493V37.3519ZM129.87 39.0745C128.211 38.8427 126.551 38.629 124.889 38.4333C123.856 31.6897 122.841 24.9563 121.844 18.2307C122.98 18.3491 124.118 18.4753 125.253 18.6092C125.962 24.2791 126.672 29.9542 127.401 35.6318C127.83 30.101 128.249 24.5727 128.66 19.0418C129.716 19.1834 130.772 19.3353 131.826 19.4924C131.191 26.0197 130.541 32.5471 129.873 39.0745H129.87ZM133.735 39.6513C133.514 32.9951 133.293 26.3365 133.069 19.6803C135.687 20.0872 138.3 20.5429 140.903 21.045C140.947 22.1394 140.995 23.2311 141.039 24.3255C139.536 24.0371 138.036 23.7616 136.527 23.5015C136.586 25.134 136.648 26.7665 136.707 28.3964C138.082 28.6333 139.454 28.8856 140.823 29.1482C140.867 30.2426 140.913 31.3343 140.957 32.4261C139.582 32.1609 138.208 31.9085 136.828 31.6716C136.892 33.4303 136.956 35.1864 137.021 36.945C138.567 37.2128 140.104 37.4986 141.643 37.7999C141.687 38.8942 141.733 39.986 141.779 41.0803C139.104 40.5551 136.422 40.0761 133.737 39.6513H133.735ZM150.874 43.0733C149.402 38.7346 147.943 34.4165 146.499 30.1164C146.684 34.1384 146.869 38.163 147.054 42.1875C146.059 41.9661 145.063 41.7524 144.063 41.5438C143.773 34.8619 143.485 28.1801 143.2 21.4982C144.135 21.6888 145.07 21.887 146.003 22.0879C147.439 26.3159 148.883 30.5593 150.337 34.8233C150.142 30.8606 149.944 26.9004 149.751 22.9376C150.728 23.1668 151.696 23.4036 152.67 23.6483C153.017 30.3585 153.369 37.0686 153.718 43.7788C152.77 43.5368 151.822 43.3025 150.877 43.0733H150.874Z" fill="#0A2240"/>
<path d="M109.447 165.116C109.447 165.116 109.424 165.111 109.411 165.106C108.949 164.789 108.484 164.501 108.031 164.248C108.016 164.241 108.006 164.228 108.001 164.21C107.995 164.194 108.001 164.176 108.006 164.161C108.155 163.906 108.342 163.739 108.584 163.646C108.592 163.646 108.599 163.643 108.604 163.643C108.615 163.643 108.625 163.643 108.633 163.648L109.157 163.919L110.146 164.38C110.166 164.387 110.179 164.408 110.182 164.431C110.184 164.454 110.174 164.472 110.156 164.488C109.979 164.619 109.683 164.897 109.486 165.098C109.473 165.111 109.457 165.116 109.442 165.116H109.447ZM91.5212 164.506C91.5032 164.506 91.4878 164.498 91.4749 164.485L91.2103 164.194L90.8069 163.587C90.7941 163.569 90.7941 163.548 90.8018 163.53C90.8095 163.512 90.8249 163.496 90.8455 163.491L91.4929 163.347C91.4929 163.347 91.4929 163.314 91.4929 163.288V163.27C91.5032 163.151 91.5161 162.951 91.4595 162.757C91.4544 162.739 91.4595 162.721 91.4647 162.709C91.4749 162.693 91.4878 162.68 91.5058 162.678L92.1584 162.549L92.3434 162.024C92.3511 162 92.3768 161.982 92.4025 161.982C92.405 161.982 92.4076 161.982 92.4102 161.982L92.9292 162.057L93.0782 161.606C93.0859 161.583 93.1039 161.568 93.127 161.563L93.8233 161.449L93.1732 159.001L91.7319 158.918C91.719 158.918 91.7036 158.911 91.6933 158.9C90.5911 157.857 89.6662 155.88 89.4092 155.298C89.399 155.275 89.4041 155.249 89.4195 155.231C89.4324 155.218 89.4478 155.21 89.4658 155.21C89.4735 155.21 89.4812 155.21 89.4863 155.213L90.7299 155.656C90.8686 154.42 89.6276 153.534 89.2448 153.29C89.2243 153.277 89.2114 153.251 89.2165 153.223C89.2217 153.199 89.2422 153.179 89.2679 153.174C89.399 153.153 89.5377 153.14 89.679 153.14C91.5546 153.14 93.9646 155.059 93.9877 155.079C93.9877 152.167 91.4904 147.465 91.4647 147.419L89.9437 145.897C89.9282 145.882 89.9231 145.858 89.9282 145.838L90.7067 142.645C90.7144 142.617 90.7401 142.599 90.7684 142.599H90.7735C90.8044 142.599 90.8275 142.627 90.8301 142.655C90.8969 143.775 91.1692 145.078 91.1795 145.135C92.4102 145.946 93.4225 147.702 93.5329 147.9C93.5355 147.905 93.5381 147.911 93.5381 147.916C94.0391 149.981 96.1665 152.028 96.408 152.254C96.4183 152.265 96.426 152.28 96.426 152.296C96.6392 155.553 98.8796 158.195 98.9027 158.22C100.473 158.941 101.963 161.305 102.533 162.286C102.546 162.307 102.546 162.333 102.533 162.353C102.52 162.371 102.502 162.382 102.482 162.382H102.474C101.965 162.302 101.428 162.25 100.876 162.219C100.868 162.219 100.858 162.219 100.853 162.212C100.47 162.016 100.185 161.833 100.108 161.779C100.095 161.771 100.087 161.758 100.082 161.743C99.4423 159.526 95.984 157.803 95.5909 157.615C95.5781 157.61 95.5704 157.603 95.5627 157.59C94.5555 155.715 92.0196 154.927 91.9939 154.919C90.7941 156.367 92.5052 158.241 92.5206 158.259L93.7025 158.378C93.7256 158.378 93.7462 158.396 93.7539 158.416L94.6377 160.662C95.298 160.589 95.9558 159.892 96.0791 159.753C96.0894 159.74 96.1074 159.732 96.1254 159.732H96.1382C98.3298 160.198 99.1263 161.676 99.319 162.119C99.3267 162.137 99.3241 162.158 99.3164 162.176C99.3061 162.194 99.2856 162.204 99.2676 162.206C99.1905 162.212 99.116 162.217 99.0389 162.219H98.9439C97.8005 162.219 96.6495 162.412 95.5216 162.794C94.1316 163.18 92.7956 163.749 91.552 164.485C91.5417 164.49 91.5315 164.493 91.5212 164.493V164.506ZM107.248 163.854C107.248 163.854 107.23 163.854 107.22 163.849C106.341 163.427 105.444 163.084 104.555 162.832C104.532 162.827 104.514 162.806 104.512 162.783C104.506 162.76 104.517 162.734 104.537 162.721C104.874 162.495 105.501 162.201 106.598 162.091C106.603 162.091 106.608 162.091 106.613 162.091C106.631 162.091 106.647 162.098 106.657 162.109L107.076 162.551L108.008 163.182C108.024 163.195 108.037 163.216 108.034 163.236C108.034 163.257 108.021 163.278 108.003 163.29C107.759 163.432 107.494 163.636 107.291 163.839C107.281 163.852 107.263 163.857 107.248 163.857V163.854ZM107.14 161.64C107.14 161.64 107.124 161.64 107.119 161.637C106.369 161.372 104.835 161.099 104.663 161.071C104.65 161.068 104.64 161.063 104.63 161.053C103.715 160.159 103.427 158.017 103.358 157.381C103.358 157.355 103.371 157.33 103.394 157.319C103.402 157.314 103.412 157.314 103.42 157.314C103.435 157.314 103.45 157.319 103.463 157.332L106.883 160.649C107.178 159.119 105.357 157.814 104.989 157.566C104.974 157.556 104.964 157.541 104.961 157.525C104.961 157.507 104.964 157.489 104.977 157.476C105.452 156.93 106.282 156.817 106.896 156.817C107.225 156.817 107.482 156.851 107.554 156.861C107.569 156.864 107.582 156.871 107.592 156.882C108.011 157.363 108.27 157.935 108.368 158.581C108.368 158.699 108.36 158.818 108.345 158.959C108.345 158.988 108.322 159.008 108.296 159.016C108.291 159.016 108.288 159.016 108.283 159.016C108.26 159.016 108.24 159.003 108.229 158.983C107.774 158.12 106.726 157.484 106.683 157.458L107.898 159.835C107.898 159.835 107.903 159.85 107.903 159.856C107.934 160.121 107.862 160.522 107.7 161.019C107.7 161.025 107.697 161.03 107.692 161.035C107.484 161.344 107.299 161.527 107.181 161.63C107.168 161.64 107.155 161.645 107.142 161.645L107.14 161.64ZM108.648 156.434C108.625 156.434 108.602 156.418 108.594 156.395C107.924 154.778 107.099 152.8 106.68 151.84C106.151 150.622 105.878 147.424 105.786 146.103C105.786 146.072 105.806 146.044 105.837 146.039C105.84 146.039 105.845 146.039 105.848 146.039C105.876 146.039 105.901 146.059 105.907 146.088C106.246 147.447 107.114 150.728 107.816 151.842C108.276 152.581 108.861 154.114 109.27 155.27C109.275 155.288 109.275 155.303 109.27 155.319C109.062 155.733 108.866 156.109 108.705 156.4C108.692 156.418 108.671 156.431 108.651 156.431H108.648V156.434ZM98.6433 147.931C98.6176 147.931 98.5919 147.913 98.5842 147.887L96.8088 142.614L95.835 135.124C95.835 135.124 95.835 135.111 95.835 135.106C95.9044 134.683 97.5385 124.742 97.3766 122.965C97.3252 122.898 96.0688 121.309 95.0437 120.823C95.0231 120.812 95.0103 120.792 95.0077 120.769C95.0077 120.745 95.0206 120.722 95.0385 120.712C95.1465 120.65 95.3135 120.534 95.519 120.38C95.5164 120.344 95.1747 116.664 94.8536 115.14C94.6454 114.146 92.7211 110.513 91.1461 107.637C91.1358 107.619 91.1358 107.593 91.1461 107.575C91.4775 107.044 91.7473 106.648 91.9143 106.411C91.9246 106.393 91.9451 106.385 91.9657 106.385C91.9862 106.385 92.0042 106.395 92.0171 106.413C92.7288 107.523 93.7719 108.939 94.7945 109.55C94.851 109.583 94.8741 109.429 94.8741 109.429L93.0242 105.067C93.0114 105.038 93.0242 105.008 93.0499 104.99C93.0602 104.984 93.0705 104.979 93.0807 104.979C93.0987 104.979 93.1167 104.987 93.1296 105.002C93.9132 105.971 95.7836 108.455 96.2358 110.657C96.7831 113.325 101.03 127.886 101.21 128.504C101.218 128.524 101.21 128.547 101.197 128.563C101.184 128.576 101.169 128.583 101.151 128.583C101.146 128.583 101.143 128.583 101.138 128.583C100.95 128.547 100.455 128.462 99.951 128.462C99.1109 128.462 98.5944 128.694 98.4531 129.134L98.9182 130.947C98.9182 130.947 98.9182 130.957 98.9182 130.963L98.6998 147.869C98.6998 147.9 98.6767 147.926 98.6458 147.931H98.6355H98.6433ZM95.7066 143.466C95.6834 143.466 95.6603 143.453 95.65 143.433L77.6059 106.692L87.8445 129.868C87.8574 129.899 87.8445 129.935 87.8137 129.951C87.806 129.953 87.7957 129.956 87.788 129.956C87.7649 129.956 87.7418 129.943 87.7315 129.92L71.3112 96.4667C71.3035 96.4512 71.3035 96.4332 71.3086 96.4177C71.3138 96.4023 71.324 96.3894 71.3395 96.3817L73.5542 95.3054C73.5542 95.3054 73.5619 95.3028 73.5645 95.3002L73.7238 95.259C73.7238 95.259 73.734 95.259 73.7392 95.259C73.7623 95.259 73.7854 95.2719 73.7931 95.2951C74.3404 96.41 82.1716 112.537 85.4243 119.363C85.5193 119.566 95.0283 139.704 95.7631 143.392C95.7682 143.423 95.7528 143.453 95.722 143.464C95.7168 143.464 95.7091 143.464 95.7014 143.464L95.7066 143.466ZM106.176 138.481C106.164 138.481 106.151 138.476 106.138 138.468C106.12 138.453 106.11 138.427 106.115 138.404L106.564 136.522C106.567 136.509 106.577 136.496 106.587 136.486C106.749 136.36 108.178 135.229 108.504 134.096C108.512 134.071 108.535 134.05 108.563 134.05C108.563 134.05 108.568 134.05 108.571 134.05C108.602 134.052 108.625 134.078 108.627 134.109C108.684 135.216 108.443 137.256 106.207 138.471C106.197 138.476 106.187 138.479 106.176 138.479V138.481ZM114.473 138.373C114.473 138.373 114.465 138.373 114.46 138.373C114.429 138.365 114.408 138.337 114.411 138.306C114.542 137.109 114.732 134.936 114.534 133.813L109.121 131.055C109.121 131.055 107.25 131.096 107.248 131.096C107.232 131.096 107.217 131.089 107.204 131.078C107.017 130.893 102.656 126.482 101.585 121.688C101.58 121.665 101.585 121.639 101.608 121.626C101.618 121.618 101.631 121.613 101.647 121.613C101.657 121.613 101.665 121.616 101.675 121.621L102.965 122.308C102.965 122.308 102.985 122.324 102.99 122.332L105.061 125.975C105.077 125.99 106.598 127.458 108.288 127.458C109.242 127.458 110.074 126.997 110.757 126.088L103.918 120.671C103.918 120.671 103.91 120.663 103.905 120.658C103.656 120.292 97.7825 111.653 96.7934 108.252C96.7857 108.226 96.7934 108.2 96.8165 108.185C96.8268 108.177 96.8396 108.172 96.8525 108.172C96.8653 108.172 96.8756 108.175 96.8884 108.182C97.2995 108.461 98.2938 109.166 98.6458 109.73C98.651 109.735 98.651 109.743 98.6535 109.748C98.6844 109.895 99.4603 113.335 102.102 113.335C102.466 113.335 102.854 113.27 103.258 113.142C102.983 112.846 96.4902 105.927 94.0314 104.204C94.0057 104.186 93.998 104.153 94.0108 104.127C94.0211 104.104 94.0442 104.091 94.0674 104.091C94.0751 104.091 94.0802 104.091 94.0879 104.096L95.2287 104.48C95.2287 104.48 95.3571 104.48 95.3109 104.426C95.1387 104.209 94.7559 103.743 94.4527 103.439C94.4322 103.419 94.4296 103.385 94.445 103.362C94.4579 103.344 94.4759 103.334 94.4964 103.334C94.5041 103.334 94.5118 103.334 94.5196 103.339C95.537 103.746 99.0107 105.072 100.984 105.072C101.079 105.072 101.135 104.995 100.974 104.91C100.018 104.405 96.9578 102.827 95.6603 102.541C95.6321 102.533 95.6115 102.51 95.6115 102.482C95.6115 102.453 95.6295 102.428 95.6577 102.42C95.9712 102.34 96.5827 102.209 97.1659 102.209C97.3715 102.209 97.559 102.224 97.7234 102.258L98.5045 101.64C98.5045 101.64 98.5276 101.627 98.543 101.627C99.0466 101.642 103.06 101.786 105.118 102.816C105.388 102.95 105.616 103.051 105.208 102.755C104.339 102.129 102.489 101.117 99.3344 100.847C99.301 100.844 99.2779 100.818 99.2779 100.785C99.2779 100.754 99.3036 100.726 99.3344 100.723C99.9562 100.664 100.945 100.592 102.107 100.592C104.691 100.592 108.281 100.942 110.693 102.616C110.75 102.652 112.163 103.571 113.124 105.991C113.129 106.002 113.129 106.012 113.129 106.025C112.787 108.157 112.592 109.946 112.548 111.344C112.44 114.983 115.878 128.9 116.024 129.49C116.024 129.495 116.024 129.5 116.024 129.503C116.027 129.796 116.048 132.513 115.202 136.99C115.202 136.998 115.197 137.006 115.192 137.014C114.917 137.428 114.701 137.858 114.532 138.332C114.524 138.358 114.498 138.373 114.473 138.373ZM96.6803 105.1L101.868 110.801L101.852 109.297L98.5045 106.429C98.4891 106.416 98.4814 106.395 98.484 106.375C98.484 106.354 98.4968 106.336 98.5148 106.326C98.6664 106.238 99.0646 106.038 99.7095 105.88C99.7994 105.86 99.8688 105.798 99.7095 105.767C99.0877 105.656 97.6181 105.373 96.7754 105.01C96.6521 104.956 96.6777 105.098 96.6777 105.098L96.6803 105.1ZM104.905 137.204C104.332 137.204 103.671 136.663 103.414 136.432C103.396 136.416 103.389 136.39 103.396 136.367C103.404 136.344 103.425 136.326 103.448 136.324C103.903 136.257 105.416 135.963 105.765 134.982C105.776 134.956 105.799 134.941 105.824 134.941C105.824 134.941 105.83 134.941 105.832 134.941C105.86 134.943 105.884 134.969 105.886 134.997C105.935 135.52 105.94 136.481 105.429 136.99C105.287 137.132 105.11 137.204 104.905 137.204ZM104.129 134.364C104.129 134.364 104.111 134.364 104.1 134.356C103.736 134.166 102.803 133.705 102.045 133.571C102.027 133.568 102.009 133.553 101.999 133.535L100.676 130.489C100.668 130.468 100.67 130.442 100.683 130.427C100.694 130.412 100.712 130.404 100.732 130.404C100.735 130.404 100.74 130.404 100.742 130.404C101.089 130.463 101.94 130.643 102.33 131.03C102.335 131.035 102.338 131.04 102.34 131.045L104.18 134.269C104.193 134.292 104.188 134.323 104.17 134.343C104.157 134.356 104.142 134.364 104.124 134.364H104.129ZM104.861 133.411C104.838 133.411 104.817 133.398 104.807 133.378C104.396 132.613 102.317 128.637 101.688 125.584C101.683 125.553 101.698 125.522 101.726 125.512C101.734 125.512 101.742 125.512 101.747 125.512C101.77 125.512 101.791 125.524 101.803 125.545C102.469 126.82 104.709 131.037 105.639 131.828C105.663 131.846 105.668 131.877 105.655 131.902L104.92 133.38C104.91 133.401 104.889 133.414 104.866 133.414L104.861 133.411ZM92.1738 130.067C92.1455 130.067 92.1224 130.049 92.1147 130.02C91.7447 128.643 89.9077 121.587 90.0567 117.993C90.0516 117.967 89.5968 115.184 88.4381 113.126C88.4278 113.108 88.4278 113.09 88.4355 113.072C89.0238 111.553 89.6996 110.106 90.4421 108.772C90.4524 108.752 90.4729 108.739 90.496 108.739C90.496 108.739 90.4986 108.739 90.5012 108.739C90.5269 108.739 90.5474 108.757 90.5551 108.78C91.1795 110.647 92.1609 113.134 93.2966 114.388C93.3068 114.398 93.312 114.411 93.312 114.427C93.3274 114.88 93.6614 125.55 92.2355 130.02C92.2277 130.046 92.2021 130.061 92.1764 130.061L92.1738 130.067ZM112.587 101.83C112.587 101.83 112.564 101.828 112.553 101.822C111.562 101.228 108.049 99.2913 104.524 99.2913C103.913 99.2913 103.324 99.348 102.77 99.4638C102.77 99.4638 100.177 99.7548 100.175 99.7548C100.146 99.7548 100.121 99.7368 100.113 99.7085C100.105 99.6776 100.121 99.6467 100.149 99.6364L102.543 98.6553C102.543 98.6553 102.556 98.6502 102.564 98.6502C102.636 98.6476 102.901 98.6321 103.307 98.6321C104.224 98.6321 106.043 98.7017 107.913 99.1703C109.989 99.6904 111.577 100.55 112.63 101.73C112.651 101.753 112.651 101.786 112.63 101.812C112.618 101.828 112.602 101.835 112.584 101.835L112.587 101.83ZM113.499 101.604C113.481 101.604 113.463 101.596 113.453 101.583C112.268 100.236 109.614 97.973 105.128 97.973C104.995 97.973 104.861 97.973 104.725 97.9781C104.694 97.9781 104.668 97.9549 104.663 97.9241C104.661 97.8932 104.681 97.8623 104.712 97.8545L106.117 97.5275L106.143 97.4477L103.861 97.0383C103.838 97.0409 101.685 97.3576 100.236 98.4751C100.223 98.4828 100.211 98.488 100.198 98.488C100.187 98.488 100.177 98.4854 100.167 98.4802C100.144 98.4674 100.131 98.4442 100.136 98.4184L100.211 97.8674C100.211 97.8674 100.198 97.7824 100.157 97.8005C99.6941 97.9961 96.9398 99.2192 94.7431 101.243C94.7302 101.253 94.7174 101.259 94.702 101.259C94.6866 101.259 94.6711 101.253 94.6583 101.241C94.6352 101.217 94.6326 101.179 94.6532 101.156C95.4471 100.236 96.6187 98.9823 97.8134 98.076C97.8982 98.0116 97.9161 97.9601 97.8314 97.9961C97.2404 98.2588 96.3746 98.5858 95.6603 98.8587C95.4394 98.9437 95.2389 99.021 95.0591 99.0879C95.0514 99.0905 95.0437 99.0931 95.0385 99.0931C95.0154 99.0931 94.9923 99.0802 94.982 99.0596C94.9666 99.0313 94.9769 98.9952 95.0051 98.9798L98.5251 96.8168L109.809 90.7684C109.809 90.7684 109.843 90.6809 109.799 90.6963C108.175 91.2113 101.58 93.3227 100.015 94.0771C100.008 94.0823 99.9973 94.0823 99.987 94.0823C99.9793 94.0823 99.9716 94.0823 99.9639 94.0797L99.08 93.7398C99.0595 93.7321 99.0415 93.7115 99.0415 93.6883C99.0415 93.6652 99.0518 93.642 99.0723 93.6291C99.7943 93.1914 102.222 91.7546 103.206 91.6876L104.558 90.7015L104.476 90.6654L102.638 91.2782C102.597 91.2885 98.913 92.2052 97.9855 93.091C97.9727 93.1013 97.9573 93.109 97.9418 93.109C97.9393 93.109 97.9367 93.109 97.9316 93.109C97.4973 93.0395 93.6537 92.4009 92.8058 91.1881C92.7622 91.201 91.7756 91.5177 91.4133 92.2078C91.403 92.2284 91.3799 92.2412 91.3568 92.2412C91.3542 92.2412 91.3491 92.2412 91.3465 92.2412C91.3182 92.2361 91.3002 92.2155 91.2951 92.1872C91.2257 91.6233 90.9457 90.2251 89.7869 89.4681C89.7638 89.4526 89.7535 89.4243 89.7612 89.3986C89.7689 89.3728 89.7921 89.3548 89.8203 89.3522C91.0536 89.3187 93.4559 89.069 94.165 88.9943L94.5016 88.9582L94.6711 88.6982C94.684 88.675 94.7251 88.5437 94.7713 88.4046C94.7919 88.3428 94.8125 88.2733 94.8279 88.2296C94.8356 88.2038 94.8613 88.1884 94.887 88.1884C94.8921 88.1884 94.8947 88.1884 94.8998 88.1884C94.9795 88.2038 95.0642 88.2347 95.1542 88.2682C95.3212 88.33 95.5113 88.3995 95.7528 88.3995C95.8864 88.3995 96.02 88.3763 96.1639 88.3325C96.1896 88.2991 96.7728 87.5189 96.7446 86.6537C96.7446 86.6305 96.7574 86.6074 96.778 86.5971C96.7857 86.5919 96.7959 86.5919 96.8062 86.5919C96.8191 86.5919 96.8345 86.5971 96.8448 86.6048C97.1942 86.8803 98.1217 87.524 99.1931 87.524C99.3061 87.524 99.4192 87.5163 99.5297 87.5009L98.4043 85.5645C98.3812 85.5465 97.8185 85.1088 97.4357 84.8693C97.4126 84.8539 97.4023 84.8281 97.4074 84.8024C97.4126 84.7766 97.4357 84.756 97.464 84.756C97.523 84.7509 97.5976 84.7483 97.6798 84.7483C98.0086 84.7483 98.5225 84.7946 99.1032 85.0187C99.116 85.0238 99.1263 85.0315 99.134 85.0444L100.555 87.4391C100.57 87.4313 102.035 86.7232 103.014 85.2916C103.026 85.2736 103.044 85.2658 103.065 85.2658C103.068 85.2658 103.073 85.2658 103.078 85.2658C103.104 85.271 103.122 85.2916 103.127 85.3148L103.53 87.4931C103.535 87.5215 103.52 87.5498 103.494 87.5601L102.926 87.833C102.926 87.833 102.908 87.8382 102.901 87.8382C102.795 87.833 102.233 87.8124 101.521 87.8124C100.491 87.8124 99.1391 87.8588 98.3658 88.0699C98.3118 88.0828 98.3067 88.124 98.4249 88.1369C99.152 88.2115 101.547 88.4613 102.605 88.7111C102.618 88.7111 104.095 88.4407 105.349 88.227C105.352 88.227 105.357 88.227 105.359 88.227C105.365 88.227 105.37 88.227 105.375 88.227C105.963 88.3686 106.59 88.5205 106.916 88.5978L106.991 88.6132L107.148 88.6209C107.841 88.6209 109.319 87.9695 111.798 86.767C111.806 86.7644 111.813 86.7619 111.821 86.7619C111.919 86.7567 112.014 86.7541 112.106 86.7541C112.89 86.7541 113.489 86.9627 113.843 87.3618C113.864 87.385 113.889 87.3541 113.859 87.2459C113.789 87.0065 113.614 86.5765 113.209 86.2108C113.193 86.198 113.185 86.1774 113.188 86.1568C113.188 86.1362 113.203 86.1181 113.221 86.1104C113.743 85.822 114.719 85.2633 115.721 84.6659L115.804 84.617L115.988 84.4135C116.001 84.4007 116.017 84.393 116.035 84.393C116.035 84.393 116.04 84.393 116.042 84.393C116.872 84.4908 117.985 84.8616 118.648 86.0563C118.673 86.1053 118.725 86.1181 118.715 85.9842C118.661 85.4023 118.391 83.8419 117.029 83.3965C117.009 83.3887 116.993 83.3733 116.988 83.3527C116.983 83.3321 116.988 83.3089 117.001 83.2935L118.206 81.9674C118.219 81.9545 118.234 81.9468 118.252 81.9468C118.255 81.9468 118.26 81.9468 118.262 81.9468C118.617 82.0009 121.744 82.5673 122.635 85.889C122.64 85.9121 122.635 85.9379 122.612 85.9533L121.834 86.5687C121.834 86.5687 121.808 86.5816 121.795 86.5816C121.79 86.5816 121.785 86.5816 121.78 86.5816C121.762 86.5765 121.746 86.5636 121.739 86.5456C121.479 85.9405 120.808 84.5088 120.025 83.9346C119.991 83.9114 119.95 83.9217 119.979 83.9913C120.174 84.4779 120.855 86.2804 120.713 87.4313C120.713 87.4468 120.703 87.4622 120.69 87.4725L116.641 90.6731C116.644 90.6963 116.723 91.2345 116.531 92.2232C116.528 92.2464 116.51 92.2644 116.487 92.2721C116.482 92.2721 116.477 92.2721 116.469 92.2721C116.451 92.2721 116.436 92.2644 116.423 92.2515L115.577 91.322L114.645 92.3417C114.627 92.3571 113.599 93.1631 113.075 94.2291C113.065 94.2497 113.044 94.2651 113.021 94.2651C113.016 94.2651 113.008 94.2651 113.003 94.2625C112.972 94.2522 112.954 94.2239 112.959 94.193L113.509 90.5547H113.419L111.551 92.509C111.538 92.5219 111.523 92.5271 111.505 92.5271C111.495 92.5271 111.485 92.5271 111.474 92.5193L110.745 92.097C110.683 92.1254 104.661 94.8213 100.321 96.8426C100.244 96.8786 100.362 96.9018 100.362 96.9018L103.389 96.3688L104.458 95.7251C104.458 95.7251 104.478 95.7174 104.488 95.7148C104.537 95.7148 104.681 95.7122 104.899 95.7122C105.955 95.7122 109.514 95.7663 111.012 96.4744C111.04 96.4873 111.053 96.5182 111.045 96.5491C111.037 96.5748 111.012 96.5928 110.986 96.5928C110.986 96.5928 110.981 96.5928 110.978 96.5928C110.346 96.5104 108.715 96.3173 107.235 96.3173C106.061 96.3173 105.218 96.4358 104.722 96.6675C104.676 96.6907 104.727 96.755 104.727 96.755L107.232 97.1258L108.078 96.8091C108.078 96.8091 108.091 96.804 108.098 96.804C108.106 96.804 108.116 96.804 108.126 96.8117C108.491 96.9945 111.736 98.6837 113.566 101.508C113.584 101.537 113.576 101.573 113.55 101.593C113.54 101.601 113.527 101.606 113.512 101.606L113.499 101.604ZM78.8572 97.991C78.8572 97.991 78.8443 97.991 78.8366 97.9884L75.1703 96.7731C75.1549 96.7679 75.142 96.755 75.1343 96.7422C74.6436 95.756 74.3327 95.1329 74.2453 94.9629C74.2325 94.9346 74.2402 94.9011 74.2633 94.8857L74.7489 94.5381C74.7489 94.5381 74.772 94.5252 74.7849 94.5252C74.7926 94.5252 74.7977 94.5252 74.8054 94.5303L78.0736 95.7122C79.407 94.95 80.1341 94.5303 80.2934 94.4248C80.3037 94.417 80.314 94.4145 80.3268 94.4145C80.3345 94.4145 80.3397 94.4145 80.3474 94.417C82.1947 95.0659 82.2743 96.5671 82.2718 96.8606C82.2718 96.8864 82.2538 96.9121 82.2281 96.9198L78.8726 97.991C78.8726 97.991 78.8598 97.9936 78.8546 97.9936L78.8572 97.991ZM84.8462 97.9344C84.8462 97.9344 84.8385 97.9344 84.8333 97.9344C84.8025 97.9266 84.782 97.9009 84.7845 97.87C84.8719 96.5362 84.1217 95.5114 83.8133 95.1483C83.7363 95.0582 83.7337 95.1535 83.7542 95.2256C83.9906 96.0495 83.8262 96.6778 83.6977 96.9894C83.6874 97.0125 83.6643 97.028 83.6412 97.028C83.6361 97.028 83.6335 97.028 83.6284 97.028C83.6001 97.0228 83.5795 96.9971 83.577 96.9688C83.5359 95.3801 82.4285 94.4119 81.9532 94.0668C81.9301 94.0488 81.9223 94.0205 81.9326 93.9922C81.9429 93.969 81.966 93.9536 81.9891 93.9536C81.9917 93.9536 81.9943 93.9536 81.9969 93.9536C83.2507 94.1389 84.2116 94.5664 84.2219 94.5715C84.1473 93.9613 84.0189 93.5673 83.9521 93.3871C83.9444 93.3639 83.9495 93.3382 83.9649 93.3227C83.9752 93.3098 83.9932 93.3047 84.0112 93.3047C84.0163 93.3047 84.024 93.3047 84.0292 93.3073C85.5142 93.8068 85.7557 95.0479 85.7686 95.7431C85.7686 95.7714 85.7506 95.7998 85.7197 95.8049C85.7172 95.8049 85.712 95.8049 85.7069 95.8049C85.6838 95.8049 85.6607 95.7895 85.6504 95.7663C85.5322 95.4933 85.3344 95.2153 85.1956 95.0324C85.1083 94.9191 85.0903 94.95 85.1134 95.0067C85.4911 95.9491 85.1494 97.2031 84.9027 97.8906C84.8924 97.9163 84.8693 97.9318 84.8436 97.9318L84.8462 97.9344ZM86.9556 95.8229C86.9299 95.8229 86.9093 95.8075 86.899 95.7843C86.6832 95.2874 86.064 94.0308 84.9824 93.1013C84.5482 92.7279 83.9906 92.5374 83.3303 92.5374C83.2018 92.5374 83.0657 92.5451 82.9321 92.558C82.9321 92.558 82.9269 92.558 82.9244 92.558C82.8961 92.558 82.8704 92.5374 82.8627 92.509C82.8576 92.4781 82.8756 92.4447 82.9064 92.4369L84.5867 91.9529C84.5867 91.9529 84.597 91.9529 84.6047 91.9529C84.6098 91.9529 84.615 91.9529 84.6175 91.9529C85.2342 92.097 85.6915 92.4112 85.9124 92.5889C86.0075 92.6635 85.9947 92.5683 85.9587 92.5013C85.6581 91.922 85.2187 91.6387 84.9669 91.5177C84.9515 91.51 84.9387 91.4945 84.9335 91.4765C84.931 91.4585 84.9335 91.4379 84.9464 91.425C85.1725 91.134 85.5142 90.8585 85.9613 90.6062C85.9664 90.6036 85.9741 90.601 85.9792 90.5985C86.1668 90.5624 86.3569 90.5444 86.5496 90.5444C87.4566 90.5444 88.158 90.9538 88.4201 91.134C88.492 91.183 88.5074 91.134 88.492 91.0877C88.3635 90.7349 88.1066 90.359 87.7058 89.9496C87.6904 89.9341 87.6853 89.9135 87.6904 89.8904C87.6955 89.8698 87.7109 89.8517 87.7315 89.8466C88.0938 89.7307 88.7232 89.5531 89.0136 89.4758C89.0187 89.4758 89.0238 89.4758 89.029 89.4758C89.0444 89.4758 89.0598 89.481 89.0727 89.4938C90.4883 90.8869 89.8075 92.9571 89.566 93.5596C89.5557 93.5828 89.5326 93.5982 89.5094 93.5982H89.5043C89.4786 93.5982 89.4555 93.5776 89.4478 93.5519C89.2602 92.8669 88.9391 92.4756 88.7387 92.2876C88.6385 92.1949 88.6205 92.2335 88.6462 92.2824C88.9879 92.9133 88.8003 93.8531 88.7772 93.9664C88.7772 93.9742 88.7721 93.9819 88.7695 93.987L88.3379 94.6359C88.325 94.6539 88.307 94.6642 88.2865 94.6642C88.2839 94.6642 88.2813 94.6642 88.2762 94.6642C88.2531 94.6617 88.2325 94.6436 88.2274 94.6205C88.0501 93.9896 87.2382 93.1579 86.899 92.8283C86.8168 92.7485 86.8271 92.8155 86.8605 92.8824C87.3564 93.884 87.138 95.2256 87.0147 95.7817C87.007 95.8075 86.9864 95.8281 86.9581 95.8307C86.9581 95.8307 86.9556 95.8307 86.953 95.8307L86.9556 95.8229ZM73.1405 94.8264C73.1405 94.8264 73.1251 94.8264 73.12 94.8239L71.7505 94.3089C71.7326 94.3037 71.7223 94.2909 71.7146 94.2754C71.7069 94.26 71.7069 94.2419 71.7146 94.2265L71.8045 94.0205C71.8122 94.0051 71.8225 93.9948 71.8353 93.987C73.0506 93.454 73.8574 92.7845 73.8651 92.7794C73.8805 92.6584 73.901 92.4987 73.9139 92.4266C73.919 92.4035 73.9344 92.3854 73.955 92.3777L77.7113 91.1418L78.1995 90.7736C78.1995 90.7736 78.2123 90.7658 78.2174 90.7658L79.0884 90.4826C79.0884 90.4826 79.1013 90.48 79.1064 90.48C79.1295 90.48 79.1501 90.4929 79.1604 90.5135C79.1758 90.5418 79.1681 90.5727 79.1424 90.5933L73.9576 94.4376L73.1662 94.8213C73.1662 94.8213 73.1482 94.8264 73.138 94.8264H73.1405ZM70.5378 91.4018C70.5378 91.4018 70.525 91.4018 70.5199 91.3993C70.3554 91.3452 70.0574 91.2267 69.9186 91.0362C69.9084 91.0233 69.9032 91.0053 69.9084 90.9873C69.9109 90.9692 69.9212 90.9564 69.9366 90.9461L71.5373 89.9805C71.5758 89.9599 71.8919 89.8054 72.4777 89.7333C72.4777 89.7333 72.4828 89.7333 72.4854 89.7333C72.5059 89.7333 72.5239 89.7436 72.5367 89.7616C72.6215 89.8826 72.7706 90.0989 72.8656 90.2328C72.881 90.2534 72.881 90.2817 72.8656 90.3049C72.8528 90.3229 72.8348 90.3307 72.8142 90.3307C72.8091 90.3307 72.804 90.3307 72.7988 90.3307C72.7217 90.3126 72.6549 90.3023 72.5933 90.3023C72.5753 90.3023 72.5573 90.3023 72.5419 90.3023L70.6278 91.237L70.5995 91.3555C70.5969 91.3735 70.5841 91.3864 70.5712 91.3967C70.561 91.4018 70.5507 91.4044 70.5404 91.4044L70.5378 91.4018ZM68.2563 90.4543C68.1099 90.4543 67.9891 90.4414 67.9043 90.4131C67.8812 90.4053 67.8658 90.3847 67.8632 90.3616C67.8607 90.3384 67.8709 90.3152 67.8915 90.3023L68.5312 89.8929C68.6134 89.8414 70.5378 88.6287 71.5733 88.4252C71.5758 88.4252 71.5887 88.4252 71.5887 88.4252L72.0974 88.4536C72.1154 88.4536 72.1334 88.4639 72.1436 88.4793L72.5701 89.0715C72.5856 89.0921 72.5856 89.1205 72.5701 89.1411C72.5599 89.1591 72.5393 89.172 72.5162 89.172C72.5136 89.172 72.5085 89.172 72.5059 89.172C72.3029 89.1411 72.1231 89.123 71.9741 89.123C71.8456 89.123 71.7351 89.1359 71.6452 89.1591L68.968 90.1195V90.3307C68.968 90.3616 68.9449 90.3873 68.9166 90.3925C68.8036 90.4131 68.5132 90.4594 68.2512 90.4594L68.2563 90.4543ZM67.6243 89.4681C67.1926 89.4681 66.8072 89.3187 66.6145 89.2286C66.5914 89.2183 66.5786 89.1926 66.5786 89.1668C66.5786 89.1411 66.5966 89.1205 66.6223 89.1127L67.3853 88.881C68.5158 88.0751 70.0188 87.4236 70.0343 87.4159C70.3503 87.3155 70.7511 87.2794 71.0337 87.264H71.0363C71.0543 87.264 71.0723 87.2717 71.0851 87.2871C71.0979 87.3026 71.1031 87.3232 71.0979 87.3412L70.9952 87.7558C70.9875 87.7815 70.9669 87.7995 70.9412 87.8021L70.5661 87.851L67.8195 89.1591L67.7861 89.414C67.781 89.4423 67.7579 89.4655 67.727 89.4681C67.6936 89.4681 67.6577 89.4681 67.6243 89.4681ZM66.8201 88.5952C66.8201 88.5952 66.8047 88.5952 66.797 88.59L66.4373 88.451C66.4193 88.4433 66.4064 88.4304 66.4013 88.4124C66.3962 88.3943 66.4013 88.3737 66.409 88.3583C66.4501 88.2991 66.5066 88.209 66.576 88.1034C66.8972 87.6064 67.4881 86.6975 67.7502 86.4683L65.4841 81.7846C65.4764 81.7691 65.4764 81.7511 65.4841 81.7357C65.4892 81.7202 65.502 81.7073 65.5149 81.6996C65.7693 81.5786 66.0108 81.4807 66.2548 81.3983C66.2626 81.3983 66.2677 81.3958 66.2754 81.3958C66.2985 81.3958 66.3191 81.4086 66.3294 81.4292L68.8447 86.0538L71.1031 86.2392C71.1211 86.2392 71.1365 86.2495 71.1468 86.2623C71.2161 86.3499 71.2675 86.4297 71.3035 86.4992C71.3112 86.5121 71.3112 86.5275 71.3086 86.543L71.2341 86.8262C71.2264 86.8546 71.2007 86.8726 71.175 86.8726C71.175 86.8726 69.5281 86.7541 69.5076 86.7541C68.783 86.9936 67.2389 88.2553 66.8638 88.5797C66.8535 88.59 66.8381 88.5952 66.8227 88.5952H66.8201ZM123.65 84.7586C123.627 84.7586 123.606 84.7457 123.594 84.7251C123.193 83.9217 122.16 82.4566 119.75 81.6713C119.729 81.6636 119.711 81.6455 119.709 81.6224C119.706 81.5992 119.714 81.576 119.732 81.5631L122.247 79.6114L122.299 79.3667C122.342 79.153 122.417 78.893 122.512 78.6123C122.512 78.602 122.52 78.5943 122.527 78.5891C123.666 77.4484 125.631 75.1748 126.016 72.7724L125.672 71.8789C125.664 71.8635 125.667 71.8429 125.672 71.8274C126.294 70.643 126.998 69.3401 127.828 67.8466C127.833 67.8389 127.841 67.8312 127.846 67.826L130.454 66.0494C130.454 66.0494 130.477 66.0391 130.49 66.0391C130.5 66.0391 130.51 66.0416 130.52 66.0468C130.541 66.0571 130.554 66.0803 130.554 66.1034C130.351 70.0611 129.583 73.4573 128.971 75.6125C128.966 75.628 128.956 75.6434 128.94 75.6512C128.933 75.6563 128.922 75.6589 128.912 75.6589C128.904 75.6589 128.897 75.6589 128.891 75.6563C128.74 75.5997 128.606 75.5301 128.48 75.44C128.475 75.4632 128.187 77.7214 127.188 79.3436C127.175 79.3616 127.157 79.3719 127.134 79.3719C127.131 79.3719 127.126 79.3719 127.124 79.3719L125.919 79.1582C125.919 79.1582 125.849 79.1968 125.885 79.2534C126.068 79.5315 126.494 80.2113 126.541 80.5074C126.541 80.5177 126.541 80.528 126.541 80.5383L126.155 81.5477C126.147 81.5709 126.127 81.5863 126.104 81.5863L125.5 81.6404L124.971 82.7785C124.963 82.7939 124.95 82.8068 124.932 82.812L123.596 83.2162L123.712 84.6968C123.712 84.7277 123.694 84.7534 123.666 84.7612C123.66 84.7612 123.655 84.7612 123.648 84.7612L123.65 84.7586ZM64.4692 81.388C64.4692 81.388 64.4461 81.3855 64.4358 81.3777C64.4152 81.3649 64.4024 81.3391 64.4075 81.3134L64.5052 80.7623C64.7852 79.8431 64.7313 78.8801 64.685 78.4424C64.6696 78.293 64.6285 78.293 64.6131 78.3394C64.4589 78.8054 64.1378 79.1427 63.8808 79.3513C63.8706 79.3616 63.8551 79.3642 63.8423 79.3642C63.8294 79.3642 63.814 79.359 63.8012 79.3487C63.7781 79.3281 63.7729 79.2972 63.7883 79.2715C64.13 78.6638 64.1018 78.0252 64.0581 77.7188C64.0427 77.6081 63.9862 77.621 63.9656 77.6622C63.7703 78.0407 63.4543 78.2261 63.2719 78.3059C63.2642 78.3085 63.2565 78.311 63.2462 78.311C63.2308 78.311 63.2128 78.3033 63.2025 78.293C63.1846 78.275 63.1794 78.2467 63.1923 78.2235C63.4672 77.639 63.4466 76.9772 63.4106 76.6373C63.4081 76.6116 63.4209 76.5884 63.444 76.5756C63.4518 76.5704 63.462 76.5678 63.4723 76.5678C63.4877 76.5678 63.5006 76.573 63.5134 76.5833C63.9682 76.9901 64.4769 77.3506 65.0242 77.6519C65.037 77.6596 65.0473 77.6725 65.0524 77.6879C65.2374 78.2595 65.3762 79.0552 65.2014 79.5779L65.0293 80.1006L65.8643 80.5512C65.8849 80.5615 65.8977 80.5847 65.8977 80.6104C65.8977 80.6362 65.8797 80.6568 65.8566 80.6645C65.2374 80.8911 64.7801 81.1795 64.5052 81.3803C64.4949 81.388 64.482 81.3932 64.4692 81.3932V81.388ZM104.093 80.0723C104.072 80.0723 104.054 80.062 104.041 80.0465C103.754 79.6268 102.641 79.2766 102.091 79.1479C101.153 79.426 99.9022 79.6088 99.5425 79.6603C99.5399 79.6603 99.5374 79.6603 99.5348 79.6603C99.5194 79.6603 99.5065 79.6551 99.4937 79.6448C99.4808 79.632 99.4731 79.6165 99.4731 79.5985L99.4911 77.4356C99.0286 76.0142 96.1844 75.3396 95.8607 75.2675C95.8325 75.2598 95.8119 75.234 95.8119 75.2057C95.8402 74.1397 97.279 72.8831 97.2944 72.8703C97.726 70.9545 99.4706 69.2989 99.8148 68.9873C99.8277 68.977 99.8405 68.9719 99.856 68.9719C99.8611 68.9719 99.8662 68.9719 99.8739 68.9719C99.8945 68.977 99.9099 68.995 99.915 69.0156C99.9896 69.2963 100.234 69.9555 100.907 70.0405C100.935 70.043 100.961 70.0456 100.989 70.0456C101.765 70.0456 102.423 68.6397 102.492 68.4801C102.495 68.4723 102.5 68.4646 102.507 68.4595C102.849 68.1453 103.389 68.0784 103.777 68.0784C104.165 68.0784 104.46 68.1376 104.522 68.1479C104.532 68.1479 104.542 68.1556 104.55 68.1608C104.714 68.2972 104.83 68.5496 104.889 68.8946C104.889 68.9049 104.889 68.9152 104.887 68.9229L104.871 68.9719C104.863 68.9925 104.846 69.0105 104.822 69.0131C104.82 69.0131 104.815 69.0131 104.812 69.0131C104.794 69.0131 104.774 69.0053 104.763 68.9899C104.619 68.8019 104.44 68.7067 104.226 68.7067C103.867 68.7067 103.517 68.9744 103.391 69.0826C103.363 69.1083 103.36 69.1882 103.368 69.2165C103.635 70.092 104.154 70.6842 104.992 71.0807C105.015 71.091 105.028 71.1142 105.028 71.1399C105.018 71.4412 104.984 71.9588 104.966 72.2394C104.966 72.2574 104.956 72.2755 104.938 72.2858C104.928 72.2935 104.915 72.2961 104.902 72.2961C104.897 72.2961 104.889 72.2961 104.884 72.2961C104.496 72.1802 104.18 72.1544 104.147 72.1519L103.843 72.3759L103.818 72.4557L104.583 74.7396C104.591 74.7602 104.586 74.7834 104.571 74.8014C104.56 74.8143 104.542 74.822 104.524 74.822C104.519 74.822 104.517 74.822 104.512 74.822C104.409 74.8014 104.306 74.7886 104.213 74.7886C103.766 74.7886 103.525 75.0203 103.445 75.1207C103.432 75.1336 103.414 75.1439 103.396 75.1439C103.394 75.1439 103.389 75.1439 103.386 75.1439C103.36 75.1413 103.335 75.1388 103.309 75.1388C102.947 75.1388 102.621 75.543 102.497 75.7155C102.464 75.7619 102.52 75.8314 102.52 75.8314L102.916 76.0477C102.937 76.0606 102.952 76.0863 102.947 76.1146C102.942 76.1404 102.921 76.161 102.893 76.1636C101.942 76.2846 101.166 76.8099 100.95 76.9669C100.917 76.9927 100.932 77.0339 100.956 77.0442C101.577 77.3841 102.042 78.1102 102.179 78.3394C102.202 78.378 102.243 78.3986 102.276 78.3883C102.364 78.3625 102.538 78.3188 102.736 78.3188C102.97 78.3188 103.163 78.378 103.309 78.4939C103.509 78.6535 103.797 78.687 104.003 78.687C104.108 78.687 104.183 78.6767 104.195 78.6767C104.231 78.5454 104.129 78.3342 104.064 78.2312C103.733 78.172 103.353 77.8939 103.309 77.863H103.286C103.06 77.863 102.42 77.6467 102.058 77.5154C102.035 77.5077 102.019 77.4845 102.017 77.4613C102.017 77.4356 102.03 77.4124 102.053 77.4021C102.317 77.2682 102.564 77.2013 102.785 77.2013C103.224 77.2013 103.425 77.4639 103.432 77.4742C103.471 77.4716 103.509 77.469 103.548 77.469C103.895 77.469 104.075 77.6467 104.152 77.7523C104.185 77.7986 104.224 77.7806 104.234 77.7523C104.401 77.33 104.201 76.6889 104.131 76.4906C104.126 76.4726 104.129 76.452 104.139 76.4365C104.152 76.4211 104.167 76.4108 104.188 76.4082L104.532 76.3902C104.583 76.3103 104.614 76.1172 104.617 75.8649C104.617 75.8391 104.635 75.816 104.658 75.8057C104.666 75.8057 104.673 75.8031 104.679 75.8031C104.696 75.8031 104.714 75.8108 104.725 75.8237C104.799 75.9087 104.853 75.9936 104.876 76.0374C104.884 76.0503 104.887 76.0657 104.884 76.0786C104.668 77.2862 104.368 78.9522 104.152 80.0156C104.147 80.0388 104.129 80.0594 104.103 80.0645C104.1 80.0645 104.095 80.0645 104.09 80.0645L104.093 80.0723ZM101.647 73.0505C101.665 73.0505 101.683 73.0582 101.696 73.0737C101.711 73.0917 101.714 73.1149 101.703 73.1355L101.308 74.0624C101.308 74.0624 101.344 74.0985 101.377 74.0805C102.256 73.5912 102.901 72.5484 102.929 72.5021L102.757 71.9201C102.392 71.3228 101.349 70.9623 100.945 70.8413C100.855 70.8129 100.843 70.8516 100.868 70.8773C101.107 71.1193 101.246 71.3356 101.308 71.4515C101.32 71.4721 101.318 71.4978 101.305 71.5184C101.292 71.5339 101.274 71.5442 101.254 71.5442C101.251 71.5442 101.249 71.5442 101.243 71.5442L100.038 71.3588C99.5219 71.418 98.8103 72.3373 98.728 72.4428C98.7203 72.4531 98.7075 72.4634 98.6946 72.466L97.9829 72.6437C98.0446 73.3106 98.8026 73.7895 98.8334 73.8101L99.2059 73.3621C99.2188 73.3466 99.2368 73.3389 99.2522 73.3389C99.265 73.3389 99.2753 73.3415 99.2856 73.3492C99.4911 73.4779 100.031 73.5809 100.465 73.6427C100.586 73.6608 100.65 73.6479 100.586 73.6273C100.2 73.4986 99.9253 73.2874 99.7558 73.1175C99.7352 73.0969 99.7326 73.066 99.7455 73.0428C99.7583 73.0248 99.7763 73.0119 99.7994 73.0119C99.8046 73.0119 99.8123 73.0119 99.8174 73.0119C100.044 73.0788 100.342 73.1123 100.696 73.1123C101.087 73.1123 101.451 73.0711 101.636 73.0479C101.636 73.0479 101.642 73.0479 101.644 73.0479L101.647 73.0505ZM95 78.8749C93.9749 78.8698 93.2426 78.62 92.829 78.1308C92.5823 77.8373 92.5001 77.5154 92.477 77.2965C92.4744 77.2682 92.4924 77.2399 92.5206 77.2296C92.5258 77.2296 92.5335 77.227 92.5386 77.227C92.5618 77.227 92.5823 77.2399 92.5926 77.2579C92.8033 77.6467 93.1887 77.8785 93.4353 77.9943C93.5612 78.0535 93.5612 78.0329 93.5175 78.002C92.8547 77.5514 92.8675 76.5858 92.8803 76.3876C92.8803 76.3593 92.9009 76.3361 92.9292 76.3309C92.9703 76.3206 93.0114 76.3155 93.0525 76.3155C93.3377 76.3155 93.5407 76.5472 93.6383 76.6863C93.6511 76.7069 93.6537 76.73 93.6409 76.7506C93.6306 76.7712 93.61 76.7815 93.5869 76.7815C93.5869 76.7815 93.2709 76.7661 93.2632 76.7661C93.2632 77.5669 94.2498 77.8553 94.26 77.8579L95.1028 78.1668C95.131 78.1771 95.1465 78.2055 95.1439 78.2338L95.0642 78.8157C95.0617 78.8466 95.0334 78.8698 95.0026 78.8698L95 78.8749ZM62.961 77.1317C62.961 77.1317 62.9482 77.1317 62.9405 77.1292C62.9148 77.1214 62.8968 77.0957 62.8994 77.0674C62.9096 76.7378 62.8377 76.349 62.6887 75.9112C62.6784 75.8829 62.6887 75.852 62.7169 75.8366C62.7272 75.8314 62.7375 75.8288 62.7478 75.8288C62.7658 75.8288 62.7837 75.8366 62.7966 75.852C62.9045 75.9808 63.0895 76.1867 63.3464 76.4262C63.3644 76.4442 63.3721 76.47 63.3618 76.4932C63.277 76.712 63.1255 76.9463 63.0124 77.106C62.9996 77.1214 62.9816 77.1317 62.961 77.1317ZM94.0442 74.6289C94.016 74.6238 93.9954 74.6006 93.9928 74.5723C93.9826 74.3766 94.0237 74.1938 94.1136 74.0419C94.2703 73.7792 94.5658 73.6015 94.9949 73.514C94.9974 73.514 95.0026 73.514 95.0077 73.514C95.0283 73.514 95.0488 73.5243 95.0591 73.5423C95.0719 73.5629 95.0719 73.5912 95.0591 73.6118L94.8484 73.9131C94.8484 73.9131 94.8304 73.9311 94.8202 73.9363C94.7354 73.9672 94.3012 74.1423 94.1162 74.5929C94.1059 74.6161 94.0828 74.6315 94.0596 74.6315C94.0545 74.6315 94.0519 74.6315 94.0494 74.6315L94.0442 74.6289ZM91.9657 74.5414C91.9657 74.5414 91.9477 74.5414 91.94 74.5362C91.9117 74.5234 91.8989 74.4925 91.9066 74.4641C92.0505 73.9054 92.5001 73.2076 92.5181 73.1767C92.4564 73.1896 92.3845 73.2205 92.3023 73.2694C92.292 73.2771 92.2791 73.2797 92.2689 73.2797C92.2534 73.2797 92.238 73.2745 92.2277 73.2642C92.2072 73.2462 92.2021 73.2179 92.2123 73.1921C92.4282 72.7312 92.8624 72.4686 93.1013 72.3527C93.4456 72.1853 93.7924 71.7631 93.9697 71.5262C93.9826 71.5107 94.0006 71.5004 94.0185 71.5004C94.0288 71.5004 94.0365 71.5004 94.0468 71.5056C94.0725 71.5184 94.0879 71.5493 94.0776 71.5777C93.9954 71.8712 93.8695 72.1339 93.867 72.1364C93.8772 72.1364 94.4245 72.0952 94.4245 72.0952C94.4476 72.0952 94.4707 72.1107 94.481 72.1313C94.4913 72.1544 94.4862 72.1828 94.4682 72.2008C94.3012 72.3604 93.9363 72.6926 93.3582 73.0917C92.7596 73.5088 92.2586 74.1629 92.0145 74.5131C92.0017 74.5311 91.9837 74.5388 91.9631 74.5388L91.9657 74.5414ZM93.2015 74.1217C93.2015 74.1217 93.1784 74.1191 93.1681 74.1114C93.1424 74.0959 93.1321 74.0625 93.145 74.0341C93.3582 73.5475 93.9723 72.6875 95.6783 72.4274C95.6809 72.4274 95.6834 72.4274 95.6886 72.4274C95.7091 72.4274 95.7323 72.4377 95.7425 72.4583C95.7554 72.4815 95.7554 72.5072 95.7374 72.5278L95.1953 73.2359C95.185 73.2514 95.167 73.2591 95.149 73.2591C94.9486 73.2694 93.9209 73.3595 93.2478 74.1011C93.2375 74.114 93.2195 74.1217 93.2015 74.1217ZM99.8174 72.4248C99.7969 72.4248 99.7763 72.4145 99.766 72.3965C99.7506 72.3733 99.7532 72.3424 99.7712 72.3218C99.951 72.121 100.234 71.8815 100.568 71.8815C100.866 71.8815 101.138 72.0772 101.313 72.2394C101.333 72.26 101.338 72.2909 101.326 72.3167C101.313 72.3347 101.292 72.3476 101.272 72.3476C101.264 72.3476 101.259 72.3476 101.254 72.345C101.11 72.2986 100.945 72.278 100.76 72.278C100.408 72.278 100.061 72.3579 99.8354 72.4222C99.8277 72.4222 99.8226 72.4222 99.8174 72.4222V72.4248ZM94.8818 71.3665C94.8664 71.3665 94.8484 71.3588 94.8381 71.3485C94.8202 71.3305 94.815 71.3073 94.8253 71.2841C94.9049 71.0627 95.0257 70.6121 94.9461 70.0894C94.9461 70.0688 94.9486 70.0508 94.964 70.0353C95.2081 69.7907 97.392 67.6484 98.9182 67.3729C98.9233 67.3729 98.9259 67.3729 98.931 67.3729C98.931 67.3729 98.9362 67.3729 98.9387 67.3729C99.0261 67.3857 99.4885 67.4501 100.069 67.6175C100.074 67.6149 100.55 67.3317 101.038 67.3317C101.408 67.3317 101.69 67.4913 101.875 67.8029C101.888 67.826 101.888 67.8544 101.87 67.875C101.86 67.8904 101.842 67.8981 101.821 67.8981C101.816 67.8981 101.809 67.8981 101.801 67.893C101.639 67.8338 101.374 67.7617 101.04 67.7617C100.511 67.7617 99.7146 67.9522 98.9233 68.8637C98.9156 68.874 98.9053 68.8792 98.8925 68.8818C98.7024 68.9333 97.112 69.3813 96.4979 70.0121C96.4568 70.0533 96.4851 70.1126 96.4851 70.1126L97.3997 69.837C97.3997 69.837 97.4126 69.8345 97.4177 69.8345C97.4408 69.8345 97.4614 69.8473 97.4717 69.8679C97.4871 69.8963 97.4794 69.9272 97.4537 69.9452C96.9193 70.3366 95.8761 71.0421 94.9024 71.364C94.8972 71.364 94.8895 71.3665 94.8844 71.3665H94.8818ZM127.53 67.2905C127.53 67.2905 127.507 67.2879 127.494 67.2802C127.193 67.0767 126.618 67.0201 126.451 67.0072C126.433 67.0072 126.417 66.9969 126.404 66.9815C126.394 66.9686 126.389 66.9506 126.394 66.9326L126.489 66.4433C126.494 66.415 126.52 66.3944 126.551 66.3944C126.947 66.4047 127.388 66.5103 127.512 66.5437C127.537 66.5489 127.558 66.5721 127.558 66.6004L127.589 67.2261C127.589 67.2493 127.579 67.2724 127.558 67.2827C127.548 67.2879 127.537 67.2905 127.527 67.2905H127.53ZM102.412 66.518C102.412 66.518 102.397 66.518 102.389 66.5128C102.361 66.5 102.346 66.4691 102.353 66.4382C102.505 65.8665 102.782 64.9756 103.222 63.9817C103.232 63.9585 103.253 63.9457 103.278 63.9457C103.278 63.9457 103.283 63.9457 103.286 63.9457C103.314 63.9482 103.335 63.9688 103.34 63.9972L103.412 64.4194L104.327 63.1938C104.568 62.8745 105.046 62.6016 105.408 62.429C105.416 62.4265 105.426 62.4239 105.434 62.4239C105.444 62.4239 105.454 62.4239 105.462 62.4316C105.48 62.4394 105.493 62.4574 105.496 62.4754C105.521 62.6428 105.542 62.8101 105.562 62.9724C105.565 62.993 105.557 63.0136 105.542 63.029C105.01 63.5028 103.214 65.1533 102.469 66.4871C102.456 66.5077 102.436 66.518 102.412 66.518ZM98.7075 66.4459C98.6869 66.4459 98.6664 66.4356 98.6535 66.4176C98.2938 65.8408 98.3709 65.1765 98.3735 65.1481L97.8879 65.3438C97.8879 65.3438 97.8725 65.349 97.8648 65.349C97.8545 65.349 97.8442 65.349 97.8365 65.3413C97.8211 65.3335 97.8082 65.3181 97.8057 65.3001C97.7157 64.8984 97.7312 64.489 97.8493 64.0487C97.8545 64.0229 97.8776 64.0049 97.9033 64.0023C97.9033 64.0023 97.9059 64.0023 97.9084 64.0023C97.9316 64.0023 97.9521 64.0152 97.965 64.0358C98.3632 64.816 99.0055 65.1713 99.3549 65.3155C99.3729 65.3232 99.3858 65.3387 99.3909 65.3567C99.3961 65.3747 99.3909 65.3953 99.3806 65.4108C99.0209 65.8897 98.8385 66.2425 98.764 66.4073C98.7537 66.4279 98.7332 66.4433 98.7126 66.4433C98.7126 66.4433 98.7101 66.4433 98.7075 66.4433V66.4459ZM127.835 65.8562C127.835 65.8562 127.812 65.8537 127.802 65.8459C127.417 65.6013 126.923 65.573 126.731 65.573C126.713 65.573 126.697 65.5653 126.684 65.5524C126.672 65.5395 126.666 65.5215 126.669 65.5035L126.779 64.2778C126.782 64.2495 126.803 64.2289 126.831 64.2212C126.959 64.1954 127.09 64.1851 127.224 64.1851C127.65 64.1851 127.969 64.3165 128.087 64.3705C128.11 64.3834 128.126 64.4091 128.121 64.4375L127.897 65.8022C127.895 65.8228 127.879 65.8408 127.861 65.8485C127.853 65.8511 127.843 65.8537 127.835 65.8537V65.8562ZM130.526 63.4487C130.502 63.4487 130.479 63.4358 130.469 63.4127C130.253 62.944 129.675 61.8008 128.974 61.2755C128.958 61.2652 128.951 61.2497 128.948 61.2343C128.948 61.2163 128.951 61.2008 128.961 61.1879C129.151 60.9485 129.264 60.7373 129.264 60.6266C129.264 60.6266 127.401 60.5648 127.388 60.5648C127.352 60.5906 126.479 61.1957 126.178 61.672C126.168 61.6901 126.147 61.7004 126.127 61.7004C126.122 61.7004 126.117 61.7004 126.111 61.7004C126.086 61.6952 126.068 61.672 126.063 61.6463L126.027 61.2987C126.027 61.2987 126.027 61.2729 126.034 61.2626C126.096 61.1519 126.438 60.5803 127.193 60.1271C127.201 60.1219 127.209 60.1194 127.219 60.1194L128.999 59.9262L128.989 59.8516L128.026 59.2619L126.777 59.8619C126.777 59.8619 126.759 59.867 126.751 59.867C126.744 59.867 126.738 59.867 126.733 59.8644L126.338 59.7331C126.314 59.7254 126.299 59.7048 126.296 59.6816C126.294 59.6585 126.304 59.6353 126.327 59.6224L127.987 58.6105C127.987 58.6105 128.008 58.6027 128.02 58.6027C128.028 58.6027 128.036 58.6027 128.044 58.6079L128.989 59.0019L128.999 58.9478L128.02 58.1238L126.253 59.1538C126.253 59.1538 126.232 59.1615 126.222 59.1615C126.212 59.1615 126.201 59.1615 126.194 59.1538C126.176 59.1435 126.163 59.1255 126.16 59.1023L126.135 58.7727C126.132 58.7495 126.145 58.7263 126.163 58.7135L128.069 57.6088C128.069 57.6088 128.087 57.6011 128.1 57.6011C128.11 57.6011 128.121 57.6011 128.131 57.6088L129.053 58.1599C129.053 58.1599 129.061 58.165 129.064 58.1676L129.981 59.007C129.981 59.007 129.994 59.0225 129.996 59.0328L130.6 60.7373C130.6 60.7373 130.603 60.7502 130.603 60.7579L130.582 63.3895C130.582 63.4178 130.561 63.4436 130.533 63.4513C130.528 63.4513 130.526 63.4513 130.52 63.4513L130.526 63.4487ZM125.456 58.801C125.431 58.801 125.41 58.783 125.402 58.7572L125.274 58.3453C125.266 58.3195 125.274 58.2912 125.297 58.2757L125.503 58.1315C125.503 58.1315 125.526 58.1212 125.539 58.1212C125.546 58.1212 125.557 58.1212 125.564 58.1264C125.585 58.1341 125.598 58.1521 125.603 58.1753C125.618 58.2963 125.631 58.5384 125.515 58.7675C125.505 58.7881 125.485 58.801 125.459 58.801C125.459 58.801 125.456 58.801 125.454 58.801H125.456ZM127.047 57.6191C127.047 57.6191 127.024 57.6166 127.013 57.6114C126.993 57.5985 126.982 57.5779 126.982 57.5548L127.137 54.3233C127.137 54.2924 127.162 54.2666 127.193 54.264C127.319 54.2537 127.483 54.2409 127.658 54.2409C127.72 54.2409 127.782 54.2409 127.846 54.246C127.879 54.246 127.902 54.2743 127.905 54.3078L127.956 56.4579L128 56.4321L128.265 54.367C128.265 54.349 128.275 54.3361 128.288 54.3258C128.298 54.3181 128.311 54.313 128.326 54.313C128.326 54.313 128.334 54.313 128.336 54.313C128.516 54.3439 128.686 54.3825 128.84 54.4263C128.868 54.434 128.886 54.4597 128.884 54.4881L128.737 57.3436C128.737 57.3642 128.724 57.3848 128.704 57.3951C128.694 57.4003 128.686 57.4028 128.676 57.4028C128.663 57.4028 128.652 57.4003 128.642 57.3951L128.051 57.0243L127.075 57.6114C127.075 57.6114 127.054 57.6191 127.044 57.6191H127.047ZM129.177 52.4925C129.177 52.4925 129.156 52.4925 129.148 52.4848C128.706 52.2427 128.051 52.1912 127.581 52.1912C127.419 52.1912 127.293 52.1964 127.214 52.2015H127.209C127.193 52.2015 127.178 52.1964 127.167 52.1861C127.155 52.1732 127.149 52.1578 127.147 52.1423L127.108 50.0901C127.108 50.0644 127.124 50.0386 127.149 50.0309C127.35 49.9614 127.558 49.9253 127.769 49.9253C128.655 49.9253 129.351 50.551 129.48 50.6772C129.495 50.6927 129.503 50.7133 129.498 50.7313L129.236 52.441C129.236 52.4616 129.22 52.4771 129.202 52.4874C129.195 52.4925 129.184 52.4925 129.174 52.4925H129.177ZM132.797 49.1065C132.769 49.1065 132.743 49.0885 132.738 49.0602C132.406 47.783 130.603 46.7196 128.354 46.4698C128.095 46.4415 127.823 46.4286 127.545 46.4286C127.378 46.4286 127.201 46.4338 127.024 46.4441H127.021C126.995 46.4441 126.975 46.4286 126.964 46.408L126.669 45.7385C126.661 45.7205 126.661 45.6999 126.669 45.6819C126.679 45.6639 126.697 45.6536 126.715 45.651C126.895 45.6278 127.101 45.6124 127.365 45.5995C127.042 45.324 126.535 44.9583 125.98 44.7755C125.952 44.7652 125.934 44.7369 125.939 44.706C125.944 44.6751 125.97 44.6545 126.001 44.6545C126.893 44.6777 128.462 44.8476 128.971 45.7231C131.265 46.1454 132.9 47.5461 132.858 49.0473C132.858 49.0782 132.835 49.1039 132.802 49.1065H132.797ZM134.079 47.0698C134.061 47.0698 134.045 47.062 134.033 47.0492C133.565 46.5162 132.424 45.2467 131.908 44.9892C131.818 44.9429 131.723 44.9197 131.628 44.9197C131.186 44.9197 130.821 45.4038 130.723 45.5506C130.713 45.566 130.7 45.5738 130.682 45.5763C130.677 45.5763 130.675 45.5763 130.672 45.5763C130.659 45.5763 130.646 45.5738 130.636 45.566C130.176 45.2467 129.893 44.7318 129.739 44.3558C129.726 44.3301 129.737 44.2992 129.76 44.2812C129.77 44.2734 129.783 44.2709 129.796 44.2709C129.811 44.2709 129.827 44.276 129.837 44.2889C130.281 44.7086 130.836 44.7627 131.271 44.7627C131.474 44.7627 131.677 44.7472 131.872 44.7343C132.052 44.7215 132.219 44.7112 132.375 44.7112C132.645 44.7112 132.828 44.7472 132.966 44.827C133.478 45.1309 133.922 46.3102 134.141 46.9874C134.148 47.0157 134.14 47.0466 134.112 47.062C134.102 47.0672 134.092 47.0698 134.081 47.0698H134.079ZM129.241 44.9532C129.22 44.9532 129.202 44.9429 129.189 44.9249C128.868 44.4305 128.146 43.9155 127.394 43.6452C126.582 43.3516 126.469 43.004 126.458 42.8701C126.458 42.8444 126.471 42.8212 126.492 42.8109C126.767 42.6693 127.039 42.5972 127.309 42.5972C128.313 42.5972 128.935 43.5962 128.94 43.6065C129.141 43.8074 129.249 44.4125 129.303 44.8863C129.305 44.9146 129.29 44.9429 129.261 44.9506C129.254 44.9532 129.246 44.9558 129.241 44.9558V44.9532Z" fill="#6AAAE4"/>
<path d="M89.5069 86.7309C89.5737 86.7206 89.6919 86.7078 89.7587 86.7078C90.4318 86.7078 91.5906 86.6202 92.5104 86.5404C92.5309 86.3241 92.5515 86.0898 92.5695 85.8452C92.5464 85.8426 91.9477 85.7499 91.9477 85.7499C91.3131 85.6546 90.8506 85.1113 90.8506 84.4727V84.3543C89.7356 84.4006 88.6231 84.4341 87.508 84.4985V87.1815C88.3636 86.9369 89.0984 86.7979 89.5069 86.7335V86.7309ZM87.508 84.4959V72.5381C83.3457 72.775 79.1861 73.1303 75.0367 73.6067V85.5645C79.1861 85.0881 83.3457 84.7328 87.508 84.4959ZM63.832 73.362C64.1455 73.4444 64.4127 73.6427 64.59 73.9131L64.7261 74.1242C64.7261 74.1242 65.001 74.495 65.574 74.925C68.7214 74.4255 71.8765 73.9723 75.0392 73.6092V61.636C70.8924 62.1097 66.7559 62.7045 62.6347 63.4152V73.0453L63.8346 73.3646L63.832 73.362ZM74.0603 85.9404L73.9781 86.3138C74.0321 86.373 74.0835 86.4322 74.1374 86.494L74.2376 86.6125C74.3635 86.7696 74.4534 86.9575 74.4946 87.1558L74.528 87.3103C74.7463 87.4982 74.9056 87.7042 75.0392 87.9205V85.5645C74.7181 85.6005 74.3944 85.6495 74.0732 85.6881C74.0732 85.7705 74.0809 85.8555 74.0629 85.9379L74.0603 85.9404ZM87.508 166.687V166.692C87.7212 166.937 87.9371 167.179 88.1529 167.421C87.9371 167.176 87.7212 166.934 87.508 166.687ZM62.6322 83.6694L62.1055 83.2368C61.7483 82.9407 61.5762 82.472 61.6584 82.0111L61.7226 81.6635C60.9107 80.9477 60.4072 80.1083 60.2967 79.91L60.1785 79.7015C60.0243 79.4311 59.973 79.1144 60.0372 78.808L60.0834 78.5736C60.3481 77.2476 60.0834 76.3464 60.0834 76.3361L60.0141 76.1249C59.9884 76.0477 59.9909 75.9653 59.9807 75.8855C57.3086 76.385 54.6443 76.9231 51.9876 77.5179C52.4501 81.4575 53.0076 85.3225 53.6474 89.1153C56.6355 88.469 59.6287 87.8639 62.6347 87.3463V83.6694H62.6322ZM87.508 161.689L87.5799 161.63C87.5594 161.614 87.5311 161.596 87.508 161.581V161.689ZM87.4592 101.753C85.5579 103.154 83.523 103.262 82.9424 103.262C82.7754 103.262 82.6854 103.254 82.6854 103.254L82.539 103.244C82.3463 103.231 82.1562 103.172 81.9866 103.076L81.4393 102.762L80.3037 102.847C81.1413 104.549 82.1176 106.55 83.1813 108.736C84.6227 108.625 86.0666 108.509 87.508 108.427V108.777C87.5697 108.656 87.6313 108.533 87.693 108.417C87.6313 108.419 87.5697 108.422 87.508 108.424V101.717L87.4592 101.755V101.753ZM63.3696 95.1303C63.3027 94.9552 63.2437 94.7723 63.1974 94.5844L63.1691 94.4685C63.1255 94.3089 63.1178 94.1415 63.1383 93.9767L63.9322 87.9643C63.9528 87.815 63.9965 87.6708 64.0633 87.5395L64.2046 87.2665L64.1378 87.1094C63.6368 87.1918 63.1332 87.2614 62.6322 87.3463V95.6246L63.367 95.1303H63.3696ZM100.416 57.3693C101.135 57.9796 101.788 59.164 102.114 59.8129L102.23 60.0472C102.261 60.109 102.276 60.1734 102.297 60.2378C102.728 60.2429 103.16 60.2481 103.589 60.2558L103.879 60.176C103.985 60.1451 104.093 60.1296 104.198 60.1271C104.771 59.8438 105.257 59.6842 105.375 59.6481L106.03 59.4421C106.153 59.4035 106.282 59.3829 106.415 59.3829C106.636 59.3829 106.85 59.4396 107.045 59.5477C107.351 59.7202 107.577 60.0138 107.664 60.3562C109.28 60.4129 110.896 60.4695 112.51 60.5622V48.6353C108.347 48.3958 104.178 48.2748 100.008 48.2722V57.0938C100.115 57.1427 100.216 57.202 100.306 57.2766L100.414 57.3693H100.416ZM107.893 72.4763L107.952 72.6797C108.029 72.9372 108.026 73.2127 107.936 73.4676L107.34 75.1979L107.469 75.7464C107.505 75.9138 107.507 76.0889 107.479 76.2588L107.456 76.3876C106.57 81.4215 106.4 81.8566 106.336 82.0214C106.274 82.1734 106.13 82.5364 105.408 83.4711L105.544 84.2178C107.258 84.2616 108.972 84.3337 110.686 84.4161C111.382 84.0788 111.662 83.9423 111.885 83.8702C112.004 83.8084 112.222 83.6874 112.507 83.5252V72.5355C110.953 72.4454 109.398 72.3913 107.841 72.3347C107.862 72.3939 107.877 72.4428 107.885 72.4711L107.893 72.4763ZM111.174 168.183H111.171C111.145 168.211 111.12 168.242 111.097 168.27C111.122 168.242 111.151 168.214 111.176 168.183H111.174ZM122.021 73.3105C122.602 72.1287 123.29 70.7974 124.089 69.3117C124.089 69.304 124.046 69.1753 124.046 69.1753C123.992 69.0208 123.969 68.856 123.976 68.6912C123.976 68.6912 123.984 68.5624 123.979 68.5521L123.573 68.274C123.29 68.0809 123.095 67.7797 123.033 67.4423C122.969 67.105 123.044 66.7549 123.242 66.4742L123.617 65.9283L123.976 65.4314L124.03 63.7371C123.627 62.9697 123.437 62.1535 123.38 61.8934L123.326 61.6102C123.316 61.5639 123.316 61.5149 123.314 61.466C119.719 61.0823 116.12 60.7708 112.515 60.5648V72.5407C115.688 72.7209 118.856 72.9938 122.021 73.3131V73.3105ZM87.5106 48.6198C85.3113 48.7434 83.1145 48.9005 80.9203 49.091C78.9574 49.261 76.997 49.4567 75.0392 49.6807V61.6334C79.1886 61.157 83.3483 60.8017 87.5106 60.5648V48.6224V48.6198ZM50.3099 53.9138C50.3099 53.9293 50.3099 53.9421 50.3099 53.955H50.315V53.9113C50.315 53.9113 50.3124 53.9113 50.3099 53.9113V53.9138ZM88.8569 60.5056C88.4072 60.5287 87.9602 60.5365 87.5106 60.5622V61.9681C87.955 61.4274 88.4047 60.9407 88.8569 60.5056ZM92.6286 68.4775C92.7339 68.1376 92.8624 67.8157 93.0011 67.5119C92.4718 67.5737 91.7165 67.8312 91.1332 68.6963L90.9996 68.8972C90.8275 69.1572 90.5654 69.3426 90.2623 69.4224L87.5157 70.1537V72.5407C88.2479 72.4995 88.9802 72.4814 89.7124 72.4454C90.5552 70.5091 91.8681 69.1521 92.6311 68.48L92.6286 68.4775ZM62.6373 51.4599C58.5136 52.1732 54.4053 53.0049 50.3176 53.955V54.0915C50.4281 58.0774 50.6208 61.9861 50.8905 65.7841C54.7907 64.888 58.7063 64.0924 62.6399 63.4126V51.4599H62.6373ZM124.989 109.49C121.79 109.125 118.583 108.852 115.374 108.625C115.254 109.599 115.164 110.569 115.136 111.419C115.089 112.9 115.832 116.842 116.654 120.681C119.437 120.892 122.214 121.137 124.989 121.456V109.493C129.136 109.967 133.272 110.562 137.396 111.272V123.233C137.429 123.238 137.465 123.246 137.501 123.253C138.832 119.597 140.06 115.84 141.178 111.978C139.919 111.736 138.66 111.486 137.396 111.27V99.3119C133.272 98.5986 129.138 98.0064 124.989 97.5301V109.488V109.49ZM144.107 100.589C144.952 96.8426 145.707 93.0188 146.365 89.1101C143.385 88.4664 140.397 87.8639 137.396 87.3438V99.3145C139.636 99.7007 141.874 100.131 144.107 100.589ZM137.396 63.4101V75.3859C140.949 75.9987 144.49 76.7197 148.02 77.5102C148.387 74.392 148.703 71.23 148.958 68.0243C149.017 67.2827 149.068 66.5283 149.122 65.7764C145.232 64.8829 141.324 64.0898 137.396 63.4101ZM124.989 133.404C127.64 133.707 130.281 134.076 132.923 134.477C133.388 133.455 133.848 132.428 134.292 131.387C135.387 128.831 136.417 126.212 137.393 123.542V123.235C133.27 122.525 129.136 121.93 124.986 121.456V133.406L124.989 133.404ZM62.6373 123.593V123.235C62.5962 123.243 62.5577 123.251 62.5165 123.258C62.5577 123.369 62.5962 123.482 62.6373 123.596V123.593ZM118.437 132.762C118.26 134.565 117.905 137.029 117.196 140.075C116.824 141.682 116.433 143.168 116.037 144.561C119.023 144.779 122.008 145.04 124.986 145.379V133.406C122.805 133.156 120.621 132.945 118.434 132.76L118.437 132.762ZM129.955 80.6928C129.919 80.7675 129.852 80.9014 129.804 80.9683L126.402 85.7447C130.076 86.1902 133.742 86.7129 137.398 87.3438V75.3859C135.582 75.0718 133.76 74.7911 131.939 74.5233C131.06 78.2054 130.032 80.5357 129.96 80.6954L129.955 80.6928ZM121.944 90.8842L116.811 96.0443L116.762 96.7653C119.506 96.9765 122.25 97.2185 124.989 97.5301V88.7007L121.944 90.8842ZM135.574 51.1999L135.328 51.9286C135.179 52.374 134.803 52.7036 134.341 52.7886C134.264 52.8015 134.182 52.8092 134.107 52.8092C133.758 52.8092 133.424 52.6676 133.182 52.4152C132.748 52.7448 132.232 53.0178 131.656 53.2315C131.643 53.2752 131.628 53.319 131.612 53.3602C131.826 53.5714 131.967 53.8495 131.993 54.1662L132.388 58.4585L132.946 59.9932C132.995 60.1245 133.023 60.261 133.023 60.4026L133.09 62.7329C134.523 62.9517 135.96 63.1654 137.391 63.4126V51.4908C136.784 51.3853 136.175 51.3029 135.569 51.2025L135.574 51.1999ZM124.989 149.502C125.754 148.24 126.51 146.966 127.242 145.67C126.492 145.575 125.742 145.464 124.989 145.379V149.502ZM67.095 134.485C68.8498 138.347 70.7408 142.078 72.7706 145.673C73.5285 145.578 74.2839 145.467 75.0418 145.379V133.406C72.3877 133.71 69.7388 134.081 67.095 134.485ZM83.8442 132.577C83.6052 130.973 83.4485 129.374 83.3946 127.785C82.2538 125.504 81.1182 123.21 80.0108 120.957C78.3536 121.108 76.6964 121.263 75.0444 121.453V133.404C77.9734 133.069 80.9101 132.796 83.8468 132.58L83.8442 132.577ZM86.4392 144.386C82.6341 144.622 78.8341 144.947 75.0418 145.379V149.533C76.5731 152.048 78.1763 154.492 79.8464 156.866C80.9589 156.763 82.0739 156.668 83.1865 156.58C82.6495 155.048 82.6366 153.799 82.6366 153.696V153.099C82.6366 152.424 83.1556 151.86 83.8288 151.809L84.4248 151.768C84.6201 151.739 85.4371 151.539 86.6601 151.188C86.2593 148.943 86.3158 146.268 86.4366 144.386H86.4392ZM111.706 156.24C111.978 156.253 112.248 156.258 112.517 156.274V154.492C112.219 155.161 111.947 155.746 111.706 156.24ZM75.0418 110.734C74.8517 110.34 74.6616 109.944 74.4766 109.56C70.5199 110.023 66.5709 110.587 62.6399 111.267V101.22C62.5962 101.22 62.5525 101.235 62.5088 101.235C61.4965 101.235 60.5613 100.664 60.086 99.7754C58.6935 100.035 57.3009 100.303 55.9109 100.589C56.787 104.477 57.7634 108.278 58.8399 111.983C60.1066 111.741 61.3706 111.489 62.6399 111.27V123.23C66.7584 122.519 70.8976 121.925 75.0444 121.451V110.734H75.0418ZM112.517 166.661C112.612 166.55 112.705 166.437 112.8 166.324C112.705 166.432 112.61 166.537 112.517 166.646V166.658V166.661ZM112.517 161.56L115.171 163.473C116.898 161.336 118.566 159.135 120.169 156.861C117.623 156.627 115.071 156.421 112.52 156.274V161.56H112.517ZM100.013 168.245C92.9035 168.245 87.138 174.02 87.138 181.147C87.138 188.275 92.9035 194.055 100.013 194.055C107.122 194.055 112.887 188.275 112.887 181.147C112.887 174.02 107.119 168.245 100.013 168.245ZM103.563 182.77L105.763 189.542L100.01 185.357L94.2652 189.542L96.4619 182.77L90.7145 178.583H97.8185L100.013 171.808L102.209 178.583H109.316L103.566 182.77H103.563Z" fill="#CE0E2D"/>
</g>
<defs>
<clipPath id="clip0_9898_54202">
<rect width="137.01" height="192" fill="white" transform="translate(31.495 6)"/>
</clipPath>
</defs>
</svg>
