<svg width="200" height="200" viewBox="0 0 200 200" fill="none" xmlns="http://www.w3.org/2000/svg">
<g clip-path="url(#clip0_10156_27562)">
<path d="M188 49H13V113.269H188V49Z" fill="#000207"/>
<path d="M114.315 104.082H129.665V88.7847H114.315V104.082ZM95.8945 88.7847C95.8943 90.7938 96.2913 92.7833 97.0627 94.6395C97.8341 96.4956 98.9648 98.1822 100.39 99.6028C101.816 101.023 103.508 102.15 105.371 102.919C107.233 103.687 109.229 104.083 111.245 104.082V58.1875H95.8945V88.7847ZM40.634 104.082C42.6497 104.083 44.6456 103.687 46.5079 102.918C48.3702 102.15 50.0622 101.023 51.4875 99.6022C52.9128 98.1816 54.0434 96.4952 54.8146 94.6391C55.5859 92.783 55.9828 90.7937 55.9826 88.7847V58.1875H40.634V104.082ZM22.212 88.7847C22.2118 90.7938 22.6088 92.7833 23.3802 94.6395C24.1516 96.4956 25.2823 98.1822 26.7078 99.6028C28.1333 101.023 29.8256 102.15 31.688 102.919C33.5505 103.687 35.5466 104.083 37.5624 104.082V58.1875H22.212V88.7847ZM92.8248 73.4889C92.825 71.4796 92.4281 69.4899 91.6568 67.6335C90.8855 65.7771 89.7548 64.0902 88.3294 62.6693C86.9039 61.2485 85.2116 60.1213 83.3491 59.3523C81.4866 58.5833 79.4903 58.1875 77.4743 58.1875V104.082C81.4038 104.083 85.184 102.582 88.036 99.8882C90.8881 97.1942 92.5947 93.5125 92.8044 89.6016C93.0141 85.6908 91.7108 81.8488 89.163 78.8672C86.6152 75.8856 83.0171 73.9915 79.1099 73.5752V73.4889H92.8248ZM59.0523 73.4889C59.0535 77.2637 60.4546 80.9048 62.9863 83.7124C65.5179 86.5199 69.0015 88.2957 72.7672 88.6984V88.7847H59.0523C59.0524 90.7939 59.4496 92.7834 60.2211 94.6396C60.9927 96.4958 62.1237 98.1824 63.5493 99.6029C64.9749 101.023 66.6673 102.15 68.5299 102.919C70.3925 103.687 72.3887 104.083 74.4046 104.082V58.1875C72.3885 58.1873 70.3921 58.583 68.5293 59.3519C66.6666 60.1208 64.9741 61.2479 63.5485 62.6688C62.1229 64.0897 60.992 65.7766 60.2206 67.6331C59.4491 69.4896 59.0521 71.4794 59.0523 73.4889Z" fill="#F1F1F3"/>
<path d="M178.781 58.188H132.734V104.083H178.781V58.188Z" fill="#B1824F"/>
<path d="M128.994 58.189L128.238 60.1868L127.479 58.189H126.811V61.3892H127.408V59.4139L128.021 61.0966H128.454L129.068 59.4139V61.3892H129.664V58.189H128.994ZM124.067 58.7367H124.957V61.3892H125.554V58.7367H126.444V58.189H124.067V58.7367Z" fill="#B1824F"/>
<path d="M155.758 65.8809L159.226 76.5189H170.447L161.368 83.0938L164.837 93.7299L155.758 87.1569L146.678 93.7299L150.147 83.0938L141.068 76.5189H152.289L155.758 65.8809Z" fill="#F1F1F3"/>
<path d="M188 113.271H13V151H188V113.271Z" fill="#B1824F"/>
<path d="M29.8825 122.521C30.9762 122.51 32.0596 122.733 33.0594 123.175C34.0592 123.617 34.952 124.268 35.6775 125.084L34.5237 126.127C33.9471 125.469 33.2325 124.945 32.4306 124.592C31.6286 124.24 30.7588 124.067 29.8825 124.086C28.2257 124.114 26.6464 124.79 25.4848 125.968C24.3232 127.146 23.6724 128.732 23.6724 130.383C23.6724 132.035 24.3232 133.62 25.4848 134.798C26.6464 135.976 28.2257 136.652 29.8825 136.68C30.7766 136.699 31.6635 136.517 32.478 136.149C33.2926 135.781 34.0141 135.235 34.5896 134.553L35.7433 135.594C35.0192 136.435 34.1195 137.108 33.1071 137.566C32.0947 138.024 30.9942 138.255 29.8825 138.245C28.8466 138.245 27.8209 138.042 26.8639 137.646C25.9069 137.251 25.0373 136.672 24.3049 135.942C23.5724 135.212 22.9914 134.346 22.595 133.392C22.1986 132.438 21.9946 131.416 21.9946 130.383C21.9946 129.351 22.1986 128.328 22.595 127.375C22.9914 126.421 23.5724 125.554 24.3049 124.824C25.0373 124.094 25.9069 123.515 26.8639 123.12C27.8209 122.725 28.8466 122.521 29.8825 122.521Z" fill="#F1F1F3"/>
<path d="M37.7726 122.803H39.3856V128.842C39.6856 128.21 40.1663 127.682 40.7671 127.322C41.368 126.963 42.0621 126.788 42.7621 126.821C43.3034 126.798 43.8434 126.89 44.346 127.092C44.8485 127.294 45.3018 127.6 45.6756 127.991C46.0493 128.382 46.3347 128.848 46.5126 129.358C46.6905 129.868 46.7568 130.411 46.707 130.948V137.94H45.094V131.295C45.1428 130.915 45.108 130.529 44.9921 130.164C44.8762 129.799 44.682 129.463 44.4229 129.18C44.1638 128.897 43.8461 128.673 43.4917 128.525C43.1373 128.376 42.7548 128.307 42.3706 128.32C41.966 128.308 41.5632 128.379 41.1881 128.531C40.8131 128.683 40.4741 128.912 40.1929 129.202C39.9117 129.492 39.6947 129.838 39.5556 130.217C39.4166 130.596 39.3587 131 39.3856 131.402V137.94H37.7726V122.803Z" fill="#F1F1F3"/>
<path d="M56.1855 134.248V132.251C55.2891 132.666 54.3198 132.903 53.3322 132.947C51.2619 133.228 50.3039 133.902 50.3039 135.051C50.3039 136.139 51.1753 136.768 52.6998 136.768C54.9452 136.768 56.1855 135.769 56.1855 134.248ZM48.6909 135.096C48.6909 133.012 50.1288 131.883 53.2456 131.448C55.794 131.101 56.1855 131.015 56.1855 130.124V129.906C56.1855 129.124 55.5324 128.169 53.703 128.169C53.0791 128.155 52.4618 128.299 51.9091 128.588C51.3564 128.876 50.8863 129.3 50.5429 129.82L49.3666 128.906C49.8394 128.187 50.4917 127.603 51.2596 127.211C52.0274 126.818 52.8844 126.632 53.7462 126.67C56.4697 126.67 57.7984 127.929 57.7984 130.079V135.92C57.7984 136.747 58.2558 136.768 58.7131 136.768H58.9107V137.918C58.5679 138.095 58.184 138.178 57.7984 138.158C57.5721 138.164 57.3479 138.114 57.1463 138.011C56.9447 137.909 56.7722 137.757 56.6447 137.571C56.5153 137.359 56.4331 137.123 56.4038 136.877C55.9046 137.385 55.2965 137.774 54.6251 138.015C53.9536 138.255 53.2362 138.342 52.5266 138.267C50.0856 138.267 48.6909 137.049 48.6909 135.096Z" fill="#F1F1F3"/>
<path d="M60.5896 126.995H62.2026V128.841C62.4493 128.229 62.8782 127.708 63.4314 127.347C63.9846 126.985 64.6356 126.802 65.2967 126.821C65.9958 126.795 66.6849 126.992 67.2644 127.382C67.8439 127.773 68.2839 128.337 68.5208 128.993C68.8961 128.188 69.5451 127.542 70.3527 127.168C71.1604 126.795 72.0747 126.719 72.9335 126.953C73.7923 127.187 74.5402 127.716 75.0447 128.448C75.5492 129.179 75.7777 130.064 75.6897 130.947V137.941H74.0768V131.294C74.0768 129.471 73.1621 128.319 71.5924 128.319C71.2069 128.33 70.8279 128.421 70.4792 128.585C70.1304 128.749 69.8195 128.983 69.5659 129.273C69.3123 129.562 69.1215 129.901 69.0054 130.268C68.8894 130.634 68.8506 131.021 68.8916 131.403V137.94H67.2786V131.294C67.2786 129.471 66.3846 128.319 64.8375 128.319C64.4567 128.336 64.0834 128.431 63.741 128.598C63.3985 128.765 63.0943 129.001 62.8471 129.29C62.5999 129.579 62.4152 129.916 62.3043 130.28C62.1934 130.643 62.1588 131.025 62.2026 131.403V137.94H60.5896V126.995Z" fill="#F1F1F3"/>
<path d="M83.6666 136.768C84.7439 136.671 85.7458 136.176 86.4755 135.381C87.2052 134.585 87.6098 133.546 87.6098 132.468C87.6098 131.39 87.2052 130.351 86.4755 129.555C85.7458 128.759 84.7439 128.264 83.6666 128.167C82.5611 128.225 81.5198 128.703 80.7576 129.503C79.9954 130.303 79.5705 131.364 79.5705 132.468C79.5705 133.571 79.9954 134.632 80.7576 135.433C81.5198 136.233 82.5611 136.711 83.6666 136.768ZM78.1539 126.995H79.7669V128.623C80.1791 127.977 80.7594 127.454 81.4461 127.11C82.1328 126.766 82.9002 126.614 83.6666 126.67C85.1635 126.738 86.5765 127.379 87.6117 128.459C88.6468 129.538 89.2245 130.974 89.2245 132.468C89.2245 133.961 88.6468 135.397 87.6117 136.477C86.5765 137.557 85.1635 138.197 83.6666 138.265C82.9002 138.321 82.133 138.169 81.4463 137.825C80.7597 137.481 80.1793 136.959 79.7669 136.312V142.131H78.1539V126.995Z" fill="#F1F1F3"/>
<path d="M91.3396 126.994H92.9526V137.94H91.3396V126.994ZM91.0554 124.085C91.0554 123.87 91.1193 123.66 91.2391 123.481C91.3588 123.303 91.529 123.164 91.7281 123.081C91.9273 122.999 92.1464 122.978 92.3578 123.02C92.5691 123.062 92.7633 123.165 92.9157 123.317C93.0681 123.469 93.1719 123.662 93.214 123.873C93.256 124.084 93.2344 124.302 93.1519 124.501C93.0695 124.699 92.9298 124.869 92.7506 124.988C92.5714 125.107 92.3607 125.171 92.1452 125.171C91.8565 125.17 91.5799 125.055 91.3757 124.852C91.1716 124.648 91.0565 124.373 91.0554 124.085Z" fill="#F1F1F3"/>
<path d="M100.904 136.768C101.761 136.785 102.604 136.547 103.325 136.086C104.046 135.624 104.613 134.958 104.953 134.174C105.293 133.39 105.391 132.522 105.234 131.683C105.078 130.843 104.674 130.068 104.074 129.458C103.474 128.848 102.705 128.43 101.866 128.257C101.026 128.084 100.154 128.164 99.361 128.487C98.5675 128.81 97.8884 129.361 97.4104 130.07C96.9325 130.779 96.6772 131.614 96.6772 132.468C96.6559 133.031 96.75 133.593 96.9538 134.118C97.1575 134.644 97.4667 135.122 97.8623 135.525C98.258 135.927 98.7318 136.245 99.2549 136.459C99.7779 136.672 100.339 136.777 100.904 136.768ZM100.904 126.67C102.054 126.674 103.176 127.018 104.129 127.658C105.083 128.298 105.825 129.205 106.261 130.265C106.698 131.324 106.81 132.489 106.583 133.612C106.356 134.735 105.8 135.766 104.986 136.574C104.172 137.383 103.135 137.933 102.008 138.155C100.88 138.377 99.7117 138.261 98.6502 137.821C97.5887 137.382 96.6816 136.639 96.0434 135.686C95.4052 134.734 95.0644 133.614 95.0643 132.468C95.0538 131.702 95.1979 130.941 95.488 130.232C95.778 129.522 96.2082 128.878 96.7529 128.337C97.2976 127.796 97.9458 127.37 98.6589 127.083C99.3721 126.797 100.136 126.656 100.904 126.67Z" fill="#F1F1F3"/>
<path d="M108.838 126.995H110.451V128.841C110.781 128.201 111.29 127.669 111.916 127.311C112.542 126.953 113.259 126.782 113.98 126.82C114.53 126.787 115.08 126.871 115.594 127.067C116.108 127.264 116.574 127.568 116.96 127.959C117.347 128.35 117.644 128.819 117.833 129.335C118.022 129.85 118.097 130.4 118.055 130.947V137.941H116.442V131.294C116.481 130.903 116.434 130.508 116.305 130.137C116.176 129.766 115.968 129.427 115.694 129.144C115.421 128.861 115.089 128.64 114.721 128.498C114.354 128.355 113.959 128.294 113.566 128.319C113.153 128.296 112.739 128.36 112.353 128.507C111.966 128.654 111.614 128.88 111.321 129.171C111.027 129.461 110.798 129.81 110.648 130.195C110.498 130.579 110.431 130.991 110.451 131.403V137.94H108.838V126.995Z" fill="#F1F1F3"/>
<path d="M121.042 134.943C121.273 135.493 121.67 135.957 122.177 136.271C122.685 136.586 123.278 136.736 123.874 136.701C125.617 136.701 126.227 135.964 126.227 135.073C126.227 133.923 125.269 133.444 123.59 132.859C121.804 132.206 120.498 131.404 120.498 129.71C120.502 129.28 120.596 128.855 120.774 128.463C120.952 128.071 121.211 127.721 121.533 127.435C121.855 127.149 122.233 126.932 122.644 126.801C123.055 126.669 123.489 126.624 123.918 126.669C124.585 126.662 125.242 126.839 125.814 127.18C126.387 127.521 126.855 128.014 127.164 128.603L125.922 129.383C125.745 129.014 125.467 128.703 125.12 128.484C124.773 128.266 124.371 128.149 123.961 128.147C122.764 128.147 122.109 128.841 122.109 129.623C122.109 130.644 123.046 131.013 124.375 131.512C126.707 132.358 127.84 133.186 127.84 135.095C127.84 136.941 126.489 138.2 123.897 138.2C122.995 138.27 122.094 138.046 121.331 137.56C120.568 137.074 119.985 136.354 119.67 135.508L121.042 134.943Z" fill="#F1F1F3"/>
<path d="M129.628 122.803H131.241V128.842C131.541 128.21 132.022 127.682 132.623 127.322C133.224 126.963 133.918 126.788 134.618 126.821C135.159 126.798 135.699 126.89 136.201 127.092C136.704 127.294 137.157 127.6 137.53 127.991C137.904 128.382 138.189 128.849 138.367 129.359C138.545 129.869 138.611 130.411 138.561 130.948V137.94H136.95V131.295C136.998 130.915 136.964 130.529 136.848 130.164C136.732 129.799 136.538 129.463 136.278 129.18C136.019 128.897 135.702 128.673 135.347 128.525C134.993 128.376 134.61 128.307 134.226 128.32C133.822 128.308 133.419 128.379 133.044 128.531C132.669 128.683 132.33 128.912 132.048 129.202C131.767 129.492 131.55 129.838 131.411 130.217C131.272 130.596 131.214 131 131.241 131.402V137.94H129.628V122.803Z" fill="#F1F1F3"/>
<path d="M141.157 126.994H142.77V137.94H141.157V126.994ZM140.873 124.085C140.873 123.87 140.937 123.66 141.056 123.481C141.176 123.303 141.346 123.164 141.545 123.081C141.744 122.999 141.964 122.978 142.175 123.02C142.386 123.062 142.581 123.165 142.733 123.317C142.885 123.469 142.989 123.662 143.031 123.873C143.073 124.084 143.052 124.302 142.969 124.501C142.887 124.699 142.747 124.869 142.568 124.988C142.389 125.107 142.178 125.171 141.962 125.171C141.674 125.17 141.397 125.055 141.193 124.852C140.989 124.648 140.874 124.373 140.873 124.085Z" fill="#F1F1F3"/>
<path d="M150.875 136.768C151.952 136.671 152.954 136.176 153.683 135.381C154.413 134.585 154.818 133.546 154.818 132.468C154.818 131.39 154.413 130.351 153.683 129.555C152.954 128.759 151.952 128.264 150.875 128.167C149.769 128.225 148.728 128.703 147.966 129.503C147.203 130.303 146.778 131.364 146.778 132.468C146.778 133.571 147.203 134.632 147.966 135.433C148.728 136.233 149.769 136.711 150.875 136.768ZM145.362 126.995H146.975V128.623C147.387 127.977 147.967 127.454 148.654 127.11C149.341 126.766 150.108 126.614 150.875 126.67C152.371 126.738 153.784 127.379 154.82 128.459C155.855 129.538 156.432 130.974 156.432 132.468C156.432 133.961 155.855 135.397 154.82 136.477C153.784 137.557 152.371 138.197 150.875 138.265C150.108 138.321 149.341 138.169 148.654 137.825C147.968 137.481 147.387 136.959 146.975 136.312V142.131H145.362V126.995Z" fill="#F1F1F3"/>
</g>
<defs>
<clipPath id="clip0_10156_27562">
<rect width="175" height="102" fill="white" transform="translate(13 49)"/>
</clipPath>
</defs>
</svg>
