<svg width="200" height="200" viewBox="0 0 200 200" fill="none" xmlns="http://www.w3.org/2000/svg">
<g clip-path="url(#clip0_9898_54208)">
<mask id="mask0_9898_54208" style="mask-type:luminance" maskUnits="userSpaceOnUse" x="24" y="4" width="153" height="192">
<path d="M176.89 4H24.0013V196H176.89V4Z" fill="white"/>
</mask>
<g mask="url(#mask0_9898_54208)">
<path d="M171.745 9.14642C170.892 6.12181 168.095 4 164.939 4H35.9532C32.798 4 29.9941 6.12181 29.1478 9.14642C29.0374 9.5541 18.2172 52.0158 28.2826 101.466C35.7635 138.254 53.4053 161.512 66.8882 174.552C80.6309 187.838 95.7822 195.997 100.596 195.997C105.9 195.997 120.929 187.195 134.004 174.545C147.483 161.51 165.128 138.251 172.609 101.465C182.665 52.0481 171.858 9.55276 171.743 9.14508L171.745 9.14642Z" fill="white"/>
<path d="M169.448 9.5958C168.904 7.66101 167.141 6.31958 165.125 6.31958H35.7702C33.7493 6.31958 31.984 7.66101 31.4445 9.5958C31.0032 11.1633 20.7843 52.6468 30.613 100.957C37.9942 137.204 55.3427 160.085 68.5929 172.904C82.4742 186.322 96.8505 193.683 100.594 193.683C104.337 193.683 118.416 186.322 132.3 172.904C145.55 160.085 162.896 137.204 170.274 100.957C180.103 52.6468 169.887 11.1633 169.448 9.5958Z" fill="#FE4E00"/>
</g>
<path d="M102.527 82.0657C84.6955 80.9301 69.3141 94.4426 68.1731 112.276C67.0295 130.095 80.5421 145.483 98.3763 146.629C116.198 147.77 131.581 134.25 132.727 116.424C133.871 98.5961 120.353 83.2147 102.528 82.0643L102.527 82.0657Z" fill="white"/>
<path d="M98.7705 132.311C86.3007 131.506 76.4451 122.104 74.5816 110.259C74.4592 111.051 74.3623 111.85 74.3112 112.66C73.3868 127.105 84.3322 139.558 98.7705 140.489C113.201 141.413 125.658 130.462 126.587 116.029C126.716 114.06 126.611 112.127 126.316 110.253C124.242 123.48 112.393 133.183 98.7705 132.311Z" fill="#17A4CC"/>
<path d="M129.279 116.201C128.255 132.129 114.515 144.203 98.5902 143.182C94.4919 142.912 90.6533 141.802 87.2196 140.036C85.6104 135.185 85.418 130.539 85.4544 128.191C88.67 125.417 92.8477 121.761 92.7078 121.586C92.5665 121.412 87.704 124.216 84.0416 126.365C81.7153 125.939 76.9994 124.792 72.5715 121.947C71.7575 118.945 71.4036 115.77 71.6135 112.485C72.0131 106.326 74.3273 100.729 77.9291 96.2548L78.1458 98.3417L79.2208 103.04L83.7026 109.123L83.9273 108.055L82.0934 104.769L83.1738 105.052L85.8002 108.727L85.9858 110.69L93.2204 113.05L94.1515 114.647L97.2999 115.098L96.5828 119.649L98.64 124.013L101.542 125.538L100.462 137.51L102.8 140.104L103.454 139.821L103.142 138.338L105.148 133.859L106.985 133.14L110.752 127.676L113.832 126.313L116.416 120.519L115.919 117.625L109.918 115.584L107.484 113.177L106.757 112.853L99.3571 112.625L98.0359 113.862L95.0462 112.847L92.0203 109.077L89.1329 108.729L89.1988 105.228L93.6173 104.318L95.0758 106.058L95.8078 105.345L94.73 103.153C94.6614 102.97 98.3171 98.5125 98.3171 98.5125L102.436 95.1381L100.704 89.2476L96.3392 89.101L95.9046 90.1693L96.6137 91.7058L95.0341 93.3957L91.3475 90.5312L94.3735 87.4958L101.152 88.0031L102.137 85.5086C102.185 85.5086 102.244 85.5086 102.305 85.5113C107.898 85.8718 113.004 87.8013 117.245 90.8434C118.208 95.7126 118.011 100.114 117.798 102.277C114.535 105.091 109.873 109.153 110.02 109.34C110.171 109.532 115.676 106.338 119.378 104.157C121.5 104.761 125.228 106.092 128.773 108.644C129.259 111.075 129.446 113.609 129.28 116.203L129.279 116.201ZM102.532 82.0103C84.6673 80.864 69.2616 94.4089 68.1086 112.269C66.9649 130.124 80.5071 145.537 98.3682 146.683C116.227 147.829 131.632 134.285 132.776 116.429C133.934 98.5664 120.384 83.1567 102.531 82.0103H102.532Z" fill="#0A169A"/>
<path d="M95.7634 107.124L93.9591 107.928L94.2766 108.318L95.4754 107.994L98.1852 108.889L98.7974 108.457L98.5579 107.935L95.7634 107.124Z" fill="#0A169A"/>
<path d="M99.384 108.571L99.0921 109.243L101.674 109.298L101.815 108.686L101.211 108.306L99.384 108.571Z" fill="#0A169A"/>
<path d="M129.279 116.201C128.255 132.129 114.515 144.203 98.5902 143.182C94.4919 142.912 90.6533 141.802 87.2196 140.036C85.6104 135.185 85.418 130.539 85.4544 128.191C88.67 125.417 92.8477 121.761 92.7078 121.586C92.5665 121.412 87.704 124.216 84.0416 126.365C81.7153 125.939 76.9994 124.792 72.5715 121.947C71.7575 118.945 71.4036 115.77 71.6135 112.485C72.0131 106.326 74.3273 100.729 77.9291 96.2548L78.1458 98.3417L79.2208 103.04L83.7026 109.123L83.9273 108.055L82.0934 104.769L83.1738 105.052L85.8002 108.727L85.9858 110.69L93.2204 113.05L94.1515 114.647L97.2999 115.098L96.5828 119.649L98.64 124.013L101.542 125.538L100.462 137.51L102.8 140.104L103.454 139.821L103.142 138.338L105.148 133.859L106.985 133.14L110.752 127.676L113.832 126.313L116.416 120.519L115.919 117.625L109.918 115.584L107.484 113.177L106.757 112.853L99.3571 112.625L98.0359 113.862L95.0462 112.847L92.0203 109.077L89.1329 108.729L89.1988 105.228L93.6173 104.318L95.0758 106.058L95.8078 105.345L94.73 103.153C94.6614 102.97 98.3171 98.5125 98.3171 98.5125L102.436 95.1381L100.704 89.2476L96.3392 89.101L95.9046 90.1693L96.6137 91.7058L95.0341 93.3957L91.3475 90.5312L94.3735 87.4958L101.152 88.0031L102.137 85.5086C102.185 85.5086 102.244 85.5086 102.305 85.5113C107.898 85.8718 113.004 87.8013 117.245 90.8434C118.208 95.7126 118.011 100.114 117.798 102.277C114.535 105.091 109.873 109.153 110.02 109.34C110.171 109.532 115.676 106.338 119.378 104.157C121.5 104.761 125.228 106.092 128.773 108.644C129.259 111.075 129.446 113.609 129.28 116.203L129.279 116.201ZM102.532 82.0103C84.6673 80.864 69.2616 94.4089 68.1086 112.269C66.9649 130.124 80.5071 145.537 98.3682 146.683C116.227 147.829 131.632 134.285 132.776 116.429C133.934 98.5664 120.384 83.1567 102.531 82.0103H102.532Z" fill="#0A169A"/>
<path d="M140.348 91.0897C152.293 120.321 128.098 143.532 121.631 146.72C121.631 146.72 136.11 145.032 148.168 137.317C148.168 137.317 148.627 137.042 148.36 137.456C141.562 147.392 124.655 161.754 102.822 160.913C71.4278 159.706 62.8424 128.683 62.8303 122.668C62.8303 122.668 57.9462 133.199 59.0239 148.088L58.7239 148.166C58.7535 148.646 58.9338 148.473 58.814 148.28C52.8577 137.834 47.5242 122.458 53.9327 104.73C65.7419 72.0136 99.4486 74.2458 105.536 75.8428C105.536 75.8428 96.9501 66.7084 80.6443 63.0864C80.6887 63.0676 80.2958 62.8496 80.9565 62.7864C86.5792 62.2711 127.21 58.9303 140.35 91.0897H140.348ZM165.175 14.3508C164.812 12.7281 163.712 11.5105 161.792 11.5105H39.0841C37.1722 11.5105 36.0608 12.7281 35.6894 14.3508C34.239 20.7539 29.1572 45.9344 32.4778 78.1395C32.4778 78.1395 32.8169 77.8193 33.4896 77.2623C43.5376 68.6997 64.6951 60.4089 93.6994 71.8064C93.99 71.9611 94.0627 72.0459 93.3873 71.9127C88.701 71.0099 68.5041 68.2517 53.6744 75.7406C37.7077 83.8107 35.3598 100.992 39.886 116.16C57.186 170.254 97.7964 188.152 100.571 188.152C103.567 188.152 152.048 165.212 166.214 100.112C166.282 99.7976 166.187 99.6267 165.958 100.259C165.892 100.445 165.819 100.625 165.76 100.803C156.236 126.36 138.163 138.379 134.561 140.144C134.154 140.337 134.105 140.283 134.39 140.042C137.434 137.479 155.321 121.01 156.338 97.2627C156.413 95.5069 156.367 94.8759 156.155 92.7958C153.931 71.7418 127.69 60.5246 104.623 58.4055C100.552 58.0301 91.8386 57.3278 102.36 57.3278C141.229 57.1959 165.53 75.5778 168.395 78.1369C168.404 78.0682 168.419 77.9323 168.419 77.9323C171.742 45.7298 166.636 20.7512 165.176 14.3481L165.175 14.3508Z" fill="#0A169A"/>
<path d="M97.4869 171.864V171.822C97.4869 171.449 97.5138 171.095 97.5555 170.735H92.2786V168.087H98.3009C98.6857 167.24 99.201 166.478 99.8348 165.805L99.9101 165.6H89.5419V178.046H92.2799V173.225H97.5999C97.5286 172.781 97.4896 172.33 97.4896 171.862L97.4869 171.864Z" fill="white"/>
<path d="M99.9478 171.858V171.822C99.9478 168.298 102.604 165.416 106.414 165.416C108.75 165.416 110.148 166.196 111.304 167.331L109.565 169.323C108.607 168.459 107.634 167.919 106.391 167.919C104.308 167.919 102.797 169.66 102.797 171.791V171.82C102.797 173.946 104.268 175.712 106.391 175.712C107.811 175.712 108.679 175.153 109.649 174.265L111.384 176.018C110.114 177.376 108.695 178.234 106.308 178.234C102.66 178.234 99.9464 175.418 99.9464 171.858H99.9478Z" fill="white"/>
<path d="M159.858 62.8953V19.2388H153.481V60.2554C155.649 61.0829 157.768 61.9682 159.858 62.8939V62.8953Z" fill="#FEFEFE"/>
<path d="M124.648 52.8286V31.1019C124.648 31.1019 130.739 41.2293 133.575 46.7147C133.634 46.7188 133.695 46.7376 133.746 46.7417C136.496 42.163 142.224 32.29 142.224 32.29V56.5421C144.412 57.1543 146.559 57.8176 148.671 58.5334L148.674 19.2375H141.286C141.286 19.2375 136.165 29.4672 133.601 34.2342C130.923 28.9653 125.574 19.2375 125.574 19.2375H118.49L118.483 52.0522C120.57 52.2662 122.623 52.5326 124.647 52.8272L124.648 52.8286Z" fill="#FEFEFE"/>
<path d="M47.4139 60.2568V33.7779C47.4139 33.7779 52.8442 44.3251 55.5432 49.1217C55.5943 49.1001 55.6508 49.0934 55.7087 49.0773C58.5369 42.9338 61.544 37.2075 64.4058 31.792V55.0646C66.5371 54.5708 68.7073 54.1161 70.9206 53.7084V19.2388H63.8421C63.8421 19.2388 58.5288 29.8249 55.8715 35.5997C53.3191 30.5017 48.1687 19.2388 48.1687 19.2388H41.0511L41.0363 62.8939C43.1259 61.9615 45.2477 61.0816 47.4152 60.2554L47.4139 60.2568Z" fill="#FEFEFE"/>
<path d="M82.4069 52.0534V19.2388H75.4669V52.9347C77.7367 52.593 80.0483 52.2997 82.4069 52.0521V52.0534Z" fill="#FEFEFE"/>
<path d="M100.516 27.3546C101.842 30.8085 103.181 34.2744 104.529 37.7565C101.852 37.7148 99.1768 37.7148 96.4953 37.7565C97.8462 34.2704 99.1849 30.8085 100.514 27.3546H100.516ZM91.3085 51.3726C92.2476 48.9131 93.1787 46.4697 94.1098 44.0385C98.379 43.9026 102.651 43.9026 106.919 44.0439C107.85 46.4792 108.783 48.9145 109.725 51.3794C112.079 51.5018 114.397 51.6727 116.669 51.8799C112.241 40.3775 103.632 19.2388 103.632 19.2388H97.5676C97.5676 19.2388 88.958 40.36 84.53 51.853C86.7487 51.6498 89.0091 51.4924 91.3085 51.3726Z" fill="#FEFEFE"/>
</g>
<defs>
<clipPath id="clip0_9898_54208">
<rect width="152.89" height="192" fill="white" transform="translate(24 4)"/>
</clipPath>
</defs>
</svg>
