<svg width="200" height="200" viewBox="0 0 200 200" fill="none" xmlns="http://www.w3.org/2000/svg">
<g clip-path="url(#clip0_9898_54204)">
<path d="M51.9187 33.3022L52.5251 32.3931L55.3706 33.9688L56.1784 32.7582L56.9763 33.1993L55.5597 35.3191L51.9187 33.3022Z" fill="#003E6A"/>
<path d="M55.7782 28.0213L56.8585 26.7666L60.9095 28.357L60.1582 29.2294L59.3824 28.8986L58.5918 29.8151L59.1295 30.4229L58.4421 31.2193L55.7757 28.0189L55.7782 28.0213ZM58.037 29.1853L58.5796 28.5555L56.8241 27.8032L58.037 29.1853Z" fill="#003E6A"/>
<path d="M59.8562 23.6348L61.9898 21.7234L62.8295 21.7307L63.5366 22.385L63.5267 23.0099L64.2338 23.0148L64.9974 23.7206L64.99 24.4852L62.8491 26.404L59.8587 23.6348H59.8562ZM62.6625 23.2869V23.1031L62.2476 22.7183L62.034 22.7134L61.2582 23.4094L61.8818 23.9877L62.6625 23.2893V23.2869ZM63.8975 24.4313V24.2328L63.4359 23.8039L63.2297 23.799L62.4415 24.5048L63.1167 25.1297L63.8975 24.4313Z" fill="#003E6A"/>
<path d="M67.3273 21.819L65.5473 19.6698L65.675 18.8341L67.5409 17.5525L68.4641 17.6677L70.2441 19.8168L70.1115 20.6574L68.2456 21.939L67.3273 21.8214V21.819ZM69.0165 20.427L69.0582 20.1599L67.7766 18.6136L67.482 18.5768L66.7774 19.0621L66.7356 19.3292L68.0172 20.8755L68.3119 20.9122L69.0165 20.427Z" fill="#003E6A"/>
<path d="M71.1623 15.3493L73.7746 14.0015L74.6217 14.2098L75.2895 15.2807L75.0808 15.9521L76.4999 17.0573L75.4417 17.6038L74.1945 16.5917L73.4997 16.9495L74.2804 18.2042L73.264 18.7287L71.1623 15.3493ZM74.0766 15.81L74.138 15.5968L73.7722 15.0087L73.5438 14.9523L72.5716 15.4547L73.1044 16.3124L74.0766 15.81Z" fill="#003E6A"/>
<path d="M82.4856 14.0407L81.5895 11.4774L82.0142 10.7275L84.2386 10.0806L85.0684 10.4653L85.9646 13.0286L85.5325 13.781L83.3081 14.4279L82.4856 14.0407ZM84.5848 13.2369L84.7223 12.9968L84.0765 11.1515L83.8138 11.0265L82.9717 11.2716L82.8367 11.5117L83.4824 13.357L83.7476 13.482L84.5897 13.2369H84.5848Z" fill="#003E6A"/>
<path d="M88.5965 9.03409L90.3471 8.78168L91.7048 11.5239L92.0608 8.53172L93.8138 8.27686L94.484 12.112L93.3866 12.2713L92.8538 9.22523L92.4462 12.4085L91.1597 12.5948L89.7112 9.68349L90.2439 12.7296L89.2668 12.8693L88.5965 9.03409Z" fill="#003E6A"/>
<path d="M97.6389 8.05391L98.8272 8.03676L100.227 10.2962L100.187 8.0147L101.226 8L101.295 11.8842L100.094 11.9038L98.7069 9.60759L98.7487 11.9234L97.7101 11.9381L97.6389 8.05391Z" fill="#003E6A"/>
<path d="M104.42 11.3279L105.122 11.3965L105.41 8.99493L104.71 8.92631L104.796 8.19849L107.371 8.4558L107.283 9.18362L106.576 9.11256L106.289 11.5141L106.996 11.5827L106.907 12.3155L104.334 12.0606L104.42 11.3279Z" fill="#003E6A"/>
<path d="M111.621 9.13452L113.325 9.49231L113.458 13.5064L112.264 13.2589V12.4796L111.027 12.2198L110.659 12.9207L109.576 12.6928L111.624 9.13697L111.621 9.13452ZM111.425 11.4895L112.279 11.6684V9.90156L111.425 11.4895Z" fill="#003E6A"/>
<path d="M121.047 11.7642L122.159 12.22L121.39 15.3077L123.421 12.7395L124.44 13.1561L121.793 16.3321L120.185 15.6728L121.047 11.7642Z" fill="#003E6A"/>
<path d="M125.488 17.2313L126.092 17.5597L127.452 15.4865L126.846 15.1557L127.258 14.5283L129.483 15.7365L129.07 16.3663L128.461 16.033L127.101 18.1086L127.712 18.4395L127.297 19.0742L125.073 17.8636L125.488 17.2313Z" fill="#003E6A"/>
<path d="M132.409 17.5205L133.347 18.1797L132.898 20.7406L134.425 18.9369L135.247 19.5128L132.642 22.5883L131.695 21.9218L132.178 19.3413L130.627 21.1719L129.807 20.596L132.409 17.5205Z" fill="#003E6A"/>
<path d="M135.461 24.0562L137.553 22.157H138.481L140.101 23.6371L140.104 24.485L139.468 25.0609L138.584 24.3037L138.883 23.9827V23.7352L138.387 23.1446H138.09L136.568 24.5463L136.571 24.8208L137.177 25.382L137.445 25.3869L137.825 25.0438L138.655 25.801L138.009 26.3842L137.079 26.3793L135.461 24.9016V24.0562Z" fill="#003E6A"/>
<path d="M140.064 28.3276L140.501 28.8324L142.583 27.3376L142.149 26.8327L142.78 26.3818L144.381 28.2345L143.75 28.6878L143.31 28.1781L141.228 29.673L141.668 30.1802L141.032 30.6361L139.428 28.7834L140.064 28.3276Z" fill="#003E6A"/>
<path d="M146.06 31.9667L145.458 31.0845L146.259 30.6335L148.078 33.3096L147.28 33.7605L146.676 32.8758L143.85 34.4712L143.232 33.562L146.06 31.9667Z" fill="#003E6A"/>
<path d="M95.5889 184.705C95.0315 184.305 81.7883 174.76 68.3462 160.873C58.1057 150.293 50.5781 140.136 45.9428 130.652C44.2634 130.397 41.3811 129.954 36.3774 129.182L33.387 128.721V101.831L36.154 101.238C37.4847 100.953 38.8449 100.674 40.264 100.392V43.2983L58.1352 54.4485C60.9071 35.6745 78.6113 21.1499 99.9714 21.1499C121.331 21.1499 139.026 35.6672 141.803 54.4362L159.649 43.2983V100.395C161.068 100.676 162.429 100.956 163.759 101.24L166.526 101.833V104.423C166.526 111.29 166.585 125.805 166.585 125.949L166.597 128.726L163.592 129.187C158.552 129.958 155.657 130.402 153.97 130.657C149.338 140.141 141.808 150.298 131.569 160.878C118.13 174.765 104.884 184.31 104.327 184.71L99.9566 187.844L95.5864 184.71L95.5889 184.705Z" fill="white"/>
<path d="M99.9713 24.4141C121.302 24.4141 138.594 40.1641 138.594 59.5948C138.594 59.8644 138.589 60.1364 138.584 60.4035L156.062 49.4959V103.036C158.36 103.473 160.653 103.928 162.942 104.419C162.942 111.371 163.001 125.957 163.001 125.957L151.449 127.729C147.047 137.369 139.509 147.73 128.881 158.711C115.667 172.364 102.657 181.744 102.11 182.136L99.9591 183.68L97.8083 182.136C97.2608 181.744 84.2509 172.364 71.0371 158.711C60.4578 147.782 52.9425 137.47 48.5305 127.866C48.5084 127.819 48.4888 127.775 48.4691 127.729L36.9765 125.957V104.419C39.2622 103.928 41.5554 103.473 43.8559 103.036V49.4959L61.3613 60.4182C61.3539 60.1437 61.349 59.8693 61.349 59.5948C61.349 40.1641 78.6408 24.4141 99.9713 24.4141ZM99.9713 17.876C78.7537 17.876 60.8604 31.0871 55.68 48.9519L36.6794 37.0935V97.7701L29.8 99.238V131.48C29.8 131.48 41.6978 133.316 43.4753 133.585C48.3022 142.907 55.7487 152.796 65.6554 163.032C79.2865 177.115 92.7998 186.861 93.3694 187.27L95.5201 188.814L99.9615 192L104.403 188.814L106.554 187.27C107.123 186.864 120.634 177.118 134.268 163.032C144.174 152.798 151.618 142.91 156.445 133.59L170.204 131.48V99.2355L163.244 97.7676V37.091L144.263 48.9372C139.08 31.0773 121.189 17.876 99.9763 17.876" fill="#BDBDBF"/>
<path d="M99.9713 24.4115C121.302 24.4115 138.594 40.1614 138.594 59.5921C138.594 59.8617 138.589 60.1337 138.584 60.4008L156.062 49.4933V103.034C158.36 103.47 160.653 103.926 162.942 104.416C162.942 111.368 163.001 125.954 163.001 125.954L151.449 127.726C147.047 137.366 139.509 147.728 128.881 158.709C115.667 172.361 102.657 181.742 102.11 182.134L99.9591 183.675L97.8083 182.134C97.2608 181.742 84.2509 172.361 71.0371 158.709C60.4578 147.779 52.9425 137.464 48.5305 127.863C48.5084 127.817 48.4888 127.772 48.4691 127.726L36.9765 125.954V104.416C39.2622 103.926 41.5554 103.47 43.8559 103.034V49.4933L61.3613 60.4155C61.3539 60.1411 61.349 59.8666 61.349 59.5921C61.349 40.1614 78.6408 24.4115 99.9713 24.4115ZM99.9713 19.8853C78.6727 19.8853 60.8948 33.8683 57.1187 52.2845L38.8841 40.9089V99.3774L32.0072 100.831V129.779C32.0072 129.779 43.2126 131.507 44.9877 131.777C49.6992 141.199 57.1997 151.254 67.3102 161.701C80.8112 175.65 94.1722 185.285 94.7345 185.69L96.8852 187.233L99.9591 189.439L103.033 187.233L105.184 185.692C105.746 185.288 119.105 175.654 132.608 161.703C142.716 151.259 150.214 141.207 154.928 131.784L167.985 129.782L167.908 100.833C167.908 100.833 162.068 99.5882 161.029 99.3799V40.9089L142.819 52.2722C139.038 33.8634 121.263 19.8877 99.9713 19.8877" fill="#CED0D0"/>
<path d="M149.112 53.8334V108.648C149.112 136.242 109.694 168.107 99.9591 175.552C90.2218 168.109 50.8065 136.266 50.8065 108.648V53.8334L43.8559 49.4959V108.646C43.8559 123.229 53.0014 140.072 71.0371 158.709C84.2509 172.361 97.2608 181.742 97.8083 182.134L99.9591 183.678L102.11 182.134C102.657 181.742 115.667 172.361 128.881 158.709C146.919 140.072 156.065 123.229 156.065 108.646V49.4934L149.114 53.8309L149.112 53.8334Z" fill="#003E6A"/>
<path d="M99.9664 20.3314L103.804 31.0895H96.129L99.9664 20.3314ZM99.9664 15.3469L98.3583 19.856L94.5209 30.6141L93.8015 32.6309H106.131L105.412 30.6141L101.575 19.856L99.9664 15.3469Z" fill="white"/>
<path d="M140.924 47.4963L130.877 54.1447L128.405 47.4963H140.924ZM146.129 45.9548H126.045L126.801 47.9888L129.274 54.6373L130.01 56.6198L131.869 55.3896L141.916 48.7412L146.126 45.9548H146.129Z" fill="white"/>
<path d="M71.4128 47.4545L69.0411 54.103L58.9945 47.4545H71.4128ZM73.7403 45.9131H53.7895L58.0001 48.6994L68.0467 55.3479L69.9298 56.5952L70.6492 54.5784L73.0209 47.9299L73.7403 45.9131Z" fill="white"/>
<path d="M109.659 138.457V141.618H107.958V131.647H109.659V134.607H111.592V131.534L111.555 131.502L109.441 130.032H108.272L105.999 131.539V141.653L106.033 141.685L108.255 143.155H109.424L111.592 141.65V138.457H109.659Z" fill="#003E6A"/>
<path d="M91.5305 131.625H94.1722V130.032H93.8359H91.3267L89.0532 131.539V142.959H91.0124V136.497H93.4062V134.904H91.0124V131.983L91.5305 131.625Z" fill="#003E6A"/>
<path d="M90.9903 50.7996L85.5055 54.4289V65.0277L91.0885 68.7134L93.8285 66.8999V52.6792L90.9903 50.7971V50.7996ZM91.3389 64.9346L90.4404 65.5252L87.9975 63.9127V55.5513L90.3471 53.9951L91.3389 54.6494V64.9346Z" fill="#003E6A"/>
<path d="M101.724 46.038V57.4921L98.5719 59.6045V45.793L95.9768 47.4986V71.953L98.5719 73.6807V62.256L99.3183 61.7561V61.7659L101.724 63.3588V73.4283L104.317 71.7006V62.5207L101.226 60.4744L104.317 58.3988V47.7559L101.724 46.038Z" fill="#003E6A"/>
<path d="M111.923 62.2462V63.9126L109.473 65.5202L108.579 64.9345V54.6494L109.566 53.9976L111.923 55.561V58.5557L114.413 56.8304V54.4117L108.923 50.8044L106.09 52.6816V66.9024L108.83 68.7133L114.413 65.013V60.5994L111.923 62.2462Z" fill="#003E6A"/>
<path d="M131.255 55.8011C131.434 57.0387 131.53 58.3007 131.53 59.5824C131.53 65.7824 129.36 71.5241 125.679 76.2219L120.295 61.1287L140.921 47.4789H111.39L112.64 50.9832H129.085L115.775 59.7907L125.201 86.1565C127.58 84.2794 129.708 82.1449 131.528 79.7924V133.45C135.051 127.946 137.43 122.79 138.569 118.149V59.5799C138.569 56.8426 138.221 54.1788 137.567 51.6204L131.253 55.7987L131.255 55.8011ZM58.9945 47.474L82.8858 63.295L84.1355 59.7907L70.8309 50.9759H87.2805L96.6839 24.5414C82.1271 25.6613 69.8414 34.1624 64.3811 45.9154H72.1861C75.9622 39.5733 82.2843 34.6623 89.8928 32.3269L84.4915 47.474H58.9945ZM125.274 91.3395L116.131 65.7628L112.861 67.9291L117.96 82.1694L104.651 73.362L78.8937 90.4328V147.139C80.2931 148.718 81.7638 150.311 83.3105 151.918C84.1846 152.827 85.0611 153.712 85.9351 154.582V92.3443C89.2422 93.523 92.7654 94.2999 96.4408 94.6037V164.308C97.6807 165.382 98.8641 166.381 99.9664 167.296C101.064 166.386 102.242 165.389 103.482 164.318V94.6062C107.158 94.3023 110.681 93.5255 113.988 92.3467V154.587C114.774 153.805 115.559 153.009 116.347 152.195C117.992 150.497 119.549 148.811 121.027 147.144V90.4402L113.598 85.5243C109.468 87.3328 104.842 88.3474 99.9615 88.3474C96.679 88.3474 93.5142 87.8867 90.5386 87.0363L104.651 77.6971L125.277 91.3469L125.274 91.3395ZM99.964 20.3337L90.8356 45.913H94.8793L99.964 31.6702L105.049 45.9203H135.537C130.077 34.1698 117.798 25.6613 103.244 24.5389L105.655 31.3026C113.644 32.6332 120.587 36.7135 125.265 42.4209H107.843L99.964 20.3337ZM74.6438 91.3395L98.5424 75.5283L95.2721 73.362L81.9602 82.167L87.0448 67.9168L62.3581 51.5836C61.7001 54.1543 61.3514 56.8304 61.3514 59.5824V118.151C62.4906 122.79 64.8697 127.946 68.3929 133.45V79.7924C70.2097 82.1425 72.3383 84.277 74.7174 86.1541L77.1259 79.4052C71.7982 74.3153 68.4935 67.4561 68.4027 59.9034L82.5273 69.2524L74.6487 91.3395H74.6438Z" fill="#20AA4D"/>
<path d="M162.942 125.954C121.624 117.112 78.2946 117.112 36.9765 125.954V104.418C78.2946 95.5767 121.624 95.5767 162.942 104.418V125.954Z" fill="white"/>
<path d="M36.9765 125.949L48.4667 127.721C63.6249 123.844 78.8323 123.136 94.3465 122.714C98.098 122.589 101.818 122.589 105.569 122.714C121.16 123.129 136.237 123.817 151.466 127.723L163.018 125.952C121.675 117.105 78.3192 117.105 36.9765 125.952" fill="#003E6A"/>
<path d="M79.8733 103.742C78.4444 103.84 77.0179 103.948 75.5915 104.063V112.601C73.7746 109.903 71.9603 107.219 70.1459 104.551C67.1555 104.847 64.1675 105.188 61.1845 105.57C61.7075 106.332 62.2304 107.097 62.7509 107.864V116.796C64.1724 116.622 65.594 116.458 67.018 116.304V107.727C68.8201 110.388 70.6271 113.064 72.4341 115.757C75.4294 115.48 78.4272 115.248 81.4299 115.056C80.9118 114.26 80.3913 113.464 79.8733 112.67V103.742ZM135.623 109.783C136.148 110.67 136.676 111.557 137.202 112.447C137.202 113.008 137.202 113.566 137.199 114.128C134.972 113.875 132.743 113.65 130.509 113.444C130.204 112.939 129.902 112.437 129.598 111.934V106.901C132.863 107.19 136.126 107.531 139.382 107.92C138.859 107.031 138.333 106.144 137.808 105.257C134.908 104.923 132.004 104.632 129.097 104.379C127.145 104.21 125.193 104.058 123.241 103.926C123.757 104.776 124.273 105.627 124.788 106.479V111.942C125.535 113.169 126.279 114.397 127.025 115.627C131.842 116.015 136.649 116.512 141.447 117.117V111.513C141.228 111.135 141.01 110.758 140.791 110.381C139.07 110.167 137.346 109.967 135.623 109.78M121.506 108.19V106.707C120.855 105.636 120.202 104.568 119.551 103.502C113.86 103.181 108.162 103.014 102.463 103C102.991 103.828 103.519 104.659 104.047 105.492V114.427C105.655 114.439 107.263 114.463 108.869 114.5V110.81C110.759 110.854 112.647 110.912 114.538 110.991C115.304 112.253 116.07 113.517 116.838 114.784C118.547 114.865 120.256 114.961 121.965 115.071C121.167 113.75 120.366 112.432 119.569 111.116C120.214 110.138 120.862 109.163 121.511 108.19M116.694 107.906C116.563 108.104 116.433 108.303 116.303 108.499C113.828 108.383 111.351 108.298 108.871 108.241V105.558C111.349 105.614 113.826 105.7 116.303 105.815C116.433 106.026 116.563 106.237 116.694 106.445V107.901V107.906ZM155.367 107.972C154.322 109.565 153.273 111.162 152.227 112.765C151.248 112.606 150.268 112.454 149.288 112.304C148.24 110.373 147.189 108.447 146.138 106.526C144.469 106.288 142.797 106.065 141.123 105.857C142.993 109.077 144.862 112.314 146.728 115.569C147.734 115.713 148.738 115.863 149.743 116.017C149.225 116.76 148.704 117.505 148.186 118.25C149.846 118.495 151.501 118.754 153.158 119.029C155.561 115.615 157.958 112.231 160.351 108.874C158.692 108.56 157.032 108.261 155.367 107.974M100.357 105.482C99.8314 104.656 99.3084 103.833 98.783 103.009C93.9365 103.051 89.0925 103.205 84.2533 103.47V112.422C84.7763 113.218 85.3017 114.012 85.8246 114.811C90.6466 114.571 95.4759 114.444 100.305 114.424V111.942C96.6912 111.956 93.0772 112.032 89.4681 112.17C89.3355 111.969 89.2054 111.765 89.0728 111.564V110.248C92.1762 110.126 95.2795 110.05 98.3853 110.018V107.55C95.2795 107.582 92.1762 107.658 89.0728 107.781V105.727C92.8342 105.58 96.5955 105.499 100.359 105.482M58.7391 108.381C58.2186 107.624 57.6981 106.869 57.1777 106.114C52.3753 106.793 47.5853 107.582 42.8149 108.481V117.433C43.3305 118.159 43.8485 118.887 44.3641 119.615C49.1198 118.742 53.8951 117.98 58.6827 117.326V114.843C55.0981 115.331 51.5234 115.882 47.956 116.492C47.8259 116.309 47.6958 116.122 47.5656 115.939V114.623C50.6297 114.093 53.7011 113.608 56.7775 113.172V110.704C53.7011 111.143 50.6297 111.628 47.5656 112.157V110.104C51.2779 109.462 55.0024 108.888 58.7342 108.379" fill="#003E6A"/>
</g>
<defs>
<clipPath id="clip0_9898_54204">
<rect width="140.402" height="184" fill="white" transform="translate(29.8 8)"/>
</clipPath>
</defs>
</svg>
