<svg width="200" height="200" viewBox="0 0 200 200" fill="none" xmlns="http://www.w3.org/2000/svg">
<g clip-path="url(#clip0_9898_54203)">
<path d="M100.048 192.413L98.4117 191.655C85.462 185.655 73.6689 171.464 63.3608 149.477C52.4482 126.2 47.7267 103.914 46.539 97.6381C41.4967 70.9854 43.4639 25.593 44.5544 16.9709L44.8732 14.4634L47.2951 13.735C63.0926 8.98211 87.4991 7.25537 100.048 7.25537C112.598 7.25537 137.004 8.98017 152.804 13.7331L155.226 14.4614L155.544 16.969C156.637 25.591 158.602 70.9854 153.562 97.6342C152.374 103.91 147.653 126.196 136.74 149.473C126.432 171.461 114.639 185.651 101.689 191.651L100.052 192.409L100.048 192.413ZM52.0225 20.4827C50.9651 32.9777 49.6783 72.3547 54.1879 96.1911C56.5477 108.659 62.0468 128.335 70.4091 146.175C79.3234 165.189 89.5382 178.134 100.048 183.777C110.559 178.134 120.773 165.189 129.688 146.175C138.052 128.337 143.551 108.659 145.911 96.1911C150.421 72.3547 149.134 32.9777 148.076 20.4827C133.121 16.5281 111.05 15.0344 100.05 15.0344C89.0503 15.0344 66.9802 16.5281 52.0245 20.4827" fill="#231F20"/>
<path d="M100.048 196L97.0413 194.607C83.3763 188.277 71.0525 173.558 60.4101 150.856C49.3362 127.234 44.5427 104.611 43.3375 98.2402C38.2292 71.2437 40.2177 25.288 41.3218 16.5611L41.905 11.9539L46.3544 10.6156C62.49 5.7617 87.3048 4 100.048 4C112.792 4 137.609 5.7617 153.742 10.6175L158.192 11.9558L158.775 16.563C159.881 25.29 161.868 71.2437 156.761 98.2422C155.556 104.613 150.763 127.237 139.689 150.858C129.044 173.558 116.721 188.279 103.057 194.609L100.048 196.002V196ZM47.8394 16.9709L47.7869 17.3788C46.7081 25.896 44.7643 70.729 49.7385 97.0302C50.9087 103.211 55.5583 125.161 66.3096 148.092C76.2833 169.367 87.5458 183.029 99.7802 188.697L100.046 188.821L100.313 188.697C112.547 183.029 123.81 169.369 133.783 148.092C144.533 125.163 149.184 103.211 150.354 97.0302C155.331 70.727 153.385 25.894 152.306 17.3769L152.254 16.969L151.859 16.8505C136.398 12.1986 112.401 10.5107 100.045 10.5107C87.6877 10.5107 63.6951 12.2005 48.234 16.8524L47.8394 16.9709ZM100.048 187.473L98.507 186.646C87.3864 180.675 76.6487 167.158 67.4603 147.556C58.9697 129.444 53.3832 109.459 50.9884 96.7951C46.4943 73.0365 47.5887 34.2519 48.7783 20.2069L48.9727 17.9207L51.1925 17.3341C66.6089 13.2572 88.8579 11.7791 100.052 11.7791C111.247 11.7791 133.496 13.2591 148.912 17.3341L151.132 17.9207L151.326 20.2069C152.516 34.25 153.612 73.0326 149.116 96.7951C146.721 109.457 141.135 129.44 132.642 147.556C123.454 167.158 112.718 180.673 101.596 186.646L100.054 187.473H100.048ZM55.0957 23.0699C54.1413 37.0217 53.1927 73.39 57.3913 95.587C59.7142 107.861 65.1297 127.232 73.3618 144.794C81.5044 162.163 90.7006 174.289 100.05 180.022C109.4 174.289 118.596 162.164 126.739 144.794C134.975 127.228 140.388 107.859 142.711 95.587C146.912 73.3861 145.961 37.0217 145.007 23.0699C130.378 19.6008 109.974 18.2917 100.052 18.2917C90.1311 18.2917 69.7268 19.6008 55.0976 23.0699H55.0957Z" fill="white"/>
<mask id="mask0_9898_54203" style="mask-type:luminance" maskUnits="userSpaceOnUse" x="43" y="7" width="114" height="186">
<path d="M156.851 7.25537H43.2462V192.411H156.851V7.25537Z" fill="white"/>
</mask>
<g mask="url(#mask0_9898_54203)">
<mask id="mask1_9898_54203" style="mask-type:luminance" maskUnits="userSpaceOnUse" x="43" y="7" width="114" height="186">
<path d="M156.851 7.25537H43.2462V192.411H156.851V7.25537Z" fill="white"/>
</mask>
<g mask="url(#mask1_9898_54203)">
<path d="M100.048 43.1654C127.157 43.1654 149.198 65.0594 149.911 92.3356C153.579 65.2944 151.915 25.2492 151.023 18.1073C136.028 13.535 112.405 11.7947 100.048 11.7947C87.6916 11.7947 64.0703 13.535 49.0757 18.1073C48.1835 25.2492 46.5176 65.2944 50.1876 92.3356C50.9009 65.0594 72.9419 43.1654 100.05 43.1654" fill="#231F20"/>
<path d="M100.048 142.924C80.4081 142.924 63.3958 131.728 55.0218 115.381C62.9818 142.675 78.3923 177.445 100.048 187.475C121.704 177.443 137.115 142.675 145.075 115.381C136.701 131.726 119.689 142.924 100.048 142.924Z" fill="#231F20"/>
<path d="M153.204 93.0444C153.204 88.9111 152.714 84.8904 151.814 81.0252C154.063 55.1474 152.473 23.7088 151.682 17.4583C136.487 12.888 112.57 11.1458 100.05 11.1458C87.5302 11.1458 63.6116 12.8861 48.4167 17.4583C47.6256 23.7088 46.0336 55.1474 48.2826 81.0252C47.3846 84.8904 46.8928 88.9111 46.8928 93.0444C46.8928 105.24 51.0389 116.483 57.9823 125.458C66.5195 150.817 80.8241 179.218 100.048 188.126C119.273 179.22 133.577 150.819 142.115 125.458C149.058 116.483 153.204 105.24 153.204 93.0444ZM57.5488 25.1519C71.657 22.0636 90.3021 20.871 100.048 20.871C109.795 20.871 128.44 22.0636 142.55 25.1519C143.046 33.4885 143.462 47.5277 143.086 61.9262C133.418 48.6134 117.733 39.9312 100.05 39.9312C82.3674 39.9312 66.6828 48.6134 57.0142 61.9262C56.6391 47.5296 57.0551 33.4885 57.5507 25.1519M100.05 176.959C91.6064 171.206 83.2635 159.837 75.6982 143.701C74.9848 142.18 74.2948 140.643 73.6242 139.101C81.415 143.582 90.4343 146.158 100.05 146.158C109.666 146.158 118.686 143.58 126.477 139.101C125.806 140.643 125.116 142.18 124.403 143.701C116.837 159.837 108.494 171.206 100.05 176.959Z" fill="white"/>
<path d="M100.048 17.9517C110.415 17.9517 130.726 19.29 145.304 22.792C146.204 36.1611 147.413 72.5333 143.042 95.6491C138.04 122.088 122.144 167.141 100.048 180.422C77.953 167.141 62.0584 122.086 57.057 95.6491C52.6834 72.5333 53.8925 36.1611 54.7944 22.792C69.373 19.29 89.684 17.9517 100.048 17.9517ZM100.048 11.1458C87.5263 11.1458 63.6116 12.888 48.4167 17.4583C47.4507 25.0762 45.2969 70.1384 50.3625 96.9135C55.4281 123.689 72.7922 175.497 100.048 188.124C127.303 175.497 144.669 123.689 149.734 96.9135C154.8 70.1384 152.646 25.0762 151.68 17.4583C136.485 12.888 112.57 11.1458 100.048 11.1458Z" fill="#EF4937"/>
<path d="M100.049 192.413L98.4119 191.655C85.4622 185.655 73.6691 171.464 63.361 149.477C52.4484 126.2 47.7269 103.914 46.5392 97.6381C41.4969 70.9854 43.4641 25.593 44.5546 16.9709L44.8733 14.4634L47.2953 13.735C63.0927 8.98211 87.4993 7.25537 100.049 7.25537C112.598 7.25537 137.004 8.98017 152.804 13.7331L155.226 14.4614L155.545 16.969C156.637 25.591 158.602 70.9854 153.562 97.6342C152.374 103.91 147.653 126.196 136.74 149.473C126.432 171.461 114.639 185.651 101.689 191.651L100.052 192.409L100.049 192.413ZM52.0227 20.4827C50.9653 32.9777 49.6785 72.3547 54.1881 96.1911C56.5479 108.659 62.047 128.335 70.4093 146.175C79.3236 165.189 89.5384 178.134 100.049 183.777C110.559 178.134 120.774 165.189 129.688 146.175C138.052 128.337 143.551 108.659 145.911 96.1911C150.421 72.3547 149.134 32.9777 148.076 20.4827C133.121 16.5281 111.051 15.0344 100.051 15.0344C89.0505 15.0344 66.9804 16.5281 52.0246 20.4827" fill="#231F20"/>
<path d="M90.3391 157.783C89.7345 157.686 89.1319 157.579 88.5294 157.464V152.365C89.1319 152.48 89.7345 152.585 90.3391 152.684V153.358C90.0067 153.306 89.6743 153.247 89.3399 153.189V154.479C89.6723 154.537 90.0047 154.593 90.3391 154.648V155.296C90.0067 155.242 89.6743 155.186 89.3399 155.127V156.969C89.6723 157.027 90.0047 157.083 90.3391 157.138V157.787V157.783Z" fill="white"/>
<path d="M93.9507 157.491C93.8651 158.027 93.5172 158.289 92.8816 158.214C92.242 158.136 91.8397 157.788 91.8397 157.132V156.388C92.1001 156.425 92.3606 156.458 92.623 156.491V157.248C92.623 157.468 92.7338 157.602 92.8952 157.617C93.0643 157.639 93.1537 157.511 93.1615 157.318C93.1673 157.136 93.1673 156.978 93.1615 156.846C93.1556 156.722 93.1168 156.576 93.0643 156.471C92.8835 156.106 92.3917 155.539 92.1779 155.226C91.9719 154.921 91.8863 154.688 91.8727 154.376C91.8669 154.168 91.8786 153.946 91.8863 153.801C91.9174 153.261 92.2479 152.903 92.9224 152.981C93.5502 153.059 93.9662 153.358 93.9662 154.179V154.834C93.7038 154.807 93.4433 154.778 93.1809 154.749V153.983C93.1809 153.762 93.1032 153.639 92.9282 153.616C92.7669 153.597 92.6755 153.704 92.6755 153.923V154.312C92.6755 154.599 92.8058 154.758 92.8835 154.869C92.9613 154.978 93.5366 155.716 93.7718 156.097C93.869 156.256 93.972 156.569 93.9857 156.734C93.9973 156.945 93.9915 157.246 93.9526 157.487" fill="white"/>
<path d="M97.3718 154.117C97.1813 154.108 96.9908 154.096 96.7983 154.084V158.497C96.5223 158.48 96.2482 158.462 95.9722 158.443V154.03C95.7856 154.016 95.599 154.003 95.4124 153.987V153.302C96.0636 153.354 96.7167 153.399 97.3698 153.432V154.117H97.3718Z" fill="white"/>
<path d="M99.3137 156.586C99.061 156.58 98.8569 156.367 98.8569 156.114C98.8569 155.862 99.0648 155.661 99.3137 155.665C99.5741 155.669 99.7763 155.881 99.7763 156.133C99.7763 156.386 99.5741 156.59 99.3137 156.586Z" fill="#EF4937"/>
<path d="M103.228 154.925C103.223 155.127 103.17 155.361 103.079 155.592C102.741 156.415 102.416 157.194 102.095 157.928C102.472 157.921 102.849 157.909 103.228 157.893V158.567C102.603 158.593 101.979 158.608 101.353 158.612V157.899C101.926 156.611 102.231 155.836 102.395 155.38C102.453 155.207 102.48 155.089 102.48 154.918V154.535C102.48 154.321 102.433 154.187 102.292 154.191C102.142 154.195 102.084 154.333 102.084 154.545V155.193C101.841 155.199 101.598 155.203 101.355 155.205V154.551C101.355 153.857 101.817 153.607 102.332 153.587C102.879 153.568 103.23 153.921 103.244 154.492C103.244 154.624 103.236 154.725 103.23 154.925" fill="white"/>
<path d="M106.657 157.363C106.657 157.99 106.3 158.447 105.734 158.492C105.168 158.536 104.817 158.324 104.817 157.507V154.428C104.817 153.9 105.091 153.469 105.734 153.418C106.325 153.373 106.655 153.607 106.657 154.279V157.363ZM105.911 154.284C105.911 154.09 105.864 154.014 105.742 154.026C105.623 154.036 105.567 154.135 105.565 154.317V157.596C105.565 157.796 105.623 157.891 105.742 157.882C105.858 157.872 105.911 157.763 105.911 157.569V154.284Z" fill="white"/>
<path d="M109.433 158.027C109.188 158.06 108.941 158.092 108.695 158.123V154.067C108.695 154.067 108.687 154.067 108.683 154.067C108.514 154.286 108.347 154.506 108.177 154.724V153.869C108.389 153.634 108.601 153.395 108.811 153.158C109.019 153.133 109.225 153.106 109.433 153.076V158.027Z" fill="white"/>
<path d="M111.978 157.684C111.468 157.773 111.037 157.602 111.037 156.994V156.054C111.27 156.017 111.505 155.976 111.739 155.937V156.825C111.739 157.039 111.777 157.122 111.925 157.097C112.067 157.072 112.131 156.944 112.131 156.73V155.454C112.131 155.285 112.003 155.256 111.68 155.337V154.768C112.003 154.758 112.129 154.65 112.131 154.436V153.548C112.131 153.337 112.098 153.224 111.958 153.249C111.81 153.276 111.758 153.42 111.758 153.614V154.275C111.519 154.317 111.276 154.356 111.037 154.395V153.727C111.037 153.168 111.385 152.74 111.964 152.645C112.557 152.548 112.866 152.824 112.866 153.395C112.866 153.529 112.86 154.024 112.852 154.226C112.841 154.552 112.71 154.764 112.46 154.91V154.918C112.672 154.91 112.852 155.077 112.872 155.306C112.905 155.644 112.885 156.456 112.872 156.699C112.846 157.208 112.462 157.598 111.978 157.685" fill="white"/>
<path d="M102.117 30.3071L100.144 35.0347C100.089 35.1649 99.9532 35.1649 99.9007 35.0347L97.9258 30.3071C97.9005 30.2469 97.9005 30.1731 97.9258 30.1128L99.9007 25.3832C99.9551 25.2531 100.089 25.2531 100.144 25.3832L102.117 30.1128C102.142 30.1731 102.142 30.2469 102.117 30.3071Z" fill="white"/>
<path d="M107.598 33.2302L102.299 35.3784C102.154 35.4367 102.058 35.3551 102.126 35.2308L104.636 30.6916C104.667 30.6333 104.729 30.5808 104.797 30.5537L110.096 28.4054C110.242 28.3472 110.337 28.4287 110.267 28.553L107.76 33.0923C107.728 33.1506 107.666 33.203 107.598 33.2302Z" fill="white"/>
<path d="M95.4649 30.6916L97.9724 35.2308C98.0404 35.3551 97.9452 35.4367 97.8014 35.3784L92.5025 33.2302C92.4345 33.203 92.3742 33.1506 92.3412 33.0923L89.8317 28.553C89.7637 28.4287 89.8589 28.3472 90.0047 28.4054L95.3036 30.5537C95.3716 30.5808 95.4318 30.6333 95.4649 30.6916Z" fill="white"/>
<path d="M147.841 93.0446C147.841 66.6696 126.444 45.2883 100.048 45.2883C73.6533 45.2883 52.2577 66.6696 52.2577 93.0446C52.2577 119.42 73.6553 140.801 100.05 140.801C126.445 140.801 147.843 119.42 147.843 93.0446" fill="white"/>
<path d="M100.048 143.394C72.2635 143.394 49.6608 120.806 49.6608 93.0446C49.6608 65.2827 72.2654 42.6953 100.048 42.6953C127.831 42.6953 150.436 65.2827 150.436 93.0446C150.436 120.806 127.831 143.394 100.048 143.394ZM100.048 52.9101C77.9006 52.9101 59.8833 70.9155 59.8833 93.0446C59.8833 115.174 77.9025 133.179 100.048 133.179C122.194 133.179 140.214 115.176 140.214 93.0446C140.214 70.9136 122.194 52.9101 100.048 52.9101Z" fill="#231F20"/>
<path d="M68.4964 128.987L66.2202 126.954L67.0677 126.006L67.1299 126.402L68.8968 127.995L69.3108 128.022L69.686 127.603L69.5985 127.197L68.3681 126.093L68.1095 124.72L68.2748 124.66L68.9959 123.854L69.0251 123.685L70.4266 123.794L72.4987 125.647L71.6512 126.594L71.6026 126.198L70.032 124.792L69.6179 124.765L69.2681 125.157L69.3497 125.596L70.6365 126.746L70.8795 128.001L70.7084 128.055L69.9212 128.933L69.892 129.102L68.4964 128.987Z" fill="white"/>
<path d="M74.6563 133.513L72.7786 132.303L72.3101 130.986L72.4579 130.908L74.1704 128.255L74.1859 128.082L75.5796 127.966L77.4651 129.18L77.9336 130.497L77.7742 130.576L76.0636 133.23L76.0559 133.408L74.6602 133.513H74.6563ZM76.742 130.213L76.6001 129.83L75.3405 129.019L74.9323 129.048L73.5017 131.268L73.6436 131.65L74.9032 132.462L75.3114 132.433L76.744 130.215L76.742 130.213Z" fill="white"/>
<path d="M79.3118 136.048L78.645 134.82L78.7792 134.719L80.0601 131.831L80.0485 131.658L81.4072 131.326L84.0566 132.499L83.5415 133.663L83.3705 133.309L81.3353 132.406L80.9387 132.497L79.8658 134.913L80.066 135.271L82.2411 136.234L82.6182 136.123L82.1031 137.285L79.3118 136.048Z" fill="white"/>
<path d="M86.2279 138.689L85.3784 137.578L85.495 137.46L86.3153 134.408L86.2765 134.239L87.5672 133.703L90.3663 134.453L90.0358 135.681L89.8123 135.358L87.6643 134.781L87.2853 134.933L86.5991 137.483L86.8518 137.806L89.1494 138.421L89.5051 138.254L89.1747 139.48L86.2279 138.689Z" fill="white"/>
<path d="M92.3451 140.096L92.6308 139.826L93.1343 135.296L92.9146 134.962L96.6331 135.374L96.4951 136.636L96.2152 136.351L94.1198 136.118L93.9954 137.246L95.3327 137.394L95.6573 137.174L95.4902 138.69L95.2219 138.396L93.8846 138.247L93.7757 139.231L96.0228 139.48L96.3591 139.261L96.2191 140.523L92.3451 140.096Z" fill="white"/>
<path d="M102.231 140.564L102.509 140.253L101.386 138.493L100.624 138.526L100.703 140.331L101.024 140.616L99.3914 140.688L99.6324 140.377L99.4342 135.824L99.1659 135.535L102.451 135.391L103.596 136.188L103.52 136.345L103.567 137.398L103.654 137.547L102.628 138.41L103.761 140.197L104.173 140.478L102.231 140.562V140.564ZM102.461 136.656L102.122 136.417L100.534 136.487L100.579 137.52L102.167 137.452L102.484 137.184L102.461 136.658V136.656Z" fill="white"/>
<path d="M112.765 138.866L111.455 138.377L111.49 138.214L110.561 135.195L110.436 135.071L111.245 133.931L114.015 133.078L114.388 134.292L114.026 134.139L111.9 134.793L111.659 135.123L112.438 137.647L112.821 137.786L115.097 137.085L115.307 136.755L115.683 137.969L112.765 138.866Z" fill="white"/>
<path d="M118.526 136.881L118.627 136.501L116.658 132.389L116.297 132.222L117.722 131.54L117.626 131.926L119.284 135.391L121.219 134.467L121.388 134.106L121.936 135.252L118.526 136.881Z" fill="white"/>
<path d="M126.772 132.332L125.032 133.472L123.644 133.373L123.633 133.206L121.512 129.974L121.135 129.863L122.455 128.997L122.406 129.387L124.379 132.392L124.785 132.429L125.907 131.693L126.041 131.303L124.07 128.298L123.693 128.185L125.015 127.321L124.966 127.709L127.087 130.943L127.235 131.019L126.772 132.332Z" fill="white"/>
<path d="M132.844 127.422L130.368 129.691L130.353 129.298L127.272 125.942L126.875 125.886L129.351 123.617L130.751 123.491L130.788 123.666L131.476 124.413L131.641 124.46L131.521 125.161L132.224 125.095L132.256 125.264L132.924 125.992L133.089 126.037L132.843 127.42L132.844 127.422ZM130.18 124.571L129.773 124.61L128.543 125.738L129.26 126.521L130.491 125.392L130.566 124.99L130.18 124.569V124.571ZM131.585 126.101L131.179 126.142L129.948 127.271L130.66 128.047L131.892 126.919L131.966 126.517L131.585 126.101Z" fill="white"/>
<path d="M65.3338 68.0971L64.0703 69.9365L62.7388 70.3657L62.6649 70.2162L60.0602 68.4292L59.8872 68.4098L59.8114 67.0152L61.0807 65.168L62.4122 64.7388L62.488 64.9L65.0927 66.6869L65.2716 66.6986L65.3357 68.0951L65.3338 68.0971ZM62.0954 65.9197L61.7086 66.0498L60.861 67.2832L60.8785 67.6911L63.0556 69.1848L63.4424 69.0546L64.2899 67.8213L64.2724 67.4134L62.0954 65.9197Z" fill="white"/>
<path d="M69.41 63.2472L69.3944 62.8296L67.3651 62.3324L66.8363 62.884L68.1426 64.1329L68.5741 64.1174L67.4428 65.2983L67.402 64.9079L64.1072 61.7555L63.7146 61.7322L65.9888 59.3587L67.367 59.1431L67.4214 59.3082L68.1834 60.0365L68.3525 60.0851L68.2087 61.4175L70.2633 61.9264L70.757 61.8449L69.4119 63.2492L69.41 63.2472ZM66.8713 60.2638L66.4612 60.324L65.361 61.4719L66.1094 62.1886L67.2096 61.0407L67.2523 60.629L66.8713 60.2638Z" fill="white"/>
<path d="M75.1151 58.3292L75.1539 57.9271L74.6058 57.5426L73.0974 58.6652L73.2995 59.3179L73.6339 59.4325L72.2635 60.4522L72.3315 60.0268L70.9922 55.3419L70.5899 55.2564L72.0477 54.1726L72.0205 54.5766L76.1142 57.2124L76.5341 57.2726L75.1131 58.3292H75.1151ZM72.2207 55.9343L72.7825 57.6766L73.7583 56.9501L72.2188 55.9343H72.2207Z" fill="white"/>
<path d="M81.1351 54.7299L81.2012 54.3608L78.2602 52.7584L79.51 55.2174L79.8716 55.3708L78.4623 56.0856L78.5537 55.703L76.4913 51.6396L76.1259 51.4803L77.4613 50.8025L77.434 51.1327L80.3556 52.7137L79.131 50.3033L78.7656 50.1421L80.1651 49.4331L80.0796 49.8216L82.142 53.883L82.5035 54.0364L81.1351 54.7299Z" fill="white"/>
<path d="M87.7052 52.1602L85.6778 52.8012L84.3637 52.3233L84.3968 52.1582L83.4443 49.1476L83.318 49.0252L84.1169 47.8773L86.9587 46.978L87.3436 48.19L86.9724 48.0405L84.7797 48.7339L84.5426 49.066L85.3395 51.5853L85.7264 51.7193L87.0423 51.3036L87.2814 50.9715L86.8227 49.5264L86.4903 49.3166L87.989 48.8427L87.8354 49.2039L88.4399 51.1094L87.7052 52.1602Z" fill="white"/>
<path d="M91.274 51.2183L91.4801 50.8842L90.7939 46.3819L90.4965 46.1138L94.1956 45.5525L94.388 46.8072L94.044 46.6033L91.9602 46.9199L92.1312 48.0406L93.4608 47.8386L93.7193 47.5434L93.9468 49.0506L93.6124 48.835L92.2829 49.037L92.4325 50.016L94.6679 49.6741L94.9342 49.377L95.1267 50.6336L91.274 51.2183Z" fill="white"/>
<path d="M99.0629 48.2852C99.0648 48.1434 99.094 48.0094 99.1504 47.8851C99.2067 47.7608 99.2825 47.652 99.3758 47.5588C99.4692 47.4655 99.578 47.3937 99.7024 47.3412C99.8268 47.2888 99.9571 47.2635 100.097 47.2655C100.239 47.2674 100.373 47.2966 100.497 47.3529C100.622 47.4092 100.731 47.485 100.824 47.5801C100.915 47.6753 100.989 47.786 101.042 47.9123C101.094 48.0385 101.119 48.1726 101.118 48.3163C101.116 48.4561 101.086 48.5863 101.03 48.7067C100.974 48.8291 100.898 48.934 100.803 49.0252C100.707 49.1165 100.597 49.1865 100.47 49.2408C100.344 49.2933 100.21 49.3185 100.066 49.3166C99.9279 49.3146 99.7957 49.2855 99.6752 49.2292C99.5527 49.1729 99.4478 49.0971 99.3564 49.0039C99.265 48.9106 99.1931 48.8019 99.1406 48.6776C99.0882 48.5552 99.0629 48.4231 99.0648 48.2833" fill="#EF4937"/>
<path d="M105.75 50.8123L104.799 49.7848L104.904 49.6566L105.431 46.5411L105.376 46.374L106.613 45.7175L109.47 46.2012L109.258 47.454L109.006 47.1529L106.809 46.7819L106.446 46.9703L106.006 49.575L106.288 49.8722L108.634 50.2665L108.972 50.0664L108.761 51.3192L105.75 50.8123Z" fill="white"/>
<path d="M114.252 52.9276L112.135 52.2109L111.359 51.0494L111.484 50.9386L112.497 47.9474L112.469 47.7746L113.793 47.3201L115.918 48.0387L116.695 49.2022L116.559 49.3187L115.546 52.3099L115.583 52.4847L114.254 52.9276H114.252ZM115.469 49.2197L115.237 48.8817L113.818 48.402L113.43 48.5301L112.582 51.0319L112.813 51.3679L114.232 51.8477L114.621 51.7195L115.469 49.2177V49.2197Z" fill="white"/>
<path d="M120.478 55.7711L118.643 54.7961L118.06 53.5297L118.202 53.4403L120.019 50.0257L119.936 49.6431L121.329 50.385L120.966 50.5288L119.277 53.7025L119.436 54.0755L120.624 54.7067L121.032 54.6368L122.721 51.463L122.638 51.0804L124.033 51.8224L123.668 51.9661L121.85 55.3807L121.854 55.5458L120.478 55.7711Z" fill="white"/>
<path d="M125.925 59.3992L126.288 59.2982L126.451 55.9535L124.776 58.1484L124.797 58.5427L123.539 57.5851L123.924 57.4996L126.686 53.8752L126.671 53.4751L127.864 54.3841L127.557 54.5026L127.402 57.8201L129.044 55.668L129.029 55.2679L130.279 56.2196L129.888 56.3109L127.126 59.9373L127.147 60.3296L125.925 59.3992Z" fill="white"/>
<path d="M129.783 62.8061L130.174 62.7828L132.957 60.1238L132.104 59.2322L131.707 59.1973L132.625 58.3193L135.474 61.2969L134.555 62.1749L134.54 61.7767L133.692 60.891L130.908 63.55L130.87 63.9405L129.783 62.8061Z" fill="white"/>
<path d="M134.122 67.8757L134.512 67.9126L136.056 66.8385L137.331 63.9852L137.339 63.4705L138.38 64.968L138.112 64.9777L137.243 66.654L139.144 66.4597L139.244 66.2033L140.27 67.6795L139.78 67.5008L136.678 67.6989L135.119 68.7828L135.024 69.1712L134.122 67.8757Z" fill="white"/>
<path d="M74.874 79.7589C74.874 71.0786 78.7656 68.876 87.0637 68.876C95.3619 68.876 99.2515 71.0786 99.2515 79.7589V106.062C99.2515 114.742 95.3619 116.945 87.0637 116.945C78.7656 116.945 74.874 114.742 74.874 106.062V79.7589ZM84.3404 105.996C84.3404 107.81 85.1199 108.523 87.0637 108.523C89.0075 108.523 89.787 107.81 89.787 105.996V79.823C89.787 78.0088 89.0075 77.296 87.0637 77.296C85.1199 77.296 84.3404 78.0088 84.3404 79.823V105.996Z" fill="#231F20"/>
<path d="M102.682 79.7589C102.682 72.1139 105.989 68.876 114.611 68.876C123.234 68.876 126.541 72.1139 126.541 79.7589V82.721L117.074 85.6442V79.3724C117.074 78.0127 115.908 77.2999 114.61 77.2999C112.924 77.2999 112.145 78.0127 112.145 80.5397V105.287C112.145 107.814 112.924 108.527 114.61 108.527C115.906 108.527 117.074 107.814 117.074 106.454V102.003L126.541 99.0793V106.066C126.541 113.711 123.234 116.949 114.611 116.949C105.989 116.949 102.682 113.711 102.682 106.066V79.7628V79.7589Z" fill="#231F20"/>
<path d="M65.8878 122.85C58.6723 114.599 54.6992 104.013 54.6992 93.0446C54.6992 85.5005 56.5924 78.0303 60.1729 71.4438L60.7425 71.7527C57.2125 78.244 55.3464 85.6074 55.3464 93.0426C55.3464 103.856 59.2632 114.29 66.3757 122.422L65.8878 122.85Z" fill="#EF4937"/>
<path d="M134.639 122.352L134.143 121.933C140.983 113.88 144.75 103.62 144.75 93.0425C144.75 85.0925 142.636 77.2882 138.631 70.4706L139.191 70.1423C143.252 77.059 145.4 84.9779 145.4 93.0425C145.4 103.774 141.578 114.183 134.639 122.35" fill="#EF4937"/>
</g>
</g>
</g>
<defs>
<clipPath id="clip0_9898_54203">
<rect width="120.099" height="192" fill="white" transform="translate(40 4)"/>
</clipPath>
</defs>
</svg>
