<svg width="200" height="200" viewBox="0 0 200 200" fill="none" xmlns="http://www.w3.org/2000/svg">
<g clip-path="url(#clip0_9898_54198)">
<path d="M140.405 38.4757C114.472 24.3837 100.715 18.9107 100.564 18.8554L100.012 18.6594L99.3448 18.8554C99.1943 18.9107 85.3217 24.3786 59.3934 38.4757C33.41 52.5978 23.6028 61.1515 23.2013 61.5083L22.1473 62.4381L22.8299 63.6844C22.9253 63.8603 32.5568 81.6462 43.6588 113.534C54.7308 145.342 55.2879 163.932 55.308 164.113L55.4385 165.384L56.6581 165.645C56.7233 165.66 63.5693 167.143 77.8333 172.139C92.1175 177.144 99.2495 180.496 99.3197 180.526L100.042 180.873L100.765 180.526C100.835 180.491 107.717 177.139 122.001 172.139C136.265 167.143 143.106 165.66 143.176 165.645L144.386 165.389L144.521 164.133C144.541 163.947 145.264 145.352 156.341 113.539C167.443 81.6512 177.074 63.8654 177.17 63.6895L177.857 62.433L176.783 61.5033C176.372 61.1465 166.409 52.5978 140.426 38.4807L140.405 38.4757Z" fill="#FBAD18"/>
<path d="M183.082 53.799C182.641 53.412 171.905 44.1999 144.988 29.5702C118.382 15.1113 104.289 9.56298 103.646 9.3318L100.012 8L96.1377 9.3318C95.4902 9.56298 81.3818 15.1214 54.8011 29.5702C27.8439 44.215 17.2337 53.4824 16.792 53.8693L9.66 60.1715L14.2524 68.6046C14.3478 68.7755 23.6882 86.1442 34.4088 116.931C44.8684 146.97 45.5159 164.982 45.536 165.148L46.4042 173.742L54.6204 175.511C54.6856 175.526 61.2405 176.983 74.6463 181.677C88.1474 186.406 94.9532 189.623 95.0134 189.653L100.012 191.995L104.76 189.658C104.826 189.628 111.651 186.401 125.138 181.677C138.503 176.998 145.083 175.526 145.138 175.516L153.289 173.767L154.233 165.284C154.253 165.108 155.041 147.101 165.546 116.926C176.241 86.2045 185.602 68.7805 185.692 68.6096L190.345 60.0911L183.082 53.7889V53.799ZM182.851 66.9763C182.756 67.1472 173.34 84.5963 162.474 115.801C151.758 146.573 151.011 164.716 150.991 164.897L150.313 170.978L144.476 172.229C144.411 172.244 137.765 173.707 124.089 178.501C110.281 183.336 103.455 186.582 103.39 186.618L100.022 188.291L96.4087 186.612C96.3435 186.582 89.4574 183.316 75.7103 178.496C62.0485 173.712 55.3732 172.234 55.308 172.219L49.4207 170.952L48.7983 164.796C48.7782 164.62 48.181 146.477 37.5005 115.796C26.6243 84.5963 17.2086 67.1421 17.1132 66.9713L13.8258 60.9304L18.9352 56.4173C19.3618 56.0404 29.6959 47.0193 56.3319 32.5404C82.6867 18.2172 96.5693 12.7342 97.2118 12.508L100.012 11.5532L102.587 12.508C103.225 12.7342 117.107 18.2122 143.467 32.5404C170.063 46.9942 180.548 55.9902 180.984 56.3671L186.184 60.8801L182.856 66.9813L182.851 66.9763Z" fill="#FBAD18"/>
<path d="M180.979 56.3672C180.548 55.9902 170.058 46.9943 143.462 32.5404C117.102 18.2122 103.225 12.7343 102.582 12.5081L100.007 11.5532L97.2068 12.5081C96.5693 12.7343 82.6867 18.2122 56.3268 32.5404C29.6909 47.0144 19.3567 56.0405 18.9301 56.4174L13.8208 60.9305L17.1082 66.9713C17.2036 67.1422 26.6193 84.5964 37.4854 115.801C48.1709 146.483 48.7682 164.63 48.7833 164.801L49.4056 170.958L55.2929 172.224C55.3582 172.239 62.0335 173.712 75.6952 178.501C89.4423 183.316 96.3284 186.582 96.3937 186.618L100.007 188.296L103.375 186.623C103.44 186.592 110.271 183.346 124.074 178.506C137.755 173.717 144.401 172.249 144.461 172.234L150.298 170.983L150.976 164.902C150.996 164.721 151.743 146.578 162.459 115.806C173.325 84.6014 182.741 67.1523 182.836 66.9814L186.164 60.8802L180.964 56.3672H180.979ZM121.981 172.144C107.697 177.149 100.815 180.501 100.745 180.531L100.022 180.878L99.2997 180.531C99.2294 180.496 92.1024 177.144 77.8133 172.144C68.8292 168.998 62.7964 167.249 59.539 166.374C86.4008 165.369 113.288 165.379 140.149 166.399C136.867 167.279 130.864 169.028 121.976 172.139L121.981 172.144ZM177.15 63.6896C177.054 63.8655 167.423 81.6513 156.321 113.539C151.884 126.279 149.113 136.894 147.377 145.06C115.702 143.668 84.2025 143.658 52.5274 145.02C50.826 136.858 48.0806 126.259 43.6538 113.539C32.5518 81.6513 22.9203 63.8655 22.8249 63.6896L22.1423 62.4432L23.1963 61.5135C23.6028 61.1566 33.405 52.6029 59.3884 38.4808C85.3217 24.3888 99.1893 18.9158 99.3398 18.8606L100.007 18.6646L100.559 18.8606C100.71 18.9158 114.467 24.3838 140.4 38.4808C166.379 52.5979 176.347 61.1466 176.758 61.5034L177.832 62.4332L177.145 63.6896H177.15Z" fill="#001644"/>
<path d="M60.3421 159.067C60.6583 159.78 61.0799 160.062 61.5165 160.233C61.5165 160.243 61.5165 160.253 61.5165 160.263C60.317 160.308 59.1174 160.358 57.9179 160.409C57.9179 160.399 57.9179 160.388 57.9179 160.378C58.2592 160.157 58.3897 159.826 58.0484 159.037C57.7021 158.222 57.3507 157.408 57.0044 156.594C56.8639 156.614 56.7083 156.624 56.5678 156.629C56.367 156.639 56.1612 156.649 55.9605 156.654C56.0257 157.499 56.091 158.338 56.1612 159.182C56.2215 159.951 56.5577 160.253 56.9894 160.424C56.9894 160.434 56.9894 160.444 56.9894 160.454C55.7948 160.504 54.6003 160.559 53.4058 160.615C53.4058 160.605 53.4058 160.595 53.4058 160.584C53.8073 160.378 54.0934 160.047 54.0281 159.278C53.7973 156.484 53.5664 153.689 53.3355 150.9C53.2703 150.131 52.929 149.835 52.4873 149.664C52.4873 149.654 52.4873 149.644 52.4873 149.634C53.6618 149.578 54.8362 149.523 56.0157 149.473C58.3294 149.372 60.061 150.815 60.2066 152.89C60.2919 154.116 59.8 155.172 58.9066 155.84C59.3885 156.916 59.8653 157.996 60.3421 159.072V159.067ZM55.7999 154.644C56.0056 154.634 56.2064 154.624 56.4122 154.619C57.416 154.574 58.0685 153.855 58.0032 152.976C57.938 152.096 57.1751 151.433 56.1662 151.478C55.9605 151.488 55.7547 151.498 55.5539 151.503C55.6342 152.548 55.7196 153.594 55.7999 154.644Z" fill="white"/>
<path d="M69.9033 148.99C69.4867 149.191 69.1856 149.518 69.2307 150.287C69.3813 153.081 69.5369 155.88 69.6875 158.675C69.7276 159.444 70.0589 159.75 70.4855 159.926C70.4855 159.936 70.4855 159.946 70.4855 159.956C69.291 159.991 68.0964 160.032 66.9019 160.072C66.9019 160.062 66.9019 160.052 66.9019 160.042C67.3085 159.841 67.5996 159.514 67.5594 158.745C67.4992 157.69 67.4339 156.629 67.3737 155.574C66.5606 155.599 65.7475 155.629 64.9345 155.659C64.9997 156.715 65.0649 157.775 65.1352 158.83C65.1854 159.599 65.5116 159.901 65.9433 160.077C65.9433 160.087 65.9433 160.097 65.9433 160.107C64.7488 160.147 63.5542 160.192 62.3597 160.238C62.3597 160.228 62.3597 160.218 62.3597 160.208C62.7662 160.001 63.0573 159.68 63.0021 158.906C62.8164 156.112 62.6307 153.317 62.445 150.518C62.3948 149.749 62.0586 149.448 61.6169 149.277C61.6169 149.267 61.6169 149.257 61.6169 149.247C62.8365 149.201 64.0511 149.156 65.2707 149.116C65.2707 149.126 65.2707 149.136 65.2707 149.146C64.8542 149.347 64.558 149.674 64.6082 150.443C64.6735 151.478 64.7387 152.518 64.804 153.554C65.6221 153.523 66.4351 153.498 67.2532 153.468C67.193 152.433 67.1328 151.392 67.0726 150.357C67.0274 149.588 66.6911 149.282 66.2545 149.111C66.2545 149.101 66.2545 149.091 66.2545 149.081C67.4741 149.04 68.6887 149 69.9083 148.965C69.9083 148.975 69.9083 148.985 69.9083 148.995L69.9033 148.99Z" fill="white"/>
<path d="M71.5245 154.418C71.3488 151.026 72.8796 148.714 75.2435 148.654C77.6075 148.593 79.334 150.825 79.4545 154.222C79.575 157.614 78.0442 159.911 75.7354 159.966C73.4267 160.022 71.7001 157.81 71.5245 154.413V154.418ZM77.2461 154.272C77.1608 152.182 76.3929 150.754 75.3389 150.779C74.2799 150.805 73.6375 152.272 73.7378 154.358C73.8382 156.448 74.6061 157.876 75.6501 157.851C76.694 157.825 77.3365 156.363 77.2512 154.272H77.2461Z" fill="white"/>
<path d="M80.8899 159.695C80.8899 159.695 80.8899 159.675 80.8899 159.665C81.3015 159.469 81.6026 159.147 81.5775 158.378C81.4822 155.579 81.3919 152.785 81.3015 149.985C81.2764 149.216 80.9502 148.905 80.5135 148.729C80.5135 148.719 80.5135 148.709 80.5135 148.699C81.6277 148.679 82.742 148.658 83.8512 148.638C86.5614 148.593 88.5239 150.855 88.5841 154.076C88.6443 157.298 86.8124 159.599 84.1623 159.64C83.0682 159.66 81.9791 159.675 80.8899 159.7V159.695ZM83.6855 157.569C83.8562 157.569 84.0268 157.564 84.1975 157.559C85.5376 157.539 86.436 156.081 86.3908 154.096C86.3456 152.116 85.3619 150.684 84.0068 150.704C83.8311 150.704 83.6604 150.709 83.4848 150.714C83.55 153.001 83.6203 155.282 83.6855 157.569Z" fill="white"/>
<path d="M96.745 156.84C96.5292 157.73 96.3084 158.625 96.0926 159.514C93.9896 159.524 91.8916 159.539 89.7887 159.559C89.7887 159.549 89.7887 159.539 89.7887 159.529C90.2052 159.338 90.5114 159.017 90.4963 158.248C90.4462 155.448 90.401 152.649 90.3508 149.85C90.3357 149.081 90.0145 148.769 89.5829 148.583C89.5829 148.573 89.5829 148.563 89.5829 148.553C91.6808 148.533 93.7838 148.518 95.8817 148.508C96.0976 149.402 96.3184 150.297 96.5342 151.192C96.5192 151.202 96.5041 151.212 96.4891 151.222C95.8215 150.533 95.144 150.473 94.2255 150.478C93.6583 150.478 93.0912 150.483 92.524 150.488C92.5341 151.312 92.5441 152.131 92.5592 152.956C92.9958 152.956 93.4275 152.951 93.8641 152.945C94.632 152.945 94.9432 152.624 95.1289 152.197C95.1389 152.197 95.149 152.197 95.159 152.197C95.1691 153.343 95.1791 154.493 95.1891 155.639C95.1791 155.639 95.1691 155.639 95.159 155.639C94.9683 155.217 94.6521 154.9 93.8842 154.906C93.4525 154.906 93.0159 154.911 92.5843 154.916C92.5943 155.795 92.6093 156.675 92.6194 157.559C93.2217 157.559 93.824 157.549 94.4262 157.549C95.3297 157.544 96.0122 157.479 96.6798 156.8C96.6999 156.81 96.7199 156.82 96.74 156.83L96.745 156.84Z" fill="white"/>
<path d="M100.861 159.479C101.277 159.288 101.593 158.976 101.593 158.207C101.598 155.408 101.608 152.609 101.613 149.809C101.613 149.04 101.302 148.724 100.871 148.533C100.871 148.523 100.871 148.513 100.871 148.503C102.09 148.503 103.31 148.503 104.525 148.513C104.525 148.523 104.525 148.533 104.525 148.543C104.098 148.729 103.777 149.045 103.772 149.814C103.757 152.614 103.737 155.413 103.721 158.212C103.721 158.981 104.028 159.298 104.444 159.489C104.444 159.499 104.444 159.509 104.444 159.519C103.25 159.514 102.055 159.509 100.861 159.509C100.861 159.499 100.861 159.489 100.861 159.479Z" fill="white"/>
<path d="M106.778 159.263C106.512 159.263 106.296 159.353 106.105 159.635C105.955 158.102 105.804 156.574 105.654 155.041C105.674 155.041 105.694 155.031 105.714 155.026C106.422 156.539 107.591 157.584 108.6 157.594C109.283 157.599 109.714 157.162 109.724 156.564C109.734 155.906 108.871 155.453 107.892 154.77C106.914 154.086 105.749 153.202 105.764 151.453C105.779 149.88 106.994 148.362 109.006 148.377C109.99 148.387 110.457 148.704 110.808 148.709C111.029 148.709 111.19 148.648 111.335 148.447C111.401 149.774 111.461 151.101 111.526 152.428C111.506 152.433 111.486 152.438 111.461 152.443C110.984 151.242 110.05 150.448 109.087 150.438C108.359 150.433 107.942 150.915 107.937 151.468C107.927 152.111 108.474 152.493 109.252 153.021C110.342 153.77 111.968 154.699 111.912 156.584C111.857 158.313 110.542 159.71 108.695 159.695C107.732 159.685 107.195 159.258 106.778 159.258V159.263Z" fill="white"/>
<path d="M119.592 157.006C119.321 157.896 119.055 158.79 118.784 159.68C116.806 159.645 114.829 159.609 112.856 159.584C112.856 159.574 112.856 159.564 112.856 159.554C113.278 159.373 113.599 159.062 113.614 158.293C113.679 155.493 113.749 152.694 113.815 149.9C113.835 149.131 113.524 148.809 113.102 148.618C113.102 148.608 113.102 148.598 113.102 148.588C114.322 148.603 115.541 148.623 116.756 148.643C116.756 148.653 116.756 148.664 116.756 148.674C116.324 148.855 115.998 149.166 115.978 149.935C115.908 152.513 115.837 155.091 115.762 157.67C116.264 157.68 116.771 157.685 117.273 157.695C118.176 157.71 118.864 157.659 119.556 156.996C119.567 157.001 119.577 157.006 119.587 157.011L119.592 157.006Z" fill="white"/>
<path d="M128.054 158.609C128.174 159.368 128.53 159.69 128.937 159.891C128.937 159.901 128.937 159.911 128.937 159.921C127.727 159.886 126.518 159.856 125.308 159.82C125.308 159.81 125.308 159.8 125.308 159.79C125.735 159.614 126.016 159.308 125.911 158.549C125.85 158.117 125.795 157.685 125.735 157.252C124.937 157.232 124.134 157.212 123.336 157.192C123.24 157.619 123.145 158.046 123.05 158.474C122.879 159.222 123.13 159.544 123.542 159.745C123.542 159.755 123.542 159.765 123.542 159.775C122.352 159.745 121.163 159.72 119.973 159.7C119.973 159.69 119.973 159.68 119.973 159.67C120.4 159.489 120.781 159.182 120.967 158.433C121.649 155.639 122.342 152.84 123.045 150.046C123.23 149.297 122.994 148.975 122.573 148.774C122.573 148.764 122.573 148.754 122.573 148.744C124.144 148.779 125.715 148.819 127.291 148.859C127.291 148.87 127.291 148.88 127.291 148.89C126.854 149.066 126.588 149.377 126.709 150.131C127.165 152.955 127.617 155.775 128.059 158.599L128.054 158.609ZM123.787 155.242C124.34 155.257 124.892 155.267 125.444 155.282C125.233 153.805 125.022 152.327 124.806 150.845C124.465 152.312 124.124 153.775 123.787 155.242Z" fill="white"/>
<path d="M129.635 159.911C130.066 159.735 130.393 159.429 130.433 158.66C130.583 155.865 130.734 153.066 130.884 150.272C130.925 149.503 130.628 149.181 130.207 148.975C130.207 148.965 130.207 148.955 130.207 148.945C131.085 148.97 131.968 149 132.847 149.025C133.795 151.292 134.729 153.559 135.652 155.825C135.763 154.031 135.878 152.232 135.989 150.438C136.039 149.669 135.743 149.342 135.326 149.141C135.326 149.131 135.326 149.121 135.326 149.111C136.496 149.151 137.67 149.196 138.84 149.237C138.84 149.247 138.84 149.257 138.84 149.267C138.398 149.438 138.062 149.739 138.011 150.508L137.454 158.896C137.404 159.665 137.695 159.991 138.102 160.198C138.102 160.208 138.102 160.218 138.102 160.228C137.238 160.193 136.375 160.162 135.512 160.132C134.598 157.866 133.67 155.599 132.731 153.332C132.626 155.127 132.526 156.926 132.42 158.72C132.375 159.489 132.666 159.816 133.078 160.017C133.078 160.027 133.078 160.037 133.078 160.047C131.928 160.007 130.779 159.971 129.635 159.936C129.635 159.926 129.635 159.916 129.635 159.906V159.911Z" fill="white"/>
<path d="M139.266 160.278C139.266 160.278 139.266 160.258 139.266 160.248C139.698 160.077 140.029 159.775 140.084 159.006C140.285 156.212 140.481 153.418 140.681 150.624C140.737 149.855 140.441 149.528 140.029 149.322C140.029 149.312 140.029 149.302 140.029 149.292C141.143 149.337 142.252 149.382 143.367 149.427C146.077 149.543 147.798 151.91 147.522 155.127C147.246 158.343 145.184 160.529 142.534 160.414C141.444 160.368 140.35 160.323 139.261 160.278H139.266ZM142.278 158.323C142.448 158.328 142.619 158.338 142.789 158.343C144.125 158.398 145.174 157.001 145.334 155.021C145.495 153.046 144.662 151.558 143.306 151.498C143.131 151.493 142.96 151.483 142.784 151.478C142.614 153.76 142.443 156.041 142.273 158.323H142.278Z" fill="white"/>
<path d="M96.2431 106.599C96.2431 108.78 94.7775 110.016 93.1464 110.71V110.81H106.858V110.71C105.227 110.016 103.762 108.78 103.762 106.599V92.4011H96.2431V106.599Z" fill="#001644"/>
<path d="M79.3089 97.3513C78.9425 98.7585 78.1094 100.769 76.4782 101.462V101.563H89.894V101.462C88.2629 100.769 87.1185 99.3013 87.2189 97.874C87.3193 96.4467 88.0069 89.853 88.0069 89.853H108.826L111.516 97.3815C112.505 99.432 112.158 100.673 110.577 101.462V101.563H123.883V101.462C122.252 100.769 120.716 99.628 119.827 97.6981L116.149 88.3403C119.858 86.4607 123.326 82.792 123.326 78.3342C123.326 71.65 118.231 66.8958 111.009 66.8958H106.286V73.6302H110.271C113.534 73.6302 115.662 75.6605 115.662 78.3342C115.662 81.0078 112.816 83.0885 109.549 83.0885H88.2227C88.2227 83.0885 88.1575 80.852 87.9567 78.1683C87.761 75.4846 87.5602 73.6302 87.5602 73.6302H93.7185V66.8958H76.7141V66.9963C78.3453 67.6898 78.9124 69.5041 79.334 71.1073C79.7556 72.7105 80.5687 79.1685 80.5687 84.8726C80.5687 90.5767 79.6803 95.9492 79.314 97.3564L79.3089 97.3513Z" fill="#001644"/>
<path d="M96.2431 80.5557H103.762V63.2523C103.762 61.0712 105.227 59.4127 106.858 58.7192V58.6187H93.1464V58.7192C94.7775 59.4127 96.2431 61.0762 96.2431 63.2523V80.5557Z" fill="#001644"/>
<path d="M104.153 48.5772V46.3056C106.181 44.9588 107.521 42.652 107.521 40.0336C107.521 35.8774 104.153 32.5051 100.002 32.5051C95.8516 32.5051 92.4839 35.8774 92.4839 40.0336C92.4839 42.652 93.8189 44.9588 95.8466 46.3056V48.5823H80.4984L86.9127 56.1107H114.196L119.506 48.5823H104.158L104.153 48.5772ZM100.002 37.6615C101.388 37.6615 102.507 38.7872 102.507 40.1693C102.507 41.5513 101.383 42.6771 100.002 42.6771C98.6221 42.6771 97.4979 41.5513 97.4979 40.1693C97.4979 38.7872 98.6221 37.6615 100.002 37.6615Z" fill="#001644"/>
<path d="M145.123 107.86L134.659 108.247L142.222 85.6416C123.828 111.976 114.718 113.559 99.9973 113.559C85.2766 113.559 76.167 111.976 57.7723 85.6416L65.336 108.247L54.8713 107.86L77.1859 137.009L69.1605 115.459C69.1605 115.459 72.0514 114.68 74.5308 115.544C77.0052 116.404 79.585 118.499 85.3769 121.651C91.1689 124.807 96.4338 126.214 99.9973 129.717C103.561 126.214 108.831 124.802 114.618 121.651C120.41 118.494 122.989 116.404 125.464 115.544C127.938 114.685 130.834 115.459 130.834 115.459L122.809 137.009L145.123 107.86Z" fill="#001644"/>
<path d="M94.6872 169.827V171.189H96.8303C97.3122 171.189 97.5983 171.013 97.7538 170.716H97.7739V172.807H97.7538C97.5983 172.51 97.3122 172.324 96.8303 172.324H94.6872V173.862C94.6872 174.234 94.898 174.445 95.2443 174.561V174.576H92.5341V174.561C92.8804 174.445 93.0912 174.234 93.0912 173.993V169.525C93.0912 169.023 92.8804 168.811 92.5341 168.691V168.676H98.4163L98.9634 170.284L98.9333 170.299C98.4414 169.947 97.9646 169.817 97.272 169.817H94.6872V169.827Z" fill="#001644"/>
<path d="M99.7715 171.631C99.7715 169.922 101.317 168.58 103.606 168.58C104.56 168.58 105.036 168.766 105.413 168.766C105.568 168.766 105.699 168.741 105.845 168.641L106.382 170.892L106.341 170.907C105.774 170.309 104.871 169.771 103.716 169.771C102.437 169.771 101.418 170.495 101.418 171.636C101.418 172.777 102.447 173.5 103.716 173.5C104.986 173.5 105.784 172.963 106.351 172.304L106.392 172.319L105.845 174.636C105.719 174.526 105.604 174.485 105.423 174.485C105.046 174.485 104.55 174.687 103.606 174.687C101.327 174.687 99.7715 173.345 99.7715 171.636V171.631Z" fill="#001644"/>
</g>
<defs>
<clipPath id="clip0_9898_54198">
<rect width="180.685" height="184" fill="white" transform="translate(9.66 8)"/>
</clipPath>
</defs>
</svg>
