<svg width="200" height="200" viewBox="0 0 200 200" fill="none" xmlns="http://www.w3.org/2000/svg">
<path d="M192 130.962L169.455 124.619L170.167 115.893L168.619 115.463C167.43 115.132 166.18 114.802 164.762 114.436L169.958 25.4158L168.274 24.4693C158.453 19.1179 136.522 10.1221 99.9986 10C63.2614 10.1277 41.453 19.1179 31.7005 24.4721L30.0501 25.4047L35.2459 114.486C33.9261 114.827 32.7425 115.146 31.6033 115.46L30.0557 115.89L30.7614 124.556L8 130.962L22.5371 140.338L13.7126 156.65L38.6801 149.978L38.6134 146.627C39.5609 146.38 40.5083 146.136 41.453 145.903C48.6799 160.861 61.611 168 75.2784 175.544C76.148 176.024 77.0205 176.507 77.9013 176.995C84.6558 180.729 91.7743 184.806 98.0564 189.955L100.001 191.554L101.941 189.955C108.204 184.817 115.322 180.748 122.079 177.015C122.963 176.526 123.841 176.043 124.713 175.56C138.406 168.016 151.359 160.877 158.58 145.859C159.519 146.089 160.453 146.33 161.384 146.569L161.314 149.975L186.285 156.647L177.46 140.335L191.997 130.959L192 130.962Z" fill="white"/>
<path d="M99.893 189.028C100.135 188.828 100.376 188.634 100.615 188.434C106.992 183.202 114.097 179.133 121.043 175.297C141.684 163.856 160.242 155.09 162.312 121.319C164.154 89.7217 165.999 58.124 167.841 26.5263C167.644 26.4153 167.444 26.3042 167.244 26.1904C161.676 23.1567 139.998 12.0903 99.893 11.957C59.491 12.0986 38.0327 23.1622 32.5313 26.1821C32.334 26.2931 32.1368 26.4042 31.9395 26.5152C33.7816 58.1157 35.6265 89.7162 37.4687 121.317C39.5359 155.029 58.0962 163.823 78.7182 175.272C85.6672 179.116 92.7745 183.191 99.1651 188.431C99.4096 188.631 99.6485 188.825 99.8903 189.025" fill="#544627"/>
<path d="M38.28 30.6694C39.8693 60.6184 41.4586 90.5702 43.0506 120.519C44.7789 151.459 61.8694 159.656 80.9187 170.228C87.3537 173.786 93.9081 177.539 99.8958 182.319C105.892 177.531 112.446 173.77 118.853 170.222C137.917 159.622 155.01 151.404 156.735 120.516C158.325 90.5619 159.914 60.6046 161.506 30.6528C155.682 27.5635 136.013 18.1319 99.893 18.0237C64.031 18.1264 44.1759 27.5635 38.28 30.6667" fill="white"/>
<path d="M99.9041 180.551C99.8235 180.487 99.7402 180.423 99.6568 180.359C93.9553 175.999 87.8399 172.502 81.8689 169.196C62.425 158.407 46.4626 150.76 44.8427 120.611C43.3174 90.951 41.792 61.2879 40.2666 31.6248C40.3388 31.5887 40.4166 31.5471 40.4916 31.511C47.1239 28.2052 66.4177 19.8284 99.9013 19.7451C133.629 19.8312 152.768 28.1997 159.319 31.486C159.392 31.5221 159.469 31.5637 159.544 31.6026C158.019 61.2713 156.494 90.9399 154.968 120.609C153.351 150.705 137.397 158.363 117.964 169.168C111.985 172.485 105.861 175.985 100.157 180.357C100.074 180.421 99.9902 180.484 99.9069 180.548" fill="#F2DAB2"/>
<path d="M94.6778 157.372V159.725C94.6861 160.972 93.9332 161.671 92.7162 161.671C91.4992 161.671 90.7546 161.005 90.7546 159.714V157.372H91.9243V159.714C91.9243 160.375 92.2383 160.652 92.7162 160.652C93.1941 160.652 93.5081 160.364 93.5081 159.725V157.372H94.6778Z" fill="#544627"/>
<path d="M96.645 158.318V159.332H97.5146C97.8231 159.332 97.9592 159.096 97.9592 158.84C97.9592 158.585 97.8092 158.316 97.5007 158.316H96.645V158.318ZM99.3207 161.583H98.0259L97.0562 160.214H96.645V161.583H95.4669V157.366H97.5035C98.5649 157.366 99.1206 158.06 99.1206 158.815C99.1206 159.334 98.94 159.773 98.2398 160.087L99.3234 161.508V161.58L99.3207 161.583Z" fill="#544627"/>
<path d="M101.013 160.655H102.005C102.302 160.655 102.444 160.491 102.444 160.258C102.444 160.025 102.294 159.853 102.005 159.853H101.013V160.655ZM101.013 158.973H101.952C102.196 158.973 102.327 158.848 102.327 158.662C102.327 158.476 102.196 158.329 101.966 158.329H101.016V158.973H101.013ZM101.98 157.369C102.81 157.369 103.488 157.741 103.488 158.551C103.488 158.87 103.394 159.201 103.033 159.37C103.419 159.581 103.608 159.972 103.608 160.35C103.608 161.296 102.755 161.579 101.996 161.588H99.8514V157.371H101.98V157.369Z" fill="#544627"/>
<path d="M106.809 158.534C106.525 158.318 106.197 158.246 105.833 158.246C105.547 158.246 105.269 158.334 105.269 158.559C105.269 158.848 105.547 158.89 105.956 158.931C106.786 159.02 107.645 159.359 107.645 160.327C107.645 161.296 106.753 161.696 105.82 161.701C105.069 161.707 104.536 161.576 103.958 160.96L104.605 160.208C105.017 160.61 105.475 160.683 105.825 160.683C106.211 160.683 106.478 160.544 106.478 160.308C106.478 160.1 106.242 159.967 105.781 159.922C104.872 159.842 104.086 159.606 104.086 158.559C104.086 157.668 104.953 157.282 105.831 157.282C106.456 157.282 106.939 157.424 107.387 157.782L106.803 158.534H106.809Z" fill="#544627"/>
<path d="M84.7697 162.406H83.6V166.622H84.7697V162.406Z" fill="#544627"/>
<path d="M88.3762 164.713C88.3456 164.208 88.3456 164.011 88.3401 163.85V162.406H89.5209V166.62H88.5235L86.7841 164.349L86.8036 165.271V166.62H85.6144V162.406H86.6146L88.3734 164.713H88.3762Z" fill="#544627"/>
<path d="M91.5354 165.615H92.1522C92.9052 165.615 93.1663 165.051 93.1663 164.471C93.1663 163.891 92.8746 163.4 92.1522 163.4H91.5354V165.615ZM92.1522 162.406C93.622 162.406 94.3278 163.319 94.3278 164.482C94.3278 165.645 93.6442 166.62 92.1522 166.62H90.3712V162.406H92.1522Z" fill="#544627"/>
<path d="M97.0368 163.323C96.3672 163.323 95.9031 163.817 95.9031 164.513C95.9031 165.21 96.3727 165.704 97.0368 165.704C97.7008 165.704 98.1732 165.213 98.1732 164.513C98.1732 163.814 97.7286 163.323 97.0368 163.323ZM97.0368 166.723C95.6725 166.723 94.7223 165.923 94.7223 164.513C94.7223 163.103 95.6725 162.301 97.0368 162.301C98.401 162.301 99.3513 163.109 99.3513 164.513C99.3513 165.918 98.4038 166.723 97.0368 166.723Z" fill="#544627"/>
<path d="M103.444 164.11L102.38 165.387H102.171L101.129 164.116V166.62H99.9653V162.406H101.196L102.291 163.833L103.386 162.406H104.608V166.62H103.444V164.11Z" fill="#544627"/>
<path d="M106.625 162.406H105.456V166.622H106.625V162.406Z" fill="#544627"/>
<path d="M108.354 163.389H107.139V162.406H110.743V163.389H109.523V166.62H108.354V163.389Z" fill="#544627"/>
<path d="M112.821 163.589L112.288 164.932H113.349L112.821 163.589ZM113.749 165.931H111.888L111.613 166.623H110.365L112.232 162.409H113.419L115.283 166.623H114.022L113.747 165.931H113.749Z" fill="#544627"/>
<path d="M161.701 148.085L167.505 146.788L168.93 126.535L187.19 131.672L174.79 139.672L182.32 153.591L161.701 148.085Z" fill="#544627"/>
<path d="M38.0799 148.085L32.2784 146.788L30.8503 126.535L12.5901 131.672L24.996 139.672L17.4635 153.591L38.0799 148.085Z" fill="#544627"/>
<path d="M165.69 145.725C122.688 133.815 77.315 133.815 34.3095 145.725C33.5399 136.268 32.773 126.809 32.0034 117.353C76.5176 105.026 123.485 105.026 167.999 117.353C167.23 126.809 166.463 136.268 165.693 145.725" fill="#544627"/>
<path d="M49.6135 127.082C50.1497 126.968 50.6888 126.854 51.225 126.743C53.1977 126.341 53.4561 125.219 53.3672 123.326C53.2783 121.411 52.8921 120.429 50.7971 120.859C50.3026 120.962 49.8108 121.067 49.3162 121.172C49.4162 123.143 49.5135 125.117 49.6135 127.085M46.3376 119.243C47.863 118.899 49.394 118.566 50.9277 118.25C54.3203 117.556 56.0596 119.16 56.218 122.838C56.3152 125.025 55.7401 126.738 53.9785 128.048C55.1288 130.734 56.2708 133.432 57.4072 136.136C56.4152 136.319 55.4233 136.505 54.4314 136.699C53.4339 134.168 52.4337 131.642 51.4223 129.125C50.8583 129.241 50.297 129.358 49.733 129.48C49.8691 132.178 50.0025 134.876 50.1386 137.576C49.2051 137.776 48.2715 137.979 47.3379 138.19C47.0017 131.875 46.6711 125.558 46.3349 119.241" fill="white"/>
<path d="M58.2768 116.848C61.1275 116.348 63.9838 115.901 66.8457 115.504C66.8734 116.359 66.904 117.214 66.929 118.066C65.0341 118.33 63.1392 118.616 61.247 118.924C61.3192 120.783 61.3887 122.643 61.461 124.503C63.1003 124.236 64.7424 123.986 66.3844 123.751C66.4122 124.605 66.4428 125.46 66.4706 126.312C64.8313 126.546 63.1919 126.795 61.5582 127.062C61.6304 128.922 61.6999 130.781 61.7721 132.641C63.6365 132.336 65.5064 132.055 67.3791 131.794C67.4069 132.702 67.4375 133.61 67.468 134.52C64.659 134.911 61.8555 135.35 59.0548 135.838C58.7936 129.507 58.5324 123.176 58.2712 116.845" fill="white"/>
<path d="M71.7608 123.937C72.2193 123.884 72.6749 123.828 73.1362 123.779C75.4645 123.518 75.4618 122.216 75.4145 120.315C75.3701 118.524 75.334 117.045 73.075 117.297C72.5777 117.353 72.0748 117.411 71.5774 117.472C71.6386 119.629 71.6997 121.786 71.7608 123.942M68.6211 115.271C70.0632 115.08 71.5052 114.905 72.95 114.741C74.5365 114.561 75.7035 114.791 76.7204 115.682C77.7318 116.576 78.0708 117.753 78.1208 120.023C78.1569 121.683 78.043 122.821 77.39 123.926C76.6315 125.233 75.3868 126.102 73.289 126.338C72.8055 126.393 72.3193 126.449 71.8331 126.507C71.9025 128.986 71.972 131.461 72.0414 133.937C71.0968 134.051 70.1521 134.168 69.2102 134.293C69.0129 127.95 68.8156 121.611 68.6183 115.268" fill="white"/>
<path d="M89.4431 128.208C89.4681 130.698 87.4232 132.744 84.8892 132.91C82.3552 133.077 80.2547 131.3 80.2046 128.813C80.1046 123.892 80.0074 118.971 79.9073 114.05C80.8715 113.966 81.8356 113.891 82.7998 113.822C82.8831 118.657 82.9665 123.49 83.0498 128.325C83.0748 129.66 83.8417 130.248 84.8447 130.182C85.8533 130.115 86.598 129.429 86.5785 128.092C86.5118 123.256 86.4424 118.421 86.3785 113.586C87.3426 113.531 88.3095 113.481 89.2764 113.436C89.332 118.363 89.3848 123.284 89.4404 128.211" fill="white"/>
<path d="M94.5417 129.577C94.9529 129.566 95.3641 129.558 95.7725 129.549C98.0676 129.505 98.2343 128.175 98.2315 126.299C98.2287 124.401 97.8564 123.404 95.7753 123.443C95.353 123.451 94.9307 123.462 94.5055 123.471C94.5167 125.505 94.5306 127.54 94.5417 129.574M94.4917 121.061C94.9251 121.05 95.3585 121.042 95.7892 121.034C97.7091 120.998 98.2148 120.062 98.212 118.319C98.212 116.634 97.5535 115.749 95.6503 115.788C95.253 115.796 94.8584 115.804 94.4611 115.816C94.4722 117.567 94.4805 119.316 94.4917 121.064M91.5437 113.337C92.9551 113.284 94.3666 113.243 95.7809 113.218C99.5374 113.148 100.929 115.505 100.927 117.989V118.683C100.927 120.717 100.221 121.464 98.9539 122.224C100.31 122.83 100.927 123.984 100.927 125.966C100.927 126.321 100.927 126.679 100.927 127.035C100.927 130.36 99.2762 132.211 95.5947 132.283C94.2999 132.311 93.0079 132.347 91.7132 132.394C91.6548 126.041 91.602 119.688 91.5437 113.337Z" fill="white"/>
<path d="M103.111 113.181C104.077 113.192 105.044 113.206 106.011 113.225C105.984 118.668 105.953 124.111 105.928 129.554C107.812 129.596 109.696 129.657 111.579 129.743C111.571 130.653 111.56 131.564 111.552 132.474C108.726 132.347 105.895 132.269 103.066 132.244C103.08 125.888 103.097 119.537 103.111 113.181Z" fill="white"/>
<path d="M113.577 113.509C114.544 113.562 115.511 113.617 116.475 113.678C116.378 120.029 116.281 126.38 116.183 132.73C115.236 132.669 114.288 132.614 113.338 132.564C113.419 126.213 113.497 119.86 113.577 113.509Z" fill="white"/>
<path d="M127.631 129.476C127.564 131.83 125.539 133.662 123.007 133.429C120.837 133.223 118.348 132.019 118.406 128.544C118.467 125.046 118.528 121.552 118.59 118.055C118.631 115.568 120.568 113.8 123.374 114.058C126.044 114.305 127.975 116.434 127.903 119.076C127.892 119.431 127.884 119.789 127.875 120.145C126.917 120.039 125.958 119.936 124.999 119.839C125.005 119.537 125.013 119.234 125.019 118.932C125.047 117.863 124.388 116.881 123.285 116.781C121.843 116.647 121.482 117.561 121.457 118.843C121.39 122.088 121.326 125.335 121.26 128.577C121.237 129.676 121.668 130.567 122.952 130.684C123.735 130.756 124.744 130.428 124.78 128.927C124.788 128.613 124.794 128.302 124.802 127.991C125.755 128.086 126.705 128.186 127.656 128.294C127.645 128.685 127.636 129.077 127.625 129.471" fill="white"/>
<path d="M135.63 115.663C138.492 116.073 141.345 116.534 144.193 117.048C144.157 117.9 144.121 118.752 144.085 119.607C142.196 119.268 140.306 118.952 138.411 118.655C138.342 120.578 138.27 122.502 138.2 124.422C139.842 124.678 141.479 124.95 143.118 125.239C143.082 126.093 143.046 126.946 143.01 127.8C141.376 127.512 139.742 127.24 138.106 126.984C138.006 129.691 137.906 132.394 137.808 135.1C136.866 134.956 135.925 134.814 134.983 134.678C135.197 128.339 135.413 122.002 135.627 115.663" fill="white"/>
<path d="M154.24 133.959C154.113 136.302 152.059 137.904 149.561 137.39C147.419 136.943 144.985 135.467 145.132 132.003C145.285 128.519 145.438 125.033 145.591 121.55C145.699 119.071 147.664 117.519 150.439 118.094C153.076 118.635 154.929 120.975 154.788 123.609C154.768 123.964 154.752 124.32 154.732 124.675C153.787 124.461 152.843 124.253 151.895 124.05C151.909 123.748 151.926 123.448 151.94 123.146C151.993 122.08 151.37 121.028 150.281 120.803C148.853 120.512 148.475 121.383 148.417 122.66C148.267 125.893 148.114 129.127 147.964 132.361C147.914 133.454 148.317 134.392 149.584 134.653C150.353 134.812 151.367 134.598 151.442 133.105C151.456 132.794 151.473 132.483 151.49 132.175C152.429 132.375 153.365 132.58 154.301 132.794C154.282 133.185 154.26 133.576 154.24 133.968" fill="white"/>
<path d="M60.4551 34.5338C59.7105 34.7031 58.9686 34.878 58.2268 35.0584C58.2157 34.9002 58.2018 34.7448 58.1907 34.5866C58.1212 33.6179 57.6238 32.9184 56.4874 33.2043C55.2621 33.5179 55.0537 34.5199 55.1288 35.4859C55.2177 36.6183 55.3538 36.9764 56.5375 37.1151C57.1182 37.1845 57.6989 37.2567 58.2796 37.3316C60.2884 37.5593 60.7385 38.6584 60.883 40.8012C61.0525 43.2826 60.2301 45.3116 57.4099 46.0194C55.2927 46.555 53.5756 45.5031 53.4117 43.5296C53.3922 43.2687 53.37 43.0078 53.3477 42.7497C54.0757 42.547 54.8065 42.35 55.5372 42.1585C55.5539 42.3777 55.5705 42.597 55.5872 42.8163C55.6456 43.5768 56.1318 44.2013 57.2487 43.9182C58.7269 43.549 58.7741 42.6803 58.6769 41.3396C58.5658 39.777 58.3546 39.5716 57.2404 39.4328C56.6986 39.3579 56.154 39.2857 55.615 39.2163C53.6562 38.9748 53.0616 37.9284 52.9115 36.0993C52.7281 33.8843 53.8451 31.7304 56.4152 31.0782C58.6547 30.5147 60.2717 31.8692 60.3801 33.4985C60.4051 33.8427 60.4301 34.1841 60.4523 34.5283" fill="#544627"/>
<path d="M65.8204 33.3927C65.8037 33.3927 65.7898 33.3955 65.7759 33.4011C65.5147 35.2496 65.2536 37.101 65.0007 38.9523C65.7398 38.8024 66.4789 38.6553 67.2207 38.5165C66.7567 36.8068 66.2899 35.0997 65.8176 33.3955M64.6145 29.3487C65.2425 29.2237 65.8676 29.0988 66.4956 28.9795C67.9515 33.662 69.3796 38.3611 70.78 43.0741C70.0437 43.199 69.3074 43.3295 68.5739 43.4655C68.2988 42.4496 68.0237 41.4365 67.7487 40.4206C66.7401 40.6121 65.737 40.8064 64.7312 41.0146C64.5812 42.1138 64.4311 43.2129 64.2811 44.3093C63.5504 44.4647 62.8168 44.6229 62.0861 44.7839C62.8974 39.6323 63.7421 34.4891 64.6145 29.3487Z" fill="#544627"/>
<path d="M78.9626 38.5695C79.0293 40.3958 77.5401 42.1722 75.5673 42.4526C73.8752 42.6885 71.8858 42.2194 71.7525 39.5298C71.6191 36.8264 71.4857 34.1201 71.3524 31.4167C71.2551 29.4959 72.6749 27.7723 74.8838 27.4586C76.9816 27.1616 78.5987 28.4523 78.6709 30.5035C78.682 30.7811 78.6904 31.0558 78.7015 31.3334C77.9485 31.425 77.1955 31.5194 76.4426 31.6193C76.4314 31.3861 76.4231 31.1502 76.4148 30.9171C76.3814 30.0871 75.8174 29.4543 74.9533 29.5764C73.8197 29.7374 73.5863 30.5063 73.6307 31.4999C73.7446 34.0119 73.8586 36.5238 73.9725 39.0358C74.0114 39.8851 74.3865 40.493 75.3895 40.3514C76.0008 40.2654 76.7732 39.8268 76.726 38.6666C76.7176 38.4251 76.7065 38.1836 76.6982 37.9394C77.4428 37.8395 78.1847 37.7451 78.9321 37.6563C78.9432 37.9616 78.9543 38.2641 78.9654 38.5695" fill="#544627"/>
<path d="M82.897 33.2487C83.3249 33.207 83.75 33.1682 84.1779 33.1321C85.7505 32.9933 85.9728 32.1523 85.9395 30.6757C85.9033 29.1851 85.6172 28.3885 83.9417 28.5356C83.5472 28.5717 83.1554 28.6078 82.7609 28.6467C82.8053 30.1816 82.8498 31.7165 82.897 33.2514M80.4214 26.8869C81.6439 26.7537 82.8665 26.6316 84.0918 26.5233C86.8008 26.2874 88.1539 27.6919 88.2095 30.5563C88.2428 32.2578 87.7566 33.5318 86.3396 34.3894C87.2009 36.5794 88.0539 38.7722 88.8986 40.9705C88.1122 41.0204 87.3259 41.0759 86.5396 41.137C85.8005 39.0858 85.0531 37.0402 84.2974 34.9945C83.8473 35.0362 83.3999 35.0778 82.9498 35.1194C83.0137 37.2206 83.0748 39.3245 83.136 41.4284C82.3941 41.5006 81.6523 41.5783 80.9104 41.6588C80.7465 36.7348 80.5825 31.8109 80.4186 26.8897" fill="#544627"/>
<path d="M94.3333 30.1763H94.2916C93.936 31.9749 93.5859 33.7763 93.2386 35.5749C93.9887 35.5471 94.7389 35.5249 95.4891 35.5055C95.1057 33.7263 94.7223 31.9499 94.3333 30.1735M93.3302 25.9462C93.9665 25.924 94.6 25.9046 95.2363 25.8879C96.4644 30.7897 97.6619 35.7026 98.8289 40.6321C98.0842 40.6348 97.3396 40.6432 96.595 40.657C96.3727 39.6023 96.1476 38.5448 95.9198 37.4901C94.9001 37.5123 93.8804 37.5428 92.8607 37.5844C92.6551 38.653 92.4495 39.7217 92.2466 40.7903C91.502 40.8236 90.7601 40.8597 90.0155 40.9013C91.0908 35.9052 92.1938 30.9229 93.3302 25.9462Z" fill="#544627"/>
<path d="M100.34 25.835C101.074 25.835 101.805 25.8461 102.538 25.8572C103.508 28.4857 104.461 31.1198 105.403 33.7622C105.417 33.7622 105.431 33.7622 105.444 33.7622C106.431 31.1836 107.428 28.6106 108.44 26.0515C109.179 26.0875 109.921 26.1292 110.66 26.1764C110.565 31.1059 110.471 36.0354 110.379 40.9621C109.634 40.9177 108.893 40.8761 108.151 40.8372C108.195 37.8395 108.24 34.8391 108.287 31.8414C108.273 31.8414 108.259 31.8414 108.245 31.8386C107.464 33.9231 106.692 36.0104 105.928 38.1032C105.556 38.0894 105.183 38.0755 104.808 38.0671C104.094 35.9271 103.374 33.7899 102.644 31.6554H102.602C102.585 34.6559 102.571 37.6536 102.555 40.654C101.81 40.6429 101.068 40.6346 100.324 40.6318C100.326 35.6995 100.335 30.7672 100.34 25.835Z" fill="#544627"/>
<path d="M112.774 26.321C115.044 26.4904 117.311 26.7013 119.576 26.9594C119.554 27.6228 119.531 28.2862 119.506 28.9523C118.009 28.783 116.506 28.6304 115.005 28.5027C114.966 29.9488 114.93 31.3949 114.891 32.841C116.192 32.9548 117.489 33.0825 118.784 33.2268C118.762 33.8902 118.742 34.5536 118.717 35.2169C117.425 35.0754 116.133 34.9477 114.836 34.8339C114.797 36.28 114.758 37.7261 114.722 39.1722C116.194 39.3026 117.67 39.4498 119.14 39.6163C119.117 40.3213 119.092 41.0263 119.067 41.7313C116.861 41.4815 114.652 41.2733 112.441 41.1096C112.552 36.1828 112.663 31.2533 112.774 26.3238" fill="#544627"/>
<path d="M121.229 27.1531C121.96 27.2419 122.685 27.3363 123.416 27.4362C124.438 30.5532 125.444 33.6813 126.43 36.8178L126.472 36.8234C126.611 33.8618 126.75 30.9029 126.889 27.9414C127.645 28.0607 128.4 28.1828 129.156 28.3105C128.906 33.2206 128.656 38.1335 128.406 43.0435C127.714 42.927 127.019 42.8132 126.325 42.7049C125.336 39.574 124.327 36.4542 123.302 33.3399L123.26 33.3344C123.141 36.2904 123.016 39.2465 122.896 42.2053C122.157 42.1026 121.418 42.0082 120.676 41.9166C120.86 36.9954 121.043 32.0743 121.226 27.1531" fill="#544627"/>
<path d="M133.096 31.0308C132.226 30.8642 131.359 30.7032 130.49 30.5478C130.526 29.8872 130.562 29.2238 130.595 28.5632C133.096 29.0073 135.588 29.5069 138.072 30.0593C138.031 30.7199 137.983 31.3805 137.942 32.0411C137.078 31.8496 136.213 31.6636 135.347 31.486C135.083 35.7243 134.819 39.9655 134.557 44.2067C133.824 44.0568 133.093 43.9097 132.357 43.7653C132.604 39.5214 132.851 35.2775 133.096 31.0335" fill="#544627"/>
<path d="M140.787 42.0895C140.715 43.0971 141.368 43.7382 142.162 43.9408C142.954 44.1407 143.674 43.8465 143.754 42.8417C143.957 40.2631 144.157 37.6846 144.36 35.106C144.441 34.0985 143.779 33.4407 142.971 33.2353C142.159 33.0299 141.423 33.3324 141.354 34.3427C141.165 36.9241 140.979 39.5054 140.79 42.0895M139.123 33.8126C139.284 31.42 141.306 30.6706 143.132 31.1369C144.955 31.5949 146.783 33.3213 146.58 35.7056C146.369 38.2841 146.158 40.8599 145.947 43.4329C145.749 45.8172 143.779 46.4889 142.004 46.042C140.231 45.5896 138.425 43.9575 138.586 41.5677C138.764 38.9836 138.942 36.3995 139.12 33.8154" fill="#544627"/>
<path d="M99.2984 45.4082L90.6045 67.641L64.534 68.2488L85.2365 82.5905L77.8068 105.204L99.2984 91.8333L120.785 105.204L113.358 82.5905L134.06 68.2488L107.992 67.641L99.2984 45.4082Z" fill="#A12B2F"/>
<path d="M90.6101 67.63L99.2984 77.6223V45.4111L90.6101 67.63Z" fill="#7F2629"/>
<path d="M85.2365 82.5882L99.2957 77.6226L64.534 68.2493L85.2365 82.5882Z" fill="#7F2629"/>
<path d="M77.8096 105.201L99.2984 91.8365V77.6226L77.8096 105.201Z" fill="#7F2629"/>
<path d="M120.782 105.201L113.36 82.5937L99.2956 77.6226L120.782 105.201Z" fill="#7F2629"/>
<path d="M99.2956 77.6222L134.057 68.2489H134.06L107.992 67.6438L99.2956 77.6222Z" fill="#7F2629"/>
<path d="M84.1473 145.919C84.1751 145.905 84.1973 145.894 84.1973 145.86C84.1973 145.844 84.1751 145.799 84.1751 145.799H84.1612L84.1195 145.819C84.114 145.822 84.0612 145.866 84.0612 145.877C84.0279 145.924 84.0001 145.971 83.9806 146.032C83.9806 146.055 83.9806 146.074 83.9806 146.088C83.9806 146.13 83.9917 146.146 84.0612 146.191C84.0612 146.191 84.0723 146.196 84.0807 146.202C84.0862 146.21 84.1001 146.224 84.114 146.224C84.1334 146.232 84.1585 146.243 84.1779 146.252C84.1835 146.268 84.2057 146.288 84.214 146.291C84.3001 146.31 84.3807 146.243 84.4252 146.185C84.4641 146.132 84.4807 146.046 84.4835 146.035C84.4863 146.035 84.4946 146.002 84.4946 145.991C84.4946 145.988 84.4974 145.971 84.4946 145.963C84.4919 145.944 84.4669 145.894 84.4669 145.885V145.88C84.4669 145.88 84.4557 145.858 84.4446 145.858C84.4335 145.858 84.4196 145.869 84.4168 145.88C84.4113 145.891 84.4057 145.991 84.4002 145.999C84.3946 146.005 84.3946 146.046 84.3807 146.066C84.339 146.135 84.3196 146.157 84.2779 146.16C84.2696 146.16 84.2501 146.16 84.2418 146.157C84.2418 146.157 84.2362 146.157 84.2307 146.157C84.2307 146.146 84.2196 146.144 84.2029 146.135C84.1446 146.116 84.1279 146.082 84.1251 146.007V145.996C84.1251 145.963 84.1279 145.935 84.1529 145.919" fill="white"/>
<path d="M84.2195 143.247C84.2473 143.247 84.3084 143.21 84.3696 143.155C84.4029 143.127 84.4502 143.088 84.4779 143.063C84.5418 143.022 84.6752 142.902 84.6835 142.888C84.6974 142.866 84.6724 142.838 84.6252 142.83C84.5974 142.822 84.5752 142.805 84.5474 142.777C84.4891 142.722 84.4418 142.683 84.4085 142.683C84.4085 142.683 84.3779 142.666 84.3529 142.647C84.3085 142.603 84.2862 142.6 84.2612 142.622C84.2445 142.633 84.2418 142.686 84.2557 142.7C84.2696 142.705 84.2557 142.772 84.2362 142.816C84.2251 142.836 84.2084 142.886 84.2084 142.922C84.1973 142.963 84.189 143.013 84.1806 143.044C84.1723 143.077 84.164 143.127 84.164 143.155C84.164 143.199 84.1723 143.208 84.189 143.224C84.1973 143.238 84.2223 143.249 84.2223 143.249" fill="#B68150"/>
<path d="M104.258 145.053C104.314 144.964 104.039 144.72 104.139 144.634C104.255 144.539 104.339 145.053 104.419 144.956C104.478 144.909 104.391 144.711 104.5 144.717C104.58 144.725 104.644 145.225 104.716 145.175C104.919 145.072 104.719 144.367 104.705 144.209C104.714 144.201 104.741 143.912 104.716 143.693C104.736 143.723 104.767 143.746 104.814 143.746C104.814 143.746 104.753 143.288 104.75 143.288C104.817 143.324 104.875 143.365 104.93 143.415C105.036 143.363 104.972 143.14 104.833 142.852C104.958 142.91 105.08 142.963 105.203 143.032C105.122 142.591 105.092 142.141 104.767 141.803C104.641 141.675 104.63 141.522 104.68 141.392C104.3 141.209 103.98 141.059 103.905 141.031C103.786 140.887 104.372 140.995 104.225 140.87C104.066 140.726 103.413 140.77 103.163 140.679C102.874 140.565 103.236 140.554 103.136 140.476C102.969 140.359 102.755 140.495 102.613 140.448C102.477 140.431 102.738 140.309 102.733 140.307C102.644 140.218 101.907 140.343 101.749 140.32C101.541 140.276 102.285 140.057 102.005 140.004C101.894 139.976 101.399 140.268 101.299 140.226C101.385 140.14 101.488 140.062 101.613 139.996C101.399 139.746 100.415 140.218 100.504 140.265C100.413 140.229 100.804 139.976 100.685 139.962C100.524 139.943 99.968 140.318 99.9236 140.323C99.843 140.304 99.8263 140.148 99.8652 140.14C99.7597 140.168 99.7208 140.268 99.7208 140.409H99.7013C99.5207 140.526 98.9928 140.465 99.0039 140.459C98.9678 140.512 98.9595 140.573 98.9761 140.634C99.1123 140.498 97.9453 139.615 98.0009 139.907C97.9648 139.821 98.1204 139.643 98.1204 139.546C98.1204 139.657 97.4674 139.69 97.3313 139.721C97.3535 139.671 97.6091 139.449 97.6174 139.38C97.5369 139.441 96.3699 139.288 96.92 139.03C96.9117 139.033 95.6419 139.238 95.6419 139.343C95.7058 139.263 95.7503 139.177 95.7753 139.077C95.5308 139.008 95.0779 139.527 94.8223 139.471C94.2499 139.313 94.0999 140.24 93.5831 140.24C93.5247 140.24 93.6025 139.887 93.4692 139.965C93.3191 140.051 92.3383 142.166 92.0299 143.168C92.0355 143.218 92.0494 143.26 92.0771 143.279C92.1827 143.338 92.4161 142.738 92.4828 142.857C92.5384 142.952 92.1327 143.701 92.2022 143.934C92.2688 144.173 92.3883 143.751 92.4606 143.809C92.5578 143.895 92.3411 144.237 92.3855 144.353C92.3883 144.478 92.5773 144.09 92.5856 144.093C92.6356 144.095 92.555 144.57 92.5439 144.87C92.6606 144.917 92.7384 144.939 92.7273 144.939C93.7442 144.914 92.2522 147.168 91.9327 147.526C92.1772 147.984 92.1271 148.536 91.9604 148.536C92.0716 148.614 92.1827 148.736 92.1271 148.767C92.0216 148.911 91.9382 149.322 91.9716 149.427C92.0688 149.658 92.1633 149.227 92.3578 149.674C92.3216 149.383 91.1936 151.481 91.0185 151.823C90.988 152.003 91.4186 151.534 91.3547 151.737C91.288 151.934 90.724 152.356 90.5434 152.63C90.3378 152.927 90.6573 152.647 90.5962 152.777C90.4906 152.969 90.2544 153.058 90.1433 153.202C90.0266 153.319 90.3017 153.177 90.3017 153.185C90.26 153.297 89.5265 153.816 89.3625 153.954C89.1792 154.126 89.9766 153.652 89.7126 153.896C89.6209 153.982 89.0319 154.24 88.9347 154.332C89.0569 154.296 89.1903 154.249 89.332 154.187C89.2653 154.34 88.8346 154.568 88.4901 154.72C88.4873 154.74 88.4762 154.756 88.479 154.773C88.4957 154.768 88.5346 154.77 88.579 154.776C88.5429 154.781 88.5207 154.787 88.5373 154.793C88.7957 154.837 89.0208 154.926 89.3598 154.945C89.5293 154.948 89.7265 154.937 89.9516 154.856C90.1794 154.784 90.4239 154.612 90.6268 154.415C90.6879 154.354 90.7379 154.296 90.7935 154.235C90.9907 154.174 91.1269 153.954 91.2464 153.71C91.3519 153.585 91.452 153.463 91.5464 153.36C91.7659 153.111 91.8993 152.933 91.9215 152.908C91.9382 152.913 91.9632 152.961 91.9966 153.008C92.0549 152.844 92.116 152.694 92.1577 152.678C92.2161 152.661 92.1494 152.988 92.1522 153.136C92.1633 153.13 92.1716 153.119 92.1799 153.108C92.1911 153.058 92.2077 152.991 92.23 152.919C92.2438 152.808 92.2494 152.691 92.2716 152.666C92.2772 152.669 92.2911 152.683 92.3077 152.703C92.4133 152.431 92.5578 152.178 92.6634 152.292C92.6412 152.439 92.6273 152.589 92.6189 152.739C92.6412 152.716 92.6606 152.7 92.6856 152.672C92.7495 152.464 92.8134 152.084 92.8523 152.053C92.9413 151.986 92.9051 152.22 92.8773 152.422C92.9218 152.353 92.969 152.286 93.0135 152.214C93.0135 152.281 93.0329 152.381 93.0524 152.408C93.0746 152.356 93.0996 152.306 93.1218 152.25C93.1218 152.181 93.1107 152.147 93.0857 152.134C93.0802 152.131 93.0691 152.134 93.0607 152.134C93.208 151.889 93.3247 151.664 93.3525 151.609C93.3525 151.603 93.3608 151.767 93.3691 151.939C93.3969 151.911 93.4358 151.889 93.4747 151.864C93.4942 151.812 93.522 151.77 93.5609 151.767C93.5775 151.767 93.5831 151.781 93.5886 151.803C93.6692 151.767 93.7498 151.745 93.8304 151.734C93.9276 151.467 94.0193 151.104 94.0971 151.082C94.2082 151.048 94.0082 151.601 94.1249 151.626C94.136 151.628 94.1527 151.626 94.1666 151.614C94.3027 151.331 94.5417 150.66 94.5333 150.676C94.5833 150.624 94.6222 150.665 94.6611 150.726C94.9056 150.163 95.114 149.538 95.0501 149.513C95.2279 149.591 95.064 149.916 95.1668 149.941C95.1779 149.941 95.189 149.927 95.2029 149.905C95.189 149.785 95.1835 149.669 95.2418 149.669C95.2474 149.669 95.2668 149.694 95.2863 149.727C95.3335 149.605 95.378 149.449 95.3974 149.322C95.4002 149.272 95.4169 149.266 95.4336 149.28C95.4391 149.216 95.453 149.172 95.4752 149.172C95.4752 149.172 95.4863 149.186 95.4947 149.197C95.5225 148.905 95.6308 148.517 95.7781 148.522C95.7642 148.306 95.7364 148.081 95.7364 147.842C95.5697 147.612 95.4336 147.479 95.378 147.52C95.5614 147.437 95.6975 147.515 95.8142 147.601C95.8614 147.468 95.917 147.321 95.9531 147.265C95.892 147.154 95.817 147.049 95.7392 146.963C95.6947 146.926 95.6642 146.899 95.6725 146.876C95.7003 146.832 95.692 146.74 95.6781 146.654C95.3585 146.327 95.2029 145.866 96.0615 145.869C96.0948 145.872 96.1087 145.913 96.1143 145.966C96.1226 145.986 96.1365 145.997 96.1421 146.019C96.1421 146.03 96.1421 146.038 96.1393 146.049C96.1365 146.033 96.1226 146.013 96.1143 145.994C96.1143 146.038 96.1143 146.094 96.1059 146.149C96.1143 146.144 96.1226 146.138 96.131 146.133C96.1282 146.177 96.1198 146.216 96.1171 146.26C96.1032 146.299 96.0893 146.338 96.0587 146.385C96.0782 146.346 96.0976 146.33 96.1171 146.324C96.106 146.635 96.1365 146.99 96.2365 147.348C96.2727 147.476 96.3088 147.598 96.3532 147.717C96.4032 147.845 96.4505 147.97 96.4949 148.089C96.5255 148.156 96.5672 148.209 96.6061 148.262C96.6394 148.323 96.6783 148.384 96.7228 148.445C96.6422 148.431 96.5783 148.42 96.5783 148.423C96.5894 148.447 96.6033 148.47 96.6172 148.495C96.7061 148.531 96.8172 148.581 96.8839 148.642C96.8839 148.642 96.8895 148.647 96.8923 148.65C96.9117 148.67 96.9284 148.686 96.9339 148.708C96.9784 148.825 97.084 148.967 97.2368 149.103C97.4813 149.122 97.7175 149.152 97.7675 149.211C97.6619 149.241 97.5647 149.272 97.4702 149.3C97.4702 149.313 97.473 149.327 97.4757 149.341C97.673 149.333 98.0703 149.227 98.1454 149.225C98.3788 149.261 97.7869 149.388 97.7453 149.438C97.7619 149.447 97.7786 149.452 97.7953 149.461C97.987 149.505 98.7344 149.338 98.7955 149.361C98.7983 149.363 98.4871 149.519 98.6233 149.505C98.765 149.516 99.0261 149.344 99.1734 149.38C99.2651 149.411 98.8678 149.549 99.1512 149.549C99.4096 149.569 100.099 149.15 100.235 149.155C100.376 149.18 99.7875 149.461 99.8847 149.516C100.151 149.685 102.252 148.567 102.08 148.423C102.216 148.661 101.891 148.783 101.966 148.903C101.974 148.914 102.002 148.911 102.035 148.903C102.185 148.761 102.31 148.614 102.41 148.464C102.452 148.4 102.488 148.336 102.519 148.273C102.505 148.406 102.488 148.536 102.483 148.559C102.724 148.559 102.88 146.907 102.866 146.904C102.824 146.971 102.769 147.018 102.699 147.046C102.688 147.035 102.88 146.224 102.888 146.294C102.88 146.063 102.785 145.364 102.93 145.364C102.988 145.364 103.136 145.791 103.213 146.002C103.263 145.949 103.197 145.605 103.249 145.53C103.249 145.541 103.402 144.501 103.48 144.884C103.636 145.644 104.28 145.008 104.258 145.05" fill="#B68150"/>
<path d="M112.107 145.084C112.152 145.084 112.185 145.103 112.213 145.136C112.177 144.989 112.149 144.839 112.141 144.784C112.152 144.876 112.107 144.229 111.879 144.381C111.807 144.445 112.021 144.573 111.829 144.573C111.518 144.562 111.966 143.726 111.896 143.851C111.916 143.807 112.177 143.36 112.016 143.321C111.988 143.349 111.974 143.385 111.952 143.418C111.913 143.171 110.824 142.047 110.782 142.014C110.637 141.9 110.818 141.675 110.482 141.489C110.526 141.525 110.587 141.592 110.551 141.639C110.432 141.561 109.343 140.795 109.084 140.532C109.079 140.559 109.09 140.634 109.065 140.673C109.045 140.551 108.898 140.626 108.854 140.662C108.898 140.723 108.465 140.235 108.534 140.34C108.554 140.387 108.617 140.812 108.679 140.812C108.679 140.812 108.559 140.72 108.537 140.751C108.748 140.582 107.862 140.421 107.992 140.448C107.815 140.418 107.828 141.101 107.826 141.206C107.753 141.126 107.739 140.99 107.656 140.873C107.578 140.89 107.62 141.078 107.567 141.078C107.481 141.078 107.473 140.768 107.339 140.87C107.262 140.898 107.342 141.614 106.873 141.328C106.567 141.19 106.689 141.914 106.825 142.205C106.759 142.15 106.692 142.114 106.725 142.205C106.786 142.458 106.795 142.852 106.75 142.866C106.645 142.883 106.67 142.516 106.475 142.516C106.606 142.516 106.65 144.795 106.439 144.831C106.322 144.853 106.292 144.268 106.203 144.34C106.111 144.415 106.272 145.178 106.184 145.345C106.078 145.536 106.047 145.15 105.975 145.181C105.867 145.242 106.003 145.578 105.95 145.667C105.925 145.778 105.811 145.408 105.808 145.408C105.728 145.408 105.786 146.197 105.711 146.283C105.633 146.402 105.536 145.55 105.433 145.719C105.397 145.783 105.586 146.497 105.506 146.513C105.444 146.349 105.394 146.183 105.353 146.014C105.086 145.894 105.2 147.052 105.256 147.052C105.183 147.052 105.1 146.519 105.039 146.569C104.972 146.641 105.058 147.382 105.025 147.393C104.964 147.399 104.819 147.196 104.828 147.171C104.508 147.776 104.733 148.456 104.678 149.031C104.697 149.347 104.578 149.827 104.547 149.866C104.544 149.866 104.525 149.722 104.503 149.658C104.483 149.702 104.466 149.747 104.444 149.791C104.441 149.938 104.464 150.127 104.408 150.221C104.366 150.274 104.353 150.105 104.322 150.066C104.291 150.135 104.258 150.208 104.227 150.282C104.2 150.604 104.314 151.204 104.275 151.309C104.205 151.437 104.133 150.782 104.05 150.857C104.047 150.857 104.044 150.868 104.039 150.871C104.033 150.899 104.025 150.929 104.019 150.96C104.002 151.065 103.991 151.329 103.983 151.662C104.039 152.411 104.236 153.391 104.361 153.313C104.116 153.361 104.086 153.075 103.98 153.05C103.98 153.177 103.986 153.302 103.991 153.419C104.027 153.547 104.069 153.68 104.108 153.766C104.147 153.821 104.127 153.794 104.008 153.727C104.03 154.091 104.066 154.343 104.119 154.343C104.464 154.449 105.042 153.127 105.214 152.911C105.781 152.225 107.031 151.859 107.351 151.52C107.401 151.484 107.601 151.551 107.601 151.554C107.601 151.509 108.003 150.851 108.034 150.724C108.076 150.754 108.084 151.037 108.126 151.029C108.24 151.029 108.379 150.571 108.359 150.568C108.415 150.577 108.976 150.568 108.931 150.621C108.951 150.499 108.968 150.377 108.981 150.255C108.998 150.221 109.14 150.502 109.207 150.571C109.195 150.505 109.465 150.252 109.479 150.246C109.482 150.244 109.504 150.418 109.559 150.446C109.562 150.391 109.679 150.196 109.779 150.069C109.826 150.069 109.871 150.063 109.915 150.058C109.904 150.146 109.89 150.235 109.887 150.324C109.901 150.28 109.96 150.174 110.037 150.044C110.173 150.022 110.312 149.972 110.449 149.908C110.435 149.844 110.435 149.788 110.46 149.741C110.454 149.752 110.487 149.811 110.529 149.863C110.574 149.841 110.618 149.824 110.66 149.797C110.649 149.572 110.621 149.186 110.668 149.136C110.729 149.089 110.81 149.602 110.879 149.619C110.824 149.594 110.715 148.464 110.979 148.584C111.021 148.753 111.071 148.92 111.132 149.083C111.213 149.067 111.024 148.353 111.06 148.29C111.16 148.12 111.257 148.972 111.335 148.853C111.41 148.767 111.354 147.976 111.432 147.976C111.435 147.976 111.552 148.345 111.574 148.234C111.627 148.148 111.49 147.807 111.599 147.751C111.671 147.718 111.704 148.104 111.807 147.915C111.899 147.746 111.735 146.985 111.827 146.91C111.916 146.838 111.946 147.426 112.063 147.401C112.274 147.365 112.23 145.086 112.099 145.086" fill="#B68150"/>
<path d="M88.629 143.89C88.6679 143.921 89.5709 147.063 89.7876 146.979C89.8682 146.941 89.7154 146.349 89.7015 146.258C89.7376 146.255 89.7709 146.249 89.8071 146.247C89.8376 146.327 89.9432 146.81 90.0738 146.796C90.1099 146.907 89.8571 146.016 89.9349 145.975C90.0627 145.966 90.0794 146.28 90.1599 146.274C90.3489 146.247 90.2683 145.63 90.2794 145.547C90.3655 145.553 90.8101 145.825 90.8018 145.836C90.8518 145.678 90.8573 145.522 90.8157 145.37C90.8712 145.414 91.0907 145.741 91.1435 145.583C91.2852 145.242 90.6045 144.412 90.8018 144.126C90.8379 144.082 91.1574 144.243 91.138 144.09C91.0907 143.712 90.7712 143.454 90.6545 143.107C90.6684 143.11 90.6462 141.456 90.6212 141.184C90.5767 140.915 90.1155 141.597 90.1044 141.617C90.0238 141.459 90.046 141.278 89.8432 141.209C89.7043 141.153 89.4737 141.928 89.3847 141.936C89.293 141.947 89.243 141.689 89.1513 141.706C88.7374 141.758 88.8652 142.708 88.6762 142.855C88.5262 142.955 88.3928 142.233 88.3484 142.239C88.1455 142.266 88.4123 142.647 88.3817 142.702C88.3039 142.833 88.24 142.455 88.165 142.624C88.2122 142.53 88.1955 144.054 88.1594 144.187C88.1983 144.151 88.5345 143.851 88.6345 143.901" fill="#B68150"/>
<path d="M84.8836 147.487C84.8697 147.457 84.8502 147.434 84.8336 147.409C84.6835 147.484 84.5363 147.551 84.4946 147.532C84.4918 147.532 84.6391 147.373 84.5391 147.398C84.4279 147.407 84.3112 147.559 84.164 147.526C84.0723 147.501 84.3223 147.39 84.0889 147.39C83.8889 147.396 83.4443 147.612 83.2887 147.557C83.1526 147.512 83.5944 147.423 83.4693 147.354C83.4165 147.354 83.2082 147.343 82.9442 147.326C82.6552 147.52 82.3163 147.917 82.1773 148.273C82.2607 148.234 82.9553 147.981 82.972 147.998C82.947 147.976 83.336 148.225 83.5777 148.398C83.6749 148.267 83.7833 148.151 83.8194 148.153C83.8222 148.153 83.8083 148.336 83.8555 148.278C83.9195 148.237 83.9167 148.07 84.0195 148.051C84.0862 148.042 83.9861 148.217 84.1251 148.142C84.2445 148.073 84.4085 147.745 84.5252 147.743C84.628 147.737 84.4057 147.956 84.5113 147.973C84.5446 147.953 84.6947 147.887 84.878 147.806C84.928 147.618 84.9169 147.462 84.8864 147.49" fill="#B68150"/>
<path d="M84.7892 145.886C84.7892 145.886 84.3363 146.971 83.8167 146.441C83.9112 146.577 83.8584 145.844 83.65 146.055C83.6333 146.072 83.6139 146.088 83.5944 146.099C83.2888 146.23 83.9834 146.746 84.0501 146.802C84.064 146.813 84.0806 146.715 84.1946 146.635C84.2251 146.668 84.2585 146.699 84.2946 146.727C84.2585 146.721 84.7336 146.702 84.6336 146.813C84.7641 146.663 84.7002 146.763 84.8308 146.607C84.8308 146.599 84.967 146.507 84.9837 146.493C84.9837 146.452 84.9253 145.658 84.7892 145.883" fill="#B68150"/>
<path d="M86.6146 142.641C86.7814 142.569 86.6869 142.638 86.8203 142.683C86.8869 142.674 86.9036 142.624 86.873 142.541L86.9008 142.239C86.8953 142.219 86.8703 142.211 86.8564 142.219C86.7675 142.413 86.7147 142.011 86.6452 141.98C86.5035 141.878 86.4785 141.911 86.3646 141.85C86.284 141.806 85.8645 142.308 85.9784 142.261C86.6452 141.98 86.5035 142.669 86.6146 142.641Z" fill="#B68150"/>
<path d="M87.99 146.357C87.99 146.357 88.2734 146.618 88.24 146.51C88.2428 146.407 87.9594 146.179 88.0261 146.077C88.0733 146.01 88.2873 146.329 88.2845 146.113C88.2845 145.921 87.7705 145.338 87.8177 145.227C87.8288 145.2 87.8538 145.211 87.8872 145.239C87.8594 145.055 87.7316 144.967 87.5287 144.983C87.2009 144.07 85.6894 143.557 85.9283 142.507C85.97 142.227 85.7172 142.613 85.6838 142.654C85.4643 142.924 85.9645 143.509 85.6421 143.509C85.5421 143.509 85.5393 143.21 85.5143 143.162C85.356 142.827 84.8586 143.11 84.8447 143.118C84.6558 143.26 84.4696 143.557 84.3168 143.773C84.3668 143.754 84.4141 143.737 84.4585 143.731C84.089 144.053 83.675 144.567 83.6972 144.686C83.7083 144.806 84.2612 144.356 84.2223 144.506C84.1807 144.606 83.7778 144.889 83.5277 145.133C83.5805 145.241 83.6916 145.333 83.7778 145.333C83.9334 145.344 84.214 145.25 84.3085 145.222C84.4724 145.164 84.6141 145.122 84.7419 145.105C84.8531 145.136 84.9225 145.222 84.8892 145.436C84.8753 145.472 85.1392 145.38 85.1198 145.416C85.2809 145.402 85.531 145.455 85.7144 145.547C85.7033 145.586 85.6227 145.635 85.5421 145.635C85.6616 145.741 86.5646 146.318 86.5646 146.382C86.5646 147.051 86.234 146.54 86.12 146.637C86.0089 146.685 86.3145 146.984 86.1562 146.998C85.7894 147.029 85.5671 147.181 85.4254 147.312C85.8005 147.762 86.4257 148.497 86.4979 148.6C86.6341 148.664 86.4312 148.225 86.5563 148.314C86.6535 148.378 86.7313 148.633 86.8063 148.847C86.9842 148.836 87.187 148.797 87.4204 148.714C87.4204 148.714 87.4204 148.719 87.4204 148.722C87.4398 148.722 87.4565 148.714 87.4704 148.694C87.5148 148.675 87.5593 148.666 87.6065 148.644C87.7482 148.58 87.8816 148.511 88.0039 148.433C87.9955 148.414 87.9844 148.394 87.9844 148.372C87.9844 148.381 88.0094 148.397 88.04 148.411C88.09 148.383 88.14 148.35 88.1872 148.32C88.0678 148.128 87.8566 147.809 87.8733 147.739C87.9011 147.667 88.2317 148.092 88.2956 148.053C88.2484 148.081 87.5871 147.129 87.8761 147.098C87.9566 147.187 88.0511 147.27 88.14 147.351C88.1233 147.301 88.1067 147.245 88.0983 147.195C87.9677 147.029 87.8066 146.843 87.8066 146.801C87.8094 146.604 88.3123 147.298 88.3206 147.154C88.3428 147.04 87.9094 146.382 87.9789 146.343" fill="#B68150"/>
<path d="M110.037 150.041C109.959 150.171 109.904 150.274 109.887 150.321C109.89 150.232 109.904 150.146 109.918 150.058C109.871 150.06 109.826 150.069 109.782 150.069C109.679 150.194 109.565 150.391 109.562 150.443C109.507 150.416 109.487 150.241 109.482 150.243C109.47 150.252 109.201 150.504 109.209 150.568C109.143 150.499 109.001 150.221 108.984 150.252C108.968 150.377 108.951 150.499 108.934 150.621C108.979 150.565 108.42 150.577 108.362 150.568C108.381 150.568 108.242 151.029 108.128 151.029C108.087 151.037 108.078 150.757 108.04 150.724C108.006 150.849 107.603 151.506 107.603 151.551C107.603 151.551 107.4 151.481 107.353 151.52C107.034 151.856 105.781 152.223 105.217 152.911C105.042 153.125 104.464 154.446 104.119 154.343C104.066 154.343 104.03 154.091 104.008 153.727C104.127 153.794 104.147 153.821 104.108 153.763C104.069 153.677 104.027 153.546 103.991 153.416C103.989 153.299 103.983 153.177 103.98 153.047C104.086 153.069 104.116 153.361 104.361 153.311C104.236 153.385 104.039 152.406 103.983 151.656C103.991 151.323 104.002 151.062 104.019 150.954C104.022 150.926 104.033 150.896 104.039 150.865C104.041 150.862 104.044 150.854 104.05 150.851C104.13 150.779 104.205 151.431 104.275 151.307C104.314 151.196 104.2 150.599 104.23 150.28C104.258 150.207 104.291 150.135 104.322 150.063C104.355 150.105 104.366 150.271 104.408 150.219C104.466 150.124 104.441 149.935 104.444 149.791C104.464 149.747 104.483 149.699 104.503 149.655C104.525 149.722 104.544 149.866 104.55 149.863C104.578 149.827 104.7 149.347 104.678 149.031C104.733 148.453 104.508 147.776 104.828 147.171C104.816 147.193 104.961 147.398 105.022 147.393C105.055 147.379 104.969 146.638 105.036 146.569C105.097 146.519 105.18 147.052 105.253 147.052C105.197 147.052 105.083 145.894 105.35 146.013C105.392 146.183 105.442 146.349 105.503 146.513C105.583 146.496 105.394 145.78 105.431 145.719C105.531 145.55 105.628 146.402 105.706 146.283C105.781 146.194 105.725 145.406 105.803 145.406C105.806 145.406 105.922 145.775 105.945 145.664C105.997 145.578 105.861 145.236 105.97 145.181C106.042 145.147 106.075 145.533 106.178 145.345C106.27 145.175 106.106 144.415 106.197 144.34C106.286 144.268 106.317 144.853 106.434 144.831C106.645 144.795 106.6 142.516 106.47 142.516C106.661 142.516 106.639 142.883 106.745 142.863C106.789 142.846 106.781 142.452 106.72 142.202C106.689 142.111 106.756 142.147 106.823 142.202C106.684 141.908 106.561 141.187 106.867 141.323C107.337 141.611 107.256 140.895 107.334 140.867C107.467 140.765 107.476 141.078 107.562 141.076C107.614 141.076 107.573 140.89 107.651 140.873C107.734 140.99 107.748 141.126 107.82 141.206C107.82 141.098 107.809 140.418 107.987 140.448C107.851 140.418 108.74 140.582 108.529 140.751C108.554 140.723 108.673 140.812 108.673 140.812C108.609 140.812 108.545 140.39 108.526 140.343C108.456 140.237 108.893 140.723 108.845 140.665C108.893 140.629 109.04 140.554 109.056 140.676C109.081 140.637 109.068 140.562 109.076 140.534C109.07 140.529 109.059 140.52 109.056 140.515C109.062 140.518 109.068 140.526 109.076 140.526V140.534C109.334 140.798 110.421 141.561 110.54 141.642C110.576 141.592 110.515 141.525 110.471 141.492C110.807 141.681 110.626 141.903 110.771 142.019C110.812 142.053 111.902 143.177 111.941 143.424C111.96 143.39 111.977 143.354 112.007 143.327C112.166 143.363 111.904 143.81 111.885 143.854C111.954 143.729 111.507 144.565 111.818 144.578C112.007 144.578 111.796 144.451 111.868 144.387C112.096 144.229 112.141 144.878 112.129 144.789C112.138 144.842 112.166 144.995 112.202 145.142C112.174 145.111 112.143 145.089 112.096 145.089C112.227 145.089 112.271 147.365 112.06 147.401C111.943 147.423 111.916 146.838 111.827 146.91C111.732 146.982 111.896 147.745 111.804 147.912C111.699 148.103 111.668 147.718 111.596 147.751C111.488 147.809 111.624 148.145 111.571 148.234C111.546 148.345 111.432 147.976 111.429 147.976C111.349 147.976 111.407 148.764 111.332 148.853C111.251 148.969 111.154 148.117 111.054 148.289C111.018 148.351 111.204 149.064 111.126 149.081C111.065 148.917 111.015 148.75 110.974 148.581C110.71 148.464 110.818 149.594 110.874 149.616C110.804 149.602 110.724 149.086 110.662 149.136C110.615 149.186 110.643 149.569 110.654 149.794C110.612 149.822 110.568 149.838 110.526 149.863C110.482 149.81 110.448 149.752 110.454 149.741C110.429 149.786 110.429 149.844 110.443 149.905C110.307 149.969 110.168 150.019 110.032 150.044M103.238 145.536C103.188 145.608 103.258 145.955 103.205 146.008C103.124 145.8 102.98 145.369 102.922 145.369C102.777 145.369 102.872 146.069 102.877 146.299C102.872 146.23 102.68 147.04 102.691 147.052C102.763 147.021 102.819 146.974 102.858 146.91C102.877 146.91 102.719 148.564 102.477 148.564C102.48 148.542 102.496 148.414 102.513 148.278C102.48 148.339 102.446 148.403 102.405 148.47C102.305 148.62 102.177 148.767 102.03 148.908C101.996 148.917 101.969 148.917 101.96 148.908C101.882 148.792 102.21 148.67 102.074 148.431C102.246 148.575 100.146 149.694 99.8763 149.525C99.7819 149.469 100.371 149.189 100.229 149.164C100.093 149.161 99.404 149.577 99.1456 149.558C98.865 149.558 99.2595 149.419 99.165 149.389C99.0206 149.353 98.7566 149.527 98.6177 149.514C98.4815 149.525 98.7927 149.372 98.7872 149.366C98.726 149.347 97.9786 149.511 97.7869 149.469C97.7702 149.461 97.7536 149.455 97.7369 149.447C97.7786 149.397 98.3704 149.269 98.137 149.233C98.062 149.233 97.6647 149.341 97.4674 149.35C97.4674 149.336 97.4618 149.322 97.4591 149.308C97.5563 149.28 97.6535 149.25 97.7591 149.219C97.7091 149.161 97.4702 149.13 97.2284 149.114C97.0784 148.975 96.97 148.833 96.9284 148.717C96.92 148.697 96.9034 148.678 96.8867 148.659C96.8867 148.659 96.8811 148.653 96.8784 148.65C96.8117 148.589 96.6978 148.539 96.6116 148.503C96.5977 148.478 96.5838 148.456 96.5699 148.431C96.5699 148.431 96.6366 148.439 96.7172 148.45C96.6727 148.389 96.6338 148.328 96.6005 148.267C96.5588 148.215 96.5199 148.162 96.4894 148.095C96.4449 147.976 96.3949 147.851 96.3477 147.723C96.306 147.607 96.2671 147.485 96.231 147.354C96.1309 146.996 96.1004 146.641 96.1115 146.33C96.0893 146.333 96.0698 146.349 96.0531 146.391C96.0837 146.344 96.0948 146.305 96.1115 146.266C96.1143 146.222 96.1226 146.18 96.1254 146.138C96.1143 146.141 96.1087 146.149 96.1004 146.155C96.1059 146.099 96.1115 146.044 96.1087 146C96.117 146.019 96.1282 146.038 96.1337 146.055C96.1337 146.044 96.1337 146.036 96.1365 146.025C96.1282 146.005 96.117 145.991 96.1059 145.972C96.1032 145.919 96.0865 145.877 96.0559 145.875C95.1974 145.875 95.3502 146.333 95.6725 146.66C95.6864 146.746 95.6947 146.835 95.6669 146.882C95.6558 146.904 95.6864 146.935 95.7336 146.968C95.8114 147.054 95.8864 147.16 95.9476 147.271C95.9114 147.326 95.8559 147.473 95.8086 147.607C95.6947 147.521 95.5586 147.443 95.3724 147.526C95.428 147.482 95.5613 147.615 95.7308 147.845C95.7308 148.087 95.7586 148.312 95.7725 148.528C95.6225 148.523 95.5141 148.911 95.4891 149.203C95.4808 149.192 95.4697 149.178 95.4697 149.178C95.4446 149.178 95.4335 149.222 95.428 149.286C95.4085 149.272 95.3919 149.278 95.3919 149.328C95.3724 149.455 95.3252 149.611 95.2807 149.733C95.2613 149.699 95.2418 149.674 95.2363 149.674C95.1779 149.674 95.1835 149.791 95.1946 149.91C95.1835 149.93 95.1668 149.946 95.1585 149.946C95.0557 149.922 95.2196 149.594 95.0418 149.519C95.1057 149.547 94.8945 150.169 94.6528 150.732C94.6167 150.668 94.5722 150.629 94.525 150.682C94.5333 150.668 94.2971 151.337 94.1582 151.62C94.1415 151.631 94.1276 151.637 94.1165 151.634C94.0026 151.609 94.1999 151.057 94.0887 151.09C94.0109 151.109 93.9193 151.476 93.822 151.742C93.7414 151.753 93.6609 151.778 93.5803 151.812C93.5775 151.79 93.5692 151.776 93.5525 151.776C93.5136 151.776 93.4858 151.82 93.4664 151.873C93.4302 151.898 93.3886 151.92 93.3608 151.948C93.3497 151.778 93.3441 151.612 93.3441 151.617C93.3163 151.673 93.1968 151.898 93.0524 152.142C93.0607 152.142 93.0718 152.139 93.0774 152.142C93.1052 152.156 93.1135 152.189 93.1135 152.259C93.0913 152.311 93.0663 152.364 93.044 152.417C93.0218 152.389 93.0024 152.289 93.0051 152.223C92.9607 152.292 92.9162 152.361 92.869 152.431C92.8968 152.228 92.9329 151.995 92.844 152.062C92.8023 152.092 92.7384 152.472 92.6773 152.68C92.655 152.708 92.6356 152.725 92.6106 152.747C92.6189 152.597 92.63 152.447 92.655 152.3C92.5495 152.186 92.405 152.442 92.2994 152.711C92.2855 152.692 92.2716 152.68 92.2633 152.675C92.2438 152.7 92.2355 152.816 92.2216 152.928C92.1994 153 92.1799 153.066 92.1716 153.116C92.1633 153.127 92.1549 153.138 92.1438 153.144C92.1438 152.994 92.2105 152.669 92.1494 152.686C92.1077 152.703 92.0466 152.853 91.9854 153.016C91.9549 152.966 91.9271 152.922 91.9132 152.916C91.8937 152.944 91.7604 153.116 91.5381 153.369C91.4408 153.472 91.3436 153.591 91.238 153.719C91.1185 153.966 90.9824 154.185 90.7851 154.243C90.7323 154.304 90.6795 154.36 90.6184 154.421C90.4156 154.621 90.1711 154.793 89.9432 154.865C89.721 154.945 89.5209 154.959 89.3514 154.951C89.0097 154.932 88.7846 154.843 88.5262 154.801C88.5095 154.798 88.5318 154.79 88.5679 154.784C88.5234 154.776 88.4845 154.773 88.4679 154.782C88.4679 154.765 88.4734 154.746 88.479 154.729C88.8235 154.576 89.2542 154.349 89.3209 154.196C89.1791 154.257 89.0458 154.304 88.9235 154.34C89.0208 154.246 89.6098 153.988 89.7015 153.902C89.9627 153.66 89.1653 154.132 89.3514 153.963C89.5126 153.821 90.2461 153.302 90.2906 153.194C90.2906 153.186 90.0155 153.327 90.1322 153.211C90.2433 153.069 90.4823 152.98 90.5851 152.786C90.6462 152.656 90.3267 152.936 90.5323 152.639C90.7129 152.364 91.2769 151.942 91.3436 151.745C91.4075 151.54 90.9768 152.009 91.0046 151.831C91.1797 151.49 92.3077 149.391 92.3439 149.683C92.1494 149.236 92.0549 149.669 91.9576 149.436C91.9215 149.333 92.0049 148.92 92.1105 148.775C92.1688 148.747 92.0577 148.625 91.9465 148.545C92.1132 148.545 92.1605 147.992 91.9187 147.534C92.2383 147.176 93.7303 144.923 92.7134 144.945C92.7245 144.945 92.6467 144.925 92.53 144.875C92.5411 144.576 92.6245 144.101 92.5717 144.098C92.5634 144.095 92.3744 144.484 92.3689 144.359C92.3272 144.243 92.5439 143.901 92.4439 143.815C92.3744 143.757 92.2522 144.179 92.1883 143.94C92.116 143.707 92.5245 142.955 92.4689 142.863C92.4022 142.747 92.1688 143.343 92.0632 143.285C92.0354 143.266 92.0215 143.224 92.016 143.174C92.3244 142.172 93.3052 140.057 93.4552 139.971C93.5886 139.893 93.5136 140.246 93.5692 140.246C94.086 140.246 94.236 139.319 94.8084 139.477C95.064 139.53 95.5141 139.013 95.7614 139.083C95.7336 139.183 95.6919 139.269 95.628 139.349C95.628 139.241 96.8978 139.038 96.9061 139.036C96.3532 139.294 97.523 139.446 97.6008 139.385C97.5952 139.455 97.3396 139.674 97.3146 139.727C97.4507 139.696 98.1064 139.666 98.1064 139.552C98.1064 139.649 97.9481 139.827 97.987 139.91C97.9314 139.621 99.0956 140.504 98.9594 140.64C98.9455 140.579 98.9539 140.518 98.99 140.465C98.9789 140.471 99.5068 140.532 99.6874 140.415H99.7069C99.7069 140.273 99.7457 140.176 99.8513 140.146C99.8152 140.154 99.8263 140.31 99.9097 140.329C99.9514 140.326 100.507 139.951 100.671 139.968C100.79 139.979 100.399 140.232 100.49 140.271C100.401 140.226 101.382 139.752 101.599 140.001C101.477 140.071 101.371 140.149 101.285 140.232C101.382 140.273 101.877 139.982 101.991 140.01C102.271 140.06 101.527 140.282 101.732 140.326C101.891 140.348 102.63 140.221 102.716 140.312C102.719 140.315 102.46 140.437 102.596 140.454C102.738 140.498 102.952 140.368 103.119 140.482C103.222 140.559 102.86 140.57 103.147 140.684C103.394 140.779 104.047 140.731 104.208 140.876C104.355 141.001 103.772 140.892 103.888 141.037C103.963 141.065 104.283 141.217 104.664 141.398C104.614 141.528 104.625 141.678 104.75 141.808C105.075 142.144 105.105 142.597 105.186 143.038C105.067 142.969 104.942 142.913 104.819 142.858C104.958 143.146 105.022 143.368 104.917 143.421C104.861 143.371 104.803 143.327 104.736 143.291L104.8 143.749C104.75 143.749 104.719 143.726 104.703 143.696C104.728 143.918 104.703 144.204 104.691 144.212C104.708 144.37 104.905 145.075 104.703 145.178C104.63 145.225 104.566 144.728 104.483 144.717C104.377 144.714 104.461 144.909 104.402 144.956C104.322 145.053 104.239 144.537 104.122 144.634C104.022 144.72 104.297 144.964 104.241 145.053C104.264 145.014 103.619 145.644 103.463 144.887C103.386 144.501 103.236 145.547 103.23 145.533M90.799 145.367C90.8407 145.519 90.8379 145.672 90.7879 145.83C90.7962 145.819 90.3517 145.55 90.2655 145.542C90.2544 145.628 90.335 146.244 90.1461 146.272C90.0683 146.277 90.0488 145.961 89.9238 145.972C89.846 146.013 90.0988 146.902 90.0599 146.793C89.9266 146.807 89.8238 146.324 89.7932 146.244C89.7571 146.247 89.7237 146.255 89.6876 146.258C89.7043 146.349 89.8571 146.94 89.7737 146.979C89.557 147.063 88.6568 143.921 88.6151 143.89C88.5179 143.84 88.1789 144.137 88.1428 144.176C88.1789 144.043 88.1956 142.519 88.1483 142.613C88.2206 142.447 88.2873 142.824 88.3623 142.691C88.3928 142.638 88.1289 142.255 88.3289 142.23C88.3734 142.225 88.5068 142.944 88.6568 142.844C88.8457 142.699 88.7179 141.75 89.1319 141.697C89.2236 141.681 89.2736 141.939 89.3653 141.928C89.4542 141.917 89.6876 141.145 89.8238 141.198C90.0294 141.267 90.0071 141.448 90.0849 141.609C90.0961 141.589 90.5601 140.906 90.6017 141.176C90.6295 141.448 90.6518 143.102 90.6379 143.099C90.7518 143.443 91.0741 143.704 91.1213 144.082C91.1408 144.231 90.824 144.07 90.7851 144.118C90.5878 144.406 91.2686 145.236 91.1297 145.578C91.0741 145.736 90.8574 145.408 90.8018 145.364M87.6037 148.65C87.5537 148.67 87.5148 148.684 87.4676 148.7C87.4537 148.72 87.4343 148.728 87.4176 148.728V148.722C87.1814 148.803 86.9786 148.839 86.8035 148.856C86.7257 148.639 86.6479 148.387 86.5535 148.323C86.4257 148.234 86.6341 148.672 86.4951 148.609C86.4229 148.506 85.7977 147.77 85.4226 147.321C85.5616 147.188 85.7811 147.038 86.1506 147.004C86.309 146.993 86.0033 146.691 86.1145 146.643C86.2312 146.541 86.5618 147.054 86.5618 146.385C86.5618 146.324 85.656 145.747 85.5393 145.641C85.6199 145.641 85.7005 145.589 85.7088 145.553C85.5282 145.461 85.2754 145.406 85.117 145.422C85.1337 145.386 84.8697 145.481 84.8864 145.442C84.9197 145.231 84.8475 145.142 84.7391 145.111C84.6085 145.125 84.4696 145.167 84.3057 145.225C84.2084 145.253 83.9278 145.35 83.775 145.336C83.6889 145.336 83.5777 145.242 83.5249 145.136C83.7778 144.892 84.1779 144.609 84.2223 144.509C84.2584 144.359 83.7083 144.809 83.6972 144.692C83.6722 144.573 84.0862 144.059 84.4557 143.737C84.414 143.74 84.3668 143.757 84.314 143.779C84.4696 143.563 84.6585 143.263 84.8447 143.124C84.8586 143.113 85.3587 142.83 85.5115 143.168C85.5393 143.216 85.5393 143.515 85.6421 143.515C85.9644 143.515 85.4615 142.93 85.6838 142.658C85.7172 142.619 85.9644 142.23 85.9283 142.513C85.6866 143.563 87.1981 144.076 87.5287 144.989C87.7316 144.97 87.8566 145.059 87.8871 145.242C87.851 145.214 87.826 145.206 87.8149 145.231C87.7705 145.342 88.2817 145.925 88.2845 146.119C88.2845 146.335 88.0733 146.016 88.0233 146.08C87.9566 146.186 88.2428 146.41 88.2372 146.516C88.2706 146.624 87.9927 146.36 87.9872 146.363C87.9177 146.402 88.3512 147.06 88.3289 147.174C88.3178 147.315 87.8177 146.624 87.8121 146.821C87.8121 146.863 87.9761 147.049 88.1039 147.213C88.115 147.262 88.1317 147.318 88.1483 147.371C88.0594 147.287 87.9677 147.207 87.8816 147.118C87.5926 147.146 88.2539 148.098 88.3039 148.073C88.24 148.109 87.9094 147.687 87.8788 147.759C87.8621 147.829 88.0733 148.145 88.1928 148.339C88.1483 148.37 88.0955 148.4 88.0483 148.431C88.0177 148.414 87.9927 148.4 87.9927 148.392C87.9927 148.412 88.0038 148.434 88.0122 148.453C87.8872 148.528 87.7566 148.6 87.6149 148.661M82.972 148.001C82.9553 147.981 82.2607 148.234 82.1774 148.276C82.3163 147.92 82.6525 147.523 82.9442 147.329C83.2082 147.349 83.4193 147.36 83.4694 147.357C83.5944 147.426 83.1554 147.515 83.2915 147.559C83.4416 147.618 83.8889 147.401 84.089 147.396C84.3251 147.396 84.0723 147.507 84.1668 147.532C84.3168 147.565 84.4279 147.41 84.5419 147.404C84.6419 147.376 84.4918 147.537 84.4974 147.537C84.5391 147.557 84.6863 147.487 84.8364 147.412C84.853 147.44 84.8725 147.462 84.8864 147.493C84.9197 147.465 84.9281 147.618 84.8808 147.809C84.6974 147.887 84.5446 147.954 84.5141 147.973C84.4085 147.954 84.6308 147.737 84.528 147.743C84.4113 147.743 84.2473 148.073 84.1306 148.14C83.9889 148.217 84.089 148.04 84.025 148.048C83.9195 148.067 83.9222 148.237 83.8583 148.278C83.8111 148.331 83.8278 148.151 83.825 148.151C83.7889 148.151 83.6805 148.267 83.5805 148.395C83.3388 148.223 82.9498 147.973 82.9748 147.998M84.2001 146.141C84.2195 146.149 84.2279 146.152 84.2279 146.163H84.239C84.239 146.163 84.2668 146.169 84.2751 146.166C84.3168 146.163 84.3335 146.144 84.3779 146.072C84.389 146.052 84.389 146.011 84.3974 146.002C84.4029 145.994 84.4085 145.891 84.4113 145.886C84.4168 145.875 84.4307 145.864 84.4418 145.864C84.4529 145.864 84.4613 145.875 84.4641 145.886C84.4641 145.9 84.4891 145.95 84.4918 145.972C84.4946 145.975 84.4918 145.994 84.4918 146C84.4918 146.011 84.4863 146.044 84.4807 146.044C84.4779 146.052 84.4613 146.138 84.4224 146.191C84.3751 146.252 84.2946 146.316 84.2112 146.297C84.2057 146.297 84.1834 146.274 84.1751 146.258C84.1556 146.252 84.1334 146.238 84.1112 146.23C84.0973 146.23 84.0834 146.213 84.0778 146.208C84.0723 146.202 84.0584 146.197 84.0584 146.197C83.9861 146.152 83.9778 146.136 83.9778 146.094C83.9778 146.083 83.9778 146.061 83.9778 146.038C83.9973 145.977 84.025 145.93 84.0584 145.883C84.0584 145.875 84.1084 145.83 84.1167 145.827C84.1167 145.825 84.1584 145.791 84.1584 145.808H84.1695C84.1695 145.808 84.1945 145.852 84.1945 145.866C84.1945 145.902 84.1695 145.911 84.1445 145.927C84.1223 145.944 84.1167 145.972 84.1167 146.005V146.019C84.1167 146.091 84.1362 146.127 84.1945 146.144M84.7836 145.894C84.9197 145.669 84.9809 146.463 84.9809 146.505C84.9642 146.519 84.8253 146.61 84.8253 146.619C84.6974 146.774 84.7586 146.671 84.628 146.824C84.7308 146.713 84.2529 146.73 84.2918 146.738C84.2557 146.71 84.2195 146.68 84.189 146.646C84.0751 146.73 84.0584 146.824 84.0473 146.813C83.9806 146.757 83.286 146.241 83.5916 146.111C83.6111 146.099 83.6277 146.083 83.6444 146.066C83.8528 145.852 83.9056 146.588 83.8111 146.452C84.3335 146.979 84.7947 145.883 84.7836 145.897M84.1751 143.057C84.1834 143.027 84.1945 142.974 84.2029 142.932C84.2029 142.896 84.2223 142.846 84.2334 142.83C84.2529 142.785 84.2668 142.719 84.2529 142.713C84.239 142.702 84.2418 142.649 84.2584 142.635C84.2862 142.616 84.3057 142.619 84.3501 142.663C84.3751 142.683 84.4085 142.699 84.4085 142.699C84.4418 142.699 84.4891 142.738 84.5474 142.794C84.5752 142.821 84.5974 142.838 84.6224 142.846C84.6669 142.855 84.6947 142.883 84.6808 142.905C84.6697 142.916 84.5391 143.035 84.4752 143.08C84.4474 143.102 84.4001 143.141 84.3668 143.171C84.3085 143.224 84.2473 143.263 84.2168 143.263C84.2168 143.263 84.1945 143.252 84.1834 143.238C84.1668 143.221 84.1584 143.213 84.1584 143.168C84.1584 143.143 84.1668 143.093 84.1751 143.06M86.359 141.867C86.4701 141.928 86.4979 141.894 86.6396 141.997C86.7091 142.025 86.7619 142.433 86.8508 142.236C86.8674 142.225 86.8897 142.236 86.8952 142.255L86.8674 142.555C86.898 142.641 86.8786 142.688 86.8119 142.697C86.6841 142.652 86.773 142.583 86.6063 142.655C86.4951 142.683 86.6341 141.994 85.97 142.277C85.8589 142.325 86.2756 141.819 86.3562 141.867M115.967 153.968C115.958 153.93 115.947 153.61 115.886 153.397C115.886 153.385 115.886 153.374 115.883 153.361C115.603 152.456 115.03 151.715 114.752 150.81C114.552 149.81 114.611 148.772 114.411 147.776C114.391 147.534 114.366 147.293 114.322 147.057C114.227 146.557 113.986 146.077 113.783 145.608C113.774 145.586 113.763 145.564 113.763 145.539C113.747 145.494 113.724 145.444 113.702 145.4C113.702 145.397 113.691 145.381 113.68 145.358C113.649 145.32 113.633 145.242 113.647 145.225C113.669 145.206 113.702 145.209 113.71 145.175C113.83 145.059 113.877 144.914 113.852 144.748C113.852 144.703 113.777 144.456 113.749 144.392C113.722 144.268 113.677 144.148 113.622 144.034C113.619 144.023 113.613 144.012 113.613 144.007C113.61 144.001 113.605 143.996 113.602 143.99C113.524 143.837 113.435 143.685 113.338 143.524C113.333 143.513 113.327 143.504 113.319 143.496C113.302 143.46 113.283 143.427 113.26 143.399C113.052 143.06 112.827 142.758 112.563 142.466C112.557 142.455 112.557 142.441 112.549 142.427C112.28 141.997 111.852 141.656 111.515 141.278C111.265 140.998 111.018 140.795 110.732 140.601C110.654 140.537 110.487 140.443 110.476 140.415C110.451 140.404 110.187 140.19 110.148 140.187C109.179 139.496 107.942 139.011 106.809 138.847C106.803 138.847 106.798 138.841 106.792 138.838C106.486 138.772 106.17 138.736 105.847 138.714C105.833 138.711 105.7 138.686 105.553 138.697C105.525 138.697 105.5 138.697 105.472 138.697C104.992 138.677 104.503 138.708 104.022 138.769C103.349 138.847 102.688 138.977 102.085 139.138H102.082C102.057 139.144 102.035 139.149 102.013 139.155C101.907 139.174 101.802 139.191 101.696 139.208C101.671 139.21 101.643 139.213 101.621 139.219C101.593 139.227 101.549 139.233 101.524 139.233C101.518 139.233 101.51 139.235 101.502 139.238C100.957 139.321 100.413 139.38 99.8569 139.413C99.2679 139.366 98.6871 139.23 98.1509 139.019C98.1398 139.019 98.1314 139.019 98.1231 139.016C98.112 139.005 98.1009 138.997 98.0926 139.002C98.037 138.991 97.9842 138.972 97.9286 138.958C97.5841 138.819 97.2423 138.675 96.895 138.547C96.8589 138.528 96.4282 138.397 96.2421 138.353C96.206 138.336 96.0837 138.317 96.0754 138.314C96.0642 138.314 95.9031 138.286 95.8725 138.286C95.7475 138.267 95.6225 138.247 95.4974 138.236C95.4891 138.236 95.4835 138.236 95.4752 138.231C95.4697 138.231 95.4641 138.233 95.4613 138.236C95.039 138.208 94.6167 138.233 94.1971 138.294C94.1916 138.294 94.1804 138.294 94.1749 138.297C93.3191 138.425 92.48 138.714 91.6854 139.066C91.6465 139.083 91.6159 139.105 91.5937 139.133C91.1963 139.308 90.8185 139.571 90.4517 139.774C89.7682 140.151 89.1069 140.582 88.4178 140.942H88.4151C88.4151 140.942 88.4123 140.945 88.4067 140.948C88.3956 140.953 88.3845 140.962 88.3706 140.967C88.3595 140.973 88.3512 140.981 88.3428 140.99C88.3234 141.001 88.3012 141.017 88.2845 141.034C88.2678 141.042 88.2539 141.051 88.24 141.059C88.2317 141.059 88.2234 141.059 88.215 141.064C88.1983 141.073 88.1872 141.084 88.1706 141.092C87.7455 141.314 87.3481 141.575 87.1314 141.958C87.0953 141.969 87.0619 141.986 87.0453 141.997C86.7535 142.255 86.898 141.911 86.7785 141.875C86.748 141.831 86.6479 141.664 86.4423 141.636C86.3701 141.625 86.3618 141.575 86.2312 141.609C86.1756 141.62 86.1367 141.658 86.0756 141.681C85.995 141.722 85.7005 142.105 85.6532 142.294C85.6338 142.33 85.606 142.408 85.606 142.408C85.606 142.408 85.606 142.45 85.5838 142.461C85.5699 142.472 85.5477 142.477 85.5449 142.497C85.5143 142.524 85.4893 142.577 85.431 142.594C85.3532 142.594 85.2781 142.608 85.2031 142.63C85.1642 142.652 85.1337 142.683 85.0864 142.674C84.9975 142.647 84.9503 142.622 84.8503 142.558C84.7669 142.466 84.6058 142.311 84.4918 142.261C84.439 142.252 84.389 142.205 84.3168 142.222C84.2446 142.239 84.2195 142.25 84.1806 142.275C84.0917 142.336 83.9834 142.505 83.9445 142.572C83.8833 142.641 83.7889 143.021 83.7833 143.141C83.775 143.157 83.7639 143.235 83.7639 143.252C83.7583 143.271 83.7555 143.304 83.7528 143.329C83.7528 143.365 83.7528 143.377 83.7639 143.399C83.7833 143.485 83.8139 143.568 83.8 143.657C83.7722 143.682 83.7472 143.718 83.7222 143.743C83.6611 143.829 83.5722 143.893 83.5166 143.996C83.511 144.012 83.4471 144.029 83.4055 144.084C83.1998 144.334 83.122 144.656 82.9414 144.934C82.9053 144.992 82.6691 145.444 82.6358 145.481C82.6164 145.525 82.5886 145.567 82.5886 145.628C82.5858 145.636 82.6108 145.73 82.6386 145.805C82.6942 145.961 82.7358 146.116 82.7775 146.272C82.7747 146.283 82.7775 146.291 82.7692 146.305C82.7525 146.413 82.6275 146.632 82.6247 146.641C82.5941 146.685 82.5691 146.727 82.533 146.768C82.4469 146.868 81.4633 148.109 81.3744 148.209C81.3216 148.276 81.2549 148.326 81.1771 148.359C81.1493 148.378 81.1215 148.406 81.0882 148.417C81.0576 148.442 81.0298 148.464 81.0048 148.487C80.9437 148.561 80.9548 148.634 81.041 148.706C81.1632 148.817 81.2855 148.989 81.4244 149.075C81.5911 149.205 81.7884 149.269 82.0162 149.264C82.069 149.278 82.0857 149.591 82.1273 149.594C82.508 149.938 82.8025 149.913 82.8025 149.913C82.8025 149.913 82.8034 149.913 82.8053 149.913C82.9025 149.924 82.997 149.927 83.097 149.913C83.411 149.869 83.6027 149.736 83.9361 149.777C84.1529 149.855 84.389 149.969 84.4279 150.058C84.6363 150.268 84.9253 150.418 85.2254 150.418C85.2476 150.427 85.3754 150.391 85.406 150.363C85.4726 150.271 85.706 150.191 85.7505 150.207C85.7699 150.207 85.7894 150.216 85.8172 150.196C85.845 150.196 85.8477 150.28 85.9033 150.249C85.92 150.241 85.9255 150.23 85.9367 150.216C85.9367 150.216 86.1562 149.985 86.1562 149.938C86.1839 149.869 86.1728 149.844 86.1728 149.844C86.1812 149.841 86.2006 149.824 86.2089 149.822C86.2367 149.816 86.2478 149.791 86.2756 149.777C86.3145 149.766 86.4507 149.758 86.6202 149.691C86.7202 149.652 86.9147 149.477 87.0036 149.427C87.0286 149.341 87.0758 149.269 87.1453 149.208C87.2203 149.294 87.4231 149.147 87.4204 149.147C87.4982 149.142 88.4456 148.967 88.5123 148.931C88.8374 148.739 89.2542 148.675 89.6098 148.561C89.8432 148.484 90.1155 148.356 90.3795 148.276C90.4545 148.256 90.5156 148.242 90.5378 148.237C90.6101 148.223 90.6823 148.206 90.7518 148.203C90.7935 148.203 90.8324 148.192 90.8657 148.178C90.8851 148.176 90.9074 148.176 90.9324 148.167C90.9824 148.178 91.038 148.19 91.0824 148.215C91.0991 148.239 91.1324 148.256 91.138 148.292C91.1574 148.351 91.1408 148.406 91.0963 148.459C91.0852 148.495 91.0352 148.725 91.0296 148.764C91.0296 148.833 90.8546 149.38 90.8296 149.45C90.8351 149.439 90.749 149.786 90.7407 149.86C90.7351 149.935 90.7323 150.008 90.6906 150.074C90.6768 150.13 90.6629 150.185 90.6406 150.238C90.6379 150.305 90.6295 150.366 90.6073 150.421C90.5962 150.532 90.5684 150.635 90.5267 150.735C90.5073 150.824 90.4128 151.173 90.3989 151.193C90.3767 151.262 90.0516 151.814 90.046 151.848C90.0016 151.923 89.9571 151.953 89.9071 152.037C89.9071 152.048 89.8515 152.1 89.8349 152.12C89.7876 152.159 89.4987 152.539 89.4848 152.561C89.4709 152.575 89.1708 152.911 89.0958 153.044C89.0597 153.086 89.0291 153.13 88.9902 153.166C88.9902 153.177 88.6929 153.538 88.6457 153.619C88.6096 153.707 88.3011 154.279 88.2873 154.329C88.2206 154.407 88.165 154.504 88.0733 154.56C88.0011 154.615 87.9261 154.665 87.8371 154.693C87.7482 154.712 87.6621 154.734 87.5704 154.723C87.4509 154.718 87.3342 154.723 87.2148 154.748C87.1342 154.762 87.0592 154.787 86.9814 154.796C86.9619 154.796 86.923 154.796 86.9008 154.804C86.8258 154.804 86.773 154.815 86.7119 154.857C86.6535 154.893 86.4673 155.015 86.4507 155.02C86.3923 155.065 86.0089 155.284 85.8755 155.489C85.8116 155.584 85.5866 155.698 85.556 155.72C85.5393 155.731 85.4504 155.834 85.4504 155.834C85.4199 155.87 85.4337 155.909 85.4282 155.958C85.4365 155.995 85.4476 156.039 85.3559 156.086C85.2504 156.139 85.2754 156.219 85.3393 156.189C85.3893 156.153 85.4365 156.119 85.4977 156.095C85.5393 156.067 85.5866 156.045 85.6227 156.011C85.7588 155.978 85.8839 155.917 86.0172 155.895C85.9589 156.02 85.87 156.125 85.7588 156.208C85.7422 156.217 85.5838 156.35 85.6671 156.336C85.7811 156.308 85.9005 156.272 85.995 156.203C86.0422 156.186 86.0978 156.167 86.1478 156.161C86.2423 156.142 86.309 156.106 86.3979 156.095C86.4479 156.053 86.5312 156.125 86.4896 156.181C86.4757 156.192 86.3979 156.253 86.3812 156.292C86.3701 156.311 86.3506 156.336 86.3423 156.358C86.3256 156.383 86.3229 156.425 86.3368 156.439C86.3423 156.447 86.359 156.447 86.3784 156.441C86.4062 156.416 86.4423 156.389 86.4646 156.361C86.3868 156.367 86.8841 156.328 86.9452 156.308C86.9786 156.328 87.0119 156.344 87.0425 156.369C87.087 156.397 87.1286 156.436 87.1703 156.455C87.1898 156.455 87.4815 156.503 87.5426 156.5C87.576 156.511 87.7649 156.469 87.7982 156.441C87.8399 156.405 87.8649 156.353 87.9149 156.394C87.9677 156.394 88.0205 156.394 88.0705 156.383C88.0983 156.383 88.1205 156.367 88.1456 156.314C88.24 156.294 88.3039 156.28 88.3817 156.35C88.4929 156.325 88.5957 156.339 88.7068 156.311C88.7513 156.308 88.7985 156.289 88.8457 156.297C89.0374 156.289 89.5959 156.253 89.632 156.203C89.7682 156.142 89.9071 156.07 90.046 155.986C91.0463 155.459 92.0132 154.426 92.8523 153.763C93.4164 153.316 93.9165 152.878 94.361 152.395C94.5305 152.245 94.7556 152.028 94.8056 151.87C95.0557 151.548 95.2891 151.198 95.5002 150.81C95.5419 150.771 95.5836 150.732 95.6252 150.688C95.6336 150.676 95.6447 150.668 95.653 150.657C95.6558 150.668 95.6586 150.676 95.6642 150.685C95.8003 150.865 95.9392 151.04 96.0809 151.212C96.1198 151.268 96.1754 151.345 96.2393 151.395C96.2782 151.443 96.3199 151.49 96.3588 151.537C96.6811 151.906 97.0201 152.256 97.3924 152.586C97.5896 152.761 97.798 152.936 98.0009 153.116C98.0009 153.119 98.0009 153.127 98.0203 153.136C98.0259 153.141 98.037 153.147 98.0425 153.155C98.1787 153.274 98.3065 153.402 98.4315 153.533C98.4315 153.533 98.4315 153.533 98.4315 153.535C98.4426 153.558 98.4621 153.577 98.4621 153.577C98.4926 153.691 98.4815 153.796 98.4176 153.905C98.2426 153.91 98.0536 153.905 97.8814 153.924C97.8175 153.924 97.7619 153.943 97.7619 153.952C97.7341 153.968 97.6952 153.982 97.6674 154.004C97.6397 154.024 97.6063 154.032 97.5813 154.038C97.5313 154.041 97.434 154.066 97.4146 154.074C97.3646 154.099 97.2257 154.19 97.2007 154.207C97.159 154.238 96.945 154.399 96.9367 154.415C96.8478 154.51 96.7811 154.618 96.6811 154.709C96.5838 154.834 96.3754 155.09 96.4227 155.101C96.4004 155.112 96.4393 155.112 96.5533 155.029C96.6088 154.99 96.7478 154.943 96.7505 154.943C96.7561 154.932 96.77 154.94 96.77 154.959C96.7116 155.023 96.6616 155.101 96.5838 155.151C96.5394 155.195 96.4949 155.231 96.4588 155.284C96.4171 155.315 96.4393 155.345 96.4782 155.328C96.5894 155.229 96.6533 155.226 96.7755 155.212C96.795 155.201 96.8283 155.198 96.8394 155.212C96.8506 155.231 96.8283 155.262 96.8033 155.273C96.7144 155.326 96.6644 155.353 96.6588 155.387C96.6588 155.387 96.6533 155.445 96.7978 155.387C96.8172 155.387 97.0145 155.303 97.2562 155.309C97.284 155.32 97.3146 155.328 97.3479 155.328H97.3896C97.4257 155.334 97.4563 155.331 97.4924 155.345C97.5341 155.351 97.723 155.345 97.8675 155.342C98.4287 155.367 99.04 155.392 99.5763 155.245C99.668 155.22 99.7569 155.19 99.843 155.154C99.8541 155.148 99.8736 155.142 99.8763 155.14C99.8902 155.14 100.021 155.101 100.049 155.081C100.085 155.07 100.118 155.07 100.143 155.043C100.168 155.031 100.179 155.023 100.193 154.987C100.201 154.959 100.218 154.94 100.232 154.918C100.251 154.895 100.268 154.87 100.285 154.845C100.296 154.84 100.301 154.829 100.304 154.818C100.393 154.687 100.446 154.535 100.521 154.351C100.538 154.313 100.557 154.274 100.571 154.235C100.588 154.207 100.602 154.174 100.618 154.146C100.618 154.146 100.618 154.143 100.621 154.14C100.74 153.907 100.91 153.641 100.982 153.397C101.157 153.108 101.141 152.878 101.138 152.855C101.138 152.836 101.138 152.778 101.013 152.408C100.971 152.217 100.902 152.034 100.818 151.851C100.632 151.431 100.496 150.976 100.249 150.59C100.24 150.577 100.229 150.568 100.218 150.557C100.207 150.521 100.199 150.485 100.196 150.457C100.224 150.502 100.882 150.607 100.985 150.627C101.188 150.663 102.205 150.596 102.216 150.607C102.58 150.554 102.93 150.443 103.261 150.271C103.283 150.271 103.311 150.277 103.327 150.282C103.524 150.318 103.255 150.835 103.224 150.868C102.999 151.09 103.483 153.993 103.48 153.971C103.508 154.113 103.383 154.349 103.366 154.371C103.355 154.382 103.338 154.401 103.327 154.421C103.305 154.457 103.044 154.479 103.01 154.462C102.905 154.421 101.716 154.568 101.655 154.607C101.557 154.64 101.543 154.759 101.204 154.876C101.066 154.99 100.874 154.995 100.79 155.184C100.693 155.198 100.693 155.229 100.64 155.301C100.621 155.342 100.604 155.384 100.588 155.423C100.56 155.459 100.546 155.548 100.563 155.559C100.582 155.562 100.602 155.542 100.599 155.525C100.638 155.453 100.668 155.376 100.74 155.345C100.757 155.345 100.76 155.353 100.768 155.376C100.779 155.42 100.779 155.445 100.757 155.459C100.729 155.492 100.71 155.534 100.679 155.562C100.646 155.614 100.607 155.653 100.615 155.723C100.652 155.689 100.727 155.653 100.74 155.606C100.824 155.537 100.907 155.489 100.993 155.528C100.954 155.606 100.929 155.692 100.857 155.75C100.865 155.75 100.924 155.82 100.977 155.703C101.041 155.659 101.049 155.62 101.104 155.537C101.132 155.564 101.179 155.567 101.188 155.625C101.171 155.72 101.138 155.753 101.085 155.825C101.091 155.836 101.102 155.836 101.152 155.811C101.216 155.786 101.252 155.745 101.293 155.698C101.368 155.698 101.443 155.714 101.513 155.759C101.527 155.77 101.527 155.773 101.513 155.8C101.488 155.836 101.455 155.867 101.432 155.906C101.493 155.917 101.541 155.9 101.574 155.85C101.591 155.834 101.621 155.82 101.621 155.789L101.646 155.817C101.666 155.831 101.682 155.847 101.713 155.856C101.805 155.817 101.882 155.828 101.944 155.892C101.985 155.914 102.01 155.942 102.03 155.972C102.099 155.989 102.169 156 102.241 156.003C102.241 156.003 102.502 156.003 102.755 156.003C103.222 156.047 103.686 156.02 104.227 155.961C104.486 155.934 104.733 155.914 104.953 155.861C104.975 155.856 105.025 155.845 105.058 155.842C105.108 155.831 105.155 155.817 105.205 155.806C105.264 155.773 105.322 155.756 105.386 155.753C105.414 155.753 105.511 155.681 105.592 155.553C105.608 155.523 105.611 155.448 105.672 155.376C106.164 154.876 106.553 154.26 107.042 153.757C107.659 153.125 108.356 152.578 109.009 151.984C109.012 151.981 109.018 151.978 109.02 151.973C109.02 151.973 109.021 151.971 109.023 151.967C109.143 151.859 109.259 151.751 109.376 151.637C109.379 151.637 109.387 151.631 109.39 151.631C109.426 151.612 109.623 151.476 109.687 151.481C109.726 151.481 109.748 151.484 109.762 151.495C109.762 151.506 109.765 151.515 109.765 151.526C109.765 151.531 109.768 151.534 109.765 151.54C109.754 151.576 109.748 151.651 109.765 151.673C109.768 151.684 109.784 151.717 109.793 151.745C109.793 151.745 109.793 151.748 109.793 151.751C109.807 151.814 109.829 151.876 109.851 151.939C109.871 152 109.898 152.07 109.934 152.139C109.946 152.159 109.957 152.178 109.971 152.198C109.99 152.231 110.012 152.259 110.037 152.289C110.096 152.372 110.157 152.45 110.229 152.525C110.235 152.536 110.243 152.544 110.254 152.55C110.365 152.661 110.485 152.758 110.612 152.847C110.682 152.9 110.754 152.95 110.826 153C110.862 153.027 110.896 153.052 110.896 153.052C110.896 153.052 110.907 153.055 110.915 153.066C110.921 153.066 110.929 153.069 110.935 153.075C111.124 153.191 111.321 153.297 111.518 153.38C111.807 153.497 112.154 153.541 112.502 153.585C112.552 153.594 112.593 153.599 112.607 153.605C112.63 153.605 112.638 153.605 112.649 153.605C112.877 153.633 113.099 153.666 113.308 153.721C113.344 153.735 113.385 153.746 113.419 153.766C113.421 153.766 113.663 153.96 113.655 154.063V154.14C113.641 154.193 113.627 154.371 113.388 154.424C113.269 154.451 113.166 154.504 113.041 154.493C112.996 154.493 112.944 154.499 112.927 154.501C112.91 154.51 112.869 154.518 112.832 154.521C112.794 154.529 112.744 154.532 112.727 154.54C112.677 154.548 112.63 154.551 112.585 154.576C112.563 154.585 112.535 154.587 112.518 154.604C112.466 154.635 112.418 154.66 112.368 154.676C112.302 154.698 112.241 154.734 112.188 154.782C112.182 154.787 112.166 154.801 112.146 154.801C112.132 154.807 112.099 154.823 112.079 154.843C112.071 154.845 111.96 154.909 111.954 154.962C111.946 154.987 111.935 154.998 111.913 155.012C111.871 155.062 111.824 155.079 111.76 155.12C111.718 155.173 111.64 155.248 111.585 155.312C111.568 155.334 111.543 155.351 111.535 155.353C111.493 155.426 111.457 155.512 111.468 155.584C111.485 155.584 111.527 155.539 111.554 155.498C111.563 155.481 111.585 155.47 111.585 155.47C111.604 155.47 111.618 155.456 111.618 155.439C111.688 155.381 111.754 155.306 111.854 155.315C111.857 155.426 111.804 155.426 111.743 155.531C111.727 155.545 111.702 155.553 111.693 155.575C111.635 155.634 111.652 155.653 111.624 155.734C111.615 155.778 111.66 155.77 111.688 155.725C111.693 155.717 111.71 155.7 111.729 155.692C111.782 155.664 111.818 155.628 111.888 155.612C111.888 155.612 112.024 155.559 112.032 155.57C112.074 155.67 111.838 155.811 111.818 155.839C111.816 155.878 111.829 155.884 111.877 155.856C111.91 155.836 111.924 155.828 112.088 155.789C112.146 155.77 112.202 155.756 112.216 155.753C112.252 155.734 112.36 155.739 112.399 155.764C112.541 155.839 112.732 155.839 112.885 155.897C112.996 155.911 113.108 155.914 113.221 155.897C113.224 155.897 113.26 155.892 113.296 155.886C113.333 155.886 113.374 155.878 113.394 155.872C113.444 155.859 113.716 155.845 113.752 155.859C113.852 155.861 113.952 155.875 114.052 155.895C114.072 155.895 114.133 155.892 114.166 155.878C114.211 155.903 114.455 155.859 114.463 155.85C114.488 155.828 114.511 155.814 114.538 155.789C114.575 155.775 114.705 155.711 114.727 155.675C114.777 155.642 114.827 155.606 114.875 155.567C114.889 155.567 114.925 155.539 114.955 155.506C115.027 155.459 115.091 155.403 115.152 155.342C115.18 155.323 115.914 154.787 115.947 154.693C115.958 154.665 116.005 154.501 116 154.479C115.986 154.315 115.972 154.154 115.958 153.991" fill="#544627"/>
</svg>
