<svg width="200" height="200" viewBox="0 0 200 200" fill="none" xmlns="http://www.w3.org/2000/svg">
<g clip-path="url(#clip0_8997_2105)">
<mask id="mask0_8997_2105" style="mask-type:luminance" maskUnits="userSpaceOnUse" x="0" y="0" width="200" height="200">
<path d="M200 0H0V200H200V0Z" fill="white"/>
</mask>
<g mask="url(#mask0_8997_2105)">
<path d="M100 200C155.228 200 200 155.228 200 100C200 44.7717 155.228 0 100 0C44.7717 0 0 44.7717 0 100C0 155.228 44.7717 200 100 200Z" fill="#003DA6"/>
<path d="M100 151.482C128.432 151.482 151.482 128.433 151.482 100C151.482 71.5677 128.432 48.5186 100 48.5186C71.5675 48.5186 48.5183 71.5677 48.5183 100C48.5183 128.433 71.5675 151.482 100 151.482Z" fill="black"/>
<path d="M193.982 100C193.982 48.1017 151.908 6.01855 100 6.01855C48.0925 6.01855 6.01855 48.1017 6.01855 100C6.01855 109.213 7.35189 118.111 9.8241 126.518L6.95372 127.509C18.8148 167.685 55.9817 197 100 197C144.018 197 181.185 167.685 193.046 127.509L190.176 126.518C192.648 118.102 193.982 109.204 193.982 99.9908V100ZM10.2778 100C10.2778 50.4446 50.4446 10.2778 100 10.2778C149.555 10.2778 189.722 50.4446 189.722 100C189.722 108.722 188.472 117.158 186.148 125.139L99.9908 95.4258L13.8519 125.13C11.5278 117.158 10.2778 108.722 10.2778 100Z" fill="black"/>
<path d="M100 0C44.7683 0 0 44.7683 0 100C0 155.232 44.7683 200 100 200C155.232 200 200 155.232 200 100C200 44.7683 155.232 0 100 0ZM100 193.982C48.0925 193.982 6.0185 151.908 6.0185 100C6.0185 48.0925 48.0925 6.0185 100 6.0185C151.908 6.0185 193.982 48.0925 193.982 100C193.982 151.908 151.908 193.982 100 193.982Z" fill="#C1C5C8"/>
<path d="M49.4257 118.389L41.1943 121.232V167.778C51.509 176.732 63.8886 183.37 77.5182 186.889V148.889C64.537 142.907 54.3424 131.917 49.4257 118.389Z" fill="#003DA6"/>
<path d="M158.787 121.222L150.565 118.389C145.648 131.917 135.454 142.907 122.472 148.889V186.88C136.102 183.361 148.482 176.722 158.796 167.768V121.222H158.787Z" fill="#003DA6"/>
<path d="M100 153.796C91.9721 153.796 84.3612 152.037 77.5183 148.889V186.889C84.7037 188.741 92.2408 189.731 100 189.731C107.759 189.731 115.296 188.741 122.482 186.889V148.898C115.639 152.046 108.028 153.805 100 153.805V153.796Z" fill="black"/>
<path d="M15.4536 130.102C20.6851 144.805 29.648 157.741 41.2036 167.768V121.222L15.4536 130.102Z" fill="black"/>
<path d="M184.546 130.111L158.787 121.231V167.778C170.343 157.75 179.305 144.815 184.546 130.111Z" fill="black"/>
<path d="M79.7962 167.602C80.1483 167.565 80.6387 167.491 80.9537 167.583L82.1112 167.917C82.4816 168.028 82.5553 168.139 82.472 168.445L79.7408 177.889C79.6483 178.195 79.5183 178.25 79.1574 178.148L77.2408 177.592C76.8703 177.491 76.7962 177.37 76.8795 177.065L78.8612 170.204L76.6849 169.583C76.3149 169.472 76.2408 169.361 76.3241 169.055L76.5278 168.342C76.5741 168.167 76.6295 168.055 76.8983 167.991C76.8983 167.991 79.4445 167.639 79.7962 167.602Z" fill="white"/>
<path d="M88.0834 173C88.2871 170.926 90.1946 169.371 92.7409 169.63C96.5 170.009 97.2317 172.482 96.935 175.445C96.6296 178.491 95.0554 180.963 91.4075 180.593C89.9259 180.445 88.7963 179.824 87.8242 178.769C87.5925 178.519 87.6759 178.417 87.935 178.195L89 177.334C89.2592 177.13 89.3984 177.084 89.6388 177.352C90.2129 177.991 90.815 178.371 91.8517 178.472C93.0554 178.593 94.0184 177.621 94.185 175.972C93.815 176.352 93.1388 176.843 91.3613 176.667C89.3796 176.472 87.8796 175.185 88.0925 172.991L88.0834 173ZM90.7779 173.102C90.6946 173.982 91.4075 174.741 92.3704 174.834C93.4538 174.945 94.185 174.324 94.2779 173.445C94.3704 172.519 93.7684 171.806 92.685 171.695C91.6388 171.593 90.8704 172.167 90.7779 173.093V173.102Z" fill="white"/>
<path d="M102.5 173.917C102.305 171.843 103.88 169.954 106.426 169.713C110.195 169.361 111.38 171.648 111.658 174.62C111.945 177.667 110.87 180.398 107.222 180.741C105.741 180.88 104.509 180.491 103.352 179.639C103.083 179.435 103.139 179.324 103.352 179.055L104.232 178.009C104.445 177.759 104.574 177.685 104.861 177.908C105.546 178.426 106.213 178.685 107.241 178.583C108.445 178.472 109.204 177.333 109.055 175.676C108.759 176.12 108.195 176.732 106.417 176.898C104.435 177.083 102.713 176.111 102.509 173.917H102.5ZM105.167 173.5C105.25 174.38 106.093 174.991 107.065 174.898C108.148 174.796 108.75 174.055 108.667 173.176C108.583 172.25 107.852 171.667 106.768 171.768C105.722 171.87 105.083 172.583 105.167 173.509V173.5Z" fill="white"/>
<path d="M119.046 174.093C118.704 174.185 118.583 174.13 118.5 173.815L118.185 172.704C118.102 172.398 118.167 172.278 118.509 172.185L119.852 171.815C120.982 171.5 121.287 170.861 121.139 170.315C120.926 169.556 120.352 169.241 119.222 169.556C118.222 169.833 117.926 170.278 117.482 171.056C117.315 171.343 117.148 171.343 116.861 171.185L115.722 170.537C115.435 170.361 115.333 170.278 115.518 169.991C116.296 168.778 117.074 167.926 118.639 167.491C120.472 166.972 123.065 167.213 123.667 169.371C123.954 170.408 123.518 171.343 122.917 171.963V171.982C123.833 172.139 124.824 172.463 125.185 173.75C125.787 175.908 124.065 177.445 121.611 178.13C120.046 178.565 118.722 178.306 117.435 177.676C117.13 177.528 117.167 177.408 117.324 177.102L117.963 175.972C118.13 175.685 118.278 175.611 118.565 175.759C119.389 176.148 120.037 176.343 121.028 176.065C122.482 175.658 122.732 175.018 122.518 174.259C122.37 173.713 121.722 173.343 120.592 173.658L119.028 174.093H119.046Z" fill="white"/>
<path d="M32.3056 81.1203C32.1019 80.7778 32.1944 80.6111 32.5185 80.3982L33.963 79.4628C34.2963 79.2499 34.4352 79.2036 34.6389 79.5461C35.4722 81.009 35.7593 83.1015 35.3611 84.9628C34.5463 88.7499 31.0093 91.2682 27.5371 90.5182C24.0648 89.7682 21.8704 86.0278 22.6759 82.2407C23.0741 80.3795 24.1944 78.5832 25.5556 77.5924C25.8796 77.3611 25.9815 77.4628 26.2037 77.7961L27.1389 79.2407C27.3426 79.5649 27.3611 79.7499 27.0371 79.9815C26.0371 80.6482 25.3981 81.5832 25.1389 82.7682C24.6296 85.1482 26.2778 86.9349 28.213 87.3515C30.1204 87.759 32.3796 86.824 32.8981 84.4349C33.1574 83.2407 32.9537 82.1386 32.3148 81.1111L32.3056 81.1203Z" fill="white"/>
<path d="M39.9352 70.046C40.2685 70.2219 40.3055 70.3794 40.1111 70.7406L39.1111 72.6385C38.9167 72.9998 38.7685 73.0552 38.4352 72.8885L28.2129 67.5277C27.8796 67.3515 27.8426 67.1944 28.037 66.8331L32.1852 58.9256C32.3796 58.5648 32.5278 58.509 32.8611 58.6756L34.1945 59.3702C34.5278 59.546 34.5648 59.7036 34.3704 60.0648L31.4629 65.6015L33.6944 66.7681L36.5092 61.4073C36.7037 61.0461 36.8518 60.9906 37.1852 61.1665L38.5185 61.861C38.8518 62.0369 38.8889 62.1848 38.6944 62.5552L35.8796 67.9165L39.9352 70.046Z" fill="white"/>
<path d="M61.6387 45.185C61.6387 45.5554 61.6387 45.7871 61.4908 45.8887L61.287 46.0371C61.1387 46.1387 60.9258 46.0742 60.5741 45.9537L54.1204 43.9446L56.5554 48.5554C56.7408 48.9075 56.7408 49.0183 56.4074 49.2592L54.6666 50.5092C54.3333 50.75 54.1112 50.75 53.9537 50.4258L48.2683 39.6111C48.2129 39.4999 48.2037 39.4537 48.3145 39.3796L48.4445 39.287C48.5091 39.2407 48.5741 39.2314 48.7312 39.287L58.8704 42.4537L59.1112 31.8333C59.1112 31.6759 59.1479 31.6111 59.2129 31.5648L59.3424 31.4722C59.4537 31.3888 59.4908 31.4074 59.5833 31.4999L67.9999 40.3518C68.2408 40.6203 68.1849 40.8148 67.8516 41.0555L66.1112 42.3054C65.7779 42.5462 65.6574 42.5183 65.3979 42.2221L61.8516 38.324L61.6574 45.1946L61.6387 45.185Z" fill="white"/>
<path d="M77.213 23.9164C80.9259 22.8053 84.8334 24.6942 85.8518 28.1016C86.8705 31.509 84.6484 35.2405 80.9351 36.3516C77.2222 37.4627 73.3151 35.5738 72.2963 32.1664C71.278 28.759 73.5001 25.0275 77.213 23.9164ZM80.213 33.935C82.6205 33.2127 83.3055 30.8979 82.7501 29.0368C82.1851 27.1387 80.3518 25.6109 77.9351 26.3331C75.6018 27.0275 74.8334 29.3331 75.3984 31.2313C75.9538 33.1016 77.8705 34.6294 80.213 33.935Z" fill="white"/>
<path d="M126.417 25.1388C126.815 25.2499 126.898 25.3795 126.796 25.7499L126.361 27.3147C126.259 27.6758 126.12 27.7499 125.722 27.6388L121.991 26.6018L119.472 35.6943C119.37 36.0555 119.231 36.1295 118.833 36.0184L116.768 35.4443C116.37 35.3333 116.287 35.2036 116.389 34.8425L118.907 25.7499L115.176 24.7129C114.778 24.6018 114.695 24.4721 114.796 24.1018L115.231 22.5369C115.333 22.1758 115.472 22.1018 115.87 22.2129L126.417 25.1295V25.1388ZM97.0645 32.9536C97.0645 33.3333 96.9445 33.4351 96.537 33.4351H94.3979C93.9812 33.4351 93.8704 33.324 93.8704 32.9536V20.8518C93.8704 20.7314 93.9074 20.6943 94.0462 20.6943H94.2408C94.3795 20.6943 94.472 20.7499 94.6112 20.8518L102.945 27.6943V21.4073C102.945 21.0277 103.065 20.9258 103.472 20.9258H105.611C106.028 20.9258 106.139 21.0369 106.139 21.4073V33.5092C106.139 33.6295 106.102 33.6666 105.963 33.6666H105.768C105.63 33.6666 105.537 33.611 105.398 33.5092L97.0645 26.574V32.9536Z" fill="white"/>
<path d="M139.018 39.5185L139.482 45.213C139.509 45.75 139.13 45.7313 138.768 45.5184L137.065 44.5C136.713 44.2871 136.583 44.0463 136.537 43.6205L136.092 38.0833L135.148 37.5185L132.824 41.3982C132.63 41.7221 132.472 41.75 132.12 41.537L130.278 40.4352C129.926 40.2222 129.88 40.0741 130.074 39.75L136 29.8426C136.195 29.5185 136.352 29.4907 136.704 29.7037L140.907 32.213C142.833 33.3611 144.768 35.5185 143.278 38.0092C142.25 39.7315 140.592 39.9445 139.009 39.5185H139.018ZM138.213 36.537C139.398 37.2407 140.148 37.213 140.62 36.4167C141.102 35.6204 140.768 34.9445 139.583 34.2407L137.759 33.1482L136.38 35.4445L138.204 36.537H138.213Z" fill="white"/>
<path d="M145.139 50.787C144.852 50.4907 144.852 50.3332 145.12 50.0741L153.463 42.0924C153.732 41.8332 153.889 41.8424 154.176 42.1387L160.343 48.5832C160.63 48.8795 160.63 49.037 160.361 49.2962L159.278 50.3332C159.009 50.5924 158.852 50.5832 158.565 50.287L154.241 45.7682L152.417 47.5091L156.565 51.8424C156.852 52.1387 156.852 52.2962 156.583 52.5553L155.5 53.5924C155.232 53.8516 155.074 53.8424 154.787 53.5462L150.639 49.2128L148.768 50.9999L153.093 55.5182C153.38 55.8149 153.38 55.972 153.111 56.2316L152.028 57.2682C151.759 57.5278 151.602 57.5182 151.315 57.222L145.148 50.7778L145.139 50.787ZM159.917 44.1574C159.62 44.1112 159.361 43.9816 159.139 43.7591L158 42.5649C157.759 42.3053 157.815 42.1387 158.398 42.1574L161.88 42.2316C162.259 42.222 162.361 42.4816 162.278 42.8795L162.009 44.1482C161.926 44.472 161.833 44.5553 161.398 44.4907L159.926 44.1666L159.917 44.1574Z" fill="white"/>
<path d="M162.843 75.3614C162.704 75.5927 162.398 75.5464 162.259 75.2872L161.093 73.0556C160.926 72.741 160.972 72.5927 161.204 72.2222L162.352 70.4447L159.787 65.5464L157.676 65.4722C157.241 65.4539 157.093 65.3985 156.926 65.0835L155.759 62.8518C155.62 62.5927 155.768 62.3335 156.028 62.3335L169.658 62.9722C170.018 63.0093 170.204 62.9722 170.287 63.1297L170.315 63.1852C170.398 63.3427 170.268 63.4722 170.083 63.7964L162.833 75.3518L162.843 75.3614ZM166.398 65.0927L162.204 65.0281L164.083 68.6206L166.417 65.1389L166.398 65.1018V65.0927Z" fill="white"/>
<path d="M168.463 89.963C168.546 90.3705 168.463 90.5001 168.102 90.5834L166.63 90.8889C166.259 90.963 166.13 90.8705 166.046 90.4722L164.371 82.5463C164.287 82.1388 164.371 82.0093 164.732 81.9259L176.028 79.5464C176.398 79.4722 176.528 79.5647 176.611 79.963L177.056 82.0555C177.139 82.463 177.056 82.5926 176.695 82.6759L167.333 84.648L168.454 89.9539L168.463 89.963Z" fill="white"/>
<path d="M122.482 136.083C124.667 133.176 126.713 130.028 128.583 126.667C136.879 111.741 141.352 93.7963 141.528 74.778C141.546 72.2963 141.472 69.3888 141.315 66.5555C137.574 65.3984 130.842 63.5184 122.472 62.1113L122.482 136.102V136.083ZM122.482 144.509C121.648 145.435 120.805 146.333 119.944 147.195L119.926 147.213C118.213 148.935 116.454 150.537 114.629 152.028C114.602 152.046 114.574 152.074 114.546 152.093C113.185 153.195 111.796 154.232 110.389 155.195C110.379 155.195 110.37 155.213 110.352 155.213C109.907 155.518 109.463 155.805 109.018 156.093C108.963 156.13 108.917 156.158 108.861 156.195C108.417 156.472 107.982 156.75 107.537 157.018C107.518 157.028 107.491 157.046 107.472 157.065C106.518 157.639 105.546 158.176 104.574 158.676C104.537 158.695 104.491 158.713 104.454 158.741C104.028 158.963 103.592 159.176 103.157 159.38C103.074 159.417 103 159.454 102.917 159.491C102.491 159.695 102.065 159.889 101.639 160.074C101.583 160.102 101.537 160.12 101.482 160.148C100.991 160.361 100.5 160.565 100.009 160.768C99.8332 160.695 99.6574 160.62 99.4815 160.546C99.222 160.435 98.9536 160.333 98.6945 160.222C98.4628 160.12 98.222 160.018 97.9907 159.908C97.7682 159.805 97.5553 159.713 97.3332 159.602C97.0924 159.491 96.8516 159.37 96.6111 159.259C96.3982 159.158 96.1945 159.055 95.9815 158.945C95.7407 158.824 95.4907 158.704 95.2499 158.574C95.0461 158.472 94.8515 158.361 94.6574 158.25C94.2036 158 93.7407 157.75 93.287 157.491C93.1016 157.389 92.9257 157.287 92.7407 157.176C92.4815 157.028 92.2315 156.87 91.9815 156.713C91.8053 156.602 91.6203 156.491 91.4445 156.38C91.1849 156.222 90.9349 156.055 90.6849 155.889C90.509 155.778 90.3424 155.667 90.1665 155.546C89.9074 155.37 89.6482 155.204 89.3886 155.028C89.259 154.935 89.1203 154.843 88.9907 154.75C88.4445 154.37 87.9074 153.981 87.3795 153.583C87.2682 153.5 87.1574 153.417 87.037 153.333C86.7682 153.13 86.509 152.926 86.2407 152.713C86.0924 152.602 85.9445 152.481 85.8053 152.37C85.5461 152.158 85.287 151.945 85.0278 151.731C84.8886 151.62 84.7499 151.5 84.6111 151.38C84.3424 151.158 84.074 150.926 83.8053 150.695C83.722 150.63 83.6482 150.555 83.5649 150.482C82.9628 149.954 82.3611 149.408 81.7682 148.852C81.7128 148.805 81.6574 148.75 81.6111 148.704C81.3424 148.445 81.0649 148.185 80.7961 147.917C80.6849 147.805 80.5649 147.695 80.4536 147.583C80.1945 147.324 79.9257 147.055 79.6665 146.796C79.5553 146.685 79.4536 146.574 79.3424 146.463C79.074 146.185 78.8053 145.898 78.537 145.611C78.4999 145.574 78.472 145.537 78.4349 145.5C78.1295 145.167 77.824 144.843 77.5182 144.5C77.074 144 76.6295 143.491 76.1945 142.981C76.0924 142.861 75.9907 142.741 75.8886 142.611C75.0182 141.574 74.1665 140.509 73.3332 139.408C73.2315 139.278 73.1386 139.148 73.037 139.009C72.2128 137.908 71.4074 136.768 70.6295 135.602C70.537 135.463 70.4349 135.315 70.3424 135.176C69.9536 134.593 69.574 134 69.1945 133.398C68.8149 132.796 68.4445 132.185 68.0832 131.574C67.9907 131.426 67.8982 131.268 67.8149 131.111C67.4536 130.491 67.0924 129.87 66.7407 129.241C58.009 113.537 53.3053 94.7038 53.1203 74.7963C53.1015 72.6388 53.1574 70.2592 53.259 67.9167C53.3424 66.0834 53.4536 64.2592 53.5924 62.5651C53.5924 62.5651 53.6111 62.5651 53.6482 62.5463C53.6665 62.5463 53.6849 62.528 53.7128 62.5184C53.7315 62.5184 53.759 62.5001 53.787 62.4909C53.8149 62.4817 53.8515 62.4722 53.8886 62.4538C53.9165 62.4447 53.9536 62.4351 53.9907 62.4167C54.0182 62.4076 54.0461 62.3984 54.074 62.3888C54.1203 62.3705 54.1665 62.3517 54.222 62.3426C54.2499 62.3426 54.2682 62.3242 54.2961 62.3151C54.3795 62.2872 54.4628 62.2592 54.5553 62.2222C54.5832 62.2222 54.6015 62.2038 54.6295 62.1947C54.7036 62.1667 54.787 62.1388 54.8795 62.1113C54.9074 62.1017 54.9445 62.0926 54.972 62.0834C55.2036 62.0092 55.4628 61.9167 55.7499 61.8242C55.7778 61.8151 55.8149 61.8055 55.8424 61.7963C55.972 61.7592 56.1015 61.713 56.2407 61.6667C56.2682 61.6667 56.287 61.6484 56.3149 61.6388C56.4815 61.5834 56.6574 61.528 56.8332 61.4722C56.8332 61.4722 56.8332 61.4722 56.8424 61.4722C57.0182 61.4167 57.1945 61.3613 57.3795 61.3055C57.4074 61.2963 57.4445 61.2872 57.4815 61.278C57.6665 61.2222 57.8515 61.1667 58.0461 61.1017C58.0553 61.1017 58.0649 61.1017 58.074 61.1017C58.287 61.0372 58.509 60.9722 58.7315 60.9076C58.7499 60.9076 58.7682 60.8984 58.787 60.8888C58.9907 60.8242 59.2036 60.7684 59.4257 60.7038C59.4536 60.7038 59.4907 60.6851 59.5182 60.6759C59.9907 60.5372 60.4999 60.3984 61.0278 60.2501C61.0553 60.2501 61.0924 60.2317 61.1203 60.2222C61.3611 60.1576 61.602 60.0926 61.852 60.0184C61.8795 60.0184 61.9074 60.0001 61.9445 59.9909C62.4999 59.8426 63.074 59.6851 63.6757 59.5372C63.7128 59.528 63.7499 59.5184 63.7961 59.5092C64.0832 59.4351 64.3703 59.3613 64.6665 59.2872C64.6849 59.2872 64.6945 59.2872 64.7128 59.278C65.037 59.1947 65.3611 59.1205 65.6945 59.0372C65.6945 59.0372 65.7036 59.0372 65.7128 59.0372C66.0278 58.963 66.3424 58.8888 66.6665 58.8055C66.7128 58.7963 66.7499 58.7872 66.7961 58.778C67.472 58.6205 68.1665 58.463 68.8795 58.3055C68.9165 58.3055 68.9536 58.2872 68.9907 58.278C69.3149 58.2038 69.6482 58.1388 69.972 58.0651C70.0182 58.0555 70.0553 58.0463 70.1015 58.0372C70.8332 57.8797 71.574 57.7317 72.3424 57.5742C72.3982 57.5651 72.4628 57.5555 72.5182 57.5372C72.8703 57.4722 73.222 57.3984 73.5832 57.3334C73.6111 57.3334 73.6482 57.3242 73.6757 57.3151C74.074 57.2409 74.4815 57.1667 74.8886 57.0926C74.9074 57.0926 74.9165 57.0926 74.9349 57.0926C75.3149 57.028 75.6945 56.963 76.074 56.8888C76.1386 56.8797 76.2128 56.8613 76.2778 56.8517C76.6757 56.7872 77.0832 56.713 77.4815 56.6484C77.4815 56.6484 77.5278 56.6484 77.5461 56.6388C78.287 56.5184 79.037 56.4076 79.8053 56.2963C79.8982 56.278 79.9999 56.2684 80.0924 56.2592C80.8424 56.1484 81.6015 56.0463 82.3703 55.9447C82.4257 55.9447 82.4815 55.9259 82.537 55.9259C83.3332 55.8242 84.1482 55.7317 84.9628 55.6388C85.0553 55.6297 85.1482 55.6205 85.2407 55.6113C86.0461 55.528 86.8703 55.4447 87.6945 55.3705C87.7315 55.3705 87.7778 55.3705 87.8149 55.3613C88.6665 55.2872 89.5182 55.2222 90.3886 55.1576C90.472 55.1576 90.5649 55.1484 90.6574 55.1388C91.5182 55.0834 92.3886 55.028 93.2682 54.9909C93.287 54.9909 93.3149 54.9909 93.3332 54.9909C94.222 54.9447 95.1295 54.9167 96.0278 54.8984C96.1111 54.8984 96.1849 54.8984 96.2682 54.8984C97.1849 54.8797 98.1016 54.8613 99.0278 54.8613C99.2778 54.8613 99.972 54.8613 99.972 54.8613C99.972 54.8613 100.657 54.8613 100.917 54.8613C101.852 54.8613 102.778 54.8705 103.694 54.8984C103.759 54.8984 103.824 54.8984 103.889 54.8984C105.741 54.9447 107.555 55.028 109.352 55.1484C109.398 55.1484 109.444 55.1484 109.491 55.1484C111.305 55.2684 113.083 55.4351 114.815 55.6205C114.833 55.6205 114.842 55.6205 114.861 55.6205C117.5 55.9076 120.037 56.2592 122.454 56.6484C122.861 56.713 123.269 56.7872 123.676 56.8517C123.741 56.8613 123.805 56.8705 123.87 56.8888C124.259 56.9538 124.639 57.0184 125.018 57.0926C125.037 57.0926 125.046 57.0926 125.065 57.0926C125.472 57.1667 125.889 57.2409 126.287 57.3151C126.315 57.3151 126.342 57.3242 126.37 57.3334C126.732 57.3984 127.092 57.4722 127.444 57.5372C127.5 57.5463 127.555 57.5555 127.62 57.5742C128.389 57.7222 129.139 57.8797 129.861 58.0372C129.907 58.0372 129.944 58.0555 129.991 58.0651C130.324 58.1388 130.648 58.2038 130.972 58.278C131.009 58.278 131.046 58.2963 131.092 58.3055C131.805 58.463 132.5 58.6205 133.167 58.778C133.213 58.7872 133.25 58.7963 133.296 58.8055C133.62 58.8797 133.935 58.9538 134.241 59.0372C134.241 59.0372 134.259 59.0372 134.268 59.0372C134.602 59.1205 134.935 59.2038 135.259 59.278C135.268 59.278 135.278 59.278 135.287 59.278C135.583 59.3517 135.879 59.4259 136.167 59.5001C136.204 59.5092 136.25 59.5184 136.287 59.528C136.889 59.6851 137.472 59.8334 138.028 59.9909C138.055 59.9909 138.083 60.0092 138.111 60.0092C138.361 60.0742 138.611 60.1484 138.852 60.213C138.889 60.213 138.917 60.2317 138.954 60.2409C139.482 60.3888 139.982 60.528 140.454 60.6667C140.491 60.6759 140.518 60.6851 140.555 60.6947C140.778 60.7592 140.991 60.8242 141.194 60.8797C141.204 60.8797 141.222 60.8797 141.232 60.8888C141.463 60.9538 141.685 61.0184 141.898 61.0834C141.898 61.0834 141.917 61.0834 141.926 61.0834C142.12 61.1388 142.315 61.2038 142.5 61.2592C142.528 61.2684 142.565 61.278 142.592 61.2872C142.778 61.3426 142.963 61.3984 143.139 61.4538C143.324 61.5092 143.491 61.5651 143.657 61.6205C143.685 61.6205 143.713 61.6388 143.741 61.6484C143.87 61.6947 144 61.7317 144.12 61.7684C144.157 61.778 144.194 61.7872 144.222 61.8055C144.509 61.8984 144.768 61.9817 145 62.0651C145.028 62.0742 145.065 62.0834 145.092 62.0926C145.176 62.1205 145.259 62.1484 145.333 62.1759C145.361 62.1759 145.389 62.1947 145.417 62.2038C145.509 62.2317 145.592 62.2684 145.676 62.2963C145.704 62.3055 145.732 62.3151 145.75 62.3242C145.805 62.3426 145.852 62.3613 145.898 62.3797C145.926 62.3888 145.954 62.3984 145.982 62.4076C146.018 62.4167 146.046 62.4351 146.074 62.4447C146.12 62.463 146.167 62.4817 146.204 62.4909C146.222 62.4909 146.241 62.5001 146.25 62.5092C146.333 62.5372 146.379 62.5555 146.379 62.5555C146.574 64.9538 146.722 67.6297 146.805 70.2409C146.852 71.8055 146.87 73.3426 146.852 74.7872C146.685 93.0372 142.713 110.38 135.333 125.241C134.657 126.593 133.963 127.926 133.241 129.232C132.889 129.861 132.537 130.482 132.176 131.093C132.083 131.25 131.991 131.398 131.907 131.555C131.546 132.167 131.176 132.778 130.796 133.38C130.417 133.982 130.037 134.565 129.648 135.148C129.555 135.296 129.454 135.435 129.361 135.583C128.583 136.75 127.778 137.88 126.954 138.982C126.852 139.12 126.75 139.25 126.648 139.389C125.824 140.481 124.972 141.546 124.102 142.583C124 142.713 123.889 142.833 123.787 142.963C123.352 143.472 122.917 143.981 122.463 144.481L122.482 144.509ZM77.5278 136.083V62.1017C77.5278 62.1017 77.5182 62.1017 77.509 62.1017C69.1574 63.5092 62.4257 65.3797 58.6849 66.5463C58.5278 69.3797 58.4536 72.2872 58.472 74.7684C58.6482 93.7872 63.1203 111.731 71.4165 126.658C73.287 130.018 75.3332 133.167 77.5182 136.083H77.5278Z" fill="black"/>
<path d="M58.6849 66.5461C58.5278 69.3795 58.4536 72.287 58.472 74.7682C58.6482 93.787 63.1203 111.732 71.4166 126.657C73.287 130.018 75.3332 133.167 77.5182 136.083V62.1016C69.1574 63.5091 62.4257 65.3795 58.6849 66.5461Z" fill="#003DA6"/>
<path d="M128.583 126.667C136.88 111.741 141.352 93.7963 141.528 74.778C141.546 72.2963 141.472 69.3888 141.315 66.5555C137.574 65.3984 130.843 63.5184 122.472 62.1113V136.093C124.667 133.185 126.713 130.037 128.583 126.676V126.667Z" fill="#003DA6"/>
<path d="M140.343 97.1947C131.158 95.7131 122.435 103.824 115.917 119.278C112.371 127.695 111.009 133.13 109.778 139.898C107.556 139.917 104.111 139.898 104.111 139.898C104.111 139.898 104.75 135.408 106.25 129.018C107.741 122.639 113.75 106.648 115.917 99.0372C116.222 97.9818 116.454 96.9447 116.63 95.926C119.296 80.4168 107.908 70.0464 100 64.8335C92.0834 70.0464 80.6851 80.4168 83.3614 95.926C83.5372 96.9539 83.7593 97.991 84.0651 99.0372C86.2318 106.658 92.2409 122.639 93.7409 129.018C95.2318 135.408 95.8797 139.898 95.8797 139.898C95.8797 139.898 92.4259 139.917 90.213 139.898C88.9722 133.13 87.6113 127.704 84.0651 119.278C77.5555 103.824 68.8334 95.7222 59.6388 97.1947C58.7872 97.3335 57.9539 97.5556 57.1484 97.8518C59.0926 107.565 62.213 116.759 66.4447 125.13C66.4722 125.13 66.4909 125.121 66.5184 125.121C71.0743 124.398 75.528 125.611 78.6851 128.509C83.5743 133 83.5926 139.889 83.5926 139.889H75.8151C78.1576 142.843 80.6576 145.556 83.278 147.991C87.9351 147.991 93.0834 147.991 94.5926 147.991C94.2222 150.167 92.6484 152.148 90.4076 153.713C93.5001 155.833 96.713 157.602 100 158.972C103.287 157.611 106.5 155.843 109.583 153.722C107.343 152.158 105.759 150.167 105.389 147.991C106.898 147.991 112.065 147.991 116.722 147.991C119.343 145.556 121.843 142.852 124.185 139.889H116.38C116.38 139.889 116.398 133 121.296 128.509C124.454 125.611 128.889 124.398 133.454 125.121C133.491 125.121 133.518 125.13 133.556 125.139C137.787 116.768 140.917 107.574 142.861 97.8614C142.037 97.5556 141.204 97.3335 140.343 97.1947Z" fill="white"/>
<path d="M83.3518 95.9167C83.528 96.9446 83.7501 97.9817 84.0555 99.028C86.2222 106.648 92.2318 122.63 93.7318 129.009C95.2222 135.398 95.8705 139.889 95.8705 139.889H99.9909V64.8242C92.0743 70.0371 80.6759 80.4075 83.3518 95.9167Z" fill="#C1C5C8"/>
<path d="M186.63 123.463L153.5 112.037C154.37 108.167 154.833 104.139 154.833 99.9998C154.833 90.8053 152.565 82.1294 148.565 74.5182C148.583 70.8332 148.407 66.3611 148.083 62.4536L148 61.3886L147 61.0182C146.898 60.9815 142.13 59.2315 134.528 57.3982C125.102 49.7498 113.092 45.1665 100.009 45.1665C86.9258 45.1665 74.9075 49.7498 65.4817 57.3982C57.8887 59.2315 53.1112 60.9815 53.0092 61.0182L52.0092 61.3886L51.9258 62.4536C51.6017 66.3611 51.4258 70.8332 51.4446 74.5182C47.4446 82.1294 45.1667 90.8053 45.1667 99.9998C45.1667 104.139 45.6387 108.157 46.5 112.028L13.3704 123.454C13.6667 124.546 13.9814 125.62 14.3148 126.694L47.3333 115.305C52.3704 132.648 65.7408 146.444 82.815 152.074C87.9721 156.537 93.5554 160.009 99.3796 162.333L100 162.583L100.62 162.333C106.445 160.009 112.028 156.528 117.185 152.074C134.259 146.444 147.63 132.648 152.667 115.315L185.685 126.704C186.018 125.629 186.333 124.546 186.63 123.463ZM100 48.5182C109.333 48.5182 118.287 50.9907 126.12 55.6111C118.805 54.259 110.111 53.1757 100.945 53.1757H100H99.065C89.8983 53.1757 81.2037 54.2498 73.8796 55.6111C81.7129 50.9815 90.6667 48.5182 100 48.5182ZM63.5925 136.407C53.8704 126.685 48.5092 113.759 48.5092 99.9998C48.5092 93.7869 49.6112 87.7407 51.7037 82.0832C52.8333 99.5832 57.4721 116.055 65.2683 130.083C68.5183 135.926 72.2683 141.204 76.4075 145.787C71.7408 143.37 67.4167 140.231 63.5925 136.407ZM62.8704 117.231C63.2221 118.111 63.5833 118.982 63.9629 119.852C63.5925 118.991 63.2221 118.111 62.8704 117.231ZM63.9629 119.861C64.7408 121.648 65.565 123.407 66.435 125.12C65.565 123.398 64.7408 121.648 63.9629 119.861ZM90.565 153.833C90.8983 154.065 91.2317 154.287 91.565 154.509C91.3517 154.37 91.1296 154.231 90.9167 154.083C90.7962 154 90.685 153.917 90.565 153.833ZM100 158.982V147.944L94.5925 148C94.2221 150.176 92.6387 152.157 90.4075 153.731C88.3887 152.342 86.4167 150.815 84.5092 149.129C78.2962 143.648 72.7408 136.648 68.1946 128.463C67.5925 127.37 67 126.268 66.435 125.148C66.4629 125.148 66.4908 125.139 66.5183 125.129C71.0742 124.407 75.5279 125.62 78.685 128.518C82.3242 131.861 83.2683 136.528 83.5092 138.704C81.9817 119.528 69.8887 111.537 61.7779 114.389C57.3612 102.37 54.9817 89.1203 54.8054 75.324C54.8054 75.1573 54.8054 74.9907 54.8054 74.824C54.7871 72.9907 54.8242 70.9348 54.9075 68.8423C54.9721 67.1573 55.065 65.4628 55.185 63.8332C56.1946 63.4907 57.935 62.9257 60.2592 62.259C62.1483 61.7219 64.4258 61.1111 67.0183 60.4998C75.2779 58.5461 86.7317 56.5461 99.0742 56.5461H100.009H100.954C113.296 56.5461 124.75 58.5461 133.009 60.4998C135.602 61.1111 137.88 61.7219 139.768 62.259C142.092 62.9257 143.833 63.4907 144.842 63.8332C144.963 65.4628 145.055 67.1665 145.12 68.8515C145.204 70.9444 145.241 72.9998 145.222 74.8332C145.222 74.9998 145.222 75.1665 145.222 75.3423C145.046 89.1386 142.657 102.389 138.25 114.398C130.139 111.565 118.055 119.555 116.537 138.722C116.778 136.546 117.722 131.879 121.361 128.537C124.518 125.639 128.963 124.426 133.528 125.148C133.546 125.148 133.574 125.148 133.592 125.157C133.028 126.278 132.445 127.389 131.833 128.481C127.287 136.666 121.732 143.667 115.518 149.148C113.454 150.972 111.315 152.629 109.111 154.102C106.176 156.074 103.139 157.713 100.028 159.009L100 158.982ZM91.5742 154.509C91.9537 154.759 92.3333 155 92.7221 155.232C92.3425 154.991 91.9537 154.75 91.5742 154.509ZM92.7592 155.259C93.1296 155.482 93.5 155.704 93.8612 155.926C93.4908 155.713 93.1204 155.491 92.7592 155.259ZM95.1575 156.667C95.4908 156.842 95.815 157.018 96.1483 157.194C95.815 157.018 95.4908 156.852 95.1575 156.667ZM96.3704 157.305C96.685 157.463 97 157.62 97.3054 157.778C96.9908 157.62 96.6758 157.472 96.3704 157.305ZM97.5833 157.907C97.8887 158.055 98.1946 158.194 98.5092 158.333C98.2037 158.194 97.8887 158.055 97.5833 157.907ZM138.204 114.426C137.88 115.305 137.546 116.185 137.195 117.055C137.537 116.185 137.88 115.305 138.204 114.426ZM137.13 117.222C136.046 119.926 134.852 122.565 133.565 125.129C134.861 122.565 136.046 119.935 137.13 117.222ZM136.398 136.407C132.574 140.231 128.259 143.37 123.583 145.787C127.722 141.204 131.472 135.926 134.722 130.083C142.518 116.055 147.158 99.5832 148.287 82.0923C150.38 87.7498 151.482 93.7961 151.482 100.009C151.482 113.759 146.13 126.685 136.398 136.417V136.407Z" fill="#C1C5C8"/>
</g>
</g>
<defs>
<clipPath id="clip0_8997_2105">
<rect width="200" height="200" fill="white"/>
</clipPath>
</defs>
</svg>
