<svg width="200" height="200" viewBox="0 0 200 200" fill="none" xmlns="http://www.w3.org/2000/svg">
<path d="M100 186.75C147.911 186.75 186.75 147.911 186.75 100C186.75 52.0893 147.911 13.25 100 13.25C52.0893 13.25 13.25 52.0893 13.25 100C13.25 147.911 52.0893 186.75 100 186.75Z" fill="black"/>
<path d="M99.9999 148.58C126.83 148.58 148.58 126.83 148.58 99.9999C148.58 73.1699 126.83 51.4199 99.9999 51.4199C73.1699 51.4199 51.4199 73.1699 51.4199 99.9999C51.4199 126.83 73.1699 148.58 99.9999 148.58Z" fill="#0085CA"/>
<path d="M100 181.545C55.0351 181.545 18.4551 144.965 18.4551 100C18.4551 55.0351 55.0351 18.4551 100 18.4551C144.965 18.4551 181.545 55.0351 181.545 100C181.545 144.965 144.965 181.545 100 181.545ZM179.81 100C179.81 56.0001 144 20.1901 100 20.1901C56.0001 20.1901 20.1901 56.0001 20.1901 100C20.1901 144 56.0001 179.81 100 179.81C144 179.81 179.81 144 179.81 100Z" fill="white"/>
<path d="M100 155.52C69.385 155.52 44.48 130.615 44.48 100C44.48 69.385 69.385 44.48 100 44.48C130.615 44.48 155.52 69.385 155.52 100C155.52 130.615 130.615 155.52 100 155.52ZM153.785 100C153.785 70.3425 129.657 46.215 100 46.215C70.3425 46.215 46.215 70.3425 46.215 100C46.215 129.657 70.3425 153.785 100 153.785C129.657 153.785 153.785 129.657 153.785 100Z" fill="white"/>
<path d="M122.288 124.588L121.25 127.57C121.187 127.753 121.086 127.921 120.954 128.062C120.822 128.203 120.661 128.315 120.483 128.39C118.665 129.14 112.433 131.28 100.633 131.28C88.6801 131.28 81.4901 128.93 79.4526 128.158C79.2647 128.087 79.095 127.976 78.9557 127.831C78.8164 127.687 78.7112 127.513 78.6476 127.323L77.6476 124.405C77.6203 124.328 77.6148 124.245 77.6315 124.164C77.6483 124.084 77.6868 124.01 77.7427 123.95C77.7987 123.89 77.87 123.847 77.9489 123.825C78.0278 123.803 78.1112 123.803 78.1901 123.825C85.2996 125.748 92.6351 126.708 100 126.68C107.334 126.706 114.642 125.806 121.75 124C121.83 123.978 121.913 123.979 121.992 124.002C122.072 124.025 122.143 124.069 122.198 124.13C122.254 124.19 122.292 124.265 122.307 124.346C122.323 124.427 122.316 124.51 122.288 124.588ZM100 123.21C111.79 123.21 120.848 120.685 123.305 119.928C123.511 119.863 123.698 119.752 123.852 119.601C124.007 119.451 124.123 119.266 124.193 119.063L136.5 83.3975C136.447 83.2278 136.359 83.0708 136.242 82.9362C136.126 82.8016 135.983 82.6923 135.823 82.615C135.536 82.4757 135.207 82.4499 134.902 82.5426C134.597 82.6353 134.338 82.8397 134.178 83.115C131.448 87.735 128.703 89.1575 127.798 89.615L127.768 89.63C127.491 89.7751 127.269 90.007 127.137 90.2901C127.004 90.5733 126.969 90.8921 127.035 91.1975C127.035 91.1975 127.035 91.225 127.035 91.2375V91.2725C127.085 91.4925 127.153 91.815 127.213 92.2275C127.253 92.585 127.293 93.0275 127.33 93.52C127.417 94.5655 127.381 95.6176 127.225 96.655C124.655 98.2425 121.183 99.7775 118.43 98.79C116.25 98 114.575 94.56 113.975 87.4175C114.672 86.0609 115.603 84.8379 116.725 83.805L116.75 83.7825C116.979 83.5696 117.133 83.2874 117.187 82.9792C117.241 82.6709 117.193 82.3534 117.05 82.075C117.044 82.063 117.039 82.0504 117.035 82.0375L117.018 82.005C116.915 81.8075 116.768 81.505 116.6 81.13C116.47 80.7975 116.318 80.38 116.155 79.9125C115.69 78.4125 115.29 76.185 115.513 73.05C115.545 72.7313 115.464 72.4112 115.283 72.1467C115.103 71.8821 114.834 71.6902 114.525 71.605C114.205 71.5287 113.867 71.5792 113.583 71.746C113.299 71.9128 113.09 72.1829 113 72.5C111.563 77.6875 109.28 79.7925 108.53 80.5L108.505 80.5225C108.275 80.7352 108.122 81.0173 108.067 81.3257C108.013 81.6341 108.062 81.9517 108.205 82.23L108.22 82.2675L108.238 82.3C108.34 82.4975 108.488 82.8 108.655 83.175C108.785 83.5075 108.938 83.925 109.1 84.3925C109.36 85.2405 109.545 86.1097 109.653 86.99C106 93.7875 103.328 96.16 100 96.18C96.6726 96.16 94.0001 93.7875 90.3426 86.9825C90.4506 86.1022 90.6354 85.233 90.8951 84.385C91.0576 83.9175 91.2101 83.5 91.3401 83.1675C91.5051 82.785 91.6551 82.49 91.7576 82.2925L91.7751 82.26L91.7901 82.2225C91.9336 81.9442 91.9819 81.6266 91.9277 81.3182C91.8736 81.0098 91.7198 80.7277 91.4901 80.515L91.4651 80.4925C90.7151 79.7975 88.4326 77.6925 86.9951 72.4925C86.9065 72.1745 86.6981 71.9032 86.4139 71.7354C86.1296 71.5676 85.7913 71.5164 85.4701 71.5925C85.1612 71.6777 84.8926 71.8696 84.7118 72.1342C84.531 72.3987 84.4498 72.7188 84.4826 73.0375C84.7076 76.1725 84.3051 78.405 83.8401 79.9C83.6776 80.365 83.5251 80.785 83.3951 81.1175C83.2301 81.5 83.0801 81.795 82.9776 81.9925L82.9601 82.025C82.9562 82.0379 82.9512 82.0505 82.9451 82.0625C82.8021 82.3409 82.754 82.6584 82.8081 82.9667C82.8623 83.2749 83.0157 83.557 83.2451 83.77L83.2701 83.7925C84.3916 84.826 85.3224 86.0489 86.0201 87.405C85.4251 94.56 83.7501 98 81.5651 98.79C78.8151 99.7775 75.3401 98.2425 72.7701 96.655C72.6132 95.6176 72.5788 94.5654 72.6676 93.52C72.7026 93.02 72.7426 92.585 72.7826 92.2275C72.8426 91.815 72.9101 91.4925 72.9601 91.2725V91.2375C72.9601 91.225 72.9601 91.21 72.9601 91.1975C73.0265 90.8921 72.9907 90.5733 72.8584 90.2901C72.7261 90.007 72.5045 89.7751 72.2276 89.63L72.1976 89.615C71.2951 89.1475 68.5476 87.725 65.8176 83.115C65.6569 82.8397 65.3981 82.6353 65.0931 82.5426C64.7881 82.4499 64.4594 82.4757 64.1726 82.615C64.0123 82.6923 63.8695 82.8016 63.753 82.9362C63.6365 83.0708 63.5487 83.2278 63.4951 83.3975L75.7101 118.818C75.7786 119.017 75.8923 119.198 76.0423 119.346C76.1924 119.495 76.3747 119.606 76.5751 119.673C79.0351 120.478 88.2176 123.21 100 123.21ZM82.5226 110.96C83.1095 110.96 83.6833 111.134 84.1713 111.46C84.6593 111.786 85.0396 112.25 85.2642 112.792C85.4888 113.334 85.5476 113.931 85.4331 114.506C85.3186 115.082 85.036 115.611 84.621 116.026C84.2059 116.441 83.6772 116.723 83.1016 116.838C82.5259 116.952 81.9292 116.894 81.387 116.669C80.8448 116.445 80.3813 116.064 80.0552 115.576C79.7292 115.088 79.5551 114.514 79.5551 113.928C79.5538 113.537 79.6296 113.15 79.7781 112.788C79.9266 112.427 80.1449 112.099 80.4206 111.822C80.6962 111.545 81.0238 111.325 81.3845 111.175C81.7452 111.025 82.132 110.948 82.5226 110.948V110.96ZM117.478 110.96C118.065 110.962 118.638 111.138 119.125 111.466C119.612 111.794 119.991 112.259 120.213 112.802C120.436 113.345 120.493 113.942 120.376 114.517C120.259 115.092 119.975 115.62 119.558 116.034C119.141 116.447 118.611 116.728 118.035 116.84C117.459 116.952 116.862 116.891 116.321 116.665C115.78 116.438 115.318 116.055 114.993 115.566C114.669 115.077 114.498 114.502 114.5 113.915C114.5 113.525 114.578 113.138 114.728 112.777C114.877 112.417 115.097 112.089 115.374 111.814C115.65 111.538 115.978 111.32 116.339 111.171C116.7 111.023 117.087 110.947 117.478 110.948V110.96ZM94.1726 112.338C94.7596 112.337 95.3336 112.511 95.822 112.836C96.3103 113.162 96.691 113.625 96.916 114.168C97.141 114.71 97.2001 115.307 97.0859 115.882C96.9717 116.458 96.6893 116.987 96.2743 117.402C95.8594 117.818 95.3307 118.101 94.755 118.215C94.1793 118.33 93.5825 118.271 93.0401 118.047C92.4977 117.822 92.0341 117.442 91.7079 116.954C91.3817 116.466 91.2076 115.892 91.2076 115.305C91.2066 114.915 91.2825 114.528 91.431 114.167C91.5795 113.806 91.7976 113.478 92.0729 113.201C92.3483 112.924 92.6754 112.704 93.0357 112.554C93.3959 112.404 93.7823 112.326 94.1726 112.325V112.338ZM105.825 112.338C106.412 112.338 106.986 112.512 107.474 112.838C107.962 113.164 108.342 113.627 108.567 114.169C108.791 114.712 108.85 115.308 108.736 115.884C108.621 116.46 108.338 116.988 107.923 117.403C107.508 117.818 106.98 118.101 106.404 118.215C105.828 118.33 105.232 118.271 104.69 118.047C104.147 117.822 103.684 117.442 103.358 116.954C103.032 116.466 102.858 115.892 102.858 115.305C102.856 114.914 102.932 114.527 103.081 114.166C103.229 113.805 103.447 113.476 103.723 113.199C103.999 112.922 104.326 112.703 104.687 112.553C105.048 112.403 105.434 112.325 105.825 112.325V112.338Z" fill="white"/>
<path d="M51.7499 58.1026C51.8374 59.4701 51.3299 61.1451 50.1099 62.5601C48.3099 64.6501 45.2374 64.6551 42.8849 62.6276C40.4649 60.5426 40.1024 57.4351 41.9474 55.2901C42.8568 54.2515 44.039 53.4885 45.3599 53.0876L45.3799 53.0351L43.3299 51.2676C42.3428 51.8719 41.4598 52.6317 40.7149 53.5176C37.7149 57.0176 37.5249 61.8076 41.2149 64.9851C44.3774 67.7101 48.7149 67.5726 51.6074 64.2176C52.6935 63.0165 53.4445 61.5507 53.7849 59.9676L51.8024 58.0701L51.7499 58.1026Z" fill="white"/>
<path d="M63.0901 47.0549L58.9401 42.1124C57.7751 40.7199 57.1901 39.7299 56.6901 38.4424L53.7276 40.9199C54.9076 41.6349 55.7776 42.3974 56.9426 43.7899L58.2701 45.3774L53.7251 49.1774L52.3976 47.5924C51.2326 46.1999 50.6351 45.2074 50.1476 43.9199L47.1851 46.3974C48.3651 47.1149 49.2351 47.8774 50.4001 49.2699L54.4651 54.1274C55.6301 55.5199 56.2276 56.5099 56.7151 57.7999L59.5801 55.2174C58.4001 54.4999 57.5301 53.7374 56.3651 52.3449L55.1151 50.8449L59.6626 47.0449L60.9351 48.5724C62.1001 49.9649 62.6851 50.9574 63.1851 52.2449L66.3076 49.9374C65.1251 49.2099 64.2501 48.4474 63.0901 47.0549Z" fill="white"/>
<path d="M89.8999 34.0002C91.4574 32.8152 92.1724 31.3602 91.8549 29.6077C91.4399 27.3052 89.1599 25.7052 85.3024 26.4002L81.7124 27.0477C82.3899 28.2552 82.7724 29.3477 83.0949 31.1352L84.2174 37.3677C84.5399 39.1527 84.5649 40.3102 84.3499 41.6777L88.1899 40.7902C87.5124 39.5827 87.1299 38.4927 86.8074 36.7052L86.3899 34.3752C88.0224 36.0727 89.4774 37.4902 90.8049 38.6252C91.7624 39.4302 92.5849 39.9077 93.1374 40.0102L95.6199 39.7602L95.6074 39.6877C93.2324 37.5477 91.5499 35.9802 89.8999 34.0002ZM86.3424 34.1077L85.2499 28.0427C87.1599 27.6977 88.8849 28.5677 89.2124 30.3877C89.4624 31.7652 88.5474 33.1452 86.3424 34.0977V34.1077Z" fill="white"/>
<path d="M101.952 37.8524L102.295 29.2499C102.367 27.4374 102.595 26.3024 103.1 25.0149L99.165 24.8574C99.5675 26.1824 99.7025 27.3299 99.63 29.1449L99.38 35.3949C99.3075 37.2074 99.0825 38.3424 98.575 39.6449L106.257 39.9124L107.715 36.7349L107.68 36.6974C106.407 37.2674 103.807 37.7824 101.952 37.8524Z" fill="white"/>
<path d="M121.022 27.75C116.75 26.5 112.475 28.8525 111.292 32.9125C110.205 36.6425 112.055 41.0025 116.69 42.3525C121.012 43.6025 125.285 41.4725 126.555 37.115C127.825 32.7575 125.187 28.975 121.022 27.75ZM123.552 37C122.775 39.6675 120.385 41.315 117.787 40.5575C114.65 39.645 113.4 36.215 114.302 33.1125C115.16 30.1675 117.665 28.9125 119.965 29.5825C122.927 30.4325 124.475 33.815 123.552 37Z" fill="white"/>
<path d="M139.972 39.785L142.5 37.8675L132.4 32.105L130.082 34.3375L130.097 34.3875C131.752 34.4458 133.366 34.914 134.795 35.75L130.625 43.07C129.725 44.6475 129.017 45.57 127.96 46.46L131.382 48.41C131.632 47.0525 132.045 45.9675 132.942 44.39L137.112 37.07C138.525 37.895 139.365 38.7275 139.972 39.785Z" fill="white"/>
<path d="M151.817 49.635L154.702 48.2925L146.035 40.5425L143.3 42.235V42.2875C144.906 42.6921 146.385 43.4903 147.605 44.61L142 50.85C140.79 52.2025 139.905 52.9425 138.68 53.6L141.615 56.2275C142.15 54.9525 142.777 53.9775 143.987 52.6275L149.605 46.3775C150.8 47.48 151.445 48.4725 151.817 49.635Z" fill="white"/>
<path d="M79.0725 39.9224L72.75 34.0624C71.7742 33.2033 70.8649 32.2714 70.03 31.2749L67.9425 32.2299C68.1313 33.5269 68.2149 34.837 68.1925 36.1474V44.8974C68.1925 46.7524 68.0575 47.8149 67.7725 48.8624L67.795 48.9124L71.43 46.8274C71.3411 46.6888 71.2618 46.5443 71.1925 46.3949C70.9575 45.8774 70.84 45.2074 70.7975 44.1624L76.7775 41.4299C77.57 42.1999 77.9675 42.6799 78.205 43.2074C78.277 43.3566 78.3291 43.5146 78.36 43.6774L82.27 42.2374L82.2475 42.1874C81.0751 41.6066 80.0032 40.8419 79.0725 39.9224ZM75.1025 39.8124L70.75 41.7999L70.6425 35.5674L75.1025 39.8124Z" fill="white"/>
<path d="M157.405 51.5352C156.635 52.6827 155.832 53.5177 154.385 54.6102L149.413 58.3727C147.963 59.4677 146.942 60.0102 145.625 60.4377L151.655 68.6127L154.905 67.7652V67.7127C153.215 66.7402 151.655 65.3177 149.973 63.0227L149.155 61.9002L152.805 59.1502L153.643 60.2577C154.58 61.5902 155.307 62.9127 155.51 63.7852L158.46 63.4427L154.335 58.0002L157.91 55.2927L158.768 56.3927C159.764 57.6964 160.413 59.2319 160.652 60.8552L163.675 60.1877L157.405 51.5352Z" fill="white"/>
<path d="M44.5525 137.647L47.3425 135.725C47.9575 136.615 48.4475 137.667 48.5125 138.375L50.57 138.125L47.0825 133.065C46.4714 133.892 45.7139 134.601 44.8475 135.155L41.145 137.705C40.3189 138.319 39.3867 138.776 38.395 139.052L39.98 141.355C40.5921 140.528 41.3504 139.819 42.2175 139.265L43.4375 138.425C44.095 139.38 44.4375 140.117 44.4925 140.795L46.5175 140.51L44.5525 137.647Z" fill="white"/>
<path d="M55.4325 143.368C53.23 141.105 49.7675 141.06 47.6175 143.155C45.6425 145.08 45.26 148.42 47.6525 150.875C49.8825 153.165 53.27 153.335 55.5775 151.09C57.885 148.845 57.5825 145.575 55.4325 143.368ZM53.77 149.953C52.3575 151.33 50.305 151.513 48.965 150.135C47.3475 148.475 47.7725 145.92 49.415 144.32C50.975 142.798 52.96 142.898 54.1475 144.118C55.675 145.685 55.45 148.318 53.77 149.953Z" fill="white"/>
<path d="M65.4376 151.718C62.8151 149.968 59.4201 150.63 57.7476 153.125C56.2151 155.415 56.5301 158.758 59.3776 160.668C62.0301 162.445 65.3776 161.918 67.1726 159.238C68.9676 156.558 68.0001 153.43 65.4376 151.718ZM65.1701 158.5C64.0726 160.138 62.1026 160.75 60.5076 159.673C58.5826 158.383 58.4701 155.795 59.7576 153.89C60.9701 152.083 62.9326 151.768 64.3451 152.715C66.1526 153.935 66.4751 156.555 65.1701 158.5Z" fill="white"/>
<path d="M71.8226 155.75L70.3601 157.5L70.3726 157.533C71.5452 157.446 72.7211 157.651 73.7951 158.13L71.3626 163.75C70.9938 164.711 70.4457 165.593 69.7476 166.35L72.3126 167.462C72.3922 166.435 72.66 165.431 73.1026 164.5L75.5351 158.883C76.4196 159.231 77.1904 159.818 77.7626 160.577L79.4051 159.025L71.8226 155.75Z" fill="white"/>
<path d="M105.583 171.267L105.083 165.182C104.962 164.161 105.029 163.125 105.28 162.127L102.495 162.36C102.908 163.302 103.145 164.312 103.195 165.34L103.57 169.822C103.691 170.844 103.624 171.88 103.373 172.877L108.778 172.425L109.555 169.967L109.528 169.945C108.673 170.467 106.885 171.057 105.583 171.267Z" fill="white"/>
<path d="M115.408 169.815L114.058 163.857C113.796 162.862 113.718 161.828 113.828 160.805L111.103 161.422C111.642 162.298 112.017 163.265 112.21 164.275L113.21 168.662C113.471 169.657 113.548 170.692 113.438 171.715L118.728 170.515L119.158 167.975L119.125 167.955C118.353 168.592 116.665 169.422 115.408 169.815Z" fill="white"/>
<path d="M134.815 161.19C134.367 162.288 133.519 163.174 132.442 163.67C130.65 164.55 128.615 163.707 127.647 161.73C126.647 159.692 127.305 157.547 129.147 156.647C130.045 156.215 131.045 156.037 132.037 156.135L132.067 156.105L131.222 154.38C130.393 154.507 129.59 154.765 128.842 155.145C125.842 156.612 124.342 159.72 125.857 162.82C127.16 165.482 130.067 166.585 132.95 165.172C134.014 164.683 134.934 163.927 135.62 162.977L134.855 161.185L134.815 161.19Z" fill="white"/>
<path d="M143.602 155.468C143.137 156.35 141.897 157.765 140.885 158.608L137.355 153.625C136.732 152.806 136.264 151.88 135.975 150.893L133.692 152.5C134.528 153.101 135.246 153.85 135.81 154.71L138.41 158.378C139.032 159.197 139.5 160.123 139.79 161.11L144.217 157.975L143.637 155.475L143.602 155.468Z" fill="white"/>
<path d="M148.378 144.112C147.635 143.401 147.03 142.558 146.593 141.627L144.593 143.575C145.51 144.04 146.335 144.669 147.025 145.432L149.618 148.102C149.831 148.314 150 148.567 150.114 148.846C150.227 149.125 150.283 149.423 150.279 149.724C150.274 150.025 150.209 150.322 150.087 150.597C149.964 150.872 149.788 151.12 149.568 151.325C148.71 152.16 147.568 152.15 146.36 150.905L143.948 148.405C143.205 147.693 142.6 146.851 142.163 145.92L140.163 147.867C141.08 148.332 141.905 148.962 142.595 149.725L144.99 152.19C146.9 154.16 148.718 154.387 150.195 152.952C150.88 152.287 151.34 151.32 151.588 150.005C151.847 150.246 152.072 150.521 152.258 150.822L153.95 149.182C153.032 148.718 152.208 148.088 151.518 147.325L148.378 144.112Z" fill="white"/>
<path d="M85.2499 160.63L81.7024 159.665C81.7701 160.692 81.6481 161.722 81.3424 162.705L80.1624 167.048C79.9257 168.05 79.5081 169 78.9299 169.853L82.4999 170.825C84.5524 171.383 86.5874 170.68 87.0599 168.953C87.3599 167.845 86.9649 166.935 85.9524 165.898C86.9024 165.595 87.5999 164.998 87.8274 164.165C88.2499 162.648 87.2499 161.173 85.2499 160.63ZM85.1674 168.448C84.8949 169.448 83.7549 170.055 82.2624 169.65L81.4749 169.435L82.5524 165.5C84.7799 166.113 85.4749 167.348 85.1749 168.448H85.1674ZM85.9599 163.75C85.7299 164.595 84.4599 165 82.8149 164.553L83.6974 161.303L84.4824 161.518C85.5399 161.803 86.2174 162.8 85.9599 163.75Z" fill="white"/>
<path d="M159.295 137.5C158.377 136.81 157.387 136.84 156.045 137.4C156.115 136.4 155.815 135.535 155.125 135.015C153.875 134.072 152.125 134.457 150.887 136.107L148.68 139.047C149.661 139.362 150.577 139.854 151.38 140.5L154.975 143.2C155.82 143.789 156.55 144.528 157.127 145.38L159.352 142.42C160.627 140.717 160.727 138.567 159.295 137.5ZM150.94 137.805L151.44 137.152C152.097 136.277 153.275 136.017 154.057 136.605C154.755 137.13 154.665 138.46 153.637 139.825L150.94 137.805ZM158.17 142.217L157.67 142.867L154.42 140.422C155.807 138.575 157.21 138.387 158.122 139.072C158.957 139.687 159.1 140.972 158.17 142.21V142.217Z" fill="white"/>
<path d="M96.8302 164.89C96.5132 164.02 96.2625 163.128 96.0802 162.22L94.4227 162.093C94.087 162.964 93.6798 163.806 93.2052 164.61L90.2502 169.878C89.814 170.726 89.2574 171.507 88.5977 172.195V172.233L91.4752 172.455C91.4677 172.339 91.4677 172.222 91.4752 172.105C91.5102 171.655 91.7052 171.14 92.1277 170.355L92.1852 170.248L96.7202 170.595L96.7452 170.673C97.0477 171.603 97.1527 172.103 97.1177 172.55C97.1109 172.668 97.0891 172.784 97.0527 172.895L99.9702 173.12V173.083C99.4285 172.321 99.0132 171.477 98.7402 170.583L96.8302 164.89ZM92.9752 168.75L94.9277 165.085H95.0051L96.2302 168.99L92.9752 168.75Z" fill="white"/>
<path d="M164 78.47C164.33 78.3665 164.688 78.3981 164.995 78.5579C165.302 78.7177 165.533 78.9927 165.637 79.3225C165.692 79.4859 165.712 79.6585 165.698 79.8301C165.685 80.0016 165.637 80.1687 165.557 80.3213C165.478 80.474 165.368 80.6092 165.236 80.7189C165.103 80.8286 164.95 80.9106 164.785 80.96C164.623 81.0143 164.453 81.035 164.283 81.0208C164.113 81.0066 163.948 80.9579 163.798 80.8775C163.643 80.8 163.505 80.6917 163.393 80.5593C163.282 80.427 163.198 80.2732 163.148 80.1075C163.048 79.7773 163.082 79.4213 163.241 79.1154C163.4 78.8095 163.672 78.5779 164 78.47Z" fill="#0085CA"/>
<path d="M163.75 84.6327L166.713 86.9202C167.33 87.4027 167.658 87.5127 168.075 87.4202C168.54 87.3277 168.793 86.9202 168.68 86.3452C168.58 85.8452 168.2 85.5177 167.738 85.6102C167.594 85.6417 167.458 85.7021 167.338 85.7877L166.73 84.2052C166.949 84.062 167.193 83.9618 167.45 83.9102C167.726 83.8574 168.01 83.8676 168.282 83.9399C168.553 84.0121 168.805 84.1447 169.018 84.3277C169.542 84.7745 169.887 85.3962 169.988 86.0777C170.303 87.6752 169.715 88.7777 168.568 89.0052C167.733 89.1727 167.068 88.9152 166.1 88.1827L164.53 87.0002L165.068 89.7227L163.723 89.9902L162.705 84.8452L163.75 84.6327Z" fill="#0085CA"/>
<path d="M168 99.1648C167.534 99.2095 167.064 99.1594 166.618 99.0176C166.172 98.8759 165.76 98.6453 165.405 98.3398C164.751 97.6931 164.361 96.8258 164.312 95.9072C164.263 94.9887 164.559 94.0849 165.14 93.3723C165.745 92.7023 166.578 92.3373 167.64 92.2823C168.703 92.2273 169.575 92.5023 170.245 93.1073C170.897 93.7563 171.284 94.625 171.33 95.544C171.377 96.4629 171.079 97.3661 170.495 98.0773C170.174 98.417 169.787 98.6884 169.358 98.8752C168.93 99.0621 168.468 99.1606 168 99.1648ZM165.75 95.8298C165.753 96.068 165.811 96.3025 165.919 96.5149C166.026 96.7273 166.182 96.912 166.373 97.0548C166.82 97.3637 167.362 97.502 167.903 97.4448C168.452 97.4462 168.984 97.2521 169.403 96.8973C169.575 96.7343 169.708 96.5345 169.792 96.3128C169.876 96.0912 169.909 95.8534 169.888 95.6173C169.886 95.3813 169.829 95.149 169.723 94.9383C169.617 94.7276 169.464 94.5442 169.275 94.4023C168.831 94.0905 168.29 93.9478 167.75 93.9998C167.205 93.999 166.679 94.1973 166.27 94.5573C166.092 94.715 165.954 94.9123 165.866 95.1333C165.778 95.3544 165.744 95.5929 165.765 95.8298H165.75Z" fill="#0085CA"/>
<path d="M165.5 102.142L167.75 105.127C168.22 105.76 168.5 105.95 168.93 105.98C169.402 106.012 169.755 105.687 169.795 105.105C169.832 104.605 169.545 104.18 169.08 104.147C168.933 104.138 168.785 104.16 168.647 104.212L168.5 102.525C168.748 102.445 169.01 102.414 169.27 102.432C169.55 102.454 169.822 102.538 170.065 102.679C170.308 102.819 170.517 103.013 170.675 103.245C171.064 103.817 171.232 104.511 171.147 105.197C171.032 106.822 170.175 107.73 169.01 107.647C168.162 107.587 167.582 107.16 166.845 106.202L165.65 104.625L165.455 107.392L164.087 107.295L164.455 102.065L165.5 102.142Z" fill="#0085CA"/>
<path d="M164.685 110.598L166.545 113.848C166.927 114.533 167.187 114.758 167.605 114.848C168.067 114.94 168.46 114.663 168.575 114.098C168.675 113.598 168.45 113.15 167.987 113.055C167.843 113.024 167.694 113.024 167.55 113.055L167.597 111.36C167.854 111.312 168.118 111.312 168.375 111.36C168.651 111.419 168.91 111.54 169.133 111.713C169.356 111.886 169.537 112.107 169.662 112.36C169.975 112.979 170.052 113.689 169.88 114.36C169.56 115.958 168.592 116.748 167.447 116.515C166.615 116.348 166.095 115.85 165.487 114.805L164.5 113.078L163.952 115.798L162.607 115.528L163.642 110.388L164.685 110.598Z" fill="#0085CA"/>
<path d="M164.7 119.365C165.029 119.471 165.303 119.703 165.461 120.01C165.619 120.318 165.65 120.675 165.545 121.005C165.495 121.169 165.412 121.322 165.302 121.455C165.191 121.587 165.055 121.696 164.902 121.774C164.749 121.853 164.582 121.9 164.41 121.913C164.238 121.926 164.066 121.905 163.902 121.85C163.573 121.744 163.3 121.511 163.142 121.204C162.984 120.896 162.955 120.539 163.06 120.21C163.109 120.046 163.193 119.895 163.304 119.766C163.416 119.637 163.553 119.532 163.707 119.46C163.857 119.376 164.023 119.324 164.194 119.307C164.365 119.291 164.537 119.311 164.7 119.365Z" fill="#0085CA"/>
<path d="M38.7724 120.447L32.2499 122.22L31.8074 120.587L36.0574 117.362L30.7499 116.727L30.3049 115.095L36.8349 113.322L37.2349 114.795L33.6624 115.765L34.7274 115.817L37.6174 116.205L37.9874 117.567L35.6899 119.362L34.7974 119.945L38.3699 118.975L38.7724 120.447Z" fill="#0085CA"/>
<path d="M36.4999 110.955L29.8174 112.022L29.5674 110.475L36.2499 109.407L36.4999 110.955Z" fill="#0085CA"/>
<path d="M35.8701 106.985L29.1201 107.407L29.0226 105.845L32.7001 103.135C32.8598 103.017 33.0268 102.911 33.2001 102.815L28.8401 103.085L28.7451 101.562L35.4951 101.14L35.5926 102.702L31.9001 105.412C31.7355 105.531 31.5635 105.638 31.3851 105.735L35.7751 105.462L35.8701 106.985Z" fill="#0085CA"/>
<path d="M30.1249 99.0001L28.7549 98.9251L29.0524 93.3701L30.4224 93.4426L30.3149 95.4426L35.6974 95.7301L35.6149 97.2926L30.2324 97.0001L30.1249 99.0001Z" fill="#0085CA"/>
<path d="M36.0251 91.8852L29.3501 90.7827L30.1551 85.9102L31.5076 86.1327L30.9601 89.4602L32.1701 89.6602L32.6701 86.6002L33.9851 86.8176L33.4851 89.8777L34.9251 90.1152L35.4801 86.7502L36.8351 86.9752L36.0251 91.8852Z" fill="#0085CA"/>
<path d="M37.2676 84.9677L30.7676 83.1002L31.3701 81.0002C31.6801 79.9152 32.2101 79.1202 32.9501 78.6102C33.6901 78.1002 34.6026 78.0077 35.6601 78.3102C36.7176 78.6127 37.4326 79.1802 37.7901 79.9977C38.1476 80.8152 38.1851 81.7802 37.8726 82.8677L37.2676 84.9677ZM36.5526 82.3377C36.9076 81.1027 36.4251 80.1602 35.2251 79.8152C34.0251 79.4702 33.1176 80.0152 32.7626 81.2502L32.5526 81.9852L36.3426 83.0727L36.5526 82.3377Z" fill="#0085CA"/>
</svg>
