<svg width="200" height="200" viewBox="0 0 200 200" fill="none" xmlns="http://www.w3.org/2000/svg">
<path fill-rule="evenodd" clip-rule="evenodd" d="M167.147 23.6851C172.12 37.7826 182.96 75.9951 182.377 109.905C163.847 140.668 132.18 167.75 99.9999 185.018C67.8249 167.75 36.1549 140.668 17.6249 109.905C17.0424 75.9951 27.8749 37.7826 32.8524 23.6851C75.5249 11.6076 124.822 11.6076 167.147 23.6851Z" fill="white"/>
<path fill-rule="evenodd" clip-rule="evenodd" d="M167.147 23.6853C172.12 37.7828 182.96 75.9953 182.377 109.905C163.847 140.668 132.18 167.75 100 185.018C67.825 167.75 36.155 140.668 17.625 109.905C17.0425 75.9953 27.875 37.7828 32.8525 23.6853C75.525 11.6078 124.822 11.6078 167.147 23.6853ZM30.21 20.8428C76.3825 7.84277 121.572 7.84277 169.787 20.8428C175.365 35.9153 186.607 76.3128 185.81 110.873C166.06 145.123 128.092 174.448 100 188.913C71.9075 174.443 33.9325 145.118 14.19 110.868C13.3925 76.3078 24.6325 35.9128 30.21 20.8428Z" fill="#041E42"/>
<path d="M64.845 96.1352L61.4925 86.2427L57.4375 88.5652V110.6L61.45 108.303V97.4677L64.6725 106.458L68.8025 104.093V82.0552L64.845 84.3227V96.1352Z" fill="#041E42"/>
<path d="M156.86 31.6175V53.6525L161.322 51.0975V29.0625L156.86 31.6175Z" fill="#041E42"/>
<path d="M78.6699 75.8601C75.4199 77.7251 73.2249 81.3076 73.2349 83.4951V95.8201C73.2349 98.0701 75.3924 100.268 78.7799 98.6451C84.1974 96.0501 84.0799 93.2801 84.0699 91.0926V88.0226L79.6299 90.5651V93.6676L77.6774 94.7851V81.1726L79.6299 80.0551V84.3701L84.0699 81.8476V77.3251C84.0599 75.1376 81.8824 74.0201 78.6699 75.8601Z" fill="#041E42"/>
<path d="M38.61 98.8052C35.36 100.673 33.165 104.253 33.175 106.44V118.768C33.175 121.018 35.3325 123.213 38.72 121.59C44.14 119 44.0225 116.225 44 114.038V110.968L39.57 113.5V116.605L37.62 117.723V104.118L39.57 103V107.318L44 104.793V100.273C44 98.0852 41.8225 96.9652 38.61 98.8052Z" fill="#041E42"/>
<path d="M88.23 92.9753L92.6925 90.4202V68.3853L88.23 70.9403V92.9753Z" fill="#041E42"/>
<path d="M48.1724 115.907L52.6349 113.352V91.3174L48.1724 93.8724V115.907Z" fill="#041E42"/>
<path d="M142.032 44.3277L145.09 42.5777V60.4002L149.552 57.8452V40.0202L152.61 38.2702V34.0527L142.032 40.1102V44.3277Z" fill="#041E42"/>
<path d="M104.905 73.205L101.55 63.3125L97.4974 65.635V87.6625L101.507 85.365V74.54L104.732 83.52L108.86 81.155V59.125L104.905 61.3925V73.205Z" fill="#041E42"/>
<path d="M120.985 63.9803L117.63 54.0903L113.577 56.4103V78.4378L117.59 76.1428V65.3153L120.812 74.2953L124.942 71.9303V49.9028L120.985 52.1678V63.9803Z" fill="#041E42"/>
<path d="M131.95 45.9327L129.073 69.5552L133.443 67.0552L133.75 63.1352L136.3 61.6202L136.75 65.1627L141.043 62.7052L137.658 42.6152L131.95 45.9327ZM133.825 59.1352L135.023 50.5752L135.845 57.8877L133.825 59.1352Z" fill="#041E42"/>
<path fill-rule="evenodd" clip-rule="evenodd" d="M146.575 26.3651L25.3975 95.7676C27.125 70.3876 33.9425 44.0176 38.5925 29.7826C75.8675 19.9376 114.1 20.2801 146.575 26.3651ZM53.1425 40.3651V45.2801H56.125V49.2801H53.1425V59.0001L48.1725 61.8626V36.5401H57.95V40.3751L53.1425 40.3651ZM72.5575 48.9626V54.4626C72.5575 56.6526 70.2075 58.9751 66.615 58.9751C62.97 58.9751 60.5125 56.6526 60.5125 54.4626V40.6451C60.5125 38.4576 62.97 36.1451 66.615 36.1451C70.2075 36.1451 72.5575 38.4676 72.5575 40.6451V42.4276L67.6425 45.2501V39.7226L65.5375 40.9301V55.4126L67.6425 54.2076V51.7876L72.5575 48.9626Z" fill="#003087"/>
<path fill-rule="evenodd" clip-rule="evenodd" d="M41.4275 129.578L168.665 56.7051C172.165 72.3676 175.067 90.6626 175.005 107.788C156.202 138.038 127.217 160.865 100.005 176.583C73.015 160.865 56.355 146.5 41.4275 129.578ZM129.827 110.25C131.059 109.915 132.207 109.326 133.197 108.52C133.197 108.52 133.372 110.808 132.227 112.77C131.56 111.813 130.751 110.963 129.827 110.25ZM104.552 112.25L108.42 110.038C108.42 110.038 106.49 109.57 105.152 108.213L115.5 102.275L114.297 100.615H130.24L131.225 102.288C131.225 102.288 133.867 102.908 135.375 104.398L132.927 104.778L134.137 106.14C133.222 107.278 130.835 108.77 128.557 109.233C127.47 108.497 126.321 107.855 125.125 107.313L128.95 105.12C128.95 105.12 126.735 103.75 121.57 102.303C122.97 103.181 124.299 104.167 125.547 105.25L122.22 107.155C122.22 107.155 128.07 109.838 131.277 115.6L127.402 115.685C127.402 115.685 122.917 123.985 115.795 128.685V123.98C115.795 123.98 111.135 123.48 108.485 121.443L111.082 119.893C111.082 119.893 108.12 119.43 105.45 116.643L108.852 114.713C108.852 114.713 106.8 114.45 104.552 112.25ZM126.552 101.75C127.012 102.296 127.591 102.729 128.244 103.016C128.897 103.304 129.607 103.439 130.32 103.41L129.272 101.858L126.552 101.75ZM87.1425 141.818L87.525 145.203C85.2375 146.715 79.2625 150.13 74.4925 147.795C70.9125 146.045 70.1275 141 72.81 136.72C75.9275 131.755 80.9475 131.653 83.7175 133.47C83.7175 133.47 83.195 136.763 79.73 138.873L80.4675 135.925C78.78 135.073 76.5925 135.843 75.3425 137.893C73.6625 140.643 74.145 143.82 76.4175 144.968C80.18 146.873 87.1425 141.818 87.1425 141.818ZM147.32 127.948C147.32 127.948 149.732 127.948 149.912 130.053C148.7 129.49 147.802 129.873 147.802 129.873C145.837 130.565 143.739 130.797 141.67 130.553L136.55 136.028C136.626 136.863 136.751 137.692 136.925 138.513C133.375 137.275 130.23 135.35 128.217 133.953L130.035 137.203C130.035 137.203 128.642 140.763 121.157 145.54L120.857 142.323C120.857 142.323 113.375 137.63 108.835 138.558C104.545 146.38 96.94 145.4 96.94 145.4L94.835 152.918C94.835 152.918 101.93 153.88 100.525 159.578L98.58 158.418C98.58 158.418 98.7625 159.918 97.465 160.63L95.885 158.448C96.4875 160.253 93.5475 160.99 93.5475 160.99C93.5475 160.99 93.4 159.028 92.7975 158.24L90.5175 155.423L88.375 137.658L91.0725 138.793C97.5225 133.43 100.025 126.628 100.025 126.628C100.025 126.628 109.205 131.285 115.745 130.555C117.12 130.36 124.3 125.343 128.47 117.305L131.755 117.233C131.755 117.233 134.317 121.11 135.03 125.63L132.682 125.19C133.263 126.432 133.709 127.732 134.015 129.068L140.09 125.543C143.715 123.415 148.9 123.008 149.662 125.163C149.662 125.163 147.967 125.03 147.557 125.803C147.557 125.803 149.865 125.635 150.09 127.553C150.092 127.558 148.137 127 147.32 127.948ZM114.42 156.465L112.95 155.385C113.242 156.53 112.307 157.26 112.307 157.26C111.92 156.638 111.436 156.081 110.875 155.61C110.917 156.708 109.312 157.61 109.312 157.61C109.161 156.922 108.824 156.289 108.337 155.78L106.31 153.845L100.725 146.37C106.807 146.018 110.017 140.045 110.017 140.045C117.945 147.583 108.1 149.295 108.1 149.295L108.707 151.978C108.707 151.978 115.375 151.475 114.42 156.465ZM133.642 116.7C134.725 118.16 136.075 121.478 136.835 125.068L139.75 120.518L140.715 122.725C142.625 119.225 144.43 115.99 145.382 114.288C145.783 114.489 146.222 114.604 146.67 114.625V115.875C146.533 116.191 146.463 116.531 146.462 116.875C146.754 117.318 147.151 117.682 147.617 117.933C148.084 117.682 148.481 117.318 148.772 116.875C148.77 116.531 148.698 116.191 148.56 115.875V114.625C148.93 114.565 149.335 114.443 149.78 114.323C150.37 112.855 150.11 110.688 150.11 110.688C150.486 110.247 150.772 109.737 150.955 109.188C150.455 108.648 149.615 108.295 148.555 108.133V108L151.277 106.343V104.525L149.56 105.57L149.547 83.0451L147.595 80.9626L145.642 82.9276L145.657 105.58L143.78 104.435V106.343L146.552 107.883V108.035C145.552 108.035 144.712 108.213 144.16 108.633C144.227 109.24 144.434 109.824 144.765 110.338L133.642 116.7ZM95.7225 121.403L87.7225 125.918C89.4975 127.153 94.9725 126.305 98.955 124.143C98.955 124.143 107.615 128.853 114.09 128.893L114.07 125.318C102.117 122.478 98.62 114.068 96.3375 108.128L72.46 121.778C75.545 124.278 84.695 119.715 91.96 115.763C92.1225 116.085 92.3075 116.443 92.5175 116.82L79.8775 124.07C83.025 126.505 89.41 123.02 94.9275 120.485C95.1675 120.79 95.4475 121.1 95.7225 121.403ZM129.305 95.9651C128.937 95.404 128.434 94.9442 127.842 94.6276C127.252 94.946 126.75 95.4066 126.382 95.9676C126.399 96.485 126.489 96.9974 126.647 97.4901H124.975C125.199 96.7517 125.323 95.9865 125.342 95.2151C124.741 94.3002 123.921 93.5507 122.955 93.0351C121.991 93.5534 121.172 94.3045 120.572 95.2201C120.592 95.9919 120.717 96.7574 120.945 97.4951H119.275C119.435 97.0028 119.525 96.4901 119.54 95.9726C119.171 95.4123 118.667 94.9533 118.075 94.6376C117.484 94.9551 116.982 95.4159 116.615 95.9776C116.632 96.4951 116.722 97.0077 116.882 97.5001V99.3676L129.042 99.3526V97.5001C129.203 97.0035 129.291 96.4866 129.305 95.9651Z" fill="#FE5000"/>
</svg>
