<svg width="200" height="200" viewBox="0 0 200 200" fill="none" xmlns="http://www.w3.org/2000/svg">
<mask id="mask0_8997_2012" style="mask-type:luminance" maskUnits="userSpaceOnUse" x="18" y="0" width="164" height="200">
<path d="M181.047 0.75H18.95V199.25H181.047V0.75Z" fill="white"/>
</mask>
<g mask="url(#mask0_8997_2012)">
<path d="M180.69 50.1074L100.395 0.862446C100.276 0.788942 100.14 0.75 100 0.75C99.8604 0.75 99.7236 0.788942 99.605 0.862446L19.3125 50.1124C19.2025 50.1788 19.1114 50.2722 19.048 50.3839C18.9845 50.4955 18.9507 50.6215 18.95 50.7499V149.25C18.9499 149.379 18.9832 149.506 19.0467 149.619C19.1103 149.731 19.2018 149.826 19.3125 149.892L99.605 199.142C99.7236 199.216 99.8604 199.255 100 199.255C100.14 199.255 100.276 199.216 100.395 199.142L180.69 149.892C180.8 149.825 180.891 149.731 180.954 149.618C181.017 149.506 181.05 149.379 181.05 149.25V50.7499C181.051 50.6205 181.018 50.4931 180.955 50.3801C180.892 50.267 180.801 50.1723 180.69 50.1049" fill="#101820"/>
</g>
<path d="M100 194.092L23.3325 147.07V52.9297L100 5.90723L176.668 52.9297V147.07L100 194.092ZM26.25 145.322L100 190.557L173.75 145.322V54.6772L100 9.44223L26.25 54.6772V145.322Z" fill="#FF6B00"/>
<path d="M127.897 43.8301L131.475 40.2526L129.432 38.2051L125.005 42.6326V49.2926H127.897V43.8301Z" fill="#FF6B00"/>
<path d="M119.632 49.292H122.525V42.632L118.097 38.207L116.052 40.252L119.632 43.8295V49.292Z" fill="#FF6B00"/>
<path d="M76.3749 54.6648V51.7723H60.5174L54.9549 46.1348L52.9099 48.1798L59.3949 54.6648H76.3749Z" fill="#FF6B00"/>
<path d="M137.445 51.7725H89.6025V54.665H136.248L145.965 64.38V86.685L136.17 96.4775H130.353V99.37H137.368L148.858 87.885V63.1825L137.445 51.7725Z" fill="#FF6B00"/>
<path d="M117.152 96.4775H59.3949L52.9099 102.885L54.9549 105.008L60.5924 99.3675H117.152V96.4775Z" fill="#FF6B00"/>
<path d="M62.2875 57.1445H59.395V93.997H62.2875V57.1445Z" fill="#FF6B00"/>
<path d="M76.3751 60.037V57.1445H64.7676V93.997H117.153V91.1045H67.6576V60.037H76.3751Z" fill="#FF6B00"/>
<path d="M133.933 91.1045H130.355V93.997H135.13L143.485 85.642V65.3895L135.233 57.1445H89.6025V60.037H134.035L140.588 66.5895V84.442L133.933 91.1045Z" fill="#FF6B00"/>
<path d="M78.8573 107.31L75.2773 110.887L77.3223 112.935L81.7498 108.507V101.85H78.8573V107.31Z" fill="#FF6B00"/>
<path d="M87.1225 101.85H84.23V108.507L88.655 112.932L90.7 110.89L87.1225 107.31V101.85Z" fill="#FF6B00"/>
<path d="M119.635 71.437H87.1225V44.2045V43.8295L90.7 40.252L88.6575 38.207L84.23 42.632V49.292V74.3295H122.527V62.517H119.635V71.437Z" fill="#FF6B00"/>
<path d="M84.23 88.625H87.1225V79.7025H119.635V107.31L116.055 110.89L118.1 112.933L122.525 108.507V76.8125H84.23V88.625Z" fill="#FF6B00"/>
<path d="M127.888 80.9126L133.23 75.5701L127.9 70.2401V62.5176H125.008V71.4376L129.14 75.5701L124.998 79.7151V108.473L129.423 112.898L131.468 110.855L127.888 107.275V80.9126Z" fill="#FF6B00"/>
<path d="M78.8576 70.3145L73.6001 75.572L78.8526 80.822V88.6245H81.7451V79.6245L77.6901 75.572L81.7501 71.512V49.2895V42.632L77.3226 38.207L75.2776 40.252L78.8576 43.8295V70.3145Z" fill="#FF6B00"/>
<path d="M109.077 169.37H101.935L106.89 159.327L94.98 172.335H102.122L97.1675 182.377L109.077 169.37Z" fill="#FF6B00"/>
<path d="M49.07 127.7H41.9525V119.88H38.46V139.557H41.9525V130.97H49.07V139.557H52.5625V119.88H49.07V127.7Z" fill="white"/>
<path d="M60.5499 119.88L57.2349 123.195V136.25L60.5499 139.562H68.4999L71.8099 136.25V123.195L68.4999 119.88H60.5499ZM62.2199 136.285L60.7199 134.785V124.642L62.2199 123.142H66.8249L68.3249 124.642V134.795L66.8249 136.295L62.2199 136.285Z" fill="white"/>
<path d="M87.3699 134.795L85.8774 136.285H81.4674L79.9749 134.795V119.88H76.4849V136.242L79.7974 139.557H87.3824L90.6974 136.242V119.88H87.3699V134.795Z" fill="white"/>
<path d="M99.9675 128.032L98.475 126.54V124.642L99.9675 123.15H104.132L106.37 125.33L108.825 122.875L105.797 119.88H98.295L94.9825 123.195V127.99L98.295 131.302H104.24L105.73 132.795V134.795L104.24 136.285H99.35L96.86 133.887L94.4075 136.34L97.6875 139.557H105.91L109.222 136.242V131.345L105.91 128.032H99.9675Z" fill="white"/>
<path d="M111.175 123.15H116.7V139.557H120.193V123.15H125.72V119.88H111.175V123.15Z" fill="white"/>
<path d="M131.458 119.88L128.145 123.195V136.25L131.458 139.562H139.405L142.718 136.25V123.195L139.405 119.88H131.458ZM133.128 136.285L131.628 134.785V124.642L133.128 123.142H137.735L139.235 124.642V134.795L137.735 136.295L133.128 136.285Z" fill="white"/>
<path d="M158.225 119.88V133.27L151.495 119.88H147.45V139.557H150.775V126.172L150.885 126.452L157.617 139.557H161.55V119.88H158.225Z" fill="white"/>
<path d="M63.8474 144.412L65.4024 145.967V152.717L63.8474 154.272H57.2974V144.412H63.8474ZM62.7149 146.887L62.2899 146.462H59.9849V152.232H62.2899L62.7149 151.81V146.887Z" fill="white"/>
<path d="M71.51 148.032L71.7375 149.135H71.8075L72.0625 148.032L73.5325 144.412H76.0075L73.01 151.045V154.285H70.04V151.045L67.0425 144.412H70.0975L71.51 148.032Z" fill="white"/>
<path d="M82.09 154.285L80.3225 149.25L80.08 148.06H79.9525V154.285H77.6475V144.412H81.1825L82.9525 149.447L83.1925 150.635H83.32V144.412H85.625V154.285H82.09Z" fill="white"/>
<path d="M93.1625 152.417H90.75L90.2975 154.285H87.75L90.465 144.412H93.6475L96.59 154.285H93.615L93.1625 152.417ZM91.11 150.417H92.86L92.28 148.097L92.0825 146.88H91.9425L91.715 148.097L91.11 150.417Z" fill="white"/>
<path d="M102.383 144.412L103.783 149.59L104.05 150.832H104.15L104.405 149.59L105.818 144.412H109.41V154.285H106.723V148.33H106.61L106.37 149.617L104.97 154.285H102.89L101.42 149.617L101.178 148.33H101.065V154.285H98.76V144.412H102.383Z" fill="white"/>
<path d="M112.195 145.897L113.75 144.342H118.77L120.328 145.897V152.8L118.77 154.355H113.75L112.195 152.8V145.897ZM117.215 146.397H115.308L114.883 146.822V151.885L115.308 152.31H117.215L117.64 151.885V146.817L117.215 146.397Z" fill="white"/>
<path d="M126.223 144.412H132.885V146.562H128.91V148.825H132.405V150.847H128.91V154.285H126.223V144.412Z" fill="white"/>
<path d="M134.978 152.8V145.897L136.533 144.342H141.47L142.898 145.812L140.96 147.452L139.913 146.392H138.09L137.665 146.815V151.88L138.09 152.305H139.998L141.228 151.13L143.04 152.87L141.555 154.355H136.533L134.978 152.8Z" fill="white"/>
</svg>
