<svg width="200" height="200" viewBox="0 0 200 200" fill="none" xmlns="http://www.w3.org/2000/svg">
<mask id="mask0_8997_1781" style="mask-type:luminance" maskUnits="userSpaceOnUse" x="36" y="0" width="128" height="200">
<path d="M163.948 0H36.05V200H163.948V0Z" fill="white"/>
</mask>
<g mask="url(#mask0_8997_1781)">
<mask id="mask1_8997_1781" style="mask-type:luminance" maskUnits="userSpaceOnUse" x="36" y="-1" width="128" height="201">
<path d="M163.948 -0.00244141H36.05V200H163.948V-0.00244141Z" fill="white"/>
</mask>
<g mask="url(#mask1_8997_1781)">
<path d="M120.705 17.5L118.383 28.645C117.698 31.895 116.843 35.94 115.883 40.43L115.325 40.68C116.395 28.68 116.365 19.1125 114.238 14.5325C112.37 10.5951 109.629 7.13566 106.223 4.4175C101.34 0.48 98.1901 0 98.1901 0L98.25 48.6375L43.5201 74.0975C36.0626 77.5975 36.05 86.375 36.05 86.375V170.107L100 200L163.948 170.107V18.0725L131.608 33.115C130.409 30.0849 128.853 27.2087 126.973 24.5475C126.223 23.4425 125.458 22.425 124.723 21.49C123.413 19.825 120.705 17.49 120.705 17.49" fill="#C4C7C9"/>
<path d="M62.2275 37.4423L65.1675 45.9448L68.11 37.4423L76.9375 39.1498L71.0475 32.3523L76.9375 25.5548L68.11 27.2623L65.1675 18.7598L62.2275 27.2623L53.3975 25.5548L59.29 32.3523L53.3975 39.1498L62.2275 37.4423Z" fill="#C4C7C9"/>
<path d="M43.5201 114.798C36.0626 118.298 36.05 127.07 36.05 127.07V167.733C36.05 167.733 36.0501 158.95 43.5201 155.46L163.95 99.4276V58.7676L43.5201 114.798Z" fill="#8AC8EC"/>
<path d="M150.848 119.5C154.568 115.082 155.348 110.952 155.348 110.952C155.348 110.952 123.533 121.302 113.063 124.75C115.685 123.595 117.585 122.94 118.733 122.447C123 120.615 150.688 111.302 153.788 105.5C156.81 99.8374 156.703 95.1674 156.703 95.1674C156.703 95.1674 125.67 113.117 114.53 119.595C117.135 117.72 119.06 116.56 120.2 115.755C124.413 112.777 152.355 96.2549 154.378 89.2299C156.355 82.3774 155.163 77.3274 155.163 77.3274C155.163 77.3274 125.663 103.927 115.018 113.577C117.223 111.17 118.913 109.577 119.91 108.512C123.8 104.297 150.35 79.8899 150.933 71.7799C151.49 63.8749 149.033 58.6624 149.033 58.6624C149.033 58.6624 122.393 95.3874 113.393 107.855C115.285 104.645 116.788 102.485 117.643 101.06C120.893 95.5849 144.115 62.9274 142.87 53.9824C141.658 45.2599 137.778 40.1649 137.778 40.1649C137.778 40.1649 117.588 85.5974 110.543 101.537C111.903 97.4399 113.088 94.6449 113.698 92.8499C115.968 86.1499 133.66 45.2949 130.24 35.8499C128.785 31.8349 127.24 29.3024 125.318 26.4199C124.253 24.7913 123.039 23.2648 121.693 21.8599C120.75 26.2974 113.75 59.4024 109.158 81.1649L106.473 96.5174C105.505 102.065 106.415 105.767 106.85 107.095L107.193 108.072C112.3 123.205 108.363 130.535 106.418 133L106.34 133.097C105.57 134.096 104.615 134.937 103.528 135.575C102.398 136.175 101.139 136.492 99.8601 136.5C99.1134 136.499 98.3711 136.387 97.6576 136.167C90.9276 133.945 93.3751 126.367 93.3926 126.295C92.8351 129.45 93.6426 131.502 94.4051 132.67C94.9613 133.524 95.7211 134.226 96.6161 134.714C97.5112 135.201 98.5134 135.458 99.5326 135.462C102.953 135.462 104.83 133.14 105.445 132.372L105.523 132.28C107.375 129.935 111.128 122.857 105.92 107.887C105.778 107.467 104.245 102.637 105.185 97.2249L108.79 76.4549C111.395 59.9049 116.808 25.4549 112.523 16.2424C110.543 11.9924 107.723 8.99242 105.058 6.81992C103.5 5.52789 101.793 4.42829 99.9726 3.54492L100.08 85.6074C100.08 89.9924 100.23 93.6074 100.438 96.5674C100.438 96.5674 100.593 98.6474 100.823 100.817C101.053 102.987 102.073 107.425 102.648 109.442L103.358 111.807C106.023 121.145 104.788 127.057 102.64 129.767C102.125 130.402 101.268 131.532 99.5776 131.532C97.6826 131.532 95.6601 129.282 98.0776 123.627C100.495 117.972 101.715 112.012 96.5776 106.905C96.0893 106.391 95.56 105.918 94.9951 105.49C92.4797 103.552 89.8099 101.823 87.0126 100.32C85.8376 99.6799 79.4326 100.995 79.4326 100.995L64.0876 94.1274L64.0601 94.4074C64.0601 94.4074 86.0826 110.25 90.0876 113.612C93.7751 116.697 91.8376 121.58 88.2926 124.362C84.2451 127.545 72.2676 134.275 72.2676 134.275V135C72.2676 143 73.4501 146.305 78.9001 153C89.4001 165.885 94.1501 171.075 94.1501 184.5C94.7476 184.912 96.8651 185.832 96.8651 185.832V163.102C96.8651 152.79 99.5501 145.867 112.058 145.867L103.308 137.677C104.578 138.622 105.388 139.36 105.955 139.785C108.155 141.425 121.068 152.832 124.955 152.702C128.745 152.575 131.085 151.145 131.085 151.145C131.085 151.145 110.9 139.5 105.27 136.28C107.138 137.107 108.37 137.797 109.153 138.155C111.923 139.43 128.613 148.845 132.813 147.805C136.895 146.787 139.125 144.687 139.125 144.687C139.125 144.687 114.223 136.617 107.5 134.465C109.803 134.947 111.355 135.427 112.313 135.64C115.618 136.39 135.938 142.762 140.253 140.662C144.463 138.617 146.403 135.817 146.403 135.817C146.403 135.817 117.998 132.91 109.603 132.067C111.633 132.095 113.603 132.217 114.528 132.225C118.278 132.28 141.848 134.51 146.05 131.225C150.153 128.027 151.613 124.542 151.613 124.542C151.613 124.542 120.805 127.792 111.398 128.825C113.915 128.297 115.713 128.075 116.815 127.857C120.915 127.04 147.033 124.025 150.845 119.49" fill="black"/>
<path d="M88.9552 106.265C88.9552 106.265 87.6677 106.607 86.6902 106.015C85.7127 105.422 85.4102 104.127 85.4102 104.127C85.4102 104.127 86.6977 103.785 87.6752 104.377C88.6527 104.97 88.9552 106.26 88.9552 106.26" fill="#D14F53"/>
<path d="M146.223 161.05C146.223 161.05 146.935 160.742 146.935 159.687V158.15L139.11 161.812V175.017L141.49 173.897V169.07L144.223 167.782C144.431 167.633 144.598 167.433 144.708 167.201C144.817 166.969 144.865 166.713 144.848 166.457V165.105L141.5 166.685V163.277L146.223 161.05Z" fill="black"/>
<path d="M154.223 157.217C154.52 157.08 154.76 157.182 154.76 157.467V158.5C154.759 158.571 154.772 158.642 154.799 158.708C154.825 158.774 154.864 158.834 154.914 158.885C154.963 158.936 155.023 158.976 155.088 159.004C155.154 159.032 155.224 159.047 155.295 159.047H155.313C155.377 159.042 155.441 159.026 155.5 159L157.048 158.272V156.6C157.036 156.059 156.81 155.545 156.42 155.171C156.031 154.796 155.508 154.591 154.968 154.6C154.711 154.602 154.457 154.649 154.218 154.74L149.795 156.797C149.325 157.033 148.93 157.394 148.654 157.841C148.377 158.287 148.229 158.802 148.228 159.327V167.845C148.227 168.084 148.273 168.32 148.364 168.541C148.455 168.762 148.588 168.962 148.756 169.132C148.925 169.301 149.125 169.435 149.345 169.527C149.565 169.619 149.801 169.667 150.04 169.667H150.08C150.347 169.665 150.609 169.605 150.85 169.49L155.478 167.32C155.945 167.085 156.338 166.725 156.613 166.279C156.888 165.834 157.034 165.321 157.035 164.797V162.382L155.25 163.21C155.098 163.294 154.971 163.417 154.883 163.567C154.795 163.717 154.749 163.888 154.75 164.062V164.68C154.737 164.844 154.68 165.001 154.586 165.136C154.492 165.271 154.364 165.378 154.215 165.447L151.14 166.93C150.84 167.072 150.605 166.965 150.605 166.68V159.532C150.619 159.369 150.676 159.212 150.77 159.077C150.864 158.943 150.992 158.835 151.14 158.765L154.223 157.217Z" fill="black"/>
<path d="M123.472 178.055L118.957 171.232L116.552 172.352V185.57C116.552 185.57 117.552 185.092 118.252 184.765C118.39 184.688 118.937 184.323 118.937 183.398V175.485L123.565 182.285L125.88 181.202V168L124.222 168.775C124.057 168.88 123.495 169.117 123.495 170.12L123.472 178.055Z" fill="black"/>
<path d="M112.223 186.45V179.823L109.9 186.25L107.875 187.198L105.168 182.795V189.825C105.19 190.114 105.127 190.403 104.986 190.657C104.845 190.91 104.632 191.116 104.375 191.25L102.875 191.96V178.75L105.035 177.75L108.535 183.933L111.853 174.56L114.533 173.31V186.5L113.25 187.1C113.065 187.174 112.859 187.172 112.676 187.093C112.493 187.015 112.349 186.867 112.275 186.683C112.246 186.608 112.229 186.53 112.223 186.45Z" fill="black"/>
<path d="M127.895 167.055V177.432C127.895 177.905 128.083 178.359 128.417 178.693C128.751 179.027 129.205 179.215 129.678 179.215H129.7C129.959 179.21 130.215 179.151 130.45 179.042L135.423 176.73C135.915 176.508 136.333 176.149 136.627 175.696C136.921 175.243 137.078 174.715 137.08 174.175V162.75L135.42 163.527C134.793 163.82 134.693 164.51 134.693 164.915V174.075C134.678 174.238 134.621 174.394 134.527 174.528C134.433 174.662 134.306 174.769 134.158 174.837L130.795 176.405C130.498 176.542 130.26 176.435 130.26 176.14V167.14C130.26 166.941 130.181 166.75 130.04 166.61C129.9 166.469 129.709 166.39 129.51 166.39C129.407 166.391 129.305 166.412 129.21 166.452L127.895 167.055Z" fill="black"/>
</g>
</g>
</svg>
