<svg width="200" height="200" viewBox="0 0 200 200" fill="none" xmlns="http://www.w3.org/2000/svg">
<path d="M188.75 100C188.75 148.938 148.94 188.75 100 188.75C51.06 188.75 11.25 148.94 11.25 100C11.25 51.06 51.065 11.25 100 11.25C148.935 11.25 188.75 51.065 188.75 100Z" fill="#E0D0A6"/>
<path d="M70.9776 34.2496L73.2651 33.3121L72.1676 31.9471C72.1178 31.898 72.0727 31.8445 72.0326 31.7871C71.9933 31.7298 71.9507 31.6747 71.9051 31.6221L71.6551 31.3171C71.5596 31.189 71.457 31.0663 71.3476 30.9496L71.0726 30.6096C71.0251 30.5421 70.9751 30.4821 70.9201 30.4096C70.875 30.3419 70.824 30.2783 70.7676 30.2196L70.8601 31.9221L70.9776 34.2496ZM143.978 42.8671C144.413 43.1871 144.818 43.2771 145.19 43.1171C145.563 42.9571 146.018 42.5271 146.563 41.7996C147.288 40.8321 147.668 40.0772 147.715 39.5247C147.76 39.1272 147.515 38.7296 146.965 38.3196C146.498 37.9696 146.105 37.8046 145.793 37.8196C145.62 37.8123 145.451 37.8664 145.315 37.9721C145.115 38.1528 144.936 38.3548 144.78 38.5746L142.515 41.6071L142.828 42.1071C143.328 42.4471 143.858 42.7771 143.973 42.8571M170.155 83.5846L170.18 83.6996L169.995 83.6747L170.495 86.0972L170.655 86.0097L172.03 85.2597C172.089 85.2219 172.152 85.1909 172.218 85.1672C172.25 85.1497 172.285 85.1246 172.323 85.1071L172.378 85.0797C172.442 85.0525 172.503 85.0181 172.56 84.9771L172.795 84.8472C172.888 84.8046 172.965 84.7622 173.045 84.7197C173.125 84.6771 173.225 84.6222 173.295 84.5722L173.545 84.4421C173.615 84.399 173.689 84.3622 173.765 84.3321C173.813 84.3021 173.863 84.2772 173.913 84.2522C173.913 84.2522 173.913 84.2522 173.935 84.2522C174.005 84.2096 174.083 84.1721 174.153 84.1296L172.455 83.9072L170.155 83.5846ZM90.0001 30.9621C90.0226 31.1896 90.0476 31.3721 90.0726 31.4996C90.089 31.6082 90.1141 31.7152 90.1476 31.8196C90.171 31.8921 90.2056 31.9604 90.2501 32.0221C90.3032 32.0793 90.3609 32.132 90.4226 32.1796C90.5699 32.3103 90.7543 32.3916 90.9501 32.4121C91.2438 32.4339 91.5391 32.4222 91.8301 32.3771C92.3371 32.3361 92.8313 32.1968 93.2851 31.9671C93.6628 31.7676 93.9654 31.4509 94.1476 31.0646C94.3616 30.5822 94.478 30.0622 94.4901 29.5346C94.5229 28.7747 94.4877 28.0134 94.3851 27.2596C94.3142 26.5363 94.1778 25.8209 93.9776 25.1221C93.8465 24.6311 93.6168 24.1717 93.3026 23.7721C93.0313 23.4522 92.6668 23.225 92.2601 23.1221C91.7673 23.016 91.2599 22.9957 90.7601 23.0621C90.4669 23.0936 90.1756 23.1411 89.8876 23.2046C89.706 23.2396 89.5385 23.3265 89.4051 23.4546C89.2961 23.5773 89.2318 23.7333 89.2226 23.8971C89.2127 24.1387 89.226 24.3807 89.2626 24.6196L90.0001 30.9621ZM92.3351 97.0296C92.7276 96.7796 93.0126 96.0471 93.1501 95.6146C91.7154 96.037 90.312 96.5591 88.9501 97.1771C89.9201 97.2296 91.9126 97.2971 92.3351 97.0296ZM149.835 95.8896L147.05 98.4072C144.8 97.7321 142.523 97.1096 140.205 96.5322C137.35 113.2 129.973 128.092 119.535 139.617C113.936 145.83 107.352 151.08 100.048 155.155C92.7132 151.064 86.1078 145.786 80.5001 139.535C70.0776 128 62.7251 113.122 59.8876 96.4771C57.4793 97.0722 55.1151 97.718 52.7951 98.4146L50.0001 95.8896C51.2676 95.4547 52.3501 95.1122 52.3501 95.1122C60.4732 92.7133 68.7745 90.9652 77.1751 89.8847C92.6753 87.8545 108.377 87.8991 123.865 90.0172C131.842 91.1036 139.723 92.8002 147.44 95.0921C147.44 95.0921 148.623 95.4671 149.833 95.8896M83.6651 98.4697C83.6651 98.5047 83.6951 98.5471 83.7126 98.5921C83.7301 98.6371 83.7126 98.6222 83.7326 98.6347L83.7851 98.7447C83.7976 98.7646 83.8051 98.7822 83.8176 98.8046C83.8357 98.8432 83.8557 98.8807 83.8776 98.9172C83.8899 98.944 83.9041 98.9699 83.9201 98.9947C83.9451 99.0322 83.9651 99.0696 83.9951 99.1122C84.0138 99.1375 84.0305 99.1643 84.0451 99.1921C84.0751 99.2296 84.1051 99.2721 84.1351 99.3147C84.1556 99.3445 84.1782 99.3729 84.2026 99.3997C84.2354 99.444 84.2704 99.4865 84.3076 99.5271L84.3826 99.6146C84.4226 99.6572 84.4676 99.6997 84.5151 99.7447C84.5421 99.7695 84.5671 99.7962 84.5901 99.8246L84.7601 99.9646C84.7901 99.9871 84.8101 100.007 84.8351 100.03C84.9251 100.092 85.0176 100.16 85.1151 100.22H85.1276C85.2251 100.275 85.3201 100.332 85.4301 100.385C85.4601 100.402 85.5026 100.417 85.5401 100.435L85.7901 100.537C85.8393 100.555 85.8894 100.57 85.9401 100.582C86.0151 100.612 86.0951 100.632 86.1751 100.66L86.3526 100.697L86.6026 100.747L86.8026 100.772C86.8901 100.785 86.9876 100.79 87.0801 100.797H87.2951H87.4101H87.6426C87.6976 100.797 87.7526 100.797 87.8101 100.797C87.9876 100.797 88.1751 100.772 88.3726 100.742C89.4259 100.597 90.487 100.516 91.5501 100.5C93.5676 100.445 94.6826 100.415 96.2026 98.6597C96.5528 98.2416 96.9881 97.9031 97.4796 97.6668C97.9711 97.4305 98.5074 97.3019 99.0526 97.2896H99.1751C103.618 97.2896 107.545 99.7546 107.595 102.79C107.618 104.095 106.95 105.457 105.72 106.462C104.72 107.24 103.275 107.792 101.97 108.287C101.97 108.287 98.8951 109.39 96.3576 110.287C96.2226 110.325 84.2976 114.105 84.2976 121.335C84.2976 122.752 84.9226 124.142 86.1251 125.355C86.2876 125.515 86.4551 125.675 86.6251 125.827C86.6851 125.877 86.7526 125.927 86.8151 125.975C86.9376 126.075 87.0651 126.177 87.1901 126.275L87.4401 126.442L87.8076 126.692L88.0901 126.86C88.2151 126.937 88.3401 127.012 88.4701 127.085C88.6001 127.157 88.6751 127.195 88.7826 127.252L89.1701 127.455C89.2851 127.51 89.3951 127.557 89.5076 127.607C89.6201 127.657 89.7776 127.735 89.9176 127.795C90.0576 127.855 90.1676 127.89 90.2776 127.942L90.7026 128.107L91.0826 128.237L91.5226 128.385C91.6526 128.427 91.7876 128.465 91.9201 128.502C92.0526 128.54 92.2201 128.592 92.3751 128.635C92.5301 128.677 92.6501 128.705 92.7851 128.74L93.2576 128.855L93.6851 128.942C93.8451 128.977 94.0051 129.01 94.1701 129.035C94.3351 129.06 94.4576 129.09 94.6051 129.112C94.7526 129.135 94.9376 129.167 95.1051 129.187L95.5501 129.247L96.0501 129.302L96.5051 129.347L97.0251 129.382C97.1776 129.382 97.3326 129.402 97.4851 129.412L98.0126 129.427C98.1701 129.427 98.3251 129.427 98.4826 129.427H98.6651H99.3401C107.673 129.25 114.478 125.25 114.5 120.547C114.518 117.547 111.56 115.23 107.018 114.01C105.933 114.427 104.703 114.817 103.403 115.222C102.153 115.622 100.713 116.075 99.2101 116.62C95.7976 117.852 95.1301 118.917 95.0376 119.445C95.015 119.571 95.0199 119.701 95.0518 119.826C95.0837 119.951 95.142 120.067 95.2226 120.167C96.5276 119.417 98.4326 118.852 100.473 118.637C101.049 118.576 101.628 118.545 102.208 118.545C105.355 118.545 107.475 119.422 107.478 120.86C107.472 121.076 107.423 121.288 107.332 121.484C107.241 121.68 107.111 121.856 106.95 122C105.86 123.102 103.13 123.81 100 123.81C97.3576 123.81 94.8951 122.975 93.5476 121.637C93.2303 121.34 92.9748 120.984 92.7959 120.588C92.617 120.192 92.5182 119.764 92.5051 119.33C92.5051 116.405 96.7551 114.955 99.5601 114.002L100.515 113.672C102.98 112.777 105.963 111.672 105.963 111.672C110.713 110.142 113.235 106.03 112.61 102.065C111.86 97.3821 107.263 94.1096 101.398 94.1096C100.818 94.1099 100.239 94.1425 99.6626 94.2071C99.2742 94.271 98.8813 94.3036 98.4876 94.3046C97.9454 94.3294 97.4051 94.2231 96.9126 93.9947C96.3814 93.7074 95.7985 93.5281 95.1976 93.4671C88.3501 94.9796 84.3976 97.8796 83.6576 98.4671M84.2151 101.622C83.9731 101.487 83.7446 101.328 83.5326 101.15C83.2476 101.26 82.9626 101.36 82.6651 101.457L82.4501 101.53C82.1726 101.617 81.8926 101.702 81.6101 101.78H81.5776C81.2851 101.86 80.9976 101.927 80.7026 101.995L80.4826 102.042C80.2076 102.1 79.9426 102.152 79.6726 102.197L79.6101 102.21C79.3218 102.256 79.0368 102.299 78.7551 102.337L78.5351 102.362C78.2851 102.392 78.0201 102.422 77.7676 102.442C77.741 102.44 77.7143 102.44 77.6876 102.442C77.4101 102.465 77.1376 102.477 76.8676 102.49C76.8001 102.49 76.7301 102.49 76.6626 102.49C76.4251 102.49 76.1851 102.502 75.9526 102.507H75.8551H75.5351H75.2751L74.9451 102.49H74.7126L74.3501 102.462L74.1726 102.45C73.9951 102.45 73.8176 102.417 73.6551 102.4C73.9575 102.527 74.2672 102.635 74.5826 102.725C74.7426 102.777 74.9176 102.817 75.0826 102.86L75.2301 102.895C75.3826 102.925 75.5426 102.957 75.7076 102.982L75.8051 103C75.9976 103.03 76.1976 103.05 76.4076 103.067C76.4576 103.067 76.5101 103.067 76.5651 103.067C76.7376 103.08 76.9151 103.09 77.0951 103.09H77.2026H77.2701C77.3951 103.09 77.5201 103.09 77.6676 103.075H77.8651C78.0676 103.062 78.2751 103.045 78.4901 103.015L79.1051 102.947L78.6176 103.38C77.7069 104.081 76.7032 104.652 75.6351 105.077C77.8526 104.79 81.8476 103.007 84.2151 101.61M116.013 128.57C116.005 127.503 115.713 126.458 115.168 125.542C112.858 129.5 106.303 132.215 99.0001 132.215C91.6976 132.215 85.1626 129.49 82.8976 125.547C82.3335 126.458 82.0236 127.503 82.0001 128.575C81.9876 130.25 82.7501 131.902 84.2001 133.355C87.2001 136.385 92.8601 138.27 98.9501 138.27C108.33 138.27 115.98 133.915 116.015 128.57M126.133 124.175H125.68C125.6 124.175 125.523 124.175 125.43 124.175C125.338 124.175 125.323 124.175 125.268 124.175H125.018C124.955 124.175 124.893 124.175 124.838 124.175C124.783 124.175 124.663 124.175 124.57 124.16H124.368C124.28 124.16 124.188 124.147 124.095 124.137L123.875 124.117L123.588 124.087L123.35 124.062L123.05 124.025L122.8 123.99C122.698 123.972 122.593 123.96 122.488 123.945L122.225 123.897L121.9 123.842L121.63 123.792L121.293 123.72C121.2 123.702 121.105 123.682 121.013 123.66L120.663 123.577L120.38 123.507L120.018 123.412C119.923 123.382 119.828 123.357 119.73 123.332L119.35 123.217L119.068 123.13C118.93 123.087 118.793 123.035 118.658 122.99L118.39 122.9C118.238 122.845 118.088 122.787 117.935 122.727L117.708 122.642C117.478 122.55 117.25 122.452 117.018 122.352C117.666 123.439 118.13 124.626 118.39 125.865C118.825 125.919 119.262 125.946 119.7 125.945C121.954 125.95 124.169 125.352 126.115 124.215M113.34 68.1021L110.59 67.9421V79.7747L113.34 79.9346V68.1021ZM59.0426 90.3496C58.0448 80.5815 58.6298 70.7164 60.7751 61.1346C67.1035 63.3526 73.8953 63.9087 80.5001 62.7496C87.8026 61.4671 94.4826 58.1446 100.065 53.3346C105.62 58.1321 112.28 61.4446 119.553 62.7371C126.176 63.9148 132.99 63.3672 139.34 61.1471C140.807 67.6975 141.547 74.3896 141.548 81.1021C141.548 84.1915 141.39 87.2789 141.075 90.3521C135.409 88.94 129.671 87.8375 123.885 87.0497C108.395 84.952 92.6948 84.9167 77.1951 86.9446C71.0886 87.7402 65.0316 88.8778 59.0526 90.3521M122.478 82.8271L124.965 83.1696V75.6471L128.55 83.6471L130.105 83.8622V67.7672L127.62 67.4247V75.2171L123.993 66.9271L122.478 66.7197V82.8271ZM107.938 80.2496C107.938 81.2122 108.85 81.7771 109.505 81.8171L114.428 82.1021H114.505C115.235 82.1021 116.02 81.5621 116.02 80.6871V67.5572C116.02 66.6021 115.108 66.0321 114.453 65.9896L109.453 65.7021C108.725 65.7021 107.94 66.2397 107.94 67.1096L107.938 80.2496ZM98.5601 65.5247L98.5726 81.6296H101.275L101.228 65.5296L98.5601 65.5247ZM84.3251 82.2896L86.8251 82.1296V74.5572L90.4601 81.8871L92.0101 81.7871V65.6846L89.5101 65.8447V73.6747L85.8351 66.0921L84.3351 66.1871L84.3251 82.2896ZM70.1376 82.5396C70.1237 82.7153 70.1476 82.8918 70.2078 83.0574C70.268 83.223 70.3631 83.3736 70.4866 83.4993C70.6101 83.6249 70.7592 83.7226 70.9237 83.7856C71.0882 83.8486 71.2643 83.8756 71.4401 83.8646C71.538 83.8642 71.6357 83.8575 71.7326 83.8447L76.3476 83.1771C76.7696 83.1339 77.1606 82.9361 77.4454 82.6218C77.7302 82.3074 77.8886 81.8988 77.8901 81.4746V66.8547L75.2501 67.2496V81.2146L72.7801 81.5696V67.5947L70.1376 67.9771V82.5396ZM185.298 99.9996C185.298 147.037 147.035 185.3 100.003 185.3C52.9701 185.3 14.7026 147.04 14.7026 99.9996C14.7026 52.9596 52.9676 14.7021 100 14.7021C147.033 14.7021 185.298 52.9671 185.298 99.9996ZM168.5 67.3697L162.913 69.8697C162.663 69.9797 162.47 70.0647 162.318 70.1197C162.165 70.1747 162.03 70.2321 161.925 70.2696C161.841 70.3068 161.752 70.3296 161.66 70.3372H161.423C161.171 70.3452 160.927 70.2556 160.74 70.0872C160.496 69.829 160.296 69.5326 160.148 69.2096L158.935 69.7496L161.87 76.3246L163.09 75.7796C162.975 75.4852 162.891 75.1793 162.84 74.8671C162.821 74.6479 162.868 74.428 162.973 74.2346C163.014 74.1495 163.068 74.0711 163.133 74.0022C163.207 73.9276 163.291 73.8637 163.383 73.8121C163.51 73.7283 163.643 73.6524 163.78 73.5846C163.948 73.5046 164.173 73.4021 164.453 73.2771L170.043 70.7771C170.293 70.6646 170.48 70.5846 170.638 70.5271L171.03 70.3721C171.115 70.3386 171.204 70.3175 171.295 70.3096H171.545C171.795 70.3051 172.038 70.3942 172.225 70.5596C172.466 70.8211 172.666 71.1168 172.82 71.4371L174.033 70.8922L171.098 64.3171L169.88 64.8671C169.995 65.1611 170.078 65.466 170.13 65.7771C170.146 65.996 170.098 66.2148 169.993 66.4072C169.943 66.4854 169.889 66.5606 169.83 66.6321C169.762 66.7117 169.682 66.78 169.593 66.8346C169.463 66.9199 169.328 66.9959 169.188 67.0621C169.01 67.1471 168.79 67.2522 168.52 67.3697M151.348 53.4446C151.213 53.5371 151.098 53.6222 151.005 53.6796C150.929 53.7351 150.845 53.7781 150.755 53.8071C150.683 53.8246 150.608 53.8446 150.523 53.8571C150.441 53.878 150.357 53.8881 150.273 53.8871H150.205C150.152 53.884 150.1 53.8773 150.048 53.8671L149.99 53.8546C149.923 53.8356 149.857 53.8096 149.795 53.7771C149.498 53.5782 149.235 53.3335 149.015 53.0522L147.955 53.8696L151.25 58.1396L156.063 54.4521L158.478 57.5872L153.66 61.2696L156.975 65.5896L158.04 64.7646C157.84 64.4996 157.672 64.2117 157.54 63.9072C157.471 63.6977 157.471 63.4716 157.54 63.2621C157.559 63.1741 157.592 63.0896 157.638 63.0121C157.691 62.9227 157.753 62.8389 157.823 62.7621C157.908 62.6772 158.02 62.5722 158.165 62.4496L158.74 61.9946L163.58 58.2496C163.79 58.0872 163.965 57.9571 164.1 57.8596L164.445 57.6096C164.521 57.5552 164.606 57.5137 164.695 57.4871C164.768 57.4671 164.84 57.4496 164.945 57.4321C165.021 57.4143 165.099 57.406 165.178 57.4072H165.245C165.301 57.4098 165.356 57.4165 165.41 57.4272H165.473C165.541 57.4508 165.608 57.4792 165.673 57.5121C165.973 57.7231 166.243 57.9757 166.473 58.2621L167.53 57.4471L164.24 53.1696L160.255 56.2071L157.848 53.0746L161.833 50.0371L158.5 45.7496L157.438 46.5646C157.624 46.822 157.781 47.0996 157.905 47.3922C157.967 47.6019 157.967 47.8249 157.905 48.0346C157.877 48.1206 157.842 48.2042 157.8 48.2846C157.753 48.376 157.693 48.4601 157.623 48.5346C157.513 48.6478 157.396 48.7538 157.273 48.8521C157.128 48.9747 156.93 49.1271 156.703 49.3071L151.845 53.0396C151.64 53.2021 151.463 53.3321 151.328 53.4296M134.533 43.2496L140.398 47.6321L141.2 46.5597C140.905 46.3476 140.642 46.0951 140.418 45.8097C140.288 45.622 140.217 45.4002 140.213 45.1721C140.206 45.0775 140.213 44.9824 140.233 44.8896C140.263 44.7905 140.303 44.6943 140.35 44.6021C140.41 44.4972 140.49 44.3647 140.6 44.2122C140.71 44.0597 140.85 43.8622 141.033 43.6147L141.533 42.9496C141.998 43.6996 142.978 44.5671 143.685 45.0996C143.818 45.1971 143.935 45.2822 144.07 45.3671C144.108 45.3921 144.15 45.4171 144.188 45.4371C144.278 45.4921 144.365 45.5471 144.455 45.5947C144.498 45.6196 144.543 45.6397 144.58 45.6646C144.67 45.7122 144.755 45.7496 144.843 45.7871L144.96 45.8396C145.075 45.8846 145.18 45.9247 145.285 45.9571L145.328 45.9746C145.45 46.0071 145.578 46.0371 145.688 46.0621L145.798 46.0746C145.878 46.0746 145.963 46.0996 146.048 46.1046H146.168H146.275H146.413C146.447 46.1072 146.481 46.1072 146.515 46.1046C146.63 46.0958 146.744 46.0808 146.858 46.0597C147.838 45.8563 148.81 45.1063 149.775 43.8097C150.785 42.4597 151.271 41.3046 151.233 40.3447C151.19 39.3847 150.623 38.4946 149.523 37.6746C149.388 37.5696 149.213 37.4471 149.023 37.2996L148.365 36.8421C147.962 36.5821 147.583 36.3246 147.228 36.0696C146.87 35.8196 146.465 35.5247 146.013 35.1922L142.513 32.5771L141.715 33.6521C141.963 33.8436 142.185 34.0663 142.375 34.3146C142.49 34.4948 142.552 34.7035 142.555 34.9171C142.555 35.0146 142.54 35.1071 142.525 35.1971C142.502 35.2998 142.466 35.399 142.418 35.4921C142.342 35.6301 142.258 35.7636 142.168 35.8922C142.058 36.0447 141.918 36.2446 141.745 36.4746L138.075 41.3821L137.678 41.9021L137.408 42.2221C137.351 42.2938 137.285 42.3569 137.21 42.4096C137.142 42.4518 137.071 42.4894 136.998 42.5221C136.926 42.5576 136.852 42.5861 136.775 42.6071L136.713 42.6246L136.53 42.6446H136.483C136.418 42.6414 136.354 42.6339 136.29 42.6222C135.952 42.5253 135.635 42.3687 135.353 42.1596L134.533 43.2496ZM120.163 36.7496L130.663 41.0996L132.303 37.1371L130.778 36.5047C130.609 36.8809 130.395 37.2352 130.14 37.5597C129.962 37.7913 129.719 37.9653 129.443 38.0597C129.348 38.1039 129.247 38.131 129.143 38.1396C129.105 38.1423 129.068 38.1423 129.03 38.1396C128.953 38.1368 128.876 38.1285 128.8 38.1147C128.651 38.0827 128.505 38.0401 128.363 37.9871C128.193 37.9196 127.978 37.8396 127.72 37.7371L127.483 37.6396C127.265 37.5471 127.078 37.4671 126.943 37.4046C126.825 37.3565 126.714 37.2953 126.61 37.2221C126.536 37.1762 126.466 37.1226 126.403 37.0621C126.349 37.0064 126.304 36.9432 126.268 36.8746C126.235 36.8257 126.214 36.7702 126.205 36.7122C126.198 36.6407 126.205 36.5686 126.225 36.4996C126.252 36.3939 126.285 36.2896 126.323 36.1871C126.37 36.0596 126.438 35.8971 126.52 35.6871L128.923 29.8846C129.03 29.6346 129.113 29.4421 129.173 29.2871C129.233 29.1321 129.3 29.0121 129.355 28.9096C129.39 28.825 129.438 28.7464 129.498 28.6771C129.553 28.6271 129.608 28.5721 129.675 28.5171C129.858 28.3399 130.101 28.2389 130.355 28.2346C130.713 28.2646 131.063 28.3489 131.395 28.4846L131.91 27.2471L125.25 24.4596L124.735 25.7096C125.025 25.8388 125.298 26.0016 125.55 26.1946C125.714 26.342 125.831 26.5341 125.888 26.7471C125.904 26.8363 125.915 26.9265 125.92 27.0171C125.923 27.1213 125.913 27.2254 125.89 27.3271C125.85 27.4795 125.803 27.6297 125.748 27.7771C125.68 27.9596 125.59 28.1871 125.478 28.4546L123.13 34.1121C123.028 34.3621 122.943 34.5597 122.88 34.7071C122.818 34.8546 122.745 34.9872 122.7 35.0872C122.659 35.1696 122.61 35.2476 122.553 35.3196L122.375 35.4796C122.195 35.6585 121.952 35.7606 121.698 35.7646C121.657 35.7667 121.616 35.7667 121.575 35.7646H121.495C121.45 35.7646 121.4 35.7496 121.348 35.7371L121.26 35.7246L121.073 35.6721L120.985 35.6471L120.668 35.5471L120.163 36.7496ZM104.1 33.7321L115.538 35.4521L116.175 31.2021L114.538 30.9521C114.453 31.3371 114.332 31.713 114.175 32.0746C114.071 32.322 113.907 32.5394 113.698 32.7071C113.491 32.8581 113.244 32.9451 112.988 32.9571C112.924 32.9622 112.861 32.9622 112.798 32.9571H112.713H112.563C112.535 32.9571 112.503 32.9571 112.473 32.9571L112.3 32.9371H112.21L111.933 32.8922L111.433 32.8196C111.04 32.7596 110.733 32.7047 110.513 32.6497C110.336 32.6194 110.172 32.5387 110.04 32.4171C109.942 32.3031 109.891 32.1551 109.9 32.0047C109.906 31.7582 109.93 31.5125 109.973 31.2696L110.328 28.8996L113.03 29.3096C113.415 29.3646 113.693 29.4171 113.87 29.4546C114.048 29.4921 114.22 29.5396 114.403 29.5896L114.75 27.2496C114.615 27.2621 114.485 27.2696 114.358 27.2696C114.296 27.2746 114.234 27.2746 114.173 27.2696C113.937 27.2604 113.702 27.2353 113.47 27.1946L110.645 26.7721L110.98 24.5421C111.012 24.3311 111.057 24.1224 111.115 23.9171C111.155 23.7801 111.244 23.6626 111.365 23.5871C111.419 23.5612 111.476 23.5419 111.535 23.5296H111.553C111.617 23.5137 111.684 23.5037 111.75 23.4996C111.773 23.4971 111.797 23.4971 111.82 23.4996C112.085 23.5057 112.349 23.5307 112.61 23.5746L112.86 23.6171C113.223 23.6637 113.58 23.7475 113.925 23.8671C114.172 23.9508 114.392 24.0993 114.563 24.2971C114.726 24.4975 114.83 24.7388 114.865 24.9946C114.924 25.3397 114.94 25.6907 114.913 26.0396L116.53 26.2896L117.18 21.9721C116.96 22.0071 116.77 22.0271 116.615 22.0371C116.52 22.0371 116.415 22.0371 116.31 22.0371H116.103C115.93 22.0371 115.723 22.0121 115.5 21.9821C115.278 21.9521 115 21.9146 114.65 21.8646L106.05 20.5771L105.85 21.8946C106.162 21.9517 106.467 22.0448 106.758 22.1721C106.965 22.2687 107.137 22.4278 107.25 22.6271C107.291 22.7071 107.323 22.7908 107.348 22.8771C107.383 22.9756 107.4 23.08 107.395 23.1846C107.395 23.3046 107.395 23.4646 107.37 23.6546C107.345 23.8446 107.31 24.0896 107.268 24.3771L106.36 30.4321C106.318 30.6821 106.28 30.9121 106.245 31.0721C106.21 31.2321 106.19 31.3721 106.17 31.4821C106.153 31.5699 106.122 31.6543 106.078 31.7321C106.039 31.8034 105.995 31.8711 105.945 31.9346C105.815 32.1485 105.608 32.3055 105.368 32.3746C105.297 32.3914 105.225 32.4031 105.153 32.4096H105.068C105.008 32.4096 104.95 32.4096 104.883 32.4096H104.713C104.682 32.4072 104.651 32.4072 104.62 32.4096L104.303 32.3896L104.1 33.7321ZM83.5001 21.9471L83.6576 23.2721H83.9076C83.9334 23.2697 83.9594 23.2697 83.9851 23.2721H84.1026H84.3051H84.3851C84.4626 23.2721 84.5376 23.2896 84.5976 23.3021C84.8108 23.3504 85.0049 23.4609 85.1551 23.6196C85.2133 23.6899 85.2676 23.7634 85.3176 23.8396C85.3746 23.9284 85.4176 24.0254 85.4451 24.1271C85.4751 24.2446 85.5076 24.3971 85.5376 24.5871C85.5676 24.7771 85.5976 25.0171 85.6301 25.3121L86.3351 31.3921C86.3701 31.6546 86.3901 31.8696 86.4026 32.0346C86.4151 32.1996 86.4251 32.3446 86.4326 32.4521C86.4391 32.5441 86.4341 32.6365 86.4176 32.7271C86.3951 32.7997 86.3701 32.8746 86.3351 32.9596C86.2683 33.199 86.1116 33.4032 85.8976 33.5296C85.5755 33.6858 85.2302 33.7888 84.8751 33.8346L85.0351 35.1596L89.7501 34.6121C90.1726 34.5596 90.5951 34.5146 91.0226 34.4721C91.4501 34.4296 91.8951 34.3921 92.3901 34.3621C92.6551 34.3446 92.8901 34.3246 93.0876 34.2996C93.2851 34.2746 93.4576 34.2597 93.6026 34.2397C95.4351 34.0272 96.7551 33.3097 97.5501 32.0947C98.3451 30.8797 98.6176 29.1796 98.3601 26.9971C98.2619 26.1014 98.0709 25.2184 97.7901 24.3621C97.5671 23.645 97.2448 22.9625 96.8326 22.3346C96.3959 21.7132 95.7737 21.2458 95.0551 20.9996C94.8861 20.9477 94.7141 20.906 94.5401 20.8746C94.4968 20.8624 94.4525 20.854 94.4076 20.8496C94.2226 20.8196 94.0326 20.7946 93.8351 20.7771H93.7926C93.6576 20.7771 93.5251 20.7771 93.3826 20.7771H93.1976H93.0201C92.7951 20.7771 92.5626 20.8021 92.3176 20.8271L91.6551 20.9171C91.3601 20.9571 91.0551 20.9996 90.7351 21.0546C90.4151 21.1096 89.9226 21.1746 89.3676 21.2446C88.8126 21.3146 88.1176 21.4021 87.3401 21.4946L83.5001 21.9471ZM68.9626 38.4671C68.9556 38.7128 68.917 38.9564 68.8476 39.1922C68.7919 39.3848 68.6937 39.5625 68.5601 39.7122C68.3943 39.8808 68.2163 40.037 68.0276 40.1796L68.5276 41.4146L73.6026 39.3321L73.1026 38.0821C72.9801 38.1196 72.8751 38.1446 72.7726 38.1696L72.6751 38.1971L72.4901 38.2346H72.3976C72.3476 38.2346 72.3001 38.2521 72.2576 38.2547H72.1826C72.1302 38.2574 72.0776 38.2574 72.0251 38.2547C71.8151 38.2222 71.6576 38.0646 71.5401 37.7822C71.4792 37.6198 71.4324 37.4525 71.4001 37.2822C71.3666 37.0646 71.3499 36.8448 71.3501 36.6246L71.3276 36.2472L74.4701 34.9996L74.6976 35.2946C74.9719 35.6002 75.2109 35.9356 75.4101 36.2946C75.4607 36.3956 75.4838 36.5082 75.4772 36.6209C75.4707 36.7337 75.4346 36.8427 75.3726 36.9371C75.1296 37.2001 74.8294 37.4037 74.4951 37.5322L74.9951 38.7696L81.3026 36.1772L80.8026 34.9396C80.6808 34.9744 80.5562 34.9987 80.4301 35.0121C80.3936 35.0158 80.3567 35.0158 80.3201 35.0121C80.2372 35.023 80.1537 35.0288 80.0701 35.0296C79.853 35.02 79.6402 34.9655 79.4451 34.8696C79.2042 34.7416 78.9821 34.5809 78.7851 34.3922C78.5626 34.1797 78.2851 33.8922 77.9701 33.5522L72.2201 27.0696C72.0901 26.9346 71.9826 26.8196 71.9001 26.7146C71.8176 26.6096 71.7351 26.5121 71.6501 26.4146C71.5651 26.3171 71.5001 26.2171 71.4276 26.1071C71.3551 25.9971 71.2751 25.8846 71.1776 25.7496L68.3351 26.9146C68.3651 27.0746 68.4026 27.2946 68.4426 27.5796C68.4923 27.9695 68.5216 28.3617 68.5301 28.7546L68.9326 37.3596C68.9451 37.8172 68.9451 38.1871 68.9326 38.4721M47.5701 40.0496L48.3751 41.1147C48.633 40.933 48.9106 40.7812 49.2026 40.6621C49.2541 40.6429 49.3079 40.6302 49.3626 40.6246C49.3809 40.6233 49.3993 40.6233 49.4176 40.6246C49.4895 40.6113 49.5632 40.6113 49.6351 40.6246H49.6876C49.7426 40.6309 49.797 40.6418 49.8501 40.6572C49.9367 40.6838 50.0205 40.719 50.1001 40.7621C50.194 40.8092 50.2787 40.8727 50.3501 40.9496C50.4645 41.058 50.5722 41.1732 50.6726 41.2946C50.7851 41.4471 50.9426 41.6371 51.1151 41.8696L54.8151 46.7472C54.9801 46.9622 55.1051 47.1347 55.1976 47.2747C55.2901 47.4146 55.3726 47.5247 55.4351 47.6171C55.4925 47.6913 55.5341 47.7764 55.5576 47.8671C55.5815 47.9441 55.5998 48.0226 55.6126 48.1021C55.6772 48.345 55.644 48.6035 55.5201 48.8221C55.3214 49.1168 55.0776 49.3783 54.7976 49.5971L55.6001 50.6671L64.6651 43.7971L62.1001 40.3571L60.7801 41.3571C61.0169 41.6919 61.2149 42.0526 61.3701 42.4321C61.4734 42.7032 61.4968 42.9982 61.4376 43.2822C61.4249 43.3862 61.398 43.488 61.3576 43.5846C61.3059 43.6857 61.2439 43.7812 61.1726 43.8696C61.0669 43.9809 60.9542 44.0853 60.8351 44.1821L60.2901 44.6071L60.0826 44.7646C59.8976 44.9071 59.7351 45.0147 59.6101 45.1096C59.505 45.1841 59.3948 45.2509 59.2801 45.3097C59.1998 45.3487 59.1161 45.3805 59.0301 45.4046C58.9542 45.4236 58.8758 45.4312 58.7976 45.4272C58.7387 45.4295 58.6799 45.4192 58.6251 45.3971C58.5616 45.3681 58.5046 45.3264 58.4576 45.2747C58.3926 45.2147 58.3226 45.1322 58.2276 45.0247C58.1326 44.9172 58.0376 44.7896 57.9001 44.6071L54.1026 39.6071C53.9426 39.3971 53.8151 39.2196 53.7201 39.0846C53.6251 38.9496 53.5451 38.8347 53.4701 38.7421C53.4151 38.6672 53.3752 38.5823 53.3526 38.4921C53.3253 38.4153 53.3069 38.3357 53.2976 38.2547C53.264 38.1334 53.2555 38.0065 53.2727 37.8818C53.2899 37.7571 53.3324 37.6373 53.3976 37.5296C53.6022 37.2287 53.8567 36.9649 54.1501 36.7496L53.3376 35.6847L47.5701 40.0496ZM37.5701 50.7171L38.5876 51.5921C38.8012 51.3569 39.0421 51.1479 39.3051 50.9697C39.3462 50.9444 39.3898 50.9234 39.4351 50.9072L39.4851 50.8896C39.5161 50.8774 39.5478 50.8674 39.5801 50.8596H39.6426L39.7301 50.8471C39.7542 50.8447 39.7785 50.8447 39.8026 50.8471C39.8451 50.8471 39.8826 50.8471 39.9251 50.8471C40.0276 50.8621 40.1101 50.8746 40.2051 50.8946C40.307 50.9188 40.4059 50.954 40.5001 50.9996C40.6321 51.0828 40.759 51.1738 40.8801 51.2721L41.4426 51.7421L46.0651 55.7571C46.2651 55.9296 46.4251 56.0746 46.5501 56.1871C46.6751 56.2996 46.7701 56.3946 46.8501 56.4746C46.9176 56.5384 46.9764 56.6107 47.0251 56.6896C47.0616 56.7605 47.0926 56.834 47.1176 56.9096C47.2335 57.1344 47.2559 57.3959 47.1801 57.6371C47.0448 57.9642 46.8602 58.2686 46.6326 58.5396L47.6326 59.4171L52.3501 53.9796L51.3501 53.1021C51.1333 53.3372 50.889 53.5453 50.6226 53.7221C50.5813 53.7469 50.5378 53.7678 50.4926 53.7846C50.4768 53.7927 50.46 53.7986 50.4426 53.8022L50.3501 53.8321L50.2851 53.8447H50.1926C50.1702 53.8473 50.1476 53.8473 50.1251 53.8447H50.0001C49.9069 53.8421 49.8144 53.8269 49.7251 53.7996C49.6288 53.763 49.5359 53.7178 49.4476 53.6646C49.3173 53.5828 49.1936 53.4908 49.0776 53.3896C48.9301 53.2746 48.7401 53.1196 48.5101 52.9171L43.8851 48.9046C43.6876 48.7321 43.5226 48.5871 43.4001 48.4746L43.1001 48.1821C43.0317 48.1219 42.9735 48.0509 42.9276 47.9721C42.8897 47.9013 42.8571 47.8278 42.8301 47.7521C42.7149 47.5271 42.6933 47.2656 42.7701 47.0247C42.9046 46.6966 43.0902 46.392 43.3201 46.1222L42.3201 45.2446L37.5701 50.7171ZM26.0526 69.9421L27.2351 70.5647C27.3904 70.2859 27.5793 70.0273 27.7976 69.7946C27.9572 69.6448 28.157 69.5449 28.3726 69.5071C28.4639 69.497 28.5558 69.4929 28.6476 69.4947C28.7529 69.496 28.8571 69.5164 28.9551 69.5546C29.1065 69.6034 29.2537 69.6645 29.3951 69.7372C29.5626 69.8197 29.7826 69.9221 30.0451 70.0621L35.5001 72.8821C35.7501 73.0021 35.9251 73.1046 36.0701 73.1846L36.4276 73.3997C36.5112 73.4416 36.5859 73.4994 36.6476 73.5696C36.7007 73.6299 36.7499 73.6933 36.7951 73.7597C36.9569 73.951 37.0392 74.197 37.0251 74.4472C36.9666 74.7998 36.8562 75.1418 36.6976 75.4622L37.8851 76.0722L40.3851 71.2646L35.0001 68.4821L36.8226 64.9821L42.2201 67.7496L44.7026 62.9746L43.5201 62.3571C43.3608 62.6455 43.1669 62.9133 42.9426 63.1546C42.7857 63.3082 42.5846 63.4088 42.3676 63.4422C42.3052 63.4559 42.2416 63.4635 42.1776 63.4646H42.0851C41.9831 63.4521 41.8827 63.4295 41.7851 63.3971C41.6393 63.3494 41.4973 63.291 41.3601 63.2221C41.1901 63.1421 40.9701 63.0322 40.7001 62.8896L35.2701 60.0646C35.0201 59.9421 34.8401 59.8396 34.6951 59.7571L34.3326 59.5446C34.2517 59.4985 34.1777 59.4413 34.1126 59.3746C34.0751 59.3246 34.0201 59.2621 33.9651 59.1847C33.807 58.9889 33.7284 58.7407 33.7451 58.4897C33.8084 58.1283 33.9238 57.7779 34.0876 57.4496L32.9001 56.8346L30.3726 61.7021L34.8401 63.9521L33.0201 67.4521L28.5551 65.1771L26.0526 69.9421ZM20.9026 90.0596L22.2501 90.3196C22.3185 90.0138 22.4278 89.7187 22.5751 89.4421C22.6853 89.2556 22.8491 89.1067 23.0451 89.0146C23.1317 88.9818 23.2202 88.9543 23.3101 88.9322C23.3527 88.9208 23.3962 88.9133 23.4401 88.9097C23.4584 88.9073 23.4769 88.9073 23.4951 88.9097H23.6226C23.777 88.9183 23.9306 88.9366 24.0826 88.9646C24.2776 88.9971 24.5126 89.0446 24.8001 89.0996L30.8001 90.3321L31.4376 90.4746L31.8376 90.5821C31.9255 90.6028 32.0098 90.6365 32.0876 90.6822L32.2826 90.8271C32.4808 90.974 32.62 91.1868 32.6751 91.4271C32.7265 91.7741 32.7206 92.1271 32.6576 92.4722L33.9626 92.7447L35.4401 85.5746L34.1276 85.3021C34.0649 85.6565 33.9494 85.9995 33.7851 86.3196C33.6769 86.521 33.5069 86.6822 33.3001 86.7796C33.2178 86.8265 33.1282 86.8594 33.0351 86.8772C32.9914 86.8861 32.9472 86.8919 32.9026 86.8946H32.8576C32.8127 86.8972 32.7676 86.8972 32.7226 86.8946C32.569 86.8873 32.4161 86.8689 32.2651 86.8396C32.0876 86.8146 31.8401 86.7646 31.5426 86.7047L25.3901 85.4371C25.1223 85.3902 24.8606 85.3131 24.6101 85.2071C24.459 85.1252 24.3388 84.9961 24.2676 84.8396C24.1201 84.5646 24.1076 84.1421 24.2251 83.5671C24.3651 82.9046 24.6176 82.5071 24.9976 82.3821C25.0626 82.3582 25.1295 82.3398 25.1976 82.3271C25.2205 82.3196 25.2439 82.3137 25.2676 82.3096L25.4251 82.2847C25.4551 82.2822 25.4852 82.2822 25.5151 82.2847C25.5681 82.2768 25.6216 82.2726 25.6751 82.2721H26.1476L26.2951 82.2847C26.3676 82.2847 26.4476 82.2971 26.5226 82.3072L26.6801 82.3222L26.9526 82.3622L27.0976 82.3871C27.2401 82.4121 27.3926 82.4371 27.5526 82.4722C28.4351 82.6522 29.0276 82.8771 29.3226 83.1521C29.6176 83.4271 29.7151 83.8271 29.6051 84.3596C29.522 84.6964 29.3933 85.0202 29.2226 85.3222L30.5401 86.1396C31.1809 85.4592 31.6055 84.604 31.7601 83.6822C32.0468 82.3022 31.886 81.2105 31.2776 80.4072C30.6826 79.6071 29.5876 79.0371 28.0126 78.7171C27.8201 78.6746 27.6326 78.6422 27.4476 78.6122C27.3926 78.6122 27.3326 78.5997 27.2701 78.5872C27.1526 78.5696 27.0351 78.5571 26.9151 78.5446C26.8526 78.5446 26.7851 78.5321 26.7226 78.5271C26.6201 78.5146 26.5151 78.5096 26.4126 78.5071C26.3501 78.5071 26.2876 78.5071 26.2226 78.5071H25.9726L25.6676 78.5196C25.6051 78.5196 25.5376 78.5196 25.4701 78.5371C25.4026 78.5546 25.2801 78.5621 25.1901 78.5797C25.1001 78.5972 25.0776 78.5971 25.0226 78.6096C24.9277 78.6284 24.8342 78.6534 24.7426 78.6846L24.6126 78.7222C24.4885 78.7666 24.3674 78.8192 24.2501 78.8796C23.3926 79.3221 22.8351 80.2172 22.5601 81.5572C22.5176 81.7247 22.4801 81.9371 22.4376 82.1822C22.3951 82.4272 22.3501 82.6972 22.3026 82.9722C22.2351 83.4447 22.1601 83.8997 22.0876 84.3346C22.0151 84.7696 21.9201 85.2522 21.8051 85.7997L20.9026 90.0596ZM25.0401 108.682L22.8951 112.525L26.8951 110.675L29.8951 113.91L29.3676 109.527L33.3676 107.68L29.0426 106.827L28.5201 102.452L26.3751 106.305L22.0751 105.447L25.0401 108.682ZM31.5551 127.932L35.2476 130.347L33.6801 126.225L37.1176 123.475L32.7176 123.685L31.1551 119.565L29.9976 123.815L25.5976 124.025L29.2851 126.44L28.1226 130.69L31.5551 127.932ZM41.8876 141.402L44.5576 137.902L40.3426 139.165L37.8426 135.537L37.7426 139.947L33.5226 141.197L37.6776 142.652L37.5776 147.057L40.2451 143.557L44.4101 145.015L41.8876 141.402ZM56.8126 157.08L53.5051 154.162L55.2551 150.125L51.4576 152.375L48.1876 149.45L49.1501 153.75L45.3526 156L49.7501 156.41L50.7151 160.707L52.4651 156.667L56.8126 157.08ZM71.7651 165.787L67.8776 163.75L68.6026 159.41L65.4651 162.5L61.5551 160.46L63.5226 164.405L60.3826 167.5L64.7501 166.845L66.7176 170.787L67.4451 166.447L71.7651 165.787ZM84.2926 172.325L88.3676 170.64L84.0826 169.61L83.7451 165.222L81.4376 168.972L77.1576 167.937L80.0076 171.29L77.7051 175.04L81.7751 173.357L84.6351 176.71L84.2926 172.325ZM102.105 173.98L105.655 171.37L101.248 171.395L99.8626 167.215L98.5276 171.412L94.1151 171.437L97.7276 174L96.3876 178.202L99.9351 175.587L103.52 178.155L102.105 173.98ZM119.785 171.302L122.605 167.912L118.36 169L116.015 165.277L115.725 169.672L111.45 170.75L115.543 172.385L115.25 176.792L118.065 173.397L122.155 175.032L119.785 171.302ZM139.515 167.5L136.335 164.455L138.25 160.5L134.365 162.58L131.188 159.532L131.965 163.865L128.08 165.945L132.448 166.545L133.228 170.882L135.14 166.912L139.515 167.5ZM158.39 99.9996C158.39 67.8022 132.2 41.6046 100.003 41.6046C67.8051 41.6046 41.6076 67.8046 41.6076 99.9996C41.6076 132.195 67.8051 158.395 100 158.395C132.195 158.395 158.39 132.202 158.39 99.9996ZM154.548 156.03L150.73 153.835L151.635 149.517L148.365 152.477L144.553 150.277L146.348 154.297L143.07 157.25L147.458 156.78L149.25 160.805L150.165 156.5L154.548 156.03ZM162.233 142.78L166.375 141.28L162.14 140.072L162 135.65L159.535 139.312L155.303 138.097L158 141.567L155.53 145.22L159.675 143.72L162.388 147.19L162.233 142.78ZM170.648 126.565L174.305 124.107L169.905 123.95L168.693 119.7L167.193 123.842L162.793 123.68L166.25 126.402L164.735 130.545L168.395 128.085L171.863 130.8L170.648 126.565ZM174.918 108.8L177.878 105.55L173.57 106.452L171.375 102.627L170.905 107L166.595 107.9L170.61 109.697L170.138 114.08L173.093 110.83L177.123 112.627L174.918 108.8ZM177.918 85.6621C178.025 85.6071 178.168 85.5497 178.31 85.4771L177.693 82.4771H177.275L177.025 82.4646C176.74 82.4471 176.348 82.3997 175.858 82.3297L167.325 81.1122C166.878 81.0447 166.51 80.9771 166.228 80.9146C165.991 80.8568 165.761 80.773 165.543 80.6646C165.364 80.5723 165.208 80.4407 165.088 80.2796C164.948 80.0893 164.828 79.8858 164.728 79.6721L163.418 79.9397L164.518 85.3147L165.825 85.0471C165.764 84.6831 165.772 84.3106 165.85 83.9496C165.915 83.7521 166.1 83.6296 166.4 83.5621C166.565 83.534 166.733 83.5198 166.9 83.5196C167.122 83.5255 167.343 83.5497 167.56 83.5921L167.93 83.6371L168.61 86.9821L168.283 87.1521C167.927 87.3563 167.552 87.5239 167.163 87.6521C167.102 87.6645 167.04 87.6712 166.978 87.6721C166.927 87.6712 166.877 87.6662 166.828 87.6572L166.788 87.6446L166.693 87.6021L166.655 87.5846C166.614 87.5609 166.577 87.5305 166.545 87.4947C166.328 87.2079 166.182 86.8737 166.12 86.5196L164.81 86.7871L166.178 93.4746L167.483 93.1996C167.462 92.9555 167.476 92.7097 167.525 92.4697C167.577 92.2583 167.673 92.06 167.805 91.8871C167.973 91.6734 168.172 91.4856 168.395 91.3297C168.645 91.1396 168.975 90.9296 169.375 90.6846L176.813 86.2496C176.97 86.1521 177.11 86.0671 177.223 85.9996C177.335 85.9322 177.453 85.8721 177.565 85.8196C177.678 85.7591 177.794 85.7048 177.913 85.6572" fill="#051C2C"/>
<path d="M100.052 155.155C92.7182 151.062 86.1116 145.784 80.5 139.535V155.035C93.1297 159.529 106.923 159.529 119.552 155.035V139.615C113.951 145.832 107.363 151.082 100.052 155.155Z" fill="#3A8DDE"/>
<path d="M119.54 62.7253V44.9753C106.911 40.4822 93.1189 40.4822 80.49 44.9753V62.7503C87.79 61.4678 94.47 58.1478 100.052 53.3353C105.61 58.1303 112.27 61.4453 119.552 62.7378" fill="#3A8DDE"/>
</svg>
