<svg width="200" height="200" viewBox="0 0 200 200" fill="none" xmlns="http://www.w3.org/2000/svg">
<path d="M127.24 135.085L132.5 142.063L134.605 140.483L129.34 133.505L127.24 135.085Z" fill="white"/>
<path d="M113.605 48.1704H111.272V43.8404H111.942C112.791 43.8404 113.605 43.5033 114.205 42.9032C114.805 42.3031 115.142 41.4891 115.142 40.6404C115.142 39.7917 114.805 38.9778 114.205 38.3777C113.605 37.7776 112.791 37.4404 111.942 37.4404H108.627V55.7829H113.605C114.613 55.7829 115.581 55.3823 116.294 54.6692C117.007 53.9561 117.407 52.9889 117.407 51.9804C117.407 50.9719 117.007 50.0048 116.294 49.2917C115.581 48.5785 114.613 48.1779 113.605 48.1779" fill="white"/>
<path d="M92.08 51.4625C92.08 48.6875 90.1 46.4375 87.6575 46.4375C85.215 46.4375 83.2325 48.6875 83.2325 51.4625C83.2325 54.2375 85.2125 56.4875 87.6575 56.4875C90.1025 56.4875 92.08 54.2375 92.08 51.4625Z" fill="white"/>
<path d="M68.5 46.4375C66.735 46.4375 65.215 47.6 64.5 49.2975H72.5C71.7875 47.6 70.2675 46.4375 68.5 46.4375Z" fill="white"/>
<path d="M116.397 140.915L123.927 159.558L126.362 158.565L118.832 139.93L116.397 140.915Z" fill="white"/>
<path d="M80.42 99.0002C81.3775 99.0002 82.7775 100.895 82.945 102.193C83.0325 102.87 82.8525 103.443 83.38 103.443C83.745 103.443 84.02 102.405 84.02 101.48C84.02 100.555 83.435 99.3902 82.5 98.3452C81.565 97.3002 81.4825 96.2627 80.4075 96.2627C79.7775 96.2627 79.7775 97.2902 78.88 98.7402C78.605 99.1877 78.3125 99.8702 78.57 100.49C78.7925 100.64 79.5875 98.9902 80.42 98.9902" fill="white"/>
<path d="M78.4651 111.538C80.0851 111.538 80.4851 111.273 80.4851 109.915C80.4851 109.24 80.1976 109.22 79.9001 109.22C78.7701 109.22 77.6851 110.848 77.6851 111.255C77.6851 111.37 77.8226 111.538 78.4651 111.538Z" fill="white"/>
<path d="M67.5 89.9253C68.47 86.6928 67 83.5703 65.8575 83.5703C65.7728 83.5698 65.6889 83.5867 65.6111 83.6201C65.5333 83.6535 65.4632 83.7026 65.4052 83.7643C65.3473 83.826 65.3027 83.899 65.2742 83.9788C65.2458 84.0586 65.2341 84.1434 65.24 84.2278C65.24 85.2828 66.5025 85.2053 67.24 89.9603L67.5 89.9253Z" fill="white"/>
<path d="M197.783 118.93C197.717 116.055 196.133 114.57 194.815 114.815C194.827 114.412 194.728 114.013 194.529 113.663C194.33 113.312 194.038 113.023 193.685 112.828L192.372 111.883C191.932 111.503 191.44 111.083 190.515 111.083C188.935 111.083 188.193 113.118 188.193 113.118C186.943 112.28 186.758 111.723 186.208 110.07C185.285 107.515 183.807 107.468 182.378 107.423C181.45 107.373 181.152 107.303 179.17 106.1C179.17 106.1 180.798 102.953 180.548 99.3927C181.582 99.6808 182.651 99.8312 183.725 99.8402C189.425 99.8402 192.83 95.4627 192.83 91.2327C192.83 86.4602 189.64 84.3877 186.105 81.5352C189.455 81.7627 193.785 79.2702 193.785 74.7702C193.785 72.6177 192.148 70.9052 192.148 70.9052C190.303 72.5102 188.61 73.4602 186.175 74.0702C184.365 74.3877 179.555 75.2177 179.555 79.7727C179.555 85.1252 187.445 86.6377 187.445 91.1977C187.439 91.6335 187.346 92.0638 187.172 92.4633C186.998 92.8629 186.746 93.2237 186.431 93.5249C186.116 93.826 185.744 94.0614 185.337 94.2173C184.93 94.3731 184.496 94.4464 184.06 94.4327C179.14 94.4327 176.283 89.2227 170.425 87.4577V20.1577H29.075V87.4577C23.2225 89.2227 20.36 94.4327 15.44 94.4327C15.0044 94.4464 14.5704 94.3731 14.1633 94.2173C13.7563 94.0614 13.3844 93.826 13.0693 93.5249C12.7542 93.2237 12.5022 92.8629 12.3281 92.4633C12.1539 92.0638 12.0611 91.6335 12.055 91.1977C12.055 86.6377 19.94 85.1252 19.94 79.7727C19.94 75.2177 15.135 74.3877 13.3225 74.0702C11.0961 73.543 9.04227 72.4532 7.3575 70.9052C7.3575 70.9052 5.72 72.6177 5.72 74.7702C5.72 79.2702 10.05 81.7702 13.395 81.5352C9.865 84.3877 6.665 86.4602 6.665 91.2327C6.665 95.4627 10.07 99.8402 15.775 99.8402C16.8492 99.8312 17.9176 99.6808 18.9525 99.3927C18.7025 102.953 20.3275 106.1 20.3275 106.1C18.3425 107.303 18.05 107.373 17.1225 107.423C15.6925 107.468 14.215 107.515 13.2925 110.07C12.745 111.723 12.5425 112.28 11.3075 113.118C11.3075 113.118 10.5575 111.083 8.9875 111.083C8.06 111.083 7.5625 111.503 7.1275 111.883L5.81 112.828C5.45854 113.024 5.16777 113.314 4.9694 113.664C4.77103 114.015 4.67265 114.413 4.685 114.815C3.37 114.565 1.7825 116.065 1.7125 118.93C1.7125 118.93 1 119.723 1 120.608C1 121.915 2.5325 122.435 5.6 122.91L5.715 122.51L9.2325 123.058C12.4025 123.058 12.755 120.558 13.89 119.428L15.75 119.798C20.6 118.963 20.4875 116.298 22.94 116.298C24.0875 116.298 26.3375 116.825 27.5225 116.825C28.0444 116.822 28.5635 116.747 29.065 116.603V133.145C29.065 151.175 61.4125 179.878 99.74 179.878C138.068 179.878 170.425 151.183 170.425 133.153V116.61C170.927 116.755 171.447 116.83 171.97 116.833C173.158 116.833 175.408 116.305 176.545 116.305C179.003 116.305 178.89 118.963 183.742 119.805L185.61 119.435C186.74 120.568 187.098 123.065 190.268 123.065L193.785 122.5L193.895 122.9C196.967 122.425 198.5 121.9 198.5 120.598C198.5 119.713 197.783 118.92 197.783 118.92M4.6725 121.403C4.6725 121.403 2.315 120.97 2.315 120.608C2.315 120.093 2.955 119.805 3.0225 119.04C3.155 117.54 3.005 116.868 4.375 116.078C4.7675 116.078 5.805 117.09 5.805 117.31C5.805 117.81 5.255 119.075 4.6725 121.403ZM30.39 21.4727H169.115V87.1352C168.419 86.9958 167.712 86.9122 167.003 86.8852V23.5852H32.5V86.8952C31.792 86.9231 31.0874 87.0067 30.3925 87.1452L30.39 21.4727ZM105.552 114.868C105.052 115.493 105.02 117.455 107.302 117.455C111.452 117.455 112.788 115.705 114.785 114.123C116.285 115.408 117.58 116.053 118.745 116.053L120.918 115.88C123.31 115.88 125.2 117.455 127.685 117.455C127.775 117.455 127.85 117.435 127.935 117.43C124.518 121.602 120.217 124.963 115.344 127.271C110.47 129.579 105.145 130.776 99.7525 130.776C94.36 130.776 89.0348 129.579 84.1612 127.271C79.2875 124.963 74.987 121.602 71.57 117.43C71.655 117.43 71.73 117.455 71.82 117.455C74.305 117.455 76.1925 115.88 78.5875 115.88L80.76 116.053C81.93 116.053 83.21 115.408 84.72 114.123C86.72 115.695 88.0525 117.455 92.2025 117.455C94.4825 117.455 94.4525 115.493 93.9525 114.868C95.8975 115.215 97.295 113.785 96.185 111.945C92.72 110.928 92.75 107.75 89.7225 105.123C86.5775 97.5852 87.7375 92.7102 85.2475 89.3902C80.5475 83.1402 79.6025 81.8652 76.7475 79.4902C73.1025 76.3977 72.2975 75.6077 69.605 73.8827C73.713 67.8355 79.5422 63.1611 86.3375 60.4652C82.0475 59.8077 78.7625 56.0327 78.7625 51.4652C78.7625 46.4327 82.7425 42.3527 87.66 42.3527C90.01 42.3527 91.41 43.4077 92.085 44.1177V31.7227H96.89V55.4727C92.5912 56.1183 88.6397 58.2069 85.685 61.3953C82.7302 64.5838 80.9478 68.6824 80.6307 73.0179C80.3136 77.3534 81.4806 81.6678 83.9399 85.2523C86.3993 88.8367 90.0047 91.4781 94.1638 92.7423C98.323 94.0066 102.788 93.8185 106.827 92.2091C110.865 90.5996 114.235 87.6645 116.385 83.886C118.534 80.1074 119.334 75.7102 118.654 71.4167C117.973 67.1233 115.852 63.189 112.64 60.2602C119.659 62.9207 125.688 67.6779 129.908 73.8852C127.213 75.6102 126.408 76.4002 122.76 79.4927C119.9 81.8677 118.955 83.1402 114.26 89.3927C111.76 92.7127 112.933 97.5877 109.785 105.125C106.77 107.745 106.785 110.93 103.325 111.948C102.225 113.788 103.618 115.218 105.562 114.87M33.5 114.41C35.625 113.16 37.0525 109.45 37.0525 108.41L37.4775 108.515V133.15C37.4775 145.77 66.3 171.47 99.7425 171.47C133.185 171.47 161.992 145.77 161.992 133.15V108.518L162.42 108.413C162.42 109.45 163.848 113.163 165.967 114.413V133.163C165.967 149.098 135.012 175.458 99.7175 175.458C64.4225 175.458 33.5 149.088 33.5 133.153V114.41ZM82.6 146.85L84.685 147.57C84.1475 150.433 83.8775 153.3 82.935 157.415L89.12 139.9L91.65 140.75L82.5875 164.453L80.27 163.658L82.485 150.67L76.1725 162.25L73.8525 161.455L81.3 137.205L83.82 138.07L77.91 155.675C79.71 151.865 81.265 149.425 82.6 146.85ZM77.22 137.75L72.9125 134.725L67.9125 141.88L71.1375 144.145L69.6375 146.295L66.4025 144.045L61.4025 151.205L65.705 154.223L64.205 156.37L59.9 153.355C59.6168 153.158 59.3754 152.907 59.1897 152.616C59.0039 152.325 58.8774 152 58.8175 151.66C58.7576 151.321 58.7654 150.972 58.8404 150.635C58.9155 150.299 59.0564 149.98 59.255 149.698L70.75 133.213C70.9481 132.93 71.2 132.689 71.4911 132.504C71.7823 132.319 72.1071 132.193 72.4469 132.133C72.7868 132.074 73.1351 132.082 73.4719 132.157C73.8087 132.232 74.1275 132.372 74.41 132.57L78.7225 135.588L77.22 137.75ZM47.13 141.675L45.38 139.73L64.2225 122.75L65.885 124.598L55.87 137.73L67.75 126.665L69.5 128.618L50.655 145.583L48.9875 143.735L59 130.608L47.13 141.675ZM68.38 109.463C67.88 108.79 67.3075 107.643 66.7525 106.385C67.47 106.385 68.415 106.135 69.6075 105.668C70.1054 105.674 70.6029 105.639 71.095 105.563C70.9723 105.889 70.8704 106.223 70.79 106.563C69.9875 107.455 68.8275 108.255 68.38 109.46M53.5425 111.265C54.465 111.265 55.96 111.073 56.1875 111.073C56.415 111.073 56.925 111.128 57.0425 112.073C57.16 113.018 57.7625 113.538 57.7625 113.925C57.7625 114.313 56.6175 115.05 55.355 115.05C54.3375 115.05 54.225 112.723 53.1975 112.16C52.4475 111.738 52.6225 111.275 53.5425 111.275M106.7 140.82L109.31 140.5L110.56 150.723C110.902 153.543 108.408 154.745 108.408 154.745L109.785 165.995L107.18 166.318L105.798 155.068C105.798 155.068 103.073 154.468 102.735 151.69L101.485 141.463L104.088 141.15L105.48 152.463L108.09 152.14L106.7 140.82ZM142.375 128.783L137.5 124.698C136.946 124.192 136.518 123.563 136.25 122.863L137.985 120.79C138.122 121.392 138.42 121.945 138.848 122.39C138.848 122.39 140.272 123.59 143.117 125.965C146.715 128.988 144.303 132.32 144.303 132.32C147.09 129 150.28 131.978 150.28 131.978L155.08 136C155.727 136.581 156.53 136.96 157.39 137.09L155.655 139.158C154.655 139.158 153.74 138.303 153.74 138.303C153.74 138.303 149.397 134.66 147.962 133.463C146.285 132.053 144.613 134.068 144.613 134.068L153.598 141.605L151.932 143.605L132.5 127.325L134.182 125.325L142.553 132.34C144.303 130.243 142.385 128.793 142.385 128.793M136.277 138.343C137.007 139.305 136.857 139.998 136.565 140.663C137.22 140.473 137.97 140.585 138.915 141.835L143.997 148.585C144.425 149.155 144.97 149.413 145.637 149.705L143.485 151.333C142.874 151.071 142.332 150.671 141.9 150.165L136.193 142.593L134.087 144.178L140.92 153.25L138.825 154.828L123.56 134.578L127.75 131.4C128.026 131.193 128.34 131.041 128.674 130.955C129.008 130.869 129.356 130.85 129.698 130.898C130.039 130.946 130.368 131.061 130.666 131.237C130.963 131.412 131.223 131.644 131.43 131.92L136.277 138.343ZM128.398 156.57C128.79 157.54 128.781 158.625 128.373 159.588C127.966 160.551 127.192 161.313 126.223 161.705C125.253 162.098 124.168 162.089 123.205 161.681C122.242 161.273 121.48 160.5 121.088 159.53L114.382 142.93C113.99 141.961 113.999 140.875 114.407 139.912C114.814 138.949 115.588 138.188 116.558 137.795C117.527 137.403 118.612 137.411 119.575 137.819C120.538 138.227 121.3 139.001 121.692 139.97L128.398 156.57ZM145.95 111.268C146.878 111.268 147.057 111.73 146.292 112.153C145.27 112.715 145.16 115.043 144.137 115.043C142.887 115.043 141.735 114.293 141.735 113.918C141.735 113.543 142.333 113.003 142.452 112.065C142.572 111.128 143.08 111.065 143.307 111.065C143.535 111.065 145.025 111.258 145.95 111.258M128.7 106.555C128.62 106.215 128.517 105.881 128.393 105.555C128.889 105.632 129.39 105.667 129.893 105.66C131.083 106.14 132.033 106.368 132.745 106.378C132.19 107.628 131.627 108.783 131.117 109.455C130.67 108.25 129.51 107.455 128.708 106.558M68.5 56.5002C70.12 56.5002 71.5375 55.5002 72.31 54.0302L75.96 56.4402C75.1663 57.7028 74.066 58.744 72.7617 59.4669C71.4574 60.1899 69.9913 60.5712 68.5 60.5752C63.5825 60.5752 59.5975 56.4952 59.5975 51.4627C59.5975 46.4302 63.57 42.3502 68.5 42.3502C73.43 42.3502 77.4 46.4302 77.4 51.4627C77.4 51.7127 77.3875 51.9877 77.365 52.2402H64.115C64.45 54.6452 66.28 56.4902 68.49 56.4902M53.865 48.9502L61.04 60.1127H54.6475L48.9425 51.2502V44.8827H50.61C51.5809 44.8576 52.5036 44.4542 53.1814 43.7586C53.8592 43.063 54.2385 42.1302 54.2385 41.159C54.2385 40.1877 53.8592 39.2549 53.1814 38.5593C52.5036 37.8637 51.5809 37.4604 50.61 37.4352H47.25V60.1077H41.75V33.1077H51.8475C56.195 33.1077 59.715 36.7127 59.715 41.1577C59.7288 42.9201 59.1619 44.638 58.1019 46.046C57.0418 47.454 55.5475 48.4738 53.85 48.9477M122.793 51.9752C122.793 56.4752 119.233 60.1102 114.848 60.1102H112.47C109.838 57.7513 106.601 56.1715 103.122 55.5477V33.1102H113.2C117.26 33.1102 120.555 36.4827 120.555 40.6352C120.576 41.5298 120.407 42.4186 120.059 43.2432C119.712 44.0679 119.194 44.8098 118.54 45.4202C119.83 45.9548 120.928 46.8673 121.69 48.0377C122.452 49.2081 122.841 50.5817 122.808 51.9777M114.665 64.8327C116.056 67.0095 116.955 69.4644 117.296 72.0251C117.638 74.5858 117.416 77.1904 116.644 79.6559C115.873 82.1215 114.571 84.3883 112.83 86.2973C111.089 88.2063 108.952 89.7113 106.568 90.7066C104.184 91.7018 101.611 92.1633 99.0297 92.0586C96.4483 91.9539 93.9212 91.2856 91.6256 90.1005C89.33 88.9155 87.3215 87.2424 85.7412 85.1987C84.1608 83.1549 83.0469 80.7901 82.4775 78.2702L85.25 81.1402L88.73 86.7502C91.0234 87.692 93.4783 88.1777 95.9575 88.1802L98.25 84.9652L105.902 84.7602L106.088 85.2852C109.138 83.3837 111.592 80.6626 113.17 77.4327C112.121 77.87 111.041 78.2269 109.938 78.5002C109.938 78.5002 107.838 74.9477 106.287 71.7052C107.281 69.6721 108.421 67.7144 109.7 65.8477C109.7 65.8477 113.287 67.5352 114.975 68.9127C115.036 69.1198 115.08 69.3312 115.107 69.5452C115.107 69.3827 115.13 69.2227 115.13 69.0602C115.131 67.6415 114.975 66.2271 114.665 64.8427M94.165 65.7052C96.47 68.3302 98.665 71.8477 98.665 71.8477C97.6025 73.9127 94.5375 78.8052 94.5375 78.8052C90.4 77.8052 87.57 76.8052 87.57 76.8052C87.3034 74.1462 87.2808 71.4684 87.5025 68.8052C89.2975 67.8677 94.16 65.6952 94.16 65.6952M94.16 57.5777C98.1283 56.2613 102.433 56.3843 106.32 57.9252L105.335 60.3902C102.747 60.1206 100.139 60.0863 97.545 60.2877L94.16 57.5777ZM84.9475 66.6152L82.65 69.8402C83.5161 66.574 85.2998 63.6243 87.79 61.3402L84.9475 66.6152ZM132.197 55.9927C133.105 55.9809 133.972 55.6094 134.606 54.9599C135.241 54.3104 135.592 53.4357 135.583 52.5277V43.2777H140.383V52.2027C140.383 56.8327 136.72 60.5852 132.197 60.5852C127.675 60.5852 124 56.8277 124 52.1977V43.2727H128.805V52.5227C128.792 53.4312 129.141 54.3075 129.773 54.9595C130.406 55.6114 131.272 55.9857 132.18 56.0002M143.575 31.7302H148.385V60.1127H143.575V31.7302ZM152.925 31.7302H157.735V60.1127H152.925V31.7302ZM37.485 28.5702V84.3702C35.8425 85.8002 34.5475 86.6202 33.5075 86.8177V24.5977H166V86.8177C164.965 86.6252 163.67 85.8002 162.025 84.3702V28.5702H37.485ZM6.485 113.965C8.2025 112.965 8.1925 112.388 9 112.388C9.5325 112.388 9.975 113.35 9.975 113.35C9.19 114.668 8.405 116.06 7.355 116.06C6.6775 116.06 6.015 115.628 6.015 115.21C6.015 114.793 5.905 114.3 6.485 113.96M27.545 115.515C26.1675 115.52 24.75 115 22.95 115C20.2875 115 20.2275 116.423 18.625 117.298C17.0225 118.173 16.5 118.478 15.75 118.478C15.1575 118.478 14.475 118.118 13.8825 118.118C11.9725 118.118 12.165 121.743 9.2225 121.743C7.995 121.743 7.2475 121.343 6.2225 121.278C6.3775 118.9 7.52 117.508 7.52 117.508C9.3375 117.455 10.38 115.203 10.38 115.203C13.985 113.203 13.79 112.538 14.52 110.515C15.2975 108.353 16.14 108.88 18.37 108.67C20.6625 107.635 22.0275 106.865 21.62 105.808C21.2125 104.75 20.2675 102.898 20.2675 100.5C20.2675 98.4727 20.2825 97.8927 19.7675 97.8927C19.1925 97.8927 17.8 98.5327 15.7675 98.5327C10.75 98.5327 7.9725 94.7827 7.9725 91.2402C7.9725 84.9902 15.0925 83.3302 15.0925 81.1302C15.0925 80.3802 14.1775 80.2052 13.1125 80.2052C9.23 80.2052 7.0225 77.4552 7.0225 74.7777C7.0461 74.0918 7.25237 73.4247 7.62 72.8452C7.62 72.8452 9.99 74.8452 13.095 75.3752C16.2 75.9052 18.6225 76.8952 18.6225 79.7802C18.6225 84.3502 10.7325 85.8152 10.7325 91.2052C10.7369 91.8146 10.8629 92.417 11.1031 92.977C11.3433 93.5371 11.6928 94.0436 12.1312 94.4669C12.5696 94.8902 13.0881 95.2217 13.6562 95.4421C14.2244 95.6624 14.8308 95.7672 15.44 95.7502C22.0525 95.7502 24.35 88.3827 33.2075 88.1777C37.7975 87.6452 39.2275 82.5652 44.2475 82.6502C44.9325 82.6802 45.91 83.0702 47.465 81.5627C49.02 80.0552 49.3375 78.9652 54.19 77.6552C59.3825 76.2477 60.1275 73.4927 64.73 73.4927C68.33 73.4927 73.1275 78.1977 75.905 80.5077C78.6825 82.8177 79.6925 84.0077 84.1725 90.1627C86.1875 92.9927 85.4875 98.7302 88.605 105.873C91.685 108.465 91.3675 111.373 95.205 112.968C95.4975 113.598 94.565 113.58 94.155 113.58C89.86 113.58 89.4375 108.453 86.5825 107.155C85.8775 106.835 85.9475 107.123 86.26 107.625C89.39 111.64 87.2225 112.663 92.2 115.14C93.63 115.853 92.6375 116.14 92.2 116.14C87.0975 116.14 86.0625 112.563 84.45 112.64C83.45 113.565 81.9975 114.74 80.755 114.74C80.3825 114.74 79.175 114.573 78.5825 114.573C75.715 114.573 74.2325 116.15 71.815 116.15C70.045 116.15 70.08 114.758 70.08 114.758C69.9582 114.294 69.8746 113.822 69.83 113.345C69.83 112.3 71.01 111.438 71.01 111.115C71.01 110.078 69.49 111.615 69.49 110.528C69.49 109.528 70.405 108.815 71.95 107.278C72.2 106.145 72.714 105.087 73.45 104.19C73.45 103.413 71.6325 104.473 69.4225 104.353C66.395 105.68 65.2725 104.938 65.8225 104.125C66.4575 103.18 67.275 101.75 67.275 98.9452C67.275 97.4127 66.66 97.4302 66.525 98.2327C65.4125 102.968 64.6475 104.093 62.07 104.443C61.2325 104.555 60.1725 104.895 60.85 106.11L63.955 111.728C64.29 112.338 62.915 115.438 63.38 115.438C63.845 115.438 66.15 112.913 65.295 111.16L62.6575 105.91C63.31 105.16 64.4675 105.66 65.1925 105.97C65.6525 107.22 66.395 108.928 66.9825 109.733C67.57 110.538 67.76 110.943 67.76 111.948C67.76 112.953 66.7725 114.353 65.99 115.625C65.2075 116.898 64.2125 116.968 62.2725 116.95C59.245 118.408 55.305 119.885 54.07 119.885C50.93 119.885 51.135 116.178 49.4725 116.178C49.1 116.178 48.1475 116.31 47.91 116.04C47.91 116.04 45.8475 112.725 45.8475 112.36C45.8475 111.61 47.0725 111.338 49.5975 111.338C52.0625 111.338 52.8225 116.385 54.975 116.385C57.1975 116.385 59.69 115.035 59.69 113.665C59.69 110.823 56.3875 109.53 54.295 107.873C51.9575 106.02 52.6325 104.05 51.8175 104.05C50.7425 104.05 51.6925 106.263 51.6925 106.785C51.6925 107.308 51.1525 107.58 50.1675 107.58C46.2475 107.58 45.53 106.755 43.06 106.755C40.905 106.755 40.0325 107.34 38.4175 107.34C33.895 107.34 35.6525 101.36 35.6525 99.8977C35.6525 99.7002 35.4025 99.4852 35.09 99.4852C34.565 99.4852 34.325 101.94 33.75 105.548C33.3275 107.42 31.03 111.695 24.3175 111.883C18.98 112.03 16.3175 113.768 14.855 116.238C14.645 116.518 14.9725 117.193 15.4925 116.56C16.965 115.093 19.4725 112.91 24.4925 113.06C29.8825 113.213 32.7425 111.358 34.8525 107.505C35.2425 107.505 35.5475 107.93 35.7975 108.19C35.7975 109.323 35.0925 109.783 34.6925 110.758C34.38 111.508 33.585 113.128 32.7775 113.355C30.875 113.875 29.7575 115.525 27.5275 115.525M169.11 133.158C169.11 150.57 136.675 178.58 99.745 178.58C62.815 178.58 30.385 150.58 30.385 133.158V116.073C31.135 115.665 31.8025 115.185 32.4925 114.858V133.153C32.4925 149.47 63.9225 176.463 99.7425 176.463C135.562 176.463 166.992 149.463 166.992 133.153V114.858C167.688 115.188 168.34 115.665 169.105 116.073L169.11 133.158ZM190.268 121.75C187.33 121.75 187.518 118.125 185.607 118.125C185.015 118.125 184.332 118.485 183.742 118.485C183.012 118.485 182.48 118.168 180.875 117.295C179.27 116.423 179.208 115 176.545 115C174.762 115 173.327 115.53 171.97 115.53C169.743 115.53 168.625 113.88 166.72 113.36C165.913 113.133 165.117 111.513 164.807 110.763C164.405 109.788 163.705 109.328 163.705 108.195C163.955 107.945 164.255 107.51 164.645 107.51C166.745 111.363 169.618 113.218 175.008 113.065C180.008 112.923 182.525 115.105 183.992 116.565C184.512 117.198 184.842 116.523 184.63 116.243C183.155 113.773 180.505 112.035 175.173 111.888C168.45 111.7 166.158 107.425 165.735 105.553C165.165 101.945 164.92 99.4902 164.395 99.4902C164.075 99.4902 163.83 99.7052 163.83 99.9027C163.83 101.365 165.58 107.345 161.068 107.345C159.458 107.345 158.58 106.76 156.43 106.76C153.95 106.76 153.235 107.585 149.312 107.585C148.337 107.585 147.792 107.318 147.792 106.79C147.792 106.263 148.742 104.055 147.667 104.055C146.852 104.055 147.522 106.025 145.185 107.878C143.098 109.535 139.792 110.828 139.792 113.67C139.792 115.04 142.292 116.39 144.51 116.39C146.662 116.39 147.427 111.343 149.887 111.343C152.427 111.343 153.637 111.623 153.637 112.365C153.637 112.73 151.58 116.045 151.58 116.045C151.33 116.315 150.38 116.183 150.012 116.183C148.35 116.183 148.555 119.89 145.415 119.89C144.182 119.89 140.245 118.413 137.217 116.955C135.275 116.973 134.27 116.9 133.495 115.63C132.72 114.36 131.75 112.955 131.75 111.95C131.75 110.945 131.935 110.538 132.523 109.735C133.11 108.933 133.857 107.235 134.318 105.973C135.04 105.663 136.2 105.153 136.852 105.913L134.215 111.163C133.36 112.913 135.64 115.44 136.135 115.44C136.63 115.44 135.215 112.34 135.55 111.73L138.66 106.113C139.335 104.898 138.277 104.558 137.44 104.445C134.863 104.095 134.098 102.97 132.988 98.2352C132.853 97.4327 132.238 97.4152 132.238 98.9477C132.238 101.753 133.05 103.183 133.69 104.128C134.24 104.94 133.117 105.683 130.09 104.355C127.875 104.475 126.062 103.415 126.062 104.193C126.801 105.088 127.315 106.146 127.562 107.28C129.107 108.815 130.023 109.53 130.023 110.53C130.023 111.608 128.503 110.08 128.503 111.118C128.503 111.44 129.682 112.303 129.682 113.348C129.638 113.825 129.554 114.297 129.432 114.76C129.432 114.76 129.467 116.153 127.698 116.153C125.285 116.153 123.798 114.575 120.93 114.575C120.332 114.575 119.13 114.743 118.757 114.743C117.507 114.743 116.05 113.568 115.062 112.643C113.457 112.575 112.418 116.143 107.312 116.143C106.875 116.143 105.887 115.845 107.312 115.143C112.29 112.665 110.123 111.643 113.253 107.628C113.562 107.128 113.64 106.838 112.935 107.158C110.075 108.455 109.65 113.583 105.357 113.583C104.942 113.583 104.018 113.6 104.308 112.97C108.143 111.373 107.823 108.47 110.908 105.875C114.03 98.7327 113.33 92.9952 115.335 90.1652C119.82 84.0152 120.835 82.8202 123.607 80.5102C126.38 78.2002 131.183 73.4952 134.788 73.4952C139.385 73.4952 140.13 76.2452 145.325 77.6577C150.175 78.9677 150.488 80.0577 152.042 81.5652C153.597 83.0727 154.58 82.6827 155.265 82.6527C160.285 82.5677 161.715 87.6527 166.305 88.1802C175.162 88.3852 177.455 95.7527 184.072 95.7527C184.68 95.7663 185.285 95.6587 185.85 95.4362C186.416 95.2136 186.931 94.8806 187.367 94.4565C187.802 94.0324 188.149 93.5258 188.386 92.9663C188.624 92.4068 188.747 91.8055 188.75 91.1977C188.75 85.8077 180.87 84.3427 180.87 79.7727C180.87 76.8877 183.293 75.9002 186.398 75.3677C189.503 74.8352 191.872 72.8377 191.872 72.8377C192.237 73.4181 192.442 74.085 192.465 74.7702C192.465 77.4502 190.257 80.1977 186.37 80.1977C185.305 80.1977 184.395 80.3652 184.395 81.1227C184.395 83.3227 191.512 84.9827 191.512 91.2327C191.512 94.7677 188.743 98.5252 183.72 98.5252C181.685 98.5252 180.292 97.8852 179.72 97.8852C179.22 97.8852 179.22 98.4652 179.22 100.493C179.22 102.898 178.27 104.758 177.863 105.808C177.455 106.858 178.82 107.635 181.113 108.67C183.342 108.88 184.18 108.353 184.962 110.515C185.692 112.538 185.502 113.2 189.102 115.203C189.102 115.203 190.15 117.453 191.962 117.508C191.962 117.508 193.105 118.9 193.262 121.278C192.227 121.343 191.485 121.743 190.262 121.743M193.5 115.21C193.5 115.628 192.833 116.06 192.163 116.06C191.115 116.06 190.325 114.668 189.54 113.35C189.54 113.35 189.982 112.388 190.518 112.388C191.322 112.388 191.312 112.965 193.03 113.965C193.61 114.3 193.5 114.78 193.5 115.215M194.83 121.408C194.243 119.08 193.693 117.823 193.693 117.315C193.693 117.095 194.735 116.083 195.122 116.083C196.497 116.873 196.35 117.555 196.48 119.045C196.548 119.81 197.193 120.098 197.193 120.613C197.193 120.975 194.83 121.408 194.83 121.408Z" fill="white"/>
<path d="M119.597 109.22C119.305 109.22 119.012 109.24 119.012 109.915C119.012 111.273 119.417 111.535 121.032 111.535C121.677 111.535 121.817 111.37 121.817 111.255C121.817 110.848 120.727 109.22 119.597 109.22Z" fill="white"/>
<path d="M133.645 83.5679C132.51 83.5679 131.042 86.6979 132.002 89.9254L132.252 89.9579C133.002 85.2079 134.252 85.2804 134.252 84.2254C134.258 84.1404 134.246 84.0552 134.217 83.975C134.188 83.8949 134.142 83.8217 134.084 83.7599C134.025 83.6982 133.954 83.6492 133.876 83.6162C133.797 83.5832 133.713 83.5667 133.627 83.5679" fill="white"/>
<path d="M120.928 100.483C121.19 99.8604 120.898 99.1779 120.623 98.7329C119.725 97.2754 119.73 96.2529 119.09 96.2529C118.02 96.2529 117.93 97.2929 116.998 98.3329C116.065 99.3729 115.478 100.553 115.478 101.468C115.478 102.383 115.753 103.43 116.118 103.43C116.645 103.43 116.47 102.86 116.553 102.18C116.723 100.888 118.128 98.9904 119.078 98.9904C119.915 98.9904 120.705 100.63 120.928 100.49" fill="white"/>
<path d="M114.665 64.8326C114.975 66.2153 115.131 67.628 115.13 69.0451C115.13 69.2126 115.112 69.3726 115.112 69.5451C115.267 70.4951 115.467 72.6251 115.18 76.5001C114.531 76.8501 113.863 77.1648 113.18 77.4426C111.601 80.672 109.147 83.3928 106.097 85.2951L107.395 88.9401C104.5 90.6576 101 91.5551 101 91.5551C97.35 90.7601 95.25 89.1726 95.25 89.1726L95.96 88.1726C93.4799 88.1777 91.0232 87.6943 88.73 86.7501L89.115 87.3776L88.3975 87.9576C91.6431 90.6653 95.7503 92.1227 99.9767 92.0664C104.203 92.0101 108.27 90.4438 111.442 87.6507C114.615 84.8575 116.683 81.0217 117.274 76.8364C117.865 72.6511 116.94 68.3925 114.665 64.8301" fill="#C1C5C7"/>
<path d="M129.89 105.665C129.388 105.673 128.887 105.64 128.39 105.568C128.52 105.892 128.624 106.227 128.7 106.568C129.503 107.46 130.663 108.263 131.11 109.465C131.61 108.795 132.183 107.645 132.738 106.385C132.025 106.385 131.075 106.15 129.885 105.668" fill="#FFC72C"/>
<path d="M66.75 106.383C67.3025 107.633 67.87 108.793 68.3775 109.463C68.8225 108.26 69.9825 107.463 70.785 106.565C70.8658 106.226 70.9693 105.891 71.095 105.565C70.5987 105.641 70.0969 105.673 69.595 105.663C68.405 106.145 67.455 106.373 66.74 106.38" fill="#FFC72C"/>
<path d="M120.915 115.88L118.742 116.05C117.577 116.05 116.292 115.407 114.782 114.122C112.782 115.695 111.45 117.455 107.3 117.455C105.02 117.455 105.05 115.492 105.55 114.865C103.605 115.212 102.212 113.783 103.312 111.945C106.777 110.927 106.757 107.738 109.772 105.12C112.925 97.5825 111.755 92.71 114.25 89.39C118.95 83.14 119.895 81.87 122.75 79.49C126.392 76.3975 127.202 75.6075 129.897 73.88C125.681 67.6725 119.656 62.9136 112.64 60.25C115.482 62.84 117.477 66.2259 118.367 69.9665C119.256 73.707 118.998 77.6288 117.627 81.2207C116.255 84.8126 113.833 87.908 110.677 90.1037C107.521 92.2994 103.777 93.4935 99.9319 93.5304C96.0872 93.5673 92.3206 92.4453 89.1228 90.3106C85.925 88.1758 83.4444 85.1274 82.0041 81.5625C80.5639 77.9976 80.2308 74.0815 81.0484 70.3246C81.8659 66.5677 83.7961 63.1441 86.5875 60.5C86.5 60.5 86.42 60.475 86.3375 60.4625C79.5425 63.1577 73.7133 67.8312 69.605 73.8775C72.295 75.605 73.105 76.395 76.7475 79.4875C79.6125 81.8675 80.5525 83.1325 85.2475 89.3875C87.7475 92.7075 86.5825 97.58 89.7275 105.118C92.7425 107.735 92.7275 110.925 96.185 111.942C97.295 113.78 95.8975 115.21 93.9525 114.863C94.4525 115.49 94.485 117.452 92.2025 117.452C88.0575 117.452 86.7175 115.703 84.7225 114.12C83.2225 115.405 81.935 116.048 80.765 116.048L78.5925 115.878C76.2 115.878 74.3075 117.452 71.825 117.452C71.7411 117.448 71.6576 117.438 71.575 117.423C74.9917 121.595 79.2922 124.956 84.1658 127.264C89.0395 129.572 94.3649 130.77 99.7575 130.77C105.15 130.77 110.475 129.572 115.349 127.264C120.223 124.956 124.523 121.595 127.94 117.423C127.857 117.438 127.774 117.448 127.69 117.452C125.205 117.452 123.315 115.878 120.922 115.878" fill="#FFC72C"/>
<path d="M47.25 37.4403H50.6025C51.5891 37.4403 52.5353 37.8322 53.233 38.5299C53.9306 39.2275 54.3225 40.1737 54.3225 41.1603C54.3225 42.1469 53.9306 43.0931 53.233 43.7907C52.5353 44.4884 51.5891 44.8803 50.6025 44.8803H48.94V51.2503L54.645 60.1228H61.035L53.8625 48.9503C55.5603 48.4765 57.0549 47.4568 58.1154 46.0488C59.1759 44.6409 59.7433 42.9229 59.73 41.1603C59.73 36.7153 56.2075 33.1128 51.8625 33.1128H41.77V60.1128H47.25V37.4403Z" fill="#B91F31"/>
<path d="M114.862 60.1128C119.252 60.1128 122.812 56.4753 122.812 51.9778C122.845 50.5814 122.454 49.2078 121.692 48.0372C120.93 46.8666 119.832 45.9536 118.542 45.4178C119.195 44.8071 119.71 44.0652 120.055 43.2408C120.4 42.4165 120.566 41.5285 120.542 40.6353C120.542 36.4778 117.252 33.1128 113.19 33.1128H103.142V55.5528C106.619 56.1751 109.853 57.7542 112.482 60.1128H114.862ZM108.625 37.4403H111.942C112.791 37.4403 113.605 37.7774 114.205 38.3776C114.805 38.9777 115.142 39.7916 115.142 40.6403C115.142 41.489 114.805 42.3029 114.205 42.903C113.605 43.5032 112.791 43.8403 111.942 43.8403H111.272V48.1703H113.605C114.614 48.1703 115.582 48.5712 116.295 49.2848C117.009 49.9983 117.41 50.9661 117.41 51.9753C117.41 52.9844 117.009 53.9523 116.295 54.6658C115.582 55.3794 114.614 55.7803 113.605 55.7803H108.625V37.4403Z" fill="#B91F31"/>
<path d="M157.732 31.7275H152.922V60.1125H157.732V31.7275Z" fill="#B91F31"/>
<path d="M148.388 31.7275H143.578V60.1125H148.388V31.7275Z" fill="#B91F31"/>
<path d="M132.18 60.5805C136.702 60.5805 140.365 56.8304 140.365 52.1979V43.2729H135.565V52.5229C135.565 53.4207 135.208 54.2817 134.574 54.9165C133.939 55.5513 133.078 55.908 132.18 55.908C131.282 55.908 130.421 55.5513 129.786 54.9165C129.152 54.2817 128.795 53.4207 128.795 52.5229V43.2729H124V52.1979C124 56.8254 127.668 60.5805 132.19 60.5805" fill="#B91F31"/>
<path d="M68.5 60.575C69.9925 60.5697 71.4593 60.1865 72.7638 59.4613C74.0682 58.7361 75.1678 57.6924 75.96 56.4275L72.31 54.0125C71.525 55.5 70.1125 56.5 68.5 56.5C66.29 56.5 64.46 54.6575 64.125 52.25H77.375C77.3975 52 77.41 51.73 77.41 51.4675C77.41 46.4325 73.4275 42.3525 68.51 42.3525C63.5925 42.3525 59.6075 46.4325 59.6075 51.4675C59.6075 56.5025 63.5675 60.575 68.5 60.575ZM68.5 46.4375C70.2625 46.4375 71.7825 47.6 72.5 49.2975H64.5C65.2125 47.6 66.7325 46.4375 68.5 46.4375Z" fill="#B91F31"/>
<path d="M92.08 44.1127C91.405 43.4052 90.005 42.3427 87.655 42.3427C82.75 42.3427 78.75 46.4277 78.75 51.4627C78.75 56.0352 82.035 59.8052 86.325 60.4627C86.41 60.4752 86.4925 60.4927 86.575 60.5077C89.4093 57.8079 93.0084 56.0494 96.88 55.4727V31.7227H92.08V44.1127ZM87.655 56.4852C85.215 56.4852 83.235 54.2352 83.235 51.4627C83.235 48.6902 85.215 46.4377 87.655 46.4377C90.095 46.4377 92.08 48.6877 92.08 51.4627C92.08 54.2377 90.1 56.4852 87.655 56.4852Z" fill="#B91F31"/>
<path d="M55.36 115.04C56.6225 115.04 57.77 114.29 57.77 113.913C57.77 113.535 57.17 113 57.0475 112.07C56.925 111.14 56.4175 111.07 56.19 111.07C55.9625 111.07 54.4725 111.263 53.5475 111.263C52.6225 111.263 52.44 111.728 53.205 112.148C54.2275 112.71 54.3425 115.038 55.36 115.038" fill="#B91F31"/>
<path d="M7.34246 116.06C8.38996 116.06 9.17995 114.668 9.96245 113.35C9.96245 113.35 9.51996 112.393 8.98746 112.393C8.17996 112.393 8.19245 112.963 6.47495 113.965C5.88995 114.3 6.00245 114.78 6.00245 115.215C6.00245 115.65 6.66746 116.07 7.34246 116.07" fill="#B91F31"/>
<path d="M4.37744 116.078C3.00744 116.87 3.15744 117.55 3.02494 119.045C2.95494 119.808 2.31494 120.098 2.31494 120.613C2.31494 120.973 4.66994 121.403 4.66994 121.403C5.25744 119.075 5.80744 117.815 5.80744 117.31C5.80744 117.095 4.76744 116.078 4.37744 116.078Z" fill="#B91F31"/>
<path d="M88.6075 105.863C85.4825 98.7203 86.1875 92.9828 84.18 90.1528C79.6975 84.0053 78.68 82.8078 75.905 80.4978C73.13 78.1878 68.33 73.4828 64.73 73.4828C60.125 73.4828 59.3825 76.2328 54.19 77.6453C49.3375 78.9603 49.025 80.0503 47.47 81.5528C45.915 83.0553 44.93 82.6753 44.2525 82.6403C39.2275 82.5578 37.8025 87.6403 33.205 88.1678C24.355 88.3728 22.0575 95.7428 15.455 95.7428C14.8456 95.7602 14.239 95.6555 13.6706 95.4351C13.1023 95.2147 12.5837 94.8829 12.1454 94.4593C11.7071 94.0356 11.3579 93.5287 11.1182 92.9682C10.8786 92.4077 10.7534 91.8049 10.75 91.1953C10.75 85.8103 18.635 84.3453 18.635 79.7703C18.635 76.8853 16.2075 75.9028 13.1075 75.3653C10.0075 74.8278 7.62999 72.8403 7.62999 72.8403C7.265 73.4207 7.06054 74.0876 7.03749 74.7728C7.03749 77.4478 9.24248 80.2003 13.1275 80.2003C14.1975 80.2003 15.105 80.3678 15.105 81.1203C15.105 83.3178 7.98249 84.9803 7.98249 91.2253C7.98249 94.7653 10.7575 98.5278 15.7775 98.5278C17.815 98.5278 19.21 97.8878 19.7775 97.8878C20.2925 97.8878 20.2775 98.4653 20.2775 100.49C20.2775 102.898 21.2275 104.758 21.635 105.815C22.0425 106.873 20.6725 107.635 18.385 108.67C16.1525 108.88 15.31 108.353 14.5325 110.513C13.8025 112.535 13.995 113.198 10.3925 115.198C10.3925 115.198 9.34999 117.448 7.53249 117.505C6.7467 118.61 6.2962 119.918 6.23499 121.273C7.24999 121.35 7.99999 121.75 9.23249 121.75C12.175 121.75 11.9825 118.12 13.8925 118.12C14.485 118.12 15.1675 118.485 15.76 118.485C16.4875 118.485 17.01 118.168 18.625 117.295C20.24 116.423 20.2925 115 22.955 115C24.7375 115 26.17 115.533 27.5325 115.533C29.7575 115.533 30.87 113.885 32.7825 113.365C33.59 113.138 34.385 111.518 34.6975 110.758C35.0975 109.79 35.8025 109.328 35.8025 108.193C35.5525 107.943 35.2475 107.51 34.8575 107.51C32.75 111.36 29.8775 113.205 24.5 113.053C19.5 112.915 16.985 115.095 15.5 116.565C14.985 117.193 14.65 116.523 14.865 116.238C16.3375 113.768 18.9875 112.033 24.3275 111.888C31.04 111.698 33.3425 107.425 33.7575 105.548C34.33 101.94 34.575 99.4878 35.0975 99.4878C35.42 99.4878 35.665 99.7028 35.665 99.9003C35.665 101.365 33.915 107.34 38.415 107.34C40.03 107.34 40.9 106.755 43.0575 106.755C45.5275 106.755 46.2425 107.585 50.17 107.585C51.1475 107.585 51.69 107.313 51.69 106.785C51.69 106.258 50.74 104.058 51.815 104.058C52.63 104.058 51.965 106.025 54.2925 107.873C56.3825 109.533 59.685 110.828 59.685 113.67C59.685 115.035 57.185 116.388 54.975 116.388C52.8225 116.388 52.0575 111.343 49.5925 111.343C47.06 111.343 45.8425 111.618 45.8425 112.36C45.8425 112.73 47.905 116.045 47.905 116.045C48.14 116.315 49.0975 116.188 49.4675 116.188C51.13 116.188 50.925 119.888 54.0625 119.888C55.295 119.888 59.2375 118.408 62.2625 116.95C64.2075 116.968 65.2075 116.9 65.985 115.628C66.7625 114.355 67.75 112.958 67.75 111.948C67.75 110.938 67.57 110.535 66.9775 109.735C66.385 108.935 65.6425 107.235 65.1825 105.973C64.46 105.665 63.3 105.15 62.6475 105.91L65.285 111.16C66.14 112.91 63.86 115.438 63.37 115.438C62.88 115.438 64.2875 112.333 63.95 111.728L60.84 106.11C60.165 104.893 61.2225 104.555 62.06 104.438C64.635 104.085 65.4 102.965 66.5125 98.2278C66.6425 97.4303 67.2625 97.4128 67.2625 98.9403C67.2625 101.745 66.4525 103.175 65.8125 104.12C65.2625 104.938 66.3825 105.68 69.41 104.353C71.6275 104.468 73.445 103.408 73.445 104.19C72.7069 105.086 72.1927 106.144 71.945 107.278C70.4025 108.81 69.4875 109.528 69.4875 110.528C69.4875 111.605 71.005 110.08 71.005 111.115C71.005 111.438 69.8225 112.305 69.8225 113.35C69.8679 113.827 69.9515 114.299 70.0725 114.763C70.0725 114.763 70.0425 116.15 71.8225 116.15C74.2325 116.15 75.7175 114.578 78.5875 114.578C79.18 114.578 80.3875 114.745 80.765 114.745C82.015 114.745 83.465 113.565 84.455 112.645C86.065 112.58 87.1 116.145 92.205 116.145C92.6425 116.145 93.635 115.85 92.205 115.145C87.23 112.668 89.395 111.645 86.265 107.628C85.955 107.128 85.8775 106.838 86.5875 107.155C89.4425 108.458 89.8675 113.58 94.1575 113.58C94.575 113.58 95.5025 113.598 95.21 112.97C91.37 111.373 91.6925 108.47 88.6125 105.873M67.5 89.9278L67.2375 89.9578C66.5 85.2078 65.2375 85.2803 65.2375 84.2253C65.232 84.1405 65.244 84.0555 65.2729 83.9755C65.3018 83.8956 65.3468 83.8225 65.4053 83.7608C65.4637 83.699 65.5343 83.65 65.6125 83.6169C65.6907 83.5837 65.775 83.567 65.86 83.5678C66.995 83.5678 68.4675 86.6978 67.5 89.9278ZM78.47 111.54C77.825 111.54 77.6925 111.373 77.6925 111.253C77.6925 110.848 78.7775 109.22 79.905 109.22C80.205 109.22 80.4875 109.243 80.4875 109.915C80.4875 111.27 80.085 111.54 78.47 111.54ZM83.3875 103.44C82.8575 103.44 83.04 102.865 82.95 102.19C82.78 100.893 81.38 99.0003 80.4275 99.0003C79.59 99.0003 78.8 100.64 78.5775 100.5C78.315 99.8828 78.61 99.1978 78.8825 98.7503C79.78 97.2928 79.78 96.2703 80.415 96.2703C81.485 96.2703 81.575 97.3103 82.51 98.3553C83.445 99.4003 84.0225 100.57 84.0225 101.49C84.0225 102.41 83.7525 103.453 83.3875 103.453" fill="#B91F31"/>
<path d="M143.307 111.073C143.08 111.073 142.557 111.133 142.452 112.073C142.347 113.013 141.735 113.538 141.735 113.92C141.735 114.303 142.877 115.048 144.137 115.048C145.157 115.048 145.27 112.72 146.292 112.158C147.057 111.738 146.877 111.273 145.952 111.273C145.027 111.273 143.535 111.08 143.307 111.08" fill="#B91F31"/>
<path d="M193.027 113.963C191.31 112.963 191.32 112.39 190.515 112.39C189.98 112.39 189.537 113.348 189.537 113.348C190.322 114.668 191.112 116.058 192.16 116.058C192.83 116.058 193.497 115.63 193.497 115.203C193.497 114.775 193.607 114.298 193.027 113.953" fill="#B91F31"/>
<path d="M196.477 119.043C196.347 117.543 196.497 116.868 195.122 116.078C194.732 116.078 193.693 117.098 193.693 117.31C193.693 117.81 194.238 119.075 194.83 121.405C194.83 121.405 197.19 120.97 197.19 120.61C197.19 120.095 196.545 119.81 196.477 119.043Z" fill="#B91F31"/>
<path d="M189.11 115.2C185.51 113.2 185.7 112.538 184.97 110.515C184.192 108.35 183.355 108.878 181.122 108.668C178.832 107.633 177.462 106.873 177.872 105.813C178.282 104.753 179.235 102.9 179.235 100.49C179.235 98.4628 179.217 97.8878 179.735 97.8878C180.312 97.8878 181.702 98.5278 183.735 98.5278C188.755 98.5278 191.53 94.7653 191.53 91.2278C191.53 84.9778 184.412 83.3203 184.412 81.1178C184.412 80.3678 185.322 80.2028 186.387 80.2028C190.27 80.2028 192.482 77.4528 192.482 74.7728C192.459 74.087 192.253 73.4198 191.885 72.8403C191.885 72.8403 189.51 74.8403 186.41 75.3653C183.31 75.8903 180.882 76.8878 180.882 79.7728C180.882 84.3428 188.762 85.8078 188.762 91.1978C188.76 91.8075 188.636 92.4105 188.397 92.9714C188.158 93.5323 187.809 94.0398 187.371 94.464C186.933 94.8882 186.415 95.2205 185.847 95.4414C185.279 95.6623 184.672 95.7673 184.062 95.7503C177.445 95.7503 175.147 88.3803 166.295 88.1728C161.7 87.6403 160.27 82.5603 155.255 82.6478C154.567 82.6803 153.587 83.0728 152.032 81.5603C150.477 80.0478 150.16 78.9628 145.312 77.6528C140.115 76.2478 139.372 73.4903 134.772 73.4903C131.17 73.4903 126.372 78.1978 123.592 80.5028C120.812 82.8078 119.81 84.0028 115.325 90.1578C113.325 92.9878 114.015 98.7253 110.892 105.868C107.815 108.468 108.142 111.368 104.292 112.963C104.005 113.595 104.932 113.578 105.345 113.578C109.64 113.578 110.06 108.455 112.92 107.153C113.625 106.835 113.552 107.115 113.237 107.62C110.112 111.635 112.28 112.658 107.302 115.138C105.872 115.85 106.86 116.15 107.302 116.15C112.4 116.15 113.44 112.578 115.052 112.638C116.052 113.56 117.502 114.743 118.75 114.743C119.117 114.743 120.325 114.57 120.917 114.57C123.787 114.57 125.272 116.145 127.69 116.145C129.46 116.145 129.422 114.755 129.422 114.755C129.544 114.291 129.628 113.818 129.672 113.34C129.672 112.298 128.49 111.435 128.49 111.113C128.49 110.078 130.015 111.613 130.015 110.525C130.015 109.525 129.1 108.815 127.55 107.275C127.302 106.143 126.788 105.085 126.05 104.19C126.05 103.41 127.862 104.47 130.075 104.355C133.102 105.678 134.222 104.933 133.672 104.123C133.037 103.178 132.222 101.748 132.222 98.9428C132.222 97.4103 132.835 97.4278 132.972 98.2303C134.087 102.963 134.852 104.088 137.425 104.44C138.262 104.553 139.325 104.895 138.645 106.11L135.54 111.723C135.205 112.333 136.585 115.438 136.12 115.438C135.655 115.438 133.345 112.913 134.2 111.16L136.837 105.91C136.185 105.16 135.03 105.66 134.307 105.975C133.845 107.225 133.1 108.93 132.512 109.725C131.925 110.52 131.75 110.948 131.75 111.95C131.75 112.953 132.737 114.358 133.52 115.63C134.302 116.903 135.302 116.97 137.242 116.953C140.27 118.408 144.21 119.89 145.442 119.89C148.585 119.89 148.375 116.183 150.042 116.183C150.41 116.183 151.365 116.318 151.605 116.043C151.605 116.043 153.662 112.73 153.662 112.36C153.662 111.61 152.442 111.343 149.912 111.343C147.45 111.343 146.687 116.385 144.54 116.385C142.31 116.385 139.82 115.038 139.82 113.673C139.82 110.823 143.122 109.535 145.212 107.873C147.55 106.023 146.875 104.055 147.692 104.055C148.77 104.055 147.815 106.263 147.815 106.788C147.815 107.313 148.362 107.585 149.34 107.585C153.265 107.585 153.98 106.758 156.452 106.758C158.605 106.758 159.48 107.34 161.09 107.34C165.612 107.34 163.857 101.363 163.857 99.8978C163.857 99.7053 164.107 99.4903 164.42 99.4903C164.942 99.4903 165.187 101.943 165.762 105.55C166.185 107.423 168.477 111.7 175.195 111.885C180.53 112.035 183.195 113.77 184.652 116.24C184.867 116.523 184.537 117.193 184.017 116.563C182.547 115.098 180.04 112.915 175.032 113.063C169.642 113.218 166.782 111.368 164.667 107.51C164.277 107.51 163.972 107.94 163.727 108.193C163.727 109.325 164.427 109.785 164.832 110.758C165.14 111.508 165.935 113.135 166.742 113.36C168.645 113.878 169.762 115.528 171.992 115.528C173.352 115.528 174.787 115 176.57 115C179.232 115 179.292 116.423 180.895 117.298C182.497 118.173 183.035 118.493 183.765 118.493C184.352 118.493 185.035 118.125 185.627 118.125C187.54 118.125 187.35 121.75 190.287 121.75C191.515 121.75 192.262 121.36 193.287 121.283C193.127 118.908 191.985 117.518 191.985 117.518C190.172 117.465 189.125 115.21 189.125 115.21M116.555 102.188C116.467 102.865 116.645 103.438 116.115 103.438C115.75 103.438 115.48 102.395 115.48 101.475C115.48 100.555 116.065 99.3803 116.995 98.3378C117.925 97.2953 118.022 96.2578 119.092 96.2578C119.727 96.2578 119.722 97.2803 120.625 98.7353C120.9 99.1778 121.187 99.8653 120.925 100.485C120.707 100.635 119.912 98.9978 119.08 98.9978C118.125 98.9978 116.722 100.893 116.555 102.19M121.032 111.54C119.417 111.54 119.015 111.273 119.015 109.915C119.015 109.243 119.302 109.22 119.6 109.22C120.725 109.22 121.815 110.848 121.815 111.255C121.815 111.373 121.677 111.54 121.032 111.54ZM132.265 89.9628L132.015 89.9278C131.052 86.6978 132.515 83.5728 133.66 83.5728C133.745 83.5716 133.829 83.588 133.907 83.6209C133.986 83.6538 134.056 83.7026 134.115 83.7641C134.173 83.8256 134.218 83.8986 134.247 83.9784C134.276 84.0582 134.288 84.1431 134.282 84.2278C134.282 85.2853 133.015 85.2128 132.282 89.9628" fill="#B91F31"/>
<path d="M30.39 87.1327C31.0853 86.9967 31.7897 86.9131 32.4975 86.8827V23.5827H167V86.8927C167.709 86.9235 168.414 87.0071 169.11 87.1427V21.4702H30.39V87.1327Z" fill="#182852"/>
<path d="M167 133.155C167 149.47 135.565 176.462 99.7499 176.462C63.9349 176.462 32.4999 149.462 32.4999 133.155V114.855C31.8074 115.18 31.1474 115.667 30.3824 116.07V133.155C30.3824 150.565 62.8174 178.572 99.7524 178.572C136.687 178.572 169.112 150.572 169.112 133.155V116.07C168.362 115.667 167.695 115.185 167.005 114.855L167 133.155Z" fill="#182852"/>
<path d="M166 86.8176V24.6001H33.5V86.8176C34.54 86.6251 35.8375 85.8001 37.4825 84.3701V28.5676H162.012V84.3701C163.658 85.8001 164.955 86.6201 165.99 86.8176" fill="#182852"/>
<path d="M33.5125 133.155C33.5125 149.088 64.47 175.45 99.7625 175.45C135.055 175.45 166 149.088 166 133.155V114.405C163.877 113.155 162.452 109.44 162.452 108.405C162.307 108.445 162.165 108.478 162.022 108.518V133.153C162.022 145.77 133.2 171.47 99.7724 171.47C66.3449 171.47 37.485 145.773 37.485 133.155V108.52C37.3475 108.48 37.1974 108.448 37.0574 108.408C37.0574 109.448 35.635 113.158 33.5125 114.408V133.155Z" fill="#182852"/>
<path d="M50.6499 145.583L69.4999 128.618L67.7399 126.663L55.8674 137.735L65.8849 124.603L64.2224 122.76L45.3774 139.728L47.1324 141.675L59.0049 130.605L48.9849 143.735L50.6499 145.583Z" fill="#182852"/>
<path d="M77.2176 137.75L78.7176 135.598L74.4051 132.578C73.8354 132.18 73.1314 132.023 72.4467 132.142C71.762 132.261 71.1521 132.646 70.7501 133.213L59.2226 149.683C59.0231 149.965 58.8815 150.284 58.806 150.622C58.7304 150.96 58.7224 151.309 58.7824 151.649C58.8423 151.99 58.9691 152.315 59.1553 152.607C59.3416 152.898 59.5836 153.15 59.8676 153.348L64.1701 156.348L65.6701 154.2L61.3676 151.18L66.3676 144.02L69.6001 146.285L71.1001 144.133L67.8726 141.87L72.8726 134.715L77.2176 137.75Z" fill="#182852"/>
<path d="M82.59 164.465L91.6475 140.75L89.125 139.89L82.95 157.405C83.8775 153.29 84.1475 150.418 84.68 147.56L82.6025 146.84C81.2625 149.425 79.7125 151.855 77.9125 155.67L83.8225 138.06L81.3 137.2L73.8525 161.45L76.1725 162.24L82.485 150.675L80.27 163.658L82.59 164.465Z" fill="#182852"/>
<path d="M110.565 150.72L109.315 140.498L106.707 140.815L108.095 152.133L105.485 152.455L104.092 141.143L101.49 141.455L102.74 151.683C103.077 154.46 105.8 155.063 105.8 155.063L107.185 166.313L109.79 166L108.412 154.75C108.412 154.75 110.912 153.553 110.565 150.73" fill="#182852"/>
<path d="M121.075 159.52C121.467 160.49 122.229 161.265 123.192 161.673C124.155 162.082 125.241 162.091 126.211 161.699C127.181 161.307 127.956 160.545 128.364 159.582C128.773 158.619 128.782 157.533 128.39 156.563L121.683 139.963C121.284 139.003 120.523 138.239 119.564 137.837C118.606 137.435 117.527 137.429 116.563 137.818C115.6 138.208 114.829 138.962 114.419 139.917C114.008 140.872 113.992 141.95 114.373 142.918L121.075 159.52ZM118.825 139.928L126.353 158.568L123.918 159.568L116.4 140.913L118.825 139.928Z" fill="#182852"/>
<path d="M141.893 150.155C142.323 150.662 142.865 151.061 143.478 151.32L145.628 149.69C144.958 149.4 144.413 149.14 143.988 148.575L138.903 141.825C137.958 140.575 137.21 140.468 136.553 140.658C136.85 139.993 137 139.295 136.27 138.338L131.438 131.925C131.231 131.647 130.971 131.413 130.674 131.235C130.376 131.058 130.046 130.942 129.703 130.894C129.36 130.845 129.011 130.865 128.675 130.952C128.34 131.04 128.026 131.193 127.75 131.403L123.555 134.57L138.805 154.82L140.9 153.24L134.06 144.158L136.16 142.578L141.893 150.155ZM132.5 142.063L127.25 135.085L129.355 133.505L134.605 140.483L132.5 142.063Z" fill="#182852"/>
<path d="M147.962 133.465C149.397 134.662 153.74 138.305 153.74 138.305C153.74 138.305 154.657 139.16 155.655 139.16L157.39 137.097C156.531 136.964 155.729 136.586 155.08 136.007L150.265 131.975C150.265 131.975 147.072 128.997 144.29 132.317C144.29 132.317 146.7 128.985 143.1 125.967L138.833 122.392C138.404 121.948 138.106 121.395 137.97 120.792L136.25 122.862C136.517 123.563 136.945 124.191 137.5 124.695L142.383 128.78C142.383 128.78 144.308 130.23 142.55 132.327L134.18 125.327L132.495 127.327L151.935 143.615L153.605 141.615L144.613 134.075C144.613 134.075 146.282 132.06 147.962 133.465Z" fill="#182852"/>
<path d="M107.39 88.9328L106.092 85.2828L105.908 84.7578L98.255 84.9653L95.955 88.1853L95.25 89.1728C95.25 89.1728 97.3525 90.7578 101 91.5528C101 91.5528 104.485 90.6553 107.38 88.9328" fill="#182852"/>
<path d="M115.182 76.5001C115.465 72.6226 115.267 70.5001 115.11 69.5426C115.081 69.3303 115.036 69.1206 114.975 68.9151C113.287 67.5376 109.702 65.8501 109.702 65.8501C108.422 67.716 107.28 69.6738 106.287 71.7076C107.837 74.9576 109.937 78.5026 109.937 78.5026C111.042 78.2328 112.124 77.8792 113.175 77.4451C113.86 77.17 114.528 76.8544 115.175 76.5001" fill="#182852"/>
<path d="M98.6649 71.8378C98.6649 71.8378 96.4574 68.3203 94.1524 65.6953C94.1524 65.6953 89.2899 67.8678 87.4949 68.8053C87.2756 71.4645 87.2999 74.1381 87.5674 76.7928C87.5674 76.7928 90.3924 77.7928 94.5324 78.7928C94.5324 78.7928 97.5999 73.9003 98.6649 71.8353" fill="#182852"/>
<path d="M82.635 69.8404L84.9325 66.6154L87.775 61.3379C85.2831 63.6206 83.499 66.5708 82.635 69.8379" fill="#182852"/>
<path d="M105.325 60.3904L106.305 57.9229C102.417 56.3843 98.1115 56.2622 94.1425 57.5779L97.53 60.2879C100.126 60.0894 102.735 60.1237 105.325 60.3904Z" fill="#182852"/>
<path d="M88.3975 87.96L89.115 87.38L88.7275 86.75L85.2625 81.1325L82.475 78.27C83.33 82.0634 85.4116 85.4691 88.3975 87.96Z" fill="#182852"/>
</svg>
