<svg width="200" height="200" viewBox="0 0 200 200" fill="none" xmlns="http://www.w3.org/2000/svg">
<path d="M165.622 26.9625C164.872 26.8825 164.062 26.795 163.188 26.675C149.938 24.845 142.763 19.425 135.16 13.675C126.883 7.42246 117.5 0.334961 100 0.334961C82.5 0.334961 73.1175 7.42246 64.84 13.6775C57.2375 19.4275 50.0575 24.8475 36.81 26.6775C35.9375 26.7975 35.135 26.885 34.375 26.965C31.375 27.285 23.4425 28.13 23.4425 36.5V118.45C23.4425 139.29 29.995 156.825 42.92 170.567C55.635 184.082 74.3725 193.767 98.6125 199.345L100 199.665L101.388 199.345C125.638 193.765 144.368 184.095 157.08 170.567C170.005 156.817 176.557 139.29 176.557 118.45V36.5C176.557 28.1275 168.615 27.2825 165.622 26.9625Z" fill="white"/>
<path d="M100 8.3877C85.1875 8.3877 77.6525 14.0802 69.675 20.1102C61.585 26.2227 53.2175 32.5427 37.8975 34.6577C36.9325 34.7902 36.0475 34.8877 35.21 34.9752C31.46 35.3752 31.46 35.6402 31.46 36.5227V118.5C31.46 137.233 37.28 152.918 48.76 165.123C60.2825 177.38 77.52 186.25 100 191.48C122.465 186.248 139.702 177.38 151.25 165.115C162.705 152.91 168.525 137.225 168.525 118.5V36.5227C168.525 35.6402 168.525 35.3752 164.775 34.9752C163.937 34.8877 163.055 34.7902 162.09 34.6577C146.767 32.5427 138.402 26.2227 130.312 20.1102C122.332 14.0802 114.797 8.3877 100 8.3877Z" fill="#EC1458"/>
<path d="M123.42 15.1652V183.9C116.392 186.95 108.58 189.478 99.985 191.483C77.5175 186.25 60.285 177.378 48.75 165.113C37.27 152.908 31.45 137.225 31.45 118.493V36.5252C31.45 35.6402 31.45 35.3727 35.2 34.9727C36.0375 34.8877 36.9199 34.7902 37.8849 34.6577C53.2049 32.5427 61.575 26.2177 69.66 20.1102C77.6425 14.0777 85.1725 8.3877 99.985 8.3877C110.58 8.3877 117.447 11.2952 123.42 15.1652Z" fill="#001544"/>
<path d="M118.14 38.2497C112.89 34.4172 107.283 32.4072 101.553 32.4072H101.2C89.7 32.4072 78.72 40.4422 70.2425 55.0447C64.6825 64.6047 48.94 94.9147 33.7225 124.237C33.135 125.377 32.5375 126.522 31.9425 127.667C32.5665 133.678 33.9847 139.579 36.16 145.217C54.08 111.25 76.2 69.5147 81.955 59.2347C88.32 47.8672 94.6575 42.4072 101.39 42.5172C108.075 42.3922 114.408 47.8672 120.773 59.2347C121.585 60.6822 122.718 62.7497 124.118 65.3297V43.5922C122.295 41.6296 120.294 39.841 118.14 38.2497Z" fill="#EC1458"/>
<path d="M44.3126 86.1999L49.6151 76.6074C43.4676 77.901 37.4007 79.5513 31.4451 81.5499V90.2999C35.6234 88.7999 39.8776 87.4908 44.2076 86.3724L44.3126 86.1999Z" fill="#EC1458"/>
<path d="M39.7501 95.2876C36.9434 96.1859 34.1717 97.1659 31.4351 98.2276V107.145C32.1851 106.833 32.9351 106.53 33.7001 106.23L39.7501 95.2876Z" fill="#EC1458"/>
<path d="M79.5601 83.2002C80.9067 83.1602 82.2617 83.1402 83.6251 83.1402C97.2981 83.1026 110.916 84.873 124.125 88.4052V79.8477C110.992 76.5207 97.4956 74.8411 83.9476 74.8477L79.5601 83.2002Z" fill="#EC1458"/>
<path d="M102.175 94.5001C96.2818 93.7568 90.3497 93.3636 84.41 93.3226C83.88 93.3101 83.3575 93.3101 82.82 93.3101C79.9 93.3101 76.995 93.3976 74.105 93.5726L69.605 102.138L69.4425 102.45L41.475 155.75C43.2451 158.551 45.2409 161.203 47.4425 163.68L79.9425 101.828C80.905 101.808 81.88 101.795 82.85 101.795C85.4025 101.795 87.93 101.853 90.4525 101.978L90.7225 101.995L90.4725 102.463L54.1525 170.25C56.4588 172.217 58.8798 174.045 61.4025 175.725L100.192 103.375L100.475 102.845C108.483 103.816 116.393 105.474 124.117 107.8V98.9476C117.716 97.1418 111.202 95.7638 104.617 94.8226C103.805 94.7051 103 94.6001 102.175 94.5001Z" fill="#EC1458"/>
<path d="M165.167 31.2949C164.447 31.2174 163.547 31.1224 162.6 30.9899C148.25 28.9999 140.277 22.9999 132.567 17.1624C124.45 11.0299 116.057 4.68994 100 4.68994C83.9425 4.68994 75.5475 11.0324 67.425 17.1699C59.72 22.9999 51.75 28.9999 37.4 30.9999C36.4425 31.1349 35.5475 31.2274 34.83 31.3049C31.6725 31.6399 27.74 32.0549 27.74 36.5549V118.5C27.74 138.207 33.9025 154.75 46.0525 167.67C58.2025 180.59 76.1825 189.82 99.58 195.205L99.9925 195.302L100.415 195.205C123.812 189.817 141.822 180.555 153.94 167.67C166.057 154.785 172.25 138.217 172.25 118.5V36.5524C172.25 32.0499 168.327 31.6299 165.167 31.2949ZM168.492 36.5449V118.5C168.492 137.22 162.677 152.895 151.205 165.09C139.68 177.34 122.455 186.21 100 191.437C77.55 186.21 60.3225 177.345 48.795 165.09C37.325 152.9 31.5 137.225 31.5 118.5V36.5524C31.5 35.6949 31.5 35.4349 35.22 35.0399C36.1375 34.9424 36.97 34.8499 37.9075 34.7224C53.2325 32.6049 61.6 26.2849 69.695 20.1699C77.6675 14.1449 85.195 8.45494 99.9925 8.45494C114.79 8.45494 122.317 14.1449 130.29 20.1699C138.382 26.2824 146.75 32.6049 162.077 34.7224C163.005 34.8499 163.842 34.9399 164.762 35.0399C168.5 35.4349 168.5 35.6949 168.5 36.5524L168.492 36.5449Z" fill="#001544"/>
<path d="M128.83 61.1701C128.83 50.9201 131.133 46.9951 138.998 46.9951H140.193C148.058 46.9951 150.36 50.9126 150.36 61.1701V64.1701C150.36 73.6501 148.36 77.6276 142.078 78.2851V69.1226C144.05 68.5551 144.44 67.3901 144.44 62.7851V62.5351C144.44 56.9126 143.245 56.1351 139.925 56.1351H139.25C135.96 56.1351 134.75 56.9126 134.75 62.5351V62.7851C134.75 67.3901 135.14 68.5551 137.113 69.1226V78.2751C130.835 77.6176 128.83 73.6401 128.83 64.1601V61.1701Z" fill="white"/>
<path d="M129.13 80.8252H150.062V89.7952H129.13V80.8252Z" fill="white"/>
<path d="M129.13 100.862H143.693V91.8623H150.062V118.832H143.693V109.832H129.13V100.862Z" fill="white"/>
<path d="M129.13 131.725H138.16L150.062 119.883V130.858L143.902 136.66V136.958L150.062 142.728V152.538L138.16 140.695H129.13V131.725Z" fill="white"/>
<path d="M157.873 66.2824C157.03 66.2824 156.643 66.9649 156.643 69.5624C156.643 71.7149 156.88 72.3649 157.508 72.3649C158.135 72.3649 158.283 71.9099 158.408 69.3224C158.568 65.8474 159.115 64.4699 160.908 64.4699C162.7 64.4699 163.22 66.2574 163.22 69.2424C163.22 72.2274 162.47 74.0724 160.498 74.0724V72.0224C161.375 72.0224 161.59 71.1449 161.59 69.0224C161.59 67.0074 161.398 66.5224 160.805 66.5224C160.213 66.5224 160.075 67.0024 159.94 69.3249C159.768 72.4699 159.598 74.4174 157.58 74.4174C155.45 74.4174 155.018 72.4024 155.018 69.4499C155.018 66.1824 155.575 64.2324 157.878 64.2324L157.873 66.2824Z" fill="white"/>
<path d="M161.383 84.7276V80.8551H155.133V78.8051H161.383V74.9326H163.1V84.7276H161.383Z" fill="white"/>
<path d="M156.847 99.3177H155.127V91.1152H163.1V93.1652H156.85L156.847 99.3177Z" fill="white"/>
<path d="M159.125 100.15C161.767 100.15 163.215 101.65 163.215 105.15C163.215 108.65 161.75 110.175 159.125 110.175C156.5 110.175 155.012 108.66 155.012 105.162C155.012 101.665 156.47 100.15 159.125 100.15ZM159.125 108.125C160.742 108.125 161.495 107.302 161.495 105.162C161.495 103.022 160.745 102.2 159.125 102.2C157.505 102.2 156.732 103.032 156.732 105.162C156.732 107.292 157.5 108.125 159.125 108.125Z" fill="white"/>
<path d="M155.012 116.267C155.012 112.767 156.345 111.255 159.125 111.255H163.1V113.305H159.125C158.01 113.305 156.732 113.612 156.732 116.267C156.732 118.922 158.02 119.23 159.125 119.23H163.1V121.28H159.125C156.357 121.28 155.012 119.765 155.012 116.267Z" fill="white"/>
<path d="M155.127 124.467V122.417H163.1V124.467H155.127Z" fill="white"/>
<path d="M157.873 127.55C157.03 127.55 156.643 128.235 156.643 130.832C156.643 132.985 156.88 133.635 157.508 133.635C158.135 133.635 158.283 133.177 158.408 130.592C158.568 127.117 159.115 125.74 160.908 125.74C162.7 125.74 163.22 127.527 163.22 130.512C163.22 133.497 162.47 135.342 160.498 135.342V133.292C161.375 133.292 161.59 132.415 161.59 130.292C161.59 128.275 161.398 127.792 160.805 127.792C160.213 127.792 160.075 128.27 159.94 130.595C159.768 133.74 159.598 135.687 157.58 135.687C155.45 135.687 155.018 133.67 155.018 130.72C155.018 127.45 155.575 125.502 157.878 125.502L157.873 127.55Z" fill="white"/>
<path d="M89.96 170.337C89.96 171.285 90.7325 171.722 93.6575 171.722C96.085 171.722 96.815 171.452 96.815 170.747C96.815 169.997 96.3025 169.872 93.3875 169.732C89.4725 169.552 87.92 168.937 87.92 166.922C87.92 164.907 89.935 164.315 93.3 164.315C96.665 164.315 98.75 165.162 98.75 167.385H96.4375C96.4375 166.385 95.4375 166.152 93.05 166.152C90.7775 166.152 90.2375 166.37 90.2375 167.037C90.2375 167.705 90.7775 167.857 93.395 168.012C96.94 168.205 99.145 168.397 99.145 170.67C99.145 173.07 96.8725 173.557 93.5475 173.557C89.8625 173.557 87.6675 172.93 87.6675 170.337H89.96Z" fill="white"/>
<path d="M106.327 164.315C109.907 164.315 111.705 165.675 111.935 168.27H109.587C109.37 166.817 108.252 166.252 106.337 166.252C103.987 166.252 102.997 167.087 102.997 168.922C102.997 170.757 103.997 171.62 106.337 171.62C108.25 171.62 109.38 171.042 109.587 169.577H111.935C111.705 172.185 109.907 173.557 106.327 173.557C102.372 173.557 100.677 171.915 100.677 168.922C100.677 165.93 102.372 164.315 106.327 164.315Z" fill="white"/>
</svg>
