<svg width="200" height="200" viewBox="0 0 200 200" fill="none" xmlns="http://www.w3.org/2000/svg">
<path d="M100 4.605L117.125 33.265L125.5 19.25L174 100.38L126.195 180.342L117.592 165.952L100 195.39L82.4025 165.952L73.8 180.342L26.0125 100.38L74.5 19.25L82.88 33.2625L100 4.605ZM100 0L97.97 3.4L82.87 28.6625L76.5175 18.04L74.5 14.64L72.4725 18.04L23.9825 99.165L23.25 100.38L23.975 101.585L71.7725 181.553L73.8 184.947L75.8275 181.553L82.4025 170.553L97.965 196.598L100 200L102.03 196.607L117.6 170.557L124.175 181.557L126.207 184.945L128.23 181.557L176.025 101.582L176.75 100.378L176.025 99.1625L127.525 18.0375L125.5 14.6475L123.47 18.04L117.125 28.6625L102.027 3.4L100 0Z" fill="#98989A"/>
<path d="M82.4024 165.952L99.9924 195.39L117.592 165.952L126.195 180.342L173.987 100.38L125.502 19.25L117.125 33.265L100 4.60498L82.87 33.265L74.4899 19.25L26.0125 100.38L73.8 180.342L82.4024 165.952Z" fill="#12284C"/>
<path d="M149.018 114.138L126.195 152.315L124.1 148.798L118.72 157.798L126.195 170.298L159.765 114.138H149.018ZM73.8 152.315L51 114.138H40.25L73.8 170.3L81.28 157.8L75.9 148.8L73.8 152.315ZM131.812 114.138L100 167.355L68.19 114.138H57.44L100 185.345L142.562 114.138H131.812Z" fill="#8AB7E9"/>
<path d="M40.25 86.6123H50.7125L74.5 46.8123L76.545 50.2248L81.7775 41.4748L74.5 29.2998L40.25 86.6123ZM125.5 29.2998L118.225 41.4723L123.475 50.2223L125.5 46.8123L149.288 86.6123H159.75L125.5 29.2998Z" fill="white"/>
<path d="M75.1476 73.7525L100 32.165L124.855 73.7525H135.325L100 14.6475L64.6801 73.7525H75.1476Z" fill="white"/>
<path d="M35.1324 92.75H38.7874L41.2174 102.5H41.2499L44.4349 92.75H47.5549L50.7174 102.75H50.7499L53.3149 92.75H56.7149L52.2649 107.963H49.2774L45.9249 97.43H45.8774L42.5274 107.96H39.6474L35.1324 92.75Z" fill="white"/>
<path d="M58.33 92.75H61.685V98.4225H68.2V92.75H71.5525V107.963H68.2V101.39H61.685V107.96H58.33V92.75Z" fill="white"/>
<path d="M75.2075 92.75H78.5575V107.963H75.2075V92.75Z" fill="white"/>
<path d="M85.3975 95.71H81.0575V92.75H93.0925V95.7125H88.75V107.963H85.3975V95.71Z" fill="white"/>
<path d="M95.7125 92.75H106.055V95.8475H99.055V98.6875H104.22V101.775H99.0675V104.868H106.438V107.96H95.7125V92.75Z" fill="white"/>
<path d="M118.63 96.7001C117.963 95.9076 116.995 95.4501 115.748 95.4501C113.213 95.4501 111.34 97.5152 111.34 100.35C111.34 103.185 113.213 105.25 115.64 105.25C116.259 105.267 116.872 105.126 117.421 104.84C117.97 104.554 118.437 104.132 118.778 103.615L121.573 105.7C120.303 107.505 118.158 108.348 116.073 108.348C111.323 108.348 107.863 105.225 107.863 100.348C107.863 95.4702 111.32 92.3477 116.073 92.3477C117.773 92.3477 119.923 92.9302 121.21 94.5777L118.63 96.7001Z" fill="white"/>
<path d="M128.473 92.75H131.25L137.875 107.963H134.085L132.773 104.75H126.858L125.593 107.97H121.895L128.473 92.75ZM129.763 97.175L127.915 101.908H131.633L129.763 97.175Z" fill="white"/>
<path d="M139.377 92.75H145.03C148.192 92.75 150.81 93.75 150.81 97.3725C150.81 100.937 148.38 102.037 145.182 102.037H142.73V107.963H139.377V92.75ZM142.73 99.1975H144.98C146.157 99.1975 147.345 98.7925 147.345 97.3725C147.345 95.7975 145.752 95.5825 144.462 95.5825H142.742L142.73 99.1975Z" fill="white"/>
<path d="M160.87 96.46C160.333 95.7775 159.255 95.46 158.44 95.46C157.495 95.46 156.19 95.885 156.19 97.0275C156.19 99.8 163.19 98.0275 163.19 103.347C163.19 106.745 160.46 108.347 157.32 108.347C155.368 108.347 153.645 107.77 152.208 106.437L154.59 103.812C154.937 104.258 155.381 104.619 155.888 104.868C156.395 105.117 156.953 105.248 157.518 105.25C158.61 105.25 159.838 104.735 159.838 103.657C159.838 100.867 152.698 102.372 152.698 97.2975C152.698 94.0475 155.518 92.355 158.505 92.355C160.223 92.355 161.878 92.8025 163.168 93.94L160.87 96.46Z" fill="white"/>
<path d="M87.6851 114.05H97.8951V117.142H91.0401V120.25H95.9451V123.35H91.0401V129.28H87.6851V114.05Z" fill="white"/>
<path d="M109.18 118C108.515 117.208 107.545 116.75 106.297 116.75C103.765 116.75 101.892 118.815 101.892 121.648C101.892 124.48 103.765 126.553 106.19 126.553C106.81 126.568 107.424 126.426 107.974 126.139C108.523 125.852 108.991 125.43 109.332 124.913L112.125 127.003C110.857 128.81 108.707 129.645 106.625 129.645C101.875 129.645 98.4125 126.53 98.4125 121.645C98.4125 116.76 101.872 113.645 106.625 113.645C108.32 113.645 110.47 114.223 111.762 115.878L109.18 118Z" fill="white"/>
<path d="M61 77.9702H63.1875L65.3375 83.6677H65.36L67.545 77.9702H69.595L66 86.6677H64.4625L61 77.9702Z" fill="white"/>
<path d="M72.025 77.9702H73.6075L77.3925 86.6677H75.2325L74.4825 84.8252H71.1025L70.3825 86.6677H68.2675L72.025 77.9702ZM72.7625 80.5002L71.705 83.2027H73.8325L72.7625 80.5002Z" fill="white"/>
<path d="M78.4375 77.9702H81.045L84.75 84.0127H84.7775V77.9702H86.695V86.6677H84.195L80.3975 80.4777H80.375V86.6677H78.4575L78.4375 77.9702Z" fill="white"/>
<path d="M94.25 80.225C94.0464 79.9915 93.7928 79.8068 93.508 79.6848C93.2232 79.5627 92.9146 79.5064 92.605 79.52C91.155 79.52 90.0875 80.6925 90.0875 82.315C90.0875 83.9375 91.155 85.12 92.5425 85.12C92.8966 85.1299 93.2473 85.0492 93.5614 84.8855C93.8756 84.7219 94.1427 84.4808 94.3375 84.185L95.935 85.3775C95.2125 86.41 93.9775 86.89 92.79 86.89C90.075 86.89 88.0975 85.1075 88.0975 82.315C88.0975 79.5225 90.0625 77.75 92.7775 77.75C93.745 77.75 94.975 78.075 95.7125 79.0275L94.25 80.225Z" fill="white"/>
<path d="M101.225 77.75C103.94 77.75 105.918 79.525 105.918 82.315C105.918 85.105 103.94 86.89 101.225 86.89C98.51 86.89 96.535 85.1075 96.535 82.315C96.535 79.5225 98.5 77.75 101.225 77.75ZM101.225 85.12C102.855 85.12 103.928 83.94 103.928 82.315C103.928 80.69 102.855 79.52 101.225 79.52C99.595 79.52 98.525 80.6925 98.525 82.315C98.525 83.9375 99.5925 85.12 101.225 85.12Z" fill="white"/>
<path d="M114.873 83.3127C114.873 85.3652 113.623 86.8902 111.208 86.8902C108.793 86.8902 107.535 85.3652 107.535 83.3127V77.9702H109.453V83.2502C109.453 84.3202 110.19 85.1327 111.203 85.1327C112.215 85.1327 112.953 84.3202 112.953 83.2502V77.9702H114.873V83.3127Z" fill="white"/>
<path d="M115.93 77.9702H118.123L120.268 83.6677H120.295L122.48 77.9702H124.53L120.945 86.6677H119.41L115.93 77.9702Z" fill="white"/>
<path d="M125.685 77.9702H131.595V79.7502H127.595V81.3727H131.368V83.1377H127.6V84.9077H131.815V86.6777H125.685V77.9702Z" fill="white"/>
<path d="M133.52 77.9702H136.88C138.668 77.9702 140.165 78.5852 140.165 80.6127C140.165 81.8252 139.513 82.7702 138.283 82.9927L140.498 86.6677H138.198L136.38 83.1902H135.435V86.6677H133.52V77.9702ZM135.435 81.5652H136.57C137.263 81.5652 138.173 81.5427 138.173 80.6002C138.173 79.7277 137.385 79.6002 136.688 79.6002H135.438L135.435 81.5652Z" fill="white"/>
</svg>
