<svg width="180" height="180" viewBox="0 0 180 180" fill="none" xmlns="http://www.w3.org/2000/svg">
<path d="M162 90C162 129.769 129.759 162 90 162C50.2409 162 18 129.759 18 90C18 50.2408 50.2409 18 90 18C129.759 18 162 50.2408 162 90Z" fill="#0C2032"/>
<path d="M89.9902 21.847C52.3498 21.847 21.8372 52.3597 21.8372 90C21.8372 127.64 52.3498 158.153 89.9902 158.153C127.631 158.153 158.143 127.64 158.143 90C158.143 52.3597 127.631 21.847 89.9902 21.847ZM89.9902 155.751C53.6777 155.751 24.2392 126.312 24.2392 90C24.2392 53.6876 53.6777 24.249 89.9902 24.249C126.303 24.249 155.741 53.6876 155.741 90C155.741 126.312 126.303 155.751 89.9902 155.751Z" fill="#DFDEDE"/>
<path d="M93.9153 145.841C93.9153 147.998 92.1676 149.756 90 149.756C87.8324 149.756 86.0846 148.008 86.0846 145.841C86.0846 143.673 87.8324 141.925 90 141.925C92.1676 141.925 93.9153 143.673 93.9153 145.841Z" fill="#DFDEDE"/>
<path d="M59.1359 120.825C51.2563 112.936 46.3743 102.039 46.3743 90C46.3743 81.6713 48.7079 73.8893 52.76 67.2693C52.8186 67.1717 52.8576 67.0057 52.8576 66.8983C52.8576 66.2832 52.9553 65.6485 53.0432 65.0724C53.1994 64.0472 53.3654 63.0122 53.6095 62.0065C53.6388 61.8991 53.6095 61.8796 53.5411 61.9674C47.3702 69.9642 44.0212 79.7087 44.0212 89.9902C44.0212 102.742 49.2449 114.303 57.6615 122.641C57.7396 122.719 57.8568 122.71 57.9252 122.622C58.3255 122.085 58.7356 121.567 59.1359 121.108C59.2043 121.03 59.2043 120.893 59.1261 120.815" fill="#DFDEDE"/>
<path d="M65.4337 51.1489C63.3247 52.4865 61.3328 53.9902 59.4581 55.6501C59.4288 55.6696 59.3995 55.6989 59.38 55.7184C59.3019 55.7868 59.2335 55.8551 59.1554 55.9235C58.5891 56.4605 58.0619 57.0756 57.6029 57.7786C56.7925 59.0187 56.236 60.4149 55.904 61.86C55.8161 62.2506 55.7478 62.6607 55.6892 63.0708C55.6599 63.2758 55.6306 63.4711 55.6208 63.6859C55.6208 63.7347 55.6795 63.764 55.699 63.7152C55.9919 63.2367 56.5094 62.7583 56.8316 62.4166C57.3003 61.9381 57.8178 61.5085 58.3938 61.1668C59.4191 60.5614 60.5907 60.2587 61.782 60.2392C63.3051 60.2197 64.7209 60.7079 66.1758 61.118C68.978 61.8991 71.8487 63.1098 74.8072 62.9341C75.5981 62.8852 76.389 62.7388 77.1701 62.524C79.6306 61.8503 81.9935 60.454 84.044 59.1066C84.249 58.9699 84.4638 58.8234 84.6689 58.6769C85.9479 57.7982 87.188 56.8413 88.3108 55.7673C88.6526 55.445 88.5647 55.3083 88.1253 55.445C85.3914 56.3238 82.5501 56.0114 79.8357 55.0545C77.3361 54.166 74.9732 53.1895 72.3271 52.8283C71.2336 52.6721 70.1009 52.5939 68.9683 52.5939C68.2555 52.6135 67.5916 52.7306 67.2205 52.799C67.1619 52.8088 67.1131 52.8185 67.0643 52.8283C66.9764 52.8478 66.8397 52.8771 66.7811 52.8283C66.7421 52.799 66.7323 52.7599 66.7226 52.7111C66.7226 52.6525 66.7519 52.5744 66.8105 52.5158C67.0741 52.2815 68.6266 51.6859 69.603 51.3246C70.0423 51.1684 70.4622 50.9829 70.882 50.7778C76.6526 47.956 83.1359 46.3743 89.9903 46.3743C114.078 46.3743 133.606 65.9023 133.606 89.9902C133.606 114.078 114.078 133.606 89.9903 133.606C80.1091 133.606 70.9992 130.316 63.686 124.779C63.5981 124.711 63.6176 124.643 63.725 124.613C66.6738 123.998 69.7201 123.676 72.8446 123.676C80.4215 123.676 87.559 125.57 93.808 128.9C94.1595 129.085 94.5696 129.115 94.9309 128.949C95.0578 128.89 95.1847 128.832 95.3116 128.763C97.1668 127.787 99.0904 126.898 101.014 126.039C101.112 125.99 101.199 125.961 101.209 125.961C101.209 125.961 101.297 125.932 101.404 125.883C102.254 125.512 103.094 125.131 103.943 124.76C104.041 124.711 104.119 124.672 104.119 124.672C104.119 124.672 104.197 124.633 104.295 124.584C107.341 123.217 110.368 121.811 113.19 120.063C113.287 120.005 113.365 119.966 113.365 119.966C113.365 119.966 113.443 119.927 113.541 119.868C114.01 119.575 114.469 119.273 114.918 118.96C116.607 117.788 118.199 116.48 119.644 115.025C127.621 107.038 126.996 93.1342 118.081 86.2018C116.06 84.6297 113.746 83.4092 111.549 82.052C110.963 81.6908 110.339 81.3881 109.792 81.1049C109.684 81.0561 109.675 80.9097 109.753 80.8315C112.135 78.2831 114.576 76.0081 116.558 73.4011C120.063 68.773 120.249 65.8535 117.125 61.6745C113.668 57.0463 109.02 54 103.367 52.5647C101.121 51.9983 99.1978 52.5939 97.2254 53.707C93.5053 55.7868 87.5883 61.528 85.4012 64.6037C82.9016 68.1188 81.603 72.1416 81.7201 76.8966C81.8666 83.1749 81.7787 105.154 81.7689 116.451C81.7689 116.626 81.6225 116.763 81.4467 116.744C80.3043 116.636 76.2718 116.529 71.6729 117.622C69.5737 118.12 66.3711 119.321 63.3247 121.235C63.1489 121.343 62.9732 121.45 62.7876 121.567C62.2311 121.919 61.6746 122.29 61.1278 122.69C60.4931 123.149 59.878 123.637 59.2824 124.164C58.7258 124.653 58.1888 125.17 57.6908 125.717C57.6029 125.814 57.5053 125.912 57.4174 126.019C56.939 126.566 56.4801 127.142 56.07 127.757C56.0212 127.826 56.0602 127.904 56.1188 127.933C56.1481 127.943 56.1774 127.943 56.2067 127.933C56.939 127.611 57.6615 127.25 58.3938 126.879C58.5305 126.81 58.6575 126.742 58.7942 126.683C59.4581 126.351 60.1318 126.01 60.8055 125.697C60.9032 125.648 61.0594 125.668 61.1375 125.736C69.0366 132.132 79.0838 135.969 90.0098 135.969C115.357 135.969 135.969 115.347 135.969 90.0097C135.969 64.6721 115.347 44.0504 90.0098 44.0504C81.2807 44.0504 72.786 46.511 65.4532 51.1586M100.194 61.3718C104.207 62.2896 108.864 64.4768 110.133 68.7632C110.954 71.5069 110.729 74.1041 109.079 76.5451C107.956 78.2148 105.642 80.275 103.025 82.1204C101.209 83.3995 93.9349 87.1977 90.371 88.3987C90.2636 88.428 90.1855 88.3694 90.1855 88.262C90.2343 78.7616 90.2734 69.9642 90.2539 65.6289C90.2344 60.3271 96.6884 60.5907 100.184 61.3816M89.8243 115.933C89.9414 115.875 90.0586 115.816 90.0781 115.797C90.0781 115.777 90.0879 115.757 90.0879 115.738C90.0879 109.938 90.1172 98.7192 90.1465 91.5524C90.1563 91.2888 91.2401 90.8592 92.4606 90.4393C96.6298 89.0138 99.4028 88.6232 101.219 88.8771C102.771 89.0919 104.275 89.6289 105.671 90.2734C112.604 93.5248 116.187 104.002 113.346 111.002C112.487 113.111 110.788 115.015 108.698 116.47C108.561 116.568 108.415 116.666 108.269 116.763C108.181 116.822 108.103 116.871 108.093 116.871C108.093 116.871 108.015 116.919 107.917 116.978C105.828 118.277 103.445 119.155 101.17 119.399C101.141 119.399 101.102 119.399 101.072 119.399C100.916 119.419 100.76 119.429 100.604 119.439C100.526 119.439 100.448 119.439 100.369 119.439C100.262 119.439 100.145 119.448 100.037 119.448C99.8812 119.448 99.7152 119.448 99.559 119.448C99.5297 119.448 99.5004 119.448 99.4809 119.448C99.2856 119.448 99.0903 119.429 98.8951 119.409C98.7486 119.39 98.6119 119.38 98.4654 119.36C98.358 119.351 98.2604 119.341 98.153 119.321C94.9406 118.911 91.6208 117.954 88.5061 117.173C88.5061 117.173 88.1937 117.105 87.9593 117.056C87.8324 117.027 87.6762 117.007 87.6859 116.968C87.6859 116.949 87.7055 116.939 87.725 116.919C87.7641 116.89 89.2482 116.197 89.8047 115.923" fill="#DFDEDE"/>
<path d="M72.2783 66.3612C72.1905 66.4296 72.1026 66.498 72.0733 66.5077C72.0538 66.5175 72.044 66.5272 72.0245 66.537L65.7657 71.5752C65.3556 71.8975 65.1115 72.415 65.1115 72.952V82.0228C65.1115 82.1302 65.0822 82.3059 65.0529 82.4133C63.6665 86.7974 61.7039 90.9373 59.214 94.6379C59.1457 94.7453 59.0774 94.9406 59.0774 95.0675V97.4597C59.0774 97.5866 59.1359 97.6647 59.1945 97.6062C59.2336 97.5769 59.2629 97.5378 59.2922 97.4988C61.5867 94.3743 63.5102 90.9178 65.0334 87.2465C65.0725 87.1489 65.1115 87.1489 65.1115 87.2661V101.6C65.1115 101.727 65.0237 101.893 64.9163 101.971L64.7112 102.107C64.6136 102.176 64.5452 102.293 64.555 102.43C64.6136 103.689 64.4964 112.135 64.555 115.709C64.555 115.777 64.5452 115.845 64.5159 115.914C64.4574 116.021 63.6958 117.642 63.6958 117.642C63.6372 117.759 63.7641 117.876 63.8715 117.808C65.1701 117.085 66.5176 116.363 67.9236 115.728C68.1481 115.631 68.3727 115.543 68.6071 115.445C69.2613 115.22 69.9252 115.015 70.5892 114.84C71.4093 114.625 72.2393 114.439 73.0692 114.293C73.1473 114.283 73.2059 114.215 73.2059 114.137C73.2743 110.768 73.3426 103.992 73.4012 102.713C73.4012 102.576 73.3426 102.459 73.245 102.391L71.7511 101.365C71.6437 101.297 71.6632 101.229 71.7901 101.229L78.9276 101.209C79.0546 101.209 79.162 101.102 79.162 100.975V96.5712C79.162 96.4345 79.0546 96.3368 78.9276 96.3368H73.6551C73.5281 96.3368 73.4207 96.2294 73.4207 96.1025V90.1171C73.4207 90 73.3622 89.8828 73.2743 89.8242L71.7608 88.7209C71.6534 88.6428 71.673 88.5842 71.8097 88.5842H78.9374C79.0643 88.5842 79.1717 88.4768 79.1717 88.3499V83.9463C79.1717 83.8193 79.0643 83.7119 78.9374 83.7119H73.6648C73.5379 83.7119 73.4305 83.6045 73.4305 83.4776V77.9805C73.4305 77.8633 73.3817 77.7559 73.2938 77.6973L71.7511 76.467C71.6535 76.3889 71.673 76.3206 71.7999 76.3206H78.9374C79.0643 76.3206 79.1717 76.2132 79.1717 76.0765V71.6729C79.1717 71.546 79.0643 71.4385 78.9374 71.4385C78.0098 71.4385 74.6217 71.4385 73.6648 71.4288C73.5379 71.4288 73.4305 71.3214 73.4305 71.1944V66.2636C73.4305 65.9316 73.0692 65.7461 72.8154 65.9512L72.2881 66.371L72.2783 66.3612Z" fill="#DFDEDE"/>
<path d="M119.722 47.3799L124.692 41.2579C124.76 41.17 124.887 41.1602 124.975 41.2286L125.873 41.9609C125.961 42.0292 125.971 42.1562 125.902 42.244L121.753 47.3604C121.684 47.4483 121.694 47.5752 121.782 47.6435L126.508 51.471C126.596 51.5394 126.605 51.6663 126.537 51.7542L125.971 52.4474C125.902 52.5353 125.775 52.5451 125.688 52.4767L119.751 47.6631C119.663 47.5947 119.653 47.4678 119.722 47.3799Z" fill="#DFDEDE"/>
<path d="M67.7185 136.848C67.8161 136.906 67.8454 137.024 67.7966 137.121L63.8812 143.966C63.8226 144.063 63.7054 144.093 63.6078 144.044L59.4679 141.681C57.6713 140.656 57.1538 139.357 57.7884 138.244L57.847 138.146C58.2571 137.434 59.0676 137.043 60.0928 137.307C60.2002 137.336 60.2099 137.307 60.1318 137.229C59.2433 136.418 59.2238 135.452 59.546 134.885L59.6046 134.788C60.2685 133.616 61.7526 133.44 63.5492 134.465L67.7185 136.848ZM60.0244 140.5L62.895 142.14C62.9927 142.199 63.1099 142.159 63.1684 142.062L64.1253 140.392C64.1741 140.295 64.1448 140.177 64.0472 140.119L61.2352 138.508C60.2392 137.941 59.546 138.156 59.2433 138.683L59.2238 138.713C58.9113 139.25 59.0187 139.914 60.0146 140.49M61.7722 137.57L64.5842 139.172C64.6818 139.23 64.799 139.191 64.8576 139.094L65.8243 137.414C65.8828 137.316 65.8438 137.199 65.7461 137.141L62.8755 135.5C61.8796 134.934 61.2449 135.188 60.9422 135.725L60.9227 135.754C60.6102 136.291 60.7665 136.985 61.7819 137.561" fill="#DFDEDE"/>
<path d="M48.3955 121.118L47.6925 122.915C47.6534 123.012 47.6827 123.168 47.7511 123.256L50.651 126.644C50.7193 126.732 50.8658 126.781 50.9732 126.752L52.8284 126.312C52.9358 126.283 53.0822 126.332 53.1506 126.42L53.961 127.367C54.0294 127.445 54.0001 127.533 53.8927 127.562L45.0757 129.466C44.9683 129.486 44.8219 129.437 44.7535 129.359L44.1677 128.685C44.0993 128.597 44.0701 128.451 44.1091 128.343L47.3019 119.868C47.341 119.761 47.4289 119.751 47.4972 119.829L48.3174 120.796C48.3858 120.884 48.415 121.03 48.376 121.137M45.8959 127.953L49.3231 127.152C49.4305 127.123 49.4598 127.035 49.3914 126.957L47.2629 124.477C47.1945 124.389 47.0969 124.408 47.0578 124.516L45.769 127.826C45.7299 127.933 45.7885 127.992 45.8959 127.963" fill="#DFDEDE"/>
<path d="M38.8755 109.762L41.5703 108.669C41.6777 108.63 41.7851 108.669 41.834 108.776L42.2636 109.85C42.3026 109.948 42.2636 110.065 42.1562 110.114L39.432 111.217C39.3344 111.256 39.2074 111.373 39.1489 111.471L36.3075 116.851C36.2587 116.949 36.1806 116.949 36.1415 116.851L35.6045 115.513C35.5654 115.406 35.5752 115.25 35.624 115.152L37.8014 111.1C37.8502 111.002 37.8014 110.895 37.7038 110.866L33.3978 109.635C33.2904 109.606 33.1733 109.499 33.1342 109.391L32.5972 108.054C32.5581 107.956 32.607 107.897 32.7144 107.927L38.5044 109.782C38.6118 109.821 38.7778 109.811 38.8852 109.772" fill="#DFDEDE"/>
<path d="M32.1285 81.4565L34.0715 81.808C34.179 81.8275 34.2864 81.7592 34.3059 81.6518L35.0089 77.7755C35.0284 77.668 35.1358 77.5997 35.2432 77.6192L36.0634 77.7657C36.1708 77.7852 36.249 77.8926 36.2294 78L35.5264 81.8763C35.5069 81.9837 35.5752 82.0912 35.6924 82.1107L38.6314 82.6379C38.7388 82.6575 38.8071 82.7649 38.7876 82.8723L38.5826 83.9951C38.563 84.1025 38.4556 84.1709 38.3482 84.1514L30.5858 82.7551C30.4784 82.7356 30.41 82.6282 30.4198 82.5208L31.6599 75.6567C31.6794 75.5493 31.7868 75.4711 31.8942 75.4907L32.7729 75.6469C32.8803 75.6664 32.9487 75.7738 32.9389 75.8812L31.9723 81.2319C31.9528 81.3393 32.0211 81.4467 32.1383 81.4663" fill="#DFDEDE"/>
<path d="M45.2416 64.7112C43.7868 67.2596 41.004 67.865 39.0903 66.7812L38.856 66.6445C36.9129 65.5314 36.0439 62.856 37.4987 60.2978C38.9634 57.7397 41.7071 57.1148 43.6501 58.2181L43.8844 58.3548C45.7982 59.4484 46.6965 62.1432 45.2319 64.7112M42.8885 59.5948C41.4923 58.7942 39.6664 59.1066 38.6216 60.9423C37.5769 62.7779 38.2408 64.4964 39.6371 65.2873L39.8128 65.3849C41.2091 66.1855 43.0447 65.8926 44.0895 64.057C45.1342 62.2213 44.4507 60.4833 43.0545 59.6925L42.8787 59.5948H42.8885Z" fill="#DFDEDE"/>
<path d="M56.9487 50.6216C54.703 52.5158 51.8812 52.1155 50.4654 50.4361L50.2897 50.2311C48.8446 48.5126 48.9618 45.7005 51.2173 43.8161C53.4728 41.9219 56.2653 42.2831 57.7103 43.9918L57.8861 44.1969C59.3019 45.8861 59.214 48.7274 56.9487 50.6216ZM56.5191 45.0171C55.4841 43.7868 53.668 43.4451 52.0472 44.8023C50.4264 46.1692 50.4654 48.0049 51.5004 49.2351L51.6273 49.3914C52.6623 50.6216 54.4784 50.9927 56.0993 49.6257C57.7201 48.2587 57.6713 46.3938 56.6461 45.1635L56.5191 45.0073V45.0171Z" fill="#DFDEDE"/>
<path d="M70.5598 34.8528L72.8446 41.0432C72.8836 41.1506 72.8348 41.258 72.7274 41.297L71.6436 41.6973C71.5362 41.7364 71.4288 41.6778 71.3897 41.5802L69.1147 35.3995C69.0757 35.2921 68.9585 35.2433 68.8608 35.2824L65.8438 36.3955C65.7364 36.4345 65.629 36.3857 65.5899 36.2783L65.2775 35.4386C65.2384 35.3312 65.297 35.2238 65.3946 35.1847L73.2742 32.2751C73.3816 32.236 73.489 32.2946 73.5281 32.3922L73.8405 33.2319C73.8796 33.3393 73.821 33.4467 73.7233 33.4858L70.7063 34.5989C70.5989 34.6379 70.55 34.7551 70.5891 34.8528" fill="#DFDEDE"/>
<path d="M85.7722 38.3189C85.6648 38.3189 85.5671 38.231 85.5671 38.1236L85.4988 30.2343C85.4988 30.1269 85.5867 30.0292 85.6941 30.0292L90.4589 29.9804C92.5191 29.9609 93.6225 30.8201 93.642 32.109V32.2164C93.642 33.0366 93.144 33.7884 92.1286 34.0716C92.0212 34.1008 92.0212 34.1301 92.1286 34.1594C93.31 34.4133 93.808 35.2335 93.8177 35.8877V35.9951C93.8275 37.3425 92.6461 38.2408 90.5761 38.2603L85.7722 38.2994V38.3189ZM90.5761 31.279L87.2661 31.3083C87.1587 31.3083 87.0708 31.3962 87.0708 31.5134L87.0903 33.4369C87.0903 33.5443 87.1782 33.6322 87.2954 33.6322L90.5273 33.6029C91.6696 33.5931 92.1676 33.0561 92.1579 32.441V32.4019C92.1579 31.777 91.7282 31.2595 90.5761 31.2693M90.5273 34.6769L87.2954 34.7062C87.188 34.7062 87.1001 34.7941 87.1001 34.9113L87.1196 36.8445C87.1196 36.9519 87.2075 37.0496 87.3246 37.0398L90.6347 37.0105C91.7771 37.0008 92.1969 36.4637 92.1969 35.8388V35.7998C92.1969 35.1749 91.7185 34.6574 90.5468 34.6672" fill="#DFDEDE"/>
<path d="M132.015 59.4482L138.683 55.24C138.781 55.1814 138.898 55.2107 138.957 55.2985L139.572 56.2749C139.631 56.3726 139.601 56.4898 139.513 56.5483L133.938 60.0634C133.84 60.122 133.821 60.2489 133.879 60.3368L137.121 65.4824C137.18 65.5801 137.15 65.6972 137.063 65.7558L136.311 66.2343C136.213 66.2928 136.096 66.2635 136.037 66.1757L131.966 59.7119C131.907 59.6142 131.936 59.4971 132.024 59.4385" fill="#DFDEDE"/>
<path d="M147.725 94.2961C148.369 93.5638 148.945 92.5191 148.955 91.1326C148.975 88.9161 147.471 87.6566 145.889 87.6371H145.733C144.161 87.6175 142.687 88.8576 142.657 91.1716C142.648 92.4605 143.204 93.5541 143.819 94.2864C143.888 94.3742 143.888 94.5012 143.8 94.5695L143.097 95.2237C143.019 95.3018 142.892 95.292 142.814 95.2139C141.984 94.2864 141.32 92.8022 141.339 91.0642C141.369 87.93 143.429 86.0455 145.675 86.0748H145.948C148.184 86.1041 150.283 88.2034 150.244 91.24C150.225 92.8999 149.551 94.4133 148.692 95.2921C148.613 95.3702 148.487 95.3702 148.408 95.2921L147.715 94.5988C147.637 94.5207 147.637 94.3938 147.715 94.3059" fill="#DFDEDE"/>
<path d="M139.972 104.5L147.373 107.224C147.481 107.263 147.53 107.38 147.491 107.478L147.09 108.561C147.051 108.669 146.934 108.718 146.836 108.679L140.656 106.394C140.548 106.355 140.441 106.413 140.402 106.511L138.303 112.223C138.264 112.33 138.146 112.379 138.049 112.34L137.209 112.028C137.102 111.989 137.053 111.871 137.092 111.774L139.738 104.607C139.777 104.5 139.894 104.451 139.992 104.49" fill="#DFDEDE"/>
<path d="M135.11 122.016L138.664 125.004C138.752 125.072 138.762 125.199 138.693 125.287L137.961 126.166C137.893 126.254 137.766 126.264 137.678 126.195L134.104 123.198C132.933 122.212 131.585 122.397 130.355 123.871C129.085 125.375 129.261 126.586 130.433 127.562L134.007 130.56C134.094 130.628 134.104 130.755 134.036 130.843L133.294 131.731C133.225 131.819 133.098 131.829 133.011 131.761L129.456 128.773C127.884 127.455 127.416 125.336 129.427 122.944C131.341 120.669 133.47 120.649 135.12 122.036" fill="#DFDEDE"/>
<path d="M119.116 132.835C119.214 132.776 119.331 132.806 119.39 132.903L123.432 139.67C123.491 139.767 123.461 139.884 123.364 139.943L119.273 142.384C117.496 143.448 116.109 143.253 115.455 142.16L115.396 142.062C114.976 141.359 115.025 140.461 115.767 139.689C115.845 139.611 115.826 139.582 115.719 139.621C114.576 140.002 113.727 139.543 113.395 138.986L113.336 138.889C112.643 137.736 113.209 136.35 114.986 135.295L119.107 132.835H119.116ZM116.841 138.371L119.614 136.711C119.712 136.653 119.741 136.535 119.683 136.438L118.687 134.778C118.628 134.68 118.511 134.651 118.413 134.71L115.572 136.409C114.586 136.994 114.498 137.668 114.82 138.205L114.84 138.234C115.162 138.771 115.836 138.976 116.841 138.371ZM118.531 141.339L121.372 139.64C121.47 139.582 121.499 139.465 121.44 139.367L120.454 137.707C120.395 137.609 120.278 137.58 120.181 137.639L117.408 139.299C116.422 139.884 116.275 140.597 116.588 141.125L116.607 141.154C116.929 141.691 117.554 141.915 118.54 141.33" fill="#DFDEDE"/>
<path d="M110.465 33.8372C110.446 33.7298 110.348 33.6126 110.241 33.5736L109.401 33.2807C109.294 33.2416 109.147 33.2807 109.059 33.349L102.371 39.4027C102.293 39.4808 102.303 39.5687 102.41 39.6077L103.582 40.0178C103.689 40.0569 103.836 40.0178 103.914 39.9495L105.3 38.6411C105.378 38.563 105.525 38.5337 105.632 38.5728L109.841 40.0569C109.948 40.096 110.046 40.2131 110.055 40.3205L110.348 42.2245C110.368 42.3319 110.465 42.4491 110.563 42.4881L111.764 42.908C111.871 42.947 111.94 42.8885 111.92 42.7811L110.446 33.847L110.465 33.8372ZM109.665 38.7778L106.579 37.694C106.472 37.6549 106.452 37.5671 106.54 37.4889L109.108 35.0772C109.186 34.9991 109.264 35.0284 109.284 35.1358L109.821 38.6509C109.841 38.7583 109.762 38.8169 109.665 38.7778Z" fill="#DFDEDE"/>
</svg>
