<svg width="180" height="180" viewBox="0 0 180 180" fill="none" xmlns="http://www.w3.org/2000/svg">
<path d="M90 170.997L89.9622 170.978L54.5341 152.719C43.7208 147.18 38.2358 142.774 34.2905 136.46C30.533 130.378 29 123.646 29 113.229V23.0242C38.4526 18.4721 47.6884 15.1352 57.2266 12.8207C67.8276 10.2487 78.5475 9 90 9C101.453 9 112.174 10.2487 122.773 12.8207C132.312 15.1341 141.547 18.4721 151 23.0242V113.232C151 123.65 149.467 130.38 145.705 136.466C141.761 142.778 136.275 147.18 125.465 152.718L90.0367 170.98L89.9989 170.999V170.996L90 170.997Z" fill="#20604E"/>
<path d="M90 167.881L89.9622 167.862L55.7982 150.252C45.474 144.964 40.2802 140.824 36.6317 134.986C33.1733 129.387 31.7637 123.083 31.7637 113.229V24.8024C50.3131 16.0349 69.3717 11.7716 90 11.7716C110.628 11.7716 129.687 16.0349 148.236 24.8024V113.23C148.236 123.084 146.827 129.392 143.364 134.99C139.719 140.826 134.525 144.965 124.201 150.252L90.0323 167.862L89.9945 167.881H89.9978H90Z" fill="#FBF9F4"/>
<path d="M63.4042 48.9553H35.3866V52.4761H62.6149C62.8017 51.2721 63.0707 50.0992 63.4042 48.9553Z" fill="#C04D38"/>
<path d="M69.2372 38.3728H35.3866V43.7165H65.532C66.5569 41.7888 67.8054 39.9961 69.2372 38.3728Z" fill="#C04D38"/>
<path d="M117.39 52.4807H144.618V48.9598H116.6C116.937 50.1071 117.203 51.281 117.39 52.4807Z" fill="#C04D38"/>
<path d="M114.469 43.721H144.615V38.3773H110.764C112.196 40.0006 113.445 41.7933 114.469 43.721Z" fill="#C04D38"/>
<path d="M90 15.4006C71.4127 15.4006 52.4409 19.2403 35.3866 27.1304V35.6582H71.993C76.8388 31.4996 83.1243 28.9833 90.0045 28.9833C96.8846 28.9833 103.17 31.4996 108.016 35.6582H144.622V27.1304C127.565 19.2403 108.596 15.4006 90.0089 15.4006H90.0011H90Z" fill="#C04D38"/>
<path d="M35.3866 52.4806V70.8662L47.1459 63.7075L57.4923 55.9111L64.5448 60.8757L71.7651 54.8988L86.1869 39.4754L90.7193 35.609L108.469 52.9745L116.389 59.5178L124.331 54.8152L135.152 63.3842L144.619 69.8082V52.4795H117.391C117.204 51.2754 116.935 50.1026 116.601 48.9587H144.619V43.7198H114.474C113.449 41.7922 112.2 39.9994 110.768 38.3762H144.619V35.6614H108.013C103.167 31.5029 96.8813 28.9866 90.0011 28.9866C83.1209 28.9866 76.8355 31.5029 71.9897 35.6614H35.3866V38.3762H69.2372C67.8054 39.9994 66.5558 41.7922 65.532 43.7198H35.3866V48.9587H63.4042C63.0674 50.1059 62.8017 51.2799 62.6149 52.4795H35.3866V52.4806Z" fill="#E6BA3F"/>
<path d="M138.163 82.5514L138.769 77.9235L135.056 72.3591L121.652 80.1098L93.7052 93.775L99.4114 87.4859L110.087 77.511L115.078 77.0985L117.905 70.776V66.584L126.539 71.2376L124.819 62.9762L125.869 59.7854L124.322 54.813L116.38 59.5156L108.587 64.1279L97.1492 72.2198L95.9897 66.9508L89.7976 57.0551L89.5319 51.7448L101.008 61.4834L99.905 55.9636L95.1493 48.9554L94.6446 45.3554L91.3762 40.8368L90.7103 35.6135H90.707L86.1747 39.4755L71.7529 54.8989L57.7391 66.5015L41.6164 78.4408L49.4382 67.9631L54.722 64.1759L57.6835 59.8668L57.4812 55.9145L47.1392 63.7109L35.3799 70.8696V113.237C35.3799 122.383 36.6327 128.109 39.6943 133.066C42.966 138.3 47.7706 142.073 57.4478 147.031L89.9599 163.786L89.9933 163.8L90.0266 163.786L122.539 147.031C132.216 142.073 137.021 138.305 140.292 133.066C143.355 128.108 144.607 122.382 144.607 113.237V92.4171L138.157 82.5548L138.165 82.5514H138.163ZM53.0167 93.8274L63.7143 81.033L68.0288 78.5613L70.9113 71.9912L78.8865 76.2546L77.7904 72.0135L78.4708 68.6053L76.2352 63.8013L78.1195 58.6605L90.279 70.0045L94.3811 73.5933L53.0155 93.8274H53.0167Z" fill="#20604E"/>
<path d="M58.4273 137.521C58.0126 137.176 57.8103 136.748 57.8103 136.231V136.148H59.9336C59.9481 136.381 60.0603 136.55 60.3038 136.688C60.6329 136.88 61.1298 136.973 61.8368 136.973C62.6739 136.973 63.183 136.88 63.4254 136.677C63.5343 136.587 63.5899 136.463 63.5899 136.325C63.5899 136.025 63.3398 135.871 62.6817 135.717C62.0047 135.56 60.8196 135.395 60.0681 135.214C59.4367 135.06 58.9798 134.843 58.6396 134.535C58.2361 134.167 58.0338 133.71 58.0338 133.171C58.0338 132.593 58.2661 132.087 58.6952 131.712C59.3311 131.157 60.3627 130.914 61.9035 130.914C63.4443 130.914 64.5615 131.195 65.1752 131.773C65.5153 132.095 65.7021 132.504 65.7021 132.924V133.007H63.6377C63.6233 132.77 63.5332 132.621 63.3531 132.504C63.0685 132.32 62.5939 132.23 61.9246 132.23C61.2554 132.23 60.7618 132.323 60.5295 132.511C60.4061 132.608 60.3683 132.725 60.3683 132.852C60.3683 133.174 60.6262 133.332 61.2243 133.478C61.8746 133.636 63.1008 133.808 63.8267 133.977C64.6638 134.168 65.2141 134.423 65.5509 134.772C65.8577 135.087 66.0112 135.503 66.0112 136.028C66.0112 136.609 65.8199 137.082 65.4242 137.445C64.785 138.045 63.6588 138.319 61.8646 138.319C60.0703 138.319 59.0832 138.068 58.4284 137.513L58.4251 137.521H58.4273ZM69.1361 136.948C68.9082 136.569 68.8104 136.093 68.8104 135.358V131.158H71.4161V135.152C71.4161 135.606 71.465 135.85 71.5951 136.056C71.853 136.476 72.3733 136.656 73.3004 136.656C74.2276 136.656 74.7845 136.472 75.0391 136.064C75.1736 135.85 75.2225 135.599 75.2225 135.153V131.159H77.2936V135.359C77.2936 136.094 77.1969 136.57 76.9678 136.949C76.4187 137.864 75.0791 138.329 73.0525 138.329C71.0259 138.329 69.6797 137.864 69.1339 136.949L69.1361 136.948ZM80.5286 131.157H84.4139L86.257 135.054L88.1002 131.157H91.8732V138.079H89.2852V132.969L86.8396 138.079H84.9475L82.5018 132.969V138.079H80.5308V131.157H80.5274H80.5286ZM95.3806 131.157H99.2659L101.109 135.054L102.952 131.157H106.725V138.079H104.137V132.969L101.692 138.079H99.7995L97.3538 132.969V138.079H95.3828V131.157H95.3795H95.3806ZM110.233 131.157H112.944V138.079H110.233V131.157ZM118.481 132.837H115.67V131.157H123.978V132.837H121.17V138.079H118.482V132.837H118.481Z" fill="#FBF9F4"/>
<path d="M80.5285 143.041H88.358V144.597H83.2387V146.239H87.86V147.747H83.2387V149.963H80.5273V143.041H80.5285ZM91.8998 149.112C91.4474 148.651 91.2306 148.013 91.2306 147.148V145.795C91.2306 144.955 91.4285 144.354 91.8587 143.905C92.5657 143.162 93.9297 142.791 95.9863 142.791C98.0429 142.791 99.4036 143.162 100.084 143.924C100.44 144.322 100.615 144.835 100.615 145.491V145.686H98.3864V145.589C98.3864 145.289 98.3309 145.091 98.2108 144.922C97.9118 144.517 97.2092 144.314 96.1097 144.314C95.0848 144.314 94.4833 144.49 94.1843 144.884C94.0198 145.101 93.9642 145.364 93.9642 145.881V147.157C93.9642 147.641 94.0198 147.873 94.181 148.087C94.4956 148.503 95.0937 148.687 96.1253 148.687C97.2214 148.687 97.9162 148.48 98.2119 148.068C98.3353 147.899 98.3953 147.689 98.3953 147.419V147.322H100.65V147.484C100.65 148.196 100.452 148.751 100.047 149.172C99.367 149.881 98.0919 150.214 96.0953 150.214C94.0987 150.214 92.6291 149.85 91.9154 149.115H91.9009L91.8998 149.112Z" fill="#FBF9F4"/>
<path d="M45.6129 100.769H53.0645C54.9188 100.769 56.3328 101.365 57.3344 102.595C58.2883 103.753 58.6429 105.205 58.6429 107.867V117.561C58.6429 120.223 58.2838 121.675 57.3344 122.833C56.3328 124.063 54.9188 124.66 53.0645 124.66H45.6129V100.769ZM53.4058 119.503C53.6604 119.229 53.7649 118.802 53.7649 118.086V107.267C53.7649 106.552 53.6637 106.123 53.4058 105.85C53.1668 105.595 52.811 105.476 52.3174 105.476H50.6344V119.879H52.3174C52.811 119.879 53.1668 119.759 53.4058 119.504V119.503ZM62.0124 100.769H72.699V105.378H67.1161V109.934H71.5728V114.115H67.1161V119.968H72.7323V124.66H62.0124V100.769ZM75.7461 100.769H81.3767L85.1197 112.424V100.769H89.3041V124.66H84.3349L79.9449 110.924V124.66H75.7416V100.769H75.7449H75.7461ZM91.4663 100.769H96.7568L99.2581 116.673L101.759 100.769H105.947L101.658 124.66H95.754L91.4652 100.769H91.4663ZM108.109 100.769H118.796V105.378H113.217V109.934H117.674V114.115H113.217V119.968H118.834V124.66H108.114V100.769H108.11H108.109ZM121.838 100.769H129.923C131.71 100.769 132.917 101.23 133.785 102.235C134.566 103.157 134.873 104.301 134.873 106.397V107.387C134.873 109.007 134.634 109.997 134.14 110.731C133.715 111.38 133.101 111.875 132.286 112.216C132.966 112.472 133.528 112.884 133.901 113.379C134.447 114.114 134.683 115.085 134.683 116.638V120.223C134.683 122.324 134.784 123.535 135.056 124.66H130.054C129.867 123.755 129.78 122.665 129.78 121.145V115.959C129.78 115.291 129.679 114.883 129.44 114.628C129.22 114.407 128.894 114.287 128.438 114.287H126.857V124.663H121.835V100.772L121.838 100.769ZM128.711 110.184C129.152 110.184 129.478 110.082 129.679 109.843C129.918 109.603 130 109.213 130 108.564V106.723C130 106.093 129.899 105.681 129.679 105.46C129.473 105.22 129.152 105.119 128.711 105.119H126.857V110.185H128.711V110.184Z" fill="#FBF9F4"/>
</svg>
