<svg width="180" height="180" viewBox="0 0 180 180" fill="none" xmlns="http://www.w3.org/2000/svg">
<path d="M90.01 9C41.11 25.14 27.76 44.78 27.76 44.78C27.76 144.28 90.01 171.82 90.01 171.82C90.01 171.82 152.24 144.28 152.24 44.78C152.24 44.78 138.91 25.14 90.01 9Z" fill="#B4A168"/>
<path d="M90.01 9C41.11 25.14 27.76 44.78 27.76 44.78C27.76 144.28 90.01 171.82 90.01 171.82C90.01 171.82 152.24 144.28 152.24 44.78C152.24 44.78 138.91 25.14 90.01 9Z" fill="#B4A168"/>
<path d="M90.01 14.36C48.59 26.85 32.9199 46.62 32.9199 46.62C32.9199 137.18 89.68 165.03 90.01 165.24C90.34 165.03 147.09 137.19 147.09 46.62C147.09 46.62 131.43 26.85 90.01 14.36Z" fill="#0C436A"/>
<path d="M90.01 14.36C48.59 26.85 32.9199 46.62 32.9199 46.62C32.9199 60.26 34.21 72.48 36.4 83.4L113.7 23.36C106.98 20.2 99.12 17.1 90.02 14.35" fill="#AB1D37"/>
<path d="M100.73 113.49L97.04 112.84L109.83 121.79L100.73 113.49Z" fill="#B4A168"/>
<path d="M104.44 110.89L100.75 110.24L113.54 119.19L104.44 110.89Z" fill="#B4A168"/>
<path d="M102.44 103.77H107.08L100.47 99.14L96.26 101.1L105.79 107.77L102.44 103.77Z" fill="#B4A168"/>
<path d="M116.64 97.6L115.77 99.11L119.04 100.99L122.72 94.61H107.98L113.17 97.6H116.64Z" fill="#B4A168"/>
<path d="M57.63 102.92L55.6 104.09C54.13 107.13 53.0399 110.38 52.4199 113.8C53.0199 115.19 53.65 116.56 54.29 117.91H57.72L55.5499 120.49C57.8099 125 60.26 129.22 62.91 133.14C67.04 139.27 71.6699 144.72 76.6899 149.36C80.8099 153.17 85.28 156.5 90.01 159.31V135.53L82.5599 137.53L77.45 121.31L88.83 113.34V109.14L83.14 105.15L86.0699 103.1L90.02 104.94V86.0401C94.17 82.4001 108.33 86.6701 114.24 91.1501C108.13 86.1401 100.42 83.0001 92.01 82.5701L90.02 86.0301L88.03 82.5801C79.62 83.0101 71.9299 86.1601 65.8199 91.1701L66.0699 91.6001H51.13L57.66 102.91L57.63 102.92ZM75.5699 110.89L79.26 110.24L66.47 119.19L75.5699 110.89ZM70.1699 121.79L79.27 113.49L82.96 112.84L70.1699 121.79ZM83.74 101.1L74.21 107.77L77.5599 103.78H72.91L79.53 99.1501L83.73 101.11L83.74 101.1ZM72.02 94.6101L66.83 97.6001H63.36L64.23 99.1001L60.96 100.99L57.28 94.6101H72.02Z" fill="#B4A168"/>
<path d="M81.79 120.76L83.86 127.34L85.7 121.52H94.3099L96.15 127.34L98.22 120.76L94.59 118.21H91.75L90.01 119.96H90L88.26 118.21H85.4199L81.79 120.76Z" fill="white"/>
<path d="M84.71 134.25H95.2999L92.9 126.66L91.0499 132.51H88.96L87.11 126.66L84.71 134.25Z" fill="white"/>
<path d="M73.23 31.74H71.0499V39.6L68.63 31.74H66.45C66.32 31.74 66.22 31.84 66.22 31.97V47.81C66.22 47.94 66.32 48.05 66.45 48.05H68.63V40.28L71.0499 48.05H73.23C73.36 48.05 73.46 47.94 73.46 47.81V31.97C73.46 31.84 73.35 31.74 73.23 31.74Z" fill="white"/>
<path d="M106.56 47.15L108.15 48.02C108.15 48.02 108.22 48.05 108.26 48.05H111.81C111.81 48.05 111.89 48.04 111.93 48.02L113.57 47.07C113.64 47.03 113.69 46.95 113.69 46.87V42.04L111.27 43.48V45.45C111.27 45.57 111.18 45.66 111.06 45.66H109.06C108.94 45.66 108.85 45.57 108.85 45.45V34.35C108.85 34.23 108.94 34.14 109.06 34.14H111.06C111.17 34.14 111.27 34.23 111.27 34.35V36.82L113.69 35.42V32.82C113.69 32.73 113.64 32.65 113.56 32.61L111.93 31.77C111.93 31.77 111.86 31.74 111.82 31.74H108.24C108.24 31.74 108.16 31.74 108.13 31.77L106.56 32.61C106.48 32.65 106.44 32.73 106.44 32.82V46.95C106.44 47.04 106.49 47.11 106.56 47.16" fill="white"/>
<path d="M51.5 75.01L53.4399 73.87C53.5399 73.82 53.6 73.74 53.6 73.63V67.85L50.71 69.56V71.91C50.71 72.07 50.63 72.15 50.47 72.15H48.08C48.01 72.17 47.95 72.15 47.91 72.1C47.87 72.05 47.84 71.99 47.84 71.92V58.74C47.84 58.58 47.92 58.5 48.08 58.5H50.47C50.63 58.5 50.71 58.58 50.71 58.74V61.66L53.6 59.99V56.89C53.6 56.8 53.5499 56.72 53.4399 56.65L51.5 55.64C51.5 55.64 51.42 55.61 51.37 55.61H47.1C47.03 55.61 46.98 55.61 46.97 55.64L45.12 56.65C45.01 56.7 44.96 56.78 44.96 56.89V73.73C44.96 73.85 45 73.94 45.09 74L47 75.03C47 75.03 47.06 75.06 47.13 75.06H51.35C51.42 75.06 51.47 75.06 51.51 75.03" fill="white"/>
<path d="M58.71 73.87L60.6699 75.01C60.6699 75.01 60.7499 75.04 60.7999 75.04H64.96C65.03 75.04 65.08 75.04 65.12 75.01L67.0499 73.87C67.1599 73.82 67.21 73.74 67.21 73.63V56.87C67.21 56.78 67.1599 56.7 67.0499 56.63L65.09 55.62C65.09 55.62 65.04 55.59 64.99 55.59H60.7999C60.7499 55.59 60.6999 55.59 60.6699 55.62L58.74 56.63C58.63 56.68 58.58 56.77 58.58 56.89V73.62C58.58 73.72 58.62 73.8 58.71 73.86M61.71 58.46H64.1C64.26 58.46 64.34 58.54 64.34 58.7V71.93C64.34 72.09 64.26 72.17 64.1 72.17H61.71C61.55 72.17 61.47 72.09 61.47 71.93V58.7C61.47 58.54 61.55 58.46 61.71 58.46Z" fill="white"/>
<path d="M72.26 73.87L74.22 75.01C74.22 75.01 74.3 75.04 74.35 75.04H78.51C78.58 75.04 78.6299 75.04 78.6699 75.01L80.6 73.87C80.71 73.82 80.76 73.74 80.76 73.63V55.84C80.76 55.68 80.67 55.6 80.49 55.6H77.87V71.91C77.87 72.07 77.79 72.15 77.63 72.15H75.24C75.08 72.15 75 72.07 75 71.91V55.6H72.4C72.21 55.6 72.11 55.7 72.11 55.89V73.63C72.11 73.74 72.15 73.82 72.24 73.87" fill="white"/>
<path d="M85.96 75.04H88.5599V66.87L91.4199 65.78V75.03H94.02C94.21 75.03 94.3099 74.93 94.3099 74.74V65.14C94.3099 65.02 94.26 64.93 94.15 64.88L92.16 63.79L94.15 62.65C94.26 62.6 94.3099 62.52 94.3099 62.41V56.87C94.3099 56.76 94.26 56.68 94.15 56.63L92.22 55.62C92.22 55.62 92.14 55.59 92.09 55.59H85.97C85.78 55.59 85.6799 55.69 85.6799 55.88V74.73C85.6799 74.93 85.78 75.02 85.97 75.02M88.5699 58.71C88.5699 58.55 88.6499 58.47 88.8099 58.47H91.2C91.36 58.47 91.4399 58.55 91.4399 58.71V62.08L88.58 63.19V58.71H88.5699Z" fill="white"/>
<path d="M99.59 75.04H102.16L102.19 66.87L105.05 65.78V75.03H107.65C107.84 75.03 107.94 74.93 107.94 74.74V56.87C107.94 56.78 107.89 56.7 107.78 56.63L105.85 55.62C105.85 55.62 105.77 55.59 105.72 55.59H101.56C101.56 55.59 101.52 55.59 101.51 55.6C101.49 55.6 101.46 55.61 101.43 55.61L99.4399 56.72C99.3499 56.77 99.3099 56.86 99.3099 56.98V74.72C99.3099 74.92 99.41 75.01 99.6 75.01M102.2 58.92C102.2 58.78 102.24 58.66 102.33 58.58C102.42 58.49 102.53 58.45 102.68 58.45H104.8C104.98 58.45 105.07 58.54 105.07 58.72V62.09L102.21 63.2V58.93L102.2 58.92Z" fill="white"/>
<path d="M121.33 56.64L119.39 55.63C119.39 55.63 119.31 55.6 119.26 55.6H115.07C115.02 55.6 114.97 55.61 114.94 55.63L113 56.64C112.89 56.69 112.84 56.77 112.84 56.88V73.64C112.84 73.75 112.88 73.82 112.97 73.88L114.93 75.02C114.93 75.02 115.01 75.05 115.06 75.05H119.22C119.29 75.05 119.34 75.05 119.38 75.02L121.32 73.87C121.43 73.82 121.48 73.74 121.48 73.63V63.78H117.13V67.84H118.59V71.92C118.59 72.08 118.51 72.16 118.35 72.16H115.96C115.8 72.16 115.72 72.08 115.72 71.92V58.74C115.72 58.58 115.8 58.5 115.96 58.5H118.35C118.51 58.5 118.59 58.58 118.59 58.74V61.66L121.48 59.99V56.89C121.48 56.78 121.43 56.7 121.32 56.65" fill="white"/>
<path d="M134.77 55.6H128.56C128.49 55.6 128.44 55.6 128.43 55.63L126.56 56.64C126.45 56.69 126.4 56.77 126.4 56.88V74.8C126.4 74.96 126.48 75.04 126.64 75.04H134.78C134.97 75.04 135.07 74.94 135.07 74.75V72.18H129.56C129.38 72.18 129.29 72.09 129.29 71.92V66.88H132.87V63.8H129.29V58.71C129.29 58.55 129.38 58.47 129.56 58.47H135.07V55.9C135.07 55.71 134.97 55.61 134.78 55.61" fill="white"/>
<path d="M103.12 31.5801H93.76L90 22.0801L86.24 31.5801H76.9L84.3099 38.1001L81.9 48.0601L103.12 31.5801Z" fill="white"/>
<path d="M95.8199 39.03L90.76 42.96L98.1 48.42L95.8199 39.03Z" fill="#B4A168"/>
</svg>
