<svg width="180" height="180" viewBox="0 0 180 180" fill="none" xmlns="http://www.w3.org/2000/svg">
<path d="M140.917 39.0927C127.315 25.4904 109.243 18 90.0051 18C70.7672 18 52.695 25.4904 39.0927 39.0927C25.4904 52.695 18 70.7672 18 90.0051C18 109.243 25.4904 127.315 39.0927 140.917C52.695 154.51 70.7672 162 90.0051 162C109.243 162 127.315 154.51 140.917 140.917C154.52 127.315 162 109.233 162 90.0051C162 70.7774 154.51 52.695 140.917 39.0927Z" fill="#97272C"/>
<path d="M90.0052 159.121C51.8944 159.121 20.899 128.116 20.899 90.0151C20.899 51.9145 51.9045 20.9089 90.0052 20.9089C128.106 20.9089 159.111 51.9145 159.111 90.0151C159.111 128.116 128.106 159.121 90.0052 159.121ZM90.0052 24.4261C53.8405 24.4261 24.4161 53.8504 24.4161 90.0151C24.4161 126.18 53.8405 155.604 90.0052 155.604C126.17 155.604 155.594 126.18 155.594 90.0151C155.594 53.8504 126.17 24.4261 90.0052 24.4261Z" fill="white"/>
<path d="M42.1639 71.7707L38.9508 70.372L41.201 65.1925C41.7483 63.9256 41.5558 63.1451 40.4104 62.6484L38.5758 61.8477C37.4305 61.3511 36.7209 61.7463 36.1736 63.0032L33.1126 70.0679L41.3632 73.6458L42.1842 71.7606L42.1639 71.7707ZM38.2413 63.9154L39.1231 64.3006C39.6705 64.5337 39.6603 64.8581 39.4069 65.4459L37.5318 69.7638L35.3425 68.811L37.2176 64.4932C37.471 63.9053 37.7041 63.6823 38.2515 63.9154" fill="white"/>
<path d="M50.4753 57.4487L55.006 52.6241C56.1615 51.3875 56.2122 50.6983 54.9756 49.5428L51.5193 46.2993C50.2827 45.1438 49.6036 45.235 48.4379 46.4716L43.9072 51.2963C42.7517 52.5329 42.7011 53.2221 43.9275 54.3776L47.3838 57.621C48.6204 58.7765 49.2995 58.6853 50.4651 57.4487M53.8606 51.3672L49.1373 56.3946L44.9816 52.4923L49.7049 47.4649L53.8606 51.3672Z" fill="white"/>
<path d="M67.4224 40.2989L68.4766 39.7718C69.703 39.1536 70.0679 38.4339 69.5003 37.3088L68.5576 35.4236C68.0002 34.2985 67.1994 34.1566 65.973 34.7749L59.0908 38.2211L63.1248 46.2588L64.9594 45.3364L63.439 42.2957L65.2128 41.4037L69.9767 42.8126L72.6525 41.4645L67.4224 40.2888V40.2989ZM66.9866 36.7919L67.4731 37.7548C67.7366 38.2819 67.5339 38.5251 66.9562 38.8191L62.7498 40.9273L61.6247 38.6873L65.8311 36.579C66.4088 36.2952 66.723 36.2648 66.9967 36.7919" fill="white"/>
<path d="M75.8453 31.2577L76.0886 32.8389L80.1733 32.2004L81.3187 39.4982L83.3864 39.1738L82.2411 31.876L86.3258 31.2273L86.0825 29.6461L75.8453 31.2577Z" fill="white"/>
<path d="M102.867 38.2007L96.1879 37.2885L97.1812 30.0616L95.1034 29.7778L93.8871 38.6873L102.644 39.8833L102.867 38.2007Z" fill="white"/>
<path d="M117.625 36.1128L115.801 35.2411L107.317 41.1401L109.202 42.0524L110.996 40.7347L116.125 43.2079L116.247 45.4479L118.365 46.4716L117.615 36.133L117.625 36.1128ZM112.507 39.64L115.902 37.2074L116.054 41.3429L112.507 39.64Z" fill="white"/>
<path d="M128.988 48.8535C129.18 48.671 129.504 48.3365 129.961 47.7993C129.93 48.1642 129.93 48.4987 129.95 48.8433L130.498 57.4588L131.481 58.4927L137.978 52.2794L136.681 50.9212L133.265 54.1849C133.062 54.3775 132.718 54.7627 132.211 55.3202C132.261 54.8438 132.241 54.3674 132.211 53.9011L131.663 45.6708L130.68 44.637L124.183 50.8502L125.481 52.2084L128.988 48.8535Z" fill="white"/>
<path d="M137.826 69.6421C138.475 71.1118 139.113 72.1558 139.955 72.7336C141.161 73.5748 142.732 73.6762 144.283 72.9971C146.827 71.872 147.627 69.5712 146.259 66.5L143.918 61.2091L135.697 64.8479L137.826 69.6421ZM139.184 68.5475L138.09 66.0844L143.299 63.7735L144.799 67.169C145.6 68.963 145.104 70.2705 143.431 71.0105C141.394 71.9125 140.248 70.9699 139.174 68.5475" fill="white"/>
<path d="M40.7855 109.75L42.6505 113.439L36.0622 116.764L36.9946 118.629L43.5931 115.304L45.4581 119.004L46.8872 118.284L42.2247 109.03L40.7855 109.75Z" fill="white"/>
<path d="M58.3306 135.079L53.2525 130.964L55.452 128.268L53.8302 126.94L48.1643 133.924L49.786 135.241L52.2186 132.241L57.2967 136.356L54.854 139.357L56.496 140.684L62.1619 133.711L60.5199 132.373L58.3306 135.079Z" fill="white"/>
<path d="M82.3424 141.333L75.8859 139.863C74.2338 139.488 73.6155 139.792 73.2404 141.444L72.1863 146.066C71.8113 147.719 72.2471 148.256 73.8891 148.631L80.3457 150.1C81.9877 150.475 82.6161 150.171 82.9911 148.519L84.0453 143.897C84.4203 142.255 83.9844 141.708 82.3424 141.333ZM82.1296 142.924L80.8727 148.479L74.1425 146.948L75.3994 141.394L82.1296 142.924Z" fill="white"/>
<path d="M106.141 145.326C107.479 145.022 107.996 144.394 107.723 143.178L107.246 141.12C106.962 139.894 106.222 139.569 104.885 139.873L97.384 141.596L99.4011 150.354L101.408 149.898L100.648 146.583L102.584 146.137L106.871 148.631L109.79 147.962L104.986 145.58L106.141 145.316V145.326ZM104.317 141.596C104.945 141.454 105.26 141.505 105.391 142.083L105.635 143.137C105.766 143.715 105.503 143.897 104.874 144.039L100.293 145.093L99.7356 142.651L104.317 141.596Z" fill="white"/>
<path d="M125.146 128.572L128.085 132.271C128.258 132.484 128.613 132.88 129.119 133.427C128.643 133.336 128.177 133.305 127.7 133.305L119.45 133.092L118.335 133.984L123.93 141.019L125.399 139.843L122.369 136.042C122.207 135.839 121.903 135.485 121.416 134.978C121.781 135.049 122.115 135.069 122.46 135.089L131.086 135.332L132.201 134.441L126.606 127.406L125.136 128.572H125.146Z" fill="white"/>
<path d="M145.104 111.351L143.989 110.814C142.468 110.074 141.83 110.388 141.09 111.909L138.637 116.956L136.894 116.115L139.468 110.814L140.39 111.26L140.806 109.405L140.634 109.324C139.235 108.645 138.586 109.03 137.887 110.469L135.657 115.061C134.917 116.581 135.079 117.26 136.589 118L137.481 118.436C139.002 119.176 139.63 118.882 140.37 117.362L142.823 112.314L144.678 113.216L141.901 118.933L140.948 118.467L140.492 120.301L140.705 120.402C142.225 121.142 142.864 120.828 143.593 119.308L146.026 114.311C146.766 112.79 146.614 112.101 145.093 111.361" fill="white"/>
<path d="M143.32 80.8727C143.239 89.8632 134.126 89.9037 134.126 89.9037C134.126 89.9037 143.279 90.1166 143.279 99.1476C143.32 90.076 152.685 90.076 152.482 90.0355C152.27 89.995 143.239 89.9037 143.32 80.8828M145.529 89.326L144.577 89.478V88.7077H142.012V91.2923H144.577V90.4105L145.529 90.6132V91.0997C145.529 91.8701 145.286 92.0627 144.516 92.0627H142.083C141.313 92.0627 141.07 91.8599 141.07 91.0997V88.951C141.07 88.1806 141.313 87.988 142.083 87.988H144.516C145.286 87.988 145.529 88.1908 145.529 88.951V89.3361V89.326ZM36.7412 80.8828C36.6601 89.8733 27.5379 89.9139 27.5379 89.9139C27.5379 89.9139 36.7007 90.1267 36.7007 99.1578C36.7412 90.0862 46.1169 90.0862 45.8939 90.0456C45.681 90.0051 36.65 89.9138 36.7412 80.8929M38.7887 88.6976H35.606V89.772H37.319V90.5119H35.606V92.0627H34.6634V87.988H38.7887V88.6976Z" fill="white"/>
<path d="M65.4054 55.8574C61.2599 54.0938 59.101 54.7729 59.101 54.7729C59.101 54.7729 63.7837 56.3338 62.8005 60.5908C62.0809 63.6823 61.4626 67.4629 61.341 70.9598C61.0268 76.4129 61.5741 80.1936 57.7326 85.3831L59.8104 88.282C60.7429 87.5522 61.7768 86.0622 62.385 85.1601C66.6623 86.1535 68.7908 85.5656 68.7908 85.5656C68.7908 85.5656 63.9053 83.508 64.108 79.9706C64.3513 75.7845 64.554 72.0545 64.7162 68.8617C65.2838 59.1313 68.7503 54.3167 75.7339 57.6818L77.8218 54.8641C71.9532 51.9145 67.9495 53.3944 65.4054 55.8574Z" fill="white"/>
<path d="M50.0293 76.8385C45.6405 77.842 44.2924 79.6664 44.2924 79.6664C44.2924 79.6664 49.0056 78.1866 50.7084 82.2004C51.945 85.1297 53.6681 88.5454 55.6142 91.4443C58.5637 96.046 61.2295 98.7827 61.1788 105.239L64.5641 106.364C64.8885 105.229 64.8479 103.405 64.8074 102.32C68.8516 100.617 70.2301 98.884 70.2301 98.884C70.2301 98.884 65.071 100.09 63.1553 97.1102C60.8848 93.5829 58.8577 90.4408 57.1143 87.765C51.8639 79.5651 51.8335 73.6255 59.4557 72.247L59.4861 68.74C52.9991 69.8043 50.6375 73.3619 50.0192 76.8487" fill="white"/>
<path d="M49.928 102.857C46.9683 106.253 46.948 108.513 46.948 108.513C46.948 108.513 49.8874 104.54 53.6174 106.79C56.3338 108.432 59.7395 110.186 63.0235 111.392C68.1117 113.378 71.8822 114.027 75.6325 119.277L79.0381 118.193C78.6327 117.088 77.5279 115.639 76.8589 114.777C79.1294 111.017 79.2307 108.807 79.2307 108.807C79.2307 108.807 75.7643 112.821 72.46 111.534C68.5475 110.013 65.0709 108.665 62.0808 107.52C53.0093 103.972 49.4921 99.1881 54.854 93.5931L52.8167 90.7349C48.1947 95.4075 48.367 99.6747 49.928 102.857Z" fill="white"/>
<path d="M65.1317 123.96C64.7364 128.45 66.0439 130.285 66.0439 130.285C66.0439 130.285 66.0845 125.339 70.4328 124.964C73.6053 124.69 77.386 124.112 80.7409 123.149C86.0318 121.761 89.4578 120.068 95.5798 122.115L97.6982 119.237C96.715 118.578 94.9717 118.051 93.9277 117.757C93.5526 113.378 92.3363 111.534 92.3363 111.534C92.3363 111.534 91.8903 116.814 88.4644 117.716C84.4101 118.781 80.7916 119.733 77.7103 120.575C68.284 123.038 62.6282 121.234 63.6823 113.551L60.3476 112.436C59.3543 118.933 61.9997 122.278 65.1317 123.94" fill="white"/>
<path d="M89.8429 132.089C92.164 135.961 94.3027 136.671 94.3027 136.671C94.3027 136.671 91.4342 132.647 94.7284 129.788C97.1306 127.71 99.847 125.014 102.006 122.257C105.472 118.031 107.246 114.645 113.399 112.709L113.419 109.142C112.243 109.182 110.52 109.79 109.496 110.155C106.628 106.831 104.55 106.06 104.55 106.06C104.55 106.06 107.297 110.601 105.047 113.338C102.391 116.581 100.029 119.48 98.0225 121.963C91.8397 129.494 86.2041 131.359 82.5451 124.528L79.2003 125.582C82.2207 131.42 86.3257 132.576 89.8328 132.079" fill="white"/>
<path d="M114.605 124.153C118.75 125.916 120.909 125.237 120.909 125.237C120.909 125.237 116.227 123.666 117.21 119.419C117.929 116.328 118.548 112.547 118.669 109.05C118.984 103.597 118.436 99.8064 122.278 94.627L120.2 91.7281C119.277 92.4478 118.233 93.9479 117.625 94.85C113.348 93.8567 111.219 94.4446 111.219 94.4446C111.219 94.4446 116.105 96.5021 115.902 100.04C115.659 104.226 115.456 107.956 115.294 111.148C114.726 120.879 111.26 125.693 104.276 122.328L102.188 125.146C108.057 128.096 112.061 126.616 114.605 124.153Z" fill="white"/>
<path d="M129.981 103.172C134.37 102.168 135.718 100.344 135.718 100.344C135.718 100.344 131.005 101.834 129.302 97.8199C128.065 94.8906 126.342 91.4748 124.396 88.5658C121.446 83.9743 118.781 81.2275 118.831 74.7811L115.446 73.656C115.122 74.7912 115.162 76.6055 115.203 77.7002C111.159 79.403 109.78 81.1363 109.78 81.1363C109.78 81.1363 114.949 79.9301 116.855 82.91C119.125 86.4373 121.153 89.5794 122.896 92.2553C128.146 100.465 128.177 106.395 120.555 107.773L120.524 111.28C127.011 110.216 129.373 106.668 129.991 103.172" fill="white"/>
<path d="M130.092 77.163C133.052 73.7675 133.072 71.5072 133.072 71.5072C133.072 71.5072 130.133 75.4804 126.393 73.2303C123.666 71.5883 120.261 69.8348 116.987 68.6286C111.888 66.642 108.128 65.9933 104.378 60.7429L100.972 61.8274C101.378 62.9322 102.482 64.3817 103.151 65.2432C100.881 69.0036 100.79 71.2132 100.79 71.2132C100.79 71.2132 104.256 67.1994 107.56 68.4867C111.473 70.0071 114.96 71.3551 117.94 72.5005C127.011 76.048 130.528 80.8322 125.166 86.4272L127.204 89.2854C131.826 84.6128 131.643 80.3456 130.092 77.163Z" fill="white"/>
<path d="M114.878 56.0601C115.284 51.5699 113.966 49.7354 113.966 49.7354C113.966 49.7354 113.926 54.6816 109.577 55.0567C106.415 55.3303 102.624 55.9081 99.2693 56.871C93.9784 58.2596 90.5525 59.9523 84.4304 57.9048L82.312 60.7834C83.2851 61.4422 85.0386 61.9693 86.0825 62.2633C86.4576 66.642 87.6739 68.4867 87.6739 68.4867C87.6739 68.4867 88.1198 63.2059 91.5458 62.3038C95.6001 61.2395 99.2186 60.2868 102.3 59.4455C111.726 56.9825 117.382 58.7867 116.338 66.4696L119.663 67.5846C120.656 61.0875 118.01 57.7427 114.878 56.0804" fill="white"/>
<path d="M90.1774 47.921C87.8563 44.0491 85.7177 43.3396 85.7177 43.3396C85.7177 43.3396 88.5861 47.3635 85.292 50.2218C82.8898 52.3098 80.1733 54.9958 78.0144 57.7528C74.548 61.9794 72.7742 65.3648 66.6217 67.3109L66.6015 70.8787C67.7772 70.8382 69.5003 70.23 70.524 69.8651C73.4026 73.1897 75.4703 73.96 75.4703 73.96C75.4703 73.96 72.7235 69.4191 74.9737 66.6825C77.6293 63.439 79.9909 60.5401 81.9978 58.0568C88.1807 50.5259 93.8061 48.6609 97.4753 55.4925L100.82 54.4384C97.7996 48.6001 93.6946 47.4548 90.1876 47.9413" fill="white"/>
<path d="M105.29 89.7922C105.29 89.7922 103.445 93.6844 103.08 92.2451C102.199 88.7685 100.05 85.3629 92.4479 82.8188C93.9075 82.2512 95.7624 81.9978 98.0531 82.4944C104.216 83.8121 104.064 90.2281 104.094 90.2382C104.094 90.2382 106.04 87.9069 105.341 84.0249C104.124 77.244 94.9109 76.1088 94.9109 76.1088C94.9109 76.1088 98.0531 79.0584 96.5631 78.9671C92.9851 78.734 89.0828 79.7273 84.2987 86.1737C84.2075 84.6027 84.542 82.7681 85.7177 80.7409C88.8801 75.2878 94.9312 77.4164 94.9413 77.3859C94.9413 77.3859 93.3297 74.8216 89.4173 74.2844C82.5959 73.3417 78.6733 81.7545 78.6733 81.7545C78.6733 81.7545 82.454 79.6868 81.8965 81.0653C80.5586 84.4 80.3052 88.4138 84.9677 94.9514C83.4473 94.5561 81.8053 93.6641 80.2342 91.9207C76.0278 87.2279 79.92 82.1295 79.8997 82.1093C79.8997 82.1093 76.9604 82.8492 75.2474 86.3967C72.2472 92.5999 79.028 98.9246 79.028 98.9246C79.028 98.9246 78.2273 94.6878 79.3727 95.6507C82.1296 97.9516 85.8698 99.4314 93.5223 97.0292C92.6709 98.3469 91.3228 99.6443 89.1842 100.587C83.427 103.141 79.7781 97.8604 79.7477 97.8705C79.7477 97.8705 79.545 100.891 82.3932 103.628C87.3597 108.392 95.4785 103.901 95.4785 103.901C95.4785 103.901 91.2012 103.354 92.4682 102.563C95.5089 100.648 98.0733 97.5563 98.1544 89.5287C99.1477 90.745 99.9586 92.4276 100.202 94.7487C100.851 101.013 94.6981 102.857 94.7082 102.888C94.7082 102.888 97.5159 104.013 101.003 102.148C107.074 98.8942 105.31 89.7821 105.31 89.7821M90.289 95.3872C90.289 90.0558 84.8866 89.9341 84.8866 89.9341C84.8866 89.9341 90.2687 89.9139 90.3194 84.6027C90.2687 89.9341 95.6002 89.9848 95.7218 90.0051C95.8434 90.0355 90.3194 90.0355 90.289 95.3872Z" fill="white"/>
</svg>
