<svg width="64" height="64" viewBox="0 0 64 64" fill="none" xmlns="http://www.w3.org/2000/svg">
<path d="M46.8909 40.9999C41.9396 46.4118 40.3276 44.3104 39.464 41.7484L31.3749 17.3947C30.6264 15.1494 29.2446 13.2495 26.8841 12.501C23.2858 11.5798 19.3708 13.2782 18.0466 19.0932C19.342 17.222 21.7313 15.6388 23.9191 16.9629C25.819 18.0856 25.819 19.3522 25.0706 21.5688L24.4948 23.2673C22.2207 20.8779 17.4133 21.3673 16.8663 26.7505C18.3632 25.3975 23.7464 25.5126 22.1343 30.2624L17.2981 44.4543C13.268 44.4831 9.23783 46.527 8 51.5647C9.12268 49.7799 17.3845 46.2391 24.8403 51.6798L29.5613 45.8937C29.2446 45.577 26.6538 45.0301 24.7251 46.93C23.7176 46.0664 22.3934 45.4043 20.9541 44.9725L23.4297 37.6606H32.6127L35.8368 47.333C37.1034 51.1904 40.0685 53.3782 41.9396 50.4708C41.9396 50.4708 47.0637 42.8135 47.6682 41.9211C48.2439 40.9999 47.0349 40.856 46.8909 40.9999ZM24.7539 33.7168L28.0644 23.9869L31.3173 33.7168H24.7539Z" fill="#FFB819"/>
<path d="M38.3417 26.349H39.1765L41.1628 23.787V21.0234H38.2266V24.0173H39.2053L38.3417 26.349Z" fill="#FFB819"/>
<path d="M51.7561 27.7863C49.3956 27.3257 47.4381 26.8363 48.0426 25.1379C48.532 23.6986 52.0152 23.8425 53.2242 25.6561L55.0378 23.7849C52.9076 20.8487 47.7547 20.4745 45.6533 23.4107C42.7746 27.4696 46.0563 29.6574 49.7698 30.5786C51.2955 30.9528 53.2242 31.8452 52.2743 33.3134C51.4682 34.58 48.3017 33.9755 45.9412 31.8165L44.3291 34.0042C45.7684 35.6739 51.4107 39.1859 54.9226 34.9254C57.8589 31.3847 54.1166 28.2469 51.7561 27.7863Z" fill="#FFB819"/>
</svg>
