<svg width="64" height="64" viewBox="0 0 64 64" fill="none" xmlns="http://www.w3.org/2000/svg">
<path fill-rule="evenodd" clip-rule="evenodd" d="M3.1709 26.2097C3.1709 26.2097 4.1797 29.1339 9.733 28.9587C9.69206 29.0815 9.63147 29.2911 9.62819 29.4843C9.58234 31.9664 10.1179 37.859 17.3252 43.7794C17.3252 43.7794 17.674 49.8177 22.361 52.0198L22.3725 50.1681C24.3557 53.4803 26.3176 54.7999 29.8205 55.3042C26.0785 49.5492 32.8912 43.9333 32.8912 43.9333C33.1549 43.7155 33.4099 43.4978 33.6565 43.2805C33.4851 44.1548 33.3952 45.0583 33.3952 45.9828H33.3943C33.3943 53.6972 39.6484 59.9505 47.362 59.9505C55.0755 59.9505 61.3306 53.6972 61.3306 45.9828C61.3306 38.2683 55.0764 32.0151 47.3629 32.0151C44.6996 32.0151 42.2102 32.7607 40.0922 34.0546C41.0345 31.1197 40.7028 29.1536 40.7028 29.1536C46.2545 29.3959 47.3337 26.5405 47.3337 26.5405C44.1419 26.6027 42.9447 25.0882 42.9447 25.0882C47.1814 18.9975 42.514 14.8093 40.7077 13.5061C36.6594 6.4068 26.8957 4.09496 21.7764 4.68602L22.8507 6.1825C15.8218 6.37078 11.4755 9.59295 9.64948 13.6583C8.98623 14.1086 8.30824 14.6751 7.63516 15.384C4.64479 18.5342 5.75349 23.3527 7.57784 24.8115C7.57784 24.8115 6.36106 26.3112 3.1709 26.2097Z" fill="#003865"/>
<path fill-rule="evenodd" clip-rule="evenodd" d="M17.3248 43.7798C10.8484 38.4598 9.75918 33.1622 9.63814 30.3415C9.62448 30.0232 9.62315 29.7364 9.6278 29.4847C9.63108 29.2915 9.69167 29.0819 9.73261 28.9591C9.22133 28.9752 8.74857 28.9651 8.31157 28.9334C6.28008 28.7859 5.02144 28.1723 4.25844 27.5648C3.40287 26.8836 3.17051 26.2101 3.17051 26.2101C3.75718 26.2288 4.2771 26.1933 4.735 26.1229C5.43458 26.0155 5.98937 25.8266 6.41614 25.6251C7.229 25.2414 7.57745 24.8119 7.57745 24.8119C7.56756 24.804 7.5577 24.796 7.54785 24.7878C5.7412 23.3009 4.66061 18.5174 7.63477 15.3844C8.30785 14.6755 8.98584 14.109 9.64909 13.6587C11.33 9.91645 15.1465 6.88869 21.2251 6.28416C21.7499 6.23197 22.2916 6.19784 22.8503 6.18287L21.776 4.6864C22.2792 4.62829 22.8273 4.59824 23.4105 4.59803C28.7596 4.59611 37.057 7.10504 40.7073 13.5064C42.5137 14.8097 47.181 18.9979 42.9444 25.0886C42.9444 25.0886 43.736 26.0901 45.7482 26.4308C46.2104 26.5091 46.7371 26.5525 47.3333 26.5408C47.3333 26.5408 47.0791 27.2133 46.183 27.8779C45.3983 28.4598 44.1215 29.0356 42.0922 29.1486C41.6633 29.1725 41.2009 29.1757 40.7024 29.1539C40.7024 29.1539 40.7874 29.6579 40.7491 30.5363C40.7288 31.001 40.674 31.5707 40.5538 32.2259C40.4525 32.7785 40.3046 33.392 40.0918 34.0549C40.6263 33.7284 41.1845 33.4368 41.7631 33.1833C43.4773 32.4322 45.3713 32.0155 47.3625 32.0155C55.076 32.0155 61.3302 38.2687 61.3302 45.9832C61.3302 53.6976 55.0751 59.9508 47.3616 59.9508C40.1134 59.9508 34.1539 54.4294 33.4612 47.3625C33.4218 46.9611 33.3995 46.5548 33.3948 46.1442C33.3942 46.0906 33.3939 46.0369 33.3939 45.9832H33.3948C33.3948 45.7615 33.4 45.5411 33.4102 45.3221C33.4211 45.0879 33.4378 44.8553 33.4601 44.6243C33.4601 44.6243 33.4601 44.6242 33.4601 44.6242C33.4601 44.6239 33.4602 44.6235 33.4602 44.6232C33.5041 44.1691 33.5697 43.7212 33.6561 43.2808C33.4095 43.4982 33.1545 43.7159 32.8908 43.9337C32.8908 43.9337 32.6003 44.1731 32.1722 44.6038C32.1382 44.6381 32.1033 44.6735 32.0676 44.7101C32.0502 44.7281 32.0325 44.7463 32.0146 44.7648C30.5054 46.3294 27.7017 49.9042 29.0575 53.7693C29.2357 54.2774 29.4858 54.7904 29.8202 55.3046C29.1797 55.2124 28.5908 55.093 28.0439 54.9391C26.279 54.4425 24.9511 53.5873 23.7393 52.1318C23.7108 52.0976 23.6824 52.0631 23.6541 52.0282C23.3865 51.6992 23.1243 51.3403 22.8639 50.949C22.7933 50.8429 22.7228 50.7344 22.6524 50.6235C22.5589 50.4762 22.4655 50.3245 22.3721 50.1684L22.3606 52.0202C22.1216 51.9079 21.8938 51.7856 21.6768 51.6547C21.4334 51.5078 21.2036 51.35 20.9865 51.1831C17.6022 48.582 17.3248 43.7798 17.3248 43.7798ZM23.727 54.1169L23.7265 54.186L21.7741 53.2686C18.9799 51.9558 17.5348 49.524 16.7945 47.5609C16.4208 46.5699 16.2111 45.6601 16.0942 44.9973C16.0601 44.8041 16.0337 44.6307 16.0133 44.4809C9.49161 38.9259 8.37088 33.3542 8.25681 30.3122C6.06794 30.1605 4.56054 29.5174 3.54195 28.7541C2.93155 28.2967 2.52713 27.8183 2.26805 27.4306C2.13897 27.2374 2.04654 27.0676 1.98253 26.935C1.95052 26.8687 1.92554 26.8115 1.90659 26.7652C1.8971 26.742 1.88912 26.7215 1.8825 26.7039C1.87919 26.6951 1.87622 26.687 1.87358 26.6797C1.87276 26.6774 1.87198 26.6752 1.87122 26.6731L1.86986 26.6692L1.86818 26.6644L1.86738 26.6622C1.86699 26.661 1.86661 26.6599 3.17051 26.2101L1.86661 26.6599L1.21387 24.7678L3.21438 24.8315C4.2629 24.8649 5.01907 24.6961 5.53634 24.5008C4.91242 23.4614 4.52246 22.1541 4.42502 20.8339C4.27096 18.7464 4.82051 16.3456 6.63441 14.4348L6.63448 14.4347C7.26881 13.7666 7.91339 13.2071 8.55564 12.7412C10.4605 8.82542 14.4208 5.80415 20.306 5.00395L19.2875 3.58523L21.6178 3.31619C24.4282 2.99171 28.3744 3.46498 32.1421 4.92661C35.834 6.35881 39.5097 8.80195 41.7556 12.5663C42.7743 13.3379 44.4242 14.8219 45.3555 16.949C46.2944 19.0937 46.4394 21.755 44.7973 24.7221C45.3095 24.9537 46.1189 25.1849 47.3064 25.1618L49.3441 25.1221L48.6235 27.0285L47.3333 26.5408C48.6235 27.0285 48.6231 27.0296 48.6227 27.0307L48.6218 27.033L48.62 27.0378C48.6187 27.041 48.6174 27.0445 48.6159 27.0481C48.6131 27.0554 48.6099 27.0634 48.6063 27.0721C48.5992 27.0895 48.5906 27.1098 48.5804 27.1326C48.5602 27.1782 48.5336 27.2344 48.4998 27.2994C48.4323 27.4294 48.3354 27.5952 48.2015 27.7833C47.9326 28.1608 47.5171 28.624 46.8977 29.0633C45.8606 29.7989 44.3342 30.4111 42.1299 30.5278C42.1295 30.5384 42.1291 30.5491 42.1286 30.5599C42.1163 30.8645 42.0909 31.2067 42.0459 31.5826C43.7033 30.9704 45.4947 30.6362 47.3625 30.6362C55.8378 30.6362 62.7095 37.5069 62.7095 45.9832C62.7095 54.4595 55.8367 61.3301 47.3616 61.3301C39.1736 61.3301 32.4822 54.9173 32.0381 46.8393C31.7322 47.2324 31.4237 47.6746 31.1444 48.1547C30.0425 50.0486 29.5058 52.2908 30.9765 54.5527L32.635 57.1034L29.6236 56.6698C27.7374 56.3983 26.1498 55.89 24.7459 54.9269C24.3887 54.6818 24.0504 54.4121 23.727 54.1169Z" fill="#A7A8A9"/>
<path d="M34.974 12.2541C36.6641 11.6532 38.2182 12.2361 38.2182 12.2361C33.4772 6.53671 25.1153 6.72336 25.1153 6.72336L26.1945 8.17236C26.1945 8.17236 17.8277 6.53671 13.0867 12.2361C13.0867 12.2361 14.6408 11.6532 16.3293 12.2541C16.3293 12.2541 6.18724 17.8258 15.9182 21.9223C15.9182 21.9223 16.2441 25.5865 12.2875 25.5865C8.33094 25.5865 7.55469 27.6838 7.55469 27.6838C7.55469 27.6838 9.05478 26.821 12.5528 28.3748C12.5528 28.3748 12.1811 29.0182 11.0888 29.0182C11.0888 29.0182 12.1483 37.5043 16.6371 38.0331C16.6371 38.0331 17.2529 35.813 19.5653 34.4917C19.5653 34.4917 16.6617 38.2132 19.4588 41.6253C19.4588 41.6253 18.1504 45.5548 21.4142 48.2563C21.4142 48.2563 21.0408 46.547 21.7991 45.0374C21.7991 45.0374 22.8308 49.0275 25.7213 51.1772C25.7213 51.1772 20.6592 41.7219 29.4797 40.1616C24.6469 39.0269 19.7831 40.2631 19.7831 40.2631C19.2099 37.2898 21.162 36.1142 21.162 36.1142C22.1855 36.5121 23.9493 36.9803 24.6437 37.1261C25.3397 37.2718 26.0291 37.1981 26.0291 36.7708C26.0291 36.3434 25.6099 36.1961 25.6099 36.1961L23.3827 35.8719C23.3827 35.8719 21.3274 35.7082 21.2603 33.8891C21.1948 32.0718 23.4989 31.6837 24.1245 32.0341C24.5683 32.2813 24.9794 32.5941 25.5739 32.6252C26.17 32.5957 26.5794 32.283 27.0232 32.0341C27.3196 31.8687 27.9894 31.872 28.6084 32.1094C28.6084 32.1094 29.2717 32.3403 29.6484 33.0148C30.0119 32.2912 30.6915 31.4676 31.9313 30.6506C35.4113 28.3568 33.7785 27.0797 33.7785 27.0797C32.5323 28.8332 30.7718 28.1145 30.7718 28.1145C29.781 28.9593 28.6428 30.9781 28.6428 30.9781C28.6756 29.8451 29.501 27.2631 29.501 27.2631L28.4152 25.9483C31.3384 27.0895 34.3828 22.5166 34.5941 22.1924C35.0821 22.05 35.3834 21.9255 35.3834 21.9255C45.1161 17.8274 34.9724 12.2574 34.9724 12.2574L34.974 12.2541Z" fill="#E87722"/>
<path fill-rule="evenodd" clip-rule="evenodd" d="M29.8917 7.32722C32.5763 7.99335 35.855 9.37255 38.228 12.2253C38.2319 12.2299 38.2321 12.2365 38.2287 12.2414C38.2252 12.2463 38.2188 12.2483 38.2132 12.2462L38.2178 12.2337C38.2132 12.2462 38.2132 12.2462 38.2132 12.2462L38.2131 12.2462L38.2121 12.2458C38.2114 12.2455 38.2103 12.2451 38.2088 12.2446C38.2059 12.2435 38.2014 12.2419 38.1956 12.2399C38.1839 12.2358 38.1665 12.2299 38.1437 12.2225C38.0981 12.2078 38.031 12.1875 37.9452 12.1649C37.7736 12.1198 37.5271 12.0658 37.228 12.0306C36.635 11.9608 35.8354 11.9646 35.0012 12.2561C35.0031 12.2572 35.0052 12.2583 35.0073 12.2596C35.0263 12.2703 35.0542 12.2862 35.0902 12.3071C35.1622 12.349 35.2666 12.4109 35.3958 12.4911C35.6544 12.6515 36.0129 12.8853 36.4127 13.1787C37.2121 13.7652 38.1773 14.5906 38.8382 15.5447C39.4991 16.4989 39.8571 17.5841 39.4372 18.6884C39.0176 19.7919 37.8225 20.9104 35.3882 21.9354L35.3881 21.9354L35.383 21.9232C35.3881 21.9354 35.3881 21.9354 35.3881 21.9354L35.3881 21.9355L35.3879 21.9355L35.3872 21.9358L35.3845 21.9369C35.3822 21.9379 35.3787 21.9393 35.3741 21.9411C35.3648 21.9448 35.3511 21.9503 35.3331 21.9572C35.2972 21.9712 35.2441 21.9912 35.1759 22.0157C35.0402 22.0644 34.8443 22.1306 34.6021 22.2014C34.4859 22.3794 33.6751 23.5935 32.5301 24.6274C31.3892 25.6577 29.9113 26.5136 28.457 25.9762L29.5108 27.2523C29.5137 27.2557 29.5146 27.2605 29.5132 27.2648L29.5006 27.2607C29.5132 27.2648 29.5132 27.2647 29.5132 27.2648L29.5131 27.2652L29.5109 27.2722C29.5093 27.2771 29.507 27.2844 29.504 27.294C29.4979 27.3132 29.489 27.3414 29.4777 27.3778C29.4551 27.4506 29.4227 27.5558 29.3838 27.6857C29.3059 27.9453 29.2018 28.3034 29.0966 28.6968C28.8927 29.4595 28.6854 30.3535 28.6578 30.9221C28.6646 30.9103 28.6726 30.8965 28.6818 30.8806C28.7149 30.8237 28.7633 30.7415 28.8244 30.6402C28.9467 30.4376 29.12 30.1587 29.3243 29.8533C29.7328 29.243 30.2659 28.5257 30.7628 28.102C30.7666 28.0988 30.7718 28.0979 30.7764 28.0998L30.7714 28.1121C30.7764 28.0998 30.7764 28.0998 30.7764 28.0998L30.7765 28.0998L30.7767 28.0999L30.7776 28.1003C30.7784 28.1006 30.7796 28.1011 30.7813 28.1017C30.7846 28.103 30.7895 28.1049 30.796 28.1073C30.8091 28.1121 30.8284 28.1189 30.8535 28.1269C30.9037 28.143 30.977 28.1641 31.0688 28.184C31.2524 28.2238 31.5101 28.2587 31.8065 28.239C32.399 28.1998 33.1468 27.9428 33.7673 27.0696C33.7694 27.0667 33.7726 27.0647 33.7762 27.0642C33.7798 27.0637 33.7835 27.0646 33.7863 27.0669L33.7781 27.0773C33.7863 27.0669 33.7863 27.0669 33.7864 27.0669L33.7864 27.067L33.7867 27.0672L33.7876 27.0679C33.788 27.0683 33.7885 27.0686 33.789 27.0691C33.7897 27.0696 33.7904 27.0702 33.7912 27.0709C33.793 27.0723 33.7952 27.0742 33.7978 27.0765C33.7998 27.0782 33.802 27.0802 33.8045 27.0823C33.8158 27.0925 33.8319 27.1075 33.8511 27.1275C33.8894 27.1674 33.9402 27.227 33.9901 27.3056C34.0899 27.463 34.1863 27.6969 34.1728 28.0032C34.1457 28.6157 33.6792 29.5117 31.9382 30.6593C30.7001 31.4753 30.0222 32.2972 29.6598 33.0184C29.6576 33.0228 29.6532 33.0257 29.6483 33.0258C29.6433 33.0259 29.6388 33.0233 29.6364 33.019C29.4493 32.684 29.1911 32.4591 28.9794 32.3179C28.8736 32.2473 28.7795 32.1976 28.7119 32.1657C28.6781 32.1497 28.651 32.1382 28.6323 32.1306C28.6273 32.1286 28.6229 32.1268 28.6191 32.1254C28.6159 32.1241 28.6132 32.1231 28.6109 32.1223C28.6085 32.1214 28.6067 32.1207 28.6055 32.1202L28.6041 32.1198L28.6038 32.1196L28.6037 32.1196L28.6033 32.1195C28.2952 32.0013 27.9744 31.9414 27.694 31.9316C27.4131 31.9219 27.1744 31.9624 27.0293 32.0433C26.9516 32.0869 26.8749 32.1325 26.7979 32.1783C26.4365 32.3931 26.0688 32.6116 25.5741 32.6361C25.5737 32.6361 25.5732 32.6361 25.5728 32.6361C25.081 32.6103 24.7132 32.3928 24.3525 32.1795C24.2743 32.1333 24.1964 32.0872 24.1177 32.0434C23.9645 31.9576 23.7061 31.916 23.4041 31.9315C23.1027 31.9469 22.7596 32.019 22.4381 32.1585C21.7953 32.4375 21.2406 32.9848 21.2731 33.8863C21.3065 34.7896 21.8329 35.2816 22.3523 35.5485C22.6121 35.682 22.87 35.759 23.063 35.8026C23.1595 35.8244 23.2397 35.8378 23.2957 35.8458C23.3237 35.8498 23.3457 35.8524 23.3606 35.8541C23.3681 35.8549 23.3738 35.8554 23.3776 35.8558C23.3795 35.856 23.381 35.8561 23.3819 35.8562L23.383 35.8563L23.3833 35.8563L23.3833 35.8563C23.3833 35.8563 23.3833 35.8563 23.3832 35.8576L23.3833 35.8563C23.3836 35.8563 23.3839 35.8564 23.3842 35.8564L25.6114 36.1806C25.6119 36.1807 25.6124 36.1808 25.613 36.1809C25.6133 36.181 25.6136 36.1811 25.6139 36.1812L25.6095 36.1937C25.6139 36.1812 25.6139 36.1812 25.6139 36.1812L25.6139 36.1812L25.614 36.1812L25.6143 36.1813L25.6153 36.1817C25.6161 36.182 25.6174 36.1825 25.619 36.1831C25.6222 36.1843 25.6268 36.1862 25.6327 36.1887C25.6444 36.1937 25.6611 36.2012 25.6811 36.2117C25.7211 36.2325 25.7744 36.2648 25.8278 36.3108C25.9346 36.4027 26.042 36.5498 26.042 36.7684C26.042 36.8793 25.9971 36.9677 25.9188 37.0348C25.8409 37.1015 25.7306 37.1469 25.5997 37.174C25.3379 37.2281 24.9895 37.2098 24.6406 37.1367C23.9471 36.9912 22.1883 36.5243 21.163 36.1266C21.1594 36.1289 21.1541 36.1323 21.1471 36.1369C21.1331 36.1461 21.1126 36.1601 21.0867 36.1789C21.0347 36.2166 20.9611 36.2739 20.8744 36.3519C20.7011 36.5079 20.4759 36.7468 20.2685 37.0784C19.8551 37.7391 19.5119 38.7686 19.7931 40.2445C19.7933 40.2444 19.7934 40.2444 19.7936 40.2443C19.803 40.242 19.817 40.2386 19.8354 40.2342C19.8723 40.2254 19.927 40.2127 19.9983 40.1969C20.1408 40.1653 20.3499 40.1214 20.6158 40.0723C21.1476 39.974 21.907 39.8549 22.8175 39.7713C24.6384 39.604 27.0641 39.5785 29.4823 40.1463C29.4885 40.1477 29.4927 40.1533 29.4926 40.1596C29.4924 40.1659 29.4878 40.1712 29.4816 40.1723C27.2791 40.5619 25.9451 41.444 25.1818 42.5462C24.4183 43.6488 24.2243 44.9736 24.3057 46.2513C24.387 47.529 24.7437 48.7583 25.0802 49.6685C25.2484 50.1235 25.4116 50.4986 25.5326 50.7599C25.5931 50.8906 25.6432 50.9928 25.678 51.0623C25.6955 51.0971 25.7091 51.1237 25.7184 51.1416C25.7203 51.1452 25.722 51.1486 25.7236 51.1515C25.7257 51.1557 25.7276 51.1591 25.729 51.1618L25.7317 51.1669L25.7323 51.1682L25.7325 51.1685C25.7325 51.1685 25.7325 51.1685 25.731 51.1694L25.7326 51.1686C25.7355 51.1741 25.7342 51.1809 25.7295 51.1849C25.7248 51.189 25.7179 51.1892 25.7129 51.1855C24.2653 50.1088 23.2836 48.5718 22.6639 47.3046C22.354 46.6709 22.1345 46.1045 21.9925 45.6964C21.9215 45.4924 21.8698 45.328 21.8359 45.2145C21.819 45.1578 21.8064 45.1138 21.7982 45.0839C21.797 45.0798 21.7959 45.0759 21.795 45.0723C21.43 45.8155 21.3366 46.6043 21.3352 47.2106C21.3345 47.518 21.3574 47.7782 21.3805 47.9616C21.392 48.0533 21.4036 48.1258 21.4123 48.1753C21.4167 48.2 21.4203 48.219 21.4228 48.2318C21.4241 48.2382 21.4251 48.243 21.4258 48.2463L21.4265 48.2499L21.4267 48.2508L21.4268 48.251L21.4268 48.2511C21.4268 48.2511 21.4268 48.2511 21.4138 48.2539L21.4268 48.2511C21.428 48.2566 21.4256 48.2623 21.4207 48.2653C21.4159 48.2682 21.4097 48.2678 21.4053 48.2642C19.7699 46.9105 19.28 45.2489 19.1989 43.9262C19.1584 43.2649 19.2201 42.6882 19.2919 42.2769C19.3278 42.0712 19.3663 41.9068 19.3957 41.7937C19.4105 41.7372 19.423 41.6935 19.4318 41.6639C19.4362 41.6492 19.4397 41.6379 19.4421 41.6303C19.4427 41.6286 19.4432 41.6271 19.4436 41.6258C18.0462 39.9172 18.0733 38.1313 18.45 36.7731C18.6384 36.0933 18.9145 35.5204 19.1434 35.1176C19.2578 34.9161 19.3605 34.7571 19.4346 34.6484C19.4679 34.5996 19.4955 34.5609 19.5157 34.5331C18.3941 35.1887 17.68 36.0553 17.245 36.7625C17.0239 37.1219 16.875 37.44 16.7814 37.6683C16.7346 37.7824 16.7016 37.874 16.6803 37.937C16.6697 37.9685 16.662 37.9929 16.6569 38.0094C16.6544 38.0176 16.6526 38.0239 16.6513 38.0281C16.6507 38.0302 16.6503 38.0317 16.65 38.0328L16.6496 38.0339L16.6496 38.0342L16.6496 38.0343C16.6495 38.0343 16.6495 38.0343 16.6368 38.0308L16.6496 38.0343C16.6478 38.0406 16.6417 38.0447 16.6352 38.0439C15.5086 37.9112 14.5979 37.2792 13.8659 36.4076C13.134 35.5361 12.5801 34.4242 12.1668 33.3297C11.7535 32.2351 11.4806 31.1571 11.3111 30.3528C11.2263 29.9507 11.1673 29.6169 11.1296 29.3837C11.1107 29.267 11.0971 29.1755 11.0882 29.1132C11.0838 29.082 11.0805 29.0581 11.0784 29.042C11.0773 29.0339 11.0765 29.0278 11.076 29.0237L11.0754 29.0191L11.0752 29.0176C11.0752 29.0176 11.0752 29.0175 11.0884 29.0159L11.0752 29.0175C11.0747 29.0138 11.0759 29.01 11.0784 29.0071C11.0809 29.0042 11.0846 29.0026 11.0884 29.0026C11.6317 29.0026 11.9951 28.8426 12.2224 28.6833C12.3361 28.6036 12.4159 28.5239 12.4672 28.4643C12.4929 28.4345 12.5114 28.4097 12.5234 28.3925C12.5273 28.387 12.5305 28.3822 12.533 28.3783C10.7928 27.6074 9.54976 27.4362 8.74195 27.4576C8.33694 27.4683 8.04124 27.5274 7.84704 27.5837C7.74993 27.6119 7.67818 27.6393 7.63082 27.6597C7.60714 27.6698 7.58956 27.6782 7.57795 27.6841C7.57214 27.687 7.56783 27.6892 7.56499 27.6908C7.56358 27.6915 7.56253 27.6921 7.56185 27.6925L7.56111 27.6929L7.56094 27.693L7.56091 27.693C7.55606 27.6958 7.54999 27.6952 7.54572 27.6916C7.54145 27.688 7.5399 27.6821 7.54184 27.6769L7.55429 27.6815C7.54184 27.6769 7.54185 27.6769 7.54186 27.6768L7.54189 27.6768L7.54202 27.6764L7.54248 27.6752C7.54289 27.6741 7.5435 27.6726 7.54432 27.6705C7.54595 27.6665 7.54842 27.6605 7.55179 27.6527C7.55854 27.6371 7.56892 27.6143 7.58352 27.5854C7.61272 27.5276 7.65879 27.4451 7.72645 27.3463C7.86176 27.1486 8.08339 26.8854 8.42895 26.6223C9.12022 26.0959 10.3064 25.5709 12.2871 25.5709C13.2742 25.5709 13.993 25.3424 14.5163 25.0005C15.0397 24.6586 15.3684 24.2028 15.5741 23.7466C15.7799 23.2903 15.8625 22.8338 15.8937 22.4912C15.9093 22.32 15.912 22.1773 15.9108 22.0775C15.9102 22.0276 15.9087 21.9884 15.9073 21.9618C15.9066 21.9484 15.9059 21.9382 15.9054 21.9314C15.9053 21.9305 15.9053 21.9297 15.9052 21.929C13.4763 20.9052 12.2835 19.7882 11.8644 18.6858C11.4446 17.5816 11.8025 16.4964 12.4633 15.5421C13.1241 14.5878 14.0891 13.7623 14.8884 13.1756C15.2881 12.8822 15.6465 12.6484 15.9051 12.4879C16.0344 12.4076 16.1387 12.3457 16.2107 12.3038C16.2467 12.2829 16.2746 12.267 16.2936 12.2563C16.2946 12.2557 16.2957 12.2551 16.2967 12.2545C15.465 11.9646 14.6677 11.9609 14.076 12.0306C13.7769 12.0658 13.5305 12.1198 13.3589 12.1649C13.2731 12.1875 13.206 12.2078 13.1605 12.2225C13.1377 12.2299 13.1203 12.2358 13.1086 12.2399C13.1027 12.2419 13.0983 12.2435 13.0953 12.2446C13.0939 12.2451 13.0928 12.2455 13.092 12.2458L13.0912 12.2461L13.091 12.2462L13.091 12.2462C13.091 12.2462 13.091 12.2462 13.0902 12.2442L13.091 12.2462C13.0853 12.2483 13.079 12.2463 13.0755 12.2414C13.072 12.2365 13.0723 12.2299 13.0761 12.2253C15.4496 9.37194 18.7304 8.35514 21.4166 8.05141C22.7598 7.89954 23.9547 7.92592 24.8137 7.99025C25.2433 8.02242 25.5889 8.06408 25.8272 8.09771C25.9464 8.11453 26.0387 8.12933 26.1012 8.13994C26.127 8.14432 26.1478 8.14798 26.1633 8.15077L25.1043 6.72894C25.1013 6.72496 25.1008 6.71965 25.103 6.71519C25.1052 6.71072 25.1097 6.70785 25.1146 6.70774L25.1149 6.72101C25.1146 6.70774 25.1147 6.70774 25.1147 6.70774L25.115 6.70773L25.1162 6.70771L25.1208 6.70762C25.1248 6.70756 25.1309 6.70747 25.1389 6.70738C25.1549 6.7072 25.1787 6.70702 25.21 6.70703C25.2725 6.70706 25.3647 6.70784 25.4838 6.71085C25.722 6.71689 26.0674 6.73187 26.4966 6.76767C27.3552 6.83927 28.5493 6.99414 29.8917 7.32722ZM25.1411 6.73391L26.2048 8.16208C26.2081 8.16648 26.2083 8.17244 26.2054 8.17708C26.2024 8.18172 26.197 8.18409 26.1916 8.18304L26.1941 8.17001C26.1916 8.18304 26.1916 8.18303 26.1915 8.18302L26.1901 8.18275L26.1856 8.18189C26.1816 8.18113 26.1756 8.18 26.1676 8.17855C26.1517 8.17564 26.128 8.1714 26.0968 8.16612C26.0345 8.15555 25.9424 8.14078 25.8235 8.124C25.5857 8.09045 25.2407 8.04885 24.8118 8.01673C23.9539 7.95249 22.7608 7.92616 21.4196 8.0778C18.7487 8.37979 15.4923 9.38741 13.1272 12.2054C13.1347 12.203 13.1431 12.2002 13.1523 12.1972C13.1983 12.1824 13.2659 12.1619 13.3521 12.1392C13.5247 12.0938 13.7724 12.0396 14.0729 12.0042C14.6738 11.9335 15.4866 11.9379 16.3333 12.2392C16.3383 12.241 16.3417 12.2455 16.3421 12.2507C16.3425 12.2559 16.3398 12.2609 16.3353 12.2634L16.3289 12.2518C16.3353 12.2634 16.3352 12.2634 16.3352 12.2634L16.3348 12.2636L16.3335 12.2644C16.3322 12.2651 16.3304 12.2661 16.328 12.2674C16.3232 12.2701 16.316 12.2741 16.3066 12.2794C16.2878 12.2901 16.2599 12.3059 16.224 12.3268C16.1522 12.3686 16.0481 12.4303 15.9191 12.5104C15.661 12.6706 15.3031 12.9041 14.9041 13.197C14.1058 13.783 13.1435 14.6065 12.4851 15.5572C11.8268 16.5079 11.4738 17.5837 11.8892 18.6763C12.3049 19.7696 13.4914 20.884 15.923 21.9077C15.9275 21.9096 15.9306 21.9138 15.931 21.9187L15.9178 21.9199C15.931 21.9187 15.931 21.9187 15.9311 21.9188L15.9311 21.9194L15.9313 21.9215C15.9314 21.9226 15.9315 21.924 15.9316 21.9256C15.9317 21.9268 15.9318 21.9281 15.9319 21.9295C15.9324 21.9365 15.9331 21.9468 15.9338 21.9604C15.9352 21.9874 15.9368 22.0269 15.9374 22.0772C15.9386 22.1778 15.9358 22.3214 15.9201 22.4936C15.8888 22.8381 15.8056 23.2977 15.5983 23.7575C15.3909 24.2174 15.0592 24.6776 14.5309 25.0227C14.0025 25.3679 13.2784 25.5974 12.2871 25.5974C10.3113 25.5974 9.13103 26.121 8.44503 26.6434C8.10195 26.9046 7.88223 27.1657 7.74836 27.3613C7.68142 27.4591 7.63593 27.5405 7.60723 27.5974C7.59576 27.6201 7.58697 27.6389 7.58055 27.6532C7.5912 27.6482 7.60445 27.6421 7.62034 27.6353C7.66868 27.6145 7.74146 27.5867 7.83964 27.5582C8.03602 27.5013 8.33397 27.4418 8.74124 27.431C9.55582 27.4095 10.8073 27.5827 12.5578 28.3603C12.5613 28.3618 12.5639 28.3647 12.5651 28.3683C12.5662 28.3719 12.5658 28.3758 12.5639 28.3791L12.5524 28.3724C12.5639 28.3791 12.5639 28.3791 12.5639 28.3791L12.5639 28.3791L12.5638 28.3792L12.5636 28.3797C12.5634 28.38 12.5631 28.3805 12.5627 28.3811C12.5619 28.3824 12.5607 28.3843 12.5592 28.3868C12.5561 28.3916 12.5515 28.3987 12.5452 28.4077C12.5327 28.4256 12.5136 28.4511 12.4873 28.4816C12.4348 28.5427 12.3534 28.6239 12.2376 28.705C12.0081 28.8659 11.6441 29.0262 11.1035 29.0291C11.1038 29.0319 11.1042 29.035 11.1047 29.0385C11.1068 29.0545 11.1101 29.0783 11.1145 29.1094C11.1233 29.1716 11.1369 29.263 11.1558 29.3794C11.1935 29.6123 11.2524 29.9457 11.337 30.3474C11.5064 31.1508 11.779 32.2273 12.1917 33.3203C12.6044 34.4134 13.157 35.5222 13.8863 36.3905C14.613 37.2559 15.5144 37.8817 16.6271 38.0162C16.6283 38.0124 16.6297 38.0075 16.6315 38.0016C16.6366 37.9849 16.6444 37.9603 16.6551 37.9285C16.6766 37.865 16.7098 37.7728 16.7568 37.6582C16.8509 37.4288 17.0004 37.1094 17.2224 36.7486C17.6662 36.027 18.3997 35.1398 19.5583 34.4778C19.5638 34.4746 19.5708 34.4758 19.5749 34.4806C19.5791 34.4854 19.5793 34.4925 19.5754 34.4975L19.5649 34.4893C19.5754 34.4975 19.5753 34.4975 19.5753 34.4975L19.5749 34.4981L19.5733 34.5001C19.572 34.5019 19.5699 34.5046 19.5672 34.5081C19.5619 34.5152 19.5539 34.5258 19.5437 34.5398C19.5232 34.5678 19.4934 34.6093 19.4566 34.6634C19.3828 34.7715 19.2805 34.9299 19.1665 35.1307C18.9383 35.5322 18.6633 36.103 18.4755 36.7801C18.1001 38.1342 18.0736 39.9127 19.4687 41.6145C19.4716 41.6181 19.4725 41.6228 19.471 41.6271L19.4584 41.623C19.471 41.6271 19.471 41.6272 19.471 41.6272L19.4708 41.6278L19.4701 41.6299C19.4695 41.6318 19.4686 41.6346 19.4674 41.6383C19.4651 41.6458 19.4616 41.6569 19.4573 41.6715C19.4485 41.7008 19.4361 41.7442 19.4214 41.8004C19.3921 41.9128 19.3538 42.0765 19.3181 42.2814C19.2465 42.6913 19.1851 43.2658 19.2254 43.9246C19.3056 45.2341 19.7881 46.8763 21.3934 48.2197C21.3914 48.2087 21.3889 48.1954 21.3862 48.1798C21.3774 48.13 21.3658 48.0571 21.3541 47.9649C21.3309 47.7806 21.3079 47.5192 21.3086 47.2106C21.3101 46.5933 21.4064 45.7864 21.7868 45.0291C21.7893 45.0241 21.7946 45.0213 21.8001 45.0219C21.8056 45.0224 21.8101 45.0264 21.8115 45.0317L21.811 45.0319C21.8115 45.0317 21.8115 45.0318 21.8115 45.0318L21.8116 45.0319L21.8117 45.0324L21.8123 45.0346C21.8128 45.0365 21.8135 45.0393 21.8145 45.0431C21.8166 45.0507 21.8196 45.062 21.8237 45.0768C21.832 45.1065 21.8445 45.1503 21.8614 45.2069C21.8952 45.32 21.9467 45.4841 22.0176 45.6877C22.1593 46.095 22.3784 46.6604 22.6878 47.293C23.2999 48.5446 24.2648 50.058 25.6822 51.1293C25.6744 51.1141 25.6651 51.0957 25.6543 51.0742C25.6193 51.0045 25.5692 50.902 25.5085 50.7711C25.3872 50.5093 25.2238 50.1335 25.0553 49.6777C24.7183 48.7662 24.3607 47.5342 24.2792 46.253C24.1976 44.9718 24.3919 43.6403 25.16 42.5311C25.9209 41.4323 27.2436 40.5537 29.4135 40.1576C27.0199 39.6057 24.6234 39.632 22.8199 39.7977C21.9104 39.8813 21.1518 40.0003 20.6206 40.0984C20.355 40.1474 20.1463 40.1912 20.004 40.2228C19.9329 40.2386 19.8783 40.2513 19.8416 40.26C19.8232 40.2644 19.8093 40.2678 19.8 40.2701C19.7953 40.2713 19.7918 40.2721 19.7895 40.2727L19.7868 40.2734L19.7862 40.2735L19.786 40.2736C19.786 40.2736 19.786 40.2736 19.7827 40.2607L19.786 40.2736C19.7824 40.2745 19.7787 40.2739 19.7756 40.2719C19.7725 40.27 19.7704 40.2668 19.7697 40.2632C19.4824 38.7732 19.8279 37.7326 20.246 37.0643C20.4549 36.7303 20.6819 36.4895 20.8567 36.3321C20.9441 36.2535 21.0185 36.1956 21.071 36.1574C21.0973 36.1383 21.1182 36.1241 21.1325 36.1147C21.1397 36.11 21.1452 36.1065 21.149 36.1041C21.1508 36.1029 21.1523 36.102 21.1532 36.1014L21.1543 36.1007L21.1546 36.1006L21.1547 36.1005C21.1547 36.1005 21.1548 36.1005 21.1616 36.1119L21.1548 36.1005C21.1583 36.0984 21.1626 36.098 21.1664 36.0995C22.1891 36.497 23.9521 36.9651 24.646 37.1107C24.993 37.1834 25.3374 37.2011 25.5943 37.1479C25.7228 37.1214 25.8283 37.0773 25.9015 37.0146C25.9742 36.9523 26.0155 36.8711 26.0155 36.7684C26.0155 36.5597 25.9133 36.4194 25.8105 36.3309C25.759 36.2866 25.7075 36.2553 25.6689 36.2352C25.6496 36.2251 25.6335 36.2179 25.6223 36.2131C25.6167 36.2107 25.6124 36.209 25.6094 36.2079C25.608 36.2073 25.607 36.2069 25.6062 36.2067C25.6062 36.2067 25.6062 36.2066 25.6061 36.2066L23.3812 35.8828L23.3811 35.8828L23.3808 35.8827L23.3804 35.8827L23.3796 35.8826C23.3786 35.8826 23.3771 35.8824 23.3751 35.8822C23.3712 35.8819 23.3653 35.8813 23.3577 35.8805C23.3425 35.8788 23.3203 35.8761 23.292 35.8721C23.2353 35.864 23.1544 35.8505 23.0572 35.8285C22.8627 35.7846 22.6026 35.7069 22.3402 35.5721C21.8151 35.3023 21.2804 34.803 21.2466 33.8873C21.2136 32.9714 21.7783 32.416 22.4276 32.1342C22.7521 31.9933 23.0983 31.9205 23.4028 31.905C23.7067 31.8894 23.971 31.9308 24.1306 32.0202C24.2105 32.0646 24.2891 32.1111 24.3678 32.1576C24.728 32.3706 25.0891 32.584 25.5735 32.6095C26.0607 32.5853 26.4216 32.3708 26.7826 32.1564C26.8601 32.1104 26.9376 32.0643 27.0163 32.0202C27.1676 31.9358 27.412 31.8952 27.6949 31.9051C27.9782 31.915 28.3018 31.9754 28.6127 32.0946C28.6127 32.0946 28.6128 32.0947 28.6128 32.0947L28.613 32.0947L28.6145 32.0953C28.6158 32.0957 28.6177 32.0965 28.6202 32.0974C28.6234 32.0986 28.6275 32.1002 28.6325 32.1021C28.6354 32.1033 28.6387 32.1046 28.6423 32.106C28.6613 32.1137 28.689 32.1255 28.7232 32.1417C28.7918 32.1741 28.8871 32.2243 28.9941 32.2958C29.2036 32.4356 29.4588 32.6567 29.6473 32.9844C30.0148 32.2637 30.6948 31.4469 31.9236 30.6372C33.6625 29.4909 34.1197 28.6015 34.1462 28.002C34.1595 27.7023 34.0652 27.4736 33.9677 27.3198C33.9189 27.2429 33.8693 27.1848 33.8319 27.1459C33.8133 27.1265 33.7977 27.1119 33.7868 27.1021C33.7845 27.1001 33.7825 27.0983 33.7806 27.0967C33.1565 27.9677 32.405 28.226 31.8083 28.2655C31.5088 28.2854 31.2486 28.2502 31.0631 28.21C30.9704 28.1899 30.8964 28.1685 30.8454 28.1522C30.8296 28.1471 30.816 28.1425 30.8048 28.1386C30.7979 28.1362 30.792 28.1341 30.7869 28.1322C30.7816 28.1303 30.7772 28.1286 30.774 28.1274C30.2818 28.5492 29.7531 29.2604 29.3464 29.8681C29.1424 30.173 28.9692 30.4516 28.8471 30.6539C28.7861 30.7551 28.7378 30.8372 28.7048 30.894C28.6882 30.9224 28.6756 30.9445 28.667 30.9594C28.6627 30.9669 28.6595 30.9726 28.6573 30.9764L28.6548 30.9808L28.6541 30.9821L28.654 30.9822C28.654 30.9822 28.654 30.9822 28.6515 30.9808L28.654 30.9822C28.651 30.9875 28.6448 30.9901 28.6389 30.9885C28.633 30.9869 28.629 30.9814 28.6292 30.9753C28.6456 30.407 28.8606 29.4768 29.071 28.6899C29.1762 28.2962 29.2805 27.9379 29.3584 27.678C29.3973 27.5481 29.4297 27.4428 29.4524 27.3699C29.4637 27.3335 29.4726 27.3052 29.4786 27.286C29.4817 27.2764 29.484 27.2691 29.4856 27.2641L29.4857 27.2636L28.4046 25.9544C28.4007 25.9498 28.4005 25.9431 28.404 25.9382C28.4076 25.9333 28.414 25.9314 28.4196 25.9336C29.8735 26.5012 31.3598 25.6485 32.5123 24.6077C33.664 23.5677 34.4771 22.3446 34.5826 22.1828C34.5843 22.1801 34.5869 22.1782 34.59 22.1773C34.8337 22.1062 35.0308 22.0395 35.1669 21.9907C35.235 21.9663 35.2878 21.9463 35.3235 21.9325C35.3414 21.9255 35.3551 21.9201 35.3642 21.9165C35.3688 21.9146 35.3722 21.9132 35.3745 21.9123L35.3771 21.9113L35.3778 21.911L35.3779 21.9109C37.8099 20.8869 38.9966 19.7723 39.4124 18.6789C39.8278 17.5862 39.4748 16.5105 38.8163 15.5599C38.1579 14.6093 37.1954 13.786 36.397 13.2001C35.9979 12.9072 35.64 12.6738 35.3818 12.5136C35.2528 12.4336 35.1487 12.3718 35.0769 12.3301C35.041 12.3092 35.0131 12.2933 34.9943 12.2827C34.9848 12.2774 34.9777 12.2734 34.9729 12.2707L34.9697 12.2689L34.9674 12.2677L34.9661 12.2669L34.9657 12.2667C34.9656 12.2667 34.9656 12.2667 34.972 12.255L34.9656 12.2667C34.9594 12.2632 34.9569 12.2555 34.9601 12.2491L34.9618 12.2458C34.9633 12.2427 34.966 12.2404 34.9692 12.2392C35.8167 11.9379 36.6299 11.9335 37.2311 12.0042C37.5317 12.0396 37.7794 12.0938 37.952 12.1392C38.0383 12.1619 38.1058 12.1824 38.1518 12.1972C38.1611 12.2002 38.1694 12.203 38.1769 12.2055C35.8114 9.38368 32.5554 8.01552 29.8853 7.35299C28.5446 7.02032 27.3519 6.86564 26.4944 6.79413C26.0657 6.75838 25.7208 6.74342 25.4831 6.7374C25.3643 6.73438 25.2723 6.73361 25.21 6.73358C25.18 6.73357 25.157 6.73373 25.1411 6.73391Z" fill="#003865"/>
<path fill-rule="evenodd" clip-rule="evenodd" d="M28.6001 34.5848C28.4838 33.9152 28.0449 33.4125 26.9657 33.7203C26.2746 33.9184 25.929 34.1509 25.7718 34.2934C25.7407 34.3376 25.7014 34.3818 25.6539 34.4227C25.6048 34.3818 25.5655 34.3376 25.536 34.2934C25.3772 34.1509 25.0316 33.9184 24.3389 33.7187C23.2597 33.4109 22.8208 33.9135 22.7045 34.5832C22.7045 34.5832 22.3033 32.774 23.9147 33.0097C24.9039 33.1538 25.4099 33.4191 25.6539 33.6008C25.8979 33.4191 26.404 33.1555 27.3931 33.0097C29.0029 32.7723 28.6017 34.5832 28.6017 34.5832L28.6001 34.5848Z" fill="white"/>
<path fill-rule="evenodd" clip-rule="evenodd" d="M21.0557 39.0783C21.0851 38.8998 21.0982 38.7262 21.1163 38.5609C21.8123 38.4184 22.8538 38.2825 23.3156 38.2727C22.9128 38.1286 21.8221 38.0239 21.2636 37.9682C21.3717 37.7472 21.5633 37.5392 21.9187 37.3477C24.3965 38.0713 27.0561 38.4348 29.5338 37.4279C29.732 37.5932 29.9023 37.7963 30.0415 38.0058C29.4634 38.0664 28.697 38.1565 28.3727 38.2727C28.7805 38.2809 29.6419 38.3873 30.3166 38.5101C30.4018 38.7099 30.4542 38.8949 30.4689 39.0357C26.6057 38.5936 24.4849 38.5936 21.0573 39.0766L21.0557 39.0783Z" fill="white"/>
<path fill-rule="evenodd" clip-rule="evenodd" d="M22.7026 34.5832C22.7026 34.5832 22.3014 32.774 23.9112 33.0097C24.9003 33.1538 25.4064 33.4191 25.6504 33.6008C25.8944 33.4191 26.4004 33.1555 27.3896 33.0097C28.9994 32.7723 28.5998 34.5832 28.5998 34.5832C28.4835 33.9135 28.0446 33.4109 26.9654 33.7187C26.2727 33.9168 25.9272 34.1509 25.7683 34.2934C25.7388 34.3376 25.6995 34.3801 25.6504 34.4227C25.6013 34.3818 25.562 34.3376 25.5325 34.2934C25.3753 34.1509 25.0297 33.9184 24.3386 33.7203C23.2594 33.4125 22.8205 33.9152 22.7042 34.5848L22.7026 34.5832Z" fill="white"/>
<path d="M16.8679 22.4609C16.8679 22.4609 19.8566 27.1256 22.888 25.9418L21.8022 27.2565C21.8022 27.2565 22.6325 29.2016 22.6865 31.3956C22.6865 31.3956 21.7956 29.2655 20.5314 28.1096C20.5314 28.1096 18.7709 28.8283 17.5246 27.0748C16.2784 25.3213 14.7881 26.0515 14.7881 26.0515C14.7881 26.0515 16.9776 24.871 16.8679 22.4609Z" fill="#003865"/>
<path fill-rule="evenodd" clip-rule="evenodd" d="M16.8787 22.4553L16.8675 22.4625C16.8787 22.4553 16.8787 22.4553 16.8787 22.4554L16.8792 22.4562L16.8808 22.4587C16.8823 22.4609 16.8844 22.4642 16.8873 22.4686C16.893 22.4773 16.9016 22.4903 16.9129 22.5072C16.9354 22.541 16.969 22.5905 17.0127 22.653C17.1003 22.7781 17.2287 22.9555 17.3923 23.1647C17.7196 23.5831 18.1874 24.1286 18.7497 24.637C19.8753 25.6547 21.3748 26.5199 22.8827 25.931C22.8884 25.9288 22.8948 25.9307 22.8983 25.9356C22.9019 25.9405 22.9016 25.9471 22.8978 25.9518L21.8171 27.2603C21.8187 27.264 21.8208 27.2691 21.8234 27.2754C21.8295 27.2902 21.8385 27.3123 21.8499 27.3411C21.8728 27.3986 21.9055 27.4833 21.9448 27.5918C22.0236 27.8087 22.1292 28.1207 22.2365 28.5013C22.451 29.2624 22.6723 30.2984 22.6994 31.3968C22.6996 31.4032 22.6951 31.4088 22.6889 31.4101C22.6827 31.4115 22.6763 31.4082 22.6739 31.4023L22.6861 31.3971C22.6739 31.4023 22.6739 31.4023 22.6739 31.4023L22.6738 31.4022L22.6732 31.4007L22.6713 31.3962C22.6696 31.3921 22.667 31.3861 22.6636 31.3782C22.6568 31.3623 22.6466 31.3389 22.6332 31.3087C22.6065 31.2483 22.5668 31.1607 22.5152 31.0519C22.412 30.8344 22.2613 30.5323 22.0711 30.1941C21.6918 29.5197 21.156 28.7027 20.5281 28.1265C20.5249 28.1277 20.5206 28.1293 20.5155 28.1312C20.5021 28.1361 20.4824 28.143 20.4569 28.1512C20.406 28.1676 20.332 28.1889 20.2392 28.209C20.0538 28.2492 19.7935 28.2844 19.4941 28.2646C18.8947 28.2248 18.1391 27.9645 17.5134 27.084C16.8925 26.2105 16.212 25.9567 15.6877 25.9204C15.4252 25.9022 15.2015 25.9384 15.0433 25.9792C14.9643 25.9996 14.9017 26.0211 14.8589 26.0375C14.8375 26.0457 14.8211 26.0526 14.8101 26.0574C14.8045 26.0599 14.8004 26.0618 14.7976 26.0631C14.7962 26.0637 14.7952 26.0642 14.7945 26.0645L14.7937 26.0649L14.7936 26.065L14.7935 26.065C14.7935 26.065 14.7935 26.065 14.7934 26.0647L14.7935 26.065C14.787 26.0682 14.7792 26.0656 14.7759 26.0591C14.7726 26.0527 14.775 26.0448 14.7814 26.0414L14.7877 26.0531C14.7814 26.0414 14.7814 26.0414 14.7814 26.0414L14.7818 26.0412L14.7829 26.0405C14.7839 26.04 14.7855 26.0391 14.7875 26.038C14.7916 26.0357 14.7977 26.0323 14.8056 26.0277C14.8215 26.0185 14.8449 26.0048 14.8746 25.9863C14.934 25.9495 15.0188 25.8942 15.1203 25.8202C15.3233 25.6723 15.5928 25.45 15.8589 25.1527C16.391 24.558 16.9089 23.6637 16.8543 22.4631C16.854 22.4571 16.8578 22.4517 16.8635 22.4498C16.8692 22.448 16.8755 22.4503 16.8787 22.4553ZM14.9249 25.986C14.9573 25.9755 14.9947 25.9643 15.0367 25.9535C15.197 25.9122 15.4236 25.8755 15.6895 25.8939C16.2219 25.9308 16.9097 26.1887 17.535 27.0687C18.1556 27.9418 18.9034 28.1988 19.4958 28.2381C19.7923 28.2577 20.05 28.2228 20.2336 28.1831C20.3254 28.1632 20.3986 28.1421 20.4488 28.1259C20.4739 28.1179 20.4933 28.1111 20.5063 28.1063C20.5128 28.1039 20.5178 28.102 20.5211 28.1007C20.5227 28.1001 20.524 28.0996 20.5248 28.0993L20.5257 28.0989L20.5259 28.0988C20.5259 28.0988 20.5259 28.0988 20.531 28.1111L20.5259 28.0988C20.5307 28.0969 20.5361 28.0979 20.5399 28.1013C21.1736 28.6807 21.7132 29.5037 22.0942 30.1811C22.2848 30.5199 22.4358 30.8226 22.5392 31.0406C22.5909 31.1496 22.6306 31.2374 22.6575 31.298C22.6624 31.309 22.6669 31.3191 22.6709 31.3283C22.6366 30.2585 22.4205 29.2524 22.2109 28.5085C22.1038 28.1286 21.9985 27.8172 21.9199 27.6008C21.8806 27.4926 21.848 27.4082 21.8252 27.3509C21.8138 27.3222 21.8049 27.3003 21.7989 27.2855C21.7958 27.2782 21.7935 27.2726 21.7919 27.2689L21.7902 27.2647L21.7897 27.2636L21.7896 27.2634L21.7896 27.2633C21.7896 27.2633 21.7896 27.2633 21.7907 27.2628L21.7896 27.2633C21.7876 27.2588 21.7884 27.2535 21.7916 27.2496L22.8453 25.9736C21.338 26.5326 19.8469 25.6648 18.7319 24.6567C18.1681 24.1469 17.6993 23.6002 17.3714 23.181C17.2075 22.9714 17.0787 22.7936 16.991 22.6682C16.9471 22.6055 16.9135 22.5559 16.8908 22.522C16.8879 22.5177 16.8852 22.5136 16.8827 22.5098C16.922 23.6952 16.4068 24.5802 15.8786 25.1704C15.611 25.4694 15.34 25.6929 15.1359 25.8417C15.053 25.9021 14.9811 25.9502 14.9249 25.986Z" fill="#003865"/>
<path d="M14.8654 27.5664C14.2202 32.3096 18.4208 29.7145 17.6151 34.6493L16.8699 33.5228C15.9447 32.3162 11.6294 30.8262 14.3643 28.0494L14.8654 27.5664Z" fill="#003865"/>
<path d="M8.07158 19.9194C8.12726 21.4633 8.92644 22.8337 10.2022 23.8538C10.361 23.97 10.5919 24.0552 10.8703 24.0928C11.622 24.1943 12.472 23.9029 12.7668 23.4445C12.9682 23.1301 12.8355 22.8125 12.5064 22.6144C10.7066 21.5665 9.51272 19.9358 9.44394 18.0512C9.41446 17.2392 9.59624 16.45 9.94506 15.7148C8.72501 16.8888 8.01426 18.3591 8.07158 19.9194Z" fill="white"/>
<path d="M19.398 27.552C19.9089 27.552 20.3642 27.2622 20.6721 26.8071C19.5519 26.4731 18.5366 25.6004 17.798 24.8047C17.7489 25.0044 17.7227 25.2156 17.7227 25.435C17.7227 26.6041 18.4727 27.552 19.398 27.552Z" fill="white"/>
<path d="M19.9242 26.3493C19.9242 26.7194 19.6245 27.019 19.2561 27.019C18.8876 27.019 18.5879 26.7194 18.5879 26.3493C18.5879 25.9793 18.8876 25.6797 19.2561 25.6797C19.6245 25.6797 19.9242 25.9793 19.9242 26.3493Z" fill="#003865"/>
<path d="M31.903 27.552C31.3921 27.552 30.9368 27.2622 30.6289 26.8071C31.7491 26.4731 32.7644 25.6004 33.503 24.8047C33.5521 25.0044 33.5783 25.2156 33.5783 25.435C33.5783 26.6041 32.8283 27.552 31.903 27.552Z" fill="white"/>
<path d="M31.376 26.3493C31.376 26.7194 31.6757 27.019 32.0441 27.019C32.4126 27.019 32.7123 26.7194 32.7123 26.3493C32.7123 25.9793 32.4126 25.6797 32.0441 25.6797C31.6757 25.6797 31.376 25.9793 31.376 26.3493Z" fill="#003865"/>
<path d="M43.0798 19.9194C43.0241 21.4633 42.225 22.8337 40.9492 23.8538C40.7904 23.97 40.5595 24.0552 40.2827 24.0928C39.531 24.1943 38.6811 23.9029 38.3863 23.4445C38.1848 23.1301 38.3175 22.8125 38.6467 22.6144C40.4465 21.5665 41.6403 19.9358 41.7091 18.0512C41.7386 17.2392 41.5584 16.45 41.208 15.7148C42.428 16.8888 43.1388 18.3591 43.0831 19.9194H43.0798Z" fill="white"/>
<path d="M52.7197 53.3543C52.3694 53.142 42.5076 54.8382 42.5076 54.8382L44.5724 59.5141C44.5724 59.5141 51.5562 58.7644 51.7985 58.5629C52.0418 58.3615 53.9241 57.1017 53.7426 56.4256C53.5592 55.7504 52.7188 53.3543 52.7188 53.3543" fill="#003865"/>
<path d="M51.3616 43.4683C52.7302 45.7373 54.0689 47.2266 55.3613 47.9345C54.9992 49.059 54.4746 50.1009 53.8257 51.0439C53.5743 50.9895 53.322 50.9368 53.0715 50.8742C46.3409 49.2115 40.8963 45.0031 37.5092 39.5267C38.5284 37.9539 39.897 36.6633 41.4835 35.7385C44.9704 35.714 48.2041 38.2416 51.3616 43.4674" fill="#E87722"/>
<path d="M52.4487 42.8155C49.6796 38.2313 46.789 35.5721 43.6723 34.7489C45.7253 34.0591 47.9888 33.9203 50.2405 34.4766C50.6789 34.5855 51.1027 34.718 51.5157 34.8723C54.9463 37.5987 56.5836 42.2718 55.6896 46.6672C54.832 46.1091 53.7538 44.9764 52.4478 42.8155" fill="#E87722"/>
<path d="M56.5555 48.3746C56.8006 48.4163 57.0429 48.429 57.2843 48.4118C58.0186 48.3573 58.6148 48.0351 59.085 47.6367C59.0314 48.0088 58.9597 48.3828 58.8671 48.7558C58.6185 49.7641 58.2418 50.7053 57.7662 51.5774C56.9149 51.5302 56.06 51.4422 55.2023 51.307C55.7587 50.403 56.217 49.4219 56.5555 48.3737" fill="#E87722"/>
<path d="M57.1852 47.1455C57.0936 47.1519 56.9928 47.1483 56.8875 47.1383C57.6672 43.6123 56.9529 39.9058 55.066 36.957C57.5346 39.0699 59.0621 42.1466 59.1982 45.4466C59.004 45.8341 58.3043 47.0666 57.1852 47.1455Z" fill="#E87722"/>
<path d="M52.9668 52.1536C52.1382 53.1038 51.1689 53.9179 50.1052 54.5687C48.8927 54.0069 47.2027 53.6566 45.0345 53.5232C41.75 53.3217 39.1008 52.7127 37.1476 51.7198C35.72 49.1913 35.2127 46.1363 35.9614 43.1014C36.1629 42.2818 36.4488 41.504 36.8037 40.7734C40.3786 46.2407 45.9412 50.4238 52.7671 52.11C52.8325 52.1255 52.9005 52.1391 52.9659 52.1536" fill="#E87722"/>
<path d="M52.2413 56.6806C52.0762 56.1797 51.7739 55.7359 51.3392 55.351C52.5 54.5623 53.5383 53.5849 54.4096 52.4531C55.2736 52.6092 56.1376 52.7254 56.9971 52.7953C55.7736 54.4961 54.1246 55.833 52.2413 56.6797" fill="#E87722"/>
<path d="M44.9562 54.7893C46.4102 54.8782 47.6245 55.0715 48.582 55.3601C46.3403 56.334 43.8127 56.6289 41.3368 56.0399C40.2595 55.3919 39.3084 54.5787 38.5024 53.6484C40.3067 54.2511 42.4613 54.6368 44.9562 54.7893Z" fill="#E87722"/>
<path d="M51.041 57.1482C49.2721 57.7227 47.3472 57.8852 45.4113 57.5494C47.0849 57.367 48.6949 56.8551 50.1607 56.0664C50.6154 56.3777 50.9094 56.7407 51.041 57.1482Z" fill="#E87722"/>
<path d="M38.289 40.7105C38.0195 40.3238 37.7572 39.9308 37.5085 39.5306C38.5277 37.9578 39.8973 36.6672 41.4837 35.7424C42.5256 35.7351 43.5448 35.9611 44.5459 36.4131C42.011 37.121 39.8219 38.6557 38.289 40.7105Z" fill="white"/>
<path d="M46.4977 36.0401C45.5756 35.4329 44.6344 35.0036 43.6724 34.7486C45.7254 34.0597 47.9889 33.92 50.2415 34.4763C50.6789 34.5852 51.1028 34.7177 51.5166 34.872C52.5849 35.7206 53.4788 36.7589 54.1768 37.9188C52.3217 36.6935 50.1008 35.9784 47.7121 35.9784C47.3018 35.9784 46.897 36.0002 46.4977 36.041" fill="white"/>
<path d="M55.0657 36.9579C57.4717 39.0172 58.9792 41.9932 59.1807 45.197C58.7423 43.1976 57.7957 41.3888 56.4815 39.9139C56.1312 38.8729 55.6556 37.8782 55.0657 36.957" fill="white"/>
<path d="M36.04 49.0315C35.5227 47.1537 35.461 45.1226 35.9611 43.1014C36.1625 42.2809 36.4484 41.504 36.8033 40.7734C37.0402 41.1374 37.2888 41.4941 37.543 41.8453C36.5419 43.5742 35.9647 45.58 35.9647 47.7219C35.9647 48.1648 35.9919 48.6013 36.0391 49.0315" fill="white"/>
<path d="M55.6902 46.6641C55.6902 46.6641 55.5958 38.0639 49.8018 35.2422L52.9158 36.2069C55.3717 38.9787 56.4517 42.9212 55.6902 46.6641Z" fill="white"/>
<path d="M51.3616 43.4702C52.7302 45.7391 54.0689 47.2285 55.3613 47.9364C55.3613 47.9364 52.4353 47.0242 49.8015 42.4292C47.1668 37.8341 42.49 36.5362 41.027 36.9555C41.027 36.9555 42.0725 36.4382 43.1444 35.9336C46.006 36.6043 48.7115 39.082 51.3616 43.4692" fill="white"/>
<path d="M36.5813 42.5559L37.2974 41.4922C40.8814 46.6046 46.2452 50.499 52.768 52.1091C52.8334 52.1254 52.9015 52.1381 52.9668 52.1526C52.9668 52.1526 43.861 52.0465 36.5813 42.5559Z" fill="white"/>
</svg>
