<svg width="64" height="64" viewBox="0 0 64 64" fill="none" xmlns="http://www.w3.org/2000/svg">
<g clip-path="url(#clip0_14399_94438)">
<g clip-path="url(#clip1_14399_94438)">
<path d="M55.9621 23.7523L55.8385 23.3956C55.4439 22.2502 54.9706 21.1491 54.4339 20.0901C56.2831 16.3178 63.9989 6.58218 63.9989 6.58218C63.9989 6.58218 59.59 9.96481 57.0447 11.2603C57.0927 10.9888 57.4985 8.56858 57.4985 8.56858C57.4985 8.56858 53.8574 11.9132 50.4544 14.3139C45.6132 8.98395 38.6794 5.76172 31.2009 5.76172C28.2947 5.76172 25.4171 6.25215 22.6489 7.21861C9.06361 11.9635 1.84979 26.9396 6.56325 40.6058C10.2085 51.1547 20.1097 58.2417 31.2009 58.2417C34.1081 58.2417 36.9866 57.7503 39.7589 56.7828C53.2226 52.081 60.4272 37.324 55.9591 23.7564L55.9632 23.7523H55.9621Z" fill="#A0A2A3"/>
<path d="M54.4622 24.2536L54.4663 24.2495L54.3498 23.9133C53.9746 22.8296 53.5269 21.7881 53.0168 20.7856C53.2233 19.4192 53.6864 18.2091 54.495 16.9465C55.691 15.0814 58.7873 11.6854 58.7873 11.6854C57.6373 12.6025 54.7342 14.1674 54.7342 14.1674C54.9314 13.8744 55.692 12.218 55.692 12.218C55.0756 12.8812 51.462 15.5893 51.462 15.5893C51.0358 15.7456 50.5267 15.9399 49.9686 16.1589C45.4023 10.6902 38.5841 7.34766 31.2026 7.34766C28.4712 7.34766 25.7695 7.80827 23.1649 8.71716C10.4055 13.1742 3.62611 27.2445 8.05335 40.084C11.4788 49.9923 20.78 56.6507 31.2016 56.6507C33.933 56.6507 36.6367 56.1901 39.2403 55.2812C45.5965 53.0614 50.4664 48.4542 53.209 42.8014C53.253 42.8385 53.2795 42.859 53.2795 42.859C53.3163 42.712 53.3501 42.5681 53.3828 42.4231C55.9445 36.9122 56.5016 30.4523 54.4602 24.2546" fill="#0C233F"/>
<path d="M29.7715 14.4395C32.7206 15.3381 33.5087 14.8384 36.8126 15.3802C37.4903 14.2698 38.1374 13.0319 38.7118 11.6562C33.9166 12.2536 29.7725 14.4384 29.7725 14.4384" fill="#266092"/>
<path d="M27.3525 17.1222C27.3525 17.1222 29.2569 19.1436 29.6893 19.6247C29.6893 19.6247 30.6267 20.1182 32.1181 21.1063C33.2221 20.0997 34.5786 18.6727 35.8963 16.787C33.0065 16.4642 30.642 16.4848 28.5322 15.543C28.5322 15.543 27.5672 16.6955 27.3525 17.1222Z" fill="#266092"/>
<path d="M39.8611 16.0274C40.3722 16.1559 40.9191 16.2998 41.515 16.4674C43.0228 16.889 44.3353 17.4123 45.4833 17.9767C46.2643 17.6539 47.124 17.3033 47.9714 16.9599C44.4856 13.0601 40.687 11.5117 40.687 11.5117C40.1412 11.523 39.5963 11.5621 39.0576 11.6197C39.0668 12.6365 39.1977 14.3833 39.8621 16.0284" fill="#266092"/>
<path d="M43.6357 18.7389C42.6502 18.3245 41.7128 17.9945 40.8174 17.7344C41.2569 18.3112 41.8008 18.8263 42.4816 19.2211C42.4816 19.2211 42.9303 19.0319 43.6346 18.7389" fill="#266092"/>
<path d="M28.7599 20.7543C27.2522 20.2752 24.2407 19.8711 24.2407 19.8711C23.9841 19.9821 22.3066 20.8869 22.3066 20.8869C23.6519 21.9521 24.6874 23.1612 25.4898 24.4957C27.6825 23.5395 29.727 22.9771 29.727 22.9771C29.727 22.9771 30.1921 22.6954 30.9322 22.1125C29.5961 21.2231 28.7599 20.7553 28.7599 20.7553" fill="#266092"/>
<path d="M23.7679 18.6598C23.7679 18.6598 25.6222 18.9569 27.3109 19.287C26.3388 18.1879 25.1612 17.3808 25.1612 17.3808L26.6894 15.1055L23.5931 16.7032C23.5931 16.7032 21.3677 16.5367 20.1973 16.512C21.2696 17.1947 22.2029 17.9822 22.2029 17.9822L20.8464 20.2894L23.7679 18.6598Z" fill="#79BC43"/>
<path d="M36.2321 46.7597C33.4823 45.2802 30.6661 46.4512 29.834 48.0891C31.3786 52.978 34.0271 54.3166 34.0271 54.3166C36.2413 53.9362 38.1763 53.3481 39.863 52.65C39.6708 50.9186 38.9277 48.2094 36.2331 46.7597" fill="#266092"/>
<path d="M29.3729 50.8792C27.1802 51.1691 22.2235 51.1835 21.9321 45.4423C21.9321 45.4423 21.2973 44.26 21.3863 42.9398C21.3863 42.9398 19.5851 42.105 18.8399 39.769C18.8399 39.769 17.0592 38.8683 17.0204 36.6578C16.9815 34.4473 18.796 33.0994 19.4768 32.4167C20.1555 31.7319 20.4939 31.3793 20.3773 30.9855C20.2588 30.5917 19.5544 28.9775 21.0643 27.2954C21.8044 26.4709 22.9615 25.7327 24.1902 25.1086C22.6068 22.5156 20.9549 21.7578 20.9549 21.7578C20.6891 21.9357 20.0451 22.5186 20.0451 22.5186C19.0638 24.0465 15.5974 29.2047 15.3521 37.4186C15.1068 45.6346 17.9179 50.0968 17.9179 50.0968C25.6653 55.4432 32.0787 54.5127 32.0787 54.5127C30.9164 53.4301 30.0435 52.2035 29.3749 50.8782" fill="#266092"/>
<path d="M19.7542 19.849C19.9515 19.4922 20.6364 18.2841 20.6364 18.2841C18.1473 16.2648 14.6145 16.782 14.6145 16.782C12.3093 18.9185 10.2373 24.0099 10.2373 24.0099C15.5355 18.5175 19.7552 19.8479 19.7552 19.8479" fill="#266092"/>
<path d="M23.3185 15.3219C23.9002 15.0638 25.9211 14.1806 25.9211 14.1806C24.212 12.5345 24.7405 10.3477 24.7405 10.3477C19.5087 11.9033 16.0996 15.2848 16.0996 15.2848C18.6572 15.1368 23.3196 15.3219 23.3196 15.3219" fill="#266092"/>
<path d="M18.2105 22.6771C18.3199 22.4581 19.0099 21.1832 19.0099 21.1832C13.8548 20.6413 9.25992 27.422 9.25992 27.422C6.70743 40.2729 15.6754 48.1948 15.6754 48.1948C10.5704 33.1385 18.2115 22.6771 18.2115 22.6771" fill="#266092"/>
<path d="M27.4637 13.534C33.6615 10.8485 37.6103 10.3169 37.6103 10.3169C31.064 8.4981 26.3045 9.93032 26.3045 9.93032C25.5685 12.5943 27.4637 13.533 27.4637 13.533" fill="#266092"/>
<path d="M21.1646 29.5898C21.1646 29.5898 21.7575 30.8617 22.9126 30.7403C22.9126 30.7403 20.86 32.3124 21.1646 29.5898Z" fill="#79BC43"/>
<path d="M28.0479 30.5726C28.0479 30.5726 29.5035 30.1675 30.1608 29.5958C30.8211 29.0262 32.1378 28.3672 32.1378 28.3672C32.1378 28.3672 30.9602 31.9462 28.0479 30.5726Z" fill="#79BC43"/>
<path d="M23.0136 35.7584C23.0136 35.7584 21.4025 35.7358 20.502 35.9661C20.502 35.9661 20.6512 36.289 20.7309 36.3445C20.7309 36.3445 21.9862 36.2036 22.7836 36.1872L23.0146 35.7584H23.0136Z" fill="#79BC43"/>
<path d="M24.2451 39.3359C24.2451 39.3359 24.8615 39.4367 25.5301 39.3544C25.5301 39.3544 25.5617 40.3898 25.8786 41.0735C25.8786 41.0735 24.6785 40.5183 24.2451 39.3359Z" fill="white"/>
<path d="M19.9248 39.7416C19.9248 39.7416 20.2703 40.8592 21.453 41.3383C21.453 41.3383 21.0584 40.23 21.0983 39.5586C21.0983 39.5586 20.3899 39.8239 19.9248 39.7426" fill="white"/>
<path d="M23.0367 44.8255C23.0367 44.8255 23.6858 44.6065 23.971 44.5634C23.971 44.5634 23.2647 43.9732 22.9396 43.3008C22.9396 43.3008 22.637 44.0955 23.0377 44.8245" fill="white"/>
<path d="M25.5033 42.9648C25.5033 42.9648 25.3469 43.6259 25.6495 44.3796C25.6495 44.3796 26.1882 44.2644 26.6993 44.3313C26.6993 44.3313 26.0553 43.8501 25.5033 42.9648Z" fill="white"/>
<path d="M53.3734 16.4776C53.3734 16.4776 52.1999 17.7381 51.7287 20.3362C51.2595 22.9334 52.2766 27.2639 49.9684 30.5695C49.9684 30.5695 48.9441 29.4817 48.9278 28.4124C48.9114 27.3411 48.9298 25.8842 48.5884 24.5476C48.5884 24.5476 48.0108 26.4764 46.8373 27.1056C46.8373 27.1056 45.5861 25.2549 46.8373 22.6578C48.0906 20.0586 52.0824 17.1078 53.3744 16.4766" fill="white"/>
<path d="M37.9118 32.2238C30.7102 32.2238 25.3875 35.1365 25.3875 35.1365C25.3875 35.1365 29.4979 31.2398 37.599 31.2398C47.5391 31.2398 51.6106 36.3837 51.6106 36.3837C50.4371 32.2371 48.1135 30.8728 46.3655 28.5892C44.4642 26.1052 44.4611 23.4711 46.4964 20.9244C48.5306 18.3797 52.0532 16.4375 52.0532 16.4375C52.0532 16.4375 45.6081 19.0346 43.1813 20.033C40.7546 21.0292 39.6863 21.3192 37.3383 21.897C34.9892 22.4738 31.3092 23.2223 28.2967 24.9547C25.2832 26.6861 25.1166 28.2592 25.1166 28.2592C24.353 27.0655 24.6679 25.9911 24.6679 25.9911C23.9257 26.4239 21.6022 27.3966 21.6799 28.5635C21.7903 30.1901 24.1987 30.0616 24.1987 30.0616C23.4698 31.5205 22.3607 31.8176 22.3607 31.8176C21.8107 32.6957 21.316 32.6977 21.316 32.6977C21.2659 32.5528 21.1391 32.2042 21.1391 32.2042C18.3935 34.2441 18.1655 35.6105 18.1655 35.6105C18.6347 35.8552 18.9792 36.2027 18.9792 36.2027C18.787 36.2171 18.0878 36.2675 18.0878 36.2675C18.0265 36.5441 18.0878 37.0859 18.0878 37.0859C19.0047 37.3717 19.2225 37.6761 19.2225 37.6761C19.0252 37.6555 18.2217 37.6966 18.2217 37.6966C18.2217 37.6966 18.417 38.5418 19.3564 38.5819C20.2958 38.6209 20.9419 37.6966 20.9419 37.6966C20.1588 36.7908 19.7091 35.5118 19.7091 35.5118L20.7906 33.8616C20.6802 34.279 20.397 35.3781 20.397 35.3781C21.2996 35.1067 22.9383 35.0584 22.9383 35.0584C24.308 34.1526 25.9671 33.2026 25.9671 33.2026C23.1049 35.7174 22.8003 37.6966 22.8003 37.6966C24.9541 39.3098 27.3389 37.5095 28.1639 37.1044C28.1639 37.1044 30.9412 36.0032 32.2333 35.5694C33.5254 35.1365 37.2054 34.3109 37.2054 34.3109C30.7071 34.1536 25.7371 36.8299 25.7371 36.8299C25.7371 36.8299 28.5554 33.4442 37.0868 33.4442C46.4402 33.4442 51.8406 39.2316 51.8406 39.2316C50.1979 35.2147 44.4847 32.2238 37.9087 32.2238M29.1299 29.1979C30.5507 28.0392 33.3005 26.7129 35.2366 26.2934C35.2366 26.2934 33.5091 27.8716 32.8988 29.2339C32.8344 29.3768 32.7342 29.5403 32.6105 29.7151C33.186 29.6184 33.8914 29.4405 33.8914 29.4405C32.8599 30.6784 29.9987 31.648 29.9987 31.648C30.0539 31.6295 30.1173 31.5956 30.1838 31.5606C29.5531 31.7775 28.862 31.8351 28.17 31.6038C27.7989 31.8947 27.6722 32.3595 27.6722 32.3595C27.2827 31.9636 26.9464 31.0476 26.8544 30.7761C26.5907 30.5201 26.33 30.2096 26.0795 29.8354C26.0795 29.8354 27.711 30.3587 29.1299 29.201" fill="#A0A2A3"/>
<path d="M32.7852 21.9888C32.7852 21.9888 35.6361 19.6076 38.2428 14.9727C38.2428 14.9727 38.6159 18.1322 40.8873 19.7453C40.8873 19.7453 39.1659 20.4548 37.9126 20.6902C36.6594 20.9257 32.7862 21.9898 32.7862 21.9898" fill="#A0A2A3"/>
<path d="M23.2432 45.9034C23.2432 45.9034 25.5738 45.2053 27.6745 45.2557C27.6745 45.2557 32.434 42.2638 30.0205 37.7234C30.0205 37.7234 32.6169 35.7021 39.5578 36.2532C39.5578 36.2532 34.6522 34.0735 27.8943 37.2495C27.8943 37.2495 32.8786 34.0324 37.7311 34.3367C43.6017 34.7038 45.7781 36.1545 47.0712 37.8263C48.5329 39.716 48.6127 42.5301 47.9585 44.6923C47.9585 44.6923 47.5731 39.6769 41.8292 39.3685C41.8292 39.3685 49.3405 44.2635 41.1811 52.3757C41.1811 52.3757 40.8877 45.4109 33.9213 44.901C33.9213 44.901 34.5489 44.2553 35.1337 43.8687C35.1337 43.8687 32.2234 43.624 29.4992 46.1204C26.8383 48.5612 28.1376 49.5657 28.1376 49.5657C28.1376 49.5657 24.0333 50.4489 23.2432 45.9034Z" fill="white"/>
</g>
</g>
<defs>
<clipPath id="clip0_14399_94438">
<rect width="64" height="64" fill="white"/>
</clipPath>
<clipPath id="clip1_14399_94438">
<rect width="58.88" height="52.48" fill="white" transform="translate(5.12012 5.76172)"/>
</clipPath>
</defs>
</svg>
