<svg width="64" height="64" viewBox="0 0 64 64" fill="none" xmlns="http://www.w3.org/2000/svg">
<g clip-path="url(#clip0_9910_61648)">
<path d="M38.374 15.3322L31.9989 1.28125L25.6259 15.3322H12.3584V41.8735C12.3605 42.6236 12.56 43.6792 12.907 44.768C13.3558 46.1852 14.0207 47.6106 14.881 49.0028C16.6535 51.8724 19.2426 54.6028 22.5755 57.115C25.067 58.9935 27.9553 60.7431 31.1615 62.3119L32.001 62.7233L32.8405 62.3119C36.0467 60.7431 38.935 58.9955 41.4265 57.115C44.7574 54.6028 47.3465 51.8724 49.121 49.0028C49.9813 47.6106 50.6441 46.1872 51.095 44.768C51.44 43.6792 51.6394 42.6215 51.6436 41.8672V15.3322H38.3761H38.374Z" fill="#B4A269"/>
<path d="M14.0869 17.0021V41.879C14.0869 42.0743 14.1139 42.3507 14.17 42.6873C14.249 43.1527 14.3861 43.7387 14.6126 44.4182C14.9596 45.4592 15.5082 46.7164 16.3456 48.0712C18.035 50.8057 20.3768 53.1725 22.9077 55.1756C23.3461 55.5226 23.7929 55.8592 24.2417 56.1855C26.8724 58.0971 29.6194 59.6327 31.9986 60.7964C37.1228 58.2883 43.9508 54.0618 47.6516 48.0712C49.4324 45.1891 49.9082 42.76 49.9103 41.8769V17H14.0869V17.0021Z" fill="#00416B"/>
<path d="M14.0869 17.0021V41.879C14.0869 42.0743 14.1139 42.3507 14.17 42.6873L47.2402 17H14.0869V17.0021Z" fill="#AB0033"/>
<path d="M47.2409 17.0033H36.8139L31.9993 5.95703L27.1848 17.0033H16.7744L25.3916 24.5731L22.5864 36.1534L47.2409 17.0033Z" fill="white"/>
<path d="M38.7643 25.6523L32.8838 30.2279L41.4095 36.5739L38.7643 25.6523Z" fill="#B4A269"/>
<path d="M30.7455 53.2532H31.4832V53.8869H30.7455V55.5618H30.2115C30.1803 55.5618 30.1533 55.5368 30.1533 55.5036V51.836C30.1533 51.8153 30.1658 51.7945 30.1845 51.7841L30.5834 51.5805C30.5834 51.5805 30.6001 51.5742 30.6105 51.5742H31.8676C31.8988 51.5742 31.9258 51.5992 31.9258 51.6324V52.1602H30.7954C30.7663 52.1602 30.7435 52.1831 30.7435 52.2121V53.2553L30.7455 53.2532Z" fill="#B4A269"/>
<path d="M34.124 52.4719V51.8381C34.124 51.8173 34.1116 51.7966 34.0929 51.7862L33.6939 51.5805C33.6939 51.5805 33.6773 51.5742 33.6669 51.5742H32.7921C32.7921 51.5742 32.7734 51.5763 32.7651 51.5805L32.3827 51.7862C32.364 51.7966 32.3516 51.8153 32.3516 51.836V55.2895C32.3516 55.3103 32.364 55.329 32.3807 55.3394L32.7692 55.5514C32.7692 55.5514 32.7879 55.5576 32.7962 55.5576H33.6627C33.6627 55.5576 33.6835 55.5555 33.6918 55.5493L34.0929 55.3166C34.1116 55.3062 34.122 55.2875 34.122 55.2667V54.0843L33.5318 54.4376V54.9197C33.5318 54.9488 33.509 54.9716 33.4799 54.9716H32.9916C32.9625 54.9716 32.9396 54.9488 32.9396 54.9197V52.2059C32.9396 52.1768 32.9625 52.154 32.9895 52.154H33.4778C33.5069 52.154 33.5297 52.1768 33.5297 52.2059V52.8106L34.1199 52.4677L34.124 52.4719Z" fill="#B4A269"/>
<path d="M28.6969 54.2925C28.0963 53.9995 27.2984 53.5049 26.8662 52.8047H28.6969V54.2925Z" fill="#B4A269"/>
<path d="M35.3008 54.2925C35.9013 53.9995 36.6992 53.5049 37.1314 52.8047H35.3008V54.2925Z" fill="#B4A269"/>
<path d="M26.7607 37.8164C26.8002 37.8164 26.8334 37.8497 26.8334 37.8891V42.6164C26.8334 42.6559 26.8002 42.6891 26.7607 42.6891H26.1082L25.3893 40.3681V42.6891H24.7368C24.6973 42.6891 24.6641 42.6559 24.6641 42.6164V37.8891C24.6641 37.8497 24.6973 37.8164 24.7368 37.8164H25.3893L26.1082 40.1645V37.8164H26.7607Z" fill="white"/>
<path d="M29.5328 37.8226L30.0253 38.0761C30.046 38.0886 30.0647 38.1156 30.0647 38.1364V42.338C30.0647 42.3587 30.0523 42.3837 30.0253 42.3982L29.539 42.685C29.5266 42.6912 29.512 42.6912 29.4995 42.6912H28.4564C28.444 42.6912 28.4356 42.6912 28.4232 42.685L27.9307 42.3982C27.9099 42.3858 27.8975 42.3587 27.8975 42.338V38.1426C27.8975 38.1156 27.9099 38.0886 27.9369 38.0761L28.4232 37.8226C28.4356 37.8164 28.444 37.8164 28.4564 37.8164H29.5079C29.5079 37.8164 29.5286 37.8164 29.5349 37.8226H29.5328ZM29.3395 41.912V38.5935C29.3395 38.5603 29.3125 38.5333 29.2793 38.5333H28.6808C28.6476 38.5333 28.6206 38.5603 28.6206 38.5935V41.912C28.6206 41.9452 28.6476 41.9722 28.6808 41.9722H29.2793C29.3125 41.9722 29.3395 41.9452 29.3395 41.912Z" fill="white"/>
<path d="M33.2983 38.1343V39.5245C33.2983 39.5515 33.2858 39.5702 33.2588 39.5847L32.7601 39.8715L33.2588 40.1437C33.2858 40.1561 33.2983 40.1832 33.2983 40.2102V42.6164C33.2983 42.6559 33.265 42.6891 33.2255 42.6891H32.5731V40.3681L31.8541 40.6403V42.6891H31.2016C31.1622 42.6891 31.1289 42.6559 31.1289 42.6164V37.8891C31.1289 37.8497 31.1622 37.8164 31.2016 37.8164H32.7372C32.7372 37.8164 32.758 37.8164 32.7705 37.8226L33.2567 38.0761C33.2837 38.0886 33.2962 38.1094 33.2962 38.1364L33.2983 38.1343ZM32.5731 38.5935C32.5731 38.5603 32.546 38.5333 32.5128 38.5333H31.9144C31.8811 38.5333 31.8541 38.5603 31.8541 38.5935V39.7239L32.5731 39.4455V38.5935Z" fill="white"/>
<path d="M34.2369 37.8164H36.2587C36.2982 37.8164 36.3315 37.8497 36.3315 37.8891V38.5333H35.6L35.6063 42.6289C35.6063 42.6621 35.5793 42.6891 35.546 42.6891H34.9538C34.9143 42.6891 34.8873 42.6559 34.8873 42.6226V38.5333H34.1621V37.8891C34.1621 37.8497 34.1954 37.8164 34.2348 37.8164H34.2369Z" fill="white"/>
<path d="M39.2597 37.8146C39.2992 37.8146 39.3324 37.8478 39.3324 37.8873V42.6146C39.3324 42.6541 39.2992 42.6873 39.2597 42.6873H38.6072V40.1606L37.8883 40.6385V42.6873H37.2358C37.1963 42.6873 37.1631 42.6541 37.1631 42.6146V37.8873C37.1631 37.8478 37.1963 37.8146 37.2358 37.8146H37.8883V39.7221L38.6072 39.3294V37.8125H39.2597V37.8146Z" fill="white"/>
<path d="M22.0104 46.2179V45.4803C22.0104 45.447 21.9834 45.42 21.9502 45.42H21.3517C21.3185 45.42 21.2915 45.447 21.2915 45.4803V48.7987C21.2915 48.832 21.3185 48.8652 21.3517 48.859H21.9502C21.9834 48.859 22.0104 48.832 22.0104 48.7987V48.2065L22.7356 47.7743V49.2247C22.7356 49.2455 22.7232 49.2704 22.6962 49.2849L22.2099 49.5717C22.1975 49.5779 22.1829 49.5779 22.1704 49.5779H21.1128C21.1003 49.5779 21.0858 49.5779 21.0795 49.5717L20.6016 49.312C20.5808 49.2995 20.5684 49.2725 20.5684 49.2455V45.0231C20.5684 44.9961 20.5808 44.9774 20.6078 44.9629L21.0733 44.7094C21.0733 44.7094 21.0941 44.7031 21.1065 44.7031H22.1767C22.1767 44.7031 22.1975 44.7031 22.2099 44.7094L22.6962 44.9629C22.7169 44.9753 22.7356 44.9961 22.7356 45.0231V45.8003L22.0104 46.22V46.2179Z" fill="white"/>
<path d="M25.2604 49.5759V47.2548L24.5415 47.527L24.5352 49.5759H23.8911C23.8516 49.5759 23.8184 49.5426 23.8184 49.5031V45.0543C23.8184 45.0273 23.8308 45.0003 23.8516 44.9878L24.3503 44.7094C24.3628 44.7094 24.3773 44.7031 24.3836 44.7031H25.4267C25.4267 44.7031 25.4475 44.7031 25.4599 44.7094L25.9462 44.9629C25.9669 44.9753 25.9856 44.9961 25.9856 45.0231V49.5052C25.9856 49.5447 25.9524 49.5779 25.9129 49.5779H25.2604V49.5759ZM24.5415 46.6107L25.2604 46.3322V45.4886C25.2604 45.4491 25.2272 45.4221 25.1939 45.4221H24.662C24.5955 45.4221 24.5415 45.4761 24.5415 45.5426V46.6127V46.6107Z" fill="white"/>
<path d="M29.2162 45.021V46.4112C29.2162 46.4382 29.2038 46.4569 29.1767 46.4714L28.678 46.7582L29.1767 47.0304C29.2038 47.0429 29.2162 47.0699 29.2162 47.0969V49.5031C29.2162 49.5426 29.183 49.5759 29.1435 49.5759H28.491V47.2548L27.7721 47.527V49.5759H27.1196C27.0801 49.5759 27.0469 49.5426 27.0469 49.5031V44.7759C27.0469 44.7364 27.0801 44.7031 27.1196 44.7031H28.6552C28.6552 44.7031 28.676 44.7031 28.6884 44.7094L29.1747 44.9629C29.2017 44.9753 29.2141 44.9961 29.2141 45.0231L29.2162 45.021ZM28.491 45.4803C28.491 45.447 28.464 45.42 28.4308 45.42H27.8323C27.7991 45.42 27.7721 45.447 27.7721 45.4803V46.6107L28.491 46.3322V45.4803Z" fill="white"/>
<path d="M31.9371 44.7055L32.4295 44.959C32.4503 44.9714 32.469 44.9984 32.469 45.0192V49.2208C32.469 49.2416 32.4566 49.2665 32.4295 49.281L31.9433 49.5678C31.9308 49.574 31.9163 49.574 31.9038 49.574H30.8607C30.8483 49.574 30.8399 49.574 30.8275 49.5678L30.335 49.281C30.3142 49.2686 30.3018 49.2416 30.3018 49.2208V45.0255C30.3018 44.9984 30.3142 44.9714 30.3412 44.959L30.8275 44.7055C30.8399 44.6992 30.8483 44.6992 30.8607 44.6992H31.9121C31.9121 44.6992 31.9329 44.6992 31.9392 44.7055H31.9371ZM31.7438 48.7948V45.4764C31.7438 45.4431 31.7168 45.4161 31.6836 45.4161H31.0851C31.0519 45.4161 31.0249 45.4431 31.0249 45.4764V48.7948C31.0249 48.8281 31.0519 48.8551 31.0851 48.8551H31.6836C31.7168 48.8551 31.7438 48.8281 31.7438 48.7948Z" fill="white"/>
<path d="M33.605 49.5759C33.5655 49.5759 33.5322 49.5426 33.5322 49.5031V44.7759C33.5322 44.7364 33.5655 44.7031 33.605 44.7031H34.2574V48.8652H35.1759V49.5031C35.1759 49.5426 35.1426 49.5759 35.1031 49.5759H33.607H33.605Z" fill="white"/>
<path d="M36.9635 49.5759H36.311C36.2715 49.5759 36.2383 49.5426 36.2383 49.5031V44.7759C36.2383 44.7364 36.2715 44.7031 36.311 44.7031H36.9635V49.5779V49.5759Z" fill="white"/>
<path d="M40.1279 44.6992C40.1674 44.6992 40.2006 44.7325 40.2006 44.7719V49.4992C40.2006 49.5387 40.1674 49.5719 40.1279 49.5719H39.4754L38.7564 47.2509V49.5719H38.104C38.0645 49.5719 38.0312 49.5387 38.0312 49.4992V44.7719C38.0312 44.7325 38.0645 44.6992 38.104 44.6992H38.7564L39.4754 47.0473V44.6992H40.1279Z" fill="white"/>
<path d="M42.7087 49.5759V47.2548L41.9897 47.527L41.9835 49.5759H41.3393C41.2998 49.5759 41.2666 49.5426 41.2666 49.5031V45.0543C41.2666 45.0273 41.2791 45.0003 41.2998 44.9878L41.7985 44.7094C41.811 44.7094 41.8256 44.7031 41.8318 44.7031H42.8749C42.8749 44.7031 42.8957 44.7031 42.9082 44.7094L43.3944 44.9629C43.4152 44.9753 43.4339 44.9961 43.4339 45.0231V49.5052C43.4339 49.5447 43.4006 49.5779 43.3611 49.5779H42.7087V49.5759ZM41.9897 46.6107L42.7087 46.3322V45.4886C42.7087 45.4491 42.6754 45.4221 42.6422 45.4221H42.1102C42.0437 45.4221 41.9897 45.4761 41.9897 45.5426V46.6127V46.6107Z" fill="white"/>
</g>
<defs>
<clipPath id="clip0_9910_61648">
<rect width="39.2831" height="61.44" fill="white" transform="translate(12.3584 1.28125)"/>
</clipPath>
</defs>
</svg>
