<svg width="64" height="64" viewBox="0 0 64 64" fill="none" xmlns="http://www.w3.org/2000/svg">
<path d="M32.0011 61.4545C19.4806 61.4545 8.30362 53.5005 4.19011 41.663C-1.132 26.3266 7.01323 9.51874 22.3456 4.19459C25.4724 3.1087 28.7199 2.55859 32 2.55859C44.5236 2.55859 55.6995 10.5116 59.811 22.3491L59.95 22.7499L59.947 22.755C64.9899 37.98 56.857 54.5414 41.6596 59.8185C38.5307 60.9054 35.2812 61.4556 32.0011 61.4556" fill="#A0A2A3"/>
<path d="M56.2489 18.694C52.6937 12.2164 46.8276 7.51193 39.7335 5.44648C38.5106 5.09065 37.256 4.81662 36.0055 4.63257H36.0024C22.4226 2.63154 9.28353 11.0753 5.44098 24.2727C3.37553 31.3668 4.19558 38.8413 7.75183 45.3178C11.3081 51.7953 17.1731 56.4998 24.2672 58.5653C25.4912 58.9211 26.7458 59.1962 27.9983 59.3802C30.7744 59.7892 33.53 59.7555 36.1936 59.3404C36.2264 59.3567 36.2591 59.3751 36.2918 59.3905L36.3235 59.3209C46.6354 57.6624 55.5158 50.1972 58.5608 39.739C60.6263 32.645 59.8052 25.1705 56.25 18.694M42.7192 8.98433V8.95365C48.5086 11.6367 52.9176 16.333 55.3389 21.9312C52.6896 18.6377 49.1017 16.5713 45.6773 15.2747C45.2632 13.9158 44.481 12.7154 43.0689 12.1244C42.7939 11.4946 42.4074 11.0528 41.6517 10.7696C40.8184 10.9547 39.4605 11.922 38.619 13.4506C37.7049 13.3105 36.9186 13.2246 36.3153 13.1735L36.1313 13.1571C35.9084 13.1357 35.6497 13.1183 35.3613 13.0989C34.1323 13.015 32.4217 12.8913 30.349 12.285C30.4615 12.2083 30.576 12.1346 30.6926 12.0672C37.3061 8.86061 42.6497 8.9833 42.7203 8.98535M25.7887 24.0917C24.7509 22.1879 23.4758 20.5928 21.8879 19.5508C22.622 19.1265 23.3838 18.739 24.0801 18.4067C25.077 18.5426 27.983 18.9649 29.2008 19.4026C30.0689 19.923 30.939 20.4823 31.8071 21.0703C31.5852 21.3453 31.3613 21.6265 31.1313 21.9189C31.1313 21.9189 28.5546 21.9506 25.7887 24.0907M24.5535 25.1838C22.301 27.4455 18.5811 32.3208 14.1107 36.4006C14.5003 30.3863 16.532 25.3198 19.3255 21.3893C19.62 21.0999 19.9707 20.8126 20.3572 20.5324C22.1006 21.4108 23.4666 23.0877 24.5535 25.1838ZM32.8562 19.7921C31.9912 19.2062 31.1231 18.648 30.256 18.1255C29.6047 17.3944 28.2928 16.0222 27.6057 15.3064C27.9441 14.7696 28.3951 14.1306 28.9421 13.5263C31.6241 14.4516 33.8501 14.6244 35.2499 14.7195C35.5229 14.7379 35.7652 14.7543 35.9759 14.7758L36.1783 14.7931C36.5474 14.8248 36.9043 14.8647 37.2611 14.9036C35.9166 16.3116 34.5035 17.8228 32.8562 19.7921ZM26.4196 7.20518C29.3991 6.53238 32.529 6.38718 35.6752 6.85037C36.8194 7.01806 37.9646 7.26755 39.1057 7.59986C39.1487 7.61213 39.1896 7.62645 39.2325 7.63974C37.6282 7.88719 35.5638 8.35447 33.2407 9.20212C31.4012 9.81869 29.4912 10.5498 27.7355 11.2645C27.0955 10.8903 26.6404 10.4117 26.4053 9.81971C26.0157 8.83811 26.2478 7.75937 26.4206 7.20416M24.6486 7.67451C24.5249 8.45365 24.5096 9.43729 24.8889 10.4046C25.1282 11.015 25.4973 11.5426 25.984 11.9925C24.8685 12.4659 23.8623 12.9077 23.0361 13.2798C21.0781 13.2011 17.6527 13.1019 15.2457 13.2441C15.1159 13.242 14.9788 13.2369 14.8551 13.2369C17.6629 10.6766 21.0167 8.77574 24.6486 7.67451ZM13.17 14.924C13.7314 14.8852 14.53 14.8555 15.485 14.8821C17.8081 15.0907 18.6496 15.7308 19.9983 16.6152C19.6834 17.1664 19.3388 17.7727 18.9973 18.378C14.6803 17.5334 10.7938 20.3852 8.2099 23.0672C9.36431 19.9864 11.0627 17.2431 13.17 14.924ZM7.10254 26.9149C8.82443 24.5815 13.261 19.3627 18.1547 19.8862C17.7682 20.5846 17.442 21.1848 17.2488 21.5692C15.9656 23.5529 14.7621 25.9333 13.8674 28.7492C12.9359 31.6818 12.4512 34.7349 12.3981 37.8883C11.3551 38.7472 10.2794 39.5448 9.17923 40.2411C9.17923 40.2411 11.1394 41.9896 13.0893 42.6777C13.0893 42.6777 11.7488 44.7841 10.894 46.1593C7.21501 40.6644 5.69251 33.7799 7.10356 26.9149M45.4892 53.5366C45.3062 50.5724 44.8133 48.1767 44.8133 48.1767C45.0802 48.2841 45.7469 48.7636 45.7469 48.7636C45.6201 43.2186 43.2888 41.2656 43.3522 38.2411C43.4053 35.7084 43.752 33.9476 44.4197 32.3648C48.4647 37.1296 51.4882 42.2943 52.4575 47.0949C50.5444 49.688 48.1681 51.8587 45.4892 53.5356M56.4064 39.1123C55.7622 41.327 54.8389 43.3832 53.6917 45.2616C52.344 40.3863 49.2366 35.3515 45.2387 30.7513C45.5996 30.1378 46.0117 29.5192 46.4841 28.8597C47.5751 27.6756 48.0894 28.7738 48.0894 28.7738C48.9657 26.3985 48.4084 25.2022 47.9831 24.6909C47.8246 24.4558 47.6334 24.3709 47.6334 24.3709C47.2653 22.7001 45.7509 21.8228 45.7509 21.8228C45.7509 21.8228 46.2724 19.4762 46.0209 17.0457C54.2091 20.4649 56.6283 26.6521 57.3318 29.8985C57.5833 32.9169 57.3031 36.0304 56.4054 39.1112" fill="#0C233F"/>
<path d="M27.735 11.2645C29.4917 10.5488 31.4007 9.81873 33.2402 9.20216C35.5633 8.35451 37.6277 7.88723 39.233 7.64081C39.1901 7.62751 39.1492 7.61218 39.1062 7.60093C37.9641 7.26862 36.8199 7.02015 35.6747 6.85144C32.5285 6.38825 29.3986 6.53242 26.4201 7.20624C26.2483 7.76044 26.0152 8.8402 26.4048 9.82077C26.6389 10.4128 27.0939 10.8924 27.735 11.2656" fill="#266092"/>
<path d="M13.8663 28.7472C14.762 25.9302 15.9655 23.5509 17.2477 21.5672C17.4419 21.1828 17.7671 20.5825 18.1536 19.8842C13.2599 19.3617 8.82432 24.5795 7.10243 26.9128C5.69138 33.7779 7.21389 40.6624 10.8928 46.1573C11.7487 44.782 13.0881 42.6757 13.0881 42.6757C11.1372 41.9875 9.17811 40.2391 9.17811 40.2391C10.2783 39.5417 11.354 38.7452 12.3969 37.8863C12.4491 34.7329 12.9337 31.6797 13.8663 28.7472Z" fill="#266092"/>
<path d="M14.8545 13.2382C14.9772 13.2382 15.1153 13.2433 15.2441 13.2453C17.6511 13.1022 21.0764 13.2014 23.0345 13.2811C23.8617 12.91 24.8668 12.4672 25.9824 11.9948C25.4967 11.5439 25.1266 11.0163 24.8873 10.4059C24.5079 9.43857 24.5233 8.45493 24.647 7.67578C21.0151 8.77701 17.6613 10.6778 14.8535 13.2382" fill="#266092"/>
<path d="M45.4889 53.538C48.1678 51.8611 50.5441 49.6904 52.4572 47.0973C51.4879 42.2957 48.4644 37.132 44.4193 32.3672C43.7506 33.949 43.404 35.7108 43.3519 38.2435C43.2885 41.268 45.6198 43.221 45.7455 48.766C45.7455 48.766 45.0789 48.2865 44.812 48.1791C44.812 48.1791 45.3048 50.5738 45.4889 53.539" fill="#266092"/>
<path d="M24.0809 18.4073C23.3856 18.7396 22.6228 19.1271 21.8887 19.5514C23.4766 20.5934 24.7517 22.1885 25.7895 24.0924C28.5554 21.9513 31.1321 21.9196 31.1321 21.9196C31.3631 21.6271 31.5871 21.3459 31.8079 21.0709C30.9409 20.4829 30.0707 19.9236 29.2016 19.4032C27.9838 18.9656 25.0768 18.5422 24.0809 18.4062" fill="#266092"/>
<path d="M37.2609 14.9036C36.904 14.8648 36.5472 14.8249 36.1781 14.7932L35.9756 14.7758C35.765 14.7543 35.5216 14.739 35.2496 14.7206C33.8498 14.6245 31.6249 14.4527 28.9429 13.5273C28.3958 14.1316 27.9449 14.7707 27.6064 15.3075C28.2936 16.0222 29.6054 17.3955 30.2557 18.1265C31.1228 18.648 31.9909 19.2063 32.856 19.7932C34.5022 17.8229 35.9163 16.3116 37.2599 14.9036" fill="#266092"/>
<path d="M8.20996 23.0662C10.7938 20.3852 14.6803 17.5334 18.9973 18.378C19.3388 17.7717 19.6834 17.1653 19.9983 16.6142C18.6497 15.7298 17.8082 15.0897 15.4861 14.8811C14.531 14.8545 13.7325 14.8852 13.1711 14.924C11.0638 17.2431 9.36538 19.9864 8.21098 23.0672" fill="#266092"/>
<path d="M56.406 39.1124C57.3037 36.0306 57.5839 32.9181 57.3323 29.8997C56.6289 26.6533 54.2096 20.4661 46.0215 17.0469C46.273 19.4774 45.7515 21.824 45.7515 21.824C45.7515 21.824 47.2659 22.7013 47.634 24.3721C47.634 24.3721 47.8252 24.4569 47.9836 24.6921C48.408 25.2033 48.9663 26.3997 48.09 28.7749C48.09 28.7749 47.5757 27.6768 46.4847 28.8608C46.0123 29.5203 45.6002 30.1379 45.2393 30.7524C49.2372 35.3527 52.3456 40.3885 53.6923 45.2627C54.8385 43.3844 55.7618 41.3282 56.407 39.1134" fill="#266092"/>
<path d="M41.6503 10.7691C42.4059 11.0523 42.7924 11.494 43.0685 12.1239C44.4795 12.7159 45.2628 13.9153 45.6769 15.2742C49.1012 16.5707 52.6892 18.6382 55.3385 21.9307C52.9182 16.3325 48.5092 11.6362 42.7208 8.95312V8.9838C42.6492 8.98073 37.3057 8.85905 30.6932 12.0656C30.5756 12.1341 30.4621 12.2067 30.3496 12.2834C32.4212 12.8897 34.1329 13.0135 35.3609 13.0973C35.6502 13.1167 35.9079 13.1351 36.1308 13.1556L36.3149 13.172C36.9181 13.2231 37.7044 13.309 38.6186 13.4491C39.4601 11.9194 40.818 10.9531 41.6513 10.7681" fill="#266092"/>
<path d="M24.5532 25.1826C23.4663 23.0875 22.1002 21.4106 20.3558 20.5312C19.9693 20.8114 19.6196 21.0987 19.3241 21.3881C16.5307 25.3176 14.4989 30.3851 14.1094 36.3994C18.5797 32.3196 22.2996 27.4444 24.5532 25.1826Z" fill="#266092"/>
<path d="M27.0471 12.9375L25.2894 15.4866C25.2894 15.4866 26.6177 16.4099 27.7097 17.6584C25.7976 17.2678 23.6995 16.915 23.6995 16.915L20.3722 18.7238L21.9326 16.1359C21.9326 16.1359 20.8825 15.2391 19.6729 14.459C21.0001 14.4978 23.5226 14.7064 23.5226 14.7064L27.0481 12.9375H27.0471Z" fill="#79BC43"/>
<path d="M30.3343 24.2148C30.3343 24.2148 29.9611 25.2445 29.9131 26.2016C29.9131 26.2016 27.5797 26.5451 26.457 27.3099C26.457 27.3099 28.7863 24.9879 30.3343 24.2148Z" fill="#79BC43"/>
<path d="M46.0529 24.1112C46.3116 24.0478 46.5058 24.0375 46.65 24.0478C46.6071 23.9281 46.5263 23.7502 46.3821 23.5743C46.1766 23.3249 45.876 23.1367 45.876 23.1367C46.0692 23.4353 46.0754 23.8463 46.0529 24.1101" fill="white"/>
<path d="M43.9476 25.1724C44.2493 24.9648 44.5243 24.794 44.7738 24.654C44.7288 24.5456 44.6583 24.3901 44.5529 24.202C44.3525 23.8441 43.8311 23.5312 43.8311 23.5312C44.0468 24.1693 44.0008 24.8145 43.9486 25.1724" fill="white"/>
<path d="M18.9211 40.9213C16.9374 41.7321 12.2441 40.6268 12.2441 40.6268C16.9855 40.3538 21.6235 36.957 21.6235 36.957C21.6205 36.9652 21.6153 36.9734 21.6133 36.9816C20.2227 39.1135 18.3065 40.3476 18.3065 40.3476C18.5182 40.6176 18.7309 40.7975 18.9211 40.9223" fill="#A0A2A3"/>
<path d="M42.564 12.6311C42.564 12.6311 41.3983 11.717 40.0752 13.1352C41.4924 10.5523 42.3114 12.0329 42.564 12.6311Z" fill="#79BC43"/>
<path d="M47.1682 25.1567C47.1682 25.1567 47.0455 25.0739 47.02 25.0596C46.2797 24.6649 44.9545 25.8152 44.0885 26.2917C43.2234 26.7682 41.9627 27.7835 41.3471 26.3848C40.7316 24.986 42.1478 22.7999 42.6375 21.4226C43.7193 18.3796 43.7592 16.5882 43.5312 15.6199C44.5312 16.7487 44.8461 18.9134 44.8461 18.9134C44.8461 18.9134 45.2173 14.8479 43.2296 13.7773C43.2756 13.9215 43.2245 14.4287 43.1835 14.8274C43.1835 14.8274 43.1795 14.8223 43.1774 14.8193C42.2521 14.988 40.2101 14.7559 39.5465 14.4092C37.0363 17.1025 34.2991 20.8489 32.2387 24.2897C31.3451 26.1087 30.4698 28.2437 30.251 29.9788C30.251 29.9788 29.9657 29.1946 29.8992 28.1486C28.7592 28.5882 24.8849 30.4921 24.0557 36.3316C24.0557 36.3316 26.5178 33.7907 29.2408 32.8009C29.2408 32.8009 27.5168 37.3173 30.8072 45.3204C30.8072 45.3204 32.1395 40.4124 34.9258 39.1742C36.613 47.5546 41.5598 47.6926 43.0026 53.3941C43.0026 53.3941 44.5148 50.4401 42.6948 45.4196C42.6948 45.4196 43.3226 45.5944 43.8543 46.2212C43.8543 46.2212 43.7715 44.7529 42.3993 41.5842C41.5046 39.8879 41.2244 37.5995 41.2244 37.5995C40.4208 38.3275 40.2152 40.7866 40.2152 40.7866C37.7592 34.124 44.7306 27.5208 46.0026 26.5473C46.6232 26.0708 47.0067 26.0627 47.2378 26.1772C47.477 25.6813 47.4555 25.3643 47.1672 25.1567" fill="#A0A2A3"/>
</svg>
