<svg width="200" height="200" viewBox="0 0 200 200" fill="none" xmlns="http://www.w3.org/2000/svg">
<path d="M100 188C148.601 188 188 148.601 188 100C188 51.3989 148.601 12 100 12C51.3989 12 12 51.3989 12 100C12 148.601 51.3989 188 100 188Z" fill="#061922"/>
<path d="M99.896 24.2252C55.3644 24.4972 21.5638 62.0316 24.3902 105.292C27.0332 145.769 61.1699 176.291 100.648 175.769C139.982 175.246 173.449 144.043 175.659 103.798C178.017 60.8063 144.241 23.9563 99.896 24.2283V24.2252ZM88.7463 91.5452L80.9119 92.8866V62.6274L88.7463 59.8469V91.5452Z" fill="#4D90CD"/>
<path d="M80.1054 99.942L72.2404 101.415L72.2373 167.308L80.1054 170.024V99.942Z" fill="#061922"/>
<path d="M80.1054 99.942L72.2404 101.415L72.2373 167.308L80.1054 170.024V99.942Z" fill="#061922"/>
<path d="M98.729 50.4298V169.933V172.741C99.1537 172.747 99.5785 172.771 100.003 172.771C105.925 172.771 111.74 172.059 117.35 170.693V93.0212L108.712 91.5423V53.6137L104.81 52.367V27.4001C103.728 27.3298 102.643 27.287 101.555 27.2626V51.3312L98.729 50.4298Z" fill="white"/>
<path d="M161.194 48.3855C159.626 46.5277 157.976 44.7463 156.25 43.0413C141.788 28.7627 121.924 19.9474 99.9969 19.9474C78.0702 19.9474 58.206 28.7627 43.7471 43.0413C42.0207 44.7463 40.3707 46.5308 38.8032 48.3855C27.0271 62.328 19.926 80.3436 19.926 100.018C19.926 102.044 20.0024 104.055 20.1521 106.044C20.3569 108.821 20.7052 111.559 21.188 114.251C21.4416 115.669 21.7349 117.071 22.0649 118.462C25.0013 130.879 30.8405 142.185 38.8094 151.617C40.383 153.478 42.0207 155.257 43.7532 156.959C58.2182 171.231 78.0855 180.052 100.003 180.052C121.92 180.052 141.791 171.231 156.253 156.959C157.985 155.257 159.638 153.478 161.197 151.617C169.165 142.185 174.995 130.879 177.932 118.462C178.259 117.071 178.552 115.669 178.809 114.251C179.292 111.559 179.64 108.821 179.848 106.044C179.994 104.055 180.074 102.047 180.074 100.018C180.074 80.3405 172.973 62.3249 161.197 48.3855H161.194ZM27.2074 100.018C27.2074 82.9591 33.0374 66.7983 43.7502 53.8061C51.6916 63.4372 56.9471 74.813 59.1349 87.0016C47.8171 90.4666 37.1135 95.3341 27.2257 101.399C27.2166 100.938 27.2105 100.48 27.2105 100.015L27.2074 100.018ZM29.5694 118.462C28.8146 115.568 28.228 112.616 27.8338 109.622C34.3849 105.344 41.3088 101.647 48.5841 98.5699C52.3607 96.9719 56.1924 95.5663 60.073 94.3349C60.2166 96.2172 60.293 98.1147 60.293 100.021C60.293 106.331 59.4863 112.516 57.9371 118.462C55.2971 128.582 50.4999 138.023 43.7563 146.197C37.0127 138.014 32.2124 128.582 29.5724 118.462H29.5694ZM92.6482 52.3699L88.7463 53.6136V91.5422L80.1052 93.0211V170.009C68.3627 166.687 57.5857 160.445 48.6941 151.614C56.666 142.179 62.493 130.867 65.4232 118.459C66.8227 112.54 67.5682 106.365 67.5682 100.018C67.5682 97.4088 67.4399 94.8299 67.1955 92.2847C71.7085 91.1297 76.2888 90.2741 80.9119 89.6049V82.2563C75.913 82.9438 70.9844 83.8513 66.1657 85.0552C63.5563 71.2533 57.4055 58.7041 48.691 48.3855C60.6688 36.4811 76.0566 29.2486 92.6452 27.5924V52.3699H92.6482ZM100.003 172.774C99.5752 172.774 99.1535 172.75 98.7288 172.744V107.263V96.0888V50.4297L95.9024 51.3311V27.348C97.2621 27.2716 98.628 27.2258 99.9999 27.2258C119.366 27.2258 137.577 34.7394 151.306 48.3855C142.591 58.7011 136.44 71.2502 133.831 85.0552C125.715 83.0324 117.319 81.7155 108.711 81.1808V88.4805C116.888 89.0091 124.936 90.2741 132.801 92.2847C132.557 94.8299 132.429 97.4088 132.429 100.018C132.429 106.368 133.174 112.54 134.57 118.459C137.504 130.87 143.346 142.185 151.309 151.614C137.577 165.251 119.36 172.771 99.9999 172.771L100.003 172.774ZM170.43 118.462C167.797 128.579 162.996 138.02 156.256 146.197C149.512 138.023 144.703 128.582 142.063 118.462C140.514 112.512 139.707 106.331 139.707 100.021C139.707 98.1147 139.783 96.2172 139.927 94.3349C143.807 95.5663 147.639 96.9719 151.416 98.5699C158.688 101.647 165.615 105.344 172.163 109.622C171.772 112.619 171.182 115.568 170.427 118.462H170.43ZM172.777 101.402C162.886 95.3372 152.183 90.4697 140.868 87.0016C143.056 74.813 148.311 63.4372 156.253 53.8061C166.965 66.7983 172.795 82.9622 172.795 100.018C172.795 100.483 172.786 100.941 172.777 101.402Z" fill="#FFD520"/>
</svg>
