<svg width="200" height="200" viewBox="0 0 200 200" fill="none" xmlns="http://www.w3.org/2000/svg">
<path d="M147.366 96.6714C147.13 96.3964 123.043 68.1375 104.833 17.5404L99.9488 4L95.2513 17.6091C95.0843 18.1 78.024 66.9985 52.6203 96.7008L49.79 100.02L52.64 103.319C52.8758 103.594 76.9626 131.863 95.1727 182.46L100.047 196L104.745 182.391C104.912 181.9 121.972 132.992 147.376 103.289L150.206 99.9705L147.356 96.6714H147.366Z" fill="#A7A8AA"/>
<path d="M102.779 18.2769L99.9882 10.5396L97.3054 18.3162C97.1383 18.8071 79.9601 68.0885 54.2714 98.1149L52.6499 100.01L54.2812 101.895C54.5269 102.18 78.8496 130.684 97.2169 181.723L99.9981 189.461L102.681 181.684C102.848 181.193 120.026 131.902 145.715 101.876L147.336 99.9805L145.705 98.0952C145.459 97.8105 121.137 69.3159 102.769 18.2769H102.779Z" fill="black"/>
<path d="M113.589 117.213C110.169 111.773 106.857 107.04 103.546 102.465H90.7996C90.7996 102.465 98.7007 111.626 107.771 127.14C109.678 130.409 111.643 133.954 113.599 137.764C115.555 133.944 117.53 130.39 119.446 127.11C128.517 111.616 136.398 102.474 136.398 102.474H123.662C120.232 107.217 116.97 111.832 113.599 117.222" fill="#A7A8AA"/>
<path d="M100.136 142.251C91.3794 123.85 83.9204 112.784 76.4516 102.465H63.7056C63.7056 102.465 87.6253 130.184 100.047 170.932C103.27 160.367 106.828 151.834 110.975 143.292C109.069 139.354 107.133 135.663 105.216 132.226C103.457 135.594 102.062 138.127 100.126 142.241" fill="#A7A8AA"/>
<path d="M93.2073 84.4368C96.7648 85.8213 99.0939 88.8553 99.9193 95.5224C100.735 88.8553 103.074 85.8311 106.631 84.4368C103.074 83.0523 100.745 80.0183 99.9193 73.3512C99.1037 80.0183 96.7648 83.0523 93.2073 84.4368Z" fill="#A7A8AA"/>
<path d="M100.057 57.5625C108.813 75.9633 116.272 87.0292 123.741 97.349H136.477C136.477 97.349 112.567 69.6399 100.136 28.8813C87.7039 69.63 63.7842 97.3392 63.7842 97.3392H76.5302C84.1857 86.7641 91.0158 76.7881 100.057 57.5527" fill="white"/>
</svg>
