<svg width="200" height="200" viewBox="0 0 200 200" fill="none" xmlns="http://www.w3.org/2000/svg">
<path d="M100.46 12.0012C51.8611 11.7476 12.2548 50.9444 12.0012 99.5432C11.7476 148.142 50.9414 187.748 99.5401 188.002C148.142 188.252 187.745 149.062 187.999 100.46C188.252 51.8611 149.062 12.2548 100.46 12.0012Z" fill="#FDB927"/>
<path d="M82.9544 155.466C82.9544 157.672 82.7742 160.725 81.2128 161.8C80.458 162.317 79.4039 162.32 78.0716 161.809C75.948 160.997 75.0772 159.875 75.0619 157.935V130.334C75.068 128.831 75.4958 128.079 76.6355 127.569C77.3964 127.227 77.6102 127.165 77.6102 127.162L77.9494 127.04V124.217L65.553 129.787V132.699L66.2405 132.277C66.2466 132.271 66.4574 132.146 67.2335 131.798C67.6705 131.602 68.0035 131.541 68.1502 131.636C68.2572 131.703 68.4344 131.96 68.4374 132.91V156.429C68.4344 157.351 68.2663 157.657 68.1288 157.752C67.976 157.859 67.6491 157.822 67.2091 157.657C66.4696 157.373 66.2497 157.26 66.2252 157.244L65.556 156.902V159.933L86.4744 167.939V156.163L82.9605 154.818V155.466H82.9544ZM136.185 155.903C136.097 155.934 136.024 155.931 135.935 155.885C135.156 155.475 134.453 152.814 133.989 151.054L126.38 123.123L125.393 123.477C124.363 123.85 123.48 125.045 123.15 126.524L116.37 156.832C115.493 160.755 114.861 163.588 113.143 164.208L112.85 164.315V167.34L121.39 164.263V161.238L120.792 161.452C119.881 161.782 119.209 161.828 118.906 161.586C118.607 161.345 118.634 160.755 118.68 160.425C118.75 159.869 119.138 157.828 119.453 156.422L119.844 154.638L127.712 151.799L128.479 154.647C128.684 155.292 129.133 156.731 129.243 157.122C129.469 157.926 128.427 158.702 127.364 159.084L127.068 159.191V162.216L136.787 158.711V155.686L136.188 155.903H136.185ZM120.798 150.143L123.829 136.546L126.68 148.023L120.798 150.143Z" fill="#552583"/>
<path d="M100.432 16.8291C54.498 16.5877 17.0674 53.6333 16.829 99.5707C16.5907 145.505 53.6333 182.936 99.5676 183.177C145.505 183.415 182.936 146.373 183.177 100.439C183.415 54.5011 146.37 17.0704 100.435 16.8291H100.432ZM173.949 94.306C158.027 79.297 137.014 79.4987 127.997 80.4276L136.128 77.424L133.35 71.212L141.389 75.4837L146.452 73.6137L143.58 67.1909L151.891 71.6031L166.115 66.3537C170.454 74.8573 173.195 84.3082 173.955 94.309L173.949 94.306ZM163.34 61.3853C145.267 54.6081 128.03 60.2823 118.986 64.5173L122.475 60.2303L116.92 56.2978L126.014 55.8822L129.421 51.6992L123.679 47.6322L133.081 47.2014L140.619 37.943C149.816 43.9778 157.596 51.9895 163.337 61.3884L163.34 61.3853ZM109 74.1698C109.7 72.4037 110.98 71.3281 112.184 70.6559C115.927 73.7054 118.475 78.1543 119.038 83.2082C116.755 79.1595 113.272 75.997 109 74.1698ZM118.518 90.129C118.017 92.0479 117.226 93.8476 116.184 95.4732C115.897 91.7454 113.782 88.2682 111.918 85.2187C110.143 82.3159 108.465 79.5721 108.465 77.1215V77.1154C113.614 79.5048 117.262 84.1829 118.518 90.126V90.129ZM59.6467 37.7627L67.3284 47.1983L76.7303 47.6292L70.9889 51.6961L74.3959 55.8792L83.4893 56.2948L77.9342 60.2273L81.4237 64.5142C72.2906 60.2364 54.7975 54.495 36.5252 61.5931C42.3399 52.0078 50.26 43.8586 59.6436 37.7627H59.6467ZM90.9448 68.8653C93.2915 67.5362 95.9468 66.6989 98.7824 66.479V72.477C97.224 72.5748 95.7207 72.8223 94.2846 73.2165C93.5543 71.2945 92.3107 69.892 90.9448 68.8653ZM92.0326 77.1215V77.1276C92.0326 79.5782 90.3551 82.3221 88.5798 85.2248C86.7159 88.2743 84.5984 91.7515 84.3143 95.4793C83.2723 93.8507 82.4809 92.051 81.9798 90.1321C83.2356 84.186 86.884 79.5079 92.0357 77.1215H92.0326ZM91.4979 74.1698C87.2262 75.997 83.7429 79.1595 81.4604 83.2082C82.0226 78.1543 84.5709 73.7054 88.314 70.6559C89.5179 71.3312 90.7951 72.4067 91.4979 74.1698ZM33.9585 66.2223L48.5275 71.6031L56.8386 67.1909L53.9633 73.6137L59.0294 75.4837L67.0686 71.212L64.2881 77.424L72.4189 80.4276C63.3195 79.4926 41.9947 79.3032 26.0202 94.7429C26.7382 84.5221 29.5218 74.8818 33.9585 66.2223ZM25.8185 99.6166C25.8185 99.5493 25.8246 99.4821 25.8246 99.4149L41.4966 98.9932L47.5741 91.8065L47.293 98.8374L52.6861 98.6938L58.565 91.7424L58.2931 98.541L69.5437 98.2385C57.9783 102.749 40.0299 112.704 33.2282 132.329C28.4341 122.442 25.7574 111.344 25.8185 99.6135V99.6166ZM93.6612 173.894C67.6125 171.685 45.4413 156.044 34.0441 133.94L50.5686 126.564L53.4347 117.599L55.8669 124.202L60.7925 122.005L63.5639 113.333L65.9167 119.719L88.6348 109.581L93.6643 117.058V173.897L93.6612 173.894ZM98.7793 104.154C94.7307 103.842 91.0396 102.266 88.1032 99.8091C85.8115 95.406 88.2773 91.3482 91.0854 86.7557C93.0807 83.4893 94.969 80.4062 94.969 77.1276C94.969 76.7579 94.9446 76.4095 94.914 76.0643C96.1454 75.7251 97.4349 75.5081 98.7793 75.4165V104.157V104.154ZM67.0289 33.5552C77.0756 28.5594 88.4026 25.7574 100.387 25.8216C112.16 25.8827 123.267 28.6938 133.13 33.6255C115.722 38.4808 104.973 51.8917 100.209 59.2586C95.4212 51.855 84.5893 38.3494 67.0289 33.5583V33.5552ZM101.719 66.482C104.554 66.699 107.21 67.5362 109.556 68.8684C108.19 69.892 106.944 71.2945 106.217 73.2195C104.78 72.8254 103.277 72.5809 101.719 72.4801V66.482ZM101.719 75.4134C103.06 75.5051 104.353 75.7251 105.584 76.0612C105.557 76.4065 105.529 76.7548 105.529 77.1215C105.529 80.4032 107.414 83.4862 109.413 86.7526C112.221 91.3451 114.684 95.4029 112.395 99.806C109.462 102.266 105.767 103.842 101.719 104.151V75.4104V75.4134ZM106.971 173.858V116.96L111.723 109.547L134.505 119.713L136.858 113.327L139.626 121.999L144.555 124.196L146.99 117.592L149.85 126.557L166.041 133.784C154.745 155.815 132.772 171.444 106.974 173.852L106.971 173.858ZM130.869 98.2416L142.123 98.5441L141.848 91.7454L147.726 98.6968L153.123 98.8405L152.838 91.8096L158.919 98.9963L174.166 99.4057C174.169 99.7357 174.188 100.063 174.185 100.393C174.127 111.646 171.551 122.295 167.016 131.828C160.083 112.535 142.336 102.718 130.869 98.2446V98.2416Z" fill="#552583"/>
<path d="M100.209 59.2557C104.973 51.8887 115.723 38.4778 133.13 33.6225C123.27 28.6908 112.16 25.8797 100.387 25.8186C88.4027 25.7575 77.0758 28.5594 67.0291 33.5522C84.5894 38.3464 95.4214 51.852 100.209 59.2526V59.2557Z" fill="white"/>
<path d="M74.3991 55.8822L70.9922 51.6991L76.7336 47.6322L67.3316 47.2013L59.6499 37.7657C50.2693 43.8616 42.3462 52.0139 36.5315 61.5961C54.8038 54.498 72.2969 60.2394 81.43 64.5172L77.9405 60.2303L83.4955 56.2978L74.4022 55.8822H74.3991Z" fill="white"/>
<path d="M48.5276 71.6033L33.9586 66.2224C29.5219 74.8819 26.7353 84.5222 26.0203 94.7431C41.9948 79.3033 63.3196 79.4927 72.419 80.4277L64.2882 77.4241L67.0687 71.2122L59.0295 75.4838L53.9634 73.6138L56.8387 67.191L48.5276 71.6033Z" fill="white"/>
<path d="M166.109 66.3506L151.885 71.6001L143.574 67.1878L146.446 73.6106L141.383 75.4806L133.344 71.2089L136.122 77.4209L127.991 80.4245C137.008 79.4956 158.021 79.294 173.943 94.3029C173.183 84.302 170.442 74.8542 166.103 66.3475L166.109 66.3506Z" fill="white"/>
<path d="M140.622 37.9399L133.084 47.1983L123.682 47.6291L129.424 51.6961L126.017 55.8792L116.923 56.2947L122.478 60.2272L118.989 64.5142C128.033 60.2792 145.27 54.605 163.343 61.3822C157.602 51.9864 149.823 43.9716 140.625 37.9369L140.622 37.9399Z" fill="white"/>
</svg>
