<svg width="200" height="200" viewBox="0 0 200 200" fill="none" xmlns="http://www.w3.org/2000/svg">
<g clip-path="url(#clip0_8668_8129)">
<path d="M174.882 74.2207L174.496 73.1058C173.263 69.5265 171.784 66.0854 170.107 62.7761C175.885 50.9876 199.997 20.564 199.997 20.564C199.997 20.564 186.219 31.1347 178.265 35.183C178.415 34.3348 179.684 26.7714 179.684 26.7714C179.684 26.7714 168.305 37.2232 157.671 44.7255C142.542 28.0695 120.874 18 97.5033 18C88.4215 18 79.4291 19.5326 70.7786 22.5528C28.3244 37.3807 5.7812 84.1809 20.5108 126.888C31.9022 159.853 62.8436 182 97.5033 182C106.588 182 115.584 180.464 124.247 177.441C166.321 162.748 188.836 116.632 174.873 74.2335L174.886 74.2207H174.882Z" fill="#A0A2A3"/>
<path d="M170.193 75.7918L170.205 75.7789L169.841 74.7283C168.669 71.3418 167.27 68.0871 165.676 64.9544C166.321 60.6844 167.768 56.9027 170.295 52.9572C174.032 47.1288 183.708 36.5164 183.708 36.5164C180.115 39.3823 171.042 44.2725 171.042 44.2725C171.659 43.3568 174.036 38.1807 174.036 38.1807C172.109 40.2531 160.817 48.716 160.817 48.716C159.485 49.2044 157.894 49.8117 156.15 50.496C141.88 33.4062 120.573 22.9608 97.5063 22.9608C88.9707 22.9608 80.5278 24.4002 72.3884 27.2405C32.5153 41.1688 11.3298 85.1384 25.1649 125.262C35.8695 156.225 64.9357 177.033 97.5031 177.033C106.039 177.033 114.488 175.593 122.624 172.753C142.487 165.816 157.706 151.419 166.276 133.754C166.414 133.87 166.497 133.934 166.497 133.934C166.612 133.474 166.717 133.025 166.819 132.572C174.825 115.35 176.566 95.1628 170.186 75.795" fill="#0C233F"/>
<path d="M93.0339 45.1143C102.25 47.9225 104.713 46.361 115.037 48.0542C117.155 44.5842 119.177 40.7158 120.973 36.4168C105.987 38.2835 93.0371 45.1111 93.0371 45.1111" fill="#266092"/>
<path d="M85.4761 53.497C85.4761 53.497 91.4273 59.8137 92.7786 61.3174C92.7786 61.3174 95.7079 62.8596 100.369 65.9472C103.819 62.8017 108.058 58.3421 112.175 52.4495C103.145 51.4407 95.7558 51.5049 89.1625 48.5618C89.1625 48.5618 86.1469 52.1636 85.4761 53.497Z" fill="#266092"/>
<path d="M124.566 50.0751C126.164 50.4768 127.873 50.9266 129.735 51.4503C134.447 52.7676 138.549 54.403 142.136 56.1669C144.576 55.1581 147.263 54.0624 149.911 52.9893C139.018 40.8025 127.148 35.9637 127.148 35.9637C125.442 35.9991 123.739 36.1212 122.056 36.3011C122.084 39.4787 122.493 44.9376 124.57 50.0784" fill="#266092"/>
<path d="M136.36 58.5574C133.281 57.2626 130.352 56.2312 127.553 55.4183C128.927 57.2208 130.626 58.8305 132.754 60.0643C132.754 60.0643 134.156 59.4731 136.357 58.5574" fill="#266092"/>
<path d="M89.8748 64.8549C85.163 63.3576 75.7521 62.0949 75.7521 62.0949C74.9503 62.4419 69.7083 65.2693 69.7083 65.2693C73.9121 68.598 77.1481 72.3764 79.6558 76.5469C86.5078 73.5588 92.8967 71.8013 92.8967 71.8013C92.8967 71.8013 94.3502 70.921 96.663 69.0992C92.4878 66.32 89.8748 64.8581 89.8748 64.8581" fill="#266092"/>
<path d="M74.2729 58.31C74.2729 58.31 80.0677 59.2386 85.3449 60.2699C82.307 56.8353 78.627 54.3131 78.627 54.3131L83.4027 47.2028L73.7267 52.1957C73.7267 52.1957 66.7724 51.6752 63.1147 51.5981C66.4657 53.7315 69.3822 56.1927 69.3822 56.1927L65.1432 63.4026L74.2729 58.31Z" fill="#79BC43"/>
<path d="M113.226 146.124C104.633 141.5 95.8325 145.16 93.2322 150.278C98.059 165.556 106.336 169.739 106.336 169.739C113.255 168.55 119.302 166.713 124.573 164.531C123.972 159.12 121.65 150.654 113.229 146.124" fill="#266092"/>
<path d="M91.7914 158.989C84.9393 159.895 69.4494 159.94 68.539 141.998C68.539 141.998 66.5553 138.304 66.8332 134.178C66.8332 134.178 61.2046 131.569 58.8758 124.269C58.8758 124.269 53.3111 121.455 53.1897 114.547C53.0683 107.639 58.7385 103.427 60.866 101.293C62.9871 99.1534 64.0444 98.0514 63.6803 96.8208C63.3097 95.5902 61.1087 90.5458 65.8269 85.2894C68.1397 82.7126 71.7558 80.4057 75.5955 78.4554C70.6473 70.3523 65.4851 67.9843 65.4851 67.9843C64.6546 68.5402 62.6421 70.3619 62.6421 70.3619C59.5754 75.1364 48.743 91.2559 47.9764 116.924C47.2097 142.599 55.9944 156.544 55.9944 156.544C80.2051 173.251 100.247 170.343 100.247 170.343C96.615 166.96 93.8869 163.127 91.7978 158.985" fill="#266092"/>
<path d="M61.7317 62.0178C62.3483 60.9029 64.4885 57.1276 64.4885 57.1276C56.7101 50.8173 45.6701 52.4335 45.6701 52.4335C38.4666 59.11 31.9915 75.0207 31.9915 75.0207C48.5483 57.857 61.7349 62.0146 61.7349 62.0146" fill="#266092"/>
<path d="M72.8707 47.8743C74.6883 47.0678 81.0037 44.3079 81.0037 44.3079C75.6626 39.1639 77.3142 32.3299 77.3142 32.3299C60.965 37.1911 50.3115 47.7586 50.3115 47.7586C58.304 47.2959 72.8739 47.8743 72.8739 47.8743" fill="#266092"/>
<path d="M56.908 70.8631C57.2498 70.1787 59.4061 66.1947 59.4061 66.1947C43.2965 64.5014 28.9375 85.691 28.9375 85.691C20.961 125.85 48.9858 150.606 48.9858 150.606C33.0328 103.555 56.9112 70.8631 56.9112 70.8631" fill="#266092"/>
<path d="M85.8242 42.2869C105.192 33.8946 117.532 32.2335 117.532 32.2335C97.075 26.5497 82.2017 31.0254 82.2017 31.0254C79.9017 39.3502 85.8242 42.2837 85.8242 42.2837" fill="#266092"/>
<path d="M66.1401 92.464C66.1401 92.464 67.9928 96.4384 71.6026 96.0593C71.6026 96.0593 65.1881 100.972 66.1401 92.464Z" fill="#79BC43"/>
<path d="M87.6482 95.5323C87.6482 95.5323 92.1971 94.2664 94.2511 92.48C96.3147 90.7 100.429 88.6405 100.429 88.6405C100.429 88.6405 96.7492 99.8249 87.6482 95.5323Z" fill="#79BC43"/>
<path d="M71.9156 111.739C71.9156 111.739 66.8812 111.668 64.0669 112.388C64.0669 112.388 64.5333 113.397 64.7825 113.57C64.7825 113.57 68.7052 113.13 71.1969 113.078L71.9188 111.739H71.9156Z" fill="#79BC43"/>
<path d="M75.7649 122.92C75.7649 122.92 77.6911 123.235 79.7803 122.978C79.7803 122.978 79.8793 126.213 80.8696 128.35C80.8696 128.35 77.1193 126.615 75.7649 122.92Z" fill="white"/>
<path d="M62.2651 124.186C62.2651 124.186 63.3449 127.678 67.0408 129.175C67.0408 129.175 65.8078 125.712 65.9324 123.614C65.9324 123.614 63.7186 124.443 62.2651 124.189" fill="white"/>
<path d="M71.989 140.077C71.989 140.077 74.0175 139.393 74.9087 139.258C74.9087 139.258 72.7013 137.414 71.6855 135.312C71.6855 135.312 70.74 137.796 71.9922 140.074" fill="white"/>
<path d="M79.6973 134.265C79.6973 134.265 79.2086 136.331 80.1541 138.686C80.1541 138.686 81.8376 138.326 83.4348 138.535C83.4348 138.535 81.4223 137.031 79.6973 134.265Z" fill="white"/>
<path d="M166.79 51.4889C166.79 51.4889 163.123 55.428 161.651 63.5472C160.184 71.6632 163.363 85.1962 156.15 95.5259C156.15 95.5259 152.949 92.1266 152.898 88.7851C152.847 85.4372 152.904 80.8844 151.837 76.7075C151.837 76.7075 150.032 82.7351 146.365 84.7014C146.365 84.7014 142.455 78.9181 146.365 70.8021C150.282 62.6797 162.756 53.4584 166.794 51.4857" fill="white"/>
<path d="M118.475 100.696C95.9696 100.696 79.3362 109.798 79.3362 109.798C79.3362 109.798 92.181 97.6208 117.497 97.6208C148.56 97.6208 161.283 113.695 161.283 113.695C157.616 100.737 150.355 96.4737 144.893 89.3377C138.951 81.5752 138.941 73.3435 145.301 65.385C151.658 57.4328 162.666 51.3635 162.666 51.3635C162.666 51.3635 142.525 59.4795 134.942 62.5993C127.358 65.7127 124.02 66.6187 116.682 68.4244C109.342 70.2269 97.8416 72.566 88.4276 77.9798C79.0103 83.3905 78.4896 88.3063 78.4896 88.3063C76.1034 84.5761 77.0873 81.2185 77.0873 81.2185C74.7681 82.5712 67.5071 85.6107 67.7499 89.2574C68.0949 94.3403 75.621 93.9387 75.621 93.9387C73.3434 98.4979 69.8774 99.4265 69.8774 99.4265C68.1588 102.17 66.6127 102.177 66.6127 102.177C66.4562 101.724 66.0601 100.635 66.0601 100.635C57.4798 107.009 56.7674 111.279 56.7674 111.279C58.2337 112.044 59.3102 113.13 59.3102 113.13C58.7096 113.175 56.5246 113.332 56.5246 113.332C56.333 114.197 56.5246 115.89 56.5246 115.89C59.3901 116.783 60.0705 117.734 60.0705 117.734C59.4539 117.67 56.9431 117.798 56.9431 117.798C56.9431 117.798 57.5533 120.439 60.4889 120.565C63.4246 120.687 65.4435 117.798 65.4435 117.798C62.9966 114.968 61.591 110.971 61.591 110.971L64.9707 105.814C64.6258 107.118 63.7409 110.553 63.7409 110.553C66.5616 109.705 71.6823 109.554 71.6823 109.554C75.9628 106.723 81.1474 103.754 81.1474 103.754C72.203 111.613 71.251 117.798 71.251 117.798C77.9817 122.839 85.4344 117.214 88.0123 115.948C88.0123 115.948 96.6916 112.506 100.729 111.151C104.767 109.798 116.267 107.218 116.267 107.218C95.9601 106.726 80.4287 115.09 80.4287 115.09C80.4287 115.09 89.2357 104.509 115.897 104.509C145.126 104.509 162.002 122.595 162.002 122.595C156.869 110.042 139.015 100.696 118.465 100.696M91.031 91.2398C95.4713 87.6188 104.064 83.474 110.115 82.1631C110.115 82.1631 104.716 87.095 102.809 91.3522C102.608 91.7988 102.295 92.3097 101.908 92.8559C103.707 92.5539 105.911 91.9981 105.911 91.9981C102.688 95.8665 93.7463 98.8963 93.7463 98.8963C93.9188 98.8385 94.1169 98.7324 94.3245 98.6232C92.3535 99.3011 90.1941 99.4811 88.0314 98.7582C86.8719 99.6674 86.4757 101.12 86.4757 101.12C85.2587 99.8827 84.2077 97.0199 83.9202 96.1717C83.096 95.3717 82.2814 94.4014 81.4988 93.2318C81.4988 93.2318 86.5971 94.8672 91.031 91.2494" fill="#A0A2A3"/>
<path d="M102.454 68.7104C102.454 68.7104 111.364 61.2691 119.509 46.785C119.509 46.785 120.675 56.6585 127.774 61.6997C127.774 61.6997 122.394 63.9166 118.478 64.6524C114.561 65.3882 102.458 68.7136 102.458 68.7136" fill="#A0A2A3"/>
<path d="M72.6343 143.441C72.6343 143.441 79.9176 141.259 86.4822 141.417C86.4822 141.417 101.356 132.067 93.8134 117.879C93.8134 117.879 101.927 111.562 123.618 113.284C123.618 113.284 108.287 106.473 87.169 116.397C87.169 116.397 102.745 106.344 117.909 107.295C136.255 108.442 143.056 112.976 147.097 118.2C151.665 124.105 151.914 132.899 149.87 139.656C149.87 139.656 148.665 123.983 130.716 123.019C130.716 123.019 154.188 138.316 128.69 163.667C128.69 163.667 127.774 141.902 106.003 140.308C106.003 140.308 107.965 138.291 109.792 137.083C109.792 137.083 100.697 136.318 92.1843 144.119C83.8691 151.747 87.9293 154.886 87.9293 154.886C87.9293 154.886 75.1036 157.646 72.6343 143.441Z" fill="white"/>
</g>
<defs>
<clipPath id="clip0_8668_8129">
<rect width="184" height="164" fill="white" transform="translate(16 18)"/>
</clipPath>
</defs>
</svg>
