<svg width="200" height="200" viewBox="0 0 200 200" fill="none" xmlns="http://www.w3.org/2000/svg">
<path d="M189.372 97.1772C188.036 93.5197 184.507 86.3485 186.87 80.6275C188.592 76.4717 190.643 75.0567 190.48 68.8629C189.356 55.4501 179.795 52.5912 177.709 52.3484C173.167 51.8277 170.589 54.725 170.544 56.929C170.5 59.1331 171.186 60.1744 172.825 61.3404C172.825 61.3404 172.052 57.4817 175.598 57.9608C177.99 58.277 179.319 61.2381 178.179 63.34C175.326 67.1955 170.688 65.4291 167.836 62.1453C165.753 60.101 161.22 54.38 152.468 54.3321C138.665 54.2522 134.676 65.3716 124.626 61.8323C120.812 60.3437 118.672 56.8172 120.953 52.4187C122.799 49.9271 125.719 49.4288 127.664 50.5532C129.159 51.6872 129.983 53.4281 129.341 55.2329C128.718 56.4563 127.52 56.8204 126.153 56.0314C125.147 55.2999 125.045 54.4119 125.482 54.0063C126.281 53.4792 126.757 53.837 126.757 53.837C125.987 52.7924 125.208 52.4187 123.92 52.9841C121.078 54.9071 121.327 60.3885 129.031 60.6568C137.659 59.8231 143.057 52.9649 140.023 42.2736C137.72 36.4344 129.469 21.4053 99.9951 21.5714C70.5278 21.4053 62.2673 36.4344 59.9674 42.2672C56.9264 52.9585 62.328 59.8167 70.9526 60.6504C78.6668 60.3853 78.9032 54.9007 76.0667 52.9777C74.7794 52.4123 74.0032 52.786 73.2206 53.8306C73.2206 53.8306 73.7061 53.4696 74.5047 53.9999C74.9359 54.4055 74.8401 55.2904 73.8307 56.0251C72.4699 56.8172 71.2688 56.4531 70.6396 55.2265C70.0039 53.4249 70.828 51.684 72.323 50.5468C74.2683 49.4224 77.1879 49.9208 79.0374 52.4123C81.3149 56.8109 79.1747 60.3374 75.3639 61.8259C65.3179 65.3652 61.325 54.2458 47.5224 54.3257C38.7669 54.3736 34.231 60.0978 32.1483 62.1389C29.2958 65.4227 24.6609 67.1891 21.8115 63.3336C20.6648 61.2318 21.9968 58.2706 24.3861 57.9544C27.9382 57.4785 27.1556 61.334 27.1556 61.334C28.8007 60.1681 29.4906 59.1267 29.4395 56.9227C29.398 54.7186 26.8266 51.8214 22.2843 52.342C20.1888 52.588 10.6315 55.4469 9.50392 68.8565C9.3474 75.0471 11.3917 76.4654 13.1135 80.6211C15.4836 86.3421 11.9508 93.5133 10.6219 97.1708C9.46239 100.356 5.28745 113.989 10.7369 122.406C18.5502 134.487 31.3401 128.798 31.4455 135.726C31.535 141.23 23.8176 140.524 24.712 137.659C25.4115 135.403 27.7529 136.47 27.7529 136.47C26.5135 133.087 22.4823 132.289 20.0483 136.317C17.7101 140.176 19.2369 145.063 22.7028 147.305C31.0782 152.742 39.6166 149.401 46.2319 145.52C52.7036 141.709 59.0538 137.563 62.2481 137.467C67.0747 137.342 68.7741 141.361 67.6433 144.472C66.4806 147.647 63.8389 153.624 67.391 158.377C70.9462 163.117 76.2551 164.574 84.5827 166.18C91.9615 167.605 98.2159 174.355 100.005 178.434C101.781 174.355 108.032 167.605 115.427 166.18C123.748 164.574 129.06 163.117 132.606 158.377C136.171 153.624 133.522 147.65 132.366 144.472C131.226 141.364 132.932 137.342 137.752 137.467C140.952 137.563 147.299 141.709 153.771 145.52C160.387 149.401 168.931 152.742 177.3 147.305C180.763 145.063 182.296 140.176 179.961 136.317C177.521 132.289 173.493 133.087 172.25 136.47C172.25 136.47 174.595 135.403 175.288 137.659C176.179 140.524 168.465 141.23 168.551 135.726C168.666 128.798 181.45 134.487 189.266 122.406C194.712 113.989 190.534 100.356 189.381 97.1708" fill="#E03A3E"/>
<path d="M186.701 98.145C186.535 97.6914 186.318 97.1451 186.091 96.5734C184.468 92.4495 181.756 85.5594 184.254 79.5446C184.775 78.2828 185.315 77.2543 185.794 76.3567C186.957 74.1686 187.72 72.712 187.65 69.0321C186.564 56.5808 177.473 55.1881 177.383 55.1721C176.904 55.121 176.479 55.121 176.096 55.1593C178.041 55.4628 179.76 56.7341 180.696 58.5804C181.699 60.5513 181.689 62.8416 180.673 64.7039L180.574 64.8796L180.463 65.0329C178.917 67.1219 176.831 68.2815 174.419 68.3709C171.461 68.4795 168.248 66.8952 165.785 64.1129C165.564 63.8957 165.328 63.6561 165.082 63.3974C162.849 61.0847 159.115 57.21 152.449 57.1717C146.578 57.1398 142.719 59.3949 138.998 61.583C134.634 64.1385 130.124 66.7834 123.681 64.5186L123.63 64.4994L123.579 64.4835C120.72 63.3559 118.634 61.3658 117.704 58.8839C117.072 57.1941 116.679 54.4757 118.42 51.1153L118.522 50.9013L118.666 50.7192C121.224 47.2694 125.703 46.145 129.079 48.0903L129.236 48.183L129.376 48.2852C132.018 50.304 133.024 53.3162 132.012 56.1815L131.954 56.3572L131.868 56.5137C131.721 56.8012 131.548 57.0663 131.37 57.3123C133.535 56.6574 135.247 55.4628 136.394 53.7794C138.196 51.1473 138.512 47.4898 137.311 43.1775C134.465 36.0446 125.827 24.2673 99.9696 24.4142C74.1469 24.2673 65.5159 36.0446 62.6634 43.1775C61.4655 47.4898 61.7818 51.1473 63.5706 53.7794C64.7269 55.4628 66.4359 56.6574 68.5984 57.3123C68.4163 57.0663 68.2438 56.8012 68.1033 56.5137L68.0202 56.3572L67.9564 56.1815C66.9406 53.3162 67.95 50.304 70.5916 48.2852L70.729 48.183L70.8887 48.0903C74.2683 46.145 78.7403 47.2662 81.3021 50.7192L81.4427 50.9013L81.5481 51.1153C83.289 54.4757 82.8929 57.1941 82.2668 58.8839C81.3277 61.3658 79.245 63.3559 76.3893 64.4835L76.3382 64.4994L76.2903 64.5186C69.8474 66.7834 65.3338 64.1385 60.9704 61.583C57.2523 59.3981 53.3999 57.143 47.5192 57.1717C40.8559 57.2069 37.1218 61.0815 34.8858 63.3974C34.643 63.6561 34.4035 63.8989 34.1863 64.1129C31.7235 66.8952 28.5068 68.4795 25.5489 68.3709C23.1404 68.2815 21.0449 67.1219 19.5021 65.0329L19.3903 64.8796L19.2976 64.7039C18.285 62.8416 18.2755 60.5481 19.2817 58.5804C20.2112 56.7341 21.9297 55.4628 23.8751 55.1593C23.4949 55.121 23.0733 55.1178 22.591 55.1721C22.4983 55.1881 13.4105 56.5776 12.3309 69.0321C12.251 72.712 13.0208 74.1686 14.1804 76.3567C14.6627 77.2543 15.2025 78.2828 15.7232 79.5446C18.2116 85.5626 15.4996 92.4495 13.8865 96.5734C13.6597 97.1483 13.4425 97.6946 13.2732 98.145C11.2895 103.61 9.0152 114.548 13.1039 120.866C16.7709 126.542 21.572 127.584 25.8172 128.504C29.5417 129.315 34.1863 130.328 34.2757 135.691C34.3204 138.527 32.8958 140.897 30.4777 142.025C28.0596 143.143 25.0218 142.836 23.2618 141.297C22.5622 140.683 22.1118 139.933 21.9042 139.115C21.3388 141.373 22.4664 143.788 24.2328 144.925C29.941 148.634 36.2753 148.062 44.769 143.07L47.8642 141.233C54.601 137.198 58.8941 134.723 62.1491 134.637C65.2029 134.547 67.7519 135.71 69.3235 137.892C70.8472 140.009 71.2209 142.903 70.285 145.449L70.0199 146.184C68.921 149.094 67.2696 153.509 69.6461 156.671C72.4411 160.411 76.6736 161.772 85.0969 163.398C91.3322 164.602 96.7402 169.03 99.9792 173.134C103.212 169.033 108.62 164.602 114.861 163.398C123.285 161.769 127.511 160.408 130.309 156.671C132.679 153.509 131.031 149.097 129.938 146.184L129.67 145.449C128.741 142.903 129.111 140.009 130.635 137.892C132.21 135.71 134.755 134.55 137.806 134.637C141.064 134.723 145.361 137.202 152.094 141.233L155.189 143.07C163.683 148.059 170.014 148.634 175.729 144.925C177.492 143.788 178.626 141.373 178.051 139.115C177.847 139.933 177.387 140.683 176.7 141.297C174.94 142.836 171.899 143.143 169.481 142.025C167.053 140.901 165.641 138.53 165.679 135.691C165.766 130.328 170.413 129.312 174.141 128.504C178.377 127.58 183.181 126.539 186.851 120.866C190.937 114.551 188.669 103.61 186.685 98.145" fill="#C4CED4"/>
<path d="M184.031 99.1163C183.877 98.6979 183.663 98.174 183.449 97.615C181.667 93.0919 178.7 85.5278 181.625 78.4492C182.2 77.0629 182.801 75.9257 183.287 75.0186C184.366 72.9966 184.858 72.0574 184.807 69.1922C184.638 67.381 184.286 65.8637 183.814 64.5892C183.641 65.0939 183.43 65.5858 183.175 66.0586L183.076 66.2279L182.986 66.4003L182.868 66.5633L182.75 66.7198C180.706 69.486 177.783 71.0832 174.531 71.2078C170.774 71.3547 166.756 69.4445 163.747 66.0905C163.511 65.8605 163.265 65.6082 163.041 65.3622C160.994 63.2444 157.895 60.0469 152.433 60.0117C147.338 59.983 143.984 61.9475 140.435 64.0334C135.979 66.6431 130.424 69.8981 122.735 67.1957L122.691 67.1766C122.691 67.1766 122.643 67.1638 122.592 67.1446L122.547 67.1286C118.921 65.7008 116.264 63.1294 115.044 59.884C114.213 57.6512 113.68 54.0991 115.9 49.8028L116.008 49.6015L116.117 49.3939L116.257 49.2086L116.392 49.0266C119.809 44.4204 125.885 42.9606 130.51 45.6374L130.67 45.7173L130.827 45.8131L130.967 45.9249C130.967 45.9249 131.108 46.0239 131.108 46.0335C132.849 47.3559 134.066 49.0457 134.714 50.9048C135.535 48.7135 135.161 46.0974 134.628 44.0978C132.002 37.6836 124.032 27.1265 99.9633 27.2574C75.955 27.1265 67.9884 37.6836 65.3723 44.0978C64.8324 46.0974 64.4651 48.7135 65.2796 50.9048C65.9281 49.0457 67.1483 47.3559 68.8828 46.0271L69.0201 45.9281L69.1735 45.8163L69.33 45.7205L69.4865 45.6406C74.1055 42.9638 80.181 44.4236 83.5989 49.0298L83.7395 49.2118L83.88 49.3971L83.9854 49.6047L84.0908 49.806C86.3141 54.1023 85.7774 57.6544 84.9405 59.8872C83.7203 63.1358 81.0626 65.7072 77.4499 67.1318L77.3988 67.1478C77.3988 67.1478 77.3509 67.1702 77.303 67.1798L77.2518 67.1989C69.5632 69.9045 64.0115 66.6495 59.5459 64.0366C55.997 61.9507 52.6494 59.9862 47.5545 60.0149C42.089 60.0501 38.9938 63.2476 36.9526 65.3654C36.7258 65.605 36.4766 65.8573 36.2435 66.0905C33.2344 69.4381 29.2128 71.3579 25.4563 71.211C22.2077 71.0832 19.2913 69.486 17.2406 66.723L17.1224 66.5664L17.0074 66.4035L16.9148 66.231L16.8221 66.0617C16.5634 65.589 16.3526 65.0971 16.1833 64.5924C15.7105 65.8669 15.3528 67.3874 15.1899 69.1954C15.1419 72.0606 15.6339 72.9998 16.704 75.0218C17.1895 75.9321 17.7964 77.0693 18.365 78.4524C21.2942 85.531 18.3235 93.0919 16.5442 97.6182C16.3238 98.1772 16.1162 98.7011 15.9693 99.1195C14.2827 103.751 12.0211 113.938 15.5061 119.323C18.5407 124.009 22.377 124.843 26.4338 125.728C30.1296 126.53 37.0101 128.028 37.1379 135.646C37.1954 139.486 35.2149 142.83 31.9439 144.466C35.1862 144.517 38.8564 143.265 43.3348 140.629C43.3348 140.629 46.4301 138.789 46.4205 138.802C53.7674 134.401 58.118 131.909 62.0917 131.794C66.1069 131.685 69.5121 133.257 71.6522 136.234C73.7158 139.099 74.2268 143.009 72.9715 146.437C72.9715 146.437 72.7 147.171 72.6936 147.178C71.7704 149.656 70.5023 153.042 71.9397 154.965C73.9649 157.677 77.0442 158.936 85.656 160.603C90.6775 161.571 95.8554 164.587 100.002 168.835C104.141 164.587 109.319 161.571 114.338 160.603C122.949 158.936 126.029 157.674 128.06 154.965C129.498 153.039 128.233 149.65 127.294 147.168C127.169 146.82 127.08 146.58 127.013 146.386L127.019 146.417C125.77 143.003 126.284 139.096 128.348 136.228C130.491 133.251 133.88 131.676 137.905 131.788C141.876 131.899 146.226 134.391 153.564 138.783L155.11 139.703C155.764 140.08 156.272 140.39 156.684 140.677L156.649 140.613C161.144 143.249 164.808 144.51 168.056 144.459C164.788 142.824 162.801 139.479 162.859 135.64C162.99 128.022 169.867 126.52 173.557 125.722C177.62 124.834 181.456 124 184.484 119.317C187.969 113.928 185.708 103.745 184.031 99.1131" fill="#002B5C"/>
<path d="M99.8386 40.2904C91.8688 40.2904 85.362 38.6645 85.3014 36.6489C85.2439 34.6333 91.7474 33.0043 99.8386 33.0043C107.93 33.0043 114.433 34.6333 114.376 36.6489C114.318 38.6645 107.812 40.2904 99.8386 40.2904ZM99.7268 31.9789C89.62 31.9789 81.5065 34.3842 81.6183 37.3677C81.7237 40.3479 89.8341 42.7532 99.7268 42.7532C109.62 42.7532 117.727 40.3447 117.829 37.3677C117.944 34.3842 109.834 31.9789 99.7268 31.9789Z" fill="#E03A3E"/>
<path d="M92.9358 33.569C92.7026 37.1243 99.6885 38.0985 101.017 36.2331C98.8867 36.3193 97.9987 35.3482 98.3533 33.9268C99.8929 27.781 119.653 29.196 120.113 37.2425C120.461 43.2062 110.805 39.9257 103.071 56.5264C109.779 42.1265 123.793 42.874 123.904 37.9516C124.134 28.0046 93.498 25.1616 92.9358 33.569Z" fill="#C4CED4"/>
<path d="M118.79 103.499C118.104 101.659 118.104 98.8193 120.94 98.8193C118.934 96.2159 114.67 99.2282 117.864 104.029C118.87 105.534 119.547 108.096 119.752 112.178C120.177 120.7 110.099 120.473 112.67 133.247C112.293 132.791 111.887 132.347 111.472 131.919C109.52 129.922 107.409 128.44 106.713 126.418C104.55 120.068 112.437 119.854 108.751 109.245C104.521 97.0848 91.8784 107.466 85.4802 94.6763C80.0467 83.8061 90.0704 70.7127 98.1999 61.9252C96.491 63.6884 95.1046 65.1227 95.2516 64.9534C88.5595 71.5208 75.8654 82.5763 81.9314 96.2798C86.0073 105.511 100.263 100.956 102.116 110.894C104.004 121 94.8267 117.777 90.5304 128.092C89.7574 129.957 87.8632 132.385 86.512 134.228C85.0586 136.234 83.6403 140.023 83.6403 143.444C83.6403 143.581 83.6403 143.718 83.6531 143.868C82.9344 143.805 80.7335 143.38 80.248 140.479C80.1777 140.064 80.1426 139.601 80.1521 139.08C80.1585 138.78 80.1937 138.489 80.2544 138.208C81.1583 133.982 87.7993 131.58 88.4988 126.29C89.2144 120.965 81.9346 120.25 79.6251 120.965C79.6251 120.965 83.7074 122.262 83.7074 126.115C83.7074 129.309 79.4462 130.909 78.3729 136.95C77.8938 139.703 78.2004 143.546 83.7872 145.226C84.5251 150.024 88.272 157.645 99.9408 157.617C113.207 157.585 116.248 147.797 116.248 143.444C116.248 141.799 116.008 140.185 115.539 138.652C111.673 120.898 119.228 126.099 122.001 118.11C122.09 117.851 122.173 117.583 122.253 117.295C123.971 111.037 119.583 105.598 118.794 103.499H118.79Z" fill="#C4CED4"/>
<path d="M99.0113 147.337C95.6669 147.666 92.8847 150.257 91.3546 153.036C93.4213 154.885 96.0854 156.073 99.0113 156.284V147.334V147.337Z" fill="#002B5C"/>
<path d="M108.304 133.653C106.237 131.887 103.595 130.759 100.704 130.593V135.525C102.985 135.407 104.416 134.864 105.71 134.385C106.582 134.049 107.396 133.752 108.304 133.653Z" fill="#002B5C"/>
<path d="M99.0111 140.3V137.317C96.6058 137.224 95.031 136.681 93.7533 136.234C92.3383 135.736 91.2969 135.378 89.6071 135.768C88.0132 137.911 87.0613 140.566 87.0613 143.444C87.0613 143.581 87.0677 143.715 87.0773 143.849C90.4408 141.629 94.52 140.419 99.008 140.297" fill="#002B5C"/>
<path d="M100.704 142.073V145.583C104.343 145.98 107.936 148.551 109.616 151.934C111.14 150.199 112.204 148.062 112.616 145.702C109.616 143.405 105.71 142.213 100.704 142.073Z" fill="#002B5C"/>
<path d="M99.0113 145.551V142.073C94.5297 142.207 90.5113 143.498 87.2979 145.871C87.7163 148.062 88.6938 150.062 90.0673 151.71C92.1596 148.148 95.504 145.833 99.0113 145.555" fill="white"/>
<path d="M106.329 136.046C104.972 136.557 103.314 137.176 100.704 137.304V140.297C105.646 140.431 109.636 141.533 112.811 143.651V143.444C112.811 140.435 111.782 137.678 110.057 135.483C108.76 135.241 107.594 135.57 106.326 136.046" fill="white"/>
<path d="M94.338 134.554C95.5518 134.976 96.9062 135.449 99.0112 135.541V130.603C96.0884 130.814 93.434 131.999 91.3737 133.832C92.4757 133.899 93.3893 134.219 94.338 134.554Z" fill="white"/>
<path d="M100.704 147.372V156.297C103.582 156.128 106.205 155.013 108.275 153.253C107.128 150.5 104.18 147.804 100.704 147.372Z" fill="white"/>
<path d="M37.307 77.9285C37.307 77.9285 36.6426 79.7621 36.4541 80.155C36.2625 80.5543 36.2624 80.6661 35.2403 80.3019C33.3461 79.6151 31.5764 76.654 31.5764 76.654L33.8188 76.3186C33.8188 76.3186 34.5791 78.3438 36.0868 79.0625L37.3996 75.4913C37.3996 75.4913 39.3194 78.6792 39.9103 78.4173C40.76 78.034 41.236 75.7916 41.1561 74.9706L42.0888 74.8109C42.255 75.8906 41.6097 78.3023 40.3511 79.564C40.0669 79.8515 39.6037 80.1262 39.0894 79.8419C38.5847 79.5512 37.3102 77.9285 37.3102 77.9285" fill="white"/>
<path d="M69.7899 73.2585C70.5086 73.3703 71.3327 73.9389 71.0293 74.5746C70.6268 75.437 69.2373 75.9258 67.4996 75.7916C65.9791 75.667 65.5543 74.6289 65.5543 74.6289C65.5543 74.6289 66.4231 75.1144 66.9821 75.1559C67.8286 75.2198 68.7102 75.3061 69.151 74.9036C69.3682 74.7087 69.3555 74.5107 69.1446 74.3478L66.8511 73.9581C65.714 73.76 65.0815 72.9582 65.5798 72.3737C66.1133 71.7316 67.1386 71.3739 68.1672 71.4473C70.0071 71.5815 70.4543 72.2076 70.4543 72.2076C70.4543 72.2076 67.8925 71.8434 67.4229 72.428C67.2664 72.6229 67.4133 72.8305 67.7679 72.9135L69.7899 73.2553V73.2585Z" fill="white"/>
<path d="M123.869 72.2169C123.764 71.8336 122.25 71.38 122.25 71.38L125.559 71.3864C125.559 71.3864 125.227 71.7825 125.275 72.2265C125.326 72.6673 125.428 73.418 125.428 73.418C124.61 73.6544 124.013 73.6767 123.103 73.664C121.298 73.6448 119.461 72.6993 119.474 71.5813C119.484 70.4473 121.042 69.5465 122.857 69.5465C124.671 69.5465 125.374 70.6326 125.374 70.6326C125.374 70.6326 124.355 70.1502 123.055 70.1311C121.723 70.1311 121.078 71.1309 121.084 71.61C121.097 72.1658 121.585 73.1976 123.112 73.2168C123.346 73.2199 123.505 73.1593 123.722 73.089C123.722 73.089 124.026 72.7089 123.873 72.2169" fill="white"/>
<path d="M151.708 74.5778C151.593 75.3221 150.781 75.8268 149.896 75.7086C149.008 75.5904 148.382 74.894 148.494 74.153C148.612 73.4087 149.417 72.904 150.302 73.019C151.19 73.134 151.813 73.8367 151.708 74.5778ZM150.273 72.4153C148.357 72.1789 146.801 72.888 146.677 73.8623C146.558 74.8429 147.894 75.9162 149.804 76.1558C151.73 76.4049 153.282 75.6958 153.407 74.712C153.532 73.7409 152.193 72.6708 150.273 72.4153Z" fill="white"/>
<path d="M52.1223 76.0092C52.3331 75.5172 52.5727 75.0285 52.8537 74.7187C53.1029 74.444 53.7034 75.0477 54.1985 75.7792L52.1223 76.0092ZM54.9396 77.354L57.4951 77.0473C57.4951 77.0473 55.3804 74.2076 54.3008 73.524C53.4255 72.9618 52.9528 72.751 52.4609 73.4729C51.4706 74.9423 50.4357 77.8523 50.4357 77.8523L51.5345 77.7341C51.5345 77.7341 51.6431 77.3316 51.8188 76.8077L54.6234 76.5043C54.7895 76.8397 54.9109 77.1431 54.9364 77.3603" fill="white"/>
<path d="M83.899 73.9613L85.8508 73.8463C85.8508 73.8463 84.1674 71.4569 85.7422 69.5851C85.7422 69.5851 84.8701 69.3551 84.2472 69.9876C83.8767 70.3613 83.7329 70.9778 83.685 71.6167L81.6471 71.738C81.564 71.2238 81.2957 70.7734 80.7814 70.521C79.9892 70.1345 79.1172 70.553 79.1172 70.553C79.1172 70.553 80.2192 71.2206 80.462 72.2555C80.6984 73.2809 80.1553 74.2296 80.1553 74.2296C80.1553 74.2296 81.4171 73.7632 81.6407 72.4855L83.6818 72.3737C83.7266 73.2298 83.8959 73.9613 83.8959 73.9613" fill="white"/>
<path d="M97.3024 69.2302C97.3024 69.2302 96.4463 68.9523 95.7883 69.5464C94.6959 70.5303 95.2165 73.1368 95.2165 73.1368H97.1619C97.1619 73.1368 95.619 71.0126 97.3024 69.2302Z" fill="white"/>
<path d="M139.505 71.2398C139.138 70.8884 133.966 70.6648 133.966 70.6648L133.877 71.5464C133.877 71.5464 134.321 71.112 134.941 71.1471C135.174 71.1631 135.669 71.2142 136.209 71.2685C136.202 71.2749 136.19 71.2845 136.18 71.2877C135.046 72.2332 135.445 74.8621 135.445 74.8621L137.4 74.9388C137.4 74.9388 136.139 73.0413 137.391 71.4059C137.851 71.4634 138.224 71.5145 138.359 71.556C138.953 71.6934 139.393 72.2779 139.393 72.2779C139.393 72.2779 139.876 71.6007 139.508 71.2366" fill="white"/>
<path d="M112.29 68.9784C112.29 68.9784 111.594 68.7037 111.073 69.2915C110.738 69.6588 110.587 70.3009 110.53 70.9621C109.38 69.9176 108.335 69.4704 107.54 69.2883C107.534 69.2787 107.534 69.2755 107.521 69.2755L107.483 69.2691C106.591 69.0711 106.032 69.2116 106.032 69.2116C106.032 69.2116 106.991 70.3009 107.157 71.3422C107.313 72.3836 106.773 73.3003 106.773 73.3003C106.773 73.3003 108.198 72.8212 108.259 71.2176C108.259 71.109 108.259 70.9876 108.249 70.8695C110.048 71.8437 110.6 73.2396 110.6 73.2396H112.181C112.181 73.2396 110.942 70.764 112.29 68.9784Z" fill="white"/>
<path d="M167.424 75.1206C167.424 75.1206 166.788 74.7277 166.168 75.2229C165.788 75.5327 165.529 76.1396 165.36 76.7849C164.395 75.5678 163.443 74.945 162.69 74.6351C162.69 74.6287 162.683 74.6223 162.68 74.6223L162.638 74.6064C161.798 74.2614 161.217 74.3125 161.217 74.3125C161.217 74.3125 161.984 75.5391 161.974 76.5964C161.965 77.6473 161.278 78.4619 161.278 78.4619C161.278 78.4619 162.763 78.2287 163.083 76.6667C163.102 76.5549 163.121 76.4335 163.134 76.3121C164.75 77.5739 165.06 79.0432 165.06 79.0432L166.615 79.3084C166.615 79.3084 165.794 76.6507 167.43 75.1238" fill="white"/>
<path fill-rule="evenodd" clip-rule="evenodd" d="M104.368 61.5769C105.55 59.2099 105.566 55.6355 105.374 53.4665V53.4506C106.518 51.5308 108.406 48.7486 110.667 46.9246C109 51.6234 109.383 59.0055 104.368 61.5801M97.4397 62.286C99.3467 59.0662 98.711 55.4023 98.0817 53.3324C99.0975 51.5947 100.765 48.4259 101.177 45.7683C101.177 45.7683 103.959 48.279 104.234 53.3452C100.902 60.6505 97.4397 62.286 97.4397 62.286ZM91.3418 59.4111C94.0154 52.3549 89.965 46.8064 87.9814 44.6471C91.6005 45.912 95.5071 49.3172 96.8807 53.096C94.8012 57.4403 91.3418 59.4111 91.3418 59.4111ZM113.574 43.2576C113.306 43.3726 113.053 43.5259 112.823 43.6952C112.791 43.6856 112.763 43.6856 112.715 43.6952C108.153 46.2411 105.199 51.7512 105.199 51.7512C104.895 48.5505 102.241 44.8803 102.241 44.8803L99.8673 44.9378C99.4265 48.7582 97.4716 51.6905 97.4716 51.6905C94.8076 46.0909 90.08 44.5193 88.6777 43.9028C88.6554 43.8964 84.1738 42.3216 84.1738 42.3216C84.1738 42.3216 84.2121 42.344 84.276 42.3951L83.8799 42.213C83.8799 42.213 95.8521 51.0517 88.7544 62.1902C88.7544 62.1902 94.7181 60.0915 97.2065 54.9391C97.2065 54.9391 98.81 59.9286 94.0793 66.0105C94.0793 66.0105 101.417 62.0943 104.218 55.7728C104.218 55.7728 104.611 60.2736 101.822 63.7682C114.376 60.3311 107.09 47.3622 116.264 41.9415L113.574 43.2544" fill="white"/>
<path d="M39.4024 85.406C45.264 85.406 45.4428 90.9609 45.4428 90.9609C47.0528 85.2303 50.5314 84.6617 52.0007 84.9077C53.2242 85.1089 58.0955 85.9905 59.5744 94.4235C58.8749 82.9272 52.8344 81.8348 51.4417 81.6048C49.9468 81.3556 46.3947 81.9146 44.772 87.6452C44.772 87.6452 44.5772 82.0839 38.6007 82.0711C34.9815 82.0616 33.1065 86.4218 32.9308 86.853C33.3652 88.2138 33.8156 90.2326 33.8156 90.2326C33.8156 90.2326 35.6683 85.4028 39.4024 85.4028V85.406Z" fill="#C4CED4"/>
<path d="M31.2858 82.6145C31.2858 82.6145 26.6573 85.336 24.1689 87.2622C24.1689 87.2622 25.3892 88.1917 26.2388 89.5333C28.6761 87.588 32.4933 85.7673 32.4933 85.7673C32.5955 85.9206 31.7011 83.2182 31.289 82.6145H31.2858Z" fill="#C4CED4"/>
<path d="M41.4434 118.372C41.4434 118.372 41.1432 119.097 41.0697 121.196C41.0697 121.196 43.8328 123.291 46.9664 123.049C46.9664 123.049 47.289 121.943 47.3433 120.225C44.2033 120.474 41.4402 118.372 41.4402 118.372H41.4434Z" fill="#E03A3E"/>
<path d="M27.5419 106.62L27.51 106.569C27.2864 113.079 28.6568 120.122 35.9685 124.99C36.0995 124.211 36.3422 122.173 36.3422 122.173C29.9345 117.909 27.8997 112.258 27.5419 106.62Z" fill="#E03A3E"/>
<path d="M51.7934 121.799C51.605 122.798 51.6401 123.575 51.4165 124.613C51.4165 124.613 58.3322 118.093 59.4629 106.051C57.639 116.295 51.7934 121.802 51.7934 121.802V121.799Z" fill="#E03A3E"/>
<path d="M59.5745 94.424C58.0955 85.9911 53.221 85.1095 52.0008 84.9082C50.5314 84.6623 47.0528 85.2277 45.4429 90.9614C45.4429 90.9614 45.264 85.4065 39.4025 85.4065C35.6684 85.4065 33.8157 90.2363 33.8157 90.2363C33.8157 90.2363 33.3653 88.2175 32.9308 86.8567C32.7743 86.3648 32.621 85.9591 32.49 85.7675C32.49 85.7675 28.6728 87.5914 26.2356 89.5336C26.2356 89.5336 28.7591 92.0794 28.0819 97.1392C27.6858 100.116 27.3344 103.365 27.5421 106.617C27.8998 112.258 29.9346 117.909 36.3424 122.17C29.957 109.971 35.3074 91.3351 37.7958 90.9614C39.872 90.6516 42.386 92.7886 41.4436 118.368C41.4436 118.368 44.2067 120.474 47.3467 120.221C47.3467 120.221 47.845 105.901 47.5575 99.9693C47.3882 96.3789 46.6951 90.5781 50.6049 90.4184C53.9365 90.2842 55.7317 103.505 51.7932 121.793C51.7932 121.793 57.6387 116.286 59.4627 106.042C59.7789 104.262 59.9769 102.346 59.9993 100.282C60.0217 98.0048 59.862 96.0659 59.5713 94.4176L59.5745 94.424Z" fill="white"/>
<path d="M173.844 108.261C173.844 108.261 173.812 108.261 173.796 108.261C174.119 114.292 170.017 120.515 164.347 120.962C159.329 121.358 157.694 118.445 157.467 116.618C157.467 116.618 157.467 116.618 157.467 116.621C157.227 119.393 159.042 124.313 164.74 123.776C170.666 123.22 174.735 115.707 173.841 108.258L173.844 108.261Z" fill="#E03A3E"/>
<path d="M165.459 84.1609C168.513 83.8032 170.362 85.8156 170.228 87.5756C170.206 87.8695 170.151 88.1283 170.075 88.3519C170.075 88.355 170.081 88.3646 170.084 88.3678C170.841 87.3041 171.953 81.7205 166.583 81.1647C163.859 80.8932 160.383 83.4358 159.588 88.633C160.722 85.56 163.338 84.4069 165.462 84.1609H165.459Z" fill="#C4CED4"/>
<path d="M173.799 108.265C173.422 101.154 168.922 96.411 165.794 92.236C163.546 89.227 164.744 87.2976 165.513 86.8473C166.424 86.317 167.947 86.4735 168.213 87.5979C168.379 88.2815 168.235 89.703 167.111 89.8914C167.111 89.8914 169.433 90.2683 170.078 88.3518C170.155 88.125 170.209 87.8694 170.231 87.5756C170.366 85.8155 168.519 83.8031 165.462 84.1608C163.338 84.4068 160.722 85.5599 159.588 88.6329C159.182 89.7285 158.968 91.0701 159.032 92.7024C159.205 97.1361 163.392 101.177 165.293 103.589C167.079 105.857 169.059 110.696 167.305 114.555C165.881 117.698 164.015 117.944 162.888 118.024C161.76 118.1 159.917 116.938 160.319 115.51C160.725 114.082 162.591 113.714 162.865 114.043C162.865 114.043 161.674 112.929 160.524 112.957C158.828 112.98 157.595 114.289 157.457 115.941C157.441 116.139 157.445 116.366 157.477 116.615C157.7 118.442 159.336 121.355 164.357 120.959C170.024 120.512 174.128 114.289 173.806 108.259L173.799 108.265Z" fill="white"/>
<path d="M115.299 73.8301C115.299 73.8301 111.2 77.0499 107.249 78.0434C107.249 78.0434 107.124 79.222 107.093 80.8863C110.964 79.8929 114.749 77.1777 114.749 77.1777C114.887 75.7435 115.299 73.8333 115.299 73.8333V73.8301Z" fill="#C4CED4"/>
<path d="M107.042 83.7358C107.077 81.9822 107.093 80.8865 107.093 80.8865C103.889 80.4202 102.116 80.4872 102.116 80.4872C100.704 84.2246 100.992 88.8787 100.992 88.8787C100.992 88.8787 101.161 86.566 102.062 83.6879C102.062 83.6879 103.87 83.2663 107.042 83.7326V83.7358Z" fill="#C4CED4"/>
<path d="M114.213 81.733C114.14 82.6912 114.063 83.7454 113.996 84.8602C116.912 84.7963 118.851 83.7422 119.611 83.2726L120.017 80.0687C119.266 80.5319 117.078 81.6243 114.216 81.7298L114.213 81.733Z" fill="#C4CED4"/>
<path d="M112.606 115.238C107.585 115.401 106.843 110.293 106.594 107.492C106.588 107.441 106.585 107.38 106.582 107.313C106.556 108.776 106.556 109.852 106.594 110.335C106.843 113.13 107.585 118.314 112.606 118.078C117.618 117.832 117.474 111.28 117.381 109.638C117.471 111.283 116.321 115.12 112.606 115.238Z" fill="#E03A3E"/>
<path d="M114.213 81.7328C114.376 79.698 114.555 78.0849 114.75 77.1777C114.75 77.1777 110.965 79.8929 107.093 80.8863C107.093 80.8863 107.077 81.982 107.042 83.7356C103.873 83.2661 102.062 83.6909 102.062 83.6909C101.158 86.569 100.992 88.8816 100.992 88.8816C100.992 88.8816 103.228 87.5177 106.994 87.5305C106.889 94.9061 106.461 105.067 106.582 107.316C106.588 107.383 106.592 107.444 106.595 107.495C106.844 110.296 107.585 115.404 112.606 115.241C116.321 115.12 117.475 111.283 117.382 109.641C117.382 109.641 116.973 111.615 115.411 111.446C113.843 111.283 113.261 110.788 113.018 107.166C112.859 104.84 113.399 95.6823 113.843 87.4346C118.235 86.3933 119.608 83.2756 119.608 83.2756C118.848 83.742 116.909 84.7993 113.993 84.8632C114.06 83.7484 114.136 82.6943 114.21 81.736L114.213 81.7328Z" fill="white"/>
<path d="M132.127 82.5986C132.315 81.5668 132.526 80.5031 132.759 79.3915C132.759 79.3915 126.105 81.4933 124.47 82.1609C124.47 82.1609 124.416 83.3556 124.329 85.2019C124.342 85.3105 124.355 85.4159 124.368 85.5245C124.377 85.3329 124.381 85.2307 124.381 85.2307C128.022 83.3364 131.807 82.6529 132.124 82.5986H132.127Z" fill="#C4CED4"/>
<path d="M134.906 111.095C134.992 112.75 133.826 116.602 130.108 116.717C125.067 116.877 124.103 110.987 123.844 108.172C123.828 107.997 123.812 107.786 123.803 107.546C123.796 109.083 123.819 110.319 123.882 111.018C124.141 113.829 125.109 119.729 130.146 119.56C135.171 119.388 134.989 112.753 134.903 111.095H134.906Z" fill="#E03A3E"/>
<path d="M134.906 111.095C134.906 111.095 134.487 113.079 132.925 112.913C131.354 112.746 130.616 111.319 130.124 108.421C129.514 104.825 129.146 97.4937 132.152 82.5955C132.152 82.5955 132.143 82.5955 132.127 82.5987C131.811 82.653 128.025 83.3397 124.384 85.2308C124.384 85.2308 124.377 85.3362 124.371 85.5246C124.269 87.8213 123.598 103.017 123.806 107.546C123.815 107.786 123.831 107.997 123.847 108.172C124.106 110.986 125.071 116.877 130.111 116.717C133.829 116.602 134.992 112.75 134.909 111.095H134.906Z" fill="white"/>
<path d="M128.198 76.6346C129.383 76.6346 130.344 77.5737 130.389 78.7428C130.993 77.9826 131.098 76.9827 131.098 76.2289C131.098 75.0119 130.041 74.0695 128.808 74.0408C125.968 73.9897 125.665 77.7877 125.974 78.1646C126.003 78.2094 126.032 78.2445 126.057 78.286C126.307 77.3341 127.166 76.6314 128.194 76.6314L128.198 76.6346Z" fill="#C4CED4"/>
<path d="M130.389 78.7463C130.344 77.5772 129.383 76.6381 128.197 76.6381C127.166 76.6381 126.306 77.3376 126.061 78.2927C126.016 78.4716 125.99 78.6569 125.99 78.8485C125.99 80.0719 126.968 81.0654 128.188 81.0654C129.408 81.0654 130.395 80.0751 130.395 78.8549C130.395 78.8198 130.392 78.7846 130.389 78.7495V78.7463Z" fill="white"/>
<path d="M152.398 114.666C150.596 117.685 147.549 117.934 145.073 117.005C143.086 116.254 141.553 114.714 140.729 113.513C139.818 112.197 138.637 109.195 138.282 104.764C138.253 110.763 139.732 114.778 140.825 116.353C141.649 117.551 143.192 119.09 145.169 119.844C147.641 120.771 150.746 120.56 152.497 117.506C153.493 115.749 153.487 112.89 153.084 111.689C153.212 112.549 153.059 113.545 152.398 114.666Z" fill="#E03A3E"/>
<path d="M149.539 81.6467C152.279 81.3368 155.55 83.5026 154.931 87.6424C154.895 87.8724 154.851 88.0928 154.806 88.3004C155.611 86.6905 157.441 80.1294 151.158 78.7431C148.053 78.0627 141.63 80.7746 139.608 91.2711C139.531 91.6768 139.464 92.0697 139.394 92.4594C139.4 92.453 139.403 92.4466 139.406 92.4402C141.684 84.0264 146.942 81.9406 149.539 81.6499V81.6467Z" fill="#C4CED4"/>
<path d="M149.539 81.6468C146.939 81.9374 141.684 84.0233 139.406 92.4371C139.231 93.0855 139.071 93.7659 138.934 94.491C138.173 98.4647 138.058 101.911 138.285 104.764C138.637 109.198 139.818 112.2 140.732 113.513C141.556 114.714 143.089 116.254 145.076 117.004C147.552 117.934 150.599 117.685 152.401 114.666C153.065 113.545 153.215 112.548 153.088 111.689C152.762 109.463 150.561 108.182 150.561 108.182C152.193 110.616 151.171 113.059 148.264 113.36C144.846 113.721 143.671 105.537 143.997 96.7206C144.322 87.9108 147.459 85.2467 148.715 84.972C149.973 84.6877 151.589 85.4001 151.618 86.7896C151.637 87.9555 151.391 88.7381 150.67 89.2077C149.954 89.6708 148.558 89.2077 148.558 89.2077C148.584 90.6004 149.647 91.5363 150.57 91.8174C151.446 92.0761 154.008 91.8174 154.809 88.3005C154.854 88.0929 154.899 87.8756 154.934 87.6425C155.557 83.5026 152.286 81.3369 149.542 81.6468H149.539Z" fill="white"/>
<path d="M93.4212 79.6695C95.8233 79.4683 97.3438 80.9504 97.6025 82.4613C97.9348 79.9219 96.4462 76.6988 93.3318 76.8202C90.6613 76.9161 87.0805 78.4908 87.1029 84.5504C87.1093 85.2436 87.2051 85.9367 87.3744 86.6139C87.3744 86.6075 87.3776 86.6044 87.3808 86.598C87.7769 81.4583 90.9808 79.8676 93.4212 79.6663V79.6695Z" fill="#C4CED4"/>
<path d="M91.2744 115.471C86.5437 115.676 85.234 112.53 85.1829 110.769C84.8443 113.836 86.1955 118.525 91.2744 118.311C96.4173 118.081 100.292 111.587 100.151 105.042C99.6147 110.361 95.9605 115.264 91.2744 115.471Z" fill="#E03A3E"/>
<path d="M93.4757 87.5468C91.5272 84.5314 92.6708 82.6947 93.3863 82.289C94.2296 81.8003 95.5999 82.0175 95.8076 83.1195C95.9385 83.7871 95.7597 85.1703 94.7407 85.3172C94.7407 85.3172 97.3504 85.8858 97.6315 83.1738C97.6539 82.9406 97.6411 82.6979 97.6028 82.4583C97.3408 80.9474 95.8235 79.4652 93.4214 79.6665C90.981 79.8709 87.7771 81.4585 87.381 86.5981C87.3523 86.9623 87.3395 87.3424 87.3395 87.7417C87.3587 92.0635 91.0225 96.1586 92.6676 98.5767C94.2136 100.854 95.8555 105.643 94.1561 109.341C92.773 112.344 91.0704 112.51 90.0514 112.539C89.0261 112.581 87.3938 111.383 87.8059 110C88.2147 108.623 89.9109 108.342 90.1537 108.671C90.1537 108.671 89.1091 107.54 88.0646 107.518C86.5281 107.482 85.3686 108.712 85.2025 110.313C85.1865 110.447 85.1833 110.6 85.1865 110.763C85.2376 112.523 86.5473 115.669 91.2781 115.465C95.9673 115.257 99.6184 110.354 100.155 105.036C100.209 104.509 100.232 103.981 100.222 103.451C100.098 96.5164 96.1717 91.7186 93.4757 87.5436V87.5468Z" fill="white"/>
<path d="M74.4601 116.969C71.1061 119.384 65.1999 119.403 64.0052 116.139C63.6474 115.155 63.5452 114.315 63.6251 113.612C61.8139 122.227 70.9272 122.128 74.3739 119.802C78.37 117.106 82.3469 109.312 82.4523 96.1263C82.4523 96.1263 82.4491 96.1263 82.4459 96.1263C81.8294 107.587 78.0889 114.356 74.4601 116.963V116.969Z" fill="#E03A3E"/>
<path d="M81.1554 76.9641C78.1751 77.849 74.9489 80.7015 74.9489 80.7015C74.9489 80.7015 75.1852 81.9217 75.4152 83.8446C75.4152 83.8446 78.5616 81.0656 81.4844 80.168C81.4844 80.168 81.3981 79.2385 81.1554 76.9609V76.9641Z" fill="#C4CED4"/>
<path d="M64.7368 84.5378C67.5095 82.5159 70.3907 81.9185 70.3907 81.9185C70.3875 81.9696 70.3843 82.0175 70.3811 82.0687C70.3875 82.0207 70.3939 81.9696 70.3971 81.9185C70.4482 80.8516 70.5217 79.7209 70.6048 78.5166C70.6048 78.5166 66.9664 79.296 64.1331 81.318C64.1331 81.318 63.4336 87.9781 64.6729 94.3827L64.7081 94.3252C64.3056 89.1472 64.7368 84.5378 64.7368 84.5378Z" fill="#C4CED4"/>
<path d="M81.4872 80.168C78.5677 81.0624 75.4181 83.8446 75.4181 83.8446C75.4181 83.8446 77.4273 94.5838 75.3414 102.656C75.3414 102.656 68.5088 107.658 70.3775 82.0654C70.3807 82.0143 70.3839 81.9664 70.3871 81.9152C70.3871 81.9152 67.5058 82.5094 64.7332 84.5346C64.7332 84.5346 64.3019 89.1471 64.7044 94.3219C65.2442 101.263 67.2758 109.22 73.8561 108.453C73.8561 108.453 72.4059 115.634 68.627 115.823C66.7615 115.912 66.3814 113.845 66.5667 112.925C66.7583 112.009 67.4994 111.3 67.9338 111.175C67.9338 111.175 67.1576 110.75 66.2824 110.884C64.9919 111.086 63.8132 111.977 63.6279 113.609C63.5481 114.312 63.6471 115.149 64.0081 116.136C65.2027 119.397 71.109 119.378 74.463 116.966C78.0917 114.357 81.8354 107.588 82.4487 96.1299C82.6947 91.5652 82.4423 86.2563 81.4904 80.168H81.4872Z" fill="white"/>
</svg>
