<svg width="200" height="200" viewBox="0 0 200 200" fill="none" xmlns="http://www.w3.org/2000/svg">
<g clip-path="url(#clip0_8997_1465)">
<path d="M190 100C190 149.705 149.705 190 100 190C50.2948 190 10 149.705 10 100C10 50.2948 50.2948 10 100 10C149.705 10 190 50.2948 190 100Z" fill="#231F20"/>
<path d="M100.001 187.988C76.5194 187.988 54.4439 178.844 37.8396 162.241C21.2357 145.637 12.0913 123.561 12.0913 100.08C12.0913 76.5989 21.2357 54.5234 37.8392 37.9194C54.4435 21.3162 76.5194 12.1719 100 12.1719C123.482 12.1719 145.558 21.3159 162.162 37.9194C178.764 54.523 187.909 76.5985 187.909 100.08C187.909 123.561 178.764 145.637 162.162 162.24C145.558 178.844 123.482 187.988 100.001 187.988ZM100.001 14.3322C52.7187 14.3322 14.2517 52.799 14.2517 100.08C14.2517 147.362 52.7187 185.828 100.001 185.828C147.282 185.828 185.749 147.362 185.749 100.08C185.749 52.7986 147.282 14.3322 100.001 14.3322Z" fill="#A29061"/>
<mask id="mask0_8997_1465" style="mask-type:luminance" maskUnits="userSpaceOnUse" x="41" y="41" width="118" height="118">
<path d="M41.0251 100C41.0251 132.571 67.4293 158.975 100 158.975C132.572 158.975 158.976 132.571 158.976 100C158.976 67.4296 132.572 41.0254 100 41.0254C67.429 41.0254 41.0251 67.4296 41.0251 100Z" fill="white"/>
</mask>
<g mask="url(#mask0_8997_1465)">
<path d="M113.696 40.3916H86.0686V159.604H113.696V40.3916Z" fill="#80000B"/>
</g>
<mask id="mask1_8997_1465" style="mask-type:luminance" maskUnits="userSpaceOnUse" x="41" y="41" width="118" height="118">
<path d="M41.0251 100C41.0251 132.571 67.4293 158.975 100 158.975C132.572 158.975 158.976 132.571 158.976 100C158.976 67.4296 132.572 41.0254 100 41.0254C67.429 41.0254 41.0251 67.4296 41.0251 100Z" fill="white"/>
</mask>
<g mask="url(#mask1_8997_1465)">
<path d="M62.791 52.0796H39.7114V147.917H62.791V52.0796Z" fill="#80000B"/>
</g>
<mask id="mask2_8997_1465" style="mask-type:luminance" maskUnits="userSpaceOnUse" x="41" y="41" width="118" height="118">
<path d="M41.0251 100C41.0251 132.571 67.4293 158.975 100 158.975C132.572 158.975 158.976 132.571 158.976 100C158.976 67.4296 132.572 41.0254 100 41.0254C67.429 41.0254 41.0251 67.4296 41.0251 100Z" fill="white"/>
</mask>
<g mask="url(#mask2_8997_1465)">
<path d="M160.054 52.0796H136.975V147.917H160.054V52.0796Z" fill="#80000B"/>
</g>
<path d="M117.382 66.9171L123.113 55.4165H76.7955L82.5285 66.9199L57.7983 140.258L80.2451 154.976L84.9171 141.647H115.245L119.546 154.878L142.294 140.216L117.382 66.9171ZM93.7796 115.5L99.9849 96.8662L106.382 115.5H93.7796Z" fill="#231F20"/>
<path d="M115.057 66.759L119.659 57.5527H80.2538L84.8524 66.7587L59.7288 141.265L68.395 149.363L72.8936 151.483L78.34 153.91L83.3919 139.497H116.807L121.671 154.462L130.854 149.546L140.49 141.591L115.057 66.759ZM90.7982 117.653L99.9541 90.1518L109.394 117.655L90.7982 117.653Z" fill="#A29061"/>
<path d="M90.7982 117.653L75.5562 128.589L100 57.5034L124.444 128.589L109.394 117.655L99.9541 90.1518L90.7982 117.653Z" fill="#817244"/>
<path d="M69.1069 147.344L75.556 128.59H124.444L130.743 146.906L121.045 152.537L116.807 139.497H83.3921L78.8417 152.48L69.1069 147.344Z" fill="#817244"/>
<path d="M100.001 159.701C67.0819 159.701 40.3 132.919 40.3 100C40.3 67.082 67.0823 40.3013 100.001 40.3013C132.919 40.3013 159.7 67.082 159.7 100C159.7 132.919 132.919 159.701 100.001 159.701ZM100.001 42.7288C68.4207 42.7288 42.7275 68.4209 42.7275 100C42.7275 131.58 68.4207 157.273 100.001 157.273C131.581 157.273 157.272 131.58 157.272 100C157.272 68.4209 131.581 42.7288 100.001 42.7288Z" fill="#A29061"/>
<path d="M100.001 157.545C68.2696 157.545 42.4543 131.731 42.4543 100C42.4543 68.2696 68.2692 42.4551 100.001 42.4551C131.731 42.4551 157.546 68.2696 157.546 100C157.546 131.731 131.731 157.545 100.001 157.545ZM100.001 44.6043C69.4547 44.6043 44.6035 69.4547 44.6035 100C44.6035 130.546 69.4547 155.396 100.001 155.396C130.547 155.396 155.397 130.546 155.397 100C155.397 69.4547 130.547 44.6043 100.001 44.6043Z" fill="#817244"/>
<path d="M102.65 21.0234C102.814 20.5032 102.975 19.9859 103.138 19.4682C101.055 19.3588 98.9687 19.3534 96.8864 19.4484C97.0456 19.9668 97.2054 20.4852 97.3645 21.0065C95.881 25.8582 94.3996 30.7585 92.9229 35.7103C94.158 35.5782 95.3953 35.4807 96.6352 35.4209C96.8641 34.6055 97.0913 33.7915 97.3203 32.9772C99.0821 32.9117 100.845 32.9164 102.608 32.9945C102.834 33.8088 103.061 34.6257 103.288 35.4421C104.527 35.5095 105.764 35.6157 106.998 35.7553C105.552 30.7931 104.102 25.8834 102.65 21.0234ZM99.9997 23.4891C100.563 25.5335 101.127 27.5851 101.691 29.6451C100.549 29.6109 99.4043 29.6073 98.2609 29.6335C98.8402 27.5776 99.4194 25.5292 99.9997 23.4891Z" fill="#A39161"/>
<path d="M141.276 50.1249C142.234 50.914 143.17 51.7301 144.082 52.5732C144.827 52.1675 145.569 51.7632 146.313 51.359C147.594 52.5689 148.825 53.8322 150.003 55.1447C149.577 55.8744 149.152 56.606 148.726 57.3364C149.543 58.2684 150.336 59.2257 151.1 60.2034C153.628 55.6973 156.118 51.2236 158.57 46.7841C159.055 46.536 159.54 46.2891 160.023 46.0425C158.856 44.722 157.634 43.4498 156.363 42.229C151.376 44.8163 146.347 47.4472 141.276 50.1249ZM149.357 49.6864C151.229 48.6586 153.095 47.6362 154.954 46.6188C153.893 48.4548 152.824 50.2952 151.752 52.1423C150.976 51.3024 150.177 50.4834 149.357 49.6864Z" fill="#A39161"/>
<path d="M136.648 28.1055C136.076 29.0519 135.505 29.9983 134.934 30.9448C136.109 31.5535 137.273 32.1875 138.418 32.8492C136.241 36.4607 134.062 40.0701 131.884 43.6801C132.879 44.2526 133.859 44.8455 134.83 45.4575C137.009 41.8477 139.186 38.2377 141.364 34.6269C142.34 35.2425 143.306 35.8793 144.258 36.5316C145.108 35.7781 145.956 35.0247 146.804 34.2723C143.562 31.9899 140.168 29.9296 136.648 28.1055Z" fill="#A39161"/>
<path d="M125.249 23.3495C124.357 26.3534 123.468 29.3579 122.577 32.3603C121.955 28.8417 121.312 25.3788 120.656 21.975C119.429 21.6561 118.192 21.3753 116.947 21.1294C116.956 21.6669 116.964 22.2022 116.973 22.7393C115.609 27.3362 114.247 31.933 112.883 36.5313C114.008 36.761 115.127 37.0216 116.238 37.3114C117.127 34.3083 118.019 31.3026 118.91 28.2995C119.564 31.7073 120.206 35.1723 120.828 38.6952C121.874 39.0549 122.911 39.4404 123.939 39.8548L128.476 24.5483C127.411 24.1188 126.334 23.7192 125.249 23.3495Z" fill="#A39161"/>
<path d="M43.9431 42.2305C42.6712 43.4498 41.449 44.722 40.2822 46.0425C40.765 46.2895 41.2495 46.5364 41.7337 46.783C44.1871 51.2226 46.6762 55.6977 49.2055 60.2038C49.9705 59.2246 50.7622 58.2688 51.5805 57.3368C51.1535 56.6042 50.7273 55.8741 50.3017 55.1451C51.4793 53.8322 52.7119 52.5693 53.9917 51.359C54.7362 51.7633 55.4793 52.1676 56.2248 52.5733C57.1356 51.7305 58.0698 50.9155 59.0299 50.1256C53.9586 47.4472 48.9298 44.8167 43.9431 42.2305ZM48.5543 52.1427C47.4804 50.2956 46.4134 48.4538 45.3499 46.6192C47.2111 47.6348 49.0767 48.659 50.9487 49.6868C50.1282 50.4845 49.3301 51.3025 48.5543 52.1427Z" fill="#A39161"/>
<path d="M63.658 28.1055C64.229 29.0519 64.8 29.9983 65.3713 30.9448C64.1962 31.5535 63.0331 32.1875 61.8872 32.8492C64.0652 36.4607 66.2439 40.0701 68.4219 43.6801C67.4265 44.2526 66.4462 44.8455 65.476 45.4575C63.297 41.8477 61.1193 38.2377 58.9417 34.6269C57.965 35.2425 56.9998 35.8793 56.048 36.5316C55.1977 35.7781 54.3495 35.0247 53.5017 34.2723C56.7442 31.9899 60.1376 29.9296 63.658 28.1055Z" fill="#A39161"/>
<path d="M79.8232 35.1194C78.6643 31.0658 77.5037 27.0122 76.3449 22.959C75.2497 23.2999 74.1618 23.6675 73.084 24.0602C74.5474 29.1762 76.0115 34.2929 77.4749 39.4081C80.3823 38.3504 83.353 37.4771 86.3709 36.7959C86.3971 35.6591 86.4245 34.5247 86.4511 33.3918C84.2152 33.863 82.0033 34.4394 79.8232 35.1194Z" fill="#A39161"/>
<path d="M75.272 159.607C74.2208 159.15 73.1772 158.677 72.14 158.188C69.9451 163.037 67.7491 167.883 65.5542 172.731C66.5917 173.22 67.6364 173.693 68.6866 174.148C70.8811 169.302 73.0771 164.454 75.272 159.607Z" fill="#A39161"/>
<path d="M91.109 163.952C90.8599 165.029 90.6104 166.105 90.361 167.183C89.0484 166.995 87.7434 166.769 86.4467 166.505C85.4952 170.612 84.5423 174.719 83.5904 178.827C82.4665 178.596 81.348 178.337 80.2374 178.05C81.1892 173.943 82.1411 169.835 83.094 165.727C81.8124 165.395 80.5409 165.024 79.2805 164.614C79.5286 163.538 79.7791 162.461 80.029 161.384C83.6416 162.559 87.3485 163.418 91.109 163.952Z" fill="#A39161"/>
<path d="M99.8385 174.037C101.634 174.048 103.431 173.985 105.223 173.849C105.201 172.743 105.178 171.638 105.156 170.532C103.364 170.671 101.569 170.734 99.7715 170.722C99.7532 169.787 99.7344 168.851 99.7154 167.914C101.999 167.926 104.283 167.822 106.556 167.596C106.198 166.523 105.839 165.45 105.479 164.374C102.396 164.631 99.2978 164.669 96.2075 164.489C96.3152 169.809 96.4228 175.129 96.5294 180.45C99.6207 180.63 102.717 180.592 105.802 180.334C106.117 179.202 106.431 178.066 106.746 176.928C104.471 177.152 102.187 177.259 99.9033 177.244C99.8817 176.176 99.8597 175.106 99.8385 174.037Z" fill="#A39161"/>
<path d="M124.143 164.34C123.535 162.16 121.318 161.053 119.153 161.716C116.753 162.454 114.312 163.056 111.842 163.523C112.142 164.001 112.442 164.477 112.743 164.952C114.034 169.57 115.324 174.188 116.618 178.806C118.924 178.354 121.205 177.782 123.453 177.091C125.617 176.427 126.843 173.991 126.234 171.816C125.539 169.324 124.841 166.832 124.143 164.34ZM122.981 172.943C123.098 173.36 122.858 173.807 122.442 173.933C121.331 174.273 120.211 174.583 119.084 174.864C118.245 171.868 117.409 168.873 116.571 165.877C117.698 165.594 118.818 165.284 119.928 164.945C120.344 164.819 120.775 165.05 120.891 165.468C121.589 167.959 122.284 170.452 122.981 172.943Z" fill="#A39161"/>
<path d="M63.4449 153.125C61.5743 155.639 59.7038 158.151 57.8332 160.666C58.3894 157.244 58.9777 153.774 59.6012 150.261C58.7401 149.567 57.8933 148.854 57.0664 148.118C53.8883 152.387 50.7117 156.657 47.5361 160.926C48.3951 161.689 49.2717 162.428 50.1685 163.145C52.0387 160.631 53.9092 158.116 55.7798 155.604C55.1577 159.116 54.5709 162.583 54.0169 166.002C54.928 166.63 55.8543 167.235 56.7975 167.818C59.9738 163.548 63.1493 159.279 66.326 155.009C65.3493 154.406 64.3885 153.777 63.4449 153.125Z" fill="#A39161"/>
<path d="M50.4949 141.257C47.2956 143.736 44.0959 146.215 40.897 148.693C40.5543 148.958 40.0488 148.905 39.7741 148.568C39.2046 147.871 38.6506 147.163 38.1124 146.44C37.8525 146.092 37.9248 145.593 38.2675 145.327C41.4665 142.848 44.6665 140.37 47.8659 137.89C47.0965 136.832 46.3614 135.748 45.6591 134.642C45.3297 135.1 44.9995 135.559 44.6719 136.017C41.8895 138.172 39.1053 140.329 36.3207 142.485C34.534 143.871 34.0653 146.557 35.4178 148.373C36.0031 149.162 36.6083 149.935 37.2307 150.694C38.6653 152.447 41.3956 152.653 43.1808 151.27C46.3812 148.79 49.5802 146.312 52.7806 143.834C51.9943 142.995 51.2326 142.137 50.4949 141.257Z" fill="#A39161"/>
<path d="M141.229 154.055C143.049 152.677 144.804 151.209 146.479 149.654C145.545 149.017 144.611 148.38 143.674 147.738C141.253 149.915 138.681 151.918 135.977 153.73C136.436 154.053 136.896 154.376 137.355 154.697C140.328 158.46 143.302 162.222 146.276 165.985C147.224 165.339 148.157 164.67 149.072 163.979C147.724 162.272 146.376 160.566 145.027 158.859C146.459 157.776 147.849 156.637 149.193 155.444C148.508 154.576 147.823 153.71 147.137 152.842C145.793 154.036 144.403 155.174 142.971 156.258C142.391 155.524 141.809 154.789 141.229 154.055Z" fill="#A39161"/>
<path d="M157.956 136.725C156.152 135.358 153.679 135.79 152.342 137.614C151.763 138.406 151.17 139.189 150.564 139.961C149.169 141.743 149.423 144.24 151.227 145.608C153.437 147.281 155.649 148.956 157.859 150.632C159.66 151.997 162.339 151.719 163.733 149.938C164.339 149.166 164.93 148.384 165.511 147.593C166.848 145.767 166.388 143.114 164.589 141.75C164.244 141.489 163.898 141.227 163.553 140.966C162.92 141.922 162.267 142.865 161.597 143.796C161.941 144.057 162.286 144.318 162.632 144.58C162.976 144.841 163.053 145.34 162.793 145.689C162.262 146.414 161.719 147.13 161.165 147.839C160.897 148.18 160.399 148.244 160.054 147.982C157.843 146.307 155.632 144.632 153.422 142.958C153.076 142.696 153.014 142.207 153.282 141.866C153.836 141.159 154.378 140.441 154.911 139.717C155.167 139.367 155.653 139.292 155.998 139.554C156.237 139.734 156.476 139.917 156.715 140.097C157.386 139.168 158.037 138.224 158.672 137.268C158.434 137.086 158.195 136.906 157.956 136.725Z" fill="#A39161"/>
<path d="M160.046 60.952C167.617 72.5775 171.612 86.053 171.612 100.001C171.612 111.179 169.108 121.889 164.17 131.831L166.132 132.808C171.222 122.558 173.802 111.52 173.802 100.001C173.802 85.2211 169.448 70.9546 161.212 58.7441L160.046 60.952Z" fill="#A39161"/>
<path d="M39.9117 60.952C32.3406 72.5775 28.3456 86.053 28.3456 100.001C28.3456 111.179 30.8494 121.889 35.7872 131.831L33.8259 132.808C28.7362 122.558 26.1558 111.52 26.1558 100.001C26.1558 85.2211 30.5089 70.9546 38.7457 58.7441L39.9117 60.952Z" fill="#A39161"/>
</g>
<defs>
<clipPath id="clip0_8997_1465">
<rect width="180" height="180" fill="white" transform="translate(10 10)"/>
</clipPath>
</defs>
</svg>
