<svg width="200" height="200" viewBox="0 0 200 200" fill="none" xmlns="http://www.w3.org/2000/svg">
<mask id="mask0_8997_1850" style="mask-type:luminance" maskUnits="userSpaceOnUse" x="31" y="5" width="138" height="190">
<path d="M168.957 5.5127H31.0449V194.488H168.957V5.5127Z" fill="white"/>
</mask>
<g mask="url(#mask0_8997_1850)">
<mask id="mask1_8997_1850" style="mask-type:luminance" maskUnits="userSpaceOnUse" x="31" y="5" width="138" height="190">
<path d="M168.957 5.5127H31.0449V194.488H168.957V5.5127Z" fill="white"/>
</mask>
<g mask="url(#mask1_8997_1850)">
<path d="M130.535 169.055C129.222 169.29 127.957 169.483 126.717 169.675C117.642 171.135 108.27 172.633 99.9998 180.078C91.7323 172.638 82.3648 171.133 73.2873 169.685C72.0598 169.493 70.7873 169.293 69.4748 169.063C41.6973 164.34 41.7248 156.143 41.7073 139.2L41.7223 16.2502H158.265L158.302 139.213C158.212 156.135 158.302 164.34 130.535 169.055ZM36.3998 10.8902L36.3848 139.265C36.3848 148.478 36.4048 155.74 40.9098 161.903C45.4148 168.065 53.7023 171.81 68.5848 174.33C69.9281 174.565 71.2173 174.778 72.4523 174.968C81.1448 176.36 89.3548 177.675 96.4523 184.078L99.9998 187.273L103.545 184.078C110.645 177.67 118.855 176.36 127.545 174.968L127.97 174.903C129.097 174.725 130.24 174.543 131.41 174.338C146.25 171.818 154.5 168.125 159.015 161.973C163.53 155.82 163.57 148.633 163.617 139.503L163.577 10.8877L36.3998 10.8902Z" fill="#C39F6C"/>
<path d="M65.2774 39.3727H61.5474V32.5327H59.2024V41.3602H65.2774V39.3727Z" fill="#C39F6C"/>
<path d="M70.2723 34.4801C71.7448 34.4801 72.5823 35.5576 72.5823 36.9451C72.5823 38.3326 71.7448 39.4226 70.2723 39.4226C68.7998 39.4226 67.9673 38.3326 67.9673 36.9451C67.9673 35.5576 68.8048 34.4801 70.2723 34.4801ZM70.2723 41.4801C72.7998 41.4801 74.9798 39.6151 74.9798 36.9501C74.9798 34.2851 72.7998 32.4351 70.2723 32.4351C67.7448 32.4351 65.5698 34.2901 65.5698 36.9501C65.5698 39.6101 67.7473 41.4801 70.2723 41.4801Z" fill="#C39F6C"/>
<path d="M78.675 39.5277C77.8025 39.5277 77.2775 39.1002 76.8475 38.5677L75.1475 39.8552C75.69 40.5802 76.8 41.4902 78.7825 41.4902C81.1025 41.4902 82.105 40.3102 82.105 38.7002C82.105 37.4502 81.515 36.6102 79.7625 36.0252L78.605 35.6352C78.175 35.4902 77.98 35.3227 77.98 34.9852C77.98 34.6477 78.2675 34.3777 78.835 34.3777C79.1076 34.3688 79.3787 34.4213 79.6284 34.5312C79.8781 34.6411 80.0999 34.8056 80.2775 35.0127L81.62 33.5952C81.1025 32.9877 80.2525 32.4302 78.705 32.4302C77.1575 32.4302 75.7175 33.3277 75.7175 35.0627C75.7175 36.5152 76.62 37.2952 77.895 37.7252L78.9225 38.0727C79.505 38.2727 79.785 38.4527 79.785 38.8227C79.785 39.3227 79.375 39.5302 78.6775 39.5302" fill="#C39F6C"/>
<path d="M88.5274 36.79L89.4249 38.8375H87.6499L88.5274 36.79ZM86.8974 40.6075H90.2049L90.5374 41.3575H92.9624L88.7124 32.3825C88.6749 32.295 88.5974 32.295 88.5599 32.3825L84.2874 41.3575H86.5849L86.8974 40.6075Z" fill="#C39F6C"/>
<path d="M95.9848 36.9578L101.485 41.5153C101.625 41.6328 101.66 41.5928 101.66 41.4903V32.5303H99.4573V36.9578L93.9573 32.3903C93.8173 32.2728 93.7798 32.3378 93.7798 32.4178V41.3578H95.9848V36.9578Z" fill="#C39F6C"/>
<path d="M107.472 41.4754C109.422 41.4754 110.472 40.9304 111.29 40.2529V36.5679H107.465V38.3854H109.215V39.1354C108.682 39.3955 108.093 39.5209 107.5 39.5004C105.95 39.5004 105.157 38.3404 105.157 36.9529C105.157 35.5654 105.942 34.4854 107.377 34.4854C107.751 34.4766 108.12 34.5579 108.456 34.7224C108.791 34.8869 109.081 35.1297 109.302 35.4304L110.957 34.0129C110.192 33.0129 108.985 32.4429 107.437 32.4429C104.91 32.4429 102.772 34.2954 102.772 36.9579C102.772 39.6204 104.91 41.4879 107.495 41.4879" fill="#C39F6C"/>
<path d="M118.787 39.3727H114.812V38.4502H117.982V36.5702H114.812V34.5202H118.61V32.5327H112.462V41.3602H118.787V39.3727Z" fill="#C39F6C"/>
<path d="M126 39.3727H122.275V32.5327H119.925V41.3602H126V39.3727Z" fill="#C39F6C"/>
<path d="M133.41 39.3727H129.427V38.4502H132.6V36.5702H129.427V34.5202H133.23V32.5327H127.08V41.3602H133.41V39.3727Z" fill="#C39F6C"/>
<path d="M138.45 36.0228L137.287 35.6328C136.867 35.4878 136.667 35.3178 136.667 34.9828C136.667 34.6478 136.955 34.3728 137.522 34.3728C137.795 34.3639 138.067 34.4164 138.317 34.5262C138.567 34.6361 138.789 34.8007 138.967 35.0078L140.305 33.5903C139.79 32.9803 138.942 32.4253 137.395 32.4253C135.847 32.4253 134.395 33.3228 134.395 35.0603C134.395 36.5103 135.302 37.2903 136.577 37.7203L137.607 38.0653C138.185 38.2703 138.475 38.4453 138.475 38.8153C138.475 39.3153 138.06 39.5228 137.362 39.5228C137.002 39.5249 136.647 39.4384 136.329 39.271C136.01 39.1036 135.737 38.8604 135.535 38.5628L133.837 39.8478C134.372 40.5728 135.49 41.4828 137.472 41.4828C139.79 41.4828 140.792 40.3028 140.792 38.6903C140.792 37.4403 140.2 36.6003 138.45 36.0153" fill="#C39F6C"/>
<path d="M59.21 150.548H61.1425V148.233H63.7675V146.603H61.1425V144.915H64.12V143.275H59.21V150.548Z" fill="#C39F6C"/>
<path d="M68.4998 148.953C67.2948 148.953 66.6098 148.06 66.6098 146.91C66.6098 145.76 67.3023 144.878 68.4998 144.878C69.6973 144.878 70.3898 145.773 70.3898 146.91C70.3898 148.048 69.6998 148.953 68.4998 148.953ZM68.4998 143.203C66.4173 143.203 64.6248 144.73 64.6248 146.918C64.6248 149.105 66.4173 150.648 68.4998 150.648C70.5823 150.648 72.3723 149.108 72.3723 146.918C72.3723 144.728 70.5798 143.203 68.5023 143.203" fill="#C39F6C"/>
<path d="M76.79 148.953C75.5775 148.953 74.9 148.06 74.9 146.91C74.9 145.76 75.59 144.878 76.79 144.878C77.99 144.878 78.6975 145.773 78.6975 146.91C78.6975 148.048 78 148.953 76.79 148.953ZM76.79 143.203C74.7075 143.203 72.9175 144.73 72.9175 146.918C72.9175 149.105 74.7075 150.648 76.79 150.648C78.8725 150.648 80.6625 149.105 80.6625 146.918C80.6625 144.73 78.8725 143.203 76.79 143.203Z" fill="#C39F6C"/>
<path d="M80.8098 144.915H82.7223V150.548H84.6498V144.915H86.5648V143.275H80.8098V144.915Z" fill="#C39F6C"/>
<path d="M90.4674 149.013H89.2999V147.375H90.4699C91.2199 147.375 91.4499 147.68 91.4499 148.18C91.4499 148.68 91.2149 149.01 90.4699 149.01M89.2999 144.818H90.2624C90.4006 144.799 90.5405 144.836 90.6515 144.92C90.7626 145.005 90.8357 145.13 90.8549 145.268C90.8612 145.312 90.8612 145.356 90.8549 145.4C90.8549 145.745 90.6624 145.958 90.2324 145.958H89.2874L89.2999 144.818ZM91.9274 146.46C92.3999 146.235 92.7549 145.863 92.7549 145.043C92.7549 143.93 91.8099 143.263 90.3924 143.263H87.4399V150.55H90.4999C92.2899 150.55 93.3649 149.76 93.3649 148.368C93.3858 147.93 93.2511 147.499 92.9848 147.152C92.7185 146.804 92.3377 146.562 91.9099 146.468" fill="#C39F6C"/>
<path d="M96.1924 148.47L96.9149 146.783L97.6649 148.47H96.1924ZM96.9424 143.15L93.4424 150.55H95.3324L95.5999 149.93H98.3124L98.5924 150.55H100.592L97.0924 143.153C97.0599 143.075 96.9974 143.075 96.9624 143.153" fill="#C39F6C"/>
<path d="M103.075 143.275H101.147V150.548H106.145V148.91H103.075V143.275Z" fill="#C39F6C"/>
<path d="M108.687 143.275H106.757V150.548H111.755V148.91H108.687V143.275Z" fill="#C39F6C"/>
<path d="M118.575 148.953C117.47 148.953 116.8 148.06 116.8 146.91C116.8 145.76 117.45 144.878 118.512 144.878C118.838 144.858 119.163 144.929 119.452 145.082C119.74 145.235 119.981 145.464 120.147 145.745L121.605 144.745C121 143.848 120.042 143.185 118.485 143.185C118.006 143.185 117.531 143.279 117.088 143.462C116.645 143.645 116.242 143.914 115.903 144.252C115.564 144.591 115.295 144.993 115.111 145.436C114.928 145.879 114.833 146.353 114.832 146.833V146.903C114.825 147.389 114.914 147.872 115.094 148.324C115.274 148.776 115.541 149.188 115.88 149.536C116.219 149.884 116.624 150.162 117.071 150.354C117.518 150.546 117.999 150.647 118.485 150.653H118.59C120.055 150.653 121.052 150.125 121.767 148.903L120.267 147.948C120.117 148.266 119.875 148.531 119.572 148.71C119.268 148.888 118.918 148.971 118.567 148.948" fill="#C39F6C"/>
<path d="M124.23 143.275H122.302V150.548H127.297V148.91H124.23V143.275Z" fill="#C39F6C"/>
<path d="M132 147.715C132 148.54 131.617 149.018 130.805 149.018C129.992 149.018 129.605 148.545 129.605 147.715V143.275H127.667V147.735C127.667 149.688 128.992 150.648 130.802 150.648C132.612 150.648 133.932 149.688 133.932 147.735V143.275H132V147.715Z" fill="#C39F6C"/>
<path d="M137.88 149.013H136.715V147.375H137.88C138.61 147.375 138.857 147.68 138.857 148.18C138.857 148.68 138.62 149.01 137.88 149.01M136.715 144.818H137.66C137.798 144.799 137.938 144.836 138.049 144.92C138.16 145.005 138.233 145.13 138.252 145.268C138.259 145.312 138.259 145.356 138.252 145.4C138.252 145.745 138.062 145.958 137.637 145.958H136.692L136.715 144.818ZM139.335 146.46C139.807 146.235 140.162 145.863 140.162 145.043C140.162 143.93 139.217 143.263 137.8 143.263H134.845V150.55H137.917C139.71 150.55 140.787 149.76 140.787 148.368C140.808 147.93 140.673 147.5 140.407 147.152C140.141 146.805 139.76 146.562 139.332 146.468" fill="#C39F6C"/>
<path d="M95.0874 119.665H71.9249V60.4154L59.2024 50.3379V132.46H98.4374C96.8823 128.322 95.7597 124.035 95.0874 119.665Z" fill="#C39F6C"/>
<path d="M98.4374 104.353C98.0299 113.673 99.4374 124.103 102.882 132.463H115.545C115.545 132.463 110.172 120.75 110.712 110.768C109.945 110.368 101.925 106.168 98.4274 104.355" fill="#C39F6C"/>
<path d="M106.38 73.0251L115.38 83.0951C118.27 77.3101 122.51 72.5701 128.08 69.2226V102.275L81.4998 50.3301V62.5801C92.3248 72.3151 110.32 89.8726 121.352 99.8301V100.5L85.1323 68.3476V76.1426C96.1548 84.5426 110.172 95.8926 121.35 104.405V105.06L88.7673 80.5001V87.8226C99.5848 94.3726 110.92 102.025 121.35 108.303V108.985L92.4148 91.5751V97.4801C105.015 103.88 115.665 109.745 128.082 116.03V132.465H140.787V50.3351C125.537 51.3701 112.537 61.9701 106.38 73.0251Z" fill="#C39F6C"/>
<path d="M161.785 164.05C156.665 170.985 147.75 175.085 131.985 177.75C130.877 177.943 129.78 178.118 128.702 178.293L128.095 178.388C119.565 179.748 112.195 180.923 105.845 186.655L99.9999 191.938L94.1524 186.668C87.7974 180.933 80.4349 179.758 71.9024 178.398C70.6674 178.205 69.3624 177.998 67.9999 177.76C52.1749 175.07 43.2499 170.943 38.1374 163.968C32.9624 156.883 32.9399 148.718 32.9399 139.273L32.9524 7.4027H167.027L167.065 139.53C167.015 148.908 166.965 157.01 161.785 164.03M168.912 5.5127H31.0649L31.0474 139.263C31.0474 149.045 31.0699 157.498 36.6149 165.085C42.0349 172.495 51.3274 176.835 67.6799 179.625C69.0499 179.86 70.3649 180.07 71.6074 180.268C79.8399 181.583 86.9474 182.715 92.8899 188.073L99.9999 194.5L107.112 188.093C113.047 182.738 120.16 181.593 128.395 180.298L128.997 180.205C130.091 180.039 131.193 179.857 132.305 179.66C148.602 176.895 157.865 172.575 163.305 165.208C168.85 157.673 168.9 149.283 168.955 139.525L168.912 5.5127Z" fill="#C39F6C"/>
<path d="M159.015 161.973C154.487 168.123 146.235 171.81 131.417 174.338C130.237 174.545 129.105 174.725 127.982 174.903L127.552 174.968C118.855 176.36 110.64 177.67 103.552 184.078L99.9998 187.275L96.4548 184.078C89.3498 177.675 81.1423 176.36 72.4548 174.968C71.2198 174.778 69.9306 174.565 68.5873 174.33C53.7073 171.81 45.4398 168.095 40.9123 161.903C36.3848 155.71 36.4123 148.47 36.3873 139.265L36.4023 10.8903H163.577L163.617 139.5C163.567 148.63 163.527 155.845 159.015 161.97M32.9498 7.40283L32.9373 139.25C32.9373 148.698 32.9573 156.86 38.1323 163.945C43.2498 170.93 52.1648 175.055 67.9998 177.75C69.3623 177.985 70.6673 178.193 71.9048 178.385C80.4373 179.745 87.7998 180.923 94.1548 186.653L99.9998 191.935L105.847 186.665C112.2 180.933 119.57 179.758 128.097 178.395L128.702 178.303C129.782 178.13 130.877 177.953 131.987 177.758C147.757 175.083 156.667 170.983 161.787 164.058C166.965 157.023 167.015 148.923 167.067 139.545L167.025 7.40283H32.9498Z" fill="#010101"/>
<path d="M76.7899 144.883C75.5774 144.883 74.8999 145.775 74.8999 146.915C74.8999 148.055 75.5899 148.958 76.7899 148.958C77.9899 148.958 78.6974 148.065 78.6974 146.915C78.6974 145.765 77.9999 144.883 76.7899 144.883Z" fill="#010101"/>
<path d="M68.4999 144.883C67.2949 144.883 66.6099 145.775 66.6099 146.915C66.6099 148.055 67.3024 148.958 68.4999 148.958C69.6974 148.958 70.3899 148.065 70.3899 146.915C70.3899 145.765 69.6999 144.883 68.4999 144.883Z" fill="#010101"/>
<path d="M96.1924 148.47H97.6599L96.9174 146.783L96.1924 148.47Z" fill="#010101"/>
<path d="M90.8548 145.403C90.8703 145.264 90.83 145.124 90.7428 145.015C90.6556 144.906 90.5287 144.836 90.3898 144.82C90.3474 144.816 90.3047 144.816 90.2623 144.82H89.2998V145.958H90.2498C90.6773 145.958 90.8723 145.748 90.8723 145.403" fill="#010101"/>
<path d="M138.267 145.403C138.275 145.334 138.27 145.264 138.251 145.198C138.232 145.132 138.2 145.069 138.157 145.015C138.114 144.961 138.061 144.916 138 144.883C137.94 144.849 137.873 144.828 137.805 144.82C137.761 144.815 137.716 144.815 137.672 144.82H136.727V145.958H137.662C138.09 145.958 138.275 145.748 138.275 145.403" fill="#010101"/>
<path d="M88.5274 36.79L87.6499 38.84H89.4249L88.5274 36.79Z" fill="#010101"/>
<path d="M90.4673 147.378H89.2998V149.015H90.4698C91.2198 149.015 91.4498 148.688 91.4498 148.185C91.4498 147.683 91.2148 147.38 90.4698 147.38" fill="#010101"/>
<path d="M137.88 147.378H136.715V149.015H137.88C138.63 149.015 138.857 148.688 138.857 148.185C138.857 147.683 138.62 147.38 137.88 147.38" fill="#010101"/>
<path d="M137.47 41.5004C135.495 41.5004 134.37 40.5904 133.835 39.8629L135.535 38.5779C135.957 39.1104 136.48 39.5379 137.365 39.5379C138.072 39.5379 138.475 39.3279 138.475 38.8304C138.475 38.4554 138.185 38.2804 137.607 38.0804L136.577 37.7354C135.305 37.3054 134.395 36.5254 134.395 35.0754C134.395 33.3254 135.83 32.4404 137.395 32.4404C138.96 32.4404 139.787 32.9979 140.302 33.6054L138.962 35.0004C138.784 34.7933 138.562 34.6287 138.312 34.5188C138.062 34.409 137.79 34.3565 137.517 34.3654C136.947 34.3654 136.662 34.6154 136.662 34.9754C136.662 35.3354 136.862 35.4754 137.282 35.6254L138.445 36.0154C140.195 36.6004 140.79 37.4329 140.79 38.6904C140.79 40.3104 139.79 41.4829 137.467 41.4829M140.79 132.453H128.087V116.025C115.672 109.74 105.012 103.878 92.4174 97.4754V91.5704L121.355 108.978V108.315C110.925 102.035 99.5899 94.3779 88.7724 87.8354V80.5129L121.355 105.078V104.425C110.185 95.8954 96.1599 84.5504 85.1374 76.1429V68.3479L121.355 100.5V99.8329C110.317 89.8629 92.3274 72.3079 81.5024 62.5829V50.3329L128.087 102.275V69.2204C122.517 72.5679 118.275 77.3079 115.385 83.0954L106.385 73.0254C112.537 61.9704 125.54 51.3704 140.787 50.3354L140.79 132.453ZM137.92 150.55H134.847V143.275H137.795C139.227 143.275 140.157 143.94 140.157 145.053C140.157 145.865 139.792 146.233 139.33 146.47C139.758 146.565 140.138 146.807 140.404 147.155C140.67 147.503 140.805 147.933 140.785 148.37C140.785 149.763 139.707 150.555 137.915 150.555M133.915 147.743C133.915 149.695 132.587 150.658 130.785 150.658C128.982 150.658 127.65 149.698 127.65 147.743V143.275H129.585V147.715C129.585 148.54 129.962 149.018 130.785 149.018C131.607 149.018 131.98 148.545 131.98 147.715V143.275H133.912L133.915 147.743ZM127.3 150.555H122.3V143.275H124.227V148.91H127.3V150.555ZM118.587 150.655C117.608 150.669 116.664 150.293 115.961 149.612C115.258 148.93 114.854 147.997 114.837 147.018V146.92C114.82 145.953 115.188 145.018 115.859 144.321C116.531 143.624 117.452 143.223 118.42 143.205H118.49C120.05 143.205 121.005 143.863 121.61 144.76L120.152 145.76C119.987 145.479 119.746 145.248 119.458 145.094C119.169 144.94 118.844 144.869 118.517 144.888C117.455 144.888 116.805 145.785 116.805 146.923C116.805 148.06 117.477 148.963 118.58 148.963C118.931 148.989 119.282 148.907 119.586 148.728C119.89 148.549 120.132 148.282 120.28 147.963L121.767 148.923C121.057 150.133 120.055 150.673 118.59 150.673M111.75 150.55H106.75V143.275H108.68V148.91H111.75V150.55ZM106.137 150.55H101.137V143.275H103.062V148.91H106.132L106.137 150.55ZM98.5649 150.55L98.2849 149.93H95.5774L95.3099 150.55H93.4199L96.9199 143.15C96.9524 143.073 97.0149 143.073 97.0474 143.15L100.547 150.55H98.5649ZM90.5099 150.55H87.4449V143.275H90.3874C91.8224 143.275 92.7499 143.94 92.7499 145.053C92.7499 145.865 92.3849 146.233 91.9224 146.47C92.3502 146.564 92.731 146.807 92.9973 147.154C93.2636 147.502 93.3983 147.933 93.3774 148.37C93.3774 149.763 92.3024 150.555 90.5124 150.555M86.5624 144.923H84.6474V150.55H82.7174V144.915H80.8049V143.275H86.5549L86.5624 144.923ZM76.7874 150.65C74.7049 150.65 72.9149 149.11 72.9149 146.92C72.9149 144.73 74.7049 143.205 76.7874 143.205C78.8699 143.205 80.6599 144.733 80.6599 146.92C80.6599 149.108 78.8699 150.65 76.7874 150.65ZM68.4874 150.65C66.4049 150.65 64.6124 149.11 64.6124 146.92C64.6124 144.73 66.4049 143.205 68.4874 143.205C70.5699 143.205 72.3624 144.72 72.3624 146.91C72.3624 149.1 70.5699 150.64 68.4924 150.64M64.1224 144.913H61.1424V146.603H63.7674V148.23H61.1424V150.55H59.2099V143.275H64.1199L64.1224 144.913ZM115.547 132.46H102.882C99.4349 124.09 98.0299 113.67 98.4349 104.35C101.935 106.163 109.935 110.35 110.717 110.76C110.18 120.74 115.552 132.458 115.552 132.458M59.2049 50.3304L71.9274 60.4079V119.658H95.0749C95.7496 124.027 96.8721 128.314 98.4249 132.453H59.2049V50.3304ZM59.2049 32.5304H61.5499V39.3804H65.2774V41.3629H59.2049V32.5304ZM70.2724 32.4279C72.7999 32.4279 74.9799 34.2829 74.9799 36.9454C74.9799 39.6079 72.7999 41.4729 70.2724 41.4729C67.7449 41.4729 65.5699 39.6079 65.5699 36.9454C65.5699 34.2829 67.7474 32.4279 70.2724 32.4279ZM78.9199 38.0704L77.8924 37.7254C76.6149 37.2954 75.7149 36.5154 75.7149 35.0629C75.7149 33.3279 77.1324 32.4304 78.7024 32.4304C80.2724 32.4304 81.0999 32.9879 81.6174 33.5954L80.2749 35.0129C80.0974 34.8058 79.8755 34.6413 79.6259 34.5314C79.3762 34.4215 79.1051 34.369 78.8324 34.3779C78.2649 34.3779 77.9774 34.6279 77.9774 34.9879C77.9774 35.3479 78.1724 35.4879 78.6024 35.6379L79.7599 36.0279C81.5099 36.6129 82.1024 37.4454 82.1024 38.7029C82.1024 40.3229 81.1024 41.4954 78.7799 41.4954C76.8074 41.4954 75.6874 40.5854 75.1449 39.8579L76.8449 38.5729C77.2749 39.1054 77.7899 39.5329 78.6724 39.5329C79.3824 39.5329 79.7799 39.3229 79.7799 38.8254C79.7799 38.4504 79.4974 38.2729 78.9174 38.0754M88.5524 32.3804C88.5899 32.2929 88.6649 32.2929 88.7049 32.3804L92.9549 41.3579H90.5324L90.1999 40.6079H86.8949L86.5774 41.3579H84.2799L88.5524 32.3804ZM93.7724 32.4229C93.7724 32.3454 93.8099 32.2804 93.9499 32.3979L99.4499 36.9654V32.5304H101.652V41.5004C101.652 41.6029 101.62 41.6404 101.477 41.5254L95.9774 36.9679V41.3679H93.7724V32.4229ZM107.42 32.4229C108.967 32.4229 110.17 33.0079 110.94 33.9929L109.287 35.4104C109.066 35.1099 108.775 34.8672 108.44 34.7027C108.105 34.5382 107.736 34.4568 107.362 34.4654C105.925 34.4654 105.142 35.5429 105.142 36.9329C105.142 38.3229 105.935 39.4779 107.485 39.4779C108.074 39.5005 108.66 39.3805 109.192 39.1279V38.3779H107.465V36.5504H111.292V40.2354C110.482 40.9104 109.425 41.4554 107.472 41.4554C104.897 41.4554 102.747 39.5929 102.747 36.9279C102.747 34.2629 104.875 32.4104 107.412 32.4104M112.45 32.5129H118.592V34.5129H114.812V36.5654H117.98V38.4554H114.812V39.3754H118.79V41.3604H112.462L112.45 32.5129ZM119.915 32.5129H122.25V39.3629H126V41.3479H119.925L119.915 32.5129ZM127.067 32.5129H133.21V34.5129H129.405V36.5654H132.6V38.4554H129.425V39.3754H133.41V41.3604H127.08L127.067 32.5129ZM41.7074 16.2129L41.6899 139.163C41.7074 156.103 41.6899 164.308 69.4574 169.025C70.7774 169.263 72.0574 169.458 73.2699 169.648C82.3599 171.135 91.7324 172.648 99.9999 180.078C108.27 172.633 117.647 171.133 126.722 169.685C127.972 169.49 129.222 169.293 130.542 169.063C158.317 164.34 158.22 156.14 158.31 139.22L158.272 16.2504L41.7074 16.2129Z" fill="#010101"/>
<path d="M70.2723 39.4254C71.7448 39.4254 72.5823 38.3354 72.5823 36.9479C72.5823 35.5604 71.7448 34.4829 70.2723 34.4829C68.7998 34.4829 67.9673 35.5604 67.9673 36.9479C67.9673 38.3354 68.8048 39.4254 70.2723 39.4254Z" fill="#010101"/>
</g>
</g>
</svg>
