<svg width="200" height="200" viewBox="0 0 200 200" fill="none" xmlns="http://www.w3.org/2000/svg">
<path d="M125.173 5.93994H75.5975L34.5 40.2124V160.417L75.5975 194.69H125.173L166.27 160.417V40.2124L125.173 5.93994Z" fill="#ECE83A"/>
<path d="M123.525 10.4648L161.732 42.3248V158.305L123.525 190.165H77.25L39.0375 158.305V42.3248L77.25 10.4648H123.525ZM124.345 8.19727H76.425L36.7725 41.2648V159.365L76.425 192.432H124.345L164 159.365V41.2648L163.185 40.5848L124.345 8.19727Z" fill="#1F1646"/>
<path d="M91.2951 122.537V85.9271L108.535 122.537H118.563L82.2051 45.3271V122.537H91.2951Z" fill="#1F1646"/>
<path d="M109.475 24.0146V60.6246L92.2351 24.0146H82.2051L118.563 101.222V24.0146H109.475Z" fill="#1F1646"/>
<path d="M73.1175 36.3301H66.3025V110.22H73.1175V36.3301Z" fill="#1F1646"/>
<path d="M57.2149 48.645H52.6699V97.905H57.2149V48.645Z" fill="#1F1646"/>
<path d="M127.653 110.223H134.468V36.3327H127.653L127.653 110.223Z" fill="#1F1646"/>
<path d="M143.555 97.9072H148.1V48.6472H143.555V97.9072Z" fill="#1F1646"/>
<path d="M99.0001 167.89L93.9551 162.843V159.185H95.8101V162.843H98.8551V157.948L97.2801 156.373H92.4876L90.9126 157.948V164.37L95.8976 169.355V173.71H93.9851V169.355H90.9126V175.063L92.4876 176.638H97.4251L99.0001 175.063V167.89Z" fill="#1F1646"/>
<path d="M101.915 157.948V175.063L103.49 176.638H108.283L109.858 175.063V169.355H106.843V173.71H105.015V159.185H106.843V162.843H109.858V157.948L108.283 156.373H103.49L101.915 157.948Z" fill="#1F1646"/>
<path d="M88.755 143.108L83.7125 138.06V134.405H85.565V138.06H88.61V133.168L87.0325 131.593H82.2425L80.6675 133.168V139.588L85.6525 144.573V148.928H83.74V144.573H80.6675V150.28L82.2425 151.855H87.18L88.755 150.28V143.108Z" fill="#1F1646"/>
<path d="M60.0549 131.593L63.7649 142.66V131.593H66.8074V151.843H64.0574L60.2299 140.803V151.843H57.2124V131.593H60.0549Z" fill="#1F1646"/>
<path d="M94.7124 131.593V139.945H96.6849V131.593H99.7274V151.843H96.6849V142.873H94.7124V151.855H91.6699V131.605L94.7124 131.593Z" fill="#1F1646"/>
<path d="M105.25 131.593L107.1 147.538L108.948 131.593H111.898L109.18 151.843H105.025L102.308 131.593H105.25Z" fill="#1F1646"/>
<path d="M117.5 131.593V151.843H114.48V131.593H117.5Z" fill="#1F1646"/>
<path d="M123.523 131.593V148.87H126.395V151.855H120.478V131.605L123.523 131.593Z" fill="#1F1646"/>
<path d="M131.75 131.593V148.87H134.625V151.855H128.712V131.605L131.75 131.593Z" fill="#1F1646"/>
<path d="M143.555 134.577H140V139.945H143.358V142.872H140V148.872H143.565V151.857H136.948V131.607H143.555V134.577Z" fill="#1F1646"/>
<path d="M75.6299 151.855H78.5799L75.8624 131.605H71.6999L68.9849 151.855H71.9349L72.3274 148.47H75.2499L75.6299 151.855ZM72.6649 145.542L73.7824 135.91L74.8974 145.542H72.6649Z" fill="#1F1646"/>
</svg>
