<svg width="200" height="200" viewBox="0 0 200 200" fill="none" xmlns="http://www.w3.org/2000/svg">
<path d="M100 192.975C86.7875 187.665 60.945 174.783 41.515 149.548C6.99997 104.705 19.89 51.1904 28.7275 20.7979C42.5875 14.8454 65.9475 6.96289 100 6.96289C134.052 6.96289 157.412 14.8454 171.272 20.7979C180.107 51.1904 193.007 104.705 158.485 149.548C139.055 174.783 113.212 187.665 100 192.975Z" fill="#60269E"/>
<path d="M100 6.9627C134.053 6.9627 157.413 14.8452 171.273 20.7977C180.108 51.1902 193.008 104.705 158.485 149.548C139.055 174.783 113.213 187.665 100 192.975C86.7875 187.665 60.945 174.783 41.515 149.548C7.00001 104.705 19.89 51.1902 28.7275 20.7977C42.5875 14.8452 65.9475 6.9627 100 6.9627ZM100 6.1377C73.605 6.1377 50.185 10.6852 28.4 20.0427L28.0425 20.1927L27.935 20.5677C23.0475 37.3777 18.0525 57.5552 18.0375 79.7502C18.02 106.703 25.7 130.353 40.8625 150.048C60.31 175.298 86.0675 188.265 99.6925 193.74L100 193.863L100.308 193.74C113.93 188.265 139.69 175.308 159.137 150.048C174.298 130.353 181.975 106.703 181.962 79.7502C181.947 57.5552 176.947 37.3777 172.062 20.5677L171.952 20.1927L171.598 20.0427C149.815 10.6852 126.395 6.1377 100 6.1377Z" fill="white"/>
<path d="M100 14.5253C123.868 14.5253 145.088 18.5253 164.81 26.7753C169.218 42.1878 173.56 60.4803 173.578 80.4053C173.593 105.155 166.59 126.823 152.77 144.835C135.52 167.308 112.84 179.233 100 184.585C87.16 179.228 64.47 167.303 47.23 144.835C33.41 126.823 26.4075 105.145 26.4225 80.4053C26.4225 60.4803 30.7825 42.1878 35.19 26.7753C54.9125 18.5253 76.1275 14.5253 100 14.5253ZM100 10.9053C67.6 10.9053 45.3725 18.4303 32.185 24.1153C23.7775 53.1303 11.5 104.223 44.3525 147.035C62.84 171.13 87.4275 183.43 100 188.5C112.573 183.43 137.16 171.13 155.643 147.035C188.5 104.223 176.22 53.1303 167.815 24.1153C154.625 18.4303 132.4 10.9053 100 10.9053Z" fill="white"/>
<path d="M111.557 99.8577V104.275C111.557 104.31 111.49 104.318 111.49 104.318L109.855 104.018C109.855 104.018 109.632 105.935 108.502 106.803C107.907 107.265 105.897 107.973 105.062 109.038C105.062 109.038 105.03 109.038 105.027 109.038C104.675 108.208 102.75 108.093 102.75 108.093L100 111.438L97.2325 108.093C97.2325 108.093 95.3025 108.208 94.955 109.04C94.9524 109.043 94.9493 109.045 94.9459 109.047C94.9424 109.048 94.9387 109.049 94.935 109.049C94.9312 109.049 94.9275 109.048 94.9241 109.047C94.9206 109.045 94.9175 109.043 94.915 109.04C94.0775 107.975 92.115 107.29 91.4775 106.808C90.3475 105.943 90.1275 104.023 90.1275 104.023L88.45 104.33C88.4419 104.325 88.4353 104.318 88.4309 104.31C88.4265 104.301 88.4245 104.292 88.425 104.283V99.8577C88.425 99.1976 88.675 98.7301 89.6275 98.1077C90.53 97.5327 91.9175 96.9802 93.445 96.4752C95.015 95.9602 98.005 95.7252 99.9825 95.7252H100C101.977 95.7252 104.967 95.9602 106.537 96.4752C108.067 96.9752 109.452 97.5327 110.357 98.1077C111.317 98.7226 111.557 99.1901 111.557 99.8577ZM147.292 90.4477C144.157 91.3558 140.805 91.1644 137.792 89.9052C138.977 91.3852 139.66 92.8727 140.32 94.4252C141.662 97.6177 145.212 101.38 148.2 100.553C149.492 100.193 145.612 103.738 140.902 103.648C137.738 103.559 134.677 102.503 132.13 100.623C132.74 102.263 132.88 103.758 133.057 105.403C133.412 108.85 135.705 113.488 138.807 113.568C140.155 113.603 135.405 115.855 130.925 114.393C127.734 113.314 124.967 111.251 123.022 108.5C123.202 110.523 122.92 112.25 122.567 113.958C121.865 117.348 122.655 122.458 125.585 123.473C126.855 123.91 121.65 124.628 117.817 121.885C115.192 119.959 113.22 117.273 112.17 114.19C111.787 115.841 111.162 117.427 110.315 118.895C108.647 121.93 107.9 127.05 110.4 128.873C111.49 129.668 106.172 128.823 103.317 125.075C102.02 123.378 100.782 121.513 100.01 119.433C99.2375 121.513 97.9975 123.378 96.7025 125.075C93.8475 128.825 88.5325 129.668 89.6175 128.873C92.1175 127.05 91.3675 121.93 89.705 118.895C88.8569 117.427 88.2317 115.842 87.85 114.19C86.7987 117.272 84.8276 119.958 82.2025 121.885C78.37 124.635 73.1625 123.91 74.4375 123.473C77.365 122.46 78.1525 117.348 77.4575 113.958C77.1025 112.25 76.815 110.533 77 108.5C75.062 111.244 72.3041 113.304 69.1225 114.383C64.6425 115.845 59.895 113.593 61.2375 113.558C64.3325 113.478 66.6275 108.84 66.9875 105.393C67.155 103.748 67.305 102.253 67.915 100.613C65.369 102.493 62.3086 103.548 59.145 103.638C54.435 103.728 50.5525 100.183 51.8475 100.543C54.8325 101.37 58.38 97.6077 59.725 94.4152C60.3825 92.8627 61.07 91.3752 62.255 89.8952C59.2375 91.1573 55.8789 91.3487 52.7375 90.4377C48.2125 89.1402 45.535 84.6176 46.67 85.3401C49.28 87.0077 53.7775 84.5902 56 81.9202C57.12 80.5777 58.285 79.2552 59.9775 78.1052C56.6262 78.297 53.3003 77.4218 50.4775 75.6052C46.5425 73.0102 45.3475 67.8952 46.2275 68.9252C48.215 71.2977 53.275 70.2002 56.1875 68.3277C57.5997 67.3689 59.1387 66.6116 60.76 66.0777C57.6192 65.234 54.8135 63.4458 52.7225 60.9552C49.7225 57.3127 50.0975 52.0702 50.62 53.3127C51.8225 56.1652 56.9775 56.6152 60.315 55.6877C61.9894 55.1805 63.728 54.9161 65.4775 54.9027C62.6843 53.1601 60.5006 50.5937 59.2275 47.5577C57.455 43.1927 59.365 38.3077 59.4925 39.6377C59.7925 42.7177 64.6425 44.6152 68.11 44.7227C69.6117 44.7251 71.1119 44.8177 72.6025 45.0002C70.7506 42.624 69.6115 39.7709 69.3175 36.7727C68.9125 32.0752 72.1825 27.9652 71.9125 29.2727C71.285 32.3052 75.2825 35.5902 78.5575 36.7177C80.0025 37.2177 81.5925 37.6027 83.1975 38.3677C82.0723 35.49 81.8116 32.3464 82.4475 29.3227C83.5 24.7502 87.8475 21.8052 87.195 22.9802C85.68 25.6802 88.5 30.0202 91.2875 32.0777C91.94 32.5652 92.6025 33.0577 93.2475 33.6127C97.2 27.3377 99.5375 20.9102 100.02 20.9102C100.502 20.9102 102.847 27.3152 106.805 33.5852C107.442 33.0402 108.092 32.5577 108.732 32.0852C111.517 30.0277 114.337 25.6877 112.825 22.9877C112.172 21.8127 116.532 24.7377 117.557 29.3477C118.198 32.3698 117.943 35.513 116.825 38.3927C118.427 37.6277 120.015 37.2402 121.462 36.7427C124.74 35.6152 128.737 32.3302 128.11 29.2977C127.837 27.9827 131.11 32.0927 130.705 36.7977C130.404 39.7871 129.265 42.6306 127.417 45.0002C128.917 44.8258 130.425 44.7423 131.935 44.7502C135.397 44.6427 140.252 42.7502 140.547 39.6652C140.677 38.3252 142.587 43.2202 140.815 47.5852C139.541 50.6205 137.357 53.1864 134.565 54.9302C136.314 54.944 138.051 55.2084 139.725 55.7152C143.065 56.6427 148.225 56.1927 149.42 53.3402C149.94 52.0902 150.312 57.3402 147.32 60.9827C145.228 63.4724 142.423 65.2603 139.282 66.1052C140.903 66.6381 142.44 67.3954 143.85 68.3552C146.767 70.2277 151.825 71.3252 153.815 68.9527C154.677 67.9227 153.482 73.0377 149.565 75.6327C146.742 77.4483 143.416 78.3235 140.065 78.1327C141.752 79.2827 142.917 80.6052 144.042 81.9477C146.25 84.5877 150.75 87.0177 153.362 85.3502C154.495 84.6277 151.822 89.1502 147.292 90.4477ZM74.3975 47.0377C75.4275 46.6993 76.5137 46.566 77.595 46.6452C79.4525 46.5652 82.2025 47.4102 84.61 48.4827C88.0375 50.0127 90.7275 46.8602 88.535 45.3427C88.51 45.3227 88.56 45.2927 88.61 45.2952C93.6425 45.5277 97.6725 47.5452 100.015 50.7577C102.362 47.5477 106.4 45.5077 111.455 45.2927C111.49 45.2927 111.482 45.3427 111.455 45.3677C109.325 46.8977 112.002 50.0027 115.415 48.4827C117.817 47.4102 120.565 46.5652 122.415 46.6452C123.456 46.5686 124.503 46.689 125.5 47.0002C125.67 47.0527 125.695 46.9502 125.527 46.8427C123.41 45.3977 120.385 44.8427 117.452 45.3127C116.165 45.0302 112.33 43.5802 114.345 39.9252C114.353 39.9147 114.358 39.9019 114.358 39.8887C114.358 39.8754 114.354 39.8625 114.346 39.852C114.338 39.8414 114.326 39.8338 114.314 39.8303C114.301 39.8268 114.287 39.8276 114.275 39.8327C111.275 41.1127 107.262 41.5527 105.812 43.4177C102.852 40.9852 100.422 34.5177 100.05 34.0152C100.032 33.9952 100.02 33.9852 100.01 33.9852C100 33.9852 99.99 33.9852 99.9725 34.0152C99.595 34.5302 97.165 40.9902 94.21 43.4177C92.77 41.5652 88.8 41.1177 85.8025 39.8577C85.7275 39.8252 85.65 39.8802 85.68 39.9352C87.68 43.5902 83.84 45.0377 82.565 45.3127C79.565 44.8352 76.46 45.4177 74.335 46.9377C74.22 47.0177 74.2625 47.0827 74.3975 47.0327M103.955 83.2502C104.485 82.9252 106.11 83.1852 106.557 82.9177C108.6 81.6902 109.22 80.0627 109.37 79.5402C109.402 79.4352 109.37 79.4027 109.292 79.4502C108.613 79.8835 107.826 80.1206 107.02 80.1352C106.317 80.1152 106.035 79.7052 104.427 79.7052C102.82 79.7052 102.437 80.5002 100 80.5002C97.5575 80.5002 97.1775 79.7127 95.57 79.7127C93.9625 79.7127 93.6825 80.1227 92.975 80.1427C92.1783 80.131 91.4 79.901 90.725 79.4777C90.6225 79.4177 90.58 79.4277 90.605 79.5127C90.74 79.9952 91.3425 81.6727 93.43 82.9252C93.8775 83.1927 95.5025 82.9252 96.0275 83.2577C96.5925 83.5952 95.9925 84.5252 96.5625 84.9352C98.14 86.0602 99.5175 87.2577 99.895 88.9352C99.8995 88.9572 99.9113 88.9772 99.9286 88.9917C99.9458 89.0062 99.9674 89.0145 99.99 89.0152C100.013 89.0143 100.035 89.0061 100.053 88.9917C100.071 88.9773 100.084 88.9574 100.09 88.9352C100.467 87.2526 101.84 86.0552 103.417 84.9352C103.987 84.5252 103.392 83.5952 103.952 83.2577M90.915 73.7827C90.847 74.029 90.7952 74.2795 90.76 74.5327C90.7325 74.7152 90.76 74.7427 90.8625 74.5452C91.435 73.3927 93.43 69.3627 94.13 68.1252C95.4075 65.8627 96.0275 64.4502 95.6675 63.9177C91.55 68.1977 88.865 61.7427 85.5325 61.2327C83.135 60.8677 82.3625 61.1202 80.2675 60.8027C80.8175 62.4477 81.2975 64.4602 83.9075 65.8452C87.845 67.9352 89.9575 66.9702 91.7025 67.8627C92.865 68.4602 91.4175 72.3627 90.915 73.7802M116.105 65.8452C118.715 64.4602 119.135 62.4477 119.685 60.8027C117.59 61.1202 116.877 60.8677 114.485 61.2327C111.15 61.7327 108.465 68.1977 104.347 63.9177C103.985 64.4502 104.597 65.8627 105.885 68.1252C106.605 69.3927 108.677 73.5877 109.187 74.6252C109.262 74.7752 109.29 74.7552 109.265 74.6102C109.23 74.3299 109.175 74.0525 109.1 73.7802C108.6 72.3677 107.147 68.4602 108.315 67.8627C110.065 66.9702 112.17 67.9352 116.105 65.8452ZM120.642 81.3452C122.245 77.8877 127.475 75.6977 131.915 75.5702C131.967 75.5702 131.967 75.5152 131.915 75.4927C129.535 74.4177 127.515 73.6152 125.435 73.7702C125.435 73.7702 125.417 73.7452 125.435 73.7302C127.46 70.2902 128.35 67.5427 127.72 61.8352C128.601 60.6154 129.215 59.2234 129.522 57.7501C129.829 56.2768 129.821 54.7553 129.5 53.2852C129.467 53.1377 129.365 53.1127 129.345 53.2477C129.095 54.6002 128.422 56.0777 127.472 57.4677C127.453 57.5021 127.43 57.5347 127.405 57.5652C127.294 57.7073 127.149 57.8194 126.984 57.8915C126.818 57.9636 126.638 57.9932 126.458 57.9778C126.278 57.9625 126.105 57.9025 125.954 57.8034C125.803 57.7043 125.68 57.5691 125.594 57.4102C125.509 57.2513 125.465 57.0736 125.465 56.8932C125.466 56.7128 125.511 56.5354 125.598 56.377C125.684 56.2187 125.809 56.0843 125.96 55.9862C126.112 55.8881 126.285 55.8293 126.465 55.8152C126.472 55.811 126.477 55.8044 126.48 55.7966C126.483 55.7889 126.483 55.7804 126.48 55.7727C124.777 52.6352 121.787 53.0227 121.26 51.6102C121.189 51.4248 121.166 51.2244 121.193 51.0277C121.22 50.831 121.296 50.6444 121.415 50.4852C119.68 50.3952 118.317 51.4852 119.087 52.7752C119.545 53.5452 121.277 53.7752 123.322 55.3077C123.325 55.3158 123.325 55.3245 123.322 55.3327C123.324 55.3353 123.325 55.3383 123.325 55.3414C123.325 55.3445 123.324 55.3475 123.322 55.3502C121.802 56.0627 123.255 57.6002 123.732 58.7052C124.502 60.5052 125.812 62.9552 124.892 67.5102C123.862 72.5852 120.457 75.8602 117.617 77.9602C117.557 78.5627 117.692 80.7827 113.825 84.8877C113.37 85.3652 114.412 85.1377 115.575 84.5102C115.59 84.5102 115.622 84.5102 115.622 84.5102C115.93 85.7788 116.124 87.0722 116.202 88.3752C116.202 88.3752 116.177 88.4026 116.165 88.4026C113.665 88.1676 110.622 88.2301 109.415 88.4026C108.712 88.5051 110.022 89.0702 110.73 89.1526C112.506 89.4339 114.265 89.8128 116 90.2877C116.015 90.2965 116.028 90.3074 116.04 90.3202C116 91.0188 115.847 91.7062 115.585 92.3552C115.585 92.3552 115.542 92.3702 115.527 92.3552C112.527 91.4852 109.752 90.8327 107.552 90.7052C106.852 90.6627 107.802 91.3177 108.43 91.4877C109.752 91.8477 112.1 92.9877 114.742 94.1327C114.742 94.1327 114.762 94.1652 114.755 94.1752C113.78 95.7902 113.077 96.6627 112.255 97.2552C112.236 97.2627 112.214 97.2627 112.195 97.2552C110.781 96.4503 109.3 95.7678 107.77 95.2151C106.88 94.9052 105.89 94.5002 104.91 94.0977C103.262 93.2652 100.49 92.2852 100.06 91.1877C100.046 91.1748 100.029 91.1677 100.01 91.1677C99.9922 91.168 99.9752 91.1752 99.9625 91.1877C99.5525 92.2402 96.98 93.1877 95.32 93.9952C94.26 94.4277 93.1775 94.8752 92.2075 95.2151C90.6815 95.7649 89.206 96.4458 87.7975 97.2502C87.7821 97.2553 87.7654 97.2553 87.75 97.2502C86.9375 96.6577 86.25 95.7852 85.27 94.1827C85.2669 94.1773 85.2653 94.1713 85.2653 94.1652C85.2653 94.159 85.2669 94.153 85.27 94.1477C87.915 93.0002 90.27 91.8602 91.5875 91.5002C92.2075 91.3302 93.17 90.6751 92.47 90.7177C90.265 90.8452 87.4875 91.4977 84.47 92.3752C84.4584 92.3769 84.4466 92.3769 84.435 92.3752C84.1709 91.7243 84.0171 91.034 83.98 90.3327C83.98 90.3327 83.9975 90.3052 84.005 90.3052C85.7469 89.834 87.5138 89.4609 89.2975 89.1877C90.005 89.1027 91.315 88.5377 90.61 88.4377C89.4 88.2626 86.36 88.2001 83.8475 88.4377C83.8475 88.4377 83.8175 88.4377 83.8225 88.4177C83.8965 87.1144 84.0898 85.8206 84.4 84.5527C84.4 84.5527 84.4225 84.5327 84.43 84.5352C85.605 85.1552 86.6575 85.3977 86.2025 84.9202C82.3375 80.8152 82.4725 78.5952 82.4125 77.9927C79.57 75.8927 76.1625 72.6177 75.14 67.5427C74.2175 62.9827 75.5275 60.5427 76.295 58.7377C76.775 57.6277 78.2225 56.0977 76.7075 55.3827C76.7075 55.3827 76.6925 55.3827 76.7075 55.3602C76.7225 55.3377 76.7225 55.3402 76.7275 55.3327C78.7725 53.8102 80.4975 53.5827 80.9525 52.8077C81.72 51.5077 80.3625 50.4277 78.6275 50.5177C78.745 50.6774 78.8208 50.864 78.8478 51.0605C78.8749 51.2569 78.8524 51.4571 78.7825 51.6427C78.255 53.0652 75.2575 52.6652 73.56 55.8127C73.545 55.8402 73.56 55.8477 73.5725 55.8502C73.7586 55.8681 73.9369 55.934 74.09 56.0414C74.2431 56.1487 74.3658 56.2939 74.4461 56.4628C74.5264 56.6317 74.5616 56.8185 74.5482 57.005C74.5348 57.1915 74.4734 57.3714 74.3698 57.5271C74.2663 57.6828 74.1241 57.8091 73.9573 57.8935C73.7904 57.9779 73.6046 58.0177 73.4178 58.009C73.231 58.0002 73.0496 57.9432 72.8914 57.8435C72.7332 57.7438 72.6035 57.6049 72.515 57.4402C71.57 56.0427 70.8925 54.5602 70.6675 53.2077C70.6475 53.0902 70.555 53.1402 70.5275 53.2777C70.2006 54.7556 70.191 56.2861 70.4991 57.7681C70.8072 59.2501 71.4261 60.6499 72.315 61.8752C71.6875 67.5702 72.565 70.3127 74.6 73.7502C74.6 73.7652 74.6 73.7902 74.585 73.7902C72.495 73.6352 70.4625 74.4477 68.06 75.5402C68.025 75.5577 68.0275 75.5927 68.06 75.5927C72.51 75.7052 77.7725 77.8977 79.38 81.3702C79.3812 81.374 79.3815 81.3781 79.3808 81.382C79.3801 81.386 79.3784 81.3897 79.376 81.3929C79.3735 81.3961 79.3703 81.3987 79.3667 81.4004C79.363 81.4021 79.359 81.4028 79.355 81.4027C75.7775 80.2202 72.21 82.4802 69.025 85.0627C68.99 85.0901 69.0075 85.1227 69.055 85.1102C73.21 83.8602 78.655 84.4202 81.2525 87.3251C81.2547 87.3285 81.256 87.3323 81.2562 87.3363C81.2565 87.3402 81.2557 87.3442 81.2539 87.3477C81.2521 87.3513 81.2494 87.3543 81.2461 87.3565C81.2428 87.3587 81.2389 87.3599 81.235 87.3602C77.4725 87.3102 75.3825 90.5027 73.1075 94.2277C73.0775 94.2802 73.09 94.3476 73.13 94.3277C75.6075 93.0777 79.1025 92.2402 81.6825 92.4727C81.6825 92.4727 81.7075 92.4927 81.7 92.5052C78.32 98.7877 83.2775 104.478 89.89 109.053C95.095 112.153 98.3275 114.653 100.03 116.203C101.562 114.575 104.862 112.145 110.095 109.085C116.73 104.505 121.715 98.8052 118.33 92.5077C118.33 92.4998 118.333 92.4921 118.337 92.4855C118.342 92.479 118.348 92.4737 118.355 92.4702C120.935 92.2402 124.43 93.0752 126.905 94.3352C126.945 94.3527 126.957 94.2877 126.925 94.2427C124.647 90.5227 122.555 87.3702 118.785 87.4227C118.785 87.4227 118.785 87.3952 118.785 87.3777C121.385 84.4827 126.822 83.8777 130.967 85.1152C131.017 85.1302 131.015 85.0752 130.967 85.0327C127.795 82.4677 124.24 80.2277 120.68 81.3977C120.662 81.3977 120.64 81.3977 120.647 81.3702" fill="#F0D283"/>
<path d="M95.6925 164.025H93.4875V151.5H95.7775V164.025H95.6925Z" fill="white"/>
<path d="M103.868 164.025H101.705V153.777H98.125V151.5H107.202L108.243 153.777H104.037V164.025H103.868Z" fill="white"/>
<path d="M115.822 164.025H113.657V158.773L109.615 151.5H112.212L114.825 156.398L117.437 151.5H120.032L115.987 158.773V164.025H115.822Z" fill="white"/>
<path d="M61.0001 148.073C59.7223 148.063 58.476 147.675 57.4184 146.958C56.3608 146.241 55.5392 145.227 55.0574 144.044C54.5757 142.86 54.4552 141.561 54.7113 140.309C54.9674 139.057 55.5886 137.909 56.4965 137.01C57.4043 136.111 58.5582 135.501 59.8124 135.257C61.0666 135.013 62.3651 135.146 63.5438 135.639C64.7226 136.132 65.7288 136.963 66.4356 138.028C67.1424 139.092 67.518 140.342 67.5151 141.62C67.5025 143.338 66.8101 144.982 65.5892 146.191C64.3684 147.4 62.7184 148.077 61.0001 148.073ZM61.0001 137.373C60.161 137.364 59.3382 137.604 58.6362 138.064C57.9342 138.524 57.3847 139.182 57.0576 139.954C56.7304 140.727 56.6403 141.58 56.7987 142.404C56.9571 143.228 57.3568 143.986 57.9472 144.582C58.5375 145.179 59.2918 145.586 60.1142 145.753C60.9366 145.92 61.79 145.838 62.5659 145.519C63.3419 145.199 64.0054 144.657 64.4722 143.959C64.939 143.262 65.188 142.442 65.1876 141.603C65.1922 140.487 64.7539 139.414 63.9688 138.621C63.1837 137.828 62.116 137.379 61.0001 137.373Z" fill="white"/>
<path d="M139.018 148.073C137.739 148.066 136.491 147.681 135.432 146.966C134.372 146.251 133.548 145.237 133.064 144.054C132.58 142.871 132.457 141.571 132.712 140.318C132.966 139.065 133.586 137.916 134.494 137.015C135.401 136.115 136.555 135.503 137.809 135.258C139.064 135.013 140.363 135.145 141.543 135.637C142.722 136.13 143.73 136.961 144.437 138.026C145.144 139.091 145.52 140.342 145.518 141.62C145.505 143.336 144.815 144.977 143.597 146.186C142.379 147.394 140.733 148.073 139.018 148.073ZM139.018 137.373C138.178 137.364 137.356 137.604 136.654 138.064C135.952 138.524 135.402 139.182 135.075 139.955C134.748 140.727 134.658 141.58 134.816 142.404C134.974 143.228 135.374 143.986 135.965 144.583C136.555 145.179 137.309 145.586 138.132 145.753C138.954 145.92 139.807 145.838 140.583 145.519C141.359 145.199 142.023 144.657 142.49 143.959C142.956 143.262 143.205 142.442 143.205 141.603C143.21 140.487 142.771 139.415 141.986 138.621C141.201 137.828 140.133 137.379 139.018 137.373Z" fill="white"/>
<path d="M83.475 147.823V135.343H85.765V145.673H91.9375L90.87 147.823H83.475Z" fill="white"/>
<path d="M117.112 147.898L109.057 140.208V147.868L106.807 143.148V134.923L114.822 142.42V135.343H117.112V147.898Z" fill="white"/>
<path d="M123.56 147.868H119.932V135.343H123.592C125.437 135.343 126.71 135.593 128.18 136.843C129.54 138.013 130.262 139.663 130.262 141.608C130.28 142.487 130.106 143.36 129.753 144.166C129.4 144.972 128.876 145.692 128.217 146.275C126.737 147.59 125.497 147.855 123.56 147.855M122.225 145.66H123.64C125.025 145.66 125.89 145.508 126.89 144.565C127.66 143.848 128.01 142.743 128.01 141.59C128.01 140.388 127.63 139.243 126.835 138.545C125.835 137.66 124.982 137.523 123.632 137.523H122.225V145.66Z" fill="white"/>
<path d="M78.22 147.858L73 141.55H73.97C74.5117 141.574 75.0544 141.543 75.59 141.458C76.7925 141.118 77 140.138 77 139.458C76.9954 139.126 76.8964 138.801 76.7144 138.523C76.5325 138.245 76.2751 138.025 75.9725 137.888C75.4525 137.615 74.7775 137.61 73.9725 137.61H72.6125V147.848H70.2925V135.343H74.0975C75.5 135.343 76.4 135.48 77.0975 135.815C77.786 136.145 78.3655 136.666 78.7678 137.315C79.17 137.964 79.3781 138.714 79.3675 139.478C79.3716 140.22 79.1611 140.947 78.7615 141.572C78.3618 142.197 77.79 142.693 77.115 143C77.09 143 77.155 143.018 77.155 143.018L81.2225 147.863L78.22 147.858Z" fill="white"/>
<path d="M106.18 147.823H103.765L102.21 144.413H99.0825L100.07 142.265H101.227L100.057 139.838L96.295 147.823H93.8925L100.057 134.933L106.18 147.823Z" fill="white"/>
<path d="M90.665 159.965C90.1831 160.753 89.4573 161.361 88.5979 161.697C87.7386 162.034 86.7928 162.081 85.9045 161.83C85.0161 161.58 84.2339 161.046 83.6768 160.311C83.1196 159.575 82.8181 158.677 82.8181 157.754C82.8181 156.831 83.1196 155.934 83.6768 155.198C84.2339 154.462 85.0161 153.928 85.9045 153.678C86.7928 153.428 87.7386 153.474 88.5979 153.811C89.4573 154.148 90.1831 154.756 90.665 155.543V152.35C89.6898 151.709 88.5593 151.344 87.3932 151.293C86.2272 151.242 85.0691 151.508 84.0418 152.062C83.0144 152.615 82.1562 153.437 81.558 154.439C80.9598 155.442 80.6439 156.587 80.6439 157.754C80.6439 158.921 80.9598 160.067 81.558 161.069C82.1562 162.071 83.0144 162.893 84.0418 163.447C85.0691 164.001 86.2272 164.266 87.3932 164.215C88.5593 164.165 89.6898 163.799 90.665 163.158V159.965Z" fill="white"/>
</svg>
