<svg width="200" height="200" viewBox="0 0 200 200" fill="none" xmlns="http://www.w3.org/2000/svg">
<g clip-path="url(#clip0_8997_1507)">
<path d="M162.696 164.246H161.32V163.252H165.232V164.246H163.848V167.58H162.696V164.246Z" fill="#DBE200"/>
<path d="M167.509 167.58L166.694 164.998V167.58H165.684V163.252H167.126L167.995 166.021L168.872 163.252H170.311V167.58H169.213V164.998L168.398 167.58H167.509Z" fill="#DBE200"/>
<path d="M186.587 96.3061C186.587 71.4191 176.048 48.9976 159.197 33.2489C157.692 27.3452 155.788 23.6741 155.593 23.3082L153.468 19.317L149.178 20.7514C147.644 21.2627 146.093 21.7409 144.538 22.2065C131.596 14.461 116.462 10.0042 100.281 10C84.0543 10.0042 68.8752 14.486 55.912 22.2772C53.1057 21.4374 51.5424 20.8512 51.4884 20.8304L46.8486 19.0551L44.7324 23.5369C43.1567 26.8754 42.0134 30.1889 41.1902 33.4235C24.4562 49.1639 14 71.5106 14 96.3061C14.0042 138.168 43.8011 173.054 83.3433 180.928C83.1396 182.882 83.0149 184.258 82.9941 184.903C83.0897 184.982 84.9024 186.375 86.2952 187.09C89.0807 188.512 93.5293 189.996 100.131 190C100.169 189.996 100.543 189.996 100.58 190C111.099 189.983 116.196 186.246 117.714 184.899C117.693 184.267 117.543 182.899 117.29 180.916C156.811 173.017 186.583 138.147 186.587 96.3061Z" fill="#2B5134"/>
<path d="M132.02 25.351C132.024 25.351 132.033 25.351 132.037 25.3469C133.367 25.0725 134.689 24.7773 136.011 24.4696C136.153 24.4364 136.29 24.4073 136.431 24.374C136.693 24.3116 136.955 24.2534 137.221 24.1911C137.209 24.1869 137.204 24.1828 137.2 24.1786C141.1 23.2307 144.962 22.1414 148.762 20.8858C145.241 21.2392 139.271 21.8421 133.533 22.42C123.385 17.8467 112.13 15.2981 100.282 15.2981C88.4201 15.2981 77.1615 17.855 67.0089 22.4366C61.2258 21.8545 55.1849 21.2434 51.6302 20.8858C52.4035 21.1685 56.5652 22.6486 63.2713 24.2326C63.2754 24.2368 63.2796 24.2368 63.2837 24.2368C63.3627 24.2576 63.4417 24.2742 63.5207 24.2908C63.9281 24.3865 64.3439 24.4821 64.768 24.5777C64.901 24.611 65.0382 24.6401 65.1712 24.6692C65.5745 24.7607 65.9861 24.848 66.406 24.9394C66.5183 24.9644 66.6347 24.9893 66.7511 25.0143C67.2833 25.1265 67.8279 25.2388 68.385 25.351C68.4391 25.3635 68.4931 25.3718 68.543 25.3843C78.2342 21.0397 88.9731 18.62 100.282 18.62C111.573 18.62 122.3 21.0314 131.983 25.3593C131.995 25.3552 132.008 25.3552 132.02 25.351ZM86.9525 78.7378L32.069 133.492C29.4914 128.769 27.3877 123.747 25.8244 118.496L79.3318 65.4337C77.3528 65.7705 75.4861 66.1405 73.7274 66.5355L24.8682 114.983C23.3881 109 22.6065 102.743 22.6065 96.3033C22.6065 79.6358 27.8658 64.2114 36.8003 51.5601C37.6651 50.3461 38.5548 49.1487 39.4819 47.9804V47.9014C39.4653 46.1844 39.5235 44.405 39.6732 42.584C40.1554 36.6553 41.6022 30.2486 44.6455 23.7337C42.1427 27.7042 37.4406 36.331 36.2183 46.7498C25.6124 60.4488 19.293 77.6402 19.293 96.3033C19.293 134.116 45.1943 165.863 80.2132 174.793C80.9449 177.383 81.9136 180.373 83.1193 183.191C83.3188 181.005 83.7429 177.23 84.3166 172.344C83.56 172.186 82.8075 172.012 82.0591 171.833C81.8762 171.787 81.6932 171.746 81.5145 171.7C80.7827 171.521 80.0593 171.33 79.3359 171.13C66.9008 167.651 55.7253 161.157 46.6453 152.488L87.123 111.661C87.1479 110.094 87.1687 108.572 87.1895 107.096L44.4003 150.251C40.8955 146.626 37.7441 142.656 34.9959 138.402L87.2768 86.238C87.2186 83.5439 87.098 81.0244 86.9525 78.7378ZM164.32 46.6916C163.006 35.6076 157.763 26.565 155.435 23.0103L155.593 23.3055C155.876 23.8377 159.759 31.3254 160.79 42.5091C160.865 43.3198 160.927 44.1555 160.969 45.0078C160.969 45.0535 160.973 45.0993 160.977 45.1492C161.019 46.0347 161.044 46.941 161.044 47.864V47.9056C161.979 49.078 162.877 50.2837 163.746 51.506C172.706 64.1657 177.981 79.615 177.981 96.3033C177.981 102.789 177.183 109.088 175.687 115.108L126.154 66.3567C124.395 65.9742 122.533 65.6208 120.562 65.3007L174.726 118.608C173.196 123.726 171.151 128.624 168.652 133.239L114.064 78.6463C113.914 80.933 113.793 83.4524 113.731 86.1507L165.742 138.165C163.089 142.302 160.054 146.173 156.682 149.728L113.814 106.863C113.835 108.331 113.856 109.844 113.881 111.408L154.458 151.981C145.283 160.911 133.912 167.592 121.227 171.13C120.504 171.334 119.78 171.521 119.053 171.704C118.87 171.746 118.691 171.791 118.508 171.833C117.768 172.012 117.02 172.186 116.267 172.34C116.271 172.394 116.276 172.44 116.28 172.494C116.363 173.504 116.45 174.494 116.537 175.442C116.55 175.521 116.558 175.591 116.571 175.666C117.011 178.784 117.344 181.262 117.535 182.917C118.687 180.181 119.614 177.309 120.325 174.802C155.373 165.884 181.299 134.128 181.299 96.3033C181.299 77.6111 174.959 60.3989 164.32 46.6916Z" fill="#DBE200"/>
<path d="M111.652 181.336C108.779 157.489 108.214 104.921 108.214 90.0455C108.214 77.153 109.806 66.464 110.226 63.8406C107.092 63.587 103.786 63.4415 100.302 63.4415C96.8723 63.4415 93.6128 63.5787 90.5155 63.824C90.9894 66.8008 92.5236 77.4524 92.5236 90.0455C92.5236 104.921 91.9581 157.489 89.0853 181.336V181.349C89.0853 181.349 91.8168 184.188 100.344 184.188H100.369H100.398C108.921 184.188 111.656 181.349 111.656 181.349C111.656 181.349 111.656 181.341 111.652 181.336ZM150.82 25.6912C96.3942 43.8554 49.3518 25.6912 49.3518 25.6912C38.7003 48.2499 49.3269 69.9106 49.3269 69.9106C49.3269 69.9106 66.2563 58.3028 100.24 58.3028C134.228 58.3028 150.82 69.9023 150.82 69.9023C161.663 46.0381 150.82 25.6912 150.82 25.6912Z" fill="white"/>
</g>
<defs>
<clipPath id="clip0_8997_1507">
<rect width="172.587" height="180" fill="white" transform="translate(14 10)"/>
</clipPath>
</defs>
</svg>
