<svg width="200" height="200" viewBox="0 0 200 200" fill="none" xmlns="http://www.w3.org/2000/svg">
<path d="M116.465 139.023C116.416 135.717 115.371 132.504 113.465 129.803L106.815 129.885L104.838 123.533C101.68 122.566 98.3052 122.566 95.1475 123.533L93.17 129.885L86.52 129.803C84.6145 132.504 83.5688 135.717 83.52 139.023L88.945 142.865L86.8125 149.16C88.7971 151.8 91.5269 153.785 94.65 154.86L100 150.885L105.333 154.86C108.457 153.786 111.187 151.801 113.173 149.16L111.04 142.865L116.465 139.023ZM112.75 130.698C114.352 133.076 115.254 135.857 115.353 138.723L111.403 141.52L113.268 134.965L107.91 130.75L112.75 130.698ZM95.7825 124.5C98.5401 123.72 101.46 123.72 104.218 124.5L105.658 129.125L100 125.325L94.3425 129.12L95.7825 124.5ZM88.595 141.525L84.645 138.728C84.7404 135.859 85.6434 133.076 87.25 130.698L92.09 130.758L86.73 134.965L88.595 141.525ZM94.7225 153.718C92.0313 152.729 89.6694 151.008 87.9025 148.75L89.455 144.165L91.8 150.563L98.6075 150.813L94.7225 153.718ZM100 149.853L99.14 145.78L94.0775 142.103L89.9425 142.543L93.5475 140.468L95.48 134.52L93.785 130.72L96.8725 133.5H103.123L106.21 130.713L104.515 134.513L106.448 140.46L110.053 142.535L105.918 142.095L100.855 145.773L100 149.853ZM112.098 148.75C110.33 151.006 107.968 152.725 105.278 153.713L101.393 150.815L108.2 150.565L110.548 144.168L112.098 148.75Z" fill="white"/>
<path d="M95.1899 141.665L98.6399 137.065L103.677 135.195H97.2074L95.1899 141.665Z" fill="white"/>
<path d="M26.0325 0.302734V76.3802C26.0325 161.765 100 199.698 100 199.698C100 199.698 173.967 161.765 173.967 76.3802V0.302734H26.0325ZM171.17 76.3802C171.17 152.88 109.69 190.88 100 196.398C90.31 190.87 28.8325 152.868 28.8325 76.3802V3.09523H171.17V76.3802Z" fill="#F2D11A"/>
<path d="M100 189.792C114.702 180.915 165.575 145.462 165.575 76.3799V8.69238H34.4275V76.3799C34.4275 145.462 85.2975 180.915 100 189.792ZM37.2225 11.4999H162.78V76.3799C162.78 141.9 115.92 176.525 100 186.5C84.08 176.525 37.2225 141.9 37.2225 76.3799V11.4999Z" fill="#F2D11A"/>
<path d="M130.458 50.4326C138.248 57.7387 143.387 67.4294 145.063 77.9776C143.711 67.0904 138.779 56.9613 131.043 49.1826L130.458 50.4326Z" fill="#F2D11A"/>
<path d="M81.4625 130.93C73.3807 127.983 66.2337 122.93 60.7617 116.292C55.2897 109.655 51.6917 101.675 50.3403 93.1796C48.9889 84.6842 49.9333 75.982 53.0756 67.9742C56.218 59.9664 61.444 52.9444 68.2125 47.6353L66.69 44.3628C59.3858 49.8166 53.7248 57.1768 50.3281 65.636C46.9314 74.0952 45.9302 83.3265 47.4343 92.3172C48.9384 101.308 52.8898 109.711 58.8549 116.604C64.82 123.497 72.5684 128.613 81.25 131.393C81.3225 131.25 81.395 131.088 81.4625 130.93Z" fill="#F2D11A"/>
<path d="M114.587 85.2254C111.297 82.2671 107.669 80.5363 103.702 80.0329C103.702 80.0329 121.452 78.6729 121.452 68.3604C121.452 63.4004 115.247 56.6904 95.9175 56.6904H73.215C73.215 56.6904 76.235 58.3779 76.235 59.8154V81.8154C79.0475 83.1929 82.885 84.4629 86.6975 86.0104V81.7504H92.93C96.24 81.7504 98.13 82.5004 99.855 83.9429L117.967 100.805C120.502 102.975 125.532 105.618 129.91 105.618C135.532 105.618 137.777 103.743 137.777 103.743C137.777 103.743 134.15 103.515 131.395 101.155L114.587 85.2254ZM94.25 79.0004H86.7V59.5429H94.25C103.75 59.5429 110.085 62.7929 110.085 69.2704C110.082 74.5279 103.5 79.0004 94.25 79.0004Z" fill="#F2D11A"/>
<path d="M76.235 93.4551V100.773C76.235 102.453 73.5325 103.88 73.5325 103.88H89.56C89.56 103.88 86.6975 102.453 86.6975 100.773V98.2926C84.2275 96.5351 80.2875 95.0951 76.235 93.4551Z" fill="#F2D11A"/>
<path d="M65.1175 33.1902C66.3151 36.0227 66.8226 37.0127 66.8226 37.0127L65.8575 40.5477L69.6075 42.1927L71.93 47.1927C71.93 47.1927 82.8576 42.2677 100.003 42.2677C117.148 42.2677 128.075 47.1927 128.075 47.1927L130.395 42.1927L134.145 40.5477L133.183 37.0127C133.183 37.0127 133.683 36.0127 134.885 33.1902C136.088 30.3677 141.885 27.3077 141.885 27.3077C136.983 22.2652 132.918 32.3502 127.74 27.4502C125.955 30.1177 129.7 33.3302 129.7 33.3302C129.296 34.2024 128.686 34.9632 127.923 35.5468C127.159 36.1305 126.265 36.5195 125.318 36.6802C121.383 37.3427 117.273 37.0952 116.478 29.8477C116.478 29.8477 113.81 37.1752 107.645 35.5702C103.628 34.5277 102.023 31.3202 101.455 29.7052C105.455 29.2227 108.495 26.7827 108.495 23.8477H102.675C102.45 20.8477 100 18.3877 100 18.3877C100 18.3877 97.5476 20.8527 97.3226 23.8477H91.5C91.5 26.7827 94.5451 29.2227 98.5401 29.7052C97.9751 31.3252 96.3675 34.5277 92.3526 35.5702C86.1851 37.1752 83.52 29.8477 83.52 29.8477C82.7225 37.0977 78.615 37.3477 74.68 36.6802C73.7325 36.5195 72.8383 36.1305 72.0748 35.5468C71.3112 34.9632 70.7012 34.2024 70.2976 33.3302C70.2976 33.3302 74.0475 30.1177 72.255 27.4502C67.0775 32.3502 63.005 22.2652 58.1125 27.3077C58.1175 27.3077 63.925 30.3602 65.1175 33.1902Z" fill="#F2D11A"/>
<path d="M127.828 53.5829C127.96 53.3171 128.03 53.0247 128.033 52.7279C128.033 48.7954 115.478 45.6104 100 45.6104C84.5225 45.6104 71.9675 48.7954 71.9675 52.7279C71.9706 53.0241 72.0389 53.316 72.1675 53.5829C78.135 50.4229 88.3675 48.3329 100 48.3329C111.633 48.3329 121.865 50.4229 127.828 53.5829Z" fill="#F2D11A"/>
<path d="M86.73 134.965L92.09 130.75L87.25 130.698C85.6443 133.075 84.7414 135.856 84.645 138.723L88.595 141.52L86.73 134.965Z" fill="#F2D11A"/>
<path d="M104.218 124.5C101.46 123.721 98.5401 123.721 95.7825 124.5L94.3425 129.125L100 125.325L105.658 129.12L104.218 124.5Z" fill="#F2D11A"/>
<path d="M107.91 130.75L113.27 134.958L111.405 141.513L115.355 138.715C115.254 135.852 114.352 133.074 112.75 130.698L107.91 130.75Z" fill="#F2D11A"/>
<path d="M89.455 144.165L87.9025 148.75C89.67 151.006 92.0318 152.725 94.7225 153.713L98.6075 150.815L91.8 150.565L89.455 144.165Z" fill="#F2D11A"/>
<path d="M108.2 150.563L101.393 150.813L105.278 153.71C107.968 152.723 110.33 151.005 112.098 148.75L110.548 144.165L108.2 150.563Z" fill="#F2D11A"/>
<path d="M28.8325 3.09521V76.3802C28.8325 152.88 90.31 190.88 100 196.398C109.69 190.87 171.17 152.868 171.17 76.3802V3.09521H28.8325ZM165.583 76.3802C165.583 145.463 114.71 180.915 100.008 189.793C85.305 180.915 34.435 145.463 34.435 76.3802V8.69271H165.575L165.583 76.3802Z" fill="#A50531"/>
<path d="M150.565 85.1875C150.574 95.404 147.662 105.41 142.173 114.026C136.683 122.643 128.844 129.509 119.58 133.818C119.866 134.845 120.07 135.893 120.193 136.952C128.787 133.264 136.289 127.427 141.978 120.003C147.667 112.579 151.351 103.817 152.677 94.558C154.003 85.2995 152.926 75.8555 149.55 67.1331C146.174 58.4107 140.612 50.7029 133.398 44.75L132.585 45.1025C138.248 50.1314 142.778 56.305 145.878 63.215C148.977 70.125 150.575 77.6142 150.565 85.1875Z" fill="#A50531"/>
<path d="M79.75 137.69C79.795 137.075 79.87 136.47 79.97 135.875C67.4199 131.54 56.9265 122.7 50.525 111.067C56.5886 123.289 67.0179 132.789 79.75 137.69Z" fill="#A50531"/>
<path d="M101.675 71.2505V76.088C105.925 74.588 108.357 71.8605 108.357 69.2705C108.356 68.9358 108.331 68.6017 108.282 68.2705H99.1675C99.1675 68.2705 101.675 68.9105 101.675 71.2505Z" fill="#A50531"/>
<path d="M101.675 87.9854V110.29C101.675 112.628 99.175 113.27 99.175 113.27H128.795C140.675 113.27 136.593 106.295 136.593 106.295C136.593 106.295 134.275 110.353 127.25 110.353H110.5V96.2029L101.675 87.9854Z" fill="#A50531"/>
<path d="M92.735 77.5003C92.735 77.5003 95.7925 75.9828 95.7925 73.2103C95.7925 70.5153 92.4275 69.0528 88.4225 68.3203V71.7003C91.2075 72.9728 92.56 75.0403 92.735 77.5003Z" fill="#A50531"/>
<path d="M62.0575 106.285C62.0575 110.26 69.6275 113.85 80.2875 113.85C93.6725 113.85 99.245 106.915 99.245 100.35C99.245 86.3028 70.1425 86.6003 70.1425 77.3503C70.1425 74.9378 71.9725 72.9704 74.5075 71.7354V68.4229C68.5225 69.8204 62.8025 73.2904 62.8025 79.4079C62.8025 92.4254 91 92.0004 91 102.25C91 107.523 87.315 111.118 80.28 111.118C72.3075 111.118 65.5525 106.965 67.225 100.763C67.2325 100.75 62.0575 101.955 62.0575 106.285Z" fill="#A50531"/>
<path d="M83.675 140.825C83.4613 143.169 84.1658 145.503 85.64 147.338L86.2575 145.44C86.2575 145.44 84.0275 143.423 83.675 140.825Z" fill="#A50531"/>
<path d="M96.4275 155.28C98.59 156.206 101.027 156.258 103.227 155.425L101.617 154.25C101.617 154.25 99 155.75 96.4275 155.28Z" fill="#A50531"/>
<path d="M114.75 142.365C114.75 142.365 115.365 145.312 114.12 147.615C115.675 145.847 116.481 143.544 116.37 141.192L114.75 142.365Z" fill="#A50531"/>
<path d="M106.88 124.317L107.495 126.205C107.495 126.205 110.495 126.532 112.298 128.427C111.093 126.406 109.151 124.933 106.88 124.317Z" fill="#A50531"/>
<path d="M93.485 124.228C91.19 124.749 89.1869 126.141 87.8975 128.11H89.8975C89.8975 128.11 91.12 125.365 93.485 124.228Z" fill="#A50531"/>
<path d="M104.52 134.52L106.215 130.72L103.128 133.5H96.8775L93.79 130.713L95.485 134.513L93.5525 140.46L89.9475 142.535L94.0825 142.095L99.145 145.773L100 149.853L100.86 145.78L105.923 142.103L110.058 142.543L106.453 140.468L104.52 134.52ZM98.64 137.065L95.19 141.665L97.2075 135.195H103.678L98.64 137.065Z" fill="#A50531"/>
<path d="M37.2224 11.5V76.38C37.2224 141.9 84.0799 176.525 99.9999 186.5C115.92 176.525 162.78 141.9 162.78 76.38V11.5H37.2224ZM85.6399 147.337C84.1658 145.503 83.4613 143.168 83.6749 140.825C84.0274 143.423 86.2574 145.44 86.2574 145.44L85.6399 147.337ZM96.4274 155.28C98.9999 155.75 101.617 154.25 101.617 154.25L103.227 155.423C101.028 156.256 98.5903 156.205 96.4274 155.28ZM114.75 142.365L116.36 141.195C116.471 143.547 115.665 145.85 114.11 147.617C115.36 145.312 114.75 142.365 114.75 142.365ZM111.045 142.865L113.177 149.16C111.192 151.801 108.462 153.786 105.337 154.86L99.9999 150.885L94.6649 154.86C91.5418 153.785 88.812 151.8 86.8274 149.16L88.9599 142.865L83.5349 139.023C83.5837 135.717 84.6294 132.504 86.5349 129.803L93.1849 129.885L95.1624 123.533C98.3201 122.566 101.695 122.566 104.852 123.533L106.83 129.885L113.48 129.803C115.385 132.504 116.431 135.717 116.48 139.023L111.045 142.865ZM80.2949 111.115C87.3299 111.115 91.0149 107.52 91.0149 102.247C91.0149 91.9975 62.8099 92.43 62.8099 79.4125C62.8099 73.295 68.5299 69.825 74.5149 68.4275V71.75C71.9799 72.985 70.1499 74.9525 70.1499 77.365C70.1499 86.615 99.2524 86.32 99.2524 100.365C99.2524 106.923 93.6799 113.865 80.2949 113.865C69.6349 113.865 62.0649 110.275 62.0649 106.3C62.0649 101.97 67.2399 100.77 67.2399 100.77C65.5599 106.957 72.3149 111.11 80.2874 111.11L80.2949 111.115ZM89.5674 103.885H73.5324C73.5324 103.885 76.2349 102.457 76.2349 100.777V93.455C80.2874 95.095 84.2349 96.535 86.6974 98.2925V100.772C86.6974 102.452 89.5599 103.88 89.5599 103.88L89.5674 103.885ZM127.827 53.5825C121.865 50.4225 111.632 48.3325 99.9999 48.3325C88.3674 48.3325 78.1349 50.4175 72.1674 53.5825C72.0388 53.3156 71.9705 53.0237 71.9674 52.7275C71.9674 48.795 84.5224 45.61 99.9999 45.61C115.477 45.61 128.032 48.795 128.032 52.7275C128.03 53.0244 127.96 53.3168 127.827 53.5825ZM112.297 128.428C110.5 126.533 107.5 126.205 107.5 126.205L106.885 124.317C109.154 124.934 111.094 126.408 112.297 128.428ZM93.4849 124.228C91.1199 125.365 89.8874 128.11 89.8874 128.11H87.8874C89.1792 126.139 91.1862 124.747 93.4849 124.228ZM99.1674 113.27C99.1674 113.27 101.667 112.628 101.667 110.29V87.985L110.5 96.2025V110.353H127.25C134.285 110.353 136.602 106.295 136.602 106.295C136.602 106.295 140.685 113.27 128.805 113.27H99.1674ZM129.917 105.61C125.54 105.61 120.51 102.967 117.975 100.798L99.8624 83.935C98.1374 82.485 96.2474 81.7325 92.9374 81.7425H86.6974V86C82.8849 84.4525 79.0474 83.1825 76.2349 81.805V59.805C76.2349 58.3675 73.2149 56.68 73.2149 56.68H95.9249C115.255 56.68 121.46 63.39 121.46 68.35C121.46 78.6625 103.71 80.0225 103.71 80.0225C107.68 80.5325 111.308 82.2633 114.595 85.215L131.402 101.137C134.152 103.497 137.785 103.725 137.785 103.725C137.785 103.725 135.532 105.61 129.91 105.61H129.917ZM130.465 50.4325L131.05 49.1825C138.786 56.9611 143.718 67.0903 145.07 77.9775C143.392 67.4283 138.251 57.7375 130.457 50.4325H130.465ZM130.4 42.1825L128.08 47.1825C128.08 47.1825 117.15 42.2575 100.007 42.2575C82.8649 42.2575 71.9349 47.1825 71.9349 47.1825L69.6124 42.1825L65.8624 40.5375L66.8274 37.0025C66.8274 37.0025 66.3274 36.0025 65.1224 33.18C63.9174 30.3575 58.1224 27.2975 58.1224 27.2975C63.0249 22.255 67.0874 32.34 72.2649 27.44C74.0524 30.1075 70.3074 33.32 70.3074 33.32C70.7111 34.1922 71.3211 34.953 72.0846 35.5366C72.8482 36.1203 73.7424 36.5093 74.6899 36.67C78.6249 37.3325 82.7324 37.085 83.5299 29.8375C83.5299 29.8375 86.1949 37.165 92.3624 35.56C96.3774 34.5175 97.9849 31.31 98.5499 29.695C94.5499 29.2125 91.5099 26.7725 91.5099 23.8375H97.3274C97.5524 20.8375 100.005 18.3775 100.005 18.3775C100.005 18.3775 102.455 20.8425 102.68 23.8375H108.5C108.5 26.7725 105.46 29.2125 101.46 29.695C102.027 31.315 103.632 34.5175 107.65 35.56C113.815 37.165 116.482 29.8375 116.482 29.8375C117.277 37.0875 121.387 37.3375 125.322 36.67C126.27 36.5093 127.164 36.1203 127.928 35.5366C128.691 34.953 129.301 34.1922 129.705 33.32C129.705 33.32 125.955 30.1075 127.745 27.44C132.922 32.34 136.995 22.255 141.89 27.2975C141.89 27.2975 136.08 30.35 134.89 33.18C133.7 36.01 133.187 37.0025 133.187 37.0025L134.15 40.5375L130.4 42.1825ZM66.6999 44.3625L68.2224 47.635C61.4539 52.9441 56.2279 59.9661 53.0855 67.9739C49.9432 75.9817 48.9988 84.6839 50.3502 93.1794C51.7016 101.675 55.2996 109.654 60.7716 116.292C66.2436 122.929 73.3907 127.983 81.4724 130.93C81.4049 131.087 81.3324 131.24 81.2674 131.393C72.5853 128.614 64.8362 123.498 58.8702 116.605C52.9043 109.713 48.9521 101.31 47.4471 92.3193C45.9422 83.3285 46.9427 74.0969 50.339 65.6372C53.7352 57.1776 59.3958 49.8168 66.6999 44.3625ZM50.5149 111.067C56.9164 122.7 67.4097 131.541 79.9599 135.875C79.8599 136.47 79.7849 137.075 79.7399 137.69C67.0078 132.789 56.5785 123.289 50.5149 111.067ZM120.192 136.952C120.07 135.893 119.866 134.845 119.58 133.818C127.637 130.059 134.635 124.358 139.944 117.226C145.253 110.094 148.707 101.755 149.995 92.9578C151.284 84.1608 150.368 75.1814 147.328 66.8263C144.288 58.4712 139.22 51.0021 132.58 45.09L133.392 44.7375C140.609 50.69 146.174 58.3985 149.552 67.1223C152.93 75.8462 154.008 85.2921 152.682 94.5527C151.356 103.813 147.671 112.577 141.98 120.002C136.289 127.428 128.785 133.265 120.187 136.952H120.192Z" fill="#001E61"/>
<path d="M110.083 69.2705C110.083 62.798 103.745 59.543 94.2475 59.543H86.6975V79.0005H94.25C103.5 79.0005 110.083 74.528 110.083 69.2705ZM92.735 77.5005C92.56 75.038 91.2075 72.9705 88.4225 71.7005V68.323C92.4225 69.0555 95.7925 70.518 95.7925 73.213C95.7925 75.9855 92.735 77.5005 92.735 77.5005ZM101.675 76.0855V71.2505C101.675 68.9105 99.175 68.2705 99.175 68.2705H108.29C108.338 68.6016 108.363 68.9358 108.365 69.2705C108.358 71.8605 105.918 74.5805 101.675 76.088V76.0855Z" fill="#001E61"/>
</svg>
