<svg width="200" height="200" viewBox="0 0 200 200" fill="none" xmlns="http://www.w3.org/2000/svg">
<path d="M173.223 13.3852C172.88 13.2802 164.75 10.7502 151.688 8.23268C144.045 6.75018 136.25 5.57518 128.518 4.72768C119.076 3.67432 109.583 3.13686 100.083 3.11768H99.9275C90.4295 3.13743 80.9396 3.67489 71.5 4.72768C63.7725 5.57518 55.9775 6.75518 48.33 8.22768C35.2625 10.7502 27.125 13.2802 26.79 13.3827L22.79 14.6327C22.79 21.5527 22.79 101.588 22.79 102.405C22.9907 106.689 23.4414 110.958 24.14 115.19C24.7989 119.149 25.6922 123.065 26.815 126.918C28.8862 134.005 31.7722 140.828 35.415 147.25C41.555 158.088 49.8675 167.808 60.1225 176.145C64.2741 179.513 68.6501 182.594 73.22 185.368C76.9974 187.664 80.8983 189.75 84.905 191.618C91.275 194.575 96.8725 196.45 99.11 196.768L100.01 196.88L100.898 196.768C103.133 196.45 108.738 194.575 115.105 191.618C119.111 189.752 123.01 187.665 126.785 185.368C131.358 182.596 135.735 179.514 139.888 176.145C150.138 167.808 158.45 158.088 164.593 147.25C168.227 140.826 171.108 134.003 173.178 126.918C174.298 123.065 175.189 119.149 175.848 115.19C176.547 110.954 176.998 106.681 177.198 102.393V14.6252L173.223 13.3852Z" fill="black"/>
<path d="M44.2125 141.175C49.59 150.72 56.885 159.307 65.8925 166.702C82.0825 180.002 97.875 184.775 99.695 185.027L99.99 185.08L100.28 185.027C102.105 184.777 117.897 180.007 134.09 166.702C143.09 159.307 150.392 150.72 155.77 141.175C162.412 129.39 166.122 116.132 166.807 101.77C166.85 100.815 166.807 22.9325 166.807 22.9325L165.77 22.6075C165.475 22.5175 135.935 13.4225 100.06 13.3975H99.9175C64.0475 13.4225 34.5 22.5175 34.2075 22.6075L33.1725 22.9325C33.1725 22.9325 33.13 100.815 33.1725 101.772C33.855 116.132 37.5675 129.39 44.2125 141.175ZM34.65 24.015C34.65 24.015 63.86 14.895 99.9175 14.8725H100.06C136.12 14.895 165.332 24.015 165.332 24.015C165.332 25.665 165.405 100.11 165.332 101.702C163.265 145.437 133.435 168 114.75 177.645L98.895 148.912C98.305 148.892 97.725 148.86 97.145 148.807C91.9268 148.344 86.9022 146.607 82.5128 143.747C78.1233 140.888 74.5033 136.994 71.9709 132.408C69.4385 127.822 68.0711 122.685 67.989 117.447C67.9069 112.209 69.1125 107.031 71.5 102.367C71.615 102.14 71.735 101.917 71.855 101.692C71.8875 101.635 72.205 101.06 72.355 100.83L51.9675 63.92H50.285L70.6625 100.83C67.9378 105.763 66.5106 111.307 66.515 116.942C66.515 134.732 80.465 149.307 97.995 150.342L113.437 178.317C106.415 181.817 101.205 183.412 100.075 183.567H99.99H99.9025C95.785 182.98 37.5675 163.422 34.6525 101.7C34.57 100.11 34.65 25.665 34.65 24.015Z" fill="#003DA6"/>
<path d="M145.588 63.9204H129.87L137.423 78.8029L145.588 63.9204Z" fill="#003DA6"/>
<path d="M64.04 63.9201L84.3725 100.765C87.8271 97.4305 92.26 95.2916 97.02 94.6626L80.42 63.9126L64.04 63.9201Z" fill="#003DA6"/>
<path d="M120.94 108.745L120.968 108.79L129.195 93.7954L113.65 63.9204H97.1401L118.548 104.24L120.94 108.745Z" fill="#003DA6"/>
<path d="M137.42 78.8052L129.195 93.8052H157.5C157.5 90.3877 157.5 85.5552 157.5 78.8052H137.42Z" fill="#003DA6"/>
<path d="M120.968 108.8C122.833 113.599 123.004 118.891 121.453 123.8H153.42C155.037 118.921 156.182 113.898 156.838 108.8H120.968Z" fill="#003DA6"/>
<path d="M113.512 153.785H134.512C139.051 149.281 143.027 144.245 146.355 138.785H105.25L113.512 153.785Z" fill="#003DA6"/>
<path d="M63.885 171.225C80.885 185.033 98.075 189.89 99.9275 190.155H100H100.062C101.99 189.865 119.162 185.003 136.105 171.23C151.19 158.963 169.53 136.98 171.193 101.888C171.228 101.19 171.193 18.9052 171.193 18.9052C168.693 18.1552 137.585 8.99521 100.075 8.97021H99.9225C62.4225 8.99521 31.3125 18.1477 28.8075 18.9052C28.8075 18.9052 28.7825 101.383 28.8075 101.888C30.455 136.973 48.7925 158.958 63.885 171.225ZM33.1725 22.9327L34.2075 22.6077C34.5025 22.5177 64.0475 13.4227 99.9175 13.3977H100.06C135.935 13.4227 165.475 22.5177 165.77 22.6077L166.807 22.9327C166.807 22.9327 166.85 100.815 166.807 101.77C166.122 116.133 162.413 129.39 155.77 141.175C150.393 150.72 143.092 159.308 134.09 166.703C130.691 169.492 127.122 172.067 123.402 174.413L103.85 139.025C103.6 139.07 103.35 139.103 103.1 139.145C102.065 139.288 101.022 139.362 99.9775 139.365C95.6938 139.366 91.4995 138.14 87.8912 135.831C84.283 133.522 81.412 130.228 79.6182 126.338C77.8244 122.448 77.183 118.125 77.77 113.882C78.3569 109.639 80.1476 105.652 82.93 102.395C83.065 102.238 83.2 102.073 83.3425 101.913L62.3625 63.9202H57.52L78.27 101.498C75.4245 105.482 73.7327 110.174 73.3805 115.057C73.0283 119.941 74.0294 124.827 76.2738 129.178C78.5181 133.53 81.9188 137.178 86.102 139.723C90.2851 142.267 95.0888 143.609 99.985 143.6C100.5 143.6 101.008 143.586 101.51 143.558L119.76 176.605C109.553 182.493 101.535 184.855 100.26 185.028L99.97 185.08L99.675 185.028C97.855 184.778 82.0625 180.003 65.8725 166.703C56.8725 159.308 49.57 150.72 44.1925 141.175C37.5475 129.39 33.835 116.133 33.1525 101.773C33.13 100.815 33.1725 22.9327 33.1725 22.9327Z" fill="white"/>
<path d="M88.945 55.5H90.695V58.84C90.7128 59.0411 90.69 59.2437 90.6277 59.4357C90.5654 59.6277 90.465 59.8052 90.3325 59.9575C89.955 60.3375 89.4425 60.36 88.95 60.37H87.95V59.2225H88.3425C88.715 59.205 88.9325 59.1925 88.95 58.7225L88.945 55.5Z" fill="white"/>
<path d="M96.215 55.6126C96.6724 55.7979 97.0624 56.1183 97.3331 56.5311C97.6038 56.9438 97.7422 57.4292 97.73 57.9226C97.7341 58.3886 97.6105 58.8469 97.3725 59.2476C97.2253 59.5013 97.03 59.7238 96.7975 59.9026C96.135 60.4301 95.35 60.5501 94.4675 60.5501C92.7675 60.5501 92.0725 59.9526 91.7175 59.4601C91.3998 59.0409 91.2349 58.5258 91.25 58.0001C91.2405 57.457 91.3995 56.9242 91.705 56.4751C92.3875 55.5076 93.5425 55.3501 94.4075 55.3351C95.0243 55.3131 95.6396 55.4099 96.22 55.6201M93.0475 57.9476C93.0475 58.6976 93.455 59.4776 94.51 59.4776C94.7529 59.4887 94.9948 59.4407 95.215 59.3376C95.7525 59.0701 95.94 58.4351 95.94 57.9476C95.94 57.4126 95.7025 56.4301 94.51 56.4226C93.4125 56.4051 93.0475 57.2751 93.0475 57.9476Z" fill="white"/>
<path d="M99.9676 56.7652C99.9671 56.827 99.9863 56.8875 100.023 56.9377C100.14 57.0877 100.63 57.1877 100.898 57.2552C101.23 57.3252 101.57 57.3927 101.898 57.4702C102.113 57.506 102.324 57.5646 102.528 57.6452C102.778 57.718 102.997 57.871 103.151 58.0806C103.306 58.2902 103.387 58.5448 103.383 58.8052C103.382 59.1018 103.295 59.3919 103.133 59.6402C102.725 60.2552 101.905 60.5252 100.595 60.5252C100.095 60.5252 99.1301 60.4827 98.5576 59.9752C98.2649 59.7025 98.0862 59.3292 98.0576 58.9302L99.7776 58.8827C99.8351 59.2002 100.163 59.4427 100.855 59.4427C101.063 59.4521 101.269 59.4109 101.458 59.3227C101.528 59.2879 101.588 59.2351 101.632 59.1698C101.676 59.1044 101.702 59.0287 101.708 58.9502C101.703 58.8615 101.669 58.7768 101.611 58.7094C101.553 58.6421 101.475 58.5957 101.388 58.5777C101.173 58.5102 100.078 58.3127 99.8351 58.2602C99.6451 58.2201 99.4573 58.1701 99.2726 58.1102C99.0008 58.0359 98.7602 57.8758 98.5868 57.6537C98.4134 57.4316 98.3163 57.1594 98.3101 56.8777C98.3098 56.5212 98.4499 56.179 98.7001 55.9252C99.2476 55.3552 100.228 55.3027 100.765 55.3027C101.265 55.2933 101.763 55.3565 102.245 55.4902C102.53 55.5607 102.786 55.7171 102.978 55.938C103.171 56.1589 103.291 56.4337 103.323 56.7252L101.615 56.8202C101.573 56.6577 101.49 56.3727 100.76 56.3727C100.528 56.3727 99.9926 56.4027 99.9926 56.7652" fill="white"/>
<path d="M109.03 55.5078V56.6053H105.642V57.3978H108.775V58.5028H105.637V59.2753H109.1V60.3778H103.897V55.5078H109.03Z" fill="white"/>
<path d="M69.6875 56.7651C69.6866 56.8274 69.7069 56.8882 69.745 56.9376C69.86 57.0876 70.3525 57.1876 70.62 57.2551C70.9525 57.3251 71.2875 57.3926 71.62 57.4701C71.8358 57.5053 72.047 57.5639 72.25 57.6451C72.5 57.7179 72.7191 57.8709 72.8736 58.0805C73.0281 58.2901 73.1094 58.5447 73.105 58.8051C73.1062 59.102 73.0192 59.3926 72.855 59.6401C72.45 60.2551 71.625 60.5251 70.3125 60.5251C69.8275 60.5251 68.8525 60.4826 68.28 59.9751C67.9881 59.7018 67.8096 59.3288 67.78 58.9301L69.4975 58.8826C69.5625 59.2001 69.885 59.4426 70.5725 59.4426C70.781 59.4523 70.9886 59.4111 71.1775 59.3226C71.2486 59.2884 71.3093 59.2358 71.3532 59.1703C71.3972 59.1048 71.4228 59.0288 71.4275 58.9501C71.4217 58.8609 71.3867 58.7762 71.328 58.7089C71.2692 58.6416 71.19 58.5954 71.1025 58.5776C70.8875 58.5101 69.79 58.3126 69.55 58.2601C69.3617 58.22 69.1756 58.17 68.9925 58.1101C68.81 58.0451 68.025 57.7651 68.025 56.8776C68.0252 56.7004 68.0604 56.5251 68.1286 56.3616C68.1968 56.1981 68.2967 56.0497 68.4225 55.9251C68.9625 55.3551 69.9425 55.3026 70.485 55.3026C70.9848 55.2938 71.4832 55.357 71.965 55.4901C72.2491 55.5616 72.5045 55.7182 72.697 55.939C72.8896 56.1597 73.0101 56.4339 73.0425 56.7251L71.3325 56.8201C71.29 56.6576 71.205 56.3726 70.475 56.3726C70.245 56.3726 69.7075 56.4026 69.7075 56.7651" fill="white"/>
<path d="M83.1474 55.5078L83.1849 58.1703L80.8249 55.5078H79.3774V59.5503L79.7399 60.3778H81.1049L81.0774 57.6928L83.4174 60.3778H84.8649V55.5078H83.1474Z" fill="white"/>
<path d="M77.1325 55.5078H75.1475L73.05 60.3778H74.9575L76.145 56.8578L76.7225 58.5103H76.03L75.67 59.5878H77.0875L77.3475 60.3778H79.2475L77.1325 55.5078Z" fill="white"/>
<path d="M64.3526 57.1978H42.4751V58.6653H64.3526V57.1978Z" fill="white"/>
<path d="M107.075 31.6475H112.325V51.7675H108.22L107.075 48.2675V31.6475ZM124.38 31.6475H118.25L112.397 41.32L118.72 51.7675H124.85L118.525 41.32L124.38 31.6475Z" fill="white"/>
<path d="M101.318 51.7652L100.475 49.1977H94.5926L95.9726 45.0027H99.0951L96.7726 37.8652L92.2251 51.7652H86.8901L93.5076 31.6602H100.068L106.685 51.7652H101.318Z" fill="white"/>
<path d="M78.3876 47.7852C77.2926 47.7852 76.3526 47.4377 75.7501 46.8077C74.7676 45.8502 74.7676 44.6227 74.7676 43.7227V31.6577H69.4426V43.1427C69.5026 45.3927 69.5626 47.7327 71.6051 49.7202C73.4276 51.4702 75.5001 52.2452 78.3226 52.2452C81.5301 52.2452 83.2826 51.2452 84.8976 49.7127C87.3751 47.3552 87.3751 44.1327 87.3751 41.5927V31.6577H82.0626V43.7227C82.0626 44.6227 82.0626 45.8577 81.0451 46.8427C80.3093 47.4799 79.3605 47.8164 78.3876 47.7852Z" fill="white"/>
<path d="M64.8925 47.4776C65.8455 46.2573 66.5744 44.8776 67.045 43.4025C67.478 42.0429 67.6989 40.6245 67.7 39.1975C67.7156 37.4611 67.3753 35.7399 66.7 34.14C66.0569 32.5952 65.1233 31.1881 63.95 29.995C62.7577 28.8146 61.3564 27.866 59.8175 27.1975C58.2199 26.4992 56.4935 26.144 54.75 26.155C53.0042 26.1438 51.2748 26.4927 49.67 27.18C48.1231 27.8418 46.7163 28.792 45.525 29.98C44.3504 31.1779 43.4169 32.5901 42.775 34.14C41.4516 37.3853 41.4516 41.0198 42.775 44.265C43.4162 45.8042 44.3502 47.2043 45.525 48.3876C46.7199 49.5668 48.126 50.5108 49.67 51.17C51.2741 51.8597 53.0039 52.2088 54.75 52.195C55.7295 52.1967 56.7063 52.0902 57.6625 51.8775C58.6677 51.6453 59.6444 51.3032 60.575 50.8575L60.62 50.8225L60.65 50.875L61.2025 51.75H67.6L64.9375 47.5575L64.8925 47.4776ZM47.0925 39.175C47.0849 38.1646 47.2774 37.1627 47.6588 36.227C48.0402 35.2913 48.6031 34.4403 49.3149 33.7232C50.0267 33.006 50.8734 32.4368 51.8062 32.0484C52.739 31.66 53.7395 31.46 54.75 31.46C56.2807 31.455 57.7769 31.9153 59.04 32.78C59.0882 32.8091 59.1341 32.8417 59.1775 32.8775L59.3375 32.9925C60.8056 34.1182 61.8261 35.7289 62.2167 37.5372C62.6073 39.3455 62.3426 41.2338 61.47 42.8651H55.5L57.6475 46.19L57.7 46.2751L57.6525 46.3176L57.4375 46.4025L57.36 46.43L57.13 46.51L56.995 46.555C56.9325 46.5751 56.865 46.59 56.7975 46.6101L56.6325 46.655L56.44 46.7001L56.265 46.7401C56.1925 46.7551 56.12 46.77 56.045 46.78C55.97 46.79 55.9475 46.7951 55.895 46.8026C55.7992 46.8213 55.7023 46.8339 55.605 46.84H55.5225C55.2725 46.865 55 46.8801 54.74 46.8801C54.605 46.8801 54.475 46.8801 54.3425 46.8801C52.3739 46.7777 50.5209 45.9191 49.1701 44.4835C47.8193 43.0479 47.075 41.1462 47.0925 39.175Z" fill="white"/>
<path d="M149.87 39.0477C148.247 38.7327 147.182 38.4052 147.182 37.2977C147.182 36.3677 148.007 35.8302 149.452 35.8302C149.952 35.8302 151.655 35.8852 152.977 36.5802C153.527 36.8834 153.997 37.3116 154.35 37.8302L157.768 34.7077C157.058 33.8438 156.184 33.1285 155.197 32.6027C153.483 31.7418 151.583 31.3127 149.665 31.3527C145.915 31.3527 143.18 32.8177 142.125 35.3652C141.796 36.1576 141.626 37.0071 141.625 37.8652C141.625 41.7202 144.435 42.9927 146.553 43.5852C146.818 43.6502 147.415 43.7777 148.105 43.9227C149.38 44.1902 150.967 44.5227 151.405 44.6927C152.405 45.0427 152.542 45.7252 152.542 46.1027C152.542 47.6477 150.293 47.7702 149.585 47.7702C148.678 47.7684 147.777 47.612 146.923 47.3077C146.253 47.0932 145.64 46.7309 145.13 46.2477C144.892 46.0083 144.67 45.7527 144.467 45.4826C144.45 45.4601 144.412 45.4002 144.352 45.3127C144.292 45.2252 144.217 45.0852 144.217 45.0852L140.467 47.5627H131.235V43.4127H138.405V39.2252H131.235V35.8602H139.837V31.6577H126V51.7677H140.667V48.7827C141.823 50.1845 143.369 51.2106 145.11 51.7302C146.495 52.1443 147.935 52.3433 149.38 52.3202C152.495 52.3202 154.847 51.4677 156.367 49.7902C157.443 48.5845 158.019 47.0151 157.98 45.4002C157.97 40.5427 153.852 39.7827 149.87 39.0477Z" fill="white"/>
<path d="M157.515 57.1978H135.265V58.6653H157.515V57.1978Z" fill="#CE0E2D"/>
<path d="M112.385 56.2229C112.952 56.1797 113.49 55.9573 113.923 55.5879H115.14V60.2904H113.52V57.2179H112.385V56.2229Z" fill="#CE0E2D"/>
<path d="M118.343 58.7051C117.195 58.7051 116.238 58.2501 116.238 57.1901C116.24 56.8922 116.332 56.6019 116.5 56.3562C116.668 56.1104 116.906 55.9203 117.183 55.8101C117.755 55.6038 118.359 55.5014 118.968 55.5076C120.598 55.5076 121.653 56.1801 121.653 57.8201C121.653 58.3426 121.558 59.2626 120.75 59.8751C120.14 60.3301 119.388 60.3951 118.7 60.3951C118.246 60.4048 117.793 60.3424 117.358 60.2101C116.608 59.9776 116.358 59.5676 116.235 59.1051L118.048 59.0626C118.128 59.1693 118.235 59.2535 118.358 59.3069C118.48 59.3604 118.615 59.3813 118.748 59.3676C119.034 59.3799 119.315 59.2915 119.543 59.1176C119.678 58.9967 119.786 58.8478 119.858 58.6811C119.93 58.5145 119.965 58.3341 119.96 58.1526C119.71 58.3601 119.343 58.6976 118.343 58.6976M117.903 57.1051C117.903 57.6751 118.665 57.6826 118.863 57.6826C119.55 57.6826 119.905 57.4951 119.905 57.1151C119.905 56.6576 119.518 56.5051 118.818 56.5276C118.45 56.5401 117.903 56.6076 117.903 57.1051Z" fill="#CE0E2D"/>
<path d="M129.653 55.71H131.52V58.435H132.335V59.53H131.5V60.3775H129.948V59.53H126.89V58.5L129.653 55.71ZM129.96 56.945L128.485 58.445H129.96V56.945Z" fill="#CE0E2D"/>
<path d="M127.34 56.605C124.38 58.57 124.478 60.3775 124.478 60.3775H122.628C122.628 60.3775 122.75 57.9275 125.735 56.605H122.183V55.5H127.34V56.605Z" fill="#CE0E2D"/>
<path d="M82.9376 120.443C81.2751 117.238 80.7051 113.775 80.5601 112.705C80.1091 112.798 79.6505 112.849 79.1901 112.858C78.928 114.216 78.7966 115.597 78.7976 116.98C78.7923 121.127 80.0097 125.184 82.2976 128.643L83.0751 128.293C82.0551 124.405 82.5751 121.653 82.9376 120.443Z" fill="#A6A8AB"/>
<path d="M83.3751 128.983L82.6426 129.145C84.8117 132.244 87.772 134.704 91.2151 136.27C91.0651 136.02 90.6951 135.298 90.1676 133.695C88.9676 133.168 85.1701 131.365 83.3751 128.983Z" fill="#333333"/>
<path d="M99.7251 95.7852L98.9551 99.3427C96.8775 100.35 94.9743 101.682 93.3176 103.29C90.7529 103.371 88.1952 103.602 85.6576 103.983C85.4342 103.252 85.3064 102.496 85.2776 101.733C89.1533 97.9719 94.325 95.8429 99.7251 95.7852ZM100.245 95.7852L101.018 99.3427C103.095 100.348 104.998 101.681 106.653 103.29C109.219 103.371 111.778 103.602 114.318 103.983C114.54 103.252 114.667 102.496 114.698 101.733C110.822 97.9721 105.65 95.8432 100.25 95.7852H100.245Z" fill="white"/>
<path d="M109.19 119.955C108.19 122.875 105.62 127.34 105.02 128.367C103.29 128.704 101.532 128.872 99.77 128.867C98.1489 128.88 96.5315 128.712 94.9475 128.367C94.3525 127.342 91.77 122.868 90.78 119.955C91.7275 118.53 94.115 115.123 96.725 112.635H103.25C105.855 115.123 108.25 118.53 109.19 119.955ZM92.4525 105.158C90.1879 104.749 87.8934 104.529 85.5925 104.5C83.1125 107.598 81.405 111.373 80.99 112.338C81.5525 115.9 83.24 119.1 83.565 119.685C84.72 119.79 85.9175 119.84 87.13 119.84C88.775 119.84 89.9725 119.747 90.415 119.707C91.5927 116.697 92.9811 113.773 94.57 110.957L92.4525 105.158ZM114.4 104.5C112.092 104.528 109.79 104.746 107.517 105.152L105.402 110.945C106.993 113.764 108.381 116.692 109.557 119.707C110 119.747 111.197 119.84 112.842 119.84C114.06 119.84 115.257 119.79 116.412 119.685C116.75 119.095 118.435 115.892 118.992 112.32C118.572 111.34 116.892 107.598 114.4 104.5Z" fill="#C8C8C8"/>
<path d="M83.07 128.293L82.2925 128.643C80.0046 125.184 78.7872 121.127 78.7925 116.98C78.7914 115.597 78.9229 114.216 79.185 112.858C79.6454 112.849 80.104 112.798 80.555 112.705C80.7 113.775 81.27 117.238 82.9325 120.443C82.575 121.653 82.055 124.405 83.07 128.293ZM116.91 128.293L117.685 128.643C120.744 123.989 121.855 118.322 120.78 112.858C120.32 112.849 119.863 112.797 119.412 112.705C119.27 113.775 118.697 117.238 117.042 120.443C117.403 121.653 117.92 124.405 116.91 128.293Z" fill="#98989A"/>
<path d="M90.1676 133.695C90.6951 135.298 91.0651 136.018 91.2151 136.27C87.772 134.704 84.8117 132.244 82.6426 129.145L83.3751 128.983C85.1701 131.365 88.9676 133.168 90.1676 133.695ZM109.815 133.695C109.288 135.298 108.918 136.018 108.765 136.27C112.21 134.705 115.172 132.244 117.343 129.145L116.608 128.983C114.815 131.365 111.015 133.168 109.815 133.695Z" fill="#54565A"/>
<path d="M108.75 133.298C108.448 133 107.983 132.53 107.485 132C106.637 131.106 105.866 130.142 105.18 129.118C101.774 129.941 98.2207 129.935 94.8176 129.1C93.8176 130.635 91.8177 132.738 91.0352 133.51C91.1577 134.496 91.3899 135.466 91.7277 136.4C91.7452 136.445 91.7652 136.483 91.7852 136.523C94.3668 137.602 97.136 138.162 99.9342 138.17C102.732 138.178 105.505 137.635 108.093 136.57C108.58 135.493 108.818 133.82 108.868 133.415L108.75 133.298Z" fill="#76777A"/>
</svg>
