<svg width="200" height="200" viewBox="0 0 200 200" fill="none" xmlns="http://www.w3.org/2000/svg">
<path d="M169.754 119.323V28.5529C169.754 22.845 166.092 17.8766 160.645 16.1857C141.14 10.139 120.8 7.07324 100.191 7.07324C79.5807 7.07324 59.2413 10.139 39.7359 16.1857C34.2854 17.8734 30.6267 22.845 30.6267 28.5529V119.323C30.6267 137.903 37.8626 155.375 51.0019 168.515C53.8266 171.339 56.8956 173.929 60.1307 176.216C73.345 185.697 100.194 192.633 100.194 192.633C100.194 192.633 127.043 185.697 140.257 176.216C143.492 173.929 146.564 171.336 149.386 168.515C162.518 155.375 169.754 137.906 169.754 119.323Z" fill="#02152B"/>
<path d="M161.922 12.0645C142.006 5.89066 121.234 2.75977 100.19 2.75977C79.144 2.75977 58.3746 5.89066 38.4555 12.0677C31.1902 14.3157 26.3098 20.9424 26.3098 28.553V119.323C26.3098 139.056 33.9953 157.61 47.9491 171.564C50.3046 173.92 52.8393 176.135 55.4978 178.165C55.4978 178.165 57.332 179.52 57.5471 179.673L57.6122 179.719C71.136 189.421 98.6787 196.836 99.8451 197.145L100.19 197.237L100.536 197.145C101.702 196.836 129.245 189.421 142.772 179.715L142.83 179.673C143.039 179.523 144.88 178.165 144.896 178.152C147.538 176.135 150.073 173.916 152.432 171.561C166.385 157.607 174.071 139.053 174.071 119.32V28.553C174.071 20.9424 169.191 14.3157 161.922 12.0645ZM169.754 119.323C169.754 137.906 162.518 155.375 149.379 168.515C146.558 171.336 143.485 173.926 140.25 176.216C127.036 185.697 100.187 192.633 100.187 192.633C100.187 192.633 73.3384 185.697 60.1241 176.216C56.889 173.929 53.82 171.339 50.9953 168.515C37.856 155.375 30.6201 137.906 30.6201 119.323V28.553C30.6201 22.845 34.282 17.8767 39.7293 16.1858C59.2347 10.139 79.5741 7.07329 100.184 7.07329C120.794 7.07329 141.133 10.139 160.638 16.1858C166.089 17.8734 169.748 22.845 169.748 28.553V119.323H169.754Z" fill="url(#paint0_linear_8997_2138)"/>
<path d="M159.208 20.382C140.169 14.4786 120.311 11.4878 100.187 11.4878C80.0627 11.4878 60.2088 14.4786 41.1693 20.382C37.4455 21.5353 34.9434 24.9334 34.9434 28.8331V119.245C34.9434 136.671 41.7297 153.056 54.0545 165.38C56.7358 168.062 59.6093 170.482 62.6457 172.626H62.6425C75.5798 181.908 100.187 187.88 100.187 187.88C100.187 187.88 124.794 181.908 137.732 172.626H137.728C140.765 170.482 143.638 168.062 146.32 165.38C158.641 153.056 165.431 136.671 165.431 119.245V28.8331C165.434 24.9334 162.932 21.5353 159.208 20.382ZM42.4497 24.5033C61.0754 18.7302 80.5026 15.8013 100.19 15.8013C119.881 15.8013 139.305 18.7302 157.931 24.5033C159.837 25.093 161.121 26.836 161.121 28.8331V63.084C141.495 56.7798 121.012 53.5838 100.19 53.5838C79.3655 53.5838 58.8861 56.7798 39.2601 63.084V28.8331C39.2601 26.836 40.5405 25.0963 42.4497 24.5033ZM39.2601 67.8927C50.1059 64.322 61.2253 61.7287 72.5238 60.1225C65.7473 63.299 59.5018 67.6614 54.0545 73.112C47.4865 79.68 42.492 87.4013 39.2601 95.8166V67.8927ZM143.348 162.406C131.819 173.936 116.493 180.282 100.187 180.282C83.8811 180.282 68.5557 173.933 57.029 162.406C45.5024 150.879 39.1526 135.551 39.1526 119.248C39.1526 102.945 45.5024 87.6164 57.029 76.0865C68.5557 64.5598 83.8843 58.2101 100.187 58.2101C116.49 58.2101 131.819 64.5598 143.348 76.0865C154.875 87.6164 161.225 102.942 161.225 119.248C161.225 135.554 154.878 150.879 143.348 162.406ZM146.326 73.112C140.876 67.6614 134.633 63.299 127.854 60.1225C139.152 61.7287 150.272 64.3253 161.121 67.896V95.8166C157.885 87.3981 152.891 79.6767 146.326 73.112Z" fill="#697A7C"/>
<path d="M50.8389 32.0195C50.8487 33.7104 50.8585 35.1048 50.8683 36.7957C52.3278 36.4047 53.7906 36.0333 55.2535 35.675C55.2535 33.6485 55.2535 31.6221 55.2535 29.5956C55.2535 27.517 53.4974 26.253 51.3407 26.8264C50.0538 27.1684 48.7669 27.5236 47.4832 27.8917C45.3363 28.5075 43.603 30.7392 43.603 32.8145V37.9066C43.603 39.0404 43.9972 40.0145 44.7205 40.6857C46.5645 42.3896 48.415 44.1196 50.2721 45.8789C50.7021 46.2861 50.9367 46.8758 50.9367 47.5437V50.4237C50.9367 50.6029 50.7868 50.7853 50.6044 50.8342C49.8225 51.046 49.0406 51.261 48.2619 51.4825C48.0795 51.5347 47.9296 51.4337 47.9296 51.2545C47.9296 49.417 47.9296 47.8792 47.9296 46.0418C46.4831 46.4523 45.043 46.8823 43.6063 47.3286V53.8087C43.6063 55.8873 45.3395 57.0276 47.4865 56.4118C48.7701 56.0437 50.0538 55.6886 51.3439 55.3465C53.5007 54.7731 55.2567 52.6684 55.2567 50.5899C55.2567 48.9218 55.2567 47.2505 55.2567 45.5824C55.2567 44.4454 54.856 43.4387 54.1197 42.7317C52.2887 40.9756 50.4643 39.2489 48.6431 37.5483C48.2098 37.1443 47.9752 36.5579 47.9752 35.8867C47.9752 35.3198 47.9752 35.0462 47.9752 34.476C47.9752 33.0458 46.6069 32.8992 46.5156 32.9122C46.5124 32.9122 46.5091 32.9122 46.5091 32.9122H46.5124C47.8416 32.5213 49.1709 32.1466 50.5066 31.7882C50.6891 31.7393 50.8357 31.8403 50.8389 32.0195Z" fill="white"/>
<path d="M67.6175 23.4644C65.5454 23.8227 63.4799 24.2169 61.4176 24.647C59.9222 34.3329 58.43 44.0351 56.9412 53.7535C58.5115 53.3886 60.0818 53.0433 61.6587 52.7175C61.8542 51.2319 62.0529 49.8929 62.2484 48.4072C63.7503 48.101 65.2555 47.8143 66.7639 47.5471C66.9626 48.9578 67.1581 50.2219 67.3568 51.6326C68.9239 51.3589 70.4942 51.1048 72.0646 50.8702C70.5822 41.7154 69.0998 32.5834 67.6175 23.4644ZM62.7957 43.7809C63.3561 39.4576 63.9197 33.0655 64.4833 28.7488C65.0469 32.8505 65.6106 39.0276 66.1709 43.1359C65.0469 43.3411 63.9197 43.5561 62.7957 43.7809Z" fill="white"/>
<path d="M74.1169 22.4541C75.7459 22.2293 77.3749 22.024 79.0071 21.8416C80.1898 26.406 81.3724 30.9834 82.5583 35.5706C82.5583 30.8726 82.5583 26.1779 82.5583 21.48C84.0732 21.3399 85.5915 21.2161 87.1097 21.1118V49.2312C85.4742 49.3452 83.8387 49.4788 82.2032 49.6319C80.9945 44.9503 79.789 40.2783 78.5836 35.6195V50.0099C77.0947 50.1793 75.6058 50.3682 74.1202 50.5735C74.1169 41.2004 74.1169 31.8272 74.1169 22.4541Z" fill="white"/>
<path d="M102.588 20.6754C99.8775 20.6428 97.1669 20.6656 94.4563 20.7471V48.8665C97.1669 48.785 99.8775 48.7622 102.588 48.7948C104.709 48.8209 106.429 47.2668 106.429 45.273C106.429 38.3042 106.429 31.3354 106.429 24.3699C106.426 22.3793 104.709 20.7015 102.588 20.6754ZM101.937 43.6407C101.937 43.8264 101.774 43.9763 101.575 43.9763C100.699 43.9698 99.8189 43.9698 98.9425 43.9763C98.9425 38.0696 98.9425 33.2707 98.9425 27.364C98.9262 25.9077 97.4438 25.4157 97.4438 25.4157H97.4536C97.4406 25.4125 97.4341 25.4125 97.4341 25.4125C98.8154 25.3929 100.197 25.3864 101.578 25.3962C101.777 25.3962 101.94 25.5493 101.94 25.7383C101.937 32.0783 101.937 37.304 101.937 43.6407Z" fill="white"/>
<path d="M109.577 49.01C111.072 49.0849 112.567 49.1762 114.06 49.2837C114.06 39.9105 114.06 30.5374 114.06 21.1643C112.564 21.0568 111.072 20.9623 109.577 20.8906V49.01Z" fill="white"/>
<path d="M128.043 22.7083C124.436 22.174 120.82 21.7472 117.194 21.4214V32.9676V45.325V49.544C120.816 49.8698 124.436 50.2966 128.043 50.8309C128.043 49.4235 128.043 47.7228 128.043 46.3154C125.922 46.0026 123.797 45.7257 121.667 45.4846C121.667 42.7707 121.667 40.3533 121.667 37.6427C123.586 37.861 125.498 38.1086 127.411 38.3823C127.411 36.9748 127.411 35.5707 127.411 34.1632C125.498 33.8863 123.582 33.642 121.667 33.4237C121.667 31.6318 121.667 30.1364 121.667 28.3478C121.644 26.898 120.175 26.2301 120.175 26.2334L120.253 26.2529C120.207 26.2399 120.178 26.2334 120.178 26.2334C122.804 26.5103 125.426 26.8426 128.039 27.2271C128.043 25.8164 128.043 24.1125 128.043 22.7083Z" fill="white"/>
<path d="M137.774 29.2534C137.784 31.0486 137.794 32.5472 137.803 34.3424C139.279 34.6388 140.752 34.9549 142.221 35.2872C142.221 33.1597 142.221 31.0355 142.221 28.9081C142.221 26.8328 140.465 24.7477 138.289 24.3046C136.982 24.0375 135.676 23.7866 134.366 23.5455C132.183 23.148 130.411 24.549 130.411 26.6243V47.6348C130.411 49.7101 132.187 51.6714 134.366 52.0689C135.676 52.3067 136.982 52.5608 138.289 52.828C140.465 53.2711 142.221 51.994 142.221 49.9154C142.221 46.3088 142.221 42.7055 142.221 39.099C140.263 38.6559 138.299 38.2454 136.328 37.8642C137.266 38.8253 137.803 40.0666 137.803 41.2525V47.6804C137.803 47.8661 137.644 47.9867 137.448 47.9476C136.683 47.7944 135.914 47.6478 135.145 47.5045C134.949 47.4687 134.79 47.2862 134.79 47.1005C134.79 41.3111 134.79 36.1147 134.79 30.3253C134.79 28.8462 133.307 28.0676 133.307 28.0708C133.311 28.0708 133.317 28.0741 133.32 28.0741C133.314 28.0708 133.307 28.0708 133.307 28.0708C134.679 28.3119 136.047 28.5693 137.416 28.8429C137.614 28.8853 137.774 29.0677 137.774 29.2534Z" fill="white"/>
<path d="M152.881 27.8883C151.607 27.5235 150.333 27.1683 149.053 26.8295C146.887 26.2561 145.124 27.5235 145.124 29.6085V50.5767C145.124 52.6651 146.887 54.7762 149.053 55.3496C150.33 55.6884 151.607 56.0403 152.881 56.4085C155.038 57.0275 156.778 55.8839 156.778 53.7956C156.778 46.8073 156.778 39.8157 156.778 32.8274C156.778 30.7456 155.038 28.5074 152.881 27.8883ZM152.425 51.3C152.425 51.4499 152.298 51.5346 152.145 51.4922C151.363 51.2707 150.581 51.0556 149.796 50.8439C149.64 50.8015 149.512 50.6451 149.512 50.4953C149.512 44.6831 149.512 39.4638 149.512 33.6549C149.512 32.1758 148.05 31.2799 148.05 31.2831C149.418 31.635 150.783 32.0031 152.145 32.3876C152.301 32.4332 152.425 32.5896 152.425 32.7394V51.3Z" fill="white"/>
<path d="M152.435 117.743C152.331 113.713 151.748 109.686 150.708 105.767C150.614 105.496 150.506 105.203 150.392 104.91C150.044 104.007 149.649 103.177 149.226 102.444C147.313 99.1302 144.528 97.3383 140.459 96.8073C139.191 96.6411 137.631 96.5466 136.174 96.5466L100.229 96.5955C97.167 96.5987 94.1925 97.2047 91.3842 98.3939L90.915 98.5926L93.87 93.4744C94.5639 92.3634 95.7563 91.6988 97.0725 91.6988H139.768C141.863 91.7411 143.684 92.1712 145.179 92.9824L145.518 93.1649L145.323 92.8325C144.593 91.5815 143.801 90.3435 142.971 89.1608C142.153 87.9945 140.814 87.2973 139.39 87.2973H97.4374L99.3205 84.0361C100.021 82.961 101.2 82.3159 102.477 82.3159H102.52C102.536 82.3159 102.549 82.3126 102.565 82.3159H137.253L137.067 82.1302C135.578 80.6478 133.975 79.2339 132.294 77.9274L132.213 77.8753C130.336 76.4222 128.352 75.093 126.316 73.9169C125.961 73.7116 125.609 73.5129 125.257 73.3109C121.628 71.3301 117.757 69.7825 113.747 68.7042C113.496 68.6585 113.225 68.6097 112.949 68.5673C107.697 67.7496 104.002 69.1538 100.963 73.1187C100.187 74.1286 99.3238 75.4351 98.594 76.6992L80.6622 107.852C79.1343 110.504 78.1699 113.384 77.7985 116.41L77.7366 116.915L74.7849 111.797C74.1659 110.641 74.1887 109.272 74.8468 108.138L96.1994 71.1541C97.2843 69.3557 98.5712 67.9939 100.021 67.1078L100.35 66.9058H99.9656C98.5126 66.9123 97.0432 66.9774 95.6032 67.1045C94.1827 67.2283 92.9121 68.0395 92.1987 69.271L71.2174 105.613L69.3376 102.352C68.7642 101.228 68.7838 99.9186 69.3897 98.8207L69.5005 98.6284L86.8133 68.639L86.5624 68.7074C84.5262 69.258 82.4997 69.9454 80.5384 70.7436L80.4537 70.7795C78.8313 71.4441 77.2186 72.1999 75.6613 73.0307L75.6352 73.0437C75.0977 73.3304 74.5894 73.6139 74.0747 73.9071L73.8564 74.0342C70.0153 76.2756 66.4804 78.9895 63.3462 82.1009C63.1573 82.3191 62.9553 82.5602 62.7565 82.8078C59.4237 86.9454 58.7916 90.8517 60.704 95.4617C61.1927 96.6378 61.8899 98.0388 62.6197 99.3028L80.6199 130.416C81.6103 132.13 82.8223 133.707 84.2167 135.101C84.9464 135.831 85.7479 136.528 86.595 137.17L86.999 137.476L81.1672 137.473C79.8478 137.45 78.6228 136.727 77.9679 135.583L56.6251 98.6154C55.6086 96.7747 55.071 94.9763 55.0254 93.2756L55.0156 92.8879L54.8234 93.2235C54.1034 94.4908 53.4258 95.7973 52.8165 97.1135C52.2171 98.4037 52.2855 99.9088 52.9957 101.14L73.9737 137.473H70.2987C68.9857 137.437 67.7673 136.707 67.1222 135.567L49.7606 105.499L49.6921 105.754C49.135 107.848 48.705 109.995 48.415 112.133C48.1023 114.465 47.9426 116.827 47.9426 119.154C47.9426 119.629 47.9459 120.102 47.9491 120.571C48.0534 124.601 48.6333 128.628 49.6759 132.547C49.7703 132.817 49.8779 133.111 49.9919 133.407C51.9108 138.362 54.9733 140.861 59.9254 141.513C61.1895 141.679 62.75 141.774 64.2096 141.774L100.155 141.741C102.132 141.741 104.103 141.48 106.012 140.969C107.009 140.702 108.013 140.356 108.993 139.943L109.459 139.744L106.514 144.846C105.823 145.957 104.628 146.621 103.318 146.621H60.6095C58.5147 146.579 56.6935 146.149 55.2013 145.338L54.8625 145.155L55.058 145.488C55.7878 146.735 56.5795 147.973 57.4102 149.159C58.228 150.326 59.567 151.023 60.9907 151.023H102.943L101.06 154.284C100.363 155.362 99.1804 156.004 97.9033 156.004H97.8642C97.8447 156.004 97.8317 156.004 97.8154 156.004H63.1279L63.3136 156.19C64.8025 157.672 66.4054 159.086 68.0865 160.393L68.168 160.445C70.0446 161.895 72.0287 163.227 74.0681 164.403C74.42 164.605 74.7686 164.804 75.1172 165.003C78.7498 166.987 82.6235 168.538 86.6406 169.616C86.8882 169.662 87.1619 169.71 87.4388 169.753C92.6906 170.571 96.3851 169.166 99.4248 165.201C100.2 164.188 101.064 162.885 101.793 161.621L119.725 130.468C121.253 127.816 122.217 124.936 122.589 121.91L122.651 121.405L125.606 126.526C126.221 127.683 126.199 129.048 125.544 130.178L104.191 167.159C103.103 168.958 101.816 170.323 100.366 171.209L100.037 171.411H100.425C101.875 171.405 103.341 171.339 104.787 171.212C106.208 171.089 107.478 170.277 108.192 169.043L129.173 132.7L131.056 135.961C131.646 137.115 131.607 138.47 130.949 139.587C130.939 139.607 130.932 139.62 130.923 139.633L113.581 169.671L113.835 169.603C115.871 169.049 117.901 168.365 119.868 167.56L119.943 167.528C121.566 166.863 123.172 166.107 124.723 165.283L124.794 165.247C125.316 164.97 125.83 164.683 126.322 164.4L126.528 164.283C130.375 162.038 133.913 159.324 137.054 156.206C137.243 155.988 137.442 155.747 137.644 155.499C140.977 151.358 141.612 147.455 139.696 142.845C139.208 141.669 138.51 140.268 137.781 139.004C132.004 128.996 121.015 110.044 119.771 107.897C118.243 105.258 116.229 102.984 113.783 101.14L113.375 100.834H119.227C120.543 100.857 121.771 101.58 122.426 102.72L143.772 139.692C144.789 141.532 145.326 143.331 145.372 145.031L145.381 145.419L145.574 145.084C146.297 143.82 146.971 142.51 147.581 141.194C148.18 139.903 148.112 138.398 147.401 137.167L126.414 100.844H130.089C131.402 100.88 132.62 101.606 133.265 102.75L150.627 132.817L150.692 132.563C151.249 130.465 151.679 128.312 151.972 126.171C152.285 123.842 152.441 121.483 152.441 119.16C152.441 118.684 152.438 118.215 152.435 117.743ZM148.558 120.427L137.263 100.867L137.572 100.88C138.416 100.916 139.221 100.984 139.895 101.072C143.27 101.515 145.026 102.975 146.375 106.464C147.818 110.194 148.551 114.68 148.555 119.792L148.558 120.427ZM109.264 103.45C113.46 105.874 116.464 109.797 117.725 114.495C118.132 116.016 118.34 117.59 118.347 119.167C118.347 124.005 116.448 128.569 113.001 132.016C111.886 133.13 110.629 134.098 109.267 134.893C106.537 136.47 103.413 137.3 100.226 137.3C97.0302 137.3 93.8797 136.463 91.117 134.88C86.9208 132.456 83.9169 128.536 82.6561 123.838C82.2489 122.317 82.0404 120.743 82.0338 119.167C82.0338 114.329 83.9332 109.764 87.3801 106.317C88.4944 105.203 89.7519 104.235 91.1138 103.444C93.896 101.838 97.0204 101.036 100.155 101.036C103.295 101.03 106.449 101.838 109.264 103.45ZM112.284 72.8124C116.089 73.4054 120.015 74.9236 124.638 77.5886L125.189 77.9046H102.881L103.048 77.644C103.5 76.9337 103.96 76.2691 104.377 75.7283C106.446 73.0275 108.589 72.2358 112.284 72.8124ZM64.669 93.8197C63.3658 90.6758 63.7502 88.4245 66.0992 85.5119C68.5133 82.5146 71.7908 79.8724 76.4139 77.2009L76.9645 76.8816L65.8092 96.2013L65.6659 95.9243C65.2717 95.1783 64.9296 94.4485 64.669 93.8197ZM63.1149 137.46L62.8054 137.447C61.9616 137.411 61.1569 137.343 60.4825 137.255C57.1072 136.812 55.3512 135.352 54.0024 131.863C52.5591 128.129 51.8261 123.646 51.8228 118.535V117.899L63.1149 137.46ZM97.4993 160.419L97.3332 160.679C96.8771 161.393 96.4177 162.058 96.0039 162.595C94.3196 164.794 92.6287 165.69 90.169 165.69C89.5402 165.69 88.8625 165.632 88.0936 165.511C84.2883 164.918 80.3625 163.4 75.7395 160.735L75.1889 160.419H97.4993ZM123.42 161.442L134.575 142.122L134.718 142.399C135.109 143.152 135.454 143.881 135.715 144.507C137.022 147.651 136.634 149.902 134.285 152.815C131.871 155.815 128.593 158.454 123.97 161.126L123.42 161.442Z" fill="white"/>
<path d="M89.6672 113.511V126.559C89.6672 127.8 90.6739 128.807 91.9152 128.807H93.3552C93.4758 128.807 93.5735 128.709 93.5735 128.589V122.571H97.9489C98.0695 122.571 98.1672 122.474 98.1672 122.353V118.675C98.1672 118.554 98.0695 118.457 97.9489 118.457H93.5735V113.511C93.5735 113.166 93.8537 112.882 94.2023 112.882H103.308C103.373 112.882 103.403 112.967 103.351 113.006L101.494 114.404C100.914 114.84 100.562 115.515 100.533 116.238V123.415C100.533 126.377 102.833 128.905 105.791 129.016C108.902 129.133 111.473 126.637 111.473 123.549V121.327C111.473 121.206 111.375 121.109 111.254 121.109H107.781C107.661 121.109 107.563 121.206 107.563 121.327V123.549C107.563 124.481 106.745 125.223 105.794 125.1C105.006 124.999 104.436 124.288 104.436 123.493V114.511C104.436 113.693 105.032 112.964 105.846 112.885C106.778 112.797 107.563 113.527 107.563 114.443V116.854C107.563 116.974 107.661 117.072 107.781 117.072H111.254C111.375 117.072 111.473 116.974 111.473 116.854V114.443C111.473 111.423 109.023 108.973 106.003 108.973H94.2056C91.6969 108.979 89.6672 111.009 89.6672 113.511Z" fill="white"/>
<defs>
<linearGradient id="paint0_linear_8997_2138" x1="100.19" y1="1.42446" x2="100.19" y2="195.121" gradientUnits="userSpaceOnUse">
<stop stop-color="#F9A51A"/>
<stop offset="0.00578541" stop-color="#F9A31A"/>
<stop offset="0.1127" stop-color="#F47B1E"/>
<stop offset="0.1978" stop-color="#F16321"/>
<stop offset="0.25" stop-color="#F05A22"/>
<stop offset="0.55" stop-color="#EC1C24"/>
<stop offset="0.5828" stop-color="#DA2E33"/>
<stop offset="0.6488" stop-color="#AB5E58"/>
<stop offset="0.65" stop-color="#AA5F59"/>
<stop offset="0.8327" stop-color="#0F8AC8"/>
<stop offset="0.85" stop-color="#008ED3"/>
<stop offset="0.8631" stop-color="#007BC4"/>
<stop offset="0.8809" stop-color="#006AB6"/>
<stop offset="0.9025" stop-color="#005DAC"/>
<stop offset="0.9316" stop-color="#0056A7"/>
<stop offset="1" stop-color="#0054A5"/>
</linearGradient>
</defs>
</svg>
