<svg width="200" height="200" viewBox="0 0 200 200" fill="none" xmlns="http://www.w3.org/2000/svg">
<path d="M183.797 96.4417C180.287 94.9617 171.527 92.2118 162.477 89.7318C162.584 86.0586 162.674 82.0486 162.574 77.972C168.577 70.3455 171.317 64.4689 170.717 60.5023C170.397 58.3857 169.237 57.4557 168.891 57.2191L167.787 56.4724L166.564 57.0024C163.144 58.489 159.698 59.649 155.768 60.629C150.548 58.579 145.451 56.8991 140.568 55.6224C143.918 43.7526 144.318 35.6161 141.751 31.4095C140.458 29.2896 138.838 28.8462 138.371 28.7629L137.071 28.5262L136.168 29.4896C127.535 38.6794 118.805 43.9726 114.272 46.3459C113.812 43.4126 112.762 38.6594 110.665 30.7762C108.475 22.5363 105.282 11.6965 103.448 7.37327L103.265 6.93662L103.105 6.77662C102.925 6.30663 102.725 5.92997 102.485 5.61997C101.975 4.78999 101.079 4 99.9119 4H99.9019C98.5786 4 97.6119 4.99665 97.1486 5.92663L96.5186 7.19661C94.7153 11.2832 91.702 22.0064 89.5121 30.8229C87.5388 38.7761 86.5554 43.586 86.1388 46.5693C81.5889 44.2026 72.6223 38.7894 63.8558 29.1562L62.9492 28.1562L61.6225 28.4029C61.1592 28.4862 59.5459 28.9296 58.2526 31.0462C55.6693 35.2695 56.0393 43.4526 59.3526 55.4058C54.266 56.7291 49.2361 58.3657 44.3562 60.2857C40.5729 59.159 37.153 57.9357 33.9164 56.5524L32.7297 56.0458L31.6464 56.7458C31.2931 56.9757 30.1098 57.8857 29.7564 59.999C29.1064 63.8656 31.6631 69.5922 37.3596 77.0287C37.1596 81.4586 37.2463 85.8419 37.3596 89.8552C28.5931 92.2818 19.9699 95.0284 16.2767 96.5784C14.67 97.1184 12.8101 98.1717 12.8101 100.165C12.8101 102.158 14.7534 103.018 15.5867 103.365C15.7033 103.415 15.8133 103.458 15.9033 103.502L16.0433 103.565C19.9799 105.225 30.6897 108.192 39.3096 110.395C39.7729 113.281 40.3229 116.141 40.9729 119.068C33.3297 125.851 29.4131 131.421 29.3364 135.634C29.2931 137.894 30.3464 139.051 30.6664 139.351L31.6597 140.274L32.9664 139.914C37.2063 138.744 41.6562 138.014 46.2128 137.738C49.1894 145.991 52.8894 153.701 57.226 160.674L57.7459 161.511L58.7026 161.747C69.1257 164.341 79.3422 165.981 89.1021 166.624C91.512 176.58 94.7886 188.52 96.7686 192.92L97.3519 194.08C97.8186 195.007 98.7852 196 100.105 196C101.285 196 102.182 195.21 102.692 194.377C102.928 194.063 103.128 193.69 103.308 193.217L103.458 193.067L103.642 192.64C105.512 188.313 108.995 176.707 111.478 166.597C120.962 165.934 130.778 164.374 140.695 161.957L141.648 161.724L142.171 160.894C146.248 154.434 149.974 146.761 153.254 138.068C156.521 138.281 161.131 138.874 166.704 140.361L168.004 140.708L168.987 139.788C169.307 139.488 170.347 138.338 170.317 136.081C170.261 131.834 166.377 126.178 158.774 119.255C159.408 116.351 159.964 113.348 160.431 110.285C169.784 107.985 180.07 104.978 184.007 103.365L184.317 103.232C185.25 102.842 187.19 102.032 187.19 99.9817C187.19 98.505 186.11 97.375 183.797 96.4317" fill="white"/>
<path d="M182.867 98.6852C179.081 97.0886 169.171 94.0386 159.994 91.572C160.134 86.9121 160.278 82.1055 160.124 77.1522C172.051 62.2858 167.534 59.2292 167.534 59.2292C163.168 61.1259 159.234 62.2958 155.594 63.1758C149.768 60.8525 143.648 58.8192 137.528 57.3693C145.075 32.4564 137.938 31.153 137.938 31.153C126.302 43.5462 114.508 49.0894 112.035 50.1127C113.345 48.3627 104.425 15.8966 101.212 8.32677C101.212 8.32677 101.069 8.18011 100.922 7.89011C100.775 7.45345 100.632 7.16013 100.485 7.0168C100.339 6.7268 100.049 6.43347 99.902 6.43347C99.7553 6.43347 99.4654 6.7268 99.3187 7.0168C99.172 7.30679 99.0287 7.60012 98.7387 8.18344C95.3954 15.76 86.5489 50.866 88.5889 50.4294H88.4422C88.4422 50.2827 88.2955 50.2827 88.2955 50.2827C88.2955 50.2827 75.0358 45.0528 62.0593 30.7931C62.0593 30.7931 54.9261 32.113 62.3793 57.1526C56.2628 58.6159 50.2929 60.5159 44.473 62.8525C40.9764 61.8358 37.0431 60.5292 32.9632 58.7859C32.9632 58.7859 28.4499 61.7025 39.8264 76.2556C39.5397 81.4988 39.6931 86.7421 39.8431 91.692C30.6699 94.1786 20.9167 97.2452 17.1301 98.8519C17.1301 98.8519 15.2368 99.4652 15.2368 100.165C15.2368 100.722 16.4035 101.038 16.9868 101.328C20.7734 102.925 31.6999 105.972 41.4597 108.438C42.0464 112.372 42.7763 116.155 43.6563 119.942C27.9433 133.501 32.3165 137.575 32.3165 137.575C38.1398 135.968 43.5297 135.378 47.8963 135.228C50.9629 144.108 54.7595 152.114 59.2827 159.391C69.7692 162.001 80.4057 163.737 91.0355 164.307C93.5221 174.791 97.0321 187.604 98.9287 191.824L99.512 192.987C99.6587 193.277 99.952 193.57 100.095 193.57C100.239 193.57 100.532 193.28 100.679 192.987C100.825 192.84 100.969 192.55 101.115 192.114C101.259 191.824 101.405 191.677 101.405 191.677C103.295 187.304 107.069 174.631 109.532 164.287C119.725 163.694 129.918 162.081 140.111 159.594C144.618 152.454 148.398 144.294 151.591 135.551C155.961 135.691 161.351 136.415 167.321 138.011C167.321 138.011 171.687 133.928 156.088 120.108C156.958 116.322 157.681 112.388 158.261 108.308C168.018 105.968 179.081 102.752 183.011 101.145C183.701 100.835 184.757 100.495 184.757 99.9785C184.757 99.4619 182.864 98.6685 182.864 98.6685" fill="#F05023"/>
<path d="M154.031 95.0752C154.447 87.882 154.367 81.7254 154.241 77.0322C160.167 72.5789 159.391 71.9123 159.391 71.9123C158.924 71.519 156.884 72.0389 154.077 73.0423C154.054 72.6123 154.034 72.2056 154.024 71.8156C160.631 66.4657 158.801 65.7957 158.801 65.7957C157.981 65.2624 155.724 65.7957 152.797 66.9057L151.521 66.5324C144.481 64.4357 137.888 62.8024 131.444 61.5825C134.598 55.4292 137.514 48.8727 135.918 48.3427C135.001 47.9394 129.761 52.9459 125.495 60.5658C125.271 60.5325 125.045 60.5025 124.821 60.4691C128.054 54.2393 131.141 47.436 129.508 46.896C128.564 46.4794 123.038 51.7293 118.711 59.6892C114.768 59.2625 110.811 58.9825 106.772 58.8392C106.865 45.3027 105.238 37.0162 103.718 37.0196C103.718 37.0196 100.492 36.8029 100.188 58.7258C100.112 58.7258 100.035 58.7258 99.955 58.7258C99.6583 58.7258 99.365 58.7325 99.0683 58.7358C99.1817 45.2661 97.635 37.0296 96.0017 37.0329C96.0017 37.0329 92.7618 36.8162 92.4684 58.8892C88.9285 59.0358 85.4452 59.2892 81.9786 59.6525C77.6954 51.746 72.1921 46.5427 71.2555 46.9594C69.6355 47.5027 72.6855 54.2159 75.9087 60.4058C75.6487 60.4425 75.3854 60.4791 75.1254 60.5191C70.8888 52.9659 65.7156 48.016 64.7056 48.4227C63.1989 48.9527 66.1056 55.3992 69.2588 61.5025C62.539 62.7491 55.6557 64.4424 48.2659 66.6424L47.1026 67.0057C44.1859 65.9124 41.9427 65.3857 41.126 65.9191C41.126 65.9191 39.1694 66.589 45.8726 71.9089C45.8559 72.2989 45.8393 72.7123 45.8259 73.1489C43.0426 72.1556 41.016 71.6423 40.5527 72.0389C40.5527 72.0389 39.7727 72.7156 45.6893 77.2222C45.4826 82.0521 45.3126 88.1853 45.6359 95.2752C32.1695 96.5785 32.8595 97.9718 32.8595 97.9718C33.0695 99.1418 38.6927 99.3951 45.8693 99.2285C45.8759 99.3285 45.8826 99.4285 45.8893 99.5251C34.0995 100.942 35.3394 102.045 35.3394 102.045C35.4728 103.225 40.0827 103.482 46.2092 103.308C46.7659 109.072 47.6926 115.288 49.1825 121.818C40.0694 125.305 39.736 127.238 39.736 127.238C39.736 127.238 41.2393 128.358 50.3192 126.388C50.4625 126.925 50.6025 127.465 50.7558 128.005C46.1692 129.611 42.7493 131.098 42.9493 131.895C42.9493 131.895 43.5893 132.928 51.6192 130.975C53.9591 138.711 57.1424 146.754 61.469 154.884L62.199 156.341L63.8023 156.631C77.0554 159.241 90.3118 160.827 100.068 160.817C109.825 160.807 123.078 159.194 136.328 156.557L137.928 156.264L138.654 154.808C142.731 146.634 145.754 138.551 148.011 130.788C156.377 132.841 156.981 131.778 156.981 131.778C157.237 130.958 153.627 129.421 148.851 127.771C148.991 127.245 149.141 126.715 149.277 126.191C158.774 128.268 160.327 127.111 160.327 127.111C160.327 127.111 159.981 125.111 150.394 121.531C151.844 115.035 152.784 108.858 153.381 103.148C160.027 103.358 165.151 103.122 165.251 101.908C165.251 101.908 166.704 100.742 153.744 99.2985C153.751 99.2285 153.757 99.1585 153.761 99.0885C161.421 99.2951 167.56 99.0685 167.724 97.8252C167.724 97.8252 168.45 96.3685 154.037 95.0719M129.754 64.8091C135.661 65.8757 141.598 67.289 147.737 69.0523C141.611 71.8623 134.581 75.6822 130.861 77.7488C130.148 75.0856 128.538 72.8523 126.225 71.199C127.015 69.8157 128.328 67.4824 129.754 64.8091ZM106.715 62.3324C110.235 62.4558 113.651 62.7091 117.035 63.0391C116.318 64.6291 115.675 66.3024 115.128 68.029C115.071 68.029 115.021 68.0223 114.965 68.0223L106.472 68.0324C106.585 66.0557 106.665 64.1524 106.715 62.3291M92.4518 62.3858C92.4518 64.1491 92.4718 66.0324 92.5084 68.049L85.5486 68.0557C85.0086 66.3024 84.3686 64.6091 83.6486 62.9991C86.5385 62.7258 89.4618 62.5091 92.4518 62.3858ZM70.9588 64.7224C72.3655 67.3324 73.6688 69.6457 74.4854 71.0723C71.9888 72.7789 70.1188 75.1156 69.1688 77.8555C65.4622 75.8022 58.3624 71.9623 52.1925 69.149C58.5757 67.2924 64.7656 65.8224 70.9588 64.7224ZM49.0225 94.9752C48.7359 88.9887 48.8059 83.7021 48.9459 79.3588C54.9624 82.6521 64.4089 85.2054 68.5289 86.2254L68.5355 93.1619C63.3256 93.6819 56.1924 94.3619 49.0225 94.9719M49.6225 103.172C55.9324 102.868 63.1523 102.238 68.6889 101.708L68.7022 114.095V114.385C68.7455 114.885 68.8222 115.375 68.9255 115.858C61.8423 117.641 56.4791 119.241 52.4158 120.641C51.0392 114.498 50.1625 108.628 49.6225 103.172ZM142.481 136.841C137.904 135.428 122.338 131.368 100.035 131.391C77.0954 131.415 61.1857 135.745 57.1957 137.044C56.3491 134.711 55.5957 132.401 54.9058 130.111C59.4523 128.858 65.7222 126.871 74.3621 123.775C77.1487 125.731 80.752 126.898 84.7386 126.895L115.031 126.865C119.311 126.858 123.005 125.755 125.801 123.811C134.108 126.751 140.214 128.675 144.688 129.911C144.021 132.198 143.298 134.505 142.481 136.844M147.144 120.378C143.134 119.028 137.891 117.491 131.074 115.788C131.288 115.058 131.324 114.228 131.328 113.305V110.248L131.318 104.132V101.622C136.621 102.118 143.661 102.708 149.957 103.012C149.387 108.425 148.497 114.255 147.144 120.381M150.627 94.7686C143.444 94.1252 136.358 93.4752 131.308 93.0119L131.301 86.1654C135.434 85.1421 144.921 82.5721 150.877 79.2688C150.964 83.5821 150.967 88.8187 150.631 94.7686" fill="white"/>
<path d="M98.1486 140.441L98.142 134.901C94.112 134.944 90.3188 135.111 86.7888 135.361C88.2721 136.807 89.1921 138.791 89.4621 140.884C92.2654 140.637 95.1654 140.487 98.1486 140.441ZM113.275 135.337C109.715 135.087 105.878 134.931 101.789 134.897L101.795 140.454C104.769 140.491 107.672 140.631 110.482 140.871C110.752 138.777 111.688 136.791 113.278 135.337H113.275ZM113.995 141.214C121.102 142.047 127.515 143.514 132.815 145.484C134.781 146.241 136.605 147.067 138.251 147.964C139.378 145.287 140.351 143.011 141.468 140.121C139.741 139.591 136.248 138.607 131.205 137.624C127.858 136.971 123.852 136.351 119.268 135.864C116.112 136.571 114.408 138.661 113.995 141.217V141.214ZM110.702 144.387C107.835 144.131 104.855 143.974 101.795 143.934L101.809 157.424C101.912 157.424 102.019 157.42 102.122 157.417C102.985 157.4 103.855 157.37 104.725 157.344C109.318 157.134 114.185 156.647 119.018 156.004C115.492 152.38 111.782 148.731 110.702 144.391V144.387ZM121.905 153.944C122.365 154.434 122.832 154.914 123.298 155.39C127.598 154.734 131.781 153.977 135.595 153.2C135.955 152.48 136.291 151.76 136.635 151.041C135.141 150.214 133.438 149.421 131.511 148.687C126.858 146.971 121.025 145.614 114.482 144.791C115.702 147.561 118.642 150.791 121.908 153.94L121.905 153.944ZM95.382 157.35C96.212 157.374 97.042 157.4 97.8653 157.417L98.1686 157.424L98.1553 143.937C95.0987 143.987 92.1221 144.154 89.2555 144.421C88.2055 148.761 84.6089 152.414 81.0989 156.04C85.9355 156.674 90.8021 157.147 95.382 157.347V157.35ZM85.5322 144.834C79.0056 145.671 73.1691 147.034 68.4491 148.754C66.4992 149.501 64.7859 150.311 63.2959 151.154C63.6526 151.86 64.0026 152.567 64.3792 153.274C68.2558 154.044 72.4891 154.794 76.819 155.44C77.2857 154.96 77.7556 154.48 78.2123 153.987C81.3589 150.834 84.2589 147.601 85.5288 144.834H85.5322ZM67.2792 145.554C72.5124 143.564 78.9223 142.074 86.0888 141.227C85.6622 138.674 83.9522 136.591 80.7823 135.897C76.1423 136.394 72.0891 137.024 68.7258 137.687C63.9992 138.621 60.2426 139.647 58.386 140.207C59.4026 142.801 60.536 145.414 61.7726 148.037C63.4359 147.137 65.2825 146.311 67.2792 145.551V145.554ZM71.9091 114.091C72.4991 119.771 78.3256 123.551 84.7355 123.544L115.028 123.511C121.292 123.504 126.675 120.878 127.835 115.198C127.978 114.471 128.125 113.741 128.125 112.868L128.115 104.131H127.678C124.038 104.131 120.835 105.011 118.215 107.055C115.742 108.805 114.872 110.701 114.872 110.701L85.5988 110.731L85.5855 97.4781L85.5722 84.225L114.845 84.195L114.998 90.7482C121.698 90.7416 127.958 87.8216 127.951 81.2684V80.9784C127.945 74.2785 121.678 71.3719 114.978 71.3786L84.6855 71.4085C78.279 71.4152 72.4557 75.2085 71.8791 81.0351L71.8958 97.4914L71.9124 114.094L71.9091 114.091Z" fill="#0A2240"/>
</svg>
