<svg width="200" height="200" viewBox="0 0 200 200" fill="none" xmlns="http://www.w3.org/2000/svg">
<path d="M89.0856 93.3174C95.2792 91.4443 89.1467 104.293 81.1014 103.55C82.1526 99.3032 85.0889 94.5305 89.0856 93.3174Z" fill="white"/>
<path d="M186.387 83.8239C185.229 80.9883 182.396 79.1886 179.341 79.3505C179.341 79.3505 178.821 79.378 178.418 79.3994C178.919 78.1191 179.173 76.8236 179.173 75.5128C179.173 72.72 178.024 70.7491 177.336 69.8233C176.092 68.1397 174.333 66.9786 172.362 66.3797C159.4 36.9119 129.914 16.29 95.7069 16.29C49.5497 16.29 12 53.8336 12 99.9969C12 109.888 13.7264 119.384 16.8919 128.203C15.7858 130.488 15.1656 132.997 15.1319 135.542C15.1319 140.294 17.0906 144.852 20.6564 148.314C23.6172 151.193 27.4153 153.044 31.525 153.665C46.8883 172.016 69.9547 183.698 95.7069 183.698C137.672 183.698 172.527 152.659 178.503 112.323C185.571 106.597 187.569 99.7402 187.936 94.7383C187.982 94.0997 188 93.4825 188 92.8836C188 87.9275 186.579 84.2853 186.387 83.8269V83.8239Z" fill="#002D62"/>
<path d="M167.632 97.5128H172.878C172.909 98.3317 172.93 99.1628 172.93 99.9939C172.93 142.567 138.283 177.208 95.707 177.208C91.475 177.208 87.3256 176.856 83.277 176.203C81.3214 176.74 79.2619 177.037 77.1353 177.037C69.5636 177.037 62.8475 173.376 58.6645 167.726C34.7395 154.591 18.4808 129.15 18.4808 99.9939C18.4808 57.4056 53.1247 22.7739 95.707 22.7739C130.268 22.7739 159.605 45.5989 169.419 76.9764H163.907C163.907 76.9764 154.187 93.0609 167.632 97.5128Z" fill="#FFD520"/>
<path d="M164.46 94.8666V86.4883H167.873C161.518 52.4402 131.579 26.578 95.707 26.578C55.2239 26.578 22.2881 59.5138 22.2881 99.9908C22.2881 140.468 55.2239 173.404 95.707 173.404C136.19 173.404 169.12 140.468 169.12 99.9908C169.12 98.2674 169.059 96.5563 168.943 94.8636H164.46V94.8666Z" fill="#E03A3E"/>
<path d="M95.7069 29.1752C56.6539 29.1752 24.8853 60.9438 24.8853 99.9969C24.8853 139.05 56.6569 170.816 95.7069 170.816C134.757 170.816 166.526 139.041 166.526 99.9969C166.526 60.953 134.757 29.1752 95.7069 29.1752Z" fill="#002D62"/>
<path d="M95.7069 149.326C83.9461 149.326 73.1386 145.186 64.6502 138.292H60.6414C69.8875 146.768 82.2014 151.948 95.7039 151.948C118.789 151.948 138.399 136.801 145.152 115.938H142.39C135.747 135.334 117.331 149.326 95.7069 149.326Z" fill="#E03A3E"/>
<path d="M48.8042 84.707C55.2514 64.962 73.8384 50.662 95.707 50.662C121.355 50.662 142.491 70.3428 144.819 95.4015H147.45C145.118 68.9006 122.801 48.0464 95.7039 48.0464C72.3748 48.0464 52.587 63.5014 46.045 84.707H48.8012H48.8042Z" fill="#E03A3E"/>
<path d="M39.7402 63.8336L38.2887 66.1801L47.3136 71.7627L48.7651 69.4162L39.7402 63.8336Z" fill="#FFD520"/>
<path d="M47.6064 53.6198L49.672 51.7956L57.757 53.2989L57.7784 53.2806L53.4762 48.4253L55.5417 46.595L62.5787 54.5364L60.5131 56.3636L52.4159 54.8481L52.3945 54.8725L56.7089 59.7431L54.6403 61.5673L47.6064 53.6198Z" fill="#FFD520"/>
<path d="M70.2602 40.9483L70.8622 40.7039C72.5 40.0409 74.0614 40.5695 74.7764 42.3325C75.5464 44.2575 74.5747 45.6203 73.0469 46.2284L72.4755 46.4575L70.2602 40.9514M70.7858 49.6536L74.4158 48.1992C77.1444 47.0992 78.55 44.0314 77.4377 41.2661C76.3286 38.4917 73.2027 37.2481 70.4589 38.3481L66.8319 39.8117L70.7858 49.6536Z" fill="#FFD520"/>
<path d="M91.1939 44.1383L88.4439 44.4286L87.3378 33.8686L90.0786 33.5875L91.1939 44.1383Z" fill="#FFD520"/>
<path d="M107.312 41.1592L105.051 40.7589L106.765 37.6331L106.792 37.6392L107.312 41.1623M107.676 43.3684L108.036 45.3087L110.936 45.8189L108.852 34.6753L105.885 34.1498L100.012 43.8787L102.897 44.3951L103.939 42.7053L107.676 43.3684Z" fill="#FFD520"/>
<path d="M124.423 39.6375L126.813 41.0247L127.934 49.1678L127.955 49.1861L131.206 43.5639L133.593 44.9481L128.273 54.1361L125.887 52.755L124.781 44.5936L124.747 44.5783L121.493 50.2036L119.106 48.8225L124.423 39.6375Z" fill="#FFD520"/>
<path d="M142.228 62.2913L140.752 60.5405L144.067 59.2327L144.086 59.2541L142.231 62.2913M141.097 64.2286L140.135 65.9458L142.032 68.1886L147.56 58.2886L145.616 55.9877L134.882 59.7155L136.767 61.9522L138.65 61.3227L141.1 64.2286H141.097Z" fill="#FFD520"/>
<path d="M182.191 85.5413C181.764 84.4841 180.713 83.8241 179.579 83.8852H177.73C177.73 83.8852 176.426 84.1021 175.992 84.918C174.944 86.8735 170.143 92.7494 168.142 91.7074C165.914 90.5524 172.539 80.4935 172.539 80.4935C174.137 78.5349 174.635 76.8391 174.635 75.516C174.635 73.9974 174.009 72.9555 173.685 72.5185C172.224 70.5416 169.37 69.8816 166.901 70.9388C166.15 71.2596 164.918 71.1558 163.947 70.9571C163.659 68.8396 162.731 66.0927 160.436 64.8735C159.519 64.3877 157.695 63.7705 155.214 65.1944C153.481 66.1996 152.601 67.7152 152.369 69.5546C152.345 69.8144 152.326 70.0771 152.326 70.3369C152.326 72.2924 153.179 74.3152 154.652 75.7971C154.74 75.8858 154.841 75.9621 154.93 76.0446C154.184 77.8688 153.249 79.6716 152.345 81.2544C152.388 80.8571 152.427 80.463 152.427 80.0596C152.427 78.3271 151.914 76.5824 150.356 75.293C147.639 73.0227 144.098 73.4138 142.42 74.0066C138.139 75.4305 129.462 80.1971 126.177 89.1988C126.849 86.6169 126.589 84.8324 126.03 83.6591C125.352 82.2413 124.283 81.7158 124.283 81.7158C122.917 80.8388 121.19 80.7074 119.18 81.3644C114.398 82.9258 112.589 88.7588 112.589 88.7588C110.288 94.7049 113.124 98.5244 113.124 98.5244C113.017 98.7963 110.89 101.889 110.89 101.889L109.659 90.1063C109.466 88.2363 108.528 87.2555 107.783 86.7696C106.585 85.9813 105.173 86.0149 104.25 86.3113L97.4272 88.4869C96.3211 88.8413 95.5664 89.8741 95.5664 91.0352V93.7302C95.3556 93.4796 95.1203 93.2444 94.8483 93.0152C92.135 90.7541 88.5997 91.1391 86.9192 91.7288C83.6864 92.7983 80.3956 94.6897 77.67 96.9997C77.557 96.526 77.3217 96.086 76.9642 95.7285C76.2522 95.0196 75.2011 94.766 74.2447 95.0838C74.2447 95.0838 70.0647 96.4558 66.4225 97.6535C67.9106 92.5355 70.2022 87.9063 74.6695 85.3305C75.4975 84.8538 76.0078 83.9677 76.0078 83.0113C76.0078 82.9685 76.0017 82.828 76.0017 82.828C83.0325 81.0374 87.3225 77.2149 89.8433 73.8783C93.5497 68.9558 94.2861 64.018 94.3167 63.8071C94.4267 63.0127 94.1822 62.2152 93.6414 61.6255C93.1006 61.0358 92.3244 60.721 91.5269 60.7577L90.2283 60.8188C89.3697 60.8708 88.5814 61.323 88.117 62.0533C84.2089 68.1796 75.137 69.8816 64.632 71.8585C57.7417 73.1602 50.607 74.5016 43.8908 77.2669C25.307 84.9302 26.1258 96.7002 26.2847 98.0416C26.7278 104.755 32.9336 109.894 40.2058 109.509C41.5289 109.439 42.8214 109.182 44.0497 108.764C43.8664 109.359 43.735 110.053 43.735 110.847C43.735 112.1 44.062 113.57 45.0153 115.217C45.6478 116.295 46.9372 116.794 48.132 116.421L50.7628 115.599C47.1725 129.431 44.2728 132.252 44.1353 132.377C42.9131 133.544 40.5695 134.164 39.497 133.553C39.0447 133.303 38.7697 132.948 38.6933 132.536C38.6047 132.047 38.7881 131.5 39.2097 130.984C39.7628 130.324 40.6153 129.859 41.5595 129.706C42.6595 129.532 43.5333 128.692 43.7564 127.604C43.9795 126.516 43.5089 125.407 42.5739 124.805C40.1997 123.299 37.4375 122.459 34.5745 122.382C30.4647 122.257 26.4833 123.733 23.6631 126.443C21.1239 128.869 19.7 132.163 19.6511 135.567C19.6511 142.839 25.9731 149.008 33.8808 149.357C34.107 149.387 38.3114 149.861 43.3806 147.823C47.9914 145.962 54.3072 141.586 58.197 131.289C61.2861 124.371 62.597 116.949 63.862 109.76C63.862 109.76 63.9689 109.161 64.0697 108.58C65.3867 108.171 68.4575 107.193 70.8745 106.429C70.0342 108.705 69.6003 111.101 69.6003 113.591C69.6003 114.245 69.6308 114.936 69.692 115.602C69.7592 116.219 70.4467 121.692 74.7947 124.176C75.3845 124.518 76.0047 124.765 76.6464 124.958C57.7539 132.863 53.7328 142.24 53.4914 142.836C53.3661 143.157 53.302 143.496 53.302 143.826C53.302 144.529 53.5739 145.213 54.0903 145.727L56.9931 148.605C57.0481 148.663 57.1183 148.73 57.1947 148.81C56.7517 150.484 56.5133 152.241 56.5133 154.056C56.5133 165.435 65.7411 174.663 77.12 174.663C88.4989 174.663 97.7236 165.438 97.7236 154.056C97.7236 151.055 97.0758 148.211 95.9208 145.635C96.367 145.479 96.7703 145.21 97.082 144.847L97.9375 143.847C98.5975 143.059 98.6983 141.87 98.2889 140.923C98.2767 140.902 97.9986 140.159 98.7167 138.879C100.223 136.19 107.162 129.318 138.885 123.797C152.69 121.169 164.594 116.589 173.266 110.527C181.027 105.494 183.062 98.9766 183.398 94.4024C183.762 89.4677 182.246 85.6941 182.176 85.5383M54.0047 101.485C53.0545 101.785 51.9911 102.118 51.6825 102.212C52.5533 100.443 52.9628 98.4877 52.862 96.5016C52.7306 94.0144 51.8078 91.6646 50.1975 89.6908C49.5345 88.8871 48.465 88.5327 47.4536 88.8046C46.4422 89.0705 45.6783 89.8955 45.495 90.9221C45.3911 91.5271 45.0031 92.1046 44.4378 92.5202C43.8542 92.9449 43.1697 93.1313 42.5556 93.0335C42.2928 92.9938 41.9231 92.8502 41.7336 92.4958C41.4678 92.0008 41.6572 90.7877 42.69 89.8344C42.7236 89.8008 42.7695 89.761 42.8031 89.7213C42.8581 89.6694 47.86 84.9027 62.9117 83.9983C59.5475 87.3196 56.272 92.7249 54.0078 101.488L54.0047 101.485Z" fill="white"/>
<path d="M90.6775 120.255C93.1494 118.168 96.2294 114.963 99.4989 110.141C99.6517 111.581 100.061 116.793 100.165 118.037C95.2944 119.07 90.6775 120.255 90.6775 120.255Z" fill="#002D62"/>
<path d="M160.301 100.254C157.848 99.0283 156.17 97.0544 155.449 94.558C155.257 93.8736 155.141 93.1433 155.08 92.4252C151.388 98.0597 147.401 101.714 145.705 103.138C144.373 104.299 141.959 105.928 139.264 106.982C134.879 108.54 131.86 107.587 130.134 106.499C127.894 105.094 126.672 102.884 125.997 101.039C124.078 101.809 122.449 102.267 120.983 102.469C117.371 109.087 113.069 113.557 108.993 116.549C113.145 115.944 117.603 115.418 122.391 115.009C146.594 112.925 160.173 106.414 167.29 101.32C167.299 101.32 167.491 101.176 167.769 100.956C163.598 101.803 160.812 100.522 160.301 100.254Z" fill="#002D62"/>
<path d="M40.0806 106.841C45.9442 106.539 50.4695 101.971 50.1884 96.648C50.0845 94.665 49.3359 92.8653 48.1259 91.3925C47.9089 92.6239 47.1817 93.8247 46.0084 94.6803C43.8145 96.2844 40.9025 96.0339 39.5153 94.1303C38.235 92.3733 39.0814 89.5133 40.8812 87.8664C41.0614 87.6769 47.4048 81.2786 67.5073 81.1778C89.1712 81.08 91.6798 63.4341 91.6798 63.4341L90.3812 63.5075C83.0662 74.9597 61.9064 72.7475 44.9237 79.7508C27.3237 86.9986 28.9553 97.7633 28.9553 97.7633C29.2364 103.086 34.217 107.156 40.0806 106.847V106.841Z" fill="#E03A3E"/>
<path d="M73.3953 102.835L75.0881 97.6257L62.6703 101.699C64.4028 93.6046 66.9481 86.7021 73.3403 83.0141L73.267 81.6238C68.9923 82.0882 60.5131 85.3943 56.2384 103.584L52.3976 104.8C52.3976 104.8 43.6159 107.483 47.3406 113.872L48.5414 113.493C48.3489 112.974 47.7959 110.92 50.7078 110.01L55.172 108.598C50.2617 131.454 45.9106 134.39 45.9106 134.39C43.9489 136.251 40.4381 137.162 38.1923 135.884C35.7448 134.503 35.2864 131.542 37.1656 129.272C38.1678 128.065 39.6284 127.31 41.1531 127.06C39.2587 125.865 36.9731 125.12 34.5073 125.055C27.8676 124.857 22.4195 129.538 22.3401 135.524C22.2576 141.5 27.5742 146.512 34.2139 146.71C34.2139 146.71 48.8531 148.537 55.7251 130.32C59.1076 122.788 60.3237 114.321 61.7323 106.527L73.3923 102.835H73.3953Z" fill="#E03A3E"/>
<path d="M179.716 86.5525L178.1 86.5648C175.781 90.6531 170.25 96.1928 166.434 93.9225C161.814 91.1787 170.36 78.9534 170.36 78.9534C174.051 74.587 170.617 72.2587 167.959 73.3953C165.309 74.535 161.469 73.0225 161.469 73.0225C161.469 73.0225 161.31 65.0414 156.598 67.4828C154.083 68.7906 154.82 72.1731 156.549 73.9056C157.099 74.4495 157.671 74.7428 158.205 74.9017C156.534 80.0839 152.95 85.4831 151.715 87.2675C151.715 87.2675 143.612 98.1392 138.32 97.7787C136.257 97.635 135.472 95.4992 135.686 92.7309C139.264 93.1159 142.964 91.5912 145.937 88.3645C146.894 87.3225 147.786 86.0362 148.403 84.7956C148.663 84.4167 151.174 79.4453 148.654 77.3492C146.368 75.4425 143.306 76.5364 143.306 76.5364C138.751 78.0367 131.68 82.5773 128.872 89.602C128.301 91.1206 128.029 92.7645 127.903 94.1548C126.345 94.9828 122.761 96.8498 120.463 96.7825C122.498 93.0731 124.13 87.8878 123.864 85.6848C123.638 83.8606 122.098 83.2525 120.203 83.8606C118.184 84.5053 116.622 86.0912 115.519 88.612C114.606 90.7264 114.159 92.7706 114.474 94.7506C114.609 95.5787 115.091 97.1248 116.356 98.2523C114.279 102.111 111.614 105.537 108.886 108.473L107 90.3781C106.783 88.3125 105.063 88.8564 105.063 88.8564L98.2461 91.032V92.7187L98.8542 92.5262C98.8542 92.5262 100.303 92.0678 100.461 93.5986L100.822 97.0362C99.505 99.4867 90.0236 116.708 82.8095 115.498C80.7714 115.156 79.9647 113.221 80.1817 110.45C83.7597 110.841 87.457 109.31 90.4239 106.087C91.3834 105.039 92.2756 103.764 92.8959 102.515C93.1586 102.139 95.6672 97.1706 93.1464 95.0684C90.8609 93.1648 87.8022 94.2525 87.8022 94.2525C81.6545 96.2814 71.2686 103.141 72.3656 115.345C72.3656 115.345 73.5084 126.214 84.0897 121.401C84.0897 121.401 92.4742 118.416 101.332 101.919L102.936 117.313C108.192 114.624 114.465 109.457 119.314 99.9206C121.025 99.9206 123.424 99.4195 127.851 97.2898C127.861 97.4639 127.87 97.5587 127.87 97.5587C127.87 97.5587 128.951 107.804 138.323 104.467C140.627 103.563 142.766 102.148 143.951 101.118C146.744 98.7625 150.805 94.5245 154.114 88.8656C154.114 88.8656 157.09 83.8453 159.672 78.1345C160.253 78.3178 161.227 78.5806 162.324 78.6753C159.168 83.8728 154.16 94.2006 161.505 97.8673C161.505 97.8673 166.889 100.88 174.669 94.5306C174.149 99.89 168.814 103.514 168.814 103.514C159.959 109.839 145.234 115.721 122.614 117.664C64.4181 122.675 55.9817 143.823 55.9817 143.823L58.1664 145.983C61.3045 138.616 68.6134 133.449 77.1292 133.449C84.0684 133.449 90.1947 136.884 93.9256 142.133C94.3106 142.448 94.6895 142.775 95.0531 143.114L95.9056 142.109C95.9056 142.109 88.8717 129.789 138.411 121.16C153.234 118.343 164.185 113.616 171.766 108.314C185.097 99.7037 179.707 86.5464 179.707 86.5464M144.293 79.8212C150.664 77.887 144.354 91.1084 136.083 90.3445C137.162 85.972 140.187 81.0678 144.293 79.8212ZM88.7892 97.5403C95.16 95.6153 88.8503 108.828 80.5759 108.067C81.6514 103.697 84.6764 98.787 88.7892 97.5403ZM117.869 95.0439C117.646 94.72 117.469 94.3075 117.408 93.782C117.276 92.7217 117.444 91.6492 117.909 90.5889C118.281 89.7181 118.779 89.1253 119.403 88.7984C119.403 88.7984 119.73 88.6089 119.993 88.7006C120.264 88.7984 120.258 89.1436 120.258 89.1436C120.219 90.3292 119.024 92.572 117.869 95.0439Z" fill="#E03A3E"/>
<path d="M58.8112 154.056C58.8112 143.942 67.0153 135.738 77.1384 135.738C87.2614 135.738 95.4625 143.939 95.4564 154.056C95.4625 164.185 87.2553 172.383 77.1384 172.383C67.0214 172.383 58.8112 164.185 58.8112 154.056Z" fill="#002D62"/>
<path d="M74.1591 167.027C73.6366 165.875 73.5572 164.714 73.9208 163.577C72.2616 162.966 70.7064 162.251 69.3589 161.447C68.8486 163.864 68.7294 166.125 68.8486 168.188C68.9311 168.234 69.0105 168.276 69.09 168.322C71.6383 169.764 74.4127 170.44 77.1414 170.434C75.9375 169.544 74.7764 168.374 74.1591 167.027Z" fill="white"/>
<path d="M90.1886 144.174C90.9402 146.292 91.3894 148.666 90.983 150.912C90.5613 153.228 89.2627 155.098 87.1238 156.451C85.5441 157.463 83.6191 158.172 81.7552 158.856C78.7302 159.971 75.8641 161.026 74.8008 163.177C79.7874 164.909 85.538 165.664 89.0611 164.814C89.2749 164.769 89.4644 164.714 89.6172 164.662C90.2802 163.876 90.8761 163.03 91.3955 162.104C94.7016 156.244 94.005 149.216 90.1855 144.171L90.1886 144.174Z" fill="white"/>
<path d="M63.4495 159.889C64.2348 159.745 64.8948 159.247 65.4142 158.434C63.0125 155.987 62.2334 153.396 61.2739 149.989C60.4306 153.274 60.6445 156.69 61.7934 159.776C62.3556 159.929 62.9148 159.987 63.4495 159.889Z" fill="white"/>
<path d="M66.9787 149.882C67.2415 152.989 67.489 155.929 66.2454 158.324C66.9726 159.009 67.8495 159.687 68.919 160.387C70.0068 155.968 73.3159 146.294 82.4948 138.588C77.6487 136.905 72.3626 137.629 68.2009 140.339C67.4951 141.427 66.9543 142.75 66.8229 144.324C66.667 146.154 66.829 148.051 66.9818 149.882H66.9787Z" fill="white"/>
<path d="M68.76 161.077C67.6203 160.347 66.6822 159.638 65.9061 158.917C65.2919 159.827 64.5097 160.371 63.5747 160.552C63.095 160.637 62.5969 160.628 62.0989 160.542C63.3303 163.402 65.3897 165.939 68.1642 167.757C68.0755 165.706 68.2344 163.457 68.763 161.077H68.76Z" fill="#E03A3E"/>
<path d="M74.5533 163.797C74.2508 164.769 74.3211 165.762 74.7703 166.746C75.47 168.267 76.9397 169.538 78.2842 170.394C82.2044 170.11 85.9719 168.429 88.8014 165.557C85.1469 166.278 79.4789 165.505 74.5564 163.797H74.5533Z" fill="#E03A3E"/>
<path d="M69.5178 160.763C70.8806 161.591 72.4664 162.33 74.1653 162.954C75.3173 160.512 78.3362 159.403 81.5262 158.23C83.3564 157.557 85.2478 156.858 86.7664 155.889C88.7403 154.63 89.9381 152.916 90.3262 150.792C90.8303 148.039 89.9106 144.996 88.8045 142.567C87.7595 141.497 86.5464 140.569 85.1898 139.799C84.542 139.435 83.8881 139.123 83.222 138.851C73.8139 146.612 70.5475 156.479 69.5239 160.76L69.5178 160.763Z" fill="#E03A3E"/>
<path d="M65.7472 157.829C66.7922 155.639 66.5599 152.867 66.3094 149.94C66.1536 148.079 65.9916 146.157 66.1536 144.275C66.2452 143.147 66.5324 142.139 66.9388 141.25C65.3316 142.524 63.9413 144.125 62.878 146.017C62.3769 146.909 61.9674 147.819 61.6436 148.754L61.8299 149.479C62.8077 152.974 63.5105 155.483 65.7502 157.829H65.7472Z" fill="#E03A3E"/>
</svg>
