<svg width="200" height="200" viewBox="0 0 200 200" fill="none" xmlns="http://www.w3.org/2000/svg">
<path d="M186.324 70.6343L100.437 8L14.6738 70.6343L14.5601 104.929C14.5601 138.304 31.4232 163.516 50.3075 176.998C67.8375 189.519 86.5771 192 100.437 192C114.296 192 133.16 189.524 150.695 176.998C169.574 163.511 186.443 138.304 186.443 104.929L186.329 70.6343H186.324Z" fill="#2C5235"/>
<path d="M180.627 104.945L180.523 73.4568L100.437 14.8134L20.4068 73.4568L20.3034 104.945C20.2311 126.352 28.5024 146.503 43.5923 161.691C58.6667 176.858 79.2364 185.347 100.432 185.347C121.627 185.347 142.264 176.858 157.333 161.691C172.423 146.503 180.694 126.352 180.622 104.945H180.627ZM24.7131 75.6539L46.2288 59.9384C54.0917 67.6927 60.5898 77.7837 64.5962 88.495C66.0282 88.1952 67.4653 87.9212 68.8869 87.6628C64.7616 76.3518 57.9947 65.6508 49.7544 57.364L100.437 20.1638L151.176 57.364C142.936 65.6456 136.169 76.3518 132.043 87.6628C133.465 87.9212 134.902 88.1952 136.334 88.495C140.346 77.7889 146.839 67.6927 154.702 59.9384L176.217 75.6539L176.315 104.955H24.6149L24.7131 75.6539ZM154.272 158.651C145.856 150.209 139.069 139.105 135.269 127.489H130.72C134.618 140.175 141.969 152.386 151.145 161.613C137.285 174.093 118.97 181.02 100.437 181.025C81.9039 181.015 63.6502 174.087 49.7906 161.613C58.9614 152.38 66.3125 140.175 70.2155 127.489H65.6663C61.8667 139.105 55.079 150.209 46.663 158.651C33.491 145.396 25.8245 128.13 24.7699 109.633H176.186C175.126 128.135 167.465 145.396 154.293 158.651H154.272Z" fill="#FEE11A"/>
<path d="M98.9634 127.246H108.046L103.828 136.98H109.344L94.4193 159.364L98.3172 142.17H92.8013L98.9634 127.246Z" fill="#78BE20"/>
<path d="M104.386 70.6497C104.386 70.3291 103.528 70.2309 102.629 70.2051L100.432 36.1222L98.3277 70.2051C97.4282 70.2257 96.5701 70.3291 96.5701 70.6497L96.5597 74.2322H104.397L104.386 70.6497ZM148.235 97.459C137.218 91.3847 114.39 91.5295 114.405 87.0216C114.41 84.7522 119.063 82.4156 119.063 82.4156C119.063 82.4156 119.011 81.2886 117.615 80.6579C115.47 79.6809 109.887 78.7452 100.437 78.7452C92.3362 78.7452 85.4917 79.686 83.3463 80.6579C81.9506 81.2938 81.8989 82.4156 81.8989 82.4156C81.8989 82.4156 86.5515 84.7522 86.5566 87.0216C86.5721 91.5295 63.7382 91.3899 52.7271 97.459H148.1H148.235ZM62.4148 116.426L55.4204 121.234H145.536L138.542 116.426H62.4148ZM82.39 127.261L77.939 127.246L79.0711 132.162C81.5835 143.091 85.4245 161.861 86.8978 179.81C88.3246 180.068 89.7669 180.275 91.2196 180.451C89.5498 160.238 84.7576 137.611 82.4468 127.494L82.3951 127.256L82.39 127.261ZM117.662 131.309C115.005 142.543 110.9 161.975 109.344 180.498C110.817 180.327 112.28 180.115 113.728 179.862C115.32 161.934 119.28 143.21 121.86 132.302L123.023 127.391L118.567 127.375L117.662 131.304V131.309Z" fill="white"/>
</svg>
