<svg width="200" height="200" viewBox="0 0 200 200" fill="none" xmlns="http://www.w3.org/2000/svg">
<path d="M148.349 117.627C140.18 117.627 131.823 120.87 127.395 127.73H127.27L128.081 115.881C128.58 107.899 130.389 86.1335 141.489 86.1335C146.853 86.1335 145.605 93.243 146.229 96.4236C147.726 103.97 150.969 112.576 161.321 112.576C168.368 112.576 175.727 107.899 175.727 98.4192C175.727 83.7637 163.442 74.0973 148.537 74.0973C110.307 74.0973 94.9036 103.284 94.9036 138.644C94.9036 169.327 106.815 195.832 139.681 195.832C161.009 195.832 178.284 180.677 178.284 155.17C178.284 133.655 166.872 117.627 148.349 117.627ZM136.999 183.858C127.894 183.858 128.268 172.133 128.268 158.663C128.268 145.13 129.578 133.468 136.999 133.468C146.167 133.468 146.666 145.13 146.666 158.663C146.666 172.133 144.732 183.858 136.999 183.858Z" fill="#006BB6"/>
<path d="M22 73.4735V118.999C47.5069 122.741 78.0028 120.246 99.5184 88.7527C100.391 87.443 100.953 88.3785 100.391 89.501C94.4045 101.724 80.1232 113.075 67.8375 122.741C55.9883 132.033 24.3075 165.273 24.744 194.522C24.744 196.767 24.8687 196.143 26.802 194.709C36.4061 187.537 55.24 187.35 66.8397 192.9C68.4611 193.649 68.5859 193.399 68.3988 191.341C66.1537 168.641 71.2675 143.882 80.9963 129.539C87.6692 119.56 105.692 93.9289 108.811 73.7853C109.122 71.7273 108.062 72.0391 105.443 74.7831C85.0499 96.3611 48.1305 95.7998 24.3075 72.9746C22.8107 71.5402 22.1247 72.2262 22 73.4735Z" fill="#ED174C"/>
<path d="M66.216 4L67.7127 8.6773H72.6395L68.5858 11.546L70.0826 16.161L66.216 13.3546L62.3494 16.161L63.7838 11.546L59.7925 8.6773H64.7193L66.216 4ZM95.2776 20.963L96.7743 25.5779H101.763L97.7098 28.509L99.2065 33.0616L95.34 30.2552L91.411 33.0616L92.9078 28.509L88.8541 25.5779H93.8432L95.2776 20.963ZM82.8048 7.86656L84.3015 12.5439H89.2906L85.237 15.475L86.7337 20.0275L82.8672 17.1588L78.9382 20.0275L80.435 15.4126L76.4437 12.5439H81.3704L82.8048 7.86656ZM100.08 36.9905L101.514 41.6055H106.503L102.512 44.5366L103.946 49.0891L100.08 46.2828L96.2131 49.0891L97.7098 44.5366L93.6561 41.6055H98.5829L100.08 36.9905ZM97.9592 53.9535L99.456 58.5684H104.383L100.391 61.4995L101.888 66.0521L97.9592 63.2457L94.155 66.0521L95.5894 61.4372L91.5981 58.5684H96.5249L97.9592 53.9535ZM88.6047 67.4241L90.1014 72.1014H95.0281L91.0368 75.0325L92.4712 79.5851L88.667 76.7787L84.7381 79.5851L86.2348 75.0325L82.1812 72.1014H87.1703L88.6047 67.4241ZM73.9491 75.0325L75.4459 79.6475H80.3102L76.319 82.5786L77.8157 87.1311L73.9491 84.3248L70.0826 87.1311L71.5169 82.5786L67.5256 79.6475H72.4524L73.9491 75.0325ZM36.5931 19.4663L35.0964 24.0812H30.1696L34.1609 27.0123L32.7266 31.5649L36.5931 28.7585L40.5221 31.5649L39.0253 27.0123L43.079 24.0812H38.0899L36.5931 19.4663ZM48.7541 7.86656L47.3197 12.5439H42.3306L46.3843 15.475L44.8875 20.0275L48.7541 17.1588L52.683 20.0275L51.1863 15.4126L55.2399 12.5439H50.2508L48.7541 7.86656ZM30.918 34.9325L29.4836 39.5474H24.5569L28.5482 42.4162L27.1138 47.0311L30.918 44.2247L34.8469 47.0311L33.3502 42.4162L37.4039 39.5474H32.4771L30.918 34.9325ZM32.4771 51.8331L30.9804 56.4481H26.0536L30.0449 59.3792L28.6105 63.9941L32.4147 61.1254L36.3437 63.9941L34.8469 59.3792L38.8382 56.4481H33.9115L32.4771 51.8331ZM41.7693 65.6779L40.335 70.2929H35.4082L39.3995 73.224L37.9028 77.7765L41.7693 74.9702L45.6983 77.7765L44.2015 73.224L48.2552 70.2929H43.2661L41.7693 65.6779ZM56.4872 74.4089L55.0529 79.0862H50.0637L54.1174 82.0173L52.6207 86.5699L56.4872 83.7635L60.4161 86.5699L58.9194 81.9549L62.9107 79.0862H57.984L56.4872 74.4089Z" fill="#006BB6"/>
</svg>
