<svg width="200" height="200" viewBox="0 0 200 200" fill="none" xmlns="http://www.w3.org/2000/svg">
<path d="M192 100C192 150.83 150.772 192 100 192C49.2275 192 8 150.772 8 100C8 49.2275 49.2275 8 100 8C150.772 8 192 49.17 192 100Z" fill="white"/>
<path d="M33.5299 93.9049L15.8774 96.6649C17.6024 51.6424 54.6324 15.7625 100.057 15.7625V16.2225V43.535V51.7V56.185V60.785L100.46 60.9L101.725 56.1274H123.747L123.92 56.7024C123.69 58.3125 123.805 63.1424 131.912 66.5924L132.142 67.2249L100.057 66.42L67.9724 67.2249L68.2024 66.5924C76.2524 63.1424 76.3674 58.3125 76.1949 56.7024L76.3674 56.1274H98.3899L97.2399 51.7575L81.1974 52.275L81.3124 51.8725C86.0849 49.17 86.2574 45.375 86.1424 43.9949L86.3149 43.4774H95.0549L92.5249 33.645C61.1874 37.1525 36.4049 62.3374 33.5299 93.9049ZM156.925 64.9825L154.337 72.8024L154.912 73.9524H178.2L179.177 71.02C167.792 39.7975 138.352 17.2 103.45 15.82L106.21 33.53C127.715 35.485 146.23 47.56 156.925 64.9825ZM154.912 126.047L154.337 127.197L156.925 135.017C146.172 152.44 127.715 164.515 106.267 166.527L103.507 184.237C138.352 182.8 167.735 160.26 179.177 128.98L178.2 126.047H154.912ZM133.637 71.71L133.407 71.02H100.057H66.7074L66.4774 71.71C66.4199 73.7225 65.4999 80.0474 56.7599 88.7299L56.5299 89.4774C61.4174 87.3499 65.7874 85.625 69.9274 84.0724C74.9874 82.1749 79.7024 80.6799 84.3599 79.4149C86.8899 78.7249 89.4199 78.15 91.8349 77.6325C94.4224 77.115 97.0099 76.655 99.4824 76.31L99.9999 76.2524L100.517 76.31C102.645 76.5975 104.83 76.9424 107.072 77.4024C109.142 77.8049 111.327 78.3225 113.512 78.8975C117.48 79.9324 121.562 81.1974 126.047 82.7499C132.027 84.8774 137.95 87.2924 143.642 89.7649L143.297 88.7299C134.615 80.0474 133.637 73.7225 133.637 71.71ZM118.745 51.93C113.972 49.2275 113.8 45.4324 113.915 44.0524L113.742 43.535H105.002L102.875 51.8149L118.917 52.3325L118.745 51.93ZM114.95 139.445C115.007 139.56 115.065 139.617 115.18 139.732C115.352 139.962 115.64 140.192 115.927 140.365C116.215 140.537 116.617 140.767 117.077 140.997C117.882 141.342 118.86 141.687 120.125 141.975C122.425 142.55 125.012 142.837 127.312 143.067C127.945 143.125 128.577 143.182 129.21 143.24C130.245 140.25 131.51 137.317 133.005 134.327C130.302 135.535 127.427 136.57 124.38 137.432C120.527 138.582 117.192 139.157 114.95 139.445ZM79.9899 141.975C81.2549 141.687 82.2324 141.342 83.0374 140.997C83.4974 140.825 83.8424 140.595 84.1874 140.365C84.4749 140.135 84.7624 139.905 84.9349 139.732C84.9924 139.617 85.1074 139.56 85.1649 139.445C82.9224 139.157 79.5874 138.582 75.7349 137.49C72.6874 136.627 69.8124 135.592 67.1099 134.385C68.5474 137.317 69.8699 140.307 70.9049 143.297C71.5374 143.24 72.1699 143.182 72.8024 143.125C75.0449 142.837 77.6899 142.55 79.9899 141.975ZM184.237 99.9999V100.057V103.335L166.585 106.095L148.127 109.027C144.16 115.467 139.905 121.85 136.282 128.29C135.822 128.577 135.42 128.807 134.96 129.095C129.095 132.43 122.54 134.442 115.352 135.075C115.985 133.522 116.962 132.027 117.94 130.532C118.457 129.727 119.09 128.865 119.837 127.887C120.47 127.025 121.102 126.162 121.85 125.242C123.69 122.885 125.645 120.412 127.542 118.112C128.462 116.962 129.44 115.755 130.36 114.605L132.487 111.902C132.602 111.787 132.66 111.672 132.775 111.557C133.407 110.752 133.982 109.947 134.557 109.142C135.19 108.28 135.88 107.302 136.512 106.325C136.685 106.037 136.915 105.692 137.087 105.405C137.202 105.232 137.317 105.06 137.432 104.887L133.867 103.852C133.867 103.852 133.867 103.91 133.81 103.91C133.637 104.197 133.465 104.485 133.235 104.772C132.717 105.577 132.085 106.44 131.337 107.475C130.302 108.855 128.865 110.637 127.37 112.42C127.312 112.535 127.197 112.592 127.14 112.707C125.242 114.892 123.23 117.077 121.217 119.147C120.067 120.355 118.917 121.62 117.767 122.827C116.33 124.38 114.72 126.22 113.225 128.175C112.477 129.095 111.787 130.13 111.155 131.107C110.637 131.97 109.947 133.12 109.487 134.385C109.142 135.305 108.682 136.685 108.74 138.352C108.74 139.905 109.43 141.572 110.522 142.722C111.097 143.412 111.845 143.93 112.42 144.332C113.167 144.792 113.857 145.137 114.547 145.425C115.812 145.942 117.192 146.345 118.86 146.632C120.297 146.92 121.735 147.035 123.057 147.15C124.495 147.265 125.932 147.265 127.14 147.322C127.197 147.322 127.255 147.322 127.312 147.322C127.6 147.322 127.83 147.322 128.117 147.322C127.887 148.127 127.715 148.932 127.542 149.737C127.542 149.737 127.542 149.737 127.485 149.737L115.122 154.165L107.475 157.04L102.185 102.07L101.725 97.0674L100.747 87.0049L100.172 87.1774V97.0674V99.9424V101.265V161.525V183.892V184.352C53.6549 184.352 15.9349 146.632 15.9349 100.172V100.115H34.5074H65.5574H70.4449L70.6174 99.5975L62.5674 97.3549L54.9774 95.285L55.2649 94.4799C69.1224 88.3274 84.2449 82.405 100.23 80.22C115.87 82.29 130.992 88.5574 145.252 94.71L145.425 95.285L137.835 97.3549L129.785 99.5975L129.957 100.115H134.845H165.895H184.237V99.9999ZM93.9049 166.527L92.4099 156.867L85.1074 154.165L72.8024 149.737H72.7449C72.5724 148.932 72.3999 148.127 72.1699 147.322C72.4574 147.322 72.6874 147.322 72.9749 147.322C73.0324 147.322 73.0899 147.322 73.1474 147.322C74.3549 147.322 75.7924 147.322 77.2299 147.15C78.5524 147.035 79.9899 146.92 81.4274 146.632C83.0949 146.345 84.4174 145.942 85.7399 145.425C86.4299 145.137 87.1199 144.792 87.8674 144.332C88.4999 143.93 89.1899 143.412 89.7649 142.722C90.8574 141.515 91.4899 139.905 91.5474 138.352C91.5474 137.547 91.5474 136.34 90.7999 134.385C90.2824 133.12 89.6499 131.97 89.1324 131.107C88.4999 130.13 87.8099 129.095 87.0624 128.175C85.5674 126.22 83.8999 124.38 82.5199 122.827C81.3699 121.562 80.2199 120.355 79.0699 119.147C77.1149 117.02 75.0449 114.892 73.1474 112.707C73.0899 112.592 72.9749 112.535 72.9174 112.42C71.3649 110.637 69.9849 108.855 68.8924 107.475C68.1449 106.44 67.5124 105.577 66.9949 104.772C66.8224 104.485 66.6499 104.197 66.4774 103.91C66.4774 103.91 66.4774 103.852 66.4199 103.852L62.8549 104.887C62.9699 105.06 63.0849 105.232 63.1999 105.405C63.3724 105.692 63.6024 106.037 63.7749 106.325C64.4074 107.302 65.0974 108.28 65.7299 109.142C66.3049 109.947 66.9374 110.752 67.5124 111.557C67.5699 111.672 67.6849 111.787 67.7424 111.902L69.8699 114.605C70.7899 115.755 71.7674 116.962 72.6874 118.112C74.5849 120.47 76.5399 122.885 78.3799 125.242C79.1274 126.162 79.7599 127.082 80.3924 127.887C81.1399 128.922 81.7149 129.727 82.2899 130.532C83.2674 131.97 84.1874 133.522 84.8774 135.075C77.7474 134.442 71.1349 132.43 65.3274 129.095C64.8674 128.865 64.4074 128.577 64.0049 128.29C60.3249 121.85 56.1274 115.467 52.1599 109.027L33.6449 106.095C36.4624 138.122 61.9349 163.595 93.9049 166.527Z" fill="#12173F"/>
</svg>
