<svg width="200" height="200" viewBox="0 0 200 200" fill="none" xmlns="http://www.w3.org/2000/svg">
<path d="M186.984 66.1773C180.011 58.4955 164.588 52.2318 144.734 48.45C144.852 46.1455 146.211 45.2 148.693 43.4864C149.934 42.6 151.411 41.5364 152.947 40.1773C159.388 34.0909 151.824 24.8137 151.529 24.3409L147.393 19.2591L148.397 25.7C149.047 30.0728 147.452 31.6682 142.606 35.0364C142.015 35.45 141.424 35.9228 141.011 36.3955C141.247 33.4409 141.365 30.1318 140.361 25.9955C139.356 21.8591 137.347 20.1455 137.347 20.1455L136.815 26.1137C136.815 26.1728 136.402 30.7818 130.197 36.3955C130.729 35.8046 131.261 35.2137 131.674 34.5046C134.688 30.1319 133.802 25.05 132.856 19.2591L132.62 18.0773C131.556 12.05 133.211 8.26822 134.274 7.55913C135.338 6.31822 137.288 4.25004 137.288 4.25004C137.288 4.25004 136.224 3.77731 133.211 4.13186C129.37 4.66367 122.811 6.96822 122.988 12.2864C123.047 14.5909 123.815 16.8364 124.465 18.7864C125.174 20.8546 125.824 22.8637 125.234 23.8682C124.761 24.6955 123.284 25.2864 121.038 25.7591C111.938 27.4137 104.965 31.6682 101.361 37.8137C100.179 39.8228 99.4108 42.0091 98.9972 44.2546C76.3654 44.3137 54.9154 47.15 38.3108 52.2909C19.6972 58.0818 9.4154 65.9409 8.64722 74.9818C8.23358 79.7682 10.3609 86.6227 22.3563 93.3L22.2972 93.4182L25.7245 95.0727L27.5563 95.9591C33.0518 98.4409 39.5518 100.568 46.7018 102.282C44.1017 103.7 41.7381 105.414 39.6699 107.305C28.0881 116.818 21.4108 130.941 21.4108 145.95C21.4108 159.305 26.6108 171.891 36.0654 181.345C45.5199 190.8 58.1063 196 71.4608 196C95.1563 196 115.72 179.218 120.447 156.114C124.524 144 123.993 131.059 123.874 126.155C123.461 115.045 128.956 108.9 132.384 106.123C148.22 104.173 162.165 100.686 172.624 96.0182L174.338 95.1909L177.943 93.4773L177.824 93.3591C186.215 88.6909 190.884 83.1955 191.415 77.3455C191.652 73.5637 190.174 69.7818 186.984 66.1773ZM170.674 75.9273C172.093 77.5227 171.974 78.5273 171.974 78.8227C171.797 80.6546 169.552 82.7818 165.77 84.7909C157.793 88.9864 144.143 92.1773 127.834 93.7727C128.543 93.3591 129.311 92.8864 130.197 92.5909L130.493 92.4727C135.161 90.5227 140.479 88.3955 140.715 80.6546C140.774 79.4727 140.834 75.6318 141.484 74.2727C142.37 72.5 144.615 69.9 146.565 69.1909C146.624 69.1909 143.256 68.5409 143.256 68.5409C143.079 68.5409 142.902 68.5409 142.784 68.4818C143.906 67.6546 144.734 66.7091 145.265 65.7046C158.502 68.4818 167.424 72.2637 170.674 75.9273ZM27.7927 77.8182C28.3245 71.4364 51.3699 62.9864 88.5381 61.6864C85.0517 64.2864 81.0336 68.7773 79.9699 76.1046L79.5563 78.8227C79.3199 80.5364 79.0245 82.25 78.3745 83.9637C76.9563 87.6864 72.879 90.8182 68.6245 93.1818C53.6154 91.2909 41.1472 88.1 33.8199 84.2C29.8608 82.0137 27.6154 79.7091 27.7927 77.8182Z" fill="black"/>
<path d="M23.1836 149.614C24.4836 156.232 28.2654 164.091 35.7699 169.35C38.0154 170.945 40.4972 172.186 43.1563 173.191C41.5608 170.473 39.6108 167.636 37.7199 164.859C34.1745 159.6 30.3927 154.105 28.0881 148.255C25.6654 142.168 25.0154 135.845 26.079 129.464C24.129 134.605 23.1245 140.218 23.1245 146.127C23.0063 147.25 23.0654 148.373 23.1836 149.614ZM31.279 146.895C33.4654 152.45 37.129 157.709 40.5563 162.909C43.2745 166.868 45.8745 170.768 47.8836 174.668C50.0699 175.141 52.3745 175.495 54.679 175.673C52.2563 172.245 50.1881 168.345 48.4154 163.914C41.5017 146.659 42.5063 125.268 51.1336 112.918C55.5654 106.536 60.8836 102.223 67.7972 98.4409C73.6472 95.1909 77.3699 94.2454 81.1517 92C85.229 89.5773 87.4154 85.5 84.6972 76.4C83.929 73.6818 83.7517 71.6136 83.929 69.9591C82.9036 71.9321 82.243 74.074 81.979 76.2818C81.5654 78.8818 81.3881 81.7182 80.2654 84.5545C76.6608 94.0091 59.229 99.2091 56.9245 99.9182C50.3063 101.868 44.9881 105 40.8517 108.664C28.7381 119.359 26.6108 135.314 31.279 146.895ZM104.079 61.5682C104.256 62.1591 104.434 62.75 104.493 63.2818C104.906 66.5909 103.961 69.25 99.8836 69.9C95.6881 70.55 94.2699 66.9455 93.9745 63.9909C93.9154 62.9273 94.0335 62.1 94.0926 61.5682C93.3835 61.5682 92.7335 61.5682 92.0245 61.6273C90.7245 62.3955 88.9517 63.5773 87.2972 65.2318C86.4699 67.0636 85.4654 69.4864 87.0017 75.2773C89.7199 85.5 88.5381 91.6454 80.3835 95.1909C69.9245 99.6818 63.2472 102.341 54.2654 113.568C49.9517 118.945 47.6472 127.809 47.2927 136.732C46.879 145.418 48.7108 154.695 51.7245 162.259C53.7336 167.341 56.1563 171.773 58.9926 175.495C61.7699 175.377 64.6654 175.023 67.4426 174.373C64.3108 170.768 62.5381 166.277 62.2426 161.314C61.179 144.709 70.1017 137.795 83.8108 126.745L89.9563 121.605C114.479 100.805 107.329 79.65 109.988 61.5682C108.097 61.6864 106.088 61.6273 104.079 61.5682ZM113.888 61.9227C113.12 65.5273 112.765 69.3091 112.588 73.2091C111.584 88.9863 112.115 106.773 92.1426 124.441L86.1154 129.345C72.7608 140.041 65.1381 146.718 65.6699 161.255C65.8472 166.041 67.8563 170.236 71.2836 173.545C75.0063 172.423 78.729 170.827 82.2745 168.818C99.6472 159.009 110.52 144.236 114.715 125.445C117.374 113.509 117.315 103.818 117.256 96.0182C117.256 92.0591 117.729 84.3182 117.729 84.3182C118.261 79.4136 119.029 72.6182 124.702 63.5773C124.879 63.2818 125.115 62.9864 125.234 62.6909L113.888 61.9227ZM119.738 112.564C119.206 115.4 119.029 118.591 118.674 121.723C118.497 122.905 118.32 124.086 118.202 125.268C118.143 125.623 118.084 125.918 117.965 126.214C113.593 146.127 102.247 161.55 84.0472 171.891C80.9154 173.664 77.7245 175.141 74.5336 176.264C79.8517 179.809 86.1154 180.873 90.429 180.282C106.797 177.8 114.774 167.164 118.615 155.7C122.574 144 122.161 131.473 121.984 126.332C121.334 109.018 134.688 102.636 134.688 102.636C124.288 102.045 120.861 106.595 119.738 112.564ZM108.806 176.323C102.129 181.936 94.9199 183.118 91.6108 183.65C85.1699 184.655 77.5472 183.118 70.8108 177.8C70.6926 177.682 70.5745 177.623 70.4563 177.505C67.5608 178.273 64.6654 178.745 61.7699 179.041C68.3881 186.132 77.0154 190.15 88.7745 190.977H88.9517C96.8699 187.845 103.784 182.764 109.043 176.145C108.924 176.264 108.924 176.264 108.806 176.323ZM47.9427 188.2C48.0608 184.595 47.0563 180.932 45.3427 177.386C41.3245 176.205 37.4245 174.55 33.6427 172.245C31.5154 170.945 29.5654 168.995 27.9108 167.164C32.2836 176.086 39.3154 183.414 47.9427 188.2ZM81.2699 193.223C74.7108 191.745 69.1563 189.382 64.3108 185.718C61.7699 183.768 59.5245 181.641 57.4563 179.218C54.7972 179.159 52.1972 178.923 49.5972 178.45C51.0154 182.173 51.7836 185.955 51.3108 189.914C57.3972 192.691 64.1926 194.227 71.3426 194.227C74.829 194.227 78.1381 193.814 81.3881 193.164C81.329 193.223 81.329 193.223 81.2699 193.223ZM137.347 74.6273C136.224 78.35 132.502 77.9364 131.497 75.8682C129.784 72.6773 130.434 70.1954 132.206 68.4818C133.979 66.7682 136.874 65.8818 139.652 64.6409H139.711C136.461 64.1091 133.034 63.5773 129.311 63.1636L129.134 63.3409C128.779 63.7545 128.484 64.05 128.129 64.4636C122.279 73.2091 121.57 79.7091 120.979 84.6727L120.802 86.2091C120.447 88.8682 120.447 92.1182 120.506 95.9591V97.5545L120.329 101.514H120.388C120.447 100.982 120.447 100.805 120.447 101.1C122.102 95.9 125.115 92.65 129.429 90.9363C134.038 89.0454 138.588 87.3909 138.824 80.6545C138.943 77.8773 139.12 75.0409 139.77 73.6227C140.952 71.0227 143.02 70.3136 143.02 70.3136C140.893 70.1364 138.47 71.0818 137.347 74.6273Z" fill="#961A31"/>
<path d="M142.961 48.0955C143.315 43.6045 147.511 42.7773 151.647 38.8773C156.906 33.8546 150.052 25.5227 150.052 25.5227C150.938 31.1364 148.279 33.2636 143.552 36.6318C142.075 37.6955 140.952 39.1727 140.834 41.0046C140.656 43.0727 140.479 45.3182 140.065 47.6227C141.011 47.8 141.956 47.9773 142.961 48.0955ZM128.425 40.2955L124.879 43.1909L122.634 45.4364C127.243 45.85 131.734 46.3818 136.106 46.9727C138.825 41.8909 140.243 36.2182 138.588 26.4091C138.529 26.4682 138.115 33.0864 128.425 40.2955ZM102.543 44.4909C107.802 44.55 113.061 44.7864 118.084 45.0818L118.556 44.6091C121.984 41.0046 127.243 37.8727 130.02 33.7955C132.797 29.6591 131.734 24.6955 130.67 18.6091C128.838 8.15001 133.329 6.20001 133.329 6.20001C133.329 6.20001 124.465 7.38183 124.643 12.5227C124.879 19.3773 131.97 25.8182 121.334 27.7682C109.634 29.8955 102.365 36.2182 100.77 44.4909H102.543Z" fill="#F9A11E"/>
<path d="M102.483 47.2683C53.5562 46.7955 12.7244 59.3819 11.3062 75.5137C10.7744 81.9546 16.5062 87.8637 26.7289 92.8273C33.0517 95.841 41.1471 98.5001 50.4244 100.509C52.3153 99.6819 54.2062 98.9137 56.2744 98.3228C57.8698 97.8501 60.8835 96.8455 64.1926 95.4273C50.4835 93.4773 39.4335 90.3455 32.5198 86.6228C27.438 83.9046 24.7789 80.8319 25.0744 77.641C26.0199 66.8864 60.2926 58.4364 101.597 58.8501C142.902 59.2637 175.638 68.3637 174.693 79.1183C174.397 82.0137 171.738 84.8501 167.011 87.2728C158.383 91.8228 143.138 95.3092 124.583 96.9637C123.933 97.8501 123.402 98.8546 122.929 99.9183C131.32 96.7273 141.07 101.455 141.07 101.455C141.07 101.455 141.72 101.75 142.193 101.986C154.483 99.8001 165.061 96.6683 172.979 92.9455C182.315 88.5137 188.047 83.1364 188.52 77.2864C189.997 61.1546 151.411 47.741 102.483 47.2683Z" fill="white"/>
</svg>
