<svg width="200" height="200" viewBox="0 0 200 200" fill="none" xmlns="http://www.w3.org/2000/svg">
<path d="M50.7727 92.3896H37.149V107.116L28.9859 111.143L37.149 115.39V128.517L46.1947 134.088C49.5041 133.647 53.7512 133.095 58.7152 132.599L93.6293 152.731L99.9724 182.019C100.028 181.964 106.371 152.731 106.371 152.731L141.229 132.599C146.138 133.095 150.385 133.592 153.75 134.088L162.741 128.517V115.39L170.904 111.198L162.741 107.061V92.3344H149.172C149.172 92.3344 151.268 90.2936 153.971 85.7156C155.074 83.7851 156.177 81.4134 157.445 78.6004C167.374 75.622 174.71 69.2238 177.798 63.1014C186.292 47.5473 192.691 28.5734 192.691 28.5734L184.583 32.5447C188.168 21.6237 190.319 12.3022 190.319 12.3022C190.319 12.3022 151.158 38.1707 120.711 62.5499L118.064 60.9503C118.064 60.6746 118.174 58.4683 118.174 58.3028C118.174 58.3028 118.505 55.7105 113.927 54.1661C113.596 54.0558 113.375 53.9454 113.1 53.8903C115.306 52.2356 118.726 49.6984 121.263 47.9885C125.234 45.2307 124.793 42.2523 124.793 42.2523L110.342 53.0078C99.145 49.4226 89.8235 53.0078 89.8235 53.0078L75.3725 42.2523C75.3725 42.2523 74.9313 45.2307 78.9025 47.9885C81.3846 49.6984 84.8595 52.2356 87.0657 53.8903C86.7899 54.0006 86.5693 54.1109 86.2384 54.1661C81.6604 55.7105 81.9913 58.3028 81.9913 58.3028C81.9913 58.5234 82.0465 60.6746 82.1016 60.9503L79.4541 62.5499C48.7871 38.281 9.68106 12.3574 9.68106 12.3574C9.68106 12.3574 11.8322 21.5685 15.4173 32.5447L7.30933 28.5734C7.30933 28.5734 13.7075 47.6024 22.2016 63.1014C25.3455 69.279 32.6262 75.622 42.5544 78.6004C42.5544 78.6004 44.2091 82.4062 45.6431 85.2192C47.4081 88.6389 50.7727 92.3896 50.7727 92.3896Z" fill="#1D1160"/>
<path d="M116.409 70.2718C116.244 70.6579 116.078 71.1543 116.023 71.5404L180.501 29.5111C180.501 29.5111 180.556 30.0627 182.873 23.2233C154.467 40.3218 129.426 59.7369 116.409 70.2718ZM83.5357 70.2718C70.5187 59.7369 45.4225 40.3218 17.072 23.2233C19.4438 30.173 19.4438 29.5663 19.4438 29.5663L83.9218 71.5956C83.8666 71.1543 83.7011 70.7131 83.5357 70.2718ZM99.9723 84.1161C97.6558 83.1785 91.754 80.2552 88.1688 72.5884C91.0921 75.0704 94.7876 75.8978 97.7661 72.9745C94.1809 71.375 93.6845 64.9216 92.9675 63.2669C91.5334 59.7921 89.3271 58.0822 87.507 57.3652C88.3895 57.0342 89.1617 56.8136 89.989 56.5378C91.6437 57.4755 94.5118 59.5714 95.4495 63.8185C95.4495 63.8185 95.7804 58.9647 93.4087 55.6553C98.0419 54.5522 102.73 54.6625 106.536 55.6553C104.164 59.0199 104.495 63.8185 104.495 63.8185C105.433 59.5714 108.191 57.4755 109.956 56.5378C110.728 56.8136 111.555 57.0342 112.438 57.3652C110.673 58.0822 108.411 59.8472 106.977 63.2669C106.26 64.9216 105.819 71.4301 102.179 72.9745C103.006 77.9386 102.013 82.5166 99.9723 84.1161ZM58.6601 93.1618C58.6601 93.1618 51.931 88.308 48.1252 79.5381L50.8278 80.3655C59.5977 82.682 76.3653 84.9986 76.3653 84.9986C68.2573 85.2193 61.4731 85.826 57.5569 86.2121C56.7296 85.2193 55.8471 83.9506 55.461 82.9578C55.461 82.9578 55.7919 85.9914 56.4538 87.9219C57.3363 90.8452 58.6601 93.1618 58.6601 93.1618ZM143.436 87.9771C144.153 86.0466 144.429 83.013 144.429 83.013C144.098 84.0058 143.16 85.2744 142.333 86.2672C138.416 85.826 131.577 85.2193 123.524 84.9986C123.524 84.9986 140.292 82.7372 149.062 80.3655L151.764 79.5381C147.959 88.3632 141.229 93.1066 141.229 93.1618C141.285 93.1618 142.608 90.8452 143.436 87.9771ZM79.068 134.805L61.9695 124.932L58.3843 125.263L82.1016 138.942C80.9433 137.728 79.9505 136.294 79.068 134.805ZM120.877 134.805L137.975 124.932L141.56 125.263L117.843 138.942C119.001 137.728 119.994 136.294 120.877 134.805ZM92.4159 137.122C84.9146 135.467 81.7155 131.771 81.7155 131.771C83.2599 134.915 85.5765 137.618 88.4998 139.604C88.4446 139.548 91.6437 138.666 92.4159 137.122ZM87.7827 129.014L86.128 127.359C83.7563 128.186 82.3774 129.124 81.6604 129.731C83.3151 131.33 86.5141 133.426 92.2504 134.64C91.5334 132.819 89.7684 130.999 87.7827 129.014ZM99.8069 146.829C97.3248 146.884 95.5598 147.822 94.8979 148.043L92.8571 144.568C95.0083 144.844 96.8836 144.402 96.8836 144.402C95.9459 144.071 93.6845 143.354 90.6509 141.313C90.9267 141.203 91.1473 141.038 91.4782 140.983C92.3056 140.596 93.1329 140.045 93.7396 139.383C94.5118 138.611 95.0082 137.618 95.0082 136.46C95.0082 132.709 92.471 131.44 89.6581 128.627C89.1065 128.076 88.4998 127.524 87.8931 126.918C90.4854 126.201 94.0706 125.704 98.7589 125.594L99.862 141.534H100.027L101.186 125.594C105.984 125.704 109.459 126.201 112.052 126.918C111.445 127.524 110.838 128.076 110.287 128.627C107.418 131.44 104.936 132.709 104.936 136.46C104.93 137.009 105.04 137.553 105.258 138.057C105.477 138.561 105.8 139.013 106.205 139.383C106.867 140.045 107.639 140.541 108.466 140.983C108.742 141.148 109.018 141.258 109.294 141.313C106.26 143.354 103.888 144.126 103.061 144.402C103.061 144.402 104.936 144.788 107.088 144.568C106.331 145.679 105.649 146.84 105.047 148.043C104.44 147.822 102.675 146.884 100.138 146.829H99.8069ZM111.445 139.548C114.313 137.563 116.63 134.86 118.229 131.716C118.229 131.716 115.14 135.412 107.529 137.066C108.301 138.666 111.445 139.548 111.445 139.548ZM107.694 134.75C113.375 133.592 116.574 131.44 118.284 129.841C117.567 129.179 116.188 128.241 113.817 127.469C113.32 128.021 112.769 128.572 112.162 129.124C110.176 130.999 108.411 132.819 107.694 134.75Z" fill="#00788C"/>
<path d="M94.8428 73.4157C94.8428 73.4157 92.0849 71.5956 91.6437 67.7346C91.6437 67.7346 88.0585 73.7467 94.8428 73.4157ZM105.267 73.4157C105.267 73.4157 108.025 71.5956 108.466 67.7346C108.522 67.7346 112.052 73.7467 105.267 73.4157ZM103.227 152.676C102.73 152.179 102.013 151.573 99.8069 151.573C97.7109 151.573 96.9939 152.069 96.3872 152.565L99.9723 166.575L103.227 152.676ZM126.778 90.9004V96.0299H125.069V90.9004H123.634V89.4111H128.212V90.9004H126.778ZM118.67 90.9004V96.0299H116.961V90.9004H115.526V89.4111H120.16V90.9004H118.67ZM94.4015 93.6582H95.0082V90.073L94.2912 89.356H89.9338V95.9748H91.5885V93.6582H92.802L93.7948 95.9748H95.4495L94.4015 93.6582ZM93.3535 92.2241H91.5334V90.9004H93.3535V92.2241ZM136.762 90.9004V89.4111H131.853V96.0299H136.762V94.5407H133.563V93.4927H136.762V92.0035H133.563V90.9004H136.762Z" fill="white"/>
<path d="M100.91 94.5407V89.4112H99.145V96.0299H103.337V94.5407H100.91ZM110.893 89.4112H106.536V95.3129L107.308 96.0851H111.665V90.1833L110.893 89.4112ZM110.066 94.5407H108.191V90.9004H110.066V94.5407ZM85.9625 96.0299V90.1282L85.2455 89.356H80.7778V95.9748H82.4325V93.8237H84.3078V95.9748L85.9625 96.0299ZM82.4325 90.9004H84.3078V92.4448H82.4325V90.9004ZM75.4828 89.4112V92.3896H73.6075V89.4112H71.9528V96.0299H73.6075V93.8788H75.4828V96.0299H77.1375V89.4112H75.4828ZM174.765 42.4729L180.391 29.5663L115.913 71.5956C115.446 72.9877 114.855 74.3353 114.148 75.622L168.201 46.1684L126.006 76.6148L127.937 76.2839L150.22 74.1328C150.22 74.1328 165.278 72.6436 173.661 61.3916C177.633 55.3244 184.362 37.6191 184.362 37.6191L174.765 42.4729ZM45.6431 112.963L50.8278 110.702V122.505L55.4058 121.954V96.0851H50.8278C50.8278 96.0299 50.8278 105.407 50.8278 105.407L45.6431 107.613V96.1403H41.0651V109.543L37.3145 111.363L41.0651 113.239V124.105C42.5543 123.829 44.0987 123.608 45.6431 123.332V112.963ZM81.3294 112.908L84.7491 112.798C85.6316 115.004 86.4589 117.486 87.2863 119.637L91.8643 119.527C90.9818 117.32 90.2096 114.838 89.3271 112.687C89.8787 112.687 90.4854 112.687 91.0369 112.632V102.042L88.9962 100.056H74.9864L76.6962 102.152V120.133L81.2742 119.858L81.3294 112.908ZM81.3294 104.248H86.5141V108.33C84.8043 108.33 83.0392 108.385 81.3294 108.44V104.248ZM99.145 104.248H104.385V119.471L109.183 119.527V102.152L107.087 100.056H92.7468L94.4566 102.152V119.527L99.145 119.471V104.248ZM126.337 115.831L117.512 115.445V112.191L126.337 112.522V107.944L117.512 107.723V104.248H126.337V100.001H110.948L112.658 102.042V119.582L126.337 120.189V115.831ZM137.865 104.248H141.836V100.001H128.929V104.248H132.956V120.74L137.92 121.126L137.865 104.248ZM73.3317 102.152L71.2357 100.056H57.1708L58.8255 102.042V119.141L60.6457 121.347C64.6721 120.961 68.9192 120.575 73.3317 120.354V102.152ZM68.7537 116.052L63.5138 116.383V104.248H68.7537V116.052ZM158.383 113.128L162.63 111.198C158.052 109.047 153.474 107.172 148.951 105.407V100.222H153.805V102.097H158.438V96.0851H142.663L144.373 98.1259V108.826L153.805 112.908V118.92L148.951 118.313V116.383L144.373 115.831V121.954C149.337 122.505 154.081 123.222 158.383 123.994V113.128ZM66.5474 93.9892V94.5407H65.0582V90.9004H66.5474V91.452H68.2573V89.4112H63.4587V95.3129L64.2309 96.0299H68.2573V93.9892H66.5474Z" fill="white"/>
<path d="M25.18 42.4729L19.554 29.5663L84.0321 71.5956C84.499 72.9877 85.0897 74.3353 85.7971 75.622L31.7436 46.1133L73.9384 76.5597L72.0079 76.2287L49.7247 74.0776C49.7247 74.0776 34.6669 72.5884 26.2831 61.3365C22.3119 55.2692 15.5828 37.564 15.5828 37.564L25.18 42.4729Z" fill="white"/>
<path d="M191.587 37.233C187.34 48.6504 181.604 60.4539 178.791 65.3628C173.993 73.526 164.45 78.4349 158.88 80.2551C158.88 80.2551 156.177 86.8187 153.309 90.4039H164.726V105.958L175.592 111.143L164.726 116.658V129.675L154.191 136.129L141.671 134.639L108.246 153.944L99.9724 192.995C99.9724 192.995 98.3729 184.722 91.6989 153.944L58.2741 134.695C54.1925 135.081 45.7535 136.184 45.7535 136.184L35.2186 129.731V116.714L24.3528 111.198L35.1635 106.013V90.4591H46.5809C43.823 86.9842 41.0101 80.3103 41.0101 80.3103C37.6455 79.2071 34.4464 77.6627 31.5783 75.8426C27.0554 72.9193 23.4151 69.3341 21.0434 65.418C16.5205 57.3651 11.1152 45.341 8.24706 37.2881C6.37173 32.324 4 24.8779 4 24.8779L12.1632 28.794C9.18472 19.9138 6.64751 8 6.64751 8C6.64751 8 49.3939 36.1299 79.4542 60.1781L79.8954 59.8472V58.3028C79.8954 57.9718 79.8954 57.3651 80.1712 56.6481C80.5022 55.6553 81.2743 54.3867 83.0394 53.3387C80.8331 51.684 76.8618 48.9813 76.5309 48.5952C73.6076 46.058 73.1112 43.245 73.387 41.811L73.8834 38.6119L90.1545 50.6912C98.9796 48.154 105.267 49.4226 109.901 50.6912L126.172 38.6119L126.668 41.811C126.889 43.1899 126.392 46.058 123.524 48.5952C123.193 48.9262 119.222 51.684 117.016 53.3387C118.726 54.3867 119.498 55.6001 119.884 56.6481C120.16 57.3651 120.16 57.9718 120.16 58.3028V59.8472L120.601 60.1781C151.268 35.5783 193.352 8 193.352 8C193.352 8 191.257 17.7627 187.837 28.794C189.492 27.9667 196 24.8779 196 24.8779C194.07 30.7797 191.587 37.233 191.587 37.233ZM50.7728 92.3895H37.1491V107.116L28.9859 111.143L37.1491 115.39V128.517L46.1948 134.088C49.5042 133.647 53.7512 133.095 58.7153 132.599L93.6294 152.731L99.9724 182.019C100.028 181.964 106.371 152.731 106.371 152.731L141.23 132.599C146.138 133.095 150.386 133.591 153.75 134.088L162.741 128.517V115.39L170.904 111.198L162.741 107.061V92.3344H149.172C149.172 92.3344 151.268 90.2936 153.971 85.7156C155.074 83.7851 156.177 81.4134 157.446 78.6004C167.374 75.6219 174.71 69.2238 177.798 63.1014C186.292 47.5473 192.691 28.5734 192.691 28.5734L184.583 32.5447C188.168 21.6237 190.319 12.3022 190.319 12.3022C190.319 12.3022 151.158 38.1706 120.711 62.5498L118.064 60.9503C118.064 60.6745 118.174 58.4683 118.174 58.3028C118.174 58.3028 118.505 55.7104 113.927 54.166C113.596 54.0557 113.375 53.9454 113.1 53.8903C115.306 52.2356 118.726 49.6984 121.263 47.9885C125.234 45.2307 124.793 42.2522 124.793 42.2522L110.342 53.0078C99.1451 49.4226 89.8236 53.0078 89.8236 53.0078L75.3726 42.2522C75.3726 42.2522 74.9313 45.2307 78.9026 47.9885C81.3847 49.6984 84.8595 52.2356 87.0658 53.8903C86.79 54.0006 86.5694 54.1109 86.2384 54.166C81.6604 55.7104 81.9914 58.3028 81.9914 58.3028C81.9914 58.5234 82.0465 60.6745 82.1017 60.9503L79.4542 62.5498C48.7871 38.281 9.68113 12.3574 9.68113 12.3574C9.68113 12.3574 11.8322 21.5685 15.4174 32.5447L7.30939 28.5734C7.30939 28.5734 13.7076 47.6024 22.2017 63.1014C25.3456 69.2789 32.6263 75.6219 42.5544 78.6004C42.5544 78.6004 44.2091 82.4062 45.6432 85.2192C47.4082 88.6389 50.7728 92.3895 50.7728 92.3895Z" fill="#A1A1A4"/>
</svg>
