<svg width="200" height="200" viewBox="0 0 200 200" fill="none" xmlns="http://www.w3.org/2000/svg">
<path d="M10.6827 132.643C9.14056 130.329 4 121.655 4 107.647C4 102.378 4.70683 96.4016 6.63454 89.7189V89.5904L7.46988 86.3775L7.66265 86.5703L8.04819 85.4137L9.59036 80.8514C9.71887 80.4016 10.2972 78.0241 10.8112 76.3534C10.9219 75.9199 11.0506 75.4911 11.1968 75.0683V74.8112C11.3253 73.5904 11.5181 72.3695 11.7751 71.2129C11.8394 70.5703 11.9679 69.992 12.0321 69.4779L12.0964 69.2851L12.1606 69.0924C12.2249 68.9639 12.2892 68.8353 12.2892 68.7711C14.6667 59.004 19.1647 53.2209 21.6707 50.5863V50.5221V50.4578C22.1847 50.008 23.5341 48.7229 25.1406 47.6948C25.8474 46.7309 28.2249 43.6466 30.4096 41.2048C31.1807 40.3695 31.8876 39.6626 32.5301 39.0201C32.9157 38.1847 33.751 36.4498 35.3574 34.3936C37.5422 31.6948 41.012 28.4819 46.4096 26.5542C50.5221 23.7269 54.8916 21.2851 59.4538 19.1004C60.3534 18.2008 63.6305 14.9237 68.7711 11.6466C74.747 7.85542 83.1646 4 93.1887 4H94.3454L98.008 4.12851L93.51 10.1687C95.8875 9.9759 98.3293 9.91165 100.771 9.91165C113.687 9.91165 126.088 12.4177 137.333 16.9799H137.398H137.462C137.912 17.1727 138.683 17.5582 139.454 18.0723C140.161 18.5221 140.803 18.9719 141.446 19.6145C142.217 19.6787 143.888 20 145.687 20.7711H145.751H145.815C157.96 27.1325 168.562 36.0643 176.851 46.7309L176.916 46.7952L176.98 46.9237C177.108 47.1165 177.43 47.8233 177.687 49.1727C177.815 49.2369 178.008 49.3655 178.265 49.5582C178.715 49.8795 179.229 50.2008 179.679 50.7149L179.807 50.8434L179.871 50.9719C190.024 65.751 196 83.5502 196 102.699C196 120.819 190.667 137.783 181.414 152.112L181.349 152.177L181.285 152.241C181.157 152.434 181.092 152.498 180.964 152.626C180.835 152.755 180.707 152.884 180.514 153.012C180.257 153.205 179.871 153.462 179.422 153.783C179.357 153.976 179.357 154.169 179.293 154.49C179.165 155.068 178.972 155.775 178.522 156.482V156.546L178.458 156.61C161.173 180.257 132.835 195.679 100.771 195.679C59.0683 195.743 23.4699 169.398 10.6827 132.643Z" fill="white"/>
<path d="M178.522 52.2571C177.944 51.6788 176.659 50.9077 176.659 50.9077C176.209 50.7149 176.08 50.2651 176.08 50.2651C175.823 48.6587 175.502 48.0804 175.502 48.0804C167.406 37.6065 156.996 28.9318 145.044 22.6346C142.924 21.6707 140.996 21.6065 140.996 21.6065C140.546 21.6065 140.353 21.2852 140.353 21.2852C139.647 20.3213 137.526 19.229 136.755 18.8434C125.703 14.3454 113.622 11.9037 100.9 11.9037C97.0441 11.9037 93.253 12.1607 89.5261 12.6105L94.4096 6.05628C74.8112 5.47797 60.8032 20.7711 60.8032 20.7711C56.1124 22.9559 51.6144 25.5262 47.3735 28.4177C37.1566 32.0804 34.2008 40.3053 34.2008 40.3053C31.6305 42.49 26.4899 49.3013 26.4899 49.3013C25.012 50.1366 23.4698 51.5503 23.0201 52.0001C20.6425 54.4418 16.3373 59.9679 14.0883 69.478C14.0241 69.6065 13.9598 69.7993 13.8956 69.9278C13.8313 70.4418 13.7028 71.0844 13.6385 71.6627C13.4458 72.8193 13.1887 73.976 13.0602 75.1968L13.1887 75.0683C13.1245 75.3254 13.1245 75.4539 13.1245 75.4539C12.8674 75.6466 11.3895 81.494 11.3895 81.494L8.49796 90.233V90.2972C1.49395 114.843 10.8112 129.687 12.4176 131.936C24.8192 167.984 59.7751 194.008 100.964 194.008C132.386 194.008 160.209 178.908 177.108 155.711C177.558 154.94 177.815 153.398 177.815 153.398C177.815 152.884 178.201 152.691 178.201 152.691C179.486 151.984 179.936 151.534 180 151.406C189.06 137.398 194.265 120.819 194.265 103.02C194.329 84.1286 188.482 66.7149 178.522 52.2571Z" fill="#061922"/>
<path d="M61.767 34.6507L62.4095 33.9439C62.7308 33.6226 62.8593 33.5583 62.8593 33.5583L62.9236 33.4941C62.9879 28.8033 64.0802 25.0764 64.0802 25.0764C72.5622 13.1888 86.5702 10.1045 86.5702 10.1045C88.3051 9.59045 87.2128 10.3615 87.2128 10.3615C78.4095 20.2571 79.3091 28.4178 79.3091 28.4178L87.7268 59.1326C87.7268 59.1326 80.9156 56.7551 75.6465 45.9599C73.2047 67.486 93.5099 84.9639 93.5099 84.9639C94.4095 85.735 92.9959 84.8997 92.9959 84.8997C87.9196 82.3937 82.0722 76.9961 80.4658 75.5182C80.9156 77.1888 90.7469 126.86 90.8111 126.988C90.8754 127.245 91.0039 127.695 91.0682 128.016L94.4738 119.534L97.3011 144.594C84.4497 156.546 70.763 151.855 69.8634 151.534L70.4417 152.434C70.4417 152.434 81.5581 174.281 126.924 171.968C126.924 171.968 128.016 171.968 127.823 172.096C127.823 172.161 127.759 172.161 127.566 172.225C126.731 172.546 125.381 172.739 125.381 172.739C70.6344 187.39 42.2971 140.739 41.0762 138.619C40.7549 138.169 38.0561 134.378 36.5782 130.651C36.514 130.522 36.4497 130.201 36.7067 130.458C36.7067 130.458 42.4899 136.498 58.9397 138.04H59.1324C46.4095 123.904 41.012 113.623 40.2409 112.016C40.2409 112.016 38.6987 109.703 36.8995 103.213C36.8995 103.213 36.9638 102.892 37.0923 103.213C37.7349 104.498 41.9116 110.731 47.0521 112.08C42.6826 105.076 39.9838 94.0242 39.6626 92.3535C45.5742 100.643 56.0481 101.221 56.0481 101.221C56.0481 101.221 56.0481 101.157 55.9838 101.157C55.9838 101.221 56.0481 101.221 56.0481 101.221C38.8272 84.0001 42.5541 65.3013 49.4939 51.8073C53.7348 43.7752 59.0039 37.6065 61.767 34.6507Z" fill="white"/>
<path d="M113.365 148.45L102.056 160.337L116 149.606L108.803 124.675L111.952 94.731L106.426 123.325L113.365 148.45ZM115.871 75.1326C114.908 80.2732 113.301 85.478 110.474 87.8555C110.667 87.727 110.924 87.5985 111.245 87.47C112.365 86.78 113.401 85.9605 114.329 85.0282C116.578 82.7149 118.827 78.9238 118.827 72.9479C118.827 70.2491 118.377 67.1647 117.285 63.5663C117.092 65.5583 116.771 70.3133 115.871 75.1326ZM115.743 36.8997C119.663 30.9238 126.153 30.4097 128.916 30.4097C126.538 29.7029 124.353 29.4459 122.361 29.4459C118.185 29.4459 115.1 30.6025 113.815 31.1808C113.622 31.2451 113.494 31.3093 113.365 31.3736C114.394 32.7872 115.422 35.8073 115.743 36.8997ZM110.795 49.3655C110.924 49.3655 110.988 49.4298 110.988 49.5583V51.229C110.988 64.0161 107.582 78.0884 106.297 82.972C111.181 71.727 112.53 61.2531 112.53 53.221C112.53 48.5302 112.08 44.6105 111.63 41.9117C111.373 40.4981 111.181 39.4057 110.988 38.6989C109.767 48.3374 106.104 52.7069 106.04 52.7712C105.976 52.8354 105.912 52.8354 105.847 52.8354C105.783 52.8354 105.719 52.7712 105.719 52.7069C99.6787 41.5904 90.747 34.7792 86.6988 32.0804L85.0923 31.0523C96.5944 55.984 99.9357 75.2611 100.771 81.6226C100.771 80.9157 100.835 80.1447 100.835 79.3736C100.835 68.0001 97.9437 54.2491 96.4658 48.0804L95.6305 44.8033C95.6305 44.739 95.6305 44.6105 95.6948 44.6105C95.759 44.5463 95.8233 44.5463 95.9518 44.6105C101.092 48.5945 104.755 60.0322 105.398 62.1527C106.361 60.9318 107.647 57.976 108.675 55.2129L110.667 49.5583C110.602 49.4298 110.667 49.3655 110.795 49.3655C110.731 49.3655 110.731 49.3655 110.795 49.3655ZM14.1526 101.157C14.1526 113.044 16.2088 125.446 26.4257 141.317C36.0642 161.623 53.8634 172.546 62.1526 176.787C64.9156 178.201 66.5863 178.843 66.6506 178.843C79.8233 185.076 92.2249 187.325 103.341 187.325C126.602 187.325 144.209 177.301 151.598 172.289C154.04 170.619 155.39 169.526 155.39 169.526C155.904 169.141 156.225 168.819 156.546 168.562C156.418 168.627 156.225 168.755 156.096 168.819L155.068 169.462C137.012 180.064 120.369 183.277 106.747 183.277C85.4779 183.277 71.6626 175.309 71.6626 175.309C26.4899 151.663 25.8474 110.602 25.8474 110.602C25.8474 110.538 25.9116 110.41 25.9759 110.41C26.0401 110.41 26.1687 110.41 26.1687 110.538C32.016 121.847 39.0843 125.703 42.1687 126.924C42.6185 127.117 43.004 127.245 43.261 127.309C30.0883 110.667 26.3614 96.723 26.3614 86.2491C26.3614 72.3696 32.9156 64.4659 32.9799 64.4659C33.0442 64.4017 33.1084 64.4017 33.2369 64.4017C33.3012 64.4659 33.3654 64.5302 33.3654 64.5945C32.4016 69.478 32.0803 73.8475 32.0803 77.5744C32.0803 86.7631 34.2008 92.4177 35.2931 94.731C35.2931 94.7952 35.3574 94.8595 35.3574 94.9238C34.9719 91.5824 34.7791 88.3695 34.7791 85.2852C34.7791 54.3133 52.8996 35.2932 56.755 31.5663C53.8634 32.7872 50.3935 35.8716 47.5662 38.7631C44.4176 41.976 42.0401 44.9318 42.0401 44.9318C41.9759 44.9961 41.9116 44.9961 41.8474 44.9961C41.7831 44.9961 41.7189 44.8675 41.7189 44.8033C41.7189 42.3615 43.1325 39.2772 43.9036 37.735C41.5903 39.8555 39.6626 43.1969 38.249 46.0884C36.7068 49.3013 35.8715 52.0001 35.8715 52.0001L35.8072 52.0643C28.6104 60.1607 25.1405 68.8997 23.8554 72.6908C23.4056 73.976 23.2128 74.6828 23.2128 74.6828C23.0201 75.3254 22.9558 75.6467 22.8915 75.8394C22.8273 75.9037 22.8273 75.9679 22.6345 76.0322C22.506 76.0322 22.4417 75.9037 22.4417 75.9037V75.7752V75.5181C22.4417 75.1326 22.506 74.6186 22.506 74.6186C22.6345 68.7712 25.0763 62.2169 26.0401 59.7752C19.1646 67.1647 17.494 77.1888 17.494 85.221C17.494 89.0121 17.8795 92.3535 18.265 94.731C18.6506 97.1085 19.0361 98.5222 19.0361 98.5222V98.5864C19.0361 103.277 20 109.125 20.8996 113.815C21.7992 118.442 22.763 121.912 22.763 121.912C23.0843 122.811 23.2128 123.197 23.2128 123.454V123.582C23.2128 123.647 23.0843 123.711 23.0201 123.711C22.8915 123.711 22.8273 123.647 22.8273 123.582C22.763 123.518 22.763 123.454 22.6988 123.39C22.6345 123.261 22.506 123.068 22.4417 122.94C22.249 122.619 22.1205 122.297 22.1205 122.297C17.3012 114.908 14.9879 102.763 14.4096 99.743C14.1526 100.193 14.1526 100.643 14.1526 101.157Z" fill="#BBC4CA"/>
<path d="M120.048 43.1968L119.92 43.1325L119.984 43.004C122.169 37.0924 132.578 31.8875 134.57 30.8594C129.751 28.1606 125.125 27.3253 121.269 27.3253C118.378 27.3253 115.936 27.7751 114.201 28.2891C112.466 28.7389 111.502 29.1887 111.502 29.1887L111.374 29.253L111.309 29.1245C109.51 26.8755 107.197 24.6908 105.333 23.0201C103.534 21.4136 102.185 20.3855 102.056 20.257C101.799 20.0643 101.606 20 101.606 19.743C101.606 19.6144 101.735 19.4859 101.799 19.4859C101.863 19.4217 101.992 19.4217 102.056 19.4217C102.249 19.3574 102.506 19.3574 102.699 19.3574H103.213C144.594 19.3574 166.57 48.9157 166.57 48.9157C166.827 49.2369 167.02 49.5582 167.02 49.8795C166.956 50.7791 165.992 51.1646 165.092 51.4859C164.193 51.743 163.229 51.8715 163.229 51.8715C159.245 52.4498 155.518 52.6426 152.112 52.6426C130.458 52.6426 120.048 43.1968 120.048 43.1968ZM105.976 162.651C105.912 162.651 105.847 162.586 105.847 162.522C105.847 162.458 105.847 162.394 105.912 162.329L119.791 151.149L112.723 125.06V124.996L114.651 107.518C114.651 107.454 114.715 107.39 114.715 107.39C114.779 107.325 114.843 107.325 114.908 107.39C118.056 108.353 119.534 112.659 120.305 116.643C120.819 119.534 121.012 122.233 121.012 123.582C124.675 115.614 125.896 109.189 125.896 104.241C125.896 97.2369 123.454 93.0602 122.297 91.4538C121.912 90.9398 121.655 90.6827 121.655 90.6827C121.59 90.6185 121.59 90.49 121.655 90.4257C121.719 90.3614 121.847 90.3614 121.912 90.4257C138.426 106.104 141.767 128.016 141.767 143.116C141.767 153.333 140.225 160.402 140.225 160.466C139.711 162.072 138.04 162.458 137.976 162.522C131.229 164 125.317 164.514 120.434 164.514C111.374 164.386 105.976 162.651 105.976 162.651ZM144.787 160.787C144.53 160.594 144.337 160.209 144.402 159.759C144.402 159.566 144.402 159.309 144.53 158.988C144.53 158.988 145.044 156.932 145.622 153.333C146.137 149.799 146.715 144.723 146.715 138.811C146.715 123.068 142.924 101.092 125.382 84.0642C125.317 84 125.06 83.8715 124.932 83.6787C124.867 83.6144 124.803 83.5502 124.803 83.4217C124.819 83.3251 124.864 83.2355 124.932 83.1646C124.996 83.1004 125.06 83.1004 125.189 83.1004C125.382 83.1004 125.574 83.1646 125.96 83.2289C125.96 83.2289 130.651 84.6426 133.928 88.3052C133.928 88.0482 133.863 87.7912 133.799 87.4699C133.671 86.506 133.414 85.2209 132.964 83.6787C132.064 80.5944 130.458 76.6747 127.502 73.2691C127.502 73.2691 127.116 72.8193 126.859 72.5622C126.795 72.4337 126.731 72.4337 126.731 72.241C126.731 72.1767 126.731 72.1124 126.795 72.1124C126.859 72.0482 126.924 72.0482 126.924 72.0482C127.052 72.0482 127.116 72.1124 127.245 72.1767C127.374 72.241 127.566 72.3695 127.823 72.5622C128.851 73.0763 172.932 94.4096 174.474 137.398V138.04C174.474 139.068 174.281 141.189 172.932 142.41C172.482 142.924 162.072 155.904 146.715 160.916C146.715 160.916 146.265 161.108 145.751 161.108C145.365 161.044 145.044 160.98 144.787 160.787ZM177.944 130.458C177.815 130.137 177.751 129.751 177.751 129.173C176.723 87.7912 131.357 61.7028 119.984 55.8554L117.478 54.5703L116.707 54.1847H117.606H117.735C123.711 54.1847 127.309 57.7831 128.402 59.004C128.402 57.9116 128.209 56.755 127.952 55.9197C127.759 55.0201 127.502 54.4418 127.502 54.4418L127.374 54.0562L127.759 54.1847C132.514 55.9839 138.618 56.6265 144.659 56.5622C150.442 56.5622 156.161 55.9839 160.402 55.4699C164.643 54.8916 167.406 54.3775 167.406 54.3775H168.048C170.49 54.3775 171.261 55.7269 171.325 55.9839C176.98 62.2811 184.048 76.996 185.205 94.6024C185.331 96.742 185.396 98.8848 185.398 101.028C185.398 116.514 181.671 127.759 179.486 130.394C179.165 130.779 178.908 131.036 178.522 131.036C178.265 130.972 178.072 130.779 177.944 130.458Z" fill="#0064B1"/>
<path d="M81.3011 14.4096C81.3011 14.3454 81.3654 14.3454 81.3654 14.2811C80.8513 14.4096 71.7911 17.1084 69.1566 30.8594C69.1566 30.8594 69.1566 31.1165 69.2851 30.8594C70.1204 29.51 72.9477 25.2691 75.518 26.49C75.518 26.49 75.518 26.3615 75.5823 26.2329C75.6465 25.1406 76.5461 20.3213 81.3011 14.4096ZM74.3614 139.068C72.4337 135.149 59.8393 107.711 59.8393 107.711C55.9196 108.932 51.1003 105.783 51.1003 105.783C57.269 122.169 71.7911 136.562 74.1686 139.133L74.2329 139.197C74.6184 139.647 74.6184 139.454 74.6184 139.454C74.4899 139.39 74.4256 139.261 74.3614 139.068ZM61.8955 49.751C50.5863 75.6466 76.0963 86.3133 76.4176 86.4418L75.0682 80.4659L74.2971 77.0602C73.6546 76.8675 73.0762 76.6104 72.4979 76.3534C72.3052 76.2892 72.1124 76.1606 71.9196 76.0964C71.6626 75.9679 71.4698 75.8394 71.2128 75.7751C60.0963 69.8635 61.1244 55.6627 61.8313 51.0361V50.9076C61.8313 50.7791 61.8955 50.6506 61.8955 50.5221C61.9598 50.0723 62.024 49.8153 62.024 49.6225V49.494C62.0883 49.237 61.9598 49.6225 61.8955 49.751Z" fill="#061922"/>
<path d="M78.6668 122.683L76.8033 90.1044L87.727 126.41C87.7912 126.41 84.1929 117.863 78.6668 122.683ZM79.3736 29.0603L81.8153 48.5302C81.8153 48.5302 82.972 53.8635 75.7109 45.8956C80.98 56.6908 87.7912 59.0683 87.7912 59.0683L79.4378 28.6105C79.3736 28.6747 79.3093 28.739 79.3736 29.0603ZM67.7431 64.5944C67.0362 62.988 66.7792 61.5101 66.7792 60.2249C66.7792 55.4699 70.2491 52.8354 70.2491 52.8354L70.3776 52.7711C70.3776 52.8354 70.1848 49.751 70.5061 44.8675C67.6788 48.98 61.7671 58.747 68.8997 66.3936C68.7712 66.2651 68.7069 66.0723 68.5784 65.9438C68.1929 65.3655 67.9358 64.9799 67.7431 64.5944Z" fill="#BBC4CA"/>
<path d="M75.1327 68.5783C73.9118 66.4579 70.8275 59.7109 70.3777 52.8996V52.7711L70.2492 52.8354C70.2492 52.8354 66.7793 55.5342 66.7793 60.2249C66.7793 61.5101 67.0363 62.988 67.7432 64.5944C67.9359 64.98 68.1929 65.4298 68.5785 65.9438C68.6427 66.0723 68.7713 66.2008 68.8998 66.3936C69.0283 66.5864 69.1568 66.7149 69.3496 66.9077C70.5705 68.1928 72.5624 69.5422 75.9038 69.6707C75.8395 69.6707 75.5183 69.2852 75.1327 68.5783Z" fill="#061922"/>
<path d="M85.0283 130.394C86.185 130.394 87.0203 131.422 87.7271 132.9C88.434 134.378 89.0123 136.241 89.4621 138.169C90.0404 140.546 90.3617 142.924 90.5545 144.337V145.751C90.8115 144.209 93.1247 128.98 85.3496 126.795C85.3496 126.795 79.952 125.446 80.3376 136.627C80.4018 136.369 80.4018 136.177 80.4018 135.92C82.1368 132 83.6147 130.394 85.0283 130.394Z" fill="#BBC4CA"/>
<path d="M90.5543 144.273C90.5543 143.823 90.0402 140.482 89.4619 138.104C89.0121 136.177 88.4338 134.313 87.727 132.835C87.0201 131.422 86.1848 130.394 85.0282 130.329C83.6145 130.329 82.1366 131.936 80.3374 135.92C80.2089 136.177 80.2731 136.241 80.2731 136.627L82.9077 142.474C82.9077 142.474 84.4498 126.795 90.4257 145.623C90.5543 145.43 90.6185 145.108 90.5543 144.273Z" fill="#061922"/>
</svg>
