<svg width="200" height="200" viewBox="0 0 200 200" fill="none" xmlns="http://www.w3.org/2000/svg">
<g clip-path="url(#clip0_12129_627)">
<path d="M122.013 4.07243H76.9301C65.9229 4.07243 57 12.9613 57 23.9256V176.018C57 186.992 65.9136 195.896 76.9299 195.928H122.013C133.039 195.896 141.969 187.001 142 176.018V23.9256C141.938 12.9649 133.016 4.10351 122.013 4.07243Z" fill="white"/>
<path d="M110.828 39.1971V39.8195C112.19 40.6112 112.872 41.2898 114.291 42.1382C117.982 44.4574 122.524 48.5297 121.9 62.67C122.922 65.7243 123.376 71.7764 124.341 73.7561C126.272 77.5457 127.521 79.9778 128.089 83.5977C128.089 83.5977 128.657 89.1408 129.338 89.5366C133.142 90.3852 132.063 90.781 132.574 91.4032C133.085 92.0252 135.357 92.1385 135.357 94.1745C136.062 95.1604 136.653 96.2229 137.117 97.3418V23.9256C137.117 15.5759 130.339 8.7984 121.956 8.76732H107.364C109.692 9.6157 110.998 10.5771 111.793 12.1044C113.667 12.274 115.938 16.4598 112.418 22.6814C113.951 23.6996 112.758 25.2268 111.622 27.0365C111.282 27.6021 110.941 28.6203 109.919 28.5637C108.613 31.3352 107.023 34.0502 105.774 34.2198C105.433 34.6722 105.15 35.8601 105.718 36.4257C107.561 37.0661 109.287 38.0024 110.828 39.1971ZM137.23 107.353C134.442 114.283 126.541 117.648 119.585 114.87C112.628 112.092 109.25 104.222 112.039 97.2925C113.664 93.2517 117.145 90.2382 121.389 89.1968C119.799 85.2943 116.506 78.9596 115.54 76.8667C114.575 74.7737 112.361 61.9344 111.906 59.3893C111.793 58.8235 106.058 62.7266 106.058 62.9526C106.058 63.1788 101.743 73.6424 101.573 74.2081C101.402 74.7737 101.459 75.9617 101.459 75.9617C101.459 75.9617 103.389 76.1877 104.525 79.5816C105.661 82.9752 109.011 95.3623 109.011 95.3623C109.011 95.3623 108.102 96.3239 108.045 96.2671C112.361 110.577 110.828 116.742 112.758 120.928C115.2 126.867 115.824 126.075 117.925 131.052C119.402 134.672 121.048 148.926 121.616 149.548C123.944 152.488 125.193 154.751 125.193 156.391C125.193 158.032 123.206 162.953 123.944 165.837C124.398 167.534 124.625 171.267 125.363 172.002C126.102 172.738 126.102 173.416 125.704 174.038C125.551 174.274 125.472 174.55 125.477 174.83C126.782 179.299 130.871 186.991 124.172 191.007H124.342C131.752 189.86 137.207 183.488 137.174 176.018V107.353L137.23 107.353Z" fill="#DA1A32"/>
<path d="M120.083 173.078C117.642 170.927 119.288 169.967 119.174 169.118C117.584 162.5 112.247 158.428 115.029 156.278C114.348 154.073 112.985 151.358 113.042 151.358C104.809 146.663 97.7685 138.971 96.5759 137.839C95.3837 136.708 92.658 134.672 92.2037 133.428C90.2165 131.617 80.5068 117.874 78.2357 112.783L74.2611 112.218C72.4443 104.921 66.4822 98.756 66.3119 91.4594C66.2555 88.688 67.5613 82.7493 68.0723 81.5612C68.5833 80.3736 70.8546 78.3938 70.8546 78.3938V76.4143C62.224 76.6403 64.7224 75.7919 63.2462 72.455C62.224 70.1358 62.9621 69.6268 63.303 68.0431C64.4385 63.292 68.2996 55.9955 69.8895 52.715C70.4006 51.018 72.0471 47.0025 72.0471 47.0025C78.4634 33.9934 80.8481 34.955 88.5135 34.2196L88.9109 33.6538C96.5763 33.3146 95.3271 32.749 96.4058 25.396C95.2703 25.8482 94.9862 23.0768 94.9862 23.0768C94.3618 18.8915 96.1217 19.6833 96.9734 19.6265C97.1437 12.7828 97.8821 10.6333 102.822 8.71053H76.9301C68.5257 8.71053 61.7129 15.4972 61.7129 23.8688V175.961C61.7129 184.343 68.5166 191.146 76.9301 191.177H122.014C116.846 188.405 119.912 183.145 120.083 173.078Z" fill="#00438C"/>
<path d="M85.4564 181.672V154.126H90.8064C93.9163 154.126 95.8221 155.791 95.8221 159.655V163.752C95.8221 166.25 95.053 167.516 93.9832 168.149C95.053 168.882 95.8221 170.114 95.8221 172.213V176.21C95.8221 179.973 93.7825 181.672 90.8064 181.672L85.4564 181.672ZM89.1349 169.714V178.208H90.5389C91.8099 178.208 92.1438 177.542 92.1438 176.242V171.579C92.1438 170.214 91.7095 169.714 90.506 169.714H89.1349V169.714ZM89.1349 157.59V166.683H90.506C91.8099 166.683 92.1438 166.216 92.1438 164.718V159.422C92.1438 158.156 91.743 157.557 90.5389 157.557H89.1349V157.59ZM104.516 176.076H101.172L100.704 181.672H96.9925L100.336 154.126H105.619L108.829 181.672H104.95L104.516 176.076ZM102.878 157.224H102.677C102.443 160.555 101.975 166.351 101.842 168.215L101.406 172.946H104.282L103.847 168.215C103.714 166.317 103.179 160.555 102.878 157.224ZM74.5228 181.672H71.313V154.126H76.3951L80.5082 176.676C80.1735 171.28 79.7057 164.751 79.7057 159.189V154.093H82.9155V181.638H78.2342L74.1211 159.588C74.3888 164.685 74.4893 168.748 74.4893 172.978V181.672H74.5228V181.672Z" fill="white"/>
</g>
<defs>
<clipPath id="clip0_12129_627">
<rect width="85" height="192" fill="white" transform="translate(57 4)"/>
</clipPath>
</defs>
</svg>
