<svg width="200" height="200" viewBox="0 0 200 200" fill="none" xmlns="http://www.w3.org/2000/svg">
<path d="M100 8C124.517 8 147.624 17.5616 165.031 34.9687C182.438 52.3758 192 75.483 192 100C192 150.75 150.75 192 100 192C75.4217 192 52.2532 182.438 34.9074 165.031C17.5616 147.624 8 124.517 8 99.9387C8 75.483 17.6229 52.2532 34.9074 34.9074C52.3758 17.5616 75.483 8 100 8Z" fill="#FFC627"/>
<path d="M100 184.706C146.644 184.706 184.645 146.705 184.645 99.9387C184.645 53.2952 146.644 15.2325 100 15.2325C53.2952 15.2325 15.2938 53.2952 15.2938 99.9387C15.3551 146.705 53.3565 184.706 100 184.706Z" fill="#8B2332"/>
<path d="M21.6069 100C21.6069 56.8501 56.7888 21.6682 100 21.6682C143.211 21.6069 178.393 56.7888 178.393 100C178.393 143.211 143.272 178.393 100.061 178.393C56.7888 178.454 21.6069 143.273 21.6069 100Z" fill="#0D2240"/>
<path d="M161.783 67.2085L163.499 66.2279L157.86 57.5243L156.328 58.6889C146.766 46.6143 129.727 33.1299 113.546 31.1073C125.743 36.6849 139.472 50.9047 147.808 61.8761L138.982 68.1892L140.085 69.7828L100.368 95.5869L60.6502 69.7828L61.7535 68.1892L52.9274 61.7535C61.3244 50.8434 75.0539 36.6236 87.1898 30.9847C71.0086 33.0073 53.9693 46.4304 44.469 58.505L42.8141 57.3404L37.1752 66.044L38.8914 67.0859L38.8301 67.1472C31.8427 80.8768 26.6942 102.145 31.7202 117.652C31.5976 104.229 38.8301 85.7802 45.2658 73.4604L54.7661 78.8541L55.7468 77.3831L92.6449 100.552L43.9787 132.179L43.9174 132.056L37.4204 133.772L37.4817 133.956C37.1752 135.121 37.7881 137.45 39.1366 139.595C40.485 141.801 42.2625 143.211 43.5496 143.456L43.6722 143.64L48.024 138.369L47.9627 138.247L144.927 77.2605L145.908 78.7315L155.408 73.3378C161.844 85.6576 169.077 104.107 169.015 117.53C173.98 102.207 168.77 80.938 161.783 67.2085ZM156.757 132.117L156.696 132.24L111.891 103.126L104.045 107.784L152.65 138.43L152.589 138.553L156.879 143.824L157.002 143.64C158.289 143.395 160.067 141.985 161.415 139.779C162.763 137.634 163.376 135.366 163.07 134.14L163.131 133.956L156.757 132.117ZM108.029 38.8914L104.658 43.2432L100 32.1492V83.5123L115.63 63.4697L131.382 67.515L108.029 38.8914Z" fill="#FFC627"/>
<path d="M108.029 50.9047V38.8914L104.658 43.2432L108.029 50.9047ZM100 32.1492L71.6216 66.7795L84.064 63.531L100 83.5123V32.1492Z" fill="white"/>
<path d="M83.3285 161.721C87.3126 157.86 92.4611 155.531 98.0387 154.979V147.256H76.8315C77.2606 152.895 79.5897 157.921 83.3285 161.721ZM97.9162 168.831V159.76C93.8096 160.25 89.9481 161.967 86.8835 164.847C90.1933 166.993 93.9321 168.402 97.9162 168.831Z" fill="#FFC627"/>
<path d="M102.636 121.636V130.708C106.742 130.217 110.604 128.501 113.668 125.682C110.481 123.475 106.742 122.065 102.636 121.636ZM117.346 128.807C113.362 132.608 108.213 134.998 102.697 135.488V142.476H123.904C123.23 137.266 120.839 132.424 117.346 128.807ZM97.9161 130.708V121.636C93.8707 122.065 90.0706 123.475 86.9447 125.682C90.0706 128.501 93.8707 130.279 97.9161 130.708Z" fill="white"/>
<path d="M102.636 147.256V154.979C108.152 155.531 113.239 157.86 117.285 161.721C120.962 157.921 123.414 152.895 123.843 147.256H102.636Z" fill="#FFC627"/>
<path d="M76.7703 142.476H97.9162V135.488C92.3998 134.998 87.3126 132.546 83.206 128.807C79.7736 132.424 77.3832 137.266 76.7703 142.476Z" fill="white"/>
<path d="M102.636 168.831C106.681 168.402 110.481 166.993 113.668 164.786C110.604 161.905 106.742 160.189 102.636 159.699V168.831Z" fill="#FFC627"/>
</svg>
