<svg width="200" height="200" viewBox="0 0 200 200" fill="none" xmlns="http://www.w3.org/2000/svg">
<path d="M196 86.4515L194.342 85.4276C168.892 70.6059 131.935 63.2438 114.968 63H114.724C111.945 63 109.995 63.9751 108.971 65.8766C108.093 67.4855 108.191 69.0945 108.63 70.5084C108.337 70.1671 107.898 69.8258 107.46 69.4845C106.094 68.4606 104.486 67.6318 104.486 67.6318C104.486 67.6318 104.681 68.9482 104.193 68.8019C103.949 68.7044 103.657 68.6069 103.364 68.4606C101.999 67.8268 100 66.6079 100 66.6079C100 66.6079 97.9523 67.8268 96.5871 68.4606C96.2946 68.6069 96.002 68.7044 95.7583 68.8019C95.2707 68.9482 95.4657 67.6318 95.4657 67.6318C95.4657 67.6318 93.8568 68.4606 92.4916 69.4845C92.0528 69.8258 91.614 70.1671 91.3215 70.5084C91.7603 69.1432 91.8578 67.5343 90.9802 65.8766C89.9563 63.9751 88.0548 63 85.227 63H84.9832C68.065 63.2925 31.1082 70.6059 5.65769 85.4276L4 86.4515C4 86.4515 6.48654 92.8385 12.6785 94.6425L11.8497 95.0325C11.8497 95.0325 15.3601 100.688 20.772 101.858L19.7481 102.297C19.7481 102.297 23.551 108.489 30.9619 109.757L29.8893 110.293C29.8893 110.293 35.1549 115.997 43.2971 116.534L42.127 117.411C42.127 117.411 47.4901 120.971 55.4373 121.897L54.1696 123.018C54.1696 123.018 68.2113 128.138 79.9614 123.896C83.228 132.038 91.1752 137.596 100.098 137.596C109.02 137.596 117.016 132.087 120.234 123.896C131.984 128.186 146.025 123.018 146.025 123.018L144.758 121.897C152.656 121.019 158.068 117.411 158.068 117.411L156.898 116.534C164.991 116.046 170.306 110.293 170.306 110.293L169.233 109.757C176.644 108.44 180.447 102.297 180.447 102.297L179.423 101.858C184.835 100.688 188.345 95.0325 188.345 95.0325L187.517 94.6425C193.513 92.8385 196 86.4515 196 86.4515Z" fill="#B4975A"/>
<path d="M193.318 87.2316C168.404 72.7024 131.837 65.3403 114.919 65.0477C112.871 64.999 111.506 65.4865 110.775 66.8517C109.605 69.0457 111.263 71.5323 111.945 72.6049C113.457 74.8964 115.504 78.4556 115.504 82.7461C115.504 91.0833 108.776 97.2265 100.487 97.2265H99.9512H99.4149C91.1264 97.2265 84.3981 91.0833 84.3981 82.7461C84.3981 78.4556 86.4458 74.8964 87.9573 72.6049C88.6886 71.5323 90.3463 69.0945 89.1274 66.8517C88.3961 65.5353 87.0309 65.0477 84.9832 65.0477C68.0649 65.3403 31.4982 72.7024 6.58398 87.2316C6.58398 87.2803 10.582 94.1062 18.4804 93.5211C17.2615 94.1062 16.0426 94.74 14.8237 95.3738C14.8237 95.4713 18.4804 101.371 27.2077 100.542L22.8684 102.638C22.8684 102.736 27.0614 108.587 36.2762 108.392L32.8633 110.147C32.8633 110.196 38.9578 116.046 48.7577 114.437L45.3448 116.924C45.3448 116.924 52.5606 120.873 61.0441 119.654L57.7775 122.189C57.7775 122.092 70.7465 125.749 80.0101 121.653C87.9573 118.143 92.394 109.562 93.4179 107.416C94.9781 107.758 96.3433 107.953 97.4159 108.099C97.4159 108.197 99.1223 108.343 99.9512 108.343C100.78 108.392 102.486 108.245 102.486 108.099C103.51 107.953 104.924 107.758 106.484 107.416C107.508 109.562 111.896 118.191 119.892 121.653C129.156 125.749 142.125 122.043 142.125 122.189L138.858 119.654C147.342 120.873 154.558 116.924 154.558 116.924C153.29 116.046 152.217 115.217 151.145 114.437C160.945 116.046 167.039 110.196 167.039 110.147C167.039 110.147 165.771 109.464 163.626 108.392C172.841 108.538 176.985 102.687 177.034 102.638L172.695 100.542C181.422 101.42 185.03 95.4713 185.079 95.3738L181.422 93.5211C189.369 94.0574 193.318 87.2803 193.318 87.2316Z" fill="#0A2240"/>
<path d="M92.8328 102.98C92.8328 102.98 70.6002 95.5201 80.2538 71.8248C80.2538 71.8248 56.7048 72.7999 24.4773 85.8177L20.9181 87.2316C19.6017 87.7192 17.4564 88.548 14.4336 87.0853C14.4336 87.0853 43.9308 71.6785 81.814 68.0706C86.7871 67.583 87.4697 68.3631 86.1533 70.2159C85.0806 71.8248 71.5265 89.0356 92.8328 102.98Z" fill="white"/>
<path d="M73.0868 78.5531C54.0233 81.0396 35.3499 87.6704 35.3499 87.6704C38.519 93.3261 47.1487 90.937 47.1487 90.937C63.2869 86.354 70.5027 84.7938 72.843 84.355C72.7455 82.5511 72.7942 80.6496 73.0868 78.5531Z" fill="#B4975A"/>
<path d="M73.1842 87.8167C70.0151 88.4505 56.656 91.1808 43.1995 96.2027C43.1995 96.2027 47.4412 101.029 55.8759 98.6404C62.9455 96.6415 72.0628 93.7161 74.7444 92.8873C74.0618 91.3758 73.5255 89.6694 73.1842 87.8167Z" fill="#B4975A"/>
<path d="M76.1584 95.5688C73.2818 96.4952 58.8989 101.176 52.8044 103.516C52.8044 103.516 56.2661 108.197 66.3585 104.247L78.9375 99.128C77.9136 98.0554 76.9873 96.8852 76.1584 95.5688Z" fill="#B4975A"/>
<path d="M81.1802 101.127C78.6449 102.2 69.3325 106.295 63.9207 108.879C63.9207 108.879 70.6977 112.195 79.2787 106.929L84.5931 103.419C83.4229 102.785 82.2528 102.053 81.1802 101.127Z" fill="#B4975A"/>
<path d="M87.1771 104.832C85.4707 105.905 78.4011 110.342 74.9395 112.926C74.9395 112.926 80.7901 115.364 86.8358 109.659L90.4438 106.149C89.3711 105.808 88.2985 105.369 87.1771 104.832Z" fill="#B4975A"/>
<path d="M107.167 102.98C107.167 102.98 129.4 95.5201 119.746 71.8248C119.746 71.8248 143.295 72.7999 175.523 85.8177L179.082 87.2316C180.398 87.7192 182.543 88.548 185.566 87.0853C185.566 87.0853 156.069 71.6785 118.186 68.0706C113.164 67.583 112.53 68.3631 113.847 70.2159C114.968 71.8248 128.473 89.0356 107.167 102.98Z" fill="white"/>
<path d="M126.913 78.5531C145.977 81.0396 164.65 87.6704 164.65 87.6704C161.481 93.3261 152.851 90.937 152.851 90.937C136.713 86.354 129.497 84.7938 127.157 84.355C127.303 82.5511 127.206 80.6496 126.913 78.5531Z" fill="#B4975A"/>
<path d="M126.816 87.8167C129.985 88.4505 143.344 91.1808 156.8 96.2027C156.8 96.2027 152.559 101.029 144.124 98.6404C137.054 96.6415 127.937 93.7161 125.255 92.8873C125.938 91.3758 126.474 89.6694 126.816 87.8167Z" fill="#B4975A"/>
<path d="M123.842 95.5688C126.718 96.4952 141.101 101.176 147.196 103.516C147.196 103.516 143.734 108.197 133.641 104.247L121.062 99.128C122.086 98.0554 123.013 96.8852 123.842 95.5688Z" fill="#B4975A"/>
<path d="M118.82 101.127C121.355 102.2 130.667 106.295 136.079 108.879C136.079 108.879 129.302 112.195 120.721 106.929L115.407 103.419C116.577 102.785 117.747 102.053 118.82 101.127Z" fill="#B4975A"/>
<path d="M112.823 104.832C114.529 105.905 121.599 110.342 125.06 112.926C125.06 112.926 119.21 115.364 113.164 109.659L109.556 106.149C110.629 105.808 111.701 105.369 112.823 104.832Z" fill="#B4975A"/>
<path d="M118.235 115.9C118.235 125.992 110.092 134.135 100 134.135C89.9076 134.135 81.7654 125.992 81.7654 115.9C81.7654 105.856 89.9076 97.6653 100 97.6653C110.044 97.7141 118.235 105.856 118.235 115.9Z" fill="white"/>
<path d="M114.432 119.703C114.432 127.699 107.947 134.183 99.9998 134.183C92.0039 134.183 85.5681 127.699 85.5681 119.703C85.5681 111.707 92.0526 105.271 99.9998 105.271C107.996 105.222 114.432 111.707 114.432 119.703Z" fill="#B4975A"/>
<path d="M99.9999 96.2514C89.1761 96.2514 80.3513 105.076 80.3513 115.9C80.3513 126.724 89.1761 135.549 99.9999 135.549C110.824 135.549 119.648 126.724 119.648 115.9C119.648 105.076 110.824 96.2514 99.9999 96.2514ZM116.479 112.731C115.26 117.606 111.945 121.556 107.606 123.75C107.947 121.361 109.02 118.972 110.092 116.485C111.652 112.926 113.408 108.977 112.628 104.832C114.578 107.075 115.943 109.757 116.479 112.731ZM91.3701 101.517C93.5641 100.201 96.0994 99.3718 98.781 99.1767V125.602C97.457 125.51 96.1482 125.264 94.8805 124.871C94.7343 121.604 93.4179 118.533 92.1014 115.559C89.9074 110.634 88.0547 106.295 91.3701 101.517ZM94.7343 127.358C96.0507 127.699 97.3671 127.943 98.781 128.04V132.721C96.587 132.574 94.4905 131.989 92.589 131.063C93.5154 130.137 94.4905 128.918 94.7343 127.358ZM101.219 127.991C102.633 127.894 103.949 127.699 105.265 127.309C105.558 128.869 106.484 130.137 107.411 130.965C105.509 131.892 103.413 132.477 101.219 132.623V127.991ZM105.119 124.822C103.852 125.212 102.584 125.505 101.219 125.602V99.1767C103.9 99.3718 106.436 100.201 108.63 101.517C111.945 106.344 110.092 110.634 107.898 115.559C106.582 118.533 105.265 121.556 105.119 124.822ZM87.3234 104.881C86.5921 109.025 88.2985 112.926 89.8587 116.534C90.9313 119.02 92.0039 121.409 92.3452 123.847C88.006 121.702 84.6906 117.704 83.4717 112.731C84.0568 109.757 85.4219 107.075 87.3234 104.881ZM83.4717 118.874C85.5682 122.336 88.7373 125.017 92.4427 126.529C92.4427 126.626 92.4427 126.772 92.394 126.87C92.199 128.138 91.1751 129.162 90.4437 129.698C86.8358 127.211 84.2518 123.311 83.4717 118.874ZM109.605 129.698C108.873 129.113 107.85 128.089 107.655 126.87C107.655 126.772 107.606 126.626 107.606 126.529C111.311 124.969 114.432 122.287 116.577 118.874C115.748 123.36 113.164 127.211 109.605 129.698Z" fill="#0A2240"/>
<path d="M105.851 70.7522C105.851 70.7522 105.704 71.386 105.314 71.386C104.924 71.386 102.584 70.2646 101.463 69.6308L100.049 68.8507L98.5373 69.6308C97.4159 70.2646 95.0269 71.386 94.6856 71.386C94.2955 71.386 94.1492 70.7522 94.1492 70.7522C94.1492 70.7522 87.9573 74.5064 87.9573 84.7938C87.9573 92.4972 91.9552 95.9589 91.9552 95.9589L92.4916 98.1529H99.3174H100.683H107.508L108.045 95.9589C108.045 95.9589 112.043 92.4972 112.043 84.7938C112.043 74.5064 105.851 70.7522 105.851 70.7522Z" fill="#0A2240"/>
<path d="M108.776 82.2097C108.776 79.0406 107.46 76.4078 106.094 74.8964C106.094 74.8964 106.046 75.8227 104.534 74.7989C103.218 73.9213 101.658 73.385 99.9999 73.385C98.3422 73.385 96.782 73.9213 95.4656 74.7989C94.003 75.8227 93.9054 74.8964 93.9054 74.8964C92.4915 76.4566 91.2239 79.0406 91.2239 82.2097C91.2239 84.8426 91.8577 86.159 92.1015 86.549C93.4179 89.9132 96.4407 92.3022 99.9999 92.3022C103.51 92.3022 106.533 89.9619 107.85 86.6465C107.947 86.549 108.776 85.2814 108.776 82.2097Z" fill="white"/>
<path d="M103.315 89.4256C103.315 89.4256 103.315 89.3768 103.267 89.3768C103.267 89.3768 102.389 87.7191 103.852 86.5978C103.852 86.5978 107.069 87.2803 107.167 82.9898C107.167 82.9898 107.069 82.551 107.557 81.6247C107.557 81.6247 106.728 80.8446 104.924 82.2098C103.12 83.5749 102.145 87.4266 101.17 86.5003C100.195 85.6227 100.536 80.6008 100.049 80.4058C99.5611 80.6008 99.9024 85.6227 98.9273 86.5003C97.9521 87.4266 96.977 83.5749 95.1731 82.2098C93.3691 80.8446 92.5403 81.6247 92.5403 81.6247C92.9791 82.551 92.9303 82.9898 92.9303 82.9898C93.0278 87.2803 96.2457 86.5978 96.2457 86.5978C97.6596 87.7191 96.8308 89.3768 96.8308 89.3768C96.8308 89.3768 96.8308 89.4256 96.782 89.4256C92.9303 85.2814 90.6875 85.8177 91.7602 90.4982C92.8328 95.0813 97.0258 114.681 97.7084 119.215C97.6109 123.311 97.1233 124.773 97.0258 125.066L96.587 125.895L97.0745 126.821C97.8059 127.894 98.3422 129.113 98.4885 129.552L100.097 133.598L101.658 129.552C101.853 129.064 102.34 127.894 103.071 126.821L103.559 125.944L103.12 125.066C102.974 124.773 102.535 123.36 102.438 119.41C102.974 115.315 107.264 95.13 108.386 90.4495C109.41 85.8177 107.167 85.2814 103.315 89.4256Z" fill="#0A2240"/>
<path d="M97.367 109.854C96.0018 102.541 94.8805 97.129 94.0029 93.2285C93.3203 90.2545 95.1242 91.4246 96.0993 93.3261L97.367 109.854ZM102.633 109.854L105.997 93.2285C106.679 90.2545 104.875 91.4246 103.9 93.3261L102.633 109.854Z" fill="#CE0E2D"/>
<path d="M95.1731 85.1351C94.8806 85.0376 94.7343 84.7938 94.8318 84.5013C94.8805 84.4038 94.9293 84.3063 95.0268 84.2575L94.393 83.6724C94.393 83.6724 93.9542 85.7689 95.8069 85.5739C95.8069 85.5739 95.7582 85.3789 95.6119 85.1351C95.4656 85.1839 95.3194 85.1839 95.1731 85.1351Z" fill="#CE0E2D"/>
<path d="M105.656 83.6724C105.412 83.8675 105.168 84.0625 105.022 84.2575C105.119 84.3063 105.168 84.4038 105.217 84.5013C105.314 84.7938 105.119 85.0376 104.876 85.1351C104.729 85.1839 104.583 85.1351 104.486 85.0864C104.339 85.3301 104.291 85.5252 104.291 85.5252C106.094 85.7689 105.656 83.6724 105.656 83.6724Z" fill="#CE0E2D"/>
<path d="M100.878 112.585C101.463 101.322 102.389 93.3261 102.389 92.3022C102.389 91.9609 102.34 91.4734 102.194 90.9858L101.56 93.1311L101.365 89.3281C101.024 88.8893 100.585 88.4993 100 88.0605H99.9513C99.3662 88.4505 98.9762 88.8893 98.6349 89.3281L98.4399 93.1311L97.7573 90.9858C97.611 91.4734 97.5623 91.9609 97.5623 92.3022C97.5623 93.2773 98.4399 101.273 99.0737 112.585C99.6588 123.847 98.2936 125.944 98.2936 125.944C99.1224 127.114 100 129.21 100 129.21C100 129.21 100.878 127.114 101.706 125.944C101.706 125.944 100.293 123.847 100.878 112.585Z" fill="#CE0E2D"/>
<path d="M193.318 87.2316C168.404 72.7024 131.837 65.3403 114.919 65.0477C112.871 64.999 111.506 65.4865 110.775 66.8517C109.605 69.0457 111.263 71.5323 111.945 72.6049C113.457 74.8964 115.504 78.4556 115.504 82.7461C115.504 91.0833 108.776 97.2265 100.487 97.2265H99.9512H99.4149C91.1264 97.2265 84.3981 91.0833 84.3981 82.7461C84.3981 78.4556 86.4458 74.8964 87.9573 72.6049C88.6886 71.5323 90.3463 69.0945 89.1274 66.8517C88.3961 65.5353 87.0309 65.0477 84.9832 65.0477C68.0649 65.3403 31.4982 72.7024 6.58398 87.2316C6.58398 87.2803 10.582 94.1062 18.4804 93.5211C17.2615 94.1062 16.0426 94.74 14.8237 95.3738C14.8237 95.4713 18.4804 101.371 27.2077 100.542L22.8684 102.638C22.8684 102.736 27.0614 108.587 36.2762 108.392L32.8633 110.147C32.8633 110.196 38.9578 116.046 48.7577 114.437L45.3448 116.924C45.3448 116.924 52.5606 120.873 61.0441 119.654L57.7775 122.189C57.7775 122.092 70.7465 125.749 80.0101 121.653C87.9573 118.143 92.394 109.562 93.4179 107.416C94.9781 107.758 96.3433 107.953 97.4159 108.099C97.4159 108.197 99.1223 108.343 99.9512 108.343C100.78 108.392 102.486 108.245 102.486 108.099C103.51 107.953 104.924 107.758 106.484 107.416C107.508 109.562 111.896 118.191 119.892 121.653C129.156 125.749 142.125 122.043 142.125 122.189L138.858 119.654C147.342 120.873 154.558 116.924 154.558 116.924C153.29 116.046 152.217 115.217 151.145 114.437C160.945 116.046 167.039 110.196 167.039 110.147C167.039 110.147 165.771 109.464 163.626 108.392C172.841 108.538 176.985 102.687 177.034 102.638L172.695 100.542C181.422 101.42 185.03 95.4713 185.079 95.3738L181.422 93.5211C189.369 94.0574 193.318 87.2803 193.318 87.2316Z" fill="#0A2240"/>
<path d="M92.8328 102.98C92.8328 102.98 70.6002 95.5201 80.2538 71.8248C80.2538 71.8248 56.7048 72.7999 24.4773 85.8177L20.9181 87.2316C19.6017 87.7192 17.4564 88.548 14.4336 87.0853C14.4336 87.0853 43.9308 71.6785 81.814 68.0706C86.7871 67.583 87.4697 68.3631 86.1533 70.2159C85.0806 71.8248 71.5265 89.0356 92.8328 102.98Z" fill="white"/>
<path d="M73.0868 78.5531C54.0233 81.0396 35.3499 87.6704 35.3499 87.6704C38.519 93.3261 47.1487 90.937 47.1487 90.937C63.2869 86.354 70.5027 84.7938 72.843 84.355C72.7455 82.5511 72.7942 80.6496 73.0868 78.5531Z" fill="#B4975A"/>
<path d="M73.1842 87.8167C70.0151 88.4505 56.656 91.1808 43.1995 96.2027C43.1995 96.2027 47.4412 101.029 55.8759 98.6404C62.9455 96.6415 72.0628 93.7161 74.7444 92.8873C74.0618 91.3758 73.5255 89.6694 73.1842 87.8167Z" fill="#B4975A"/>
<path d="M76.1584 95.5688C73.2818 96.4952 58.8989 101.176 52.8044 103.516C52.8044 103.516 56.2661 108.197 66.3585 104.247L78.9375 99.128C77.9136 98.0554 76.9873 96.8852 76.1584 95.5688Z" fill="#B4975A"/>
<path d="M81.1802 101.127C78.6449 102.2 69.3325 106.295 63.9207 108.879C63.9207 108.879 70.6977 112.195 79.2787 106.929L84.5931 103.419C83.4229 102.785 82.2528 102.053 81.1802 101.127Z" fill="#B4975A"/>
<path d="M87.1771 104.832C85.4707 105.905 78.4011 110.342 74.9395 112.926C74.9395 112.926 80.7901 115.364 86.8358 109.659L90.4438 106.149C89.3711 105.808 88.2985 105.369 87.1771 104.832Z" fill="#B4975A"/>
<path d="M107.167 102.98C107.167 102.98 129.4 95.5201 119.746 71.8248C119.746 71.8248 143.295 72.7999 175.523 85.8177L179.082 87.2316C180.398 87.7192 182.543 88.548 185.566 87.0853C185.566 87.0853 156.069 71.6785 118.186 68.0706C113.164 67.583 112.53 68.3631 113.847 70.2159C114.968 71.8248 128.473 89.0356 107.167 102.98Z" fill="white"/>
<path d="M126.913 78.5531C145.977 81.0396 164.65 87.6704 164.65 87.6704C161.481 93.3261 152.851 90.937 152.851 90.937C136.713 86.354 129.497 84.7938 127.157 84.355C127.303 82.5511 127.206 80.6496 126.913 78.5531Z" fill="#B4975A"/>
<path d="M126.816 87.8167C129.985 88.4505 143.344 91.1808 156.8 96.2027C156.8 96.2027 152.559 101.029 144.124 98.6404C137.054 96.6415 127.937 93.7161 125.255 92.8873C125.938 91.3758 126.474 89.6694 126.816 87.8167Z" fill="#B4975A"/>
<path d="M123.842 95.5688C126.718 96.4952 141.101 101.176 147.196 103.516C147.196 103.516 143.734 108.197 133.641 104.247L121.062 99.128C122.086 98.0554 123.013 96.8852 123.842 95.5688Z" fill="#B4975A"/>
<path d="M118.82 101.127C121.355 102.2 130.667 106.295 136.079 108.879C136.079 108.879 129.302 112.195 120.721 106.929L115.407 103.419C116.577 102.785 117.747 102.053 118.82 101.127Z" fill="#B4975A"/>
<path d="M112.823 104.832C114.529 105.905 121.599 110.342 125.06 112.926C125.06 112.926 119.21 115.364 113.164 109.659L109.556 106.149C110.629 105.808 111.701 105.369 112.823 104.832Z" fill="#B4975A"/>
<path d="M118.235 115.9C118.235 125.992 110.092 134.135 100 134.135C89.9076 134.135 81.7654 125.992 81.7654 115.9C81.7654 105.856 89.9076 97.6653 100 97.6653C110.044 97.7141 118.235 105.856 118.235 115.9Z" fill="white"/>
<path d="M114.432 119.703C114.432 127.699 107.947 134.183 99.9998 134.183C92.0039 134.183 85.5681 127.699 85.5681 119.703C85.5681 111.707 92.0526 105.271 99.9998 105.271C107.996 105.222 114.432 111.707 114.432 119.703Z" fill="#B4975A"/>
<path d="M99.9999 96.2514C89.1761 96.2514 80.3513 105.076 80.3513 115.9C80.3513 126.724 89.1761 135.549 99.9999 135.549C110.824 135.549 119.648 126.724 119.648 115.9C119.648 105.076 110.824 96.2514 99.9999 96.2514ZM116.479 112.731C115.26 117.606 111.945 121.556 107.606 123.75C107.947 121.361 109.02 118.972 110.092 116.485C111.652 112.926 113.408 108.977 112.628 104.832C114.578 107.075 115.943 109.757 116.479 112.731ZM91.3701 101.517C93.5641 100.201 96.0994 99.3718 98.781 99.1767V125.602C97.457 125.51 96.1482 125.264 94.8805 124.871C94.7343 121.604 93.4179 118.533 92.1014 115.559C89.9074 110.634 88.0547 106.295 91.3701 101.517ZM94.7343 127.358C96.0507 127.699 97.3671 127.943 98.781 128.04V132.721C96.587 132.574 94.4905 131.989 92.589 131.063C93.5154 130.137 94.4905 128.918 94.7343 127.358ZM101.219 127.991C102.633 127.894 103.949 127.699 105.265 127.309C105.558 128.869 106.484 130.137 107.411 130.965C105.509 131.892 103.413 132.477 101.219 132.623V127.991ZM105.119 124.822C103.852 125.212 102.584 125.505 101.219 125.602V99.1767C103.9 99.3718 106.436 100.201 108.63 101.517C111.945 106.344 110.092 110.634 107.898 115.559C106.582 118.533 105.265 121.556 105.119 124.822ZM87.3234 104.881C86.5921 109.025 88.2985 112.926 89.8587 116.534C90.9313 119.02 92.0039 121.409 92.3452 123.847C88.006 121.702 84.6906 117.704 83.4717 112.731C84.0568 109.757 85.4219 107.075 87.3234 104.881ZM83.4717 118.874C85.5682 122.336 88.7373 125.017 92.4427 126.529C92.4427 126.626 92.4427 126.772 92.394 126.87C92.199 128.138 91.1751 129.162 90.4437 129.698C86.8358 127.211 84.2518 123.311 83.4717 118.874ZM109.605 129.698C108.873 129.113 107.85 128.089 107.655 126.87C107.655 126.772 107.606 126.626 107.606 126.529C111.311 124.969 114.432 122.287 116.577 118.874C115.748 123.36 113.164 127.211 109.605 129.698Z" fill="#0A2240"/>
<path d="M105.851 70.7522C105.851 70.7522 105.704 71.386 105.314 71.386C104.924 71.386 102.584 70.2646 101.463 69.6308L100.049 68.8507L98.5373 69.6308C97.4159 70.2646 95.0269 71.386 94.6856 71.386C94.2955 71.386 94.1492 70.7522 94.1492 70.7522C94.1492 70.7522 87.9573 74.5064 87.9573 84.7938C87.9573 92.4972 91.9552 95.9589 91.9552 95.9589L92.4916 98.1529H99.3174H100.683H107.508L108.045 95.9589C108.045 95.9589 112.043 92.4972 112.043 84.7938C112.043 74.5064 105.851 70.7522 105.851 70.7522Z" fill="#0A2240"/>
<path d="M108.776 82.2097C108.776 79.0406 107.46 76.4078 106.094 74.8964C106.094 74.8964 106.046 75.8227 104.534 74.7989C103.218 73.9213 101.658 73.385 99.9999 73.385C98.3422 73.385 96.782 73.9213 95.4656 74.7989C94.003 75.8227 93.9054 74.8964 93.9054 74.8964C92.4915 76.4566 91.2239 79.0406 91.2239 82.2097C91.2239 84.8426 91.8577 86.159 92.1015 86.549C93.4179 89.9132 96.4407 92.3022 99.9999 92.3022C103.51 92.3022 106.533 89.9619 107.85 86.6465C107.947 86.549 108.776 85.2814 108.776 82.2097Z" fill="white"/>
<path d="M103.315 89.4256C103.315 89.4256 103.315 89.3768 103.267 89.3768C103.267 89.3768 102.389 87.7191 103.852 86.5978C103.852 86.5978 107.069 87.2803 107.167 82.9898C107.167 82.9898 107.069 82.551 107.557 81.6247C107.557 81.6247 106.728 80.8446 104.924 82.2098C103.12 83.5749 102.145 87.4266 101.17 86.5003C100.195 85.6227 100.536 80.6008 100.049 80.4058C99.5611 80.6008 99.9024 85.6227 98.9273 86.5003C97.9521 87.4266 96.977 83.5749 95.1731 82.2098C93.3691 80.8446 92.5403 81.6247 92.5403 81.6247C92.9791 82.551 92.9303 82.9898 92.9303 82.9898C93.0278 87.2803 96.2457 86.5978 96.2457 86.5978C97.6596 87.7191 96.8308 89.3768 96.8308 89.3768C96.8308 89.3768 96.8308 89.4256 96.782 89.4256C92.9303 85.2814 90.6875 85.8177 91.7602 90.4982C92.8328 95.0813 97.0258 114.681 97.7084 119.215C97.6109 123.311 97.1233 124.773 97.0258 125.066L96.587 125.895L97.0745 126.821C97.8059 127.894 98.3422 129.113 98.4885 129.552L100.097 133.598L101.658 129.552C101.853 129.064 102.34 127.894 103.071 126.821L103.559 125.944L103.12 125.066C102.974 124.773 102.535 123.36 102.438 119.41C102.974 115.315 107.264 95.13 108.386 90.4495C109.41 85.8177 107.167 85.2814 103.315 89.4256Z" fill="#0A2240"/>
<path d="M97.367 109.854C96.0018 102.541 94.8805 97.129 94.0029 93.2285C93.3203 90.2545 95.1242 91.4246 96.0993 93.3261L97.367 109.854ZM102.633 109.854L105.997 93.2285C106.679 90.2545 104.875 91.4246 103.9 93.3261L102.633 109.854Z" fill="#CE0E2D"/>
<path d="M95.1731 85.1351C94.8806 85.0376 94.7343 84.7938 94.8318 84.5013C94.8805 84.4038 94.9293 84.3063 95.0268 84.2575L94.393 83.6724C94.393 83.6724 93.9542 85.7689 95.8069 85.5739C95.8069 85.5739 95.7582 85.3789 95.6119 85.1351C95.4656 85.1839 95.3194 85.1839 95.1731 85.1351Z" fill="#CE0E2D"/>
<path d="M105.656 83.6724C105.412 83.8675 105.168 84.0625 105.022 84.2575C105.119 84.3063 105.168 84.4038 105.217 84.5013C105.314 84.7938 105.119 85.0376 104.876 85.1351C104.729 85.1839 104.583 85.1351 104.486 85.0864C104.339 85.3301 104.291 85.5252 104.291 85.5252C106.094 85.7689 105.656 83.6724 105.656 83.6724Z" fill="#CE0E2D"/>
<path d="M100.878 112.585C101.463 101.322 102.389 93.3261 102.389 92.3022C102.389 91.9609 102.34 91.4734 102.194 90.9858L101.56 93.1311L101.365 89.3281C101.024 88.8893 100.585 88.4993 100 88.0605H99.9513C99.3662 88.4505 98.9762 88.8893 98.6349 89.3281L98.4399 93.1311L97.7573 90.9858C97.611 91.4734 97.5623 91.9609 97.5623 92.3022C97.5623 93.2773 98.4399 101.273 99.0737 112.585C99.6588 123.847 98.2936 125.944 98.2936 125.944C99.1224 127.114 100 129.21 100 129.21C100 129.21 100.878 127.114 101.706 125.944C101.706 125.944 100.293 123.847 100.878 112.585Z" fill="#CE0E2D"/>
</svg>
