<svg width="200" height="200" viewBox="0 0 200 200" fill="none" xmlns="http://www.w3.org/2000/svg">
<path d="M165.881 55.6275C163.03 51.417 159.792 47.4656 156.164 43.8381C154.607 42.2815 152.986 40.7903 151.306 39.3684L186.674 4H83.6783L43.905 43.7733L43.8402 43.8381C40.2774 47.4656 36.9738 51.417 34.1236 55.6275C31.2734 59.9028 28.8119 64.4372 26.8038 69.1012C22.658 78.8826 20.5851 89.3117 20.5851 100C20.5851 110.753 22.658 121.117 26.8038 130.899C28.8119 135.628 31.2734 140.162 34.1236 144.372C36.9738 148.583 40.2127 152.534 43.8402 156.162C45.397 157.719 47.0178 159.21 48.6985 160.632L13.3301 196H116.326L156.229 156.097C159.792 152.534 163.03 148.583 165.881 144.437C168.731 140.162 171.192 135.628 173.201 130.964C177.346 121.182 179.419 110.753 179.419 100.065C179.419 89.3117 177.346 78.9474 173.201 69.166C171.192 64.4372 168.731 59.8381 165.881 55.6275Z" fill="black"/>
<path d="M151.565 48.4372C150.01 46.8826 148.391 45.3927 146.771 44.0324L103.565 87.2389C105.702 87.8219 107.711 88.9879 109.395 90.6721C110.642 91.9111 111.632 93.3846 112.307 95.0077C112.983 96.6308 113.33 98.3715 113.33 100.13C113.33 101.888 112.983 103.628 112.307 105.251C111.632 106.875 110.642 108.348 109.395 109.587L29.2004 189.652H38.5932L113.994 114.251C121.767 106.478 121.832 93.8462 114.059 86.0081L118.723 81.3441C129.087 91.7733 129.022 108.551 118.658 118.915L47.9859 189.652H57.3786L123.387 123.644C136.342 110.688 136.407 89.6356 123.451 76.6802L128.115 72.0162C143.662 87.6275 143.597 112.826 128.051 128.372L66.7065 189.717H76.0992L132.715 133.101C150.852 114.964 150.917 85.5547 132.779 67.3522L137.443 62.6883C158.107 83.4818 158.107 117.101 137.379 137.83L85.4272 189.781H94.8199L142.043 142.559C165.362 119.239 165.427 81.4089 142.107 58.0243L146.836 53.2955C172.747 79.2713 172.682 121.312 146.771 147.223L104.277 189.717H113.67L151.5 151.887C180.067 123.255 180.067 77.004 151.565 48.4372Z" fill="white"/>
<path d="M48.5043 151.692C50.0589 153.247 51.6783 154.737 53.2978 156.097L96.5043 112.891C94.3666 112.308 92.3585 111.142 90.6743 109.457C89.4271 108.218 88.4373 106.745 87.7618 105.122C87.0864 103.499 86.7387 101.758 86.7387 100C86.7387 98.2419 87.0864 96.5013 87.7618 94.8782C88.4373 93.255 89.4271 91.7815 90.6743 90.5425L170.933 10.4129H161.541L86.0751 85.8785C78.3018 93.6518 78.237 106.283 86.0103 114.121L81.3464 118.785C71.0468 108.356 71.0468 91.5789 81.4111 81.2146L152.213 10.4129H142.82L76.6824 76.4858C63.7269 89.4413 63.6622 110.494 76.6176 123.449L71.9536 128.113C56.4071 112.502 56.4719 87.3036 72.0184 71.7571L133.427 10.3482H124.035L67.2897 67.0931C49.152 85.2308 49.0873 114.64 67.2249 132.842L62.5609 137.506C41.897 116.713 41.897 83.0931 62.6257 62.3644L114.642 10.3482H105.249L57.897 57.7004C34.5771 81.0202 34.5124 118.85 57.8322 142.235L53.1034 146.964C27.1925 120.988 27.2573 78.9474 53.1682 53.0364L95.7917 10.4129H86.399L48.4395 48.3725C20.0022 76.8745 20.0022 123.19 48.5043 151.692Z" fill="#CF0A2C"/>
</svg>
