<svg width="200" height="200" viewBox="0 0 200 200" fill="none" xmlns="http://www.w3.org/2000/svg">
<path d="M100.184 10.0846H100C50.3814 10.0846 10.208 50.2446 10.024 99.8467V100.031C10.024 149.633 50.1974 189.854 99.816 189.977H99.8774H99.9387C149.557 189.977 189.792 149.817 189.915 100.215V100.153V100.092C189.976 50.4285 149.803 10.146 100.184 10.0846Z" fill="white"/>
<path d="M192 99.7241C191.877 49.0796 150.723 8 100.061 8H100H99.816C49.0933 8.12263 8 49.2636 8 99.908V100.031V100.092C8.06133 150.859 49.216 191.939 99.9387 192H100H100.061C150.845 191.939 191.877 150.798 191.939 100.153V100.031C191.939 99.9693 192 99.8467 192 99.7241ZM189.976 100.092C189.915 149.755 149.741 189.915 100 189.915H99.9387H99.8773C50.2587 189.854 10.0853 149.633 10.0853 100.031V99.8467C10.1467 50.2446 50.4427 10.0846 100.061 10.0846H100.245C149.864 10.2073 189.976 50.4285 189.976 100.031V100.092Z" fill="#C4CDD3"/>
<path d="M69.9467 79.5521C79.3307 70.1713 83.1947 59.3189 83.1947 59.3189L85.28 51.7161L85.7707 49.938L76.1414 44.5425C76.1414 44.5425 70.56 40.6798 58.048 47.9147C43.4507 56.5598 31.552 67.7188 25.3574 79.4908C21.9227 85.99 19.224 93.6541 17.8134 102.177C18.2427 118.425 23.3947 133.446 31.9814 146.077C29.5894 122.655 52.2214 97.0263 69.9467 79.5521ZM142.075 47.976C129.624 40.6798 123.981 44.6038 123.981 44.6038L114.352 49.9993L114.843 51.7774L116.928 59.3802C116.928 59.3802 120.853 70.2939 130.176 79.6135C147.84 97.0263 170.288 122.532 168.08 145.893C176.605 133.201 181.757 117.934 182.003 101.563C180.592 93.2862 177.893 85.99 174.581 79.6135C168.509 67.7801 156.611 56.6211 142.075 47.976Z" fill="#002B5C"/>
<path d="M111.96 33.9967C144.773 37.6754 166.363 56.2533 177.464 72.8077C169.123 48.957 149.987 30.134 126.005 22.2246C120.792 23.6961 114.904 27.007 111.96 33.9967ZM88.1627 33.9967C85.2187 27.0683 79.3307 23.7574 73.9947 22.2246C49.8294 30.3179 30.6321 49.2023 22.3521 73.2369C33.4534 56.6211 55.104 37.6754 88.1627 33.9967Z" fill="#E21936"/>
<path d="M93.56 32.9543L100.123 23.3282L106.624 32.9543C109.261 25.842 113.371 21.918 117.541 19.7108C111.899 18.4845 106.072 17.8101 100.184 17.8101C94.1733 17.8101 88.408 18.4845 82.704 19.6494C86.8133 21.918 90.9226 25.842 93.56 32.9543Z" fill="#E21936"/>
<path d="M144.651 104.936C131.341 83.4149 101.043 61.5875 100 60.913C99.0187 61.5875 68.7813 83.4149 55.3493 104.936C37.3173 134.059 39.7093 150.92 44.3707 160.485C55.9627 171.215 70.6213 178.511 86.9973 181.086L94.0507 81.5755L99.8773 75.7507L99.9386 75.6894L100 75.7507L105.827 81.5755L113.003 180.902L112.88 180.964C129.317 178.389 144.099 170.908 155.691 160.117C160.413 150.614 162.56 133.814 144.651 104.936Z" fill="#002B5C"/>
<path d="M105.949 81.5755L100.123 75.6894L100.184 188.321L112.88 181.025L113.003 180.964L105.949 81.5755ZM100.061 53.3102L97.4854 55.2109L86.752 63.059L89.5734 52.8197L90.064 51.0417L90.984 47.6081L87.9174 45.9527L77.7974 40.4958C82.8267 39.3922 88.04 38.6565 93.376 38.2886L95.952 38.1046L96.0747 37.9207L97.056 35.8361L97.24 35.5295L100.123 29.7661L103.067 35.8361L103.128 35.9587L104.109 38.0433L104.232 38.2273L106.808 38.4112C112.083 38.7178 117.235 39.3922 122.387 40.6185L112.267 46.0753L109.2 47.7308L110.12 51.1643L110.611 52.9424L113.432 63.1816L102.699 55.3336L100.123 53.4329V53.3715H100.061V53.3102Z" fill="#C4CDD3"/>
<path d="M100.184 53.3102L102.76 55.2722L113.493 63.1203L110.672 52.881L110.181 51.103L109.261 47.6694L112.328 46.014L122.448 40.5571C117.419 39.4535 112.205 38.7178 106.869 38.3499L104.293 38.1659L104.171 37.982L103.189 35.8974L103.128 35.7747L100.184 29.7048L97.3013 35.4682L97.1173 35.7747L96.136 37.8594L96.0133 38.0433L93.4373 38.2273C88.1626 38.5338 83.0106 39.2083 77.8586 40.4345L87.9786 45.8914L91.0453 47.5468L90.1866 50.9803L89.696 52.7584L86.8747 62.9977L97.608 55.1496L100.184 53.2489V53.1876V53.3102Z" fill="#C4CDD3"/>
</svg>
