<svg width="180" height="180" viewBox="0 0 180 180" fill="none" xmlns="http://www.w3.org/2000/svg">
<path d="M89.7 13.24L27.53 51.37C27.36 51.48 27.25 51.67 27.25 51.87V128.13C27.25 128.33 27.36 128.52 27.53 128.63L89.7 166.76C89.79 166.82 89.9 166.85 90.01 166.85C90.12 166.85 90.22 166.82 90.31 166.76L152.48 128.63C152.65 128.52 152.76 128.34 152.76 128.13V51.87C152.76 51.67 152.65 51.48 152.48 51.37L90.31 13.24C90.22 13.18 90.11 13.15 90.01 13.15C89.91 13.15 89.8 13.18 89.7 13.24Z" fill="#111921"/>
<path d="M90 162.85L30.64 126.44V53.55L90 17.14L149.36 53.55V126.44L90 162.85ZM32.9 125.09L90 160.12L147.11 125.09V54.91L90 19.89L32.9 54.91V125.09Z" fill="#8CB6E1"/>
<path d="M90 138.96L91.7 145.28L98.03 146.98L91.7 148.68L90 155L88.3 148.68L81.98 146.98L88.3 145.28L90 138.96Z" fill="#F36D21"/>
<path d="M66.34 133.94V125H73.24L75.1 126.86V132.07L73.24 133.93H66.34V133.94ZM68.51 132.09H72.16L72.93 131.32V127.62L72.16 126.85H68.51V132.08V132.09Z" fill="white"/>
<path d="M85.12 125L88.63 133.3V133.94H86.52L85.81 132.13H81.33L80.6 133.94H78.56V133.3L82.08 125H85.12ZM82.07 130.27H85.07L83.73 126.89H83.44L82.07 130.27Z" fill="white"/>
<path d="M92.47 133.94V132.08H98.05L98.47 131.66V130.81L98.03 130.36H93.89L92.31 128.78V126.52L93.83 125H100.2V126.85H94.9L94.48 127.27V128.08L94.92 128.51H99.06L100.64 130.09V132.42L99.12 133.94H92.47Z" fill="white"/>
<path d="M105.04 133.94V125H107.21V128.51H111.5V125H113.67V133.94H111.5V130.4H107.21V133.94H105.04Z" fill="white"/>
<path d="M85.56 120.99V118.53H91.96L92.63 117.87V115.43L91.94 114.76H87.46L85.35 112.63V108.34L87.43 106.26H95.01V108.72H88.89L88.23 109.37V111.62L88.91 112.3H93.39L95.51 114.4V118.9L93.41 120.99H85.56Z" fill="white"/>
<path d="M44.4 120.99V106.26H47.28V112.34H52.21V106.26H55.09V120.99H52.21V114.8H47.28V120.99H44.4Z" fill="white"/>
<path d="M60.35 120.99L57.91 118.55V108.71L60.35 106.27H66.7L69.14 108.71V118.55L66.7 120.99H60.35ZM61.8 118.53H65.25L66.26 117.52V109.73L65.25 108.72H61.8L60.79 109.73V117.52L61.8 118.53Z" fill="white"/>
<path d="M74.76 120.99L72.26 118.5V106.26H75.14V117.47L76.21 118.53H78.74L79.79 117.47V106.26H82.67V118.5L80.19 120.99H74.76Z" fill="white"/>
<path d="M101.49 120.99V108.72H97.51V106.26H108.35V108.72H104.37V120.99H101.49Z" fill="white"/>
<path d="M112.42 120.99L109.98 118.55V108.71L112.42 106.27H118.77L121.21 108.71V118.55L118.77 120.99H112.42ZM113.87 118.53H117.32L118.33 117.52V109.73L117.32 108.72H113.87L112.86 109.73V117.52L113.87 118.53Z" fill="white"/>
<path d="M124.14 120.99V106.26H128.64L132.56 117.6H132.92V106.26H135.61V120.99H131.11L127.19 109.65H126.84V120.99H124.14Z" fill="white"/>
<path d="M76.88 36.77V62.39H103.13V36.7199L100 34.8199V59.0599H80.01V34.8699L76.88 36.77Z" fill="#F36D21"/>
<path d="M117.26 64.5V45.29L114.09 43.37V92.05L117.26 90.13V70.91L120.46 67.71L117.26 64.5Z" fill="#F36D21"/>
<path d="M103.13 98.7V73.02H76.88V98.64L80.01 100.54V76.35H100V100.6L103.13 98.7Z" fill="#F36D21"/>
<path d="M65.91 91.9901V43.4301L62.75 45.35V64.5L59.55 67.7101L62.75 70.91V90.07L65.91 91.9901Z" fill="#F36D21"/>
<path d="M110.34 94.5V40.92L106.92 38.84V38.87V66.13H73.09V38.9L69.67 40.98V94.44L73.09 96.52V69.28H106.92V96.58L110.34 94.5Z" fill="#8CB6E1"/>
</svg>
