<svg width="180" height="180" viewBox="0 0 180 180" fill="none" xmlns="http://www.w3.org/2000/svg">
<g clip-path="url(#clip0_10156_27482)">
<path d="M170.968 96.7194L148.229 24.8117C145.706 18.3107 139.12 13.7549 132.202 13.7549L46.6323 13.8445C39.8166 13.8445 33.0775 18.5155 30.6189 24.9269L8.01928 96.8986C6.93643 99.7012 6.74534 102.734 7.30587 105.639C7.85367 109.094 9.57347 112.345 12.2105 114.648C12.9494 115.339 13.752 115.954 14.6183 116.479L80.1877 163.278C82.8374 164.903 86.1624 165.799 89.5512 165.799C92.9398 165.799 96.2774 164.903 98.9399 163.265L164.42 116.325C165.286 115.8 166.089 115.173 166.815 114.482C169.491 112.14 171.223 108.826 171.733 105.306C172.242 102.453 172.038 99.4709 170.968 96.7194Z" fill="#7B868C"/>
<path d="M135.043 141.318H137.451V141.766H136.508V144.3H135.986V141.766H135.043V141.318Z" fill="#94A5AB"/>
<path d="M138.024 141.318H138.763L139.591 143.66L140.394 141.318H141.12V144.312H140.623V142.009L139.795 144.312H139.362L138.534 142.009V144.312H138.037V141.318H138.024Z" fill="#94A5AB"/>
<path d="M163.503 101.032L140.024 30.4938C139.031 27.8831 136.024 25.746 133.311 25.746L88.5828 25.7716C88.5828 25.7716 88.6083 25.7844 88.6209 25.7972H88.8757V26.0403C89.5 26.6802 89.8184 27.5504 89.8567 28.4974C89.8567 28.6894 89.8948 28.8813 89.9331 29.0733C90.8632 28.651 91.793 28.3182 92.8376 28.523C93.8567 28.7277 96.8124 29.7003 98.494 32.2982C98.494 32.2982 100.061 33.7059 98.0989 37.9035C97.9206 38.2874 97.7296 38.6072 97.5258 38.8887C97.4875 38.9911 97.4748 39.0552 97.4748 39.0552C97.4748 39.0552 98.1756 38.8375 98.2901 39.3494C98.3921 39.8742 97.7422 41.0898 97.2582 41.6784C96.7741 42.2544 96.5067 42.9199 96.201 43.227C95.8952 43.5341 95.4621 43.4703 95.4621 43.4703C95.4366 43.8156 95.0544 44.174 94.4301 45.441C94.2008 45.9143 94.0096 46.2729 93.8696 46.5415C94.1753 46.3368 94.4811 46.1705 94.6213 46.1705C94.7487 46.1705 94.9271 46.2985 95.0925 46.4776C97.3856 45.6457 99.9081 45.7225 101.22 45.556C102.596 45.3769 104.38 45.3001 107.17 43.5085C109.959 41.7296 109.768 41.6146 113.488 40.7188C117.208 39.823 119.59 38.5816 120.278 38.2106C120.979 37.8523 121.285 36.8924 121.667 35.6766C122.036 34.4609 121.909 34.7041 122.176 33.5395C122.444 32.3749 122.648 32.0038 123.017 32.1062C123.336 32.1958 123.094 33.8466 122.941 34.4225C122.762 35.0752 122.788 36.2397 122.788 36.2397C122.788 36.2397 123.043 36.3421 123.425 35.6382C123.82 34.9088 123.96 34.4609 124.253 33.949C124.533 33.4371 124.559 33.4755 124.877 32.874C125.196 32.2726 125.489 30.7369 126.049 30.9417C126.571 31.1336 126.177 32.2726 125.896 33.0532C125.603 33.8338 124.571 35.9966 124.648 35.971C124.877 35.8942 125.183 35.1392 125.68 34.5761C126.177 34.013 126.329 33.4499 126.788 32.4133C127.259 31.3896 128.062 31.5175 127.998 32.0934C127.947 32.5157 127.234 34.5505 126.801 35.1648C126.368 35.779 125.845 36.8795 125.845 36.9051C125.883 36.9948 126.062 36.9948 126.584 36.3165C127.336 35.3439 127.501 35.5103 127.833 34.9728C128.164 34.4353 128.763 33.7443 129.081 33.8594C129.705 34.0898 128.992 35.3439 128.33 36.2013C127.667 37.0587 126.597 38.0441 126.317 39.375C126.036 40.7059 127.591 40.1428 128.648 39.9893C129.693 39.8357 130.279 40.1428 130.33 40.5779C130.368 40.9236 129.514 41.7552 128.062 41.6402C126.61 41.5249 125.667 41.9985 124.036 42.2162C122.406 42.4336 121.578 41.0386 119.157 42.6257C116.737 44.2125 114.749 45.3386 112.545 47.0407C111.182 48.09 111.17 47.77 108.889 48.6787C107.972 49.037 106.507 49.4848 104.978 50.0096C105.08 50.3167 105.195 50.6112 105.118 50.6623C104.838 50.8798 104.443 50.8415 103.271 50.9821C102.532 51.0718 101.564 51.379 100.94 51.5837C100.214 51.942 99.615 52.3259 99.2328 52.7225C97.997 53.9895 97.0289 54.2711 96.6086 56.5233C96.4938 57.5856 96.6722 58.9038 96.6722 58.9038C98.7233 65.9676 95.704 66.0062 95.0671 67.785C94.4175 69.5637 94.7358 71.074 92.9014 73.8381C90.5701 77.3444 89.6529 80.8125 89.2707 83.2695C89.1305 84.4341 89.0795 85.8674 89.4236 87.1983C89.6784 88.1838 89.0414 87.7872 89.054 88.3885C89.0924 88.555 89.1178 88.7341 89.1559 88.9133C89.3471 89.5402 90.0605 91.7671 90.5701 92.9827C90.5701 92.9956 90.5956 93.0212 90.5956 93.0339C90.723 93.2386 90.8632 93.5202 91.0287 93.8273C92.1881 95.5038 95.0671 101.531 94.8123 101.736C94.7613 101.775 94.6849 101.838 94.5704 101.902C94.8761 103.297 95.2964 105.383 95.2454 106.215C95.1818 107.354 95.2454 109.21 96.2264 111.884C97.2072 114.546 95.6021 117.067 94.6849 118.078C93.7677 119.089 94.2008 119.23 92.6467 122.967C91.1051 126.716 87.8566 131.349 86.5317 133.614C85.2833 135.764 82.2769 139.808 83.4998 141.228C83.6908 141.139 83.8691 141.036 83.9711 141.049C84.1368 141.075 84.3532 141.203 84.4806 141.612C84.557 141.868 84.8247 142.188 85.0157 142.393C85.5762 142.93 85.9583 143.468 88.1113 144.812C91.3473 146.846 93.3217 148.139 92.0223 149.636C91.1944 150.583 86.7484 150.02 85.8819 149.547C85.0157 149.086 81.9966 146.795 78.6588 146.77C78.2895 146.77 77.9328 146.744 77.5887 146.718C77.5887 146.718 76.8498 146.757 75.8179 146.462L85.3469 152.708C86.5062 153.424 88.0223 153.795 89.551 153.795C91.0796 153.795 92.6083 153.424 93.7677 152.708L161.095 108.416C163.414 106.957 164.497 103.63 163.503 101.019V101.032Z" fill="url(#paint0_linear_10156_27482)"/>
<path d="M73.0917 143.89C73.2445 142.431 74.5313 140.844 74.7351 140.422C74.9389 139.961 75.6395 139.718 75.6395 139.718C75.6395 139.718 76.6586 138.695 77.2574 137.62C77.8563 136.557 80.6205 130.453 81.538 127.279C82.4552 124.106 81.5761 124.362 82.6461 122.045C83.6398 119.87 86.7864 115.57 86.6719 114.277C86.5571 112.985 85.8566 111.014 84.7227 110.349C84.1748 110.016 83.3214 109.056 82.3278 107.7C81.3213 107.751 79.7417 108.147 79.5633 106.791C79.3085 104.935 75.2828 98.012 75.2828 98.012C75.2828 98.012 70.0724 100.751 69.0533 102.338C68.5692 103.08 68.1106 102.747 66.8367 102.529C66.5055 102.466 66.2253 102.389 65.9831 102.312C65.308 102.734 64.7473 103.092 64.3525 103.336C62.7855 104.283 60.518 104.692 58.6071 106.42C56.696 108.16 52.7724 110.4 51.7914 110.745C50.7978 111.091 49.371 110.528 48.4028 110.54C47.4347 110.54 44.9378 109.376 44.2242 107.956C43.5108 106.535 41.6893 105.038 39.0903 101.813C36.4151 98.4856 35.8291 98.5238 35.4979 98.2552C35.1667 97.9864 33.1539 97.4874 32.7717 97.7433C32.3896 97.9993 32.0838 97.9481 31.9945 97.7178C31.9053 97.4874 28.8734 95.3629 24.8223 95.798C21.9305 96.1051 21.2043 94.8383 21.2171 93.7761C21.2171 92.5349 24.6439 89.4634 26.8988 89.5531C29.1537 89.6555 32.1219 89.9497 32.7589 89.9241C33.638 89.8858 35.1667 89.1692 35.2686 89.0795C35.3576 89.0027 35.8801 88.4014 36.0455 88.3502C36.1984 88.299 36.4534 88.3502 36.4789 88.5038C36.5044 88.6444 36.5553 88.8621 36.6573 88.8748C36.7463 88.8877 37.103 88.9259 37.2304 88.798C37.3452 88.67 37.4087 88.3885 37.5871 88.3246C37.7654 88.2605 38.6955 88.4652 38.7591 88.67C38.8229 88.8747 38.8484 89.0412 39.0138 89.1948C39.1796 89.3484 39.6763 89.6043 39.893 90.9608C40.1349 92.5349 39.3834 93.8658 39.4598 93.9552C39.5489 94.0449 40.2623 94.2497 41.8802 94.8383C43.4982 95.427 45.0524 96.0412 46.5684 96.7964C48.2881 97.6536 49.7022 101.173 49.7022 101.173C49.7022 101.173 51.8297 99.2022 53.1546 98.1528C54.1356 97.3594 55.97 95.1455 56.8236 94.0832C56.8236 94.0832 56.8108 94.0576 56.7982 94.0576C56.5177 93.6993 56.3777 93.3154 57.2058 92.6244C57.7918 92.1381 59.9955 89.8602 61.639 88.171C62.4926 87.1982 63.4608 86.1489 64.5054 85.0613C65.6138 83.6919 66.9641 81.9386 67.4353 81.4779C68.0342 80.8893 69.2571 80.1856 69.5757 80.0064C69.6012 79.9808 69.6267 79.9552 69.6522 79.9296C69.6012 79.8399 69.461 79.5199 69.461 79.1871C69.461 78.1634 70.6968 77.3829 72.1871 76.0647C72.4292 75.8473 72.6457 75.6296 72.8369 75.3993C73.1553 74.6826 73.3465 74.1067 73.7286 73.4797C74.8497 71.637 74.3656 68.3993 73.6141 65.6861C72.8624 62.9731 72.7731 60.4138 72.7731 60.4138C72.7221 60.4138 72.6457 60.4008 72.5566 60.3882C72.0471 60.6441 71.4611 60.8359 70.9006 60.8233C69.3845 60.7848 69.0278 61.2198 68.0213 61.4758C67.0151 61.7317 66.9767 61.5143 66.8748 61.284C66.8367 61.2072 66.8367 61.0407 66.8239 60.8233C65.8686 61.1175 64.8621 61.5526 63.9703 62.218C61.0404 64.4193 59.1931 64.6241 57.9447 64.9439C56.7089 65.2639 54.8235 65.942 52.9253 66.3771C51.0144 66.8122 46.1862 67.5673 43.8166 68.3737C41.4471 69.1797 41.1414 69.8069 41.1414 69.8069C39.5617 71.1378 38.721 70.5106 37.9057 71.0866C37.0904 71.6626 36.7337 71.7264 36.7337 71.7264C36.5553 72.4431 36.1348 72.5454 36.1348 72.5454C36.4151 72.827 36.3387 73.2109 36.3387 73.2109C36.428 73.8636 35.396 73.5565 35.396 73.5565L35.3576 73.8125C35.3831 74.4011 34.8864 74.3243 34.8864 74.3243C34.7971 74.3114 34.5552 74.222 34.364 73.966C34.173 73.6972 33.9183 73.6845 33.4977 73.3644C33.0775 73.0446 33.0901 72.3663 33.0901 72.3663L32.7717 71.4066C32.4532 70.4468 32.3386 70.0755 32.7463 69.4486C33.1411 68.8344 33.6125 67.9386 33.6125 67.9386C34.5552 65.7629 34.9374 66.761 36.0455 66.5307C37.154 66.3003 38.224 66.4924 39.6508 66.1212C41.0904 65.7502 43.7401 64.5473 47.1415 63.2035C50.543 61.847 56.5051 59.3259 56.5051 59.3259C59.5624 57.7647 60.4415 58.8011 62.0976 57.5343C63.7665 56.2673 66.3781 54.7188 68.0087 54.0151C69.6393 53.2985 70.4929 51.2124 73.1807 50.4446C74.5439 50.0607 75.4356 49.7663 75.9962 49.5744C76.5822 49.1649 77.3722 48.7681 78.1746 48.5122C79.3466 48.1283 80.1493 47.8467 80.9136 47.3734C81.678 46.8998 82.6335 46.7206 82.8119 46.6182C82.9902 46.5288 84.0093 45.7737 84.0093 45.7737C84.557 45.6328 84.9901 45.876 85.2194 46.0296C85.6144 45.4536 85.8947 44.6987 85.8947 44.6987C85.5125 43.2143 85.8947 40.3349 85.8947 40.3349C85.8947 40.3349 85.6654 40.5523 85.3468 40.066C84.9265 39.4006 85.092 38.8375 85.092 38.8375C85.1304 37.3657 84.6589 37.9161 85.1049 36.3037C85.538 34.7168 86.0985 35.779 86.0985 35.779L86.175 35.3951C86.175 35.3951 86.1878 35.3311 86.2004 35.3055C86.2133 35.0495 86.2514 34.768 86.3024 34.4481C86.4936 33.3987 86.7864 31.7862 87.7036 30.5961C86.8374 30.225 85.8438 30.8008 85.6399 32.4133C85.3723 34.5377 82.9519 35.0111 81.7289 35.2927C80.4931 35.5742 79.6269 37.2378 79.6269 37.2378C79.6269 37.2378 79.9836 35.1391 81.7035 34.768C84.3786 34.1921 83.6907 32.119 83.6907 32.119C81.232 34.2817 79.0154 34.6144 77.8818 34.4737C75.1937 34.1537 74.2256 32.5157 74.2256 32.5157C75.9197 33.9234 78.3913 32.8228 78.3913 32.8228C74.9006 32.9764 73.4867 30.0714 73.2572 29.5595C73.4357 29.9306 74.3146 31.3639 77.3848 31.2744C78.9518 31.236 79.8436 30.6217 80.506 29.7899C80.4422 29.7899 80.4041 29.8027 80.4041 29.8027C78.6461 30.0714 77.2446 27.128 77.2446 27.128C77.2446 27.128 77.7544 27.9983 79.4104 28.9069C81.0665 29.8155 81.487 27.9599 82.3023 26.8081C82.4042 26.6673 82.5188 26.5394 82.6461 26.4242C82.799 26.245 82.9774 26.0787 83.1686 25.9379C83.1686 25.9379 83.2321 25.8739 83.3469 25.7971L45.511 25.8355C42.8103 25.8355 39.791 27.9855 38.81 30.5961L15.4971 101.186C14.5162 103.796 15.6117 107.124 17.9176 108.582L73.321 144.85C73.0407 144.325 73.0917 143.89 73.0917 143.89Z" fill="url(#paint1_linear_10156_27482)"/>
<path d="M88.7611 25.9251C88.7611 25.9251 88.8375 26.0018 88.8756 26.0402V25.7843H88.6208C88.7101 25.8611 88.7611 25.9123 88.7611 25.9123V25.9251Z" fill="url(#paint2_linear_10156_27482)"/>
<path d="M88.7611 25.9251C88.7611 25.9251 88.8375 26.0018 88.8756 26.0402V25.7843H88.6208C88.7101 25.8611 88.7611 25.9123 88.7611 25.9123V25.9251Z" fill="url(#paint3_linear_10156_27482)"/>
<path d="M63.1296 137.799C67.6775 137.85 71.6904 134.535 72.4038 129.89C73.181 124.797 69.7031 120.036 64.6328 119.256C59.5624 118.475 54.8235 121.969 54.0463 127.062C53.7534 129.02 54.0846 130.927 54.8871 132.577C56.6453 135.751 59.486 137.351 63.1296 137.799Z" fill="white"/>
<path d="M132.432 83.1927L133.234 79.9806H127.068L126.253 83.1927H127.68L124.317 92.2917L125.183 79.9806H121.527L116.227 92.2917L117.386 83.1927H118.686L119.501 79.9806H113.323L112.52 83.1927H113.514L112.52 95.4397H117.679L121.832 85.9313L121.196 95.4397H126.431L131.425 83.1927H132.432Z" fill="white"/>
<path d="M142.534 88.1196C142.534 86.1489 140.878 86.0977 139.438 86.085H136.623L137.349 83.1927H139.744L139.413 84.5236H143.12L144.254 79.9679H137.54C136.534 79.9935 135.247 80.0062 134.202 81.1452C133.591 81.7977 133.374 82.5529 133.158 83.2951L132.546 85.765C132.457 86.1874 132.368 86.5969 132.368 87.032C132.368 89.0666 134.088 89.0666 135.285 89.0922H138.279L137.489 92.202H135.094L135.464 90.7304H131.489L130.33 95.4141H137.094C138.1 95.4141 139.426 95.4141 140.47 94.4033C140.903 93.9808 141.387 93.1745 141.578 92.4323L142.164 90.1545C142.381 89.2331 142.508 88.6827 142.508 88.094L142.534 88.1196Z" fill="white"/>
<path d="M149.897 92.2276H147.744L149.986 83.1927H150.993L151.795 79.9806H145.604L144.801 83.1927H145.782L143.553 92.2276H142.546L141.744 95.4397H152.802L154.369 89.5273H150.649L149.897 92.2276Z" fill="white"/>
<path d="M107.666 79.9806L105.45 89.4123L103.424 79.9806H98.5068L97.7041 83.1927H98.6851L96.4557 92.2276H95.4747L94.6722 95.4397H99.3602L101.5 86.4178L103.615 95.4397H107.552L110.596 83.1927H111.552L112.354 79.9806H107.666Z" fill="white"/>
<path d="M83.2705 156.06L83.2324 156.035L83.1941 156.009L15.803 111.91C11.9557 109.478 10.2104 104.219 11.7901 99.8933L35.1158 29.3419L35.1412 29.2652L35.1667 29.1884C36.7337 25.0293 41.1926 21.8811 45.5367 21.8811L133.311 21.7916C135.986 21.7916 138.712 22.9817 140.776 24.8757C142.267 22.329 142.827 19.68 143.133 17.7988C140.075 15.265 136.19 13.7549 132.202 13.7549L46.6323 13.8445C39.8166 13.8445 33.0775 18.5155 30.6189 24.9269L8.01928 96.8986C6.93643 99.7012 6.74534 102.734 7.30587 105.639C7.85367 109.094 9.57347 112.345 12.2105 114.648C12.9494 115.339 13.752 115.954 14.6183 116.479L80.1877 163.278C82.1624 164.481 84.5063 165.287 86.9777 165.62C88.5828 163.06 89.5383 160.411 89.9715 157.737C89.8315 157.737 89.6912 157.75 89.5383 157.75C87.2199 157.75 84.9904 157.148 83.2579 156.073L83.2705 156.06Z" fill="#BFC5C8"/>
<path d="M133.323 25.746C136.024 25.746 139.043 27.8831 140.037 30.4937L163.516 101.032C164.509 103.643 163.414 106.97 161.108 108.416L93.7806 152.708C92.6212 153.437 91.0925 153.795 89.5639 153.795C88.0349 153.795 86.5191 153.437 85.3598 152.708L17.9304 108.582C15.6119 107.137 14.5163 103.809 15.5099 101.186L38.8356 30.5961C39.8166 27.9855 42.8359 25.8356 45.5365 25.8356L133.311 25.746M133.311 21.8044L45.5365 21.894C41.1798 21.894 36.7209 25.0421 35.1668 29.2012L35.1413 29.278L35.1158 29.3548L11.79 99.8804C10.2104 104.206 11.9556 109.466 15.8029 111.897L83.1941 156.009L83.2322 156.035L83.2706 156.06C85.0031 157.148 87.2325 157.737 89.551 157.737C91.8695 157.737 94.1118 157.135 95.8569 156.048L95.8953 156.022L95.9333 155.997L163.235 111.731C167.07 109.286 168.815 104.039 167.223 99.7012L143.757 29.2268L143.731 29.15L143.706 29.0733C142.139 24.9142 137.667 21.7916 133.323 21.7916L133.311 21.8044Z" fill="white"/>
<path d="M128.648 39.9764C127.603 40.1299 126.036 40.693 126.317 39.3621C126.597 38.0439 127.667 37.0458 128.33 36.1884C128.992 35.3309 129.693 34.0768 129.081 33.8465C128.775 33.7313 128.177 34.4223 127.833 34.9598C127.501 35.4973 127.336 35.3309 126.584 36.3035C126.049 36.9819 125.883 36.9946 125.845 36.8922C125.845 36.8795 126.368 35.7789 126.801 35.1518C127.234 34.5375 127.947 32.49 127.998 32.0804C128.075 31.5046 127.26 31.3766 126.788 32.4004C126.317 33.4242 126.164 34 125.68 34.5631C125.183 35.1262 124.877 35.8684 124.648 35.958C124.571 35.9836 125.603 33.8209 125.896 33.0402C126.189 32.2596 126.572 31.1078 126.049 30.9287C125.489 30.7239 125.183 32.2724 124.877 32.8611C124.559 33.4625 124.533 33.4242 124.253 33.9361C123.973 34.4479 123.82 34.8958 123.425 35.6253C123.043 36.3291 122.788 36.2267 122.788 36.2267C122.788 36.2267 122.763 35.075 122.941 34.4095C123.094 33.8337 123.349 32.1828 123.017 32.0932C122.661 31.9909 122.457 32.362 122.177 33.5265C121.909 34.6911 122.036 34.4479 121.667 35.6637C121.297 36.8795 120.979 37.8392 120.278 38.1975C119.578 38.5558 117.208 39.8099 113.488 40.7057C109.768 41.6017 109.96 41.7167 107.17 43.4956C104.38 45.2745 102.596 45.3513 101.22 45.5431C99.9081 45.7223 97.3729 45.6455 95.0925 46.4645C94.9142 46.2983 94.7487 46.1574 94.6213 46.1574C94.4811 46.1574 94.1753 46.3239 93.8696 46.5286C94.0098 46.2598 94.2008 45.9144 94.4301 45.4281C95.0416 44.1611 95.4238 43.8028 95.4621 43.4571C95.4621 43.4571 95.8952 43.5212 96.201 43.2141C96.5067 42.907 96.7741 42.2415 97.2582 41.6656C97.7425 41.0898 98.3921 39.8611 98.2901 39.3365C98.1882 38.8117 97.4748 39.0421 97.4748 39.0421C97.4748 39.0421 97.5003 38.9782 97.5258 38.8758C97.7296 38.5943 97.9208 38.2743 98.0992 37.8904C100.061 33.6929 98.494 32.2852 98.494 32.2852C96.825 29.6745 93.857 28.7148 92.8376 28.51C91.793 28.2925 90.8632 28.638 89.9331 29.0603C89.895 28.8683 89.8567 28.6764 89.8567 28.4844C89.8186 27.4734 89.4619 26.552 88.7611 25.9122C88.7611 25.9122 88.1752 25.2467 86.8758 25.0548C84.4551 24.6836 83.2196 25.9378 83.2196 25.9378C83.0284 26.0913 82.8629 26.2577 82.6972 26.424C82.5698 26.5392 82.4552 26.6672 82.3533 26.808C81.538 27.9597 81.1175 29.8153 79.4615 28.9067C77.8054 27.9981 77.2958 27.1279 77.2958 27.1279C77.2958 27.1279 78.6971 30.0585 80.4551 29.8025C80.4551 29.8025 80.4932 29.8025 80.557 29.7897C79.8946 30.6087 78.99 31.223 77.4358 31.2742C74.3656 31.3638 73.4739 29.9177 73.3084 29.5594C73.5377 30.0713 74.9516 32.9762 78.4423 32.8227C78.4423 32.8227 75.9707 33.9233 74.2766 32.5156C74.2766 32.5156 75.2447 34.1536 77.9328 34.4735C79.0664 34.6143 81.2832 34.2816 83.7417 32.1188C83.7417 32.1188 84.4297 34.192 81.7545 34.7679C80.0346 35.139 79.6779 37.2378 79.6779 37.2378C79.6779 37.2378 80.5441 35.5741 81.7799 35.2925C83.0029 35.011 85.4235 34.5503 85.6909 32.4132C85.8948 30.8007 86.9013 30.2248 87.7546 30.5959C86.8374 31.7861 86.5317 33.3986 86.3534 34.4479C86.2898 34.7679 86.2643 35.0622 86.2514 35.3053C86.2514 35.3309 86.2388 35.3693 86.226 35.3949L86.1495 35.7789C86.1495 35.7789 85.589 34.7295 85.1559 36.3035C84.7099 37.916 85.1814 37.3658 85.143 38.8373C85.143 38.8373 84.9776 39.4133 85.3981 40.0658C85.7164 40.5521 85.9457 40.3347 85.9457 40.3347C85.9457 40.3347 85.5764 43.2141 85.9457 44.6985C85.9457 44.6985 85.6655 45.4537 85.2704 46.0294C85.0411 45.8632 84.608 45.6328 84.0603 45.7735C84.0603 45.7735 83.0412 46.5286 82.8629 46.6181C82.6845 46.7078 81.729 46.8869 80.9647 47.3732C80.2003 47.8466 79.3976 48.1281 78.2257 48.512C77.4232 48.7679 76.6332 49.1648 76.0472 49.5743C75.4995 49.7663 74.5949 50.0606 73.232 50.4445C70.5439 51.1996 69.6903 53.2983 68.0597 54.0149C66.4291 54.7315 63.8175 56.2672 62.1486 57.5342C60.4797 58.8012 59.6134 57.7518 56.5561 59.3257C56.5561 59.3257 50.594 61.8468 47.1925 63.2033C43.7911 64.5598 41.1288 65.7629 39.7018 66.1212C38.2624 66.4922 37.205 66.3004 36.0968 66.5307C34.9884 66.7611 34.6062 65.7629 33.6635 67.9384C33.6635 67.9384 33.2049 68.8342 32.7973 69.4484C32.4022 70.0627 32.5042 70.4339 32.8228 71.4065L33.1411 72.3661C33.1411 72.3661 33.1411 73.0445 33.5488 73.3643C33.9693 73.6843 34.224 73.697 34.415 73.9659C34.6062 74.2347 34.8481 74.3115 34.9374 74.3242C34.9374 74.3242 35.4341 74.4009 35.4086 73.8123L35.447 73.5564C35.447 73.5564 36.479 73.8506 36.3897 73.2107C36.3897 73.2107 36.4661 72.8268 36.1858 72.5453C36.1858 72.5453 36.5935 72.4429 36.7847 71.7263C36.7847 71.7263 37.1414 71.6624 37.9567 71.0864C38.772 70.5107 39.6127 71.1249 41.1924 69.8067C41.1924 69.8067 41.4981 69.1796 43.8676 68.3735C46.2244 67.5672 51.0654 66.8123 52.9763 66.3772C54.8871 65.9421 56.7599 65.2764 57.9957 64.9437C59.2312 64.6239 61.0914 64.4062 64.0213 62.2181C64.9131 61.5524 65.9067 61.1046 66.8749 60.8231C66.8749 61.0278 66.8749 61.207 66.9258 61.2838C67.0277 61.5141 67.0661 61.7189 68.0723 61.4756C69.0788 61.2197 69.4355 60.7846 70.9516 60.8231C71.5121 60.8358 72.0852 60.6439 72.6076 60.388C72.6967 60.388 72.7731 60.4007 72.8241 60.4136C72.8241 60.4136 72.9134 62.9603 73.6651 65.6859C74.4166 68.3991 74.9007 71.6368 73.7796 73.4796C73.3975 74.1067 73.2065 74.6954 72.8879 75.3991C72.6841 75.6294 72.4674 75.8598 72.2381 76.0645C70.7604 77.3827 69.5248 78.1635 69.512 79.1872C69.512 79.5199 69.6522 79.8397 69.7032 79.9294C69.6777 79.955 69.6522 79.9806 69.6267 80.0062C69.2955 80.1981 68.0723 80.902 67.4863 81.4777C67.0023 81.9384 65.6648 83.6917 64.5564 85.0611C63.5118 86.1487 62.5436 87.1983 61.69 88.1709C60.0465 89.8601 57.8428 92.1379 57.2568 92.6242C56.4287 93.3152 56.5689 93.6991 56.8492 94.0574C56.8492 94.0574 56.8618 94.083 56.8747 94.083C56.021 95.1453 54.1866 97.3593 53.2056 98.1527C51.8934 99.202 49.7532 101.173 49.7532 101.173C49.7532 101.173 48.3393 97.6535 46.6194 96.7962C45.1034 96.0411 43.5492 95.4268 41.9312 94.8382C40.3135 94.2495 39.5999 94.0448 39.5108 93.9551C39.4344 93.8656 40.1861 92.5347 39.944 90.9606C39.7273 89.6041 39.2306 89.3353 39.0648 89.1946C38.8994 89.0537 38.8739 88.8746 38.8101 88.6698C38.7465 88.4651 37.8164 88.2477 37.6381 88.3244C37.4597 88.3883 37.3962 88.6698 37.2814 88.7978C37.1669 88.9258 36.8102 88.9002 36.7083 88.8746C36.6063 88.8619 36.5554 88.6572 36.5299 88.5036C36.5044 88.3627 36.2497 88.3115 36.0968 88.35C35.9311 88.4012 35.4086 88.9899 35.3196 89.0793C35.2303 89.1561 33.689 89.8727 32.8099 89.9239C32.1729 89.9495 29.2047 89.6553 26.9498 89.5529C24.6949 89.4506 21.2808 92.5218 21.2681 93.7759C21.2681 94.8382 21.9815 96.1179 24.8733 95.798C28.9244 95.363 31.9565 97.4872 32.0456 97.7176C32.1348 97.9479 32.4406 97.9991 32.8228 97.7432C33.2049 97.4872 35.2177 97.9862 35.5489 98.2551C35.8801 98.5237 36.4661 98.4854 39.1413 101.813C41.7274 105.025 43.5618 106.522 44.2754 107.955C44.9888 109.376 47.4857 110.54 48.4538 110.54C49.422 110.54 50.8616 111.103 51.8424 110.745C52.8234 110.4 56.7473 108.16 58.6581 106.42C60.569 104.679 62.8494 104.27 64.4035 103.336C64.7985 103.093 65.3717 102.734 66.0341 102.312C66.2763 102.389 66.5565 102.465 66.8877 102.529C68.1616 102.747 68.6328 103.08 69.1043 102.337C70.1234 100.751 75.3338 98.0118 75.3338 98.0118C75.3338 98.0118 79.3595 104.922 79.6143 106.791C79.8053 108.16 81.3852 107.751 82.3788 107.699C83.3724 109.056 84.2258 110.016 84.7737 110.348C85.8948 111.014 86.5955 112.985 86.7229 114.277C86.8374 115.57 83.7037 119.87 82.6972 122.045C81.6271 124.361 82.5062 124.105 81.589 127.279C80.6715 130.453 77.8944 136.557 77.3084 137.619C76.7096 138.681 75.6905 139.718 75.6905 139.718C75.6905 139.718 74.99 139.961 74.7861 140.422C74.5949 140.844 73.2956 142.431 73.1427 143.89C73.1427 143.89 73.0024 145.183 74.6459 146.002C76.2893 146.821 77.6397 146.744 77.6397 146.744C77.9837 146.769 78.3404 146.782 78.7097 146.795C82.0476 146.821 85.0666 149.111 85.9331 149.572C86.812 150.046 91.2454 150.609 92.0733 149.662C93.3727 148.177 91.3982 146.872 88.1623 144.837C86.0095 143.48 85.6274 142.956 85.0666 142.418C84.8756 142.214 84.608 141.894 84.5316 141.638C84.4042 141.228 84.1877 141.1 84.022 141.075C83.9329 141.062 83.7417 141.164 83.5508 141.254C82.3278 139.821 85.3471 135.776 86.5827 133.64C87.9075 131.361 91.1435 126.729 92.6976 122.992C94.2391 119.242 93.806 119.114 94.7358 118.104C95.653 117.093 97.2582 114.584 96.2774 111.91C95.2964 109.248 95.2199 107.392 95.2964 106.241C95.3473 105.409 94.927 103.323 94.6213 101.928C94.7232 101.851 94.8123 101.787 94.8632 101.761C95.118 101.557 92.239 95.5292 91.0796 93.8527C90.9142 93.5456 90.7613 93.264 90.6465 93.0593C90.6465 93.0466 90.621 93.021 90.621 93.0081C90.0989 91.7925 89.3981 89.5656 89.2069 88.9387C89.1688 88.7595 89.1305 88.5804 89.105 88.4139C89.105 87.8126 89.7293 88.2091 89.4745 87.2239C89.1305 85.8928 89.1814 84.4595 89.3217 83.2951C89.7167 80.8379 90.621 77.3827 92.9524 73.8635C94.7868 71.112 94.4684 69.5891 95.118 67.8104C95.755 66.0315 98.7742 65.9933 96.7231 58.9292C96.7231 58.9292 96.5322 57.611 96.6596 56.5487C97.0798 54.2964 98.0482 54.0278 99.2838 52.7479C99.6659 52.3513 100.265 51.9801 100.991 51.6091C101.602 51.4044 102.583 51.1099 103.322 51.0075C104.494 50.8669 104.889 50.8925 105.169 50.6877C105.246 50.6236 105.131 50.3294 105.029 50.035C106.571 49.5231 108.036 49.0751 108.94 48.7041C111.221 47.7954 111.233 48.1154 112.596 47.0661C114.8 45.3513 116.788 44.2379 119.208 42.651C121.629 41.0642 122.457 42.459 124.087 42.2415C125.718 42.0239 126.661 41.5505 128.113 41.6656C129.565 41.7809 130.419 40.9489 130.38 40.6033C130.329 40.1682 129.744 39.8611 128.699 40.0146L128.648 39.9764Z" fill="white"/>
</g>
<defs>
<linearGradient id="paint0_linear_10156_27482" x1="119.845" y1="169.843" x2="119.845" y2="15.3802" gradientUnits="userSpaceOnUse">
<stop stop-color="#0522FF"/>
<stop offset="1" stop-color="#001E60"/>
</linearGradient>
<linearGradient id="paint1_linear_10156_27482" x1="51.4347" y1="134.331" x2="51.4347" y2="-35.8087" gradientUnits="userSpaceOnUse">
<stop stop-color="#FF2D57"/>
<stop offset="0.7" stop-color="#CE343A"/>
</linearGradient>
<linearGradient id="paint2_linear_10156_27482" x1="88.7482" y1="129.174" x2="88.7482" y2="-25.2897" gradientUnits="userSpaceOnUse">
<stop offset="0.09" stop-color="#0421DE"/>
<stop offset="1" stop-color="#00194C"/>
</linearGradient>
<linearGradient id="paint3_linear_10156_27482" x1="88.7482" y1="121.329" x2="88.7482" y2="-48.8111" gradientUnits="userSpaceOnUse">
<stop offset="0.09" stop-color="#EE1B4B"/>
<stop offset="1" stop-color="#88002B"/>
</linearGradient>
<clipPath id="clip0_10156_27482">
<rect width="165" height="156" fill="white" transform="translate(7 12)"/>
</clipPath>
</defs>
</svg>
