<svg width="180" height="180" viewBox="0 0 180 180" fill="none" xmlns="http://www.w3.org/2000/svg">
<path d="M162 90C162 129.769 129.759 162 90 162C50.2411 162 18 129.759 18 90C18 50.2411 50.2311 18 90 18C129.769 18 162 50.2411 162 90Z" fill="#613393"/>
<path d="M158.951 90C158.951 128.089 128.079 158.961 89.99 158.961C51.9006 158.961 21.0292 128.089 21.0292 90C21.0292 51.9106 51.9006 21.0392 89.99 21.0392C128.079 21.0392 158.951 51.9106 158.951 90Z" fill="white"/>
<path d="M155.902 90.0001C155.902 126.4 126.39 155.902 89.99 155.902C53.5901 155.902 24.0783 126.39 24.0783 90.0001C24.0783 53.6102 53.5901 24.0884 89.99 24.0884C126.39 24.0884 155.902 53.5902 155.902 90.0001Z" fill="#613393"/>
<path d="M136.627 90C136.627 115.753 115.753 136.637 89.99 136.637C64.2272 136.637 43.353 115.763 43.353 90C43.353 64.2372 64.2272 43.363 89.99 43.363C115.753 43.363 136.627 64.2372 136.627 90Z" fill="white"/>
<mask id="mask0_9093_2537" style="mask-type:luminance" maskUnits="userSpaceOnUse" x="52" y="49" width="76" height="76">
<path d="M52.5004 87.2108C52.5004 107.915 69.2858 124.7 89.99 124.7C110.694 124.7 127.48 107.915 127.48 87.2108C127.48 66.5065 110.694 49.7112 89.99 49.7112C69.2858 49.7112 52.5004 66.4965 52.5004 87.2108Z" fill="white"/>
</mask>
<g mask="url(#mask0_9093_2537)">
<path d="M82.6021 105.676C82.822 103.886 84.1716 97.2479 86.2011 94.9885L94.1189 95.0185C96.0883 97.2479 97.4379 103.886 97.6579 105.676H82.6021Z" fill="#613393"/>
<path d="M69.3958 105.576C69.9456 103.796 72.155 98.3176 78.9931 95.0085H84.2816C83.4319 96.3482 81.9523 99.4173 81.0525 105.576H69.3958Z" fill="#613393"/>
<path d="M99.2175 105.576C98.3077 99.4173 96.8381 96.3482 95.9883 95.0186H101.317C108.115 98.3176 110.324 103.796 110.874 105.576H99.2175Z" fill="#613393"/>
<path d="M112.624 105.466C110.844 99.9672 106.695 96.5481 104.216 94.9186H107.035C109.405 95.7483 111.574 96.888 113.453 98.2976C117.212 100.807 119.292 103.936 120.072 105.296L112.624 105.476V105.466Z" fill="#613393"/>
<path d="M60.1983 105.286C61.358 103.266 64.5971 98.6176 70.9053 96.1783C71.885 95.6984 72.8948 95.2686 73.9145 94.9087H76.0539C73.5646 96.5482 69.4157 99.9673 67.6362 105.466L60.1883 105.286H60.1983Z" fill="#613393"/>
<path d="M121.751 105.176C120.522 102.816 118.852 100.727 116.793 98.9375C117.872 99.6873 118.852 100.517 119.712 101.417C121.191 102.956 122.031 104.396 122.431 105.186H121.751V105.176Z" fill="#613393"/>
<path d="M57.839 105.176C58.2389 104.386 59.0886 102.946 60.5582 101.407C61.418 100.507 62.3977 99.6773 63.4774 98.9275C61.408 100.717 59.7485 102.816 58.5088 105.176H57.829H57.839Z" fill="#613393"/>
<path d="M76.4738 93.489C76.6137 90.1499 77.9833 88.2005 78.3932 87.6806C78.8531 87.5806 83.5118 86.401 90.03 86.401C94.0789 86.401 98.0778 86.8409 101.917 87.7106C102.287 88.2005 103.646 90.1499 103.796 93.489H76.4837H76.4738Z" fill="#613393"/>
<path d="M138.667 118.542H42.1933V125.88H138.667V118.542Z" fill="#00A7E0"/>
<path d="M55.1897 109.954V107.695H55.1097C53.2203 107.645 51.7907 107.595 50.8209 107.545C51.0409 107.505 51.2708 107.455 51.5207 107.405C52.9803 107.105 54.9798 106.695 57.769 106.695C57.909 106.695 74.0645 107.295 90.4399 107.295C106.815 107.295 122.991 106.705 123.131 106.695C125.91 106.695 127.9 107.105 129.359 107.405C129.619 107.455 129.859 107.505 130.089 107.545C128.949 107.615 127.5 107.685 125.77 107.745H125.69V109.944H55.2097L55.1897 109.954Z" fill="#613393"/>
<path d="M125.67 111.424H55.1897V117.072H125.67V111.424Z" fill="#613393"/>
</g>
<path d="M119.782 60.2683C126.4 67.4663 130.449 77.0836 130.449 87.6307C130.449 109.974 112.334 128.089 89.99 128.089C67.6462 128.089 49.5413 109.974 49.5413 87.6307C49.5413 77.0736 53.5901 67.4663 60.2083 60.2683L59.2186 59.2786C51.3407 67.1564 46.4721 78.0333 46.4721 90.06C46.4721 114.103 65.9567 133.588 90 133.588C114.043 133.588 133.528 114.103 133.528 90.06C133.528 78.0433 128.659 67.1564 120.781 59.2786L119.792 60.2683H119.782Z" fill="#613393"/>
<path d="M61.1681 145.235L65.6868 135.067L69.7257 136.867C70.8654 137.377 71.6452 138.047 72.0551 138.896C72.4749 139.736 72.425 140.726 71.9251 141.845C70.9054 144.145 69.1859 144.765 66.7865 143.695L65.2969 143.025L63.7973 146.394L61.1581 145.215L61.1681 145.235ZM67.3863 138.376L66.2567 140.916L66.6966 141.116C66.9465 141.226 67.1364 141.306 67.2764 141.366C67.4063 141.416 67.5863 141.466 67.8062 141.516C68.0262 141.556 68.2061 141.566 68.3461 141.526C68.4761 141.486 68.626 141.406 68.776 141.276C68.9259 141.146 69.0559 140.966 69.1559 140.716C69.2658 140.466 69.3258 140.236 69.3258 140.046C69.3258 139.846 69.2958 139.686 69.2358 139.546C69.1759 139.416 69.0559 139.286 68.8859 139.156C68.706 139.026 68.556 138.936 68.4161 138.856C68.2761 138.786 68.0762 138.696 67.8262 138.576L67.3764 138.376H67.3863Z" fill="white"/>
<path d="M80.9626 146.924L83.5618 152.053L80.0228 151.393L78.1333 146.684H78.1033L77.3136 150.883L74.4744 150.343L76.5238 139.416L80.7726 140.216C81.9123 140.426 82.7821 140.886 83.3719 141.576C83.9617 142.266 84.1517 143.175 83.9417 144.295C83.7918 145.075 83.4619 145.715 82.932 146.204C82.4022 146.694 81.7523 146.934 80.9726 146.934M78.9631 142.126L78.4533 144.855L78.7332 144.905C80.0528 145.155 80.7926 144.825 80.9626 143.915C81.1325 143.005 80.5627 142.425 79.243 142.186L78.9631 142.136V142.126Z" fill="white"/>
<path d="M114.703 137.567L111.564 138.966L112.324 140.666L115.293 139.336L116.293 141.576L113.314 142.905L114.103 144.655L117.242 143.255L118.232 145.495L112.454 148.064L107.925 137.907L113.703 135.337L114.703 137.567Z" fill="white"/>
<path d="M41.8034 52.3504C42.0533 51.3307 42.5332 50.4209 43.233 49.6012C43.9328 48.7914 44.7726 48.1916 45.7423 47.7917C46.712 47.4018 47.7217 47.2718 48.7714 47.4118C49.8212 47.5517 50.7609 47.9816 51.5807 48.6914C52.9403 49.8711 53.6801 51.2707 53.7901 52.8902C53.9 54.5098 53.3702 55.9994 52.2005 57.359C51.0308 58.7087 49.6312 59.4484 48.0117 59.5784C46.3921 59.7083 44.9025 59.1785 43.5329 57.9988C42.7031 57.289 42.1533 56.4193 41.8634 55.3996C41.5735 54.3798 41.5535 53.3601 41.8034 52.3504ZM47.4718 50.341C46.622 50.4209 45.9122 50.7908 45.3524 51.4406C44.7926 52.0905 44.5326 52.8402 44.5726 53.69C44.6126 54.5498 44.9325 55.2296 45.5124 55.7295C46.2222 56.3493 47.0219 56.6292 47.9017 56.5892C48.7815 56.5392 49.5012 56.1893 50.0811 55.5295C50.6509 54.8697 50.9009 54.0999 50.8209 53.2202C50.7409 52.3404 50.341 51.6006 49.6312 50.9808C49.0414 50.4709 48.3216 50.261 47.4718 50.341Z" fill="white"/>
<path d="M62.1177 42.7031L67.5062 44.6825L64.4671 46.612L59.8784 44.4526L59.8484 44.4726L62.1377 48.0916L59.6984 49.6411L53.7501 40.2437L57.399 37.9344C58.3788 37.3145 59.3185 37.0546 60.2283 37.1546C61.128 37.2546 61.8878 37.7944 62.4976 38.7541C62.9275 39.424 63.1075 40.1238 63.0575 40.8436C63.0075 41.5634 62.6876 42.1832 62.1177 42.7131M57.3691 40.5636L58.8486 42.913L59.0886 42.763C60.2183 42.0532 60.5382 41.3035 60.0483 40.5237C59.5584 39.7439 58.7387 39.7039 57.609 40.4237L57.3691 40.5737V40.5636Z" fill="white"/>
<path d="M70.6954 31.6661L73.4446 39.8938L76.7337 38.7942L77.5035 41.1135L71.4752 43.1329L67.9462 32.5859L70.6954 31.6661Z" fill="white"/>
<path d="M88.4404 37.7445L84.4615 38.0144L83.8217 39.9938L80.7626 40.1938L84.2816 28.8069L87.4307 28.597L92.3594 39.414L89.2802 39.624L88.4304 37.7445H88.4404ZM87.5107 35.5951L86.1011 32.146H86.0711L85.1114 35.765L87.5107 35.6051V35.5951Z" fill="white"/>
<path d="M96.5782 39.8138L99.2175 29.0068L102.027 29.6866L105.556 37.5545L105.586 37.5645L107.195 30.9563L110.005 31.6361L107.365 42.4431L104.556 41.7633L101.027 33.8855L101.007 33.8755L99.3875 40.4936L96.5782 39.8138Z" fill="white"/>
<path d="M112.124 44.5826L117.892 35.0752L121.401 37.2046C122.731 38.0144 123.591 39.1641 123.971 40.6537C124.36 42.1432 124.151 43.5628 123.341 44.8925C122.541 46.2221 121.381 47.0619 119.872 47.4018C118.362 47.7517 116.953 47.5218 115.623 46.712L112.114 44.5826H112.124ZM119.102 38.6642L115.873 43.9828L116.423 44.3226C117.212 44.8025 118.002 44.9725 118.792 44.8425C119.582 44.7125 120.242 44.2027 120.781 43.3229C121.291 42.4931 121.431 41.6834 121.221 40.9136C121.011 40.1438 120.502 39.514 119.682 39.0141L119.102 38.6642Z" fill="white"/>
<path d="M133.888 47.4118C134.858 47.8017 135.707 48.3915 136.407 49.2013C137.117 50.0111 137.597 50.9208 137.857 51.9305C138.117 52.9502 138.107 53.97 137.827 54.9897C137.547 56.0094 136.997 56.8792 136.177 57.599C134.828 58.7887 133.338 59.3285 131.718 59.2185C130.099 59.1086 128.689 58.3788 127.51 57.0391C126.33 55.6995 125.78 54.2099 125.88 52.5904C125.98 50.9708 126.7 49.5612 128.059 48.3715C128.879 47.6517 129.809 47.2218 130.859 47.0719C131.908 46.9219 132.918 47.0419 133.898 47.4318M135.118 53.3201C135.147 52.4604 134.888 51.7206 134.318 51.0708C133.748 50.431 133.038 50.071 132.188 49.9911C131.339 49.9111 130.619 50.1311 130.039 50.6509C129.329 51.2707 128.939 52.0205 128.869 52.9003C128.799 53.78 129.049 54.5398 129.629 55.1996C130.209 55.8594 130.939 56.2093 131.808 56.2393C132.688 56.2793 133.478 55.9894 134.188 55.3596C134.768 54.8498 135.078 54.1599 135.118 53.3101" fill="white"/>
<path d="M112.464 57.9189C110.764 56.7292 108.985 55.6595 107.105 54.7498C99.3174 61.3579 93.9589 72.3748 93.1691 85.0413C93.9889 85.0513 95.6284 85.3313 95.6284 85.0613C95.6284 73.0547 102.517 62.7076 112.464 57.9189Z" fill="#00A7E0"/>
<path d="M113.993 57.229C115.073 56.7892 116.173 56.4093 117.312 56.0893C115.353 54.5098 113.264 53.1102 111.044 51.8805C110.114 52.4403 109.215 53.0802 108.335 53.75C110.314 54.7597 112.214 55.9194 113.993 57.229Z" fill="#00A7E0"/>
<path d="M89.99 50.8108C84.4216 50.8108 79.1231 51.9805 74.3244 54.0899C82.1422 61.008 87.4907 72.2049 88.2705 85.0213C89.4002 85.0213 90.5399 85.0213 91.6996 85.0213C92.4794 72.2049 97.8279 61.008 105.646 54.0899C100.847 51.9905 95.5485 50.8108 89.9801 50.8108" fill="#00A7E0"/>
<path d="M89.9901 49.3512C96.0184 49.3512 101.737 50.6808 106.895 53.0502C107.765 52.3504 108.655 51.6906 109.575 51.1008C103.686 48.1316 97.0381 46.452 89.9901 46.452C82.942 46.452 76.2939 48.1316 70.4055 51.1008C71.3253 51.6906 72.215 52.3604 73.0848 53.0502C78.2334 50.6808 83.9617 49.3512 89.9901 49.3512Z" fill="#00A7E0"/>
<path d="M84.3616 85.2413C84.3616 85.2413 85.9912 85.0314 86.8209 85.0214C86.0312 72.3549 80.6727 61.3579 72.8848 54.7397C71.0053 55.6495 69.2158 56.7192 67.5263 57.9089C77.4735 62.6976 84.3616 73.2246 84.3616 85.2313" fill="#00A7E0"/>
<path d="M71.6451 53.75C70.7654 53.0802 69.8656 52.4403 68.9359 51.8805C66.7265 53.1102 64.6271 54.5198 62.6776 56.0893C63.8073 56.3993 64.917 56.7792 65.9967 57.219C67.7762 55.9094 69.6657 54.7497 71.6551 53.74" fill="#00A7E0"/>
<path d="M91.2897 141.206H88.4005V152.323H91.2897V141.206Z" fill="white"/>
<path d="M97.6779 151.903L95.5585 140.986L99.5874 140.206C101.107 139.906 102.517 140.186 103.816 141.036C105.106 141.886 105.906 143.065 106.196 144.595C106.495 146.124 106.196 147.514 105.316 148.784C104.436 150.053 103.236 150.833 101.707 151.133L97.6779 151.913V151.903ZM98.8576 142.835L100.047 148.944L100.687 148.824C101.597 148.644 102.297 148.244 102.786 147.614C103.286 146.994 103.426 146.164 103.236 145.155C103.046 144.205 102.617 143.505 101.947 143.075C101.277 142.645 100.467 142.525 99.5274 142.705L98.8576 142.835Z" fill="white"/>
</svg>
