<svg width="180" height="180" viewBox="0 0 180 180" fill="none" xmlns="http://www.w3.org/2000/svg">
<path d="M88.7201 163.32C78.7901 158.27 71.1601 153.77 64.7101 149.17C56.8701 143.57 50.6701 137.74 45.7801 131.33C36.2801 118.72 32.05 104.06 32.05 83.8V35.92L33.48 35.11C49.75 25.88 69.3001 21 90.0001 21C110.7 21 130.25 25.88 146.52 35.11L147.95 35.92V83.8C147.95 104.07 143.72 118.72 134.23 131.32C123.04 145.96 106.24 155.71 91.2801 163.32L90.0001 163.97L88.7201 163.32Z" fill="white"/>
<path d="M90.0001 23.8101C69.3101 23.8101 50.2401 28.83 34.8701 37.55V83.79C34.8701 84.34 34.8701 84.8701 34.8801 85.4001C53.4401 68.4601 72.2101 58.4501 90.9601 58.2401C106.27 58.0601 119.14 64.56 125.6 73.92C122.39 72.22 118.64 70.82 114.5 69.78C95.0201 68.08 79.04 82.95 79.04 101.28C79.04 102.57 79.1201 103.83 79.2601 105.04C86.5301 104.74 93.0101 104.41 96.8401 104.12C98.5701 103.99 98.6601 103.8 98.8701 102.87C100.16 97.1001 105.19 92.89 111.27 92.89C117.35 92.89 122.37 97.0901 123.67 102.87C123.88 103.8 123.96 103.99 125.7 104.12C129.5 104.41 135.91 104.73 143.12 105.03C144.44 98.93 145.15 91.95 145.15 83.78V37.54C129.78 28.82 110.71 23.8 90.0201 23.8" fill="#E82176"/>
<path d="M97.6601 84.9001C96.4201 84.9201 96.09 85.0501 95.61 85.4601C94.88 86.0901 93.9601 87.0101 93.2701 87.9101C98.2801 87.9101 124.22 87.9101 129.24 87.9101C128.55 87.0101 127.63 86.0901 126.9 85.4601C126.42 85.0501 126.09 84.9201 124.86 84.9001C120.62 84.8201 101.91 84.8201 97.67 84.9001" fill="#FAA21B"/>
<path d="M100.57 81.9699C109.13 81.8999 113.4 81.8999 121.95 81.9699C118.78 80.3499 115.35 79.4399 111.26 79.4399C107.17 79.4399 103.74 80.3499 100.57 81.9699Z" fill="#FAA21B"/>
<path d="M79.54 106.96C81.08 115.64 85.7801 122.1 91.0601 126.19C75.2001 120.48 70.06 101.84 76.05 88.5901C62.27 102.28 75.2501 132.2 108.33 132.2C116.74 132.2 125.72 129.95 131.69 124.42C128.97 128.74 124.47 133.62 121.47 136.36C105.62 143.25 76.9901 139.88 63.4501 121.32C67.8501 136 88.45 147.8 110.29 145.34C103.8 149.8 96.8601 153.65 90.0101 157.23V160.8C107.16 152.08 121.93 142.77 131.99 129.61C136.74 123.31 140.42 116.14 142.67 106.95H79.55L79.54 106.96ZM111.26 118.29C108.4 118.29 105.75 117.42 103.63 115.82C107.26 116.02 115.26 116.02 118.89 115.82C116.77 117.42 114.13 118.29 111.26 118.29ZM123.49 109.1C123.25 110.07 122.6 111.39 122.3 111.88C121.95 112.45 121.9 112.47 121.35 112.49C118.64 112.63 103.89 112.63 101.18 112.49C100.64 112.46 100.58 112.44 100.23 111.88C99.94 111.4 99.3201 110.06 99.0601 109.09C107.42 109.19 115.13 109.11 123.49 109.01V109.1Z" fill="#00BBD3"/>
<path d="M110.28 145.34C88.4401 147.8 67.8301 136.01 63.4401 121.33C76.9801 139.89 105.62 143.26 121.47 136.37C124.47 133.63 128.97 128.75 131.69 124.42C125.71 129.95 116.73 132.2 108.33 132.2C75.2501 132.2 62.28 102.28 76.05 88.59C70.0601 101.83 75.2001 120.47 91.0601 126.19C85.7801 122.09 81.07 115.64 79.54 106.96C79.22 105.16 79.04 103.27 79.04 101.29C79.04 82.95 95.0301 68.08 114.53 69.79C92.9001 64.35 60.2701 68.7 35.1501 92.12C35.5201 97.63 36.27 102.53 37.36 106.96C39.46 115.36 42.67 122.49 48.04 129.61C58.09 142.76 72.8701 152.08 90.0201 160.8V157.23C96.8701 153.65 103.81 149.79 110.3 145.34" fill="#091F40"/>
<path d="M79.3501 105.8C79.3301 105.64 79.3101 105.47 79.2801 105.31C79.3001 105.47 79.3201 105.64 79.3501 105.8Z" fill="#FAA21B"/>
<path d="M79.54 106.95C79.49 106.68 79.4501 106.42 79.4101 106.15C79.4501 106.42 79.49 106.69 79.54 106.95Z" fill="#FAA21B"/>
<path d="M131.11 40.65C126.93 40.65 125.74 45.61 125.74 49.82C125.74 56.37 128.45 61.18 132.38 61.31C136.35 61.45 137.6 56.72 137.6 52.16C137.6 46.59 135.7 40.64 131.11 40.64M132.12 58.72C130.35 58.72 128.81 55.87 128.81 50.17C128.81 45.78 129.78 43.11 131.52 43.17C133.35 43.23 134.52 46.27 134.52 51.78C134.52 56.33 133.74 58.72 132.12 58.72Z" fill="white"/>
<path d="M123.38 45.0701V55.8901C120.61 56.6501 113.5 54.5001 113.5 45.1701C113.5 39.8901 115.82 36.3201 119.48 36.3201C120.57 36.3201 121.69 36.6401 122.82 37.2901L122.85 39.7101C121.91 39.1501 120.99 38.8401 120.19 38.8401C117.81 38.8401 116.58 41.4601 116.58 45.2501C116.58 50.1601 118.68 53.0101 120.77 53.2301V44.1601L123.37 45.0801L123.38 45.0701Z" fill="white"/>
<path d="M111.83 49.9901V52.3701C109.24 51.6901 106.32 51.0301 104.24 50.6801V44.22C103.81 44.15 103.39 44.08 102.98 44.01L102.52 41.6801C103.08 41.7601 103.66 41.85 104.24 41.95V33.04C106.59 33.36 109.24 33.78 111.77 34.35V36.58C110.48 36.28 108.83 35.94 107.24 35.66V42.4901C108.76 42.7801 110.16 43.07 111.13 43.28V45.6C110.09 45.37 108.74 45.07 107.24 44.78V48.91C108.58 49.2 110.48 49.6401 111.82 49.9901" fill="white"/>
<path d="M100.69 50.16V32.6C99.8901 32.51 98.5001 32.4 97.6901 32.35V49.83C98.4401 49.89 99.9701 50.07 100.69 50.16Z" fill="white"/>
<path d="M93.05 34.26C91.8 32.85 89.9601 32.09 86.9601 32.1C85.9801 32.1 85.17 32.1399 84.54 32.1599V49.67C85.23 49.65 86.22 49.61 86.98 49.58C89.95 49.45 91.7401 48.76 93.0301 47.3C94.3401 45.81 95.0801 43.57 95.0801 40.84C95.0801 38.11 94.4 35.8 93.04 34.26M90.4501 46.32C89.7901 47.02 88.9301 47.3 87.9501 47.36C87.8301 47.36 87.6901 47.3699 87.5201 47.3799L87.54 34.27C87.67 34.27 87.8001 34.27 87.9301 34.27C88.8701 34.31 89.84 34.56 90.54 35.37C91.42 36.36 91.98 38.23 91.98 40.83C91.98 43.43 91.4101 45.29 90.4501 46.33" fill="white"/>
<path d="M75.7201 33.05V50.73L73.8801 51.0601L68.2201 41.57V52.4001C67.4701 52.5901 66.3301 52.93 65.6801 53.13V34.92L67.5801 34.4901L73.1401 43.8701V33.45L75.7201 33.0601V33.05Z" fill="white"/>
<path d="M42.1601 62.96C47.1201 63.39 50.5001 59.52 50.5001 55.47C50.5001 50.69 45.9701 49.6 46.0001 46.2C46.0201 44.02 48.0101 42.41 50.7601 43.09V40.71C47.2501 39.88 43.1901 42.59 43.1901 47.03C43.1901 51.75 47.7901 52.48 47.6601 56.36C47.5901 58.6 45.8601 60.97 42.1601 60.37V62.96Z" fill="white"/>
<path d="M60.7101 54.76C61.5801 54.42 63.0001 53.92 63.7001 53.69L59.5601 36.5601L57.5801 37.2L52.0101 58.63C52.8701 58.18 53.9401 57.65 54.8201 57.25L55.6301 53.79C57.1201 53.11 58.6501 52.45 60.1301 51.83L60.7101 54.76ZM56.2201 51.2701L58.2801 42.41L59.73 49.78C58.7 50.21 57.4101 50.75 56.2201 51.2701Z" fill="white"/>
<path d="M83.62 74.1801C61.07 78.4701 43.23 98.2001 48.76 124.31C51.74 129.01 56.52 134.09 61.36 138.13C47.16 115.07 53.19 88.4801 71.04 81.2101C56.72 93.3901 60.12 108.55 66.8 115.68C60.89 99.8401 63.78 83.2101 83.62 74.1801Z" fill="#00BBD3"/>
<path d="M96.8301 104.13C98.5601 104 98.65 103.81 98.86 102.88C100.15 97.11 105.18 92.9 111.26 92.9C117.34 92.9 122.36 97.1 123.66 102.88C123.87 103.81 123.96 104 125.69 104.13C129.49 104.42 135.9 104.74 143.11 105.05C143.47 103.41 143.78 101.71 144.04 99.94C140.77 99.74 138.08 99.53 136.2 99.37C134.53 99.23 134.5 99.32 134.2 98.01C134.04 97.33 133.88 96.68 133.63 95.94C133.22 94.73 133.2 94.76 131.47 94.73C129.48 94.7 127.18 94.64 124.55 94.58C123.96 94.57 123.6 94.46 123.1 94.19C122.79 94.02 122.28 93.6 121.93 93.3C125.44 93.3 129.26 93.3 132.59 93.24C132.24 92.41 131.75 91.53 131.25 90.74C130.77 89.98 130.73 89.97 129.11 89.95C120.21 89.81 102.32 89.81 93.4101 89.95C91.7901 89.98 91.7501 89.99 91.2701 90.75C90.7801 91.54 90.2901 92.42 89.9301 93.24C93.2601 93.3 97.0901 93.29 100.59 93.3C100.24 93.6 99.74 94.02 99.42 94.19C98.92 94.46 98.5701 94.57 97.9701 94.58C95.3401 94.64 93.04 94.7 91.05 94.73C89.32 94.76 89.3001 94.73 88.8901 95.94C88.6401 96.68 88.4801 97.32 88.3201 98.01C88.0101 99.32 87.9901 99.24 86.3201 99.37C84.5601 99.51 82.0801 99.71 79.0701 99.9C79.0501 100.33 79.04 100.77 79.04 101.21C79.04 102.53 79.1201 103.81 79.2701 105.05C86.5401 104.75 93.0201 104.42 96.8401 104.13" fill="#FAA21B"/>
</svg>
