<svg width="180" height="180" viewBox="0 0 180 180" fill="none" xmlns="http://www.w3.org/2000/svg">
<mask id="mask0_9093_2539" style="mask-type:luminance" maskUnits="userSpaceOnUse" x="42" y="3" width="96" height="172">
<path d="M42.03 42C42.03 42 42.03 97.68 42.03 120.3C42.03 145.54 70.32 161.53 89.98 174.72C109.6 161.69 137.94 145.6 137.94 120.28V3.63L42.03 42Z" fill="white"/>
</mask>
<g mask="url(#mask0_9093_2539)">
<path d="M66.9213 -38.3992L-32.9556 130.349L113.065 216.774L212.942 48.0259L66.9213 -38.3992Z" fill="url(#paint0_radial_9093_2539)"/>
</g>
<path d="M89.99 176.88L89 176.22C87.17 174.99 85.29 173.76 83.31 172.45C64.13 159.84 40.26 144.16 40.26 120.31C40.26 96.46 40.26 42.01 40.26 42.01V40.8L139.75 1V120.3C139.75 144.4 115.63 160.14 96.24 172.79C94.41 173.98 92.68 175.11 90.99 176.23L89.99 176.89V176.88ZM43.83 43.21C43.83 51.46 43.83 99.65 43.83 120.3C43.83 142.22 66.81 157.32 85.27 169.45C86.91 170.53 88.47 171.55 90 172.57C91.38 171.66 92.8 170.74 94.28 169.77C112.94 157.6 136.16 142.44 136.16 120.28V6.26999L43.83 43.2V43.21Z" fill="white"/>
<mask id="mask1_9093_2539" style="mask-type:luminance" maskUnits="userSpaceOnUse" x="95" y="25" width="32" height="48">
<path d="M108.69 26.59C103.04 29.95 104.36 33.14 95.93 35.82C109.31 44.08 119.74 57.03 124.85 72.35C125.19 71.31 125.48 70.27 125.7 69.36C126.21 65.43 126.24 62.16 126.06 58.08C125.97 56.03 125.33 54.03 124.15 52.36C124.15 52.35 124.14 52.34 124.13 52.33C122.04 49.38 120.73 48.12 119.34 44.79C119.28 44.63 119.34 44.44 119.5 44.36C120.8 43.58 122.22 42.81 123.42 41.84C123.91 41.45 124.36 41.03 124.76 40.57C124.24 39.33 123.55 37.99 123.47 36.65C123.58 36.27 124.06 35.83 123.81 35.44C122.84 34.25 121.84 32.99 121.27 31.56C121.18 30.84 121.09 29.82 121.05 29.65C120.25 27.45 118.48 26.13 116.4 25.56C115.58 25.34 114.71 25.23 113.84 25.23C112.01 25.23 110.16 25.71 108.68 26.58" fill="white"/>
</mask>
<g mask="url(#mask1_9093_2539)">
<path d="M114.406 10.4517L72.9419 43.6232L107.75 87.1331L149.214 53.9616L114.406 10.4517Z" fill="url(#paint1_linear_9093_2539)"/>
</g>
<mask id="mask2_9093_2539" style="mask-type:luminance" maskUnits="userSpaceOnUse" x="49" y="62" width="77" height="59">
<path d="M49.84 62.26C50.16 68.48 54.72 75.66 65.19 79.73C65.19 79.73 58.18 79.15 51.3 72.82C52.69 79.5 57.76 87.02 69.46 88.88C69.46 88.88 61.86 88.42 54.97 84.7C55.94 87.04 57.04 89.31 58.27 91.5C62.13 96.61 67.48 97.88 75.9 98.21C75.9 98.21 68.95 100.92 62.32 97.91C64.67 101.18 67.29 104.23 70.17 107.02C74.01 107.59 78.67 107 84.3 104.75C84.16 104.86 79.62 108.39 72.86 109.49C77.97 113.94 83.74 117.6 89.99 120.34C109.01 110.65 122.69 91.51 125.59 70.34C125.64 70.02 125.65 69.69 125.7 69.36C101.74 82.81 70.94 80.2 49.85 62.26" fill="white"/>
</mask>
<g mask="url(#mask2_9093_2539)">
<path d="M75.1899 26.5017L22.4344 100.956L100.332 156.151L153.087 81.6969L75.1899 26.5017Z" fill="url(#paint2_linear_9093_2539)"/>
</g>
<mask id="mask3_9093_2539" style="mask-type:luminance" maskUnits="userSpaceOnUse" x="29" y="23" width="97" height="98">
<path d="M41.23 26.4699C50.42 26.6399 59.93 27.27 64.12 29.4C63.94 29.4 61.79 29.09 58.6 28.78C50.46 27.99 35.54 27.2 29.2 31.59C40.95 32.45 60.26 33.67 71.73 38.37C71.15 38.2 63.14 35.9 55.04 37.7C58.96 39.51 62.67 41.7 66.14 44.21C76.34 45.17 83.81 46.5099 92.9 51.0999C92.56 50.9799 80.37 46.6799 71.15 48.2199C75.39 51.9499 79.16 56.21 82.35 60.92C88.61 61.41 96.2 62.72 101.16 66.02C100.91 65.93 91.84 62.7799 84.35 64.0699C87.53 69.3599 90.03 75.2399 91.62 81.2899C96.63 79.9699 102.11 79.14 106.62 80C106.62 80 98.55 80.46 92.21 83.67C93.37 88.7999 93.95 94.33 93.84 99.68C98.51 97.03 103.87 94.7199 108.64 94.4399C108.64 94.4399 98.88 97.5 93.68 103.37C93.27 109.24 92.1 114.93 89.97 120.37C95.26 117.66 100.3 114.12 104.68 110.07C115.91 99.7399 123.46 85.5 125.57 70.37C125.57 70.37 125.57 70.37 125.57 70.36C125.63 69.94 125.59 70.13 125.65 69.71C117.76 45.58 96.69 27.24 71.61 23.71C68.64 23.28 65.6 23.0699 62.55 23.0699C55.31 23.0699 47.98 24.25 41.22 26.49" fill="white"/>
</mask>
<g mask="url(#mask3_9093_2539)">
<path d="M58.7059 -21.4064L-15.6113 90.5771L96.1723 164.762L170.49 52.7781L58.7059 -21.4064Z" fill="url(#paint3_linear_9093_2539)"/>
</g>
<path d="M65.22 137.21H63.42L67.81 126.66L72.19 137.21H70.39L67.81 130.7L65.22 137.21Z" fill="white"/>
<path d="M77.38 129.95L83.41 137.15L83.79 137.6V137.15V127.04H82.18V133.07L77.32 127.09L77.29 127.04H75.77V137.21H77.38V129.95Z" fill="white"/>
<path d="M90.71 137.15C91.21 137.31 91.74 137.4 92.3 137.4C92.86 137.4 93.43 137.31 93.95 137.15C96.06 136.49 97.51 134.56 97.51 132.15C97.51 131.84 97.49 131.59 97.45 131.35L97.43 131.25H92.04V132.83H95.69C95.54 134.55 94.16 135.74 92.29 135.74C90.42 135.74 88.88 134.13 88.88 132.15C88.88 130.17 90.41 128.54 92.29 128.54C92.87 128.54 93.43 128.7 93.93 129V127.16C93.41 126.98 92.85 126.88 92.29 126.88C89.42 126.88 87.08 129.24 87.08 132.15C87.08 134.49 88.6 136.48 90.7 137.15" fill="white"/>
<path d="M106.9 137.21V135.55H102.48V132.97H106.49V131.36H102.48V128.68H106.82V127.04H100.79V137.21H106.9Z" fill="white"/>
<path d="M116.95 135.55H112.9V127.04H111.21V137.21H116.95V135.55Z" fill="white"/>
<path d="M78.88 151.73C79.49 151.73 80.08 151.63 80.68 151.41L80.76 151.38V149.47L80.57 149.59C80.06 149.91 79.49 150.07 78.88 150.07C77 150.07 75.47 148.46 75.47 146.48C75.47 144.5 77 142.88 78.88 142.88C79.48 142.88 80.05 143.05 80.57 143.37L80.76 143.49V141.57L80.68 141.54C80.08 141.32 79.49 141.22 78.88 141.22C76.01 141.22 73.67 143.58 73.67 146.49C73.67 149.4 76.01 151.75 78.88 151.75" fill="white"/>
<path d="M86.17 141.38H84.48V151.55H86.17V141.38Z" fill="white"/>
<path d="M92.24 151.55H93.93V143.01H96.39V141.38H89.79V143.01H92.24V151.55Z" fill="white"/>
<path d="M104.82 141.38L102.72 145.54L100.61 141.38H98.73L101.87 147.27V151.55H103.56V147.27L106.7 141.38H104.82Z" fill="white"/>
<path d="M84.9401 162.18H86.0101V159.31H88.6201V158.3H86.0101V156.8H88.7401V155.77H84.9401V162.18Z" fill="white"/>
<path d="M94.25 155.67C92.44 155.67 90.96 157.16 90.96 158.99C90.96 160.82 92.43 162.3 94.25 162.3C94.64 162.3 95.01 162.23 95.38 162.1L95.43 162.08V160.88L95.31 160.95C94.99 161.15 94.63 161.25 94.24 161.25C93.06 161.25 92.09 160.23 92.09 158.99C92.09 157.75 93.05 156.72 94.24 156.72C94.62 156.72 94.98 156.83 95.31 157.03L95.43 157.1V155.89L95.38 155.87C95 155.73 94.63 155.67 94.25 155.67Z" fill="white"/>
<defs>
<radialGradient id="paint0_radial_9093_2539" cx="0" cy="0" r="1" gradientUnits="userSpaceOnUse" gradientTransform="translate(132.898 9.63363) rotate(120.62) scale(126.76 126.76)">
<stop stop-color="#2F2F2F"/>
<stop offset="0.38" stop-color="#2F2F2F"/>
<stop offset="1"/>
</radialGradient>
<linearGradient id="paint1_linear_9093_2539" x1="105.163" y1="53.4754" x2="133.118" y2="31.1113" gradientUnits="userSpaceOnUse">
<stop stop-color="#DC897C"/>
<stop offset="0.17" stop-color="#DC897C"/>
<stop offset="0.63" stop-color="#FACEC4"/>
<stop offset="1" stop-color="#FACEC4"/>
</linearGradient>
<linearGradient id="paint2_linear_9093_2539" x1="114.985" y1="110.874" x2="68.8437" y2="78.1803" gradientUnits="userSpaceOnUse">
<stop stop-color="#DC897C"/>
<stop offset="0.09" stop-color="#DC897C"/>
<stop offset="1" stop-color="#FACEC4"/>
</linearGradient>
<linearGradient id="paint3_linear_9093_2539" x1="134.98" y1="110.128" x2="77.03" y2="71.6702" gradientUnits="userSpaceOnUse">
<stop stop-color="#DC897C"/>
<stop offset="1" stop-color="#FACEC4"/>
</linearGradient>
</defs>
</svg>
