<svg width="180" height="180" viewBox="0 0 180 180" fill="none" xmlns="http://www.w3.org/2000/svg">
<mask id="mask0_12490_642" style="mask-type:luminance" maskUnits="userSpaceOnUse" x="30" y="9" width="120" height="162">
<path d="M150 9H30V171H150V9Z" fill="white"/>
</mask>
<g mask="url(#mask0_12490_642)">
<path d="M90 171C70.5386 156.579 51.788 139.417 40.4936 117.436C33.1412 103.14 30 88.823 30 69.5561V19.2531C49.0059 12.7246 67.5562 9 90 9C112.437 9 130.994 12.7246 150 19.2531V69.5561C150 88.823 146.859 103.14 139.506 117.436C128.219 139.417 109.461 156.579 90 171Z" fill="black"/>
<path d="M89.9999 166.701C111.864 150.494 127.37 133.498 136.427 115.865C143.497 102.129 146.555 88.1653 146.555 69.5631V21.7246C128.771 15.6184 109.496 12.4546 89.9999 12.4546C70.5039 12.4546 51.2287 15.6184 33.4518 21.7246V69.5562C33.4518 88.1653 36.5032 102.129 43.5657 115.851C52.6233 133.491 68.1291 150.487 89.9999 166.694V166.701Z" fill="#36E882"/>
<path d="M36.2065 45.7892V69.5562C36.2065 87.7639 39.1406 101.229 46.0096 114.584C54.6324 131.372 69.4202 147.731 89.9932 163.246C110.559 147.731 125.354 131.365 133.97 114.591C140.853 101.222 143.787 87.7568 143.787 69.5562V45.7892C108.675 34.4285 71.3117 34.4285 36.1996 45.7892H36.2065Z" fill="black"/>
<path d="M39.3821 35.9377V28.4537C39.3821 27.2007 39.2303 26.363 38.8436 25.5254C41.0321 24.8676 43.5036 24.1753 45.0432 23.7738C46.4376 23.4138 47.2455 23.2615 48.0186 23.2199C50.2071 23.0953 51.4843 23.8569 51.5258 25.3037C51.5671 26.7369 50.2347 28.246 48.1223 29.2222C51.0287 28.9454 52.7339 29.9007 52.7339 31.8461C52.7339 33.5561 51.4221 35.1139 48.9714 36.3253C47.9219 36.8445 46.7621 37.2391 44.7532 37.7792C43.2758 38.1737 40.9838 38.8315 38.8298 39.4753C39.2303 38.1946 39.3821 37.2253 39.3821 35.9377ZM47.6597 26.453C47.6941 24.9438 46.1616 24.6599 43.3518 25.6223V29.776C46.0787 29.1462 47.6183 27.9692 47.6597 26.453ZM48.5088 32.6768C48.5088 30.7038 46.272 30.0668 43.3518 31.1745V36.6368C46.7069 35.8753 48.5088 34.4907 48.5088 32.6768ZM55.4608 28.2045C55.4608 23.7807 58.9264 20.2292 63.9248 19.523C68.9023 18.8238 72.3749 21.3507 72.3749 25.6845C72.3749 30.0184 68.9162 33.4384 63.8557 34.1999C58.8229 34.9546 55.4608 32.5522 55.4608 28.2045ZM68.1015 26.0861C68.1015 22.7561 66.3755 20.6584 63.904 20.9699C61.405 21.2953 59.6928 23.8984 59.6928 27.3945C59.6928 30.8906 61.3842 33.106 63.8005 32.7461C66.2583 32.3862 68.1083 29.5338 68.1083 26.093L68.1015 26.0861ZM74.6738 31.313L75.9026 27.54C77.3248 29.7831 79.4856 31.0846 81.612 30.9737C83.2276 30.8837 84.3459 30.0115 84.3459 28.8414C84.3459 28.073 83.8763 27.5607 82.6821 27.0346C81.4739 26.5016 79.7687 26.0584 78.5744 25.5599C76.6828 24.7638 75.813 23.6769 75.813 22.0915C75.813 19.6269 78.0013 17.9307 81.4463 17.7507C83.2205 17.6538 85.2986 17.9584 87.1557 18.5884L86.1271 21.8838C84.7531 19.9938 83.0824 19.0661 81.2323 19.1769C79.8653 19.2599 79.0231 19.8623 79.0231 20.7553C79.0231 21.3784 79.389 21.7522 80.4315 22.1884C81.5775 22.6661 83.3242 23.1715 84.4978 23.6561C86.9071 24.6323 88.06 25.9684 88.06 27.7753C88.06 30.4545 85.5402 32.2476 81.4946 32.4346C79.2371 32.5315 76.7794 32.1369 74.6669 31.3269L74.6738 31.313ZM94.729 31.9638C95.2538 30.863 95.4263 29.9977 95.4263 28.6614V19.4122C93.652 19.3361 92.2575 19.973 90.5867 21.5099L89.9171 17.8892C95.1363 17.8961 100.252 18.1176 105.057 18.5538L104.408 22.0915C102.786 20.3815 101.529 19.6892 99.6168 19.5784V28.8138C99.6168 30.1984 99.7826 31.0499 100.328 32.1922C98.4087 32.0814 96.5378 32.0054 94.729 31.9638ZM106.051 25.5323C106.051 21.0876 109.524 18.5122 114.543 19.2253C119.513 19.9384 122.993 23.4899 122.993 27.8377C122.993 32.1853 119.486 34.6638 114.349 33.9091C109.344 33.1753 106.051 29.8453 106.051 25.5323ZM118.74 27.1107C118.74 23.5661 117.069 20.9976 114.543 20.6653C112.009 20.333 110.338 22.4584 110.338 26.0168C110.338 29.5754 111.968 32.0676 114.46 32.4484C117.035 32.843 118.74 30.7176 118.74 27.1107ZM137.373 38.3954L130.166 26.3699V32.9192C130.166 34.283 130.345 35.2454 130.87 36.713C129.061 36.2838 127.508 35.9377 125.803 35.5707C126.203 34.4976 126.348 33.6114 126.348 32.22V25.4008C126.348 23.9607 126.127 22.9846 125.485 21.5722C127.259 21.9392 129.248 22.403 131.236 22.8807L136.897 33.826V27.8583C136.897 26.4807 136.717 25.5738 136.179 24.1615C138.512 24.8122 139.976 25.2277 141.212 25.6014C140.818 26.6053 140.68 27.3529 140.68 28.5299V39.3854C139.796 39.1223 138.505 38.7484 137.366 38.4092L137.373 38.3954Z" fill="black"/>
<path d="M76.6 62.5778C77.2902 61.6847 77.9737 60.667 78.3534 59.9401C78.671 59.3378 78.747 58.9917 78.6779 58.6871C78.5744 58.2439 78.1324 57.9393 77.6009 57.9531C75.2812 61.7816 73.5484 63.6715 69.4476 67.2232C68.9507 67.6593 68.8126 68.2685 69.0334 69.134C72.1332 67.4931 76.9036 65.0978 79.6582 63.6715C80.4867 63.2423 80.9284 62.8893 81.2046 62.4047C81.4876 61.8993 81.5982 61.2346 81.6328 59.8292C80.1828 60.7085 78.312 61.7331 76.6068 62.5778H76.6Z" fill="white"/>
<path d="M97.9048 101.748L126.479 93.3715C127.68 93.0185 128.474 92.6653 129.248 92.1461C131.836 90.4084 134.37 86.6631 136.144 81.9484L97.3939 94.9362C97.4352 94.1538 97.6424 93.8076 98.2085 93.5584L128.322 80.1623C129.475 79.65 130.297 79.1585 131.022 78.5423C133.445 76.4584 135.571 72.2977 136.738 67.3615L97.2419 86.6561C97.1799 85.8738 97.3317 85.5277 97.884 85.1884L129.489 66.0877C130.594 65.4161 131.381 64.7861 132.03 64.0591C134.135 61.6777 135.999 56.9146 136.724 52.0269L81.4256 87.7569C78.5123 89.6399 77.2559 91.7584 77.2559 94.8254C77.2559 96.0299 77.4352 97.29 77.9048 99.263L79.5271 106.11C77.601 103.936 76.1375 102.102 74.9085 100.336C72.4439 96.8053 71.3117 94.1538 71.3117 91.62C71.3117 88.3591 73.1482 85.6039 76.9245 83.1184L96.8968 69.9853C100.224 67.7977 102.13 66.2745 103.435 64.7169C105.167 62.64 106.03 60.2931 106.03 57.69C106.03 50.8015 100.004 45.6715 92.0367 45.6715C88.0117 45.6715 84.7119 46.98 81.8467 49.867C80.3349 51.3899 78.9264 53.37 77.8151 55.4677C78.2499 55.8207 78.9747 56.0353 79.7411 56.0353C80.5696 56.0353 81.0805 55.8069 81.8122 55.1354C83.2827 53.7508 85.5333 50.5593 89.4685 49.8115C88.4536 50.7877 87.777 51.7292 87.3007 52.6569C86.8175 53.6053 86.5827 54.4707 86.4032 54.9831C86.2237 55.523 86.0373 55.8138 85.5402 56.1253C85.1191 56.3884 84.484 56.7416 83.6347 57.2054C83.5243 58.4169 83.3931 60.1546 83.2619 62.017C86.3341 60.6531 88.5295 59.7323 90.2762 58.7699C92.7063 57.4269 93.9282 56.2153 95.1501 53.9168C97.1315 54.1454 98.5744 55.5923 98.5744 57.6553C98.5744 58.7215 98.1879 59.6977 97.5043 60.5492C96.6483 61.6016 95.309 62.4738 93.8938 63.3322C87.4939 67.2438 71.0355 74.9977 63.8351 78.9162C58.464 81.8376 55.4816 84.2747 53.5002 87.1477C51.3877 90.2077 50.3383 93.9116 50.3383 97.9269C50.3383 102.268 51.6293 106.844 54.4184 112.396C60.9493 125.342 73.9282 140.061 89.9931 152.737V141.189L92.7269 143.031C94.3701 144.138 95.7163 144.637 97.0555 144.644C99.0507 144.658 101.191 143.557 104.139 141.009L90.1519 132.798C90.6904 132.321 91.0701 132.238 91.6293 132.452L100.922 136.032C102.095 136.488 103.048 136.689 104.021 136.689C106.617 136.689 109.482 135.062 112.748 131.718L92.2989 125.709C92.7615 125.121 93.0997 124.968 93.7557 125.072L109.993 127.648C111.07 127.821 111.823 127.849 112.513 127.751C115.04 127.385 117.856 125.315 121.129 121.431L94.1354 118.412C94.4667 117.768 94.8187 117.547 95.4677 117.547L116.669 117.519C118.07 117.519 119.023 117.422 119.824 117.201C122.399 116.495 125.057 114.009 127.936 109.627L95.5229 110.859C95.7991 110.118 96.0615 109.883 96.7104 109.793L122.751 106.013C124.153 105.805 124.905 105.618 125.651 105.286C128.322 104.102 131.042 100.925 133.369 96.2654L96.8831 103.015C97.0141 102.275 97.2834 101.956 97.9048 101.769V101.748Z" fill="white"/>
</g>
</svg>
