<svg width="180" height="180" viewBox="0 0 180 180" fill="none" xmlns="http://www.w3.org/2000/svg">
<path d="M89.88 168.747C56.5812 168.747 29.4877 141.66 29.4877 108.361C29.4877 91.7419 36.4748 75.6727 48.6534 64.2759L49.3375 63.6346L48.8916 62.81C45.8623 57.1544 45.6485 53.0561 45.6546 51.9384V51.1933C45.734 47.034 47.3403 43.8397 48.6718 41.8914C50.0032 39.9552 51.2797 38.8375 51.7683 38.4467C54.2541 36.3945 57.4729 35.3134 61.0825 35.3134C65.9014 35.3379 70.0241 37.0785 71.1723 37.6099C73.933 38.8437 76.0767 39.1429 77.396 39.1735L78.2999 39.1979L78.587 38.3367C79.2283 36.4006 80.3826 34.6477 81.9279 33.2613L85.8429 29.7494L77.5975 32.0703L78.0678 28.9126L78.4099 27.0742C79.0145 23.9105 81.1155 21.1193 84.487 19.006C85.0305 18.6701 85.5986 18.3464 86.1849 18.0533L86.8567 17.7173V10.7791L90.448 11.2432C91.9566 11.4387 93.3614 11.9029 94.6073 12.6175C95.2425 12.9778 95.8472 13.4114 96.4091 13.9062C96.8366 14.2848 97.1176 14.6574 97.4474 15.1704L97.4901 15.2376L97.5268 15.3048C98.2719 16.6912 98.2414 18.1143 98.2169 19.2626C98.2169 19.4641 98.1986 19.6596 98.1803 19.8489C98.1559 20.1421 98.1375 20.4352 98.1375 20.7406V21.5957L99.188 21.9744C99.5606 22.1087 99.8843 22.2187 100.135 22.3897C101.643 23.4158 102.81 24.7533 103.5 26.2619C103.781 26.8971 103.97 27.5262 104.086 28.1614C104.196 28.7294 104.263 29.2486 104.282 29.7677V30.0059C104.282 30.3174 104.257 30.5922 104.233 30.8243L104.166 31.3496C104.135 31.5572 104.092 31.7832 104.044 32.0275C103.94 32.5161 103.805 32.9498 103.647 33.3468C103.341 34.1041 102.926 34.8248 102.407 35.5089C101.985 36.0647 101.552 36.48 101.008 36.8709L98.8705 38.3917L101.405 39.0513C101.747 39.1429 102.114 39.1857 102.517 39.1857C103.25 39.1857 103.952 39.0452 104.569 38.9169C106.071 38.6116 107.378 38.184 108.496 37.6343C108.551 37.6099 108.753 37.5183 108.753 37.5183C108.832 37.4817 109.351 37.2618 109.351 37.2618C110.121 36.9503 110.86 36.6877 111.599 36.4617C114.042 35.7043 116.399 35.3195 118.61 35.3195C122.208 35.3195 125.396 36.3701 127.851 38.3673C127.943 38.4344 127.992 38.4772 128.034 38.5138L128.224 38.6726C128.456 38.8681 128.706 39.1063 128.993 39.3933C129.751 40.1568 130.441 40.9935 131.052 41.8914C132.304 43.7176 133.837 46.7103 134.044 50.6314L134.057 50.8757L134.081 50.9246C134.081 50.9246 134.081 51.8835 134.081 51.9506C134.081 53.105 133.831 57.2215 130.844 62.81L130.398 63.6346L131.082 64.2759C143.267 75.6727 150.254 91.748 150.254 108.367C150.254 141.666 123.161 168.753 89.8617 168.753L89.88 168.747Z" fill="white"/>
<path d="M88.0904 12.1716L88.9577 12.2815L90.3014 12.4525C91.6573 12.6296 92.9033 13.0388 94.0148 13.674C94.5768 13.9977 95.1142 14.3825 95.615 14.8223C95.9082 15.0788 96.1098 15.3353 96.4396 15.8361L96.4518 15.8606L96.464 15.885C97.0565 16.9844 97.032 18.1815 97.0076 19.232C97.0076 19.4091 96.9893 19.5801 96.9771 19.7511C96.9526 20.0443 96.9282 20.3741 96.9282 20.7467V22.4507L98.5406 23.0309L98.7971 23.1226C99.0781 23.2203 99.3468 23.318 99.4629 23.3974C100.788 24.2952 101.802 25.4618 102.407 26.7749V26.7871C102.633 27.3063 102.798 27.8438 102.901 28.3873V28.4057L102.908 28.424C103.005 28.9126 103.06 29.3707 103.079 29.8043V29.8593V29.902V29.9998C103.079 30.2502 103.054 30.4762 103.03 30.6838V30.7021L103.005 30.8854C102.993 30.977 102.981 31.0686 102.969 31.1724C102.944 31.3556 102.908 31.5511 102.859 31.7649C102.767 32.1863 102.657 32.5527 102.517 32.8948C102.254 33.5422 101.894 34.1774 101.442 34.7698C101.1 35.2218 100.745 35.5638 100.306 35.8753L96.0304 38.9169L101.106 40.23C101.546 40.3461 102.022 40.4011 102.523 40.4011C103.378 40.4011 104.178 40.2362 104.819 40.1079H104.856C106.419 39.7842 107.824 39.32 109.04 38.7276C109.076 38.7092 109.101 38.697 109.125 38.6909L109.198 38.6604L109.253 38.636H109.266C109.339 38.5993 109.424 38.5627 109.534 38.5138C109.626 38.471 109.736 38.4283 109.852 38.3794H109.864L109.876 38.3672C110.56 38.0924 111.263 37.842 111.971 37.6221C114.292 36.9014 116.528 36.541 118.647 36.541C121.933 36.541 124.858 37.4999 127.094 39.3139L127.137 39.3444L127.179 39.375C127.179 39.375 127.222 39.4116 127.247 39.4299L127.283 39.4605L127.32 39.491C127.363 39.5277 127.405 39.5643 127.472 39.6193C127.601 39.7292 127.827 39.9247 128.15 40.2606C128.853 40.963 129.494 41.7509 130.068 42.5937C131.229 44.2855 132.652 47.0706 132.841 50.6985L132.866 51.1872L132.878 51.2055V51.7979C132.878 51.8346 132.878 51.8712 132.878 51.9079V51.9384V51.9689C132.878 53.0256 132.64 56.8917 129.781 62.2298L128.896 63.8849L130.264 65.1675C136.127 70.6522 140.744 77.1385 143.988 84.4371C147.347 91.9923 149.045 100.048 149.045 108.367C149.045 140.988 122.501 167.532 89.8739 167.532C57.2469 167.532 30.7092 140.982 30.7092 108.361C30.7092 100.042 32.4132 91.9923 35.7663 84.431C39.0094 77.1324 43.6207 70.6461 49.4841 65.1614L50.8522 63.8788L49.9666 62.2237C47.0715 56.8184 46.8639 52.9828 46.87 51.9201V51.2177C46.9433 47.3516 48.4335 44.3832 49.6673 42.5754C50.9071 40.7736 52.0798 39.7475 52.5257 39.3872L52.5379 39.375L52.5501 39.3628C54.8038 37.506 57.7477 36.5227 61.0947 36.5227C65.6449 36.5471 69.5599 38.1962 70.6531 38.7031H70.6653L70.6776 38.7154C73.6092 40.0285 75.924 40.3461 77.3532 40.3766L79.1611 40.4194L79.7291 38.7031C80.3032 36.9686 81.3415 35.3928 82.7279 34.1529L90.5518 27.1353L80.4376 29.9814L80.2177 30.0425L79.0756 30.3662L79.2649 29.1203L79.6069 27.2941C80.1444 24.4662 82.0561 21.956 85.1343 20.0321C85.6474 19.7145 86.1849 19.4091 86.7345 19.1343L88.0782 18.4563V12.1716M85.6474 9.39258V16.9599C85.0855 17.2409 84.4808 17.5768 83.8517 17.9677C80.181 20.2642 77.8907 23.3302 77.2188 26.8482L76.8707 28.7294L76.1195 33.756L80.9017 32.4123L81.1216 32.3512C79.442 33.8537 78.1594 35.7776 77.4326 37.9519C76.3516 37.9275 74.3421 37.6832 71.6914 36.4983C70.4577 35.9242 66.1518 34.1163 61.1191 34.0919H61.0886C57.1858 34.0919 53.7044 35.2645 51.011 37.4938C50.4613 37.9336 49.0871 39.1429 47.6701 41.2012C46.2287 43.3083 44.5308 46.7225 44.4452 51.181V51.633V51.7491V51.9323C44.4391 53.221 44.6957 57.533 47.8289 63.3902C35.7968 74.6344 28.2661 90.6303 28.2661 108.361C28.2661 142.331 55.9032 169.969 89.88 169.969C123.857 169.969 151.494 142.331 151.494 108.361C151.494 90.6303 143.963 74.6283 131.937 63.378C135.015 57.6307 135.315 53.3554 135.321 51.9689C135.321 51.8834 135.321 51.8101 135.321 51.7307V50.6375L135.284 50.5581C135.07 46.3804 133.446 43.1861 132.084 41.1951C131.436 40.2362 130.691 39.3322 129.885 38.5199C129.574 38.2084 129.293 37.9397 129.042 37.732C128.981 37.6832 128.926 37.6343 128.871 37.5915C128.798 37.5244 128.718 37.4633 128.639 37.4022C125.958 35.234 122.513 34.0858 118.653 34.0858H118.629C116.296 34.0858 113.816 34.4889 111.257 35.2768C110.487 35.5088 109.711 35.7837 108.966 36.0891L108.917 36.1074L108.875 36.1257C108.765 36.1746 108.661 36.2173 108.575 36.254C108.453 36.3028 108.349 36.3517 108.27 36.3883L108.209 36.4189L108.172 36.4372C108.123 36.4555 108.056 36.4861 107.977 36.5288C106.859 37.0785 105.601 37.4572 104.38 37.7015C103.805 37.8175 103.152 37.9519 102.529 37.9519C102.254 37.9519 101.979 37.9275 101.723 37.8603C102.37 37.3961 102.895 36.8831 103.384 36.2418C103.97 35.4661 104.441 34.6538 104.783 33.8048C104.972 33.3467 105.125 32.8459 105.247 32.284C105.308 32.0153 105.351 31.7588 105.387 31.5206C105.406 31.4106 105.418 31.3068 105.43 31.203L105.454 31.0258V30.9953L105.461 30.9648C105.491 30.696 105.522 30.3723 105.522 29.9998V29.8837V29.8165V29.7188C105.491 29.1386 105.424 28.5584 105.302 27.9476C105.167 27.2208 104.948 26.5001 104.642 25.8038L104.63 25.7794L104.618 25.7549C103.836 24.0448 102.523 22.5301 100.825 21.3758C100.373 21.0704 99.8721 20.9238 99.3651 20.7345C99.3651 20.2459 99.4323 19.7817 99.4445 19.287C99.469 18.0654 99.5056 16.3919 98.6078 14.7246L98.5467 14.6146L98.4795 14.5108C98.1009 13.9244 97.7527 13.4603 97.2214 12.99C96.6045 12.4464 95.9326 11.9639 95.2181 11.5547C93.8011 10.7424 92.2253 10.2415 90.6068 10.0339L89.2631 9.85676L85.6413 9.38647L85.6474 9.39258Z" fill="white"/>
<path d="M102.315 29.8533C102.297 29.4074 102.236 28.9738 102.15 28.5462C102.059 28.0454 101.906 27.5568 101.704 27.0926C101.13 25.8344 100.159 24.8022 99.0292 24.0327C97.5389 23.0249 96.122 22.6707 96.0487 22.6524C96.1586 22.237 96.2258 21.779 96.2258 21.2659V19.8367C96.2258 18.6213 96.3785 17.357 95.7799 16.2516L95.4196 15.6958C95.3829 15.6469 95.3524 15.598 95.3035 15.5492C94.4424 14.5048 92.8666 13.5642 90.1975 13.2161L88.8539 13.045V19.0489C88.0782 19.342 86.8506 19.8795 85.5435 20.6979C83.4181 22.0294 80.9933 24.1732 80.3704 27.453L80.0222 29.3219L85.1282 27.8866C84.6579 29.5601 84.548 30.9893 84.548 31.9482C84.548 32.7116 84.6152 33.1697 84.6274 33.2247L84.8656 34.7638L86.2887 34.1225C86.5818 33.982 87.3453 33.7805 87.9499 33.6766C88.2614 33.6156 88.5485 33.5728 88.75 33.5423C88.86 33.524 88.9394 33.5179 88.9943 33.5056C89.0249 33.5056 89.0432 33.4995 89.0554 33.4934L89.2753 33.4751L90.0387 33.5667C91.1625 33.6889 92.1947 33.9332 92.9521 34.153C93.3247 34.263 93.6117 34.3607 93.8194 34.434C94.0087 34.4951 94.0454 34.5256 94.137 34.55C94.1492 34.55 94.1553 34.5562 94.1675 34.5623L94.3752 34.6478L94.931 35.0814L94.9737 35.1119C95.0409 35.1669 95.2058 35.3013 95.4196 35.4967C95.7188 35.7716 96.1036 36.1441 96.4212 36.535L97.0442 37.3107L97.9665 36.8038C97.9665 36.8038 97.9909 36.761 98.0092 36.761C98.0398 36.7427 98.0764 36.7244 98.1253 36.6999C98.2902 36.5961 98.4612 36.4923 98.62 36.3762C99.4628 35.8082 100.226 35.1119 100.849 34.3057C101.24 33.7927 101.57 33.2308 101.814 32.6261C101.949 32.3085 102.04 31.9726 102.12 31.6245C102.156 31.4474 102.193 31.2641 102.217 31.087C102.242 30.9282 102.26 30.7755 102.278 30.6167C102.303 30.4213 102.321 30.2319 102.321 30.0243C102.321 29.9754 102.321 29.9266 102.321 29.8777L102.315 29.8533Z" fill="#002856"/>
<path d="M85.794 33.0352C86.7896 32.5832 88.9272 32.3084 88.9272 32.3084C89.9533 28.1491 92.0055 25.7671 92.0055 25.7671L86.4842 27.4833C85.4276 30.6166 85.794 33.0352 85.794 33.0352Z" fill="#B0B3B2"/>
<path d="M90.161 32.3755C92.5919 32.6321 94.5646 33.4261 94.5646 33.4261C96.8306 29.6882 101.081 29.5966 101.081 29.5966C100.929 25.1013 95.7678 23.8004 95.7678 23.8004C91.2237 27.2696 90.161 32.3694 90.161 32.3694V32.3755Z" fill="#B0B3B2"/>
<path d="M95.6395 34.1163C95.6395 34.1163 96.5923 34.837 97.3374 35.7776C97.3374 35.7776 100.868 33.8231 101.051 30.7388C101.051 30.7388 97.7589 30.7388 95.6395 34.1163Z" fill="#B0B3B2"/>
<path d="M95.0532 21.2352V17.8271C95.0532 17.8271 95.1143 15.0543 90.0571 14.3947V19.8793C90.0571 19.8793 82.5692 22.1147 81.5492 27.6604L92.885 24.46C92.885 24.46 95.0593 23.9409 95.0593 21.2291L95.0532 21.2352Z" fill="white"/>
<path d="M98.2597 41.9278C98.2597 46.5574 94.5096 50.3075 89.88 50.3075C85.2505 50.3075 81.5004 46.5574 81.5004 41.9278C81.5004 37.2982 85.2566 33.542 89.88 33.542C94.5035 33.542 98.2597 37.2982 98.2597 41.9278Z" fill="#002856"/>
<path d="M79.9795 42.0135C79.9795 36.5838 84.4075 32.1924 89.88 32.1863C95.3463 32.1863 99.7805 36.5838 99.7805 42.0135C99.7805 47.4371 95.3402 51.8346 89.88 51.8346C84.4075 51.8346 79.9795 47.4371 79.9795 42.0135ZM82.7707 42.0135C82.7768 45.8979 85.9528 49.0495 89.88 49.0617C93.8072 49.0556 96.9771 45.904 96.9832 42.0135C96.9709 38.1168 93.8072 34.9714 89.88 34.9653C85.9528 34.9714 82.7768 38.1168 82.7707 42.0135Z" fill="#002856"/>
<path d="M56.6239 92.8534L56.6117 92.8778V123.807H56.7277L56.6178 123.856C58.4257 127.728 60.8809 131.24 63.8615 134.233L64.063 134.434V82.2688L63.8615 82.4765C60.8809 85.4692 58.4257 88.975 56.6178 92.8473L56.6239 92.8534ZM71.3861 140.041L71.441 140.078C73.7131 141.403 76.1317 142.49 78.6847 143.309L78.8374 143.357V79.6853H71.38V140.041H71.3861ZM86.1482 144.866L86.2582 144.878C87.4553 144.994 88.6524 145.061 89.88 145.061C91.1076 145.061 92.3108 144.994 93.5018 144.878L93.6057 144.866V79.6914H86.1482V144.866ZM100.923 143.357L101.075 143.309C103.622 142.49 106.041 141.403 108.319 140.078L108.38 140.041V79.6853H100.923V143.357ZM123.142 92.8534C121.334 88.975 118.867 85.4753 115.892 82.4826L115.691 82.281V134.434L115.892 134.239C118.861 131.246 121.328 127.734 123.142 123.862V92.8839V92.8595V92.8534Z" fill="#CE0E2D"/>
<path d="M103.115 59.6522L102.908 59.7377L89.8739 64.8132L76.6325 59.6522H64.8081L66.6893 61.6555C66.6893 61.6555 66.7076 61.6677 66.7625 61.741C67.1901 62.2358 69.0712 64.691 69.059 67.9892V99.9382C69.059 101.685 69.4866 103.346 70.1706 104.892C71.7952 108.501 74.8796 111.512 78.1167 113.931C80.7674 115.904 83.5158 117.479 85.6962 118.591C87.7056 119.623 88.9333 120.142 89.4463 120.344L89.8739 120.509L90.3075 120.344C90.8083 120.142 92.036 119.623 94.0454 118.591C96.2258 117.473 98.9742 115.904 101.625 113.931C104.862 111.512 107.946 108.507 109.577 104.892C110.261 103.352 110.683 101.691 110.683 99.9382V67.9892C110.683 66.0958 111.281 64.4956 111.892 63.3718C112.191 62.8099 112.503 62.364 112.723 62.0708C112.832 61.9243 112.918 61.8143 112.979 61.7471C113.04 61.68 113.065 61.6616 113.065 61.6616L114.94 59.6583H103.109L103.115 59.6522Z" fill="#002856"/>
<path d="M89.8066 120.692L89.373 120.521C88.8538 120.32 87.6262 119.794 85.6107 118.762C83.4302 117.638 80.6635 116.063 78.0067 114.084C74.7574 111.647 71.6486 108.623 69.9995 104.965C69.3033 103.407 68.8757 101.716 68.8757 99.9322V67.9954C68.8757 67.9954 68.8757 67.9465 68.8757 67.9404C68.8757 64.74 67.0373 62.3336 66.622 61.8572C66.5609 61.79 66.5548 61.7839 66.5487 61.7778L64.3622 59.4508H76.6813L89.8799 64.5934L102.84 59.5424L103.054 59.463L103.085 59.4508H115.41L113.211 61.7839C113.211 61.7839 113.211 61.7839 113.144 61.8572C113.089 61.9244 112.997 62.0343 112.893 62.1748C112.674 62.468 112.374 62.9016 112.075 63.4513C111.489 64.5507 110.896 66.102 110.884 67.9404V67.9526V99.9322C110.884 101.716 110.45 103.401 109.76 104.965C108.105 108.623 104.99 111.647 101.747 114.084C99.0841 116.063 96.3296 117.638 94.143 118.762C92.1275 119.794 90.8938 120.32 90.3807 120.521L89.8799 120.723L89.8127 120.692H89.8066ZM66.8297 61.5152C66.8297 61.5152 66.8541 61.5396 66.9091 61.6068C67.3549 62.126 69.2544 64.5873 69.2605 67.9465V67.9832V99.9322C69.2605 101.655 69.6758 103.279 70.3538 104.8C71.9601 108.367 75.02 111.36 78.2387 113.766C80.8711 115.733 83.6196 117.296 85.7939 118.414C87.8033 119.44 89.0248 119.965 89.5134 120.155L89.8738 120.289L90.2341 120.155C90.735 119.965 91.9565 119.44 93.9598 118.414C96.1402 117.296 98.8703 115.733 101.509 113.766C104.734 111.36 107.787 108.373 109.394 104.8C110.072 103.279 110.493 101.655 110.493 99.9322V67.9832V67.971C110.493 66.0471 111.098 64.4163 111.721 63.262C112.032 62.694 112.344 62.242 112.57 61.9427C112.68 61.79 112.777 61.674 112.839 61.6007C112.893 61.5335 112.924 61.5091 112.924 61.5091L114.488 59.8478H103.152L102.981 59.915L89.8738 65.021L76.6019 59.8539H65.2661L66.8297 61.5091V61.5152Z" fill="#002856"/>
<path d="M89.8801 70.0719C68.7355 70.0719 51.5974 87.21 51.5974 108.355C51.5974 129.499 68.7416 146.637 89.8801 146.637C111.019 146.637 128.163 129.493 128.163 108.355C128.163 87.2161 111.019 70.0719 89.8801 70.0719ZM89.8801 144.243C70.0608 144.243 53.9977 128.174 53.9977 108.361C53.9977 88.5475 70.0608 72.4783 89.8801 72.4783C109.699 72.4783 125.763 88.5475 125.763 108.361C125.763 128.174 109.693 144.243 89.8801 144.243ZM89.8801 49.9534C57.6257 49.9534 31.4789 76.1002 31.4789 108.361C31.4789 140.621 57.6318 166.756 89.8801 166.756C122.128 166.756 148.281 140.609 148.281 108.361C148.281 76.1124 122.135 49.9534 89.8801 49.9534ZM89.8801 164.197C59.0427 164.197 34.0441 139.198 34.0441 108.361C34.0441 77.5233 59.0427 52.5247 89.8801 52.5247C120.718 52.5247 145.716 77.5233 145.716 108.361C145.716 139.198 120.718 164.197 89.8801 164.197ZM89.8801 53.8134C59.7572 53.8134 35.3389 78.2378 35.3389 108.355C35.3389 138.471 59.7572 162.89 89.8801 162.89C120.003 162.89 144.421 138.477 144.421 108.355C144.421 78.2317 120.003 53.8134 89.8801 53.8134ZM89.8801 147.999C67.9842 147.999 50.2415 130.257 50.2415 108.361C50.2415 86.4648 67.9842 68.716 89.8801 68.716C111.776 68.716 129.519 86.4648 129.519 108.361C129.519 130.257 111.77 147.999 89.8801 147.999Z" fill="#002856"/>
<path d="M103.347 97.7701C103.347 107.506 89.8801 110.926 89.8801 110.926C89.8801 110.926 76.4127 107.506 76.4127 97.7701V66.7372H103.354V97.7701H103.347Z" fill="#002856"/>
<path d="M102.236 86.8007C102.236 86.8007 100.819 87.3442 101.478 88.8223C101.478 88.8223 100.721 90.0255 101.051 92.0777C101.051 92.0777 101.448 94.6123 100.403 95.9682C100.403 95.9682 99.4018 96.0904 98.107 92.9205C98.4368 93.1892 98.8154 92.9205 98.8154 92.9205C98.7421 92.383 99.3712 92.438 99.3712 92.438C99.1941 91.8883 99.7316 91.8639 99.7316 91.8639C99.3346 91.1065 99.8232 91.1065 99.8232 91.1065L99.6094 90.624C99.4018 90.1171 99.8232 89.995 99.8232 89.995C99.8232 89.995 100 88.6329 99.1025 88.2176C98.1864 87.7901 98.107 86.9167 98.107 86.9167L93.8805 88.5535L94.2347 89.5125C94.2347 89.5125 95.6578 88.2176 95.9082 89.6041C95.9082 89.6041 95.9937 90.8073 94.5523 90.1476L94.4607 90.7218C94.4607 90.7218 95.725 91.2653 95.1875 92.0777C95.1875 92.0777 93.5323 92.7984 91.413 88.6085H91.0526V90.3919C91.0526 90.3919 91.8344 90.5446 92.5673 91.2959L93.9721 93.0121L94.9188 93.1343C94.9188 93.1343 93.9538 93.9466 93.2575 93.3725L91.3824 91.3203H91.0893V92.7434C91.0893 92.7434 92.2925 92.6457 93.74 94.9421H94.9982C94.9982 94.9421 94.9188 96.4202 96.8121 97.3608L94.6439 98.7716C94.6439 98.7716 93.9721 99.3458 93.3796 98.8266L91.4435 97.3241H91.0526V98.0509L94.2408 100.195C94.2408 100.195 95.0653 100.372 96.0365 99.2908C96.0365 99.2908 96.8427 98.6556 98.1436 98.6556C98.1436 98.6556 97.9298 99.4679 98.9803 100.134C98.9803 100.134 98.8032 100.83 98.7177 101.581C98.7177 101.581 98.7177 102.247 97.3557 102.302C97.3557 102.302 96.5617 102.186 96.2991 102.937H98.5589L101.026 100.402C101.026 100.402 101.216 99.7427 100.636 99.2358C100.636 99.2358 101.546 98.3319 101.124 96.8233C101.124 96.8233 102.413 95.0765 101.484 91.9005C101.484 91.9005 100.935 90.1843 102.034 88.9505C102.034 88.9505 102.779 88.0771 102.242 86.8129L102.236 86.8007ZM84.5785 92.0777C84.0411 91.2653 85.2992 90.7218 85.2992 90.7218L85.2137 90.1476C83.7662 90.8012 83.8517 89.6041 83.8517 89.6041C84.096 88.2237 85.5191 89.5125 85.5191 89.5125L85.8795 88.5535L81.653 86.9167C81.653 86.9167 81.5675 87.7901 80.6513 88.2176C79.7535 88.6329 79.9428 89.995 79.9428 89.995C79.9428 89.995 80.3582 90.1171 80.1505 90.624L79.9428 91.1065C79.9428 91.1065 80.4253 91.1065 80.0283 91.8639C80.0283 91.8639 80.5597 91.8883 80.3887 92.438C80.3887 92.438 81.0239 92.3769 80.9445 92.9205C80.9445 92.9205 81.3293 93.1892 81.6591 92.9205C80.3582 96.0904 79.3626 95.9682 79.3626 95.9682C78.3121 94.6184 78.703 92.0777 78.703 92.0777C79.0328 90.0255 78.2754 88.8223 78.2754 88.8223C78.9351 87.3503 77.5181 86.8007 77.5181 86.8007C76.9806 88.071 77.7319 88.9383 77.7319 88.9383C78.8251 90.1721 78.2754 91.8883 78.2754 91.8883C77.3532 95.0643 78.6297 96.8111 78.6297 96.8111C78.2144 98.3197 79.1244 99.2236 79.1244 99.2236C78.5442 99.7366 78.7274 100.39 78.7274 100.39L81.1949 102.925H83.4547C83.1982 102.174 82.3981 102.29 82.3981 102.29C81.0483 102.235 81.0483 101.569 81.0483 101.569C80.9567 100.818 80.7857 100.121 80.7857 100.121C81.8362 99.4557 81.6224 98.6434 81.6224 98.6434C82.9234 98.6434 83.7296 99.2786 83.7296 99.2786C84.6946 100.36 85.5191 100.182 85.5191 100.182L88.7073 98.0387V97.3119H88.3103L86.3803 98.8144C85.7817 99.3274 85.116 98.7594 85.116 98.7594L82.9539 97.3485C84.8473 96.4141 84.7618 94.9299 84.7618 94.9299H86.026C87.4736 92.6335 88.6768 92.7312 88.6768 92.7312V91.3081H88.3775L86.5085 93.3603C85.8123 93.9344 84.8473 93.1221 84.8473 93.1221L85.7878 92.9999L87.1987 91.2837C87.9255 90.5263 88.7073 90.3797 88.7073 90.3797V88.5963H88.3408C86.2337 92.7923 84.5724 92.0654 84.5724 92.0654L84.5785 92.0777Z" fill="#FFC629"/>
<path d="M89.8802 70.7743C84.5482 70.7743 80.224 73.8831 80.224 77.7248C80.224 81.5665 84.5482 84.6814 89.8802 84.6814C95.2121 84.6814 99.5302 81.5604 99.5302 77.7248C99.5302 73.8892 95.2121 70.7743 89.8802 70.7743Z" fill="#3DAE2B"/>
<path d="M74.0857 59.5608L76.6875 58.1683C77.5854 57.6919 78.5137 57.5209 79.3383 57.4842L79.4787 56.7574C80.0834 54.0517 82.1783 52.5798 82.8685 52.1278C82.8013 51.8896 82.7647 51.6575 82.7647 51.4377C82.899 49.6909 84.0778 49.1473 84.1328 49.0251L84.9084 48.4877L85.6963 49.0068C87.1683 49.9963 88.8662 50.3016 89.5808 50.3749C89.7274 50.3933 89.819 50.3994 89.8678 50.3994C89.8984 50.3994 89.99 50.3994 90.1793 50.3749C90.4114 50.3505 90.7595 50.3016 91.1749 50.21C91.9994 50.0268 93.0805 49.6664 94.0577 49.0068L94.8456 48.4877L95.6212 49.0251C95.6762 49.1412 96.8611 49.6909 96.9893 51.4377C96.9893 51.6514 96.9649 51.8835 96.8977 52.1278C97.5879 52.5798 99.6767 54.0517 100.287 56.7574L100.434 57.4842C101.252 57.5209 102.181 57.6919 103.085 58.1683L105.687 59.5608L89.8923 65.9433L74.0979 59.5608H74.0857ZM89.88 62.9689L90.1915 62.8406C90.0694 62.8528 90.0022 62.8589 89.99 62.8589H89.8739H89.764C89.7518 62.8589 89.6846 62.8467 89.5747 62.8406L89.8862 62.9689H89.88ZM97.2214 56.3543C96.8061 55.6336 96.1526 55.0106 95.7128 54.6686C94.1126 55.1755 92.1338 56.4642 91.2543 57.1178C90.9245 57.3621 90.7473 57.5087 90.7473 57.5087L89.88 58.1988L89.0189 57.5087C89.0189 57.5087 88.8356 57.3621 88.4997 57.1178C88.1699 56.8735 87.6935 56.5375 87.1377 56.1894C86.2155 55.6092 85.0489 54.9862 84.0473 54.6625C83.8762 54.7969 83.6625 54.974 83.4548 55.1816C83.1128 55.5053 82.783 55.9085 82.5387 56.3543C83.0456 56.6047 83.693 56.904 84.432 57.2033C86.1177 57.8995 88.286 58.5592 89.88 58.547C92.1765 58.5714 95.5724 57.1666 97.2214 56.3482V56.3543Z" fill="#002856"/>
<path d="M89.8799 35.7408L89.941 35.8019C89.941 35.8019 93.8071 39.1183 98.0153 39.3016C98.0153 39.3016 96.3357 33.8108 89.8799 33.8108C83.4242 33.8108 81.7384 39.3016 81.7384 39.3016C85.9527 39.1183 89.8188 35.8019 89.8188 35.8019L89.8799 35.7408ZM89.8799 45.8184C94.5767 43.5769 98.0825 44.3709 98.0825 44.3709C98.681 43.2227 98.4428 41.0483 98.4428 41.0483C93.1903 40.688 89.8799 37.6769 89.8799 37.6769C89.8799 37.6769 86.5635 40.688 81.3109 41.0483C81.3109 41.0483 81.0727 43.2227 81.6774 44.3709C81.6774 44.3709 85.177 43.583 89.8799 45.8184ZM97.4351 45.5924C97.4351 45.5924 92.5123 45.397 89.8799 47.895C87.2475 45.397 82.3126 45.5924 82.3126 45.5924C82.3126 45.5924 83.9189 49.312 89.8799 50.3991C95.8349 49.312 97.4351 45.5924 97.4351 45.5924ZM89.8799 51.7795C89.8799 51.7795 87.2842 51.7245 84.9327 50.1609C84.9327 50.1609 83.9067 50.8816 84.212 51.7795C84.212 51.7795 87.7728 52.9949 89.8799 54.5523C91.9871 52.9949 95.5478 51.7795 95.5478 51.7795C95.8532 50.8755 94.8271 50.1609 94.8271 50.1609C92.4757 51.7245 89.8799 51.7795 89.8799 51.7795ZM98.9253 57.032C98.4489 54.6256 95.9692 53.172 95.9692 53.172C93.1964 53.7706 89.886 56.4335 89.886 56.4335C89.886 56.4335 86.5696 53.7767 83.7967 53.172C83.7967 53.172 81.317 54.6256 80.8406 57.032C80.8406 57.032 86.026 59.9332 89.886 59.9332C93.7461 59.9332 98.9253 57.032 98.9253 57.032ZM97.9054 59.1453C93.8071 61.1669 89.8799 61.4845 89.8799 61.4845C89.8799 61.4845 85.9527 61.1608 81.8545 59.1453C81.8545 59.1453 79.271 58.3513 77.3409 59.3835L89.8799 64.4528L102.419 59.3835C100.489 58.3513 97.9054 59.1453 97.9054 59.1453Z" fill="#B0B3B2"/>
<path d="M90.7473 98.7718V85.0724H89.0188V98.7718C89.0188 100.757 87.0216 104.434 87.0216 104.434C88.0233 105.136 89.0066 105.392 89.88 105.423C90.7534 105.392 91.7367 105.136 92.7384 104.434C92.7384 104.434 90.7473 100.751 90.7473 98.7718Z" fill="#C1531B"/>
<path d="M103.341 60.8433L89.8799 66.0836L76.4248 60.8433H67.5565C67.5565 60.8433 70.25 63.7016 70.25 67.9892V99.9383C70.25 101.502 70.6164 102.986 71.2577 104.403C72.748 107.725 75.6858 110.633 78.8373 112.978C81.4148 114.902 84.1143 116.441 86.2459 117.54C88.2309 118.554 89.4341 119.061 89.8799 119.238C90.3319 119.061 91.5351 118.554 93.514 117.54C95.6517 116.441 98.3512 114.902 100.929 112.978C104.074 110.633 107.024 107.725 108.496 104.403C109.131 102.986 109.51 101.502 109.51 99.9383V67.9892C109.51 63.7016 112.203 60.8433 112.203 60.8433H103.335H103.341ZM103.347 97.77C103.347 107.506 89.8799 110.926 89.8799 110.926C89.8799 110.926 76.4126 107.506 76.4126 97.77V66.7371H103.353V97.77H103.347Z" fill="#FFC629"/>
<path d="M108.508 81.4383H107.165L106.45 82.5865L105.735 81.4383H104.349L105.766 83.3927L104.288 85.4082H105.65L106.401 84.2111L107.152 85.4082H108.551L107.085 83.3744L108.508 81.4383ZM91.9261 112.38H90.5763L89.88 113.528L89.1838 112.38H87.834L89.251 114.31L87.779 116.343H89.1838L89.88 115.195L90.5763 116.343H91.9811L90.5091 114.31L91.9261 112.38ZM105.656 66.1875L106.407 64.9843L107.159 66.1875H108.557L107.091 64.1598L108.514 62.2236H107.171L106.456 63.3719L105.742 62.2236H104.355L105.772 64.1781L104.294 66.1875H105.656ZM107.604 100.647H106.267L105.558 101.795L104.838 100.647H103.457L104.862 102.589L103.402 104.611H104.752L105.516 103.414L106.255 104.611H107.665L106.194 102.577L107.611 100.647H107.604ZM72.6015 66.1875L73.3467 64.9843L74.104 66.1875H75.4721L73.9941 64.1781L75.411 62.2236H74.0246L73.31 63.3719L72.5954 62.2236H71.2456L72.6626 64.1598L71.1968 66.1875H72.5954H72.6015ZM76.2967 100.647H74.9285L74.2017 101.795L73.4871 100.647H72.1557L73.5726 102.577L72.0946 104.611H73.5055L74.2445 103.414L75.0141 104.611H76.3577L74.898 102.589L76.2967 100.647ZM73.3467 84.205L74.104 85.4021H75.4721L73.9941 83.3866L75.411 81.4322H74.0246L73.31 82.5804L72.5954 81.4322H71.2456L72.6626 83.3683L71.1968 85.4021H72.5954L73.3406 84.205H73.3467Z" fill="#CE0E2D"/>
<path d="M132.108 51.7309V51.3644L132.096 51.3339C132.059 47.7426 130.746 44.9208 129.439 43.0153C128.779 42.0441 128.12 41.3051 127.607 40.786C127.356 40.5294 127.137 40.3279 126.978 40.1935C126.898 40.1263 126.837 40.0714 126.788 40.0347C126.733 39.9859 126.74 39.9859 126.697 39.9614C124.235 37.9276 121.298 37.2924 118.641 37.2985C116.173 37.2985 113.901 37.8238 112.216 38.349C111.367 38.6055 110.676 38.8682 110.182 39.0697C109.937 39.1797 109.736 39.2591 109.602 39.3201C109.479 39.3812 109.437 39.3934 109.369 39.4301C106.041 40.9203 103.476 41.1646 102.095 41.1646C101.961 41.1646 101.826 41.1646 101.71 41.1585L99.9759 41.1097L100.312 42.8076C100.587 44.1696 101.344 45.0613 101.875 45.5377C100.477 47.2478 100.293 49.3367 100.281 50.6864V51.1262L100.3 53.3249L102.272 52.3599C102.443 52.2744 102.675 52.1584 102.932 52.0301C102.914 52.2134 102.914 52.3844 102.914 52.5493C102.908 53.7525 103.225 54.6503 103.579 55.2244L104.386 56.5376L105.601 55.5909C105.858 55.3954 106.316 55.0351 106.798 54.6503C107.61 57.2277 109.565 58.6997 111.275 59.3593C112.784 59.964 114.17 60.0983 114.805 60.1289C114.97 60.4281 115.05 60.7702 115.05 61.1977C115.062 61.9978 114.72 63.0239 114.365 63.7751L113.236 66.1999L115.862 65.7112C116.98 65.5097 118.042 65.0211 118.787 64.1294C119.905 62.7979 120.033 61.2466 120.039 60.251C120.039 59.964 120.027 59.7135 120.015 59.5181C123.258 57.1605 123.735 54.1556 123.698 52.9768V52.9341L123.68 52.5493V52.195C123.698 50.2589 122.849 48.732 121.817 47.7548C120.785 46.7653 119.594 46.234 118.69 45.9164L116.32 45.0919L116.9 47.5349C116.967 47.8525 117.01 48.1335 117.01 48.3472C117.01 48.7564 116.925 49.0924 116.778 49.3977C116.558 49.868 116.198 50.1978 115.85 50.4177C115.672 50.5276 115.514 50.6009 115.398 50.6498C115.343 50.6742 115.294 50.6865 115.276 50.6926H115.263C115.001 50.7536 114.75 50.772 114.518 50.772C113.706 50.772 113.199 50.4849 112.747 50.0574C112.313 49.6359 112.014 49.0313 111.916 48.6587L111.898 48.6099L111.886 48.561C111.715 48.1151 111.66 47.7304 111.66 47.37C111.66 46.4539 112.081 45.6538 112.747 44.9392C113.4 44.249 114.28 43.7176 114.909 43.455C115.862 43.1313 116.735 43.0153 117.541 43.0153C119.026 43.0153 120.272 43.4367 121.175 43.8825C121.621 44.1024 121.988 44.3284 122.22 44.4933C122.458 44.6582 122.574 44.7681 122.58 44.762C125.335 47.2662 126.104 49.9963 126.117 52.5493C126.117 54.4671 125.64 56.2688 125.145 57.5759C124.907 58.2355 124.657 58.7669 124.467 59.1333C124.382 59.3165 124.303 59.457 124.254 59.5547C124.229 59.6036 124.205 59.6403 124.199 59.6586L124.187 59.6708L116.747 71.5501L116.729 71.5868C111.703 80.5039 110.163 86.6482 110.163 90.9297C110.145 95.1562 111.727 97.5137 112.753 98.4909L114.023 99.7308L114.909 98.2039C115.874 96.5304 116.033 94.637 116.045 93.1895C116.045 92.5604 116.015 92.0168 115.972 91.6259C115.972 91.6076 115.972 91.5893 115.972 91.571C117.096 91.2167 117.731 90.209 117.951 89.5005C118.158 88.9081 118.219 88.3645 118.256 87.9858C119.068 87.6255 119.63 86.917 119.887 86.2634C120.21 85.4878 120.265 84.7426 120.278 84.1258C120.272 83.7288 120.247 83.3929 120.217 83.1486C120.204 83.0203 120.186 82.9165 120.174 82.8432V82.8248L120.149 82.6905C119.991 81.9026 119.93 81.1269 119.93 80.4123C119.93 78.6106 120.327 77.0531 120.748 75.9293C120.962 75.3674 121.169 74.9216 121.328 74.6162C121.414 74.4574 121.481 74.3413 121.524 74.2619C121.548 74.2192 121.56 74.1886 121.572 74.1764L121.591 74.1459L127.76 64.166C131.852 57.7469 132.12 53.0196 132.114 51.908C132.114 51.853 132.114 51.8041 132.114 51.7736V51.7309H132.108ZM79.4359 42.8076L79.7779 41.1036L78.0372 41.1585C77.9212 41.1646 77.7929 41.1646 77.6525 41.1646C76.2721 41.1646 73.7008 40.9203 70.3538 39.4179C69.7736 39.1491 65.7914 37.3229 61.1069 37.2985C58.4439 37.2985 55.4939 37.9337 53.0326 39.9798C52.715 40.2302 51.5484 41.2135 50.3086 43.0153C48.9832 44.9514 47.6517 47.8342 47.6517 51.4927V51.627V51.7431V51.9263C47.6517 53.0501 47.9266 57.7713 52.0126 64.1843L58.1508 74.1154L59.3295 73.3885L58.1569 74.1215C58.1569 74.1215 59.8365 76.821 59.8243 80.4123C59.8243 81.133 59.7571 81.9026 59.5983 82.6844L59.5738 82.8187V82.8615C59.5433 83.0691 59.4822 83.5455 59.4822 84.1258C59.4822 84.7365 59.5433 85.4939 59.8609 86.2696C60.1113 86.9231 60.6854 87.6255 61.51 87.9919C61.5344 88.3767 61.6077 88.9142 61.8031 89.5066C62.0169 90.2151 62.6521 91.2228 63.7759 91.5771C63.7393 91.9741 63.7026 92.5177 63.6965 93.1956C63.7087 94.637 63.8614 96.5243 64.8142 98.1978L65.7059 99.7308L66.9763 98.497C68.0085 97.5076 69.5965 95.1562 69.5843 90.9236C69.5843 86.6421 68.0512 80.4978 63.0186 71.5807L63.0063 71.5501L55.5306 59.6158C55.2863 59.1944 53.6128 56.0551 53.6372 52.5432C53.6494 49.9841 54.4129 47.2601 57.1735 44.7559L57.1491 44.6826L57.1919 44.7437C57.4178 44.5422 59.4456 42.9847 62.2062 43.0091C63.0063 43.0091 63.8858 43.1252 64.8386 43.4489C65.4677 43.7054 66.3472 44.2429 67.0068 44.9331C67.6787 45.6476 68.1001 46.4477 68.1001 47.3639C68.1001 47.712 68.0329 48.109 67.8741 48.5732L67.8558 48.6037V48.6343C67.7459 49.0191 67.4405 49.6237 67.0068 50.0451C66.5549 50.4727 66.0418 50.7597 65.2295 50.7658C65.0035 50.7658 64.747 50.7414 64.4538 50.6742C64.2279 50.6009 63.3117 50.1673 62.9758 49.3916C62.8292 49.0924 62.7498 48.7442 62.7498 48.335C62.7498 48.0968 62.7804 47.822 62.8475 47.5105L63.3911 45.0796L61.0458 45.9042C60.1541 46.2218 58.9692 46.7531 57.9309 47.7426C56.8987 48.7198 56.0497 50.2467 56.0619 52.1706V52.5371L56.0497 52.9096V52.9585C56.0192 54.1373 56.4956 57.1483 59.7449 59.4998C59.7204 59.6952 59.7082 59.9395 59.7082 60.2327C59.7143 61.2343 59.8487 62.7796 60.9603 64.1171C61.7054 65.0028 62.7742 65.4975 63.8919 65.699L66.5366 66.1754L65.3883 63.7507C65.028 63.0056 64.6859 61.9856 64.692 61.1855C64.692 60.7641 64.7714 60.4098 64.9363 60.1166C65.5654 60.0861 66.9519 59.964 68.4727 59.3471C70.1767 58.6875 72.1434 57.2155 72.9496 54.6381C73.4321 55.0168 73.884 55.3771 74.1345 55.5665L75.3438 56.5254L76.1561 55.2122C76.5164 54.6381 76.834 53.7342 76.8279 52.5371C76.8279 52.3722 76.8279 52.2011 76.8096 52.0179C77.0722 52.1462 77.3043 52.2622 77.4692 52.3416L79.3992 53.3005L79.4664 50.7109C79.4542 49.3244 79.2588 47.2417 77.8662 45.5377C78.4098 45.0613 79.1244 44.194 79.4237 42.8015L79.4359 42.8076Z" fill="#002856"/>
<path d="M104.764 49.5686L104.471 51.0284C104.337 51.6086 104.288 52.1094 104.288 52.5431C104.288 53.5203 104.532 54.131 104.752 54.4975C105.442 53.9661 107.696 52.1827 107.696 52.1827L107.904 53.3859C108.862 58.7484 114.885 58.7606 115.147 58.7606L115.495 58.7484L115.709 59.0294C116.234 59.6585 116.43 60.4341 116.43 61.1976C116.43 62.3458 116.002 63.5063 115.611 64.3552C116.509 64.1842 117.236 63.8239 117.737 63.2375C118.506 62.3275 118.659 61.0877 118.659 60.2448C118.659 59.7073 118.598 59.3409 118.598 59.3287L118.512 58.8706L118.897 58.608C122.006 56.4947 122.318 53.9112 122.318 52.9767L122.305 52.6164V52.1827C122.305 49.1106 119.801 47.7669 118.244 47.2172C118.329 47.6142 118.384 47.9868 118.384 48.3471C118.384 48.9457 118.256 49.5015 118.024 49.9962C117.291 51.5414 115.685 52.0117 115.617 52.03C112.49 52.7324 110.963 50.3932 110.579 49.0312C110.365 48.4448 110.267 47.889 110.267 47.3699C110.267 44.6398 112.82 42.8136 114.408 42.1662L114.445 42.1479H114.463C119.6 40.4011 123.338 43.5893 123.496 43.7297C126.568 46.4965 127.491 49.6969 127.491 52.5431C127.491 56.8306 125.384 60.3364 125.359 60.3914L117.92 72.2585C112.973 81.0413 111.538 86.984 111.538 90.9235C111.538 94.8629 112.936 96.7379 113.718 97.5075C114.481 96.2127 114.665 94.5087 114.665 93.1894C114.665 92.0412 114.53 91.1861 114.53 91.1678L114.402 90.386L115.184 90.3249C116.808 90.2089 116.87 87.949 116.87 87.5887L116.851 86.9718L117.401 86.8191C118.635 86.4954 118.879 85.1334 118.879 84.1196C118.879 83.4783 118.781 82.9652 118.781 82.9591C118.604 82.0674 118.525 81.2123 118.525 80.4061C118.525 76.3934 120.326 73.5167 120.418 73.3823L126.562 63.433C130.972 56.513 130.716 51.7918 130.716 51.7369L130.697 51.7185V51.6819C130.789 44.9146 125.884 41.079 125.829 41.0424C119.734 35.9669 110.041 40.621 109.937 40.6698C106.047 42.4166 103.072 42.5754 101.643 42.5326C101.961 44.1023 103.133 44.7803 103.188 44.8169L104.043 45.2994L103.323 45.9774C101.906 47.3088 101.643 49.3243 101.643 50.6802V51.1139C102.456 50.723 104.752 49.5686 104.752 49.5686H104.764Z" fill="#FFC629"/>
<path d="M59.3235 73.3882C59.409 73.5287 61.2046 76.4054 61.2046 80.412C61.2046 81.2182 61.1313 82.0733 60.9542 82.965C60.9542 82.9711 60.8626 83.4841 60.8626 84.1254C60.8626 85.1393 61.1008 86.4952 62.3406 86.825L62.8903 86.9777L62.8781 87.5946C62.8781 87.9549 62.9453 90.2147 64.5577 90.3308L65.3456 90.3919L65.2234 91.1736C65.2234 91.1736 65.083 92.047 65.083 93.1953C65.083 94.5084 65.2601 96.2185 66.0113 97.5134C66.7992 96.7499 68.204 94.826 68.204 90.9293C68.204 87.0327 66.7748 81.0533 61.8215 72.2644L54.3946 60.3972C54.358 60.3423 52.2569 56.8365 52.2569 52.5489C52.2569 49.7028 53.1792 46.5024 56.2513 43.7356C56.4101 43.5951 60.148 40.4069 65.2784 42.1537H65.3028L65.3212 42.1721C66.9336 42.8195 69.4866 44.6456 69.4866 47.3758C69.4866 47.901 69.3827 48.4507 69.1812 49.037C68.7903 50.399 67.2695 52.7383 64.1363 52.0359C64.063 52.0176 62.4628 51.5473 61.7299 50.002C61.4917 49.5073 61.3695 48.9576 61.3695 48.353C61.3695 47.9926 61.4123 47.6201 61.4978 47.2231C59.9464 47.7728 57.4423 49.1164 57.4423 52.1886V52.4817L57.4606 52.555L57.4423 52.6222L57.4301 52.9826C57.4301 53.917 57.7355 56.5006 60.8443 58.6138L61.2291 58.8764L61.1558 59.3345C61.1558 59.3345 61.0825 59.7132 61.0825 60.2507C61.0825 61.0935 61.2352 62.3334 62.0108 63.2434C62.5056 63.8358 63.2324 64.1901 64.1485 64.3611C63.7454 63.5121 63.3179 62.3517 63.3179 61.2035C63.3179 60.4339 63.5194 59.6643 64.0386 59.0352L64.2584 58.7543L64.6127 58.7665C64.857 58.7665 70.8852 58.7543 71.8441 53.3918L72.0518 52.1886C72.0518 52.1886 74.3116 53.972 74.9896 54.5034C75.2217 54.1369 75.4598 53.5323 75.4598 52.5489C75.4598 52.1153 75.411 51.6145 75.2888 51.0342L74.9773 49.5745C74.9773 49.5745 77.2921 50.7289 78.0922 51.1197L78.1045 50.6861C78.1045 49.3363 77.8357 47.3147 76.4126 45.9832L75.6919 45.3053L76.547 44.8228C76.6081 44.7861 77.7746 44.1082 78.0922 42.5385C76.6631 42.5874 73.6886 42.4225 69.7981 40.6757C69.7003 40.6207 60.0014 35.9728 53.906 41.0482C53.8571 41.0849 48.9405 44.9205 49.0382 51.6878V51.7427C49.0382 51.7977 48.7695 56.5189 53.1792 63.4389L59.3296 73.3882H59.3235Z" fill="#FFC629"/>
<path d="M93.6423 16.6852C93.3675 16.447 93.001 16.2454 92.6529 16.0622C92.0788 15.7568 91.5719 15.5675 90.9183 15.427V19.2015C91.5169 19 92.6651 18.5358 93.6485 17.7601C93.8134 17.6319 94.0088 17.4303 94.0149 17.241C94.0149 17.0822 93.8928 16.8928 93.6423 16.6852Z" fill="#CE0E2D"/>
<path d="M94.2409 21.3696V18.8594C93.6912 19.2747 92.659 19.8488 90.7473 20.4962C90.6618 20.5207 84.603 22.1758 82.7708 26.5184L92.1277 23.8676C92.2315 23.8432 94.2348 23.379 94.2348 21.3757L94.2409 21.3696Z" fill="#CE0E2D"/>
<path d="M49.2763 90.2944C49.8749 88.9995 49.3435 87.5276 48.0731 86.9413C46.7905 86.3488 45.3247 86.8924 44.7261 88.1872C44.4208 88.8407 44.4024 89.6775 44.6651 90.4226L43.4435 90.7952C43.0526 89.7569 43.0649 88.5354 43.5229 87.5459C44.4574 85.5304 46.6989 84.6753 48.6778 85.5915C50.6383 86.5015 51.4018 88.7736 50.4551 90.8196C50.0031 91.7968 49.1175 92.603 48.1342 92.9573L47.5295 91.748C48.3052 91.5098 48.9709 90.9784 49.2824 90.3005L49.2763 90.2944Z" fill="white"/>
<path d="M48.5192 95.8645L42.5154 94.1239L41.6053 97.2571L40.3533 96.8906L41.6603 92.371L48.9223 94.472L48.5192 95.8645Z" fill="white"/>
<path d="M40.7073 102.351C40.5668 103.487 41.1898 104.293 42.3869 104.439L46.76 104.977L46.5828 106.412L42.2098 105.875C40.237 105.63 39.1682 104.226 39.4186 102.192C39.669 100.146 41.0493 99.0098 43.0221 99.2541L47.3952 99.7915L47.218 101.227L42.845 100.689C41.654 100.543 40.8417 101.215 40.7012 102.351H40.7073Z" fill="white"/>
<path d="M45.0071 113.968C44.1764 114.01 43.5168 113.552 43.2664 112.74C43.1381 113.754 42.448 114.395 41.4463 114.45C40.1515 114.517 39.3087 113.497 39.217 111.769L39.0338 108.318L46.5829 107.909L46.7661 111.262C46.8516 112.868 46.1859 113.9 45.0193 113.961L45.0071 113.968ZM41.5441 112.942C42.1609 112.911 42.5091 112.337 42.448 111.421L42.3503 109.588L40.3531 109.698L40.4508 111.531C40.4874 112.447 40.8966 112.978 41.5441 112.942ZM44.6651 112.502C45.2392 112.471 45.5446 112.001 45.4957 111.256L45.398 109.424L43.5657 109.521L43.6634 111.354C43.7062 112.099 44.0726 112.532 44.6651 112.502Z" fill="white"/>
<path d="M46.302 126.482C44.2071 127.154 42.1977 126.055 41.4831 123.838L40.5364 120.9L47.7312 118.585L48.6901 121.578C49.3925 123.758 48.403 125.81 46.2959 126.488L46.302 126.482ZM45.8378 125.078C47.2487 124.626 47.9083 123.288 47.4747 121.944L46.9616 120.35L42.1915 121.883L42.7229 123.526C43.1504 124.852 44.4453 125.523 45.8378 125.078Z" fill="white"/>
<path d="M52.996 131.161L51.8783 131.753L49.9666 128.137L48.3176 129.011L50.0338 132.254L48.9161 132.846L47.1999 129.603L45.5203 130.489L47.493 134.22L46.3753 134.813L43.7246 129.799L50.4064 126.268L52.996 131.167V131.161Z" fill="white"/>
<path d="M55.3841 138.783C54.0098 139.827 52.5501 139.565 51.4019 138.05L50.4063 136.737L48.6351 138.08L47.7617 136.926L53.7839 132.358L55.6589 134.825C56.8071 136.34 56.7155 137.775 55.3902 138.783H55.3841ZM54.5168 137.72C55.2558 137.158 55.2436 136.395 54.5962 135.534L53.6434 134.275L51.4141 135.967L52.3669 137.225C53.0204 138.087 53.7594 138.294 54.5168 137.72Z" fill="white"/>
<path d="M61.0518 145.776C59.5799 147.376 57.1612 147.425 55.4877 145.88C53.8081 144.341 53.6554 141.922 55.1213 140.322C56.5993 138.716 58.9935 138.691 60.6731 140.236C62.3527 141.776 62.5176 144.176 61.0518 145.776ZM56.2084 141.324C55.2434 142.374 55.3534 143.999 56.3733 144.939C57.3933 145.874 58.9935 145.825 59.9585 144.774C60.9235 143.724 60.8258 142.142 59.8058 141.201C58.7736 140.249 57.1673 140.273 56.2023 141.324H56.2084Z" fill="white"/>
<path d="M64.5091 152.47L64.5885 149.881C64.5091 149.844 64.4358 149.801 64.3564 149.746L62.9089 148.842L61.7301 150.729L60.5024 149.96L64.5091 143.547L67.1842 145.22C68.8394 146.259 69.2852 147.645 68.4057 149.05C67.7766 150.058 66.8727 150.497 65.8344 150.332L65.9199 153.337L64.5213 152.464L64.5091 152.47ZM63.5746 147.761L65.0221 148.665C65.9382 149.239 66.6956 149.166 67.2025 148.36C67.6972 147.572 67.4224 146.869 66.5063 146.295L65.0587 145.391L63.5746 147.761Z" fill="white"/>
<path d="M75.9851 149.496L75.4842 150.681L73.316 149.771L70.8852 155.555L69.5415 154.987L71.9723 149.203L69.8041 148.293L70.305 147.108L75.9912 149.496H75.9851Z" fill="white"/>
<path d="M78.3548 150.113L76.2171 157.362L74.8307 156.953L76.9684 149.703L78.3548 150.113Z" fill="white"/>
<path d="M80.7062 150.748L81.9461 156.978L85.116 151.468L86.5879 151.707L82.392 158.682L80.9078 158.443L79.1671 150.503L80.7001 150.754L80.7062 150.748Z" fill="white"/>
<path d="M94.8456 155.353C94.8883 157.521 93.1721 159.231 90.8939 159.274C88.6158 159.317 86.8324 157.68 86.7896 155.512C86.7468 153.331 88.4631 151.658 90.7412 151.609C93.0194 151.566 94.8028 153.185 94.8456 155.353ZM88.2738 155.481C88.3043 156.904 89.5014 158.004 90.8939 157.979C92.2743 157.955 93.3981 156.806 93.3675 155.383C93.337 153.96 92.1765 152.879 90.7901 152.904C89.3853 152.934 88.2432 154.058 88.2676 155.481H88.2738Z" fill="white"/>
<path d="M105.039 153.014L106.255 152.659L107.049 155.383C106.468 156.159 105.461 156.874 104.453 157.167C102.285 157.802 100.147 156.678 99.5424 154.596C98.9377 152.513 100.171 150.43 102.389 149.783C103.433 149.477 104.624 149.569 105.534 149.99L105.045 151.236C104.349 150.888 103.488 150.803 102.755 151.016C101.356 151.426 100.568 152.812 100.965 154.18C101.369 155.561 102.792 156.3 104.19 155.896C104.685 155.75 105.204 155.408 105.619 154.98L105.045 153.014H105.039Z" fill="white"/>
<path d="M112.246 152.672C113.266 152.152 113.59 151.194 113.046 150.112L111.055 146.179L112.344 145.526L114.335 149.459C115.233 151.23 114.659 152.898 112.832 153.826C110.994 154.754 109.284 154.241 108.386 152.47L106.395 148.537L107.684 147.883L109.675 151.817C110.218 152.885 111.226 153.185 112.246 152.672Z" fill="white"/>
<path d="M120.943 146.625L117.994 148.848L118.421 150.528L117.224 151.432L115.318 143.4L116.515 142.496L123.68 146.558L122.44 147.492L120.943 146.619V146.625ZM119.783 145.947L116.821 144.206L117.664 147.547L119.783 145.947Z" fill="white"/>
<path d="M127.167 137.335C128.792 138.826 128.835 141.116 127.259 142.832L125.17 145.11L119.594 140.004L121.713 137.69C123.258 136.004 125.53 135.839 127.161 137.335H127.167ZM126.172 138.435C125.078 137.433 123.594 137.525 122.641 138.569L121.512 139.803L125.207 143.186L126.373 141.91C127.314 140.884 127.259 139.424 126.172 138.435Z" fill="white"/>
<path d="M132.511 133.072L130.545 136.199L131.54 137.616L130.74 138.887L126.11 132.052L126.91 130.782L135.046 132.046L134.215 133.359L132.505 133.072H132.511ZM131.186 132.852L127.796 132.272L129.769 135.1L131.186 132.852Z" fill="white"/>
<path d="M129.433 125.932L135.18 128.394L136.463 125.395L137.666 125.908L135.815 130.238L128.865 127.264L129.433 125.932Z" fill="white"/>
<path d="M138.051 118.64L137.153 122.225L138.54 123.263L138.173 124.717L131.644 119.666L132.011 118.212L140.134 116.875L139.755 118.383L138.045 118.646L138.051 118.64ZM136.726 118.842L133.324 119.348L136.078 121.419L136.719 118.842H136.726Z" fill="white"/>
<path d="M140.488 113.571C140.402 114.517 139.92 115.262 139.144 115.788L138.13 115.012C138.723 114.554 139.071 113.98 139.114 113.485C139.169 112.862 138.821 112.447 138.106 112.386L134.258 112.031L134.02 114.621L132.737 114.505L133.104 110.462L138.265 110.932C139.816 111.073 140.61 112.08 140.476 113.564L140.488 113.571Z" fill="white"/>
<path d="M138.9 103.866L139.101 107.555L140.732 108.135L140.818 109.631L133.085 106.736L133 105.24L140.366 101.557L140.451 103.108L138.894 103.866H138.9ZM137.691 104.452L134.594 105.942L137.837 107.103L137.691 104.452Z" fill="white"/>
<path d="M138.894 94.9361L137.019 96.7257C137.049 96.8051 137.067 96.8906 137.092 96.9883L137.489 98.6496L139.651 98.1365L139.987 99.5413L132.633 101.288L131.907 98.222C131.455 96.3226 132.108 95.0216 133.727 94.6369C134.881 94.362 135.834 94.6796 136.457 95.5286L138.509 93.3298L138.894 94.9361ZM136.249 98.9366L135.852 97.2754C135.602 96.2248 135.009 95.7423 134.087 95.9622C133.183 96.176 132.884 96.8723 133.134 97.9228L133.531 99.584L136.249 98.9366Z" fill="white"/>
<path d="M134.228 87.0329L135.712 90.4166L137.446 90.386L138.051 91.7602H129.799L129.195 90.386L134.802 84.3517L135.425 85.7748L134.228 87.0329ZM133.299 88.0102L130.923 90.4899L134.368 90.441L133.299 88.0102Z" fill="white"/>
</svg>
