<svg width="180" height="180" viewBox="0 0 180 180" fill="none" xmlns="http://www.w3.org/2000/svg">
<path d="M144.95 27.7299C144.66 27.6599 115.78 21.0099 89.9999 21.0099C64.2199 21.0099 35.3399 27.6699 35.0499 27.7299L30.23 28.8499V100.85C30.23 120.71 41.75 139.19 59.59 147.94L89.9999 162.84L120.41 147.94C138.24 139.2 149.77 120.71 149.77 100.85V28.8499L144.95 27.7299Z" fill="#65C7C7"/>
<path d="M89.9999 21.01C64.2299 21.01 35.3399 27.67 35.0499 27.73L30.23 28.85V70.03V94.84C51.66 59.16 119.43 59.44 132.13 25.19C130.95 24.98 129.71 24.77 128.42 24.56C117.78 22.82 103.46 21 89.99 21L89.9999 21.01ZM128.4 24.62C128.08 25.25 127.75 25.85 127.4 26.43C127.74 25.84 128.08 25.24 128.4 24.62ZM89.9999 25.25C102.56 25.25 115.85 26.85 126.1 28.48C108.57 53.82 63.4 40.54 34.46 65.92V32.22L35.9999 31.86C36.2799 31.79 64.62 25.25 89.99 25.25H89.9999ZM134.21 25.58C120.2 65.77 46.8299 64.13 30.4399 105.31C31.0799 112.63 33.26 119.68 36.73 126C50.06 78.92 125.22 73.15 137.14 26.11C136.91 26.07 134.31 25.58 134.22 25.57L134.21 25.58ZM139.26 26.54C128.55 76.34 50.33 84.37 40.23 131.57C43.77 136.47 48.14 140.78 53.2 144.23C53.75 144.57 54.3099 144.92 54.8699 145.28C54.8699 145.29 54.8699 145.31 54.8699 145.32C56.3899 146.27 57.96 147.15 59.59 147.95L89.9999 162.86L120.41 147.95C138.24 139.21 149.77 120.73 149.77 100.86V28.86L144.95 27.74C144.95 27.74 143.99 27.52 142.39 27.18C142.27 27.92 142.14 28.65 141.99 29.37C142.14 28.64 142.27 27.91 142.39 27.18C142.2 27.14 139.55 26.59 139.28 26.54C139.28 26.54 139.28 26.54 139.27 26.54H139.26ZM127.18 26.8C126.84 27.36 126.49 27.91 126.12 28.44C126.48 27.91 126.84 27.36 127.18 26.8ZM141.78 30.34C141.71 30.67 141.64 31 141.56 31.33C143.07 31.65 143.93 31.85 143.98 31.86L145.52 32.22V100.86C145.52 119.12 134.93 136.11 118.53 144.15L89.99 158.14L61.45 144.15C59.45 143.17 57.54 142.06 55.73 140.82C64.91 100.81 131.69 76.41 141.78 30.35V30.34ZM32.5399 67.69C32.3999 67.83 32.25 67.96 32.11 68.1C32.25 67.96 32.3899 67.82 32.5399 67.69ZM54.95 145.31C54.95 145.31 54.9199 145.29 54.8999 145.28C54.9199 145.28 54.93 145.3 54.95 145.31Z" fill="#0C1E2B"/>
<path d="M89.9999 25.24C82.6999 25.24 75.16 25.78 68.1 26.56V147.4L89.9999 158.13L111.9 147.4V26.56C104.85 25.79 97.2999 25.24 89.9999 25.24Z" fill="#CF3338"/>
<path d="M77.6499 40.08V85.08H85.59V70.0699L88.48 65.17L95.5599 85.08H104.25L93.47 56.62L103.11 40.08H94.45L85.59 56.4799V40.08H77.6499ZM127.07 77.3L124.98 83.72H118.23L123.69 87.6899L121.6 94.11L127.06 90.14L132.52 94.11L130.43 87.6899L135.89 83.72H129.14L127.06 77.3H127.07ZM90.22 91.49C85.96 91.49 82.5 93.03 80.48 95.8C78.35 98.68 77.7999 101.25 77.7999 108.3V120.59C77.7999 127.24 78.27 129.84 79.99 132.66C81.99 135.98 85.6499 137.81 90.2799 137.81C98.5299 137.81 102.89 132.59 102.89 122.7V120.6H94.8899V121.17C94.8099 124.4 94.7499 125.33 94.4999 126.36C93.8499 128.98 92.44 130.25 90.2 130.25C88.47 130.25 86.9799 129.29 86.4199 127.81C85.9099 126.41 85.73 124.76 85.73 121.51V106.92C85.73 103.41 85.92 102.23 86.71 100.88C87.34 99.6799 88.58 99.03 90.2 99.03C93.21 99.03 94.74 101.4 94.74 106.07V108.88H102.68V105.68C102.68 96.8 98.01 91.49 90.2 91.49H90.22ZM127.07 98.81L124.98 105.23H118.23L123.69 109.2L121.6 115.62L127.06 111.65L132.52 115.62L130.43 109.2L135.89 105.23H129.14L127.06 98.81H127.07Z" fill="white"/>
</svg>
