<svg width="180" height="180" viewBox="0 0 180 180" fill="none" xmlns="http://www.w3.org/2000/svg">
<path d="M152.12 39.3696L151.532 38.0474L114.963 45.2955C114.509 44.8708 114.056 44.4558 113.583 44.0601L125.464 10.744L124.19 10.0588L100.467 37.1112C99.4247 36.812 98.3534 36.5611 97.2724 36.3584L90.7192 2H89.2715L82.7184 36.3584C81.6375 36.5611 80.5661 36.812 79.5238 37.1112L55.8107 10.0588L54.5367 10.744L66.4174 44.0601C65.9542 44.4558 65.4909 44.8708 65.0373 45.2955L28.4687 38.0474L27.88 39.3696L52.5196 55.2652H29.5015L31.5185 58.9037C35.5528 66.1518 37.5892 74.5677 37.5892 83.9294V143.304C37.5892 144.703 37.7242 146.112 37.9848 147.483C39.6834 156.468 47.1246 163.639 56.496 165.338C60.9162 166.139 69.4189 167.828 76.6284 170.173C82.5639 172.093 86.4534 174.053 88.1906 175.983L90.005 178L91.8195 175.983C93.5567 174.053 97.4558 172.093 103.382 170.173C110.591 167.837 119.094 166.139 123.514 165.338C132.886 163.639 140.327 156.458 142.025 147.483C142.286 146.112 142.421 144.703 142.421 143.304V83.9294C142.421 74.5677 144.467 66.1518 148.492 58.9037L150.509 55.2652H127.462L152.101 39.3696H152.12Z" fill="#98D9E9"/>
<path d="M120.918 57.707C120.783 57.4175 120.638 57.1376 120.503 56.8577L143.241 42.1878L114.162 47.9496C113.052 46.8204 111.894 45.7974 110.688 44.8709L120.136 18.3879L101.268 39.9101C99.2799 39.2538 97.2434 38.7809 95.1877 38.4914L89.9857 11.2556L84.7838 38.4914C82.7281 38.7809 80.6916 39.2538 78.7131 39.9101L59.8449 18.3879L69.2935 44.8709C68.0871 45.7974 66.929 46.8204 65.8191 47.9496L36.7399 42.1878L59.4878 56.8577C59.343 57.1376 59.208 57.4271 59.0729 57.707H33.6514C37.8883 65.3218 40.031 74.1334 40.031 83.9294V143.304C40.031 144.549 40.1468 145.804 40.3784 147.02C41.8937 155.02 48.5433 161.41 56.9302 162.925C61.418 163.736 70.0367 165.453 77.3812 167.837C83.7897 169.912 87.9397 172.036 90.005 174.342C92.08 172.036 96.2302 169.922 102.639 167.837C109.983 165.453 118.602 163.736 123.089 162.925C131.476 161.4 138.126 155.011 139.641 147.02C139.873 145.804 139.989 144.549 139.989 143.304V83.9294C139.989 74.1334 142.131 65.3315 146.368 57.707H120.918Z" fill="black"/>
<path d="M87.1098 43.5197V50.9994C88.2873 50.9125 89.4744 50.8546 90.6615 50.8546C91.4047 50.8546 92.1381 50.8739 92.8812 50.9125V43.5003C91.9644 43.4231 91.0378 43.3845 90.1113 43.3845C89.0979 43.3845 88.1039 43.4328 87.1098 43.5197Z" fill="#98D9E9"/>
<path d="M77.5065 52.891C79.3596 52.3022 81.2898 51.839 83.278 51.5012V44.4654C83.278 44.3593 83.2586 44.2531 83.2393 44.1566C81.2415 44.5909 79.321 45.2086 77.5065 46V52.9006V52.891Z" fill="#98D9E9"/>
<path d="M69.4959 56.3558C70.7989 55.5644 72.1984 54.8502 73.6653 54.2229V47.8434C73.1056 48.1812 72.5554 48.5479 72.0342 48.9243C70.3935 50.1114 69.0038 51.424 67.8939 52.8138V57.4174C68.4054 57.0603 68.9362 56.7032 69.4959 56.3654" fill="#98D9E9"/>
<path d="M110.504 56.3558C109.201 55.5644 107.802 54.8502 106.335 54.2229V47.8434C106.895 48.1812 107.445 48.5479 107.966 48.9243C109.607 50.1114 110.996 51.424 112.106 52.8138V57.4174C111.595 57.0603 111.064 56.7032 110.504 56.3654" fill="#98D9E9"/>
<path d="M102.494 52.891C100.641 52.3022 98.7106 51.839 96.7224 51.5012V44.4654C96.7224 44.3593 96.7416 44.2531 96.7609 44.1566C98.7587 44.5909 100.679 45.2086 102.494 46V52.9006V52.891Z" fill="#98D9E9"/>
<path d="M88.0843 73.7666H79.7553V119.176L62.7498 73.7666H56.7564V146.479H65.0854V101.359L82.0812 146.479H88.0843V73.7666Z" fill="#98D9E9"/>
<path d="M123.273 73.7666H114.944V138.034H103.971V126.482H95.632V138.507C95.632 140.727 96.3943 142.57 97.9771 144.143C99.5503 145.717 101.394 146.479 103.613 146.479H115.292C117.511 146.479 119.355 145.717 120.928 144.143C122.501 142.57 123.273 140.717 123.273 138.507V73.7763V73.7666Z" fill="#98D9E9"/>
<path d="M103.613 112.314H109.038V103.869H103.961V73.7666H95.632V104.332C95.632 106.552 96.3943 108.395 97.9771 109.968C99.5503 111.542 101.394 112.314 103.613 112.314Z" fill="#98D9E9"/>
</svg>
