<svg width="180" height="180" viewBox="0 0 180 180" fill="none" xmlns="http://www.w3.org/2000/svg">
<path d="M90 18C50.3033 18 18 50.2929 18 90C18 129.707 50.293 162 90 162C129.707 162 162 129.697 162 90C162 50.3033 129.697 18 90 18Z" fill="#1D1933"/>
<path d="M89.9999 20.6265C51.7509 20.6265 20.6264 51.751 20.6264 90C20.6264 128.249 51.7509 159.374 89.9999 159.374C128.249 159.374 159.373 128.259 159.373 90C159.373 51.7406 128.259 20.6265 89.9999 20.6265Z" fill="white"/>
<path d="M89.9999 22.1671C52.5988 22.1671 22.1671 52.5988 22.1671 89.9999C22.1671 127.401 52.5988 157.833 89.9999 157.833C127.401 157.833 157.833 127.401 157.833 89.9999C157.833 52.5988 127.401 22.1671 89.9999 22.1671Z" fill="#C4B3D8"/>
<path d="M85.3468 53.6846C85.5019 53.1262 85.6673 52.5886 85.8741 52.0715C68.1404 53.9948 54.0155 68.1095 52.0922 85.8432C52.5988 85.6467 53.1365 85.4709 53.7053 85.3158C55.8147 68.8539 68.8952 55.7837 85.3571 53.6846" fill="#1D1933"/>
<path d="M94.6634 126.315C94.5083 126.863 94.3429 127.411 94.1361 127.929C111.87 126.005 125.995 111.891 127.918 94.1569C127.411 94.3533 126.874 94.5394 126.305 94.6842C124.196 111.146 111.125 124.216 94.6532 126.315" fill="#1D1933"/>
<path d="M126.315 85.3365C126.874 85.4813 127.412 85.6674 127.929 85.8639C126.005 68.1198 111.88 53.9948 94.1465 52.0715C94.343 52.5886 94.5188 53.1262 94.6739 53.6846C111.146 55.7837 124.216 68.8643 126.326 85.3365" fill="#1D1933"/>
<path d="M85.8639 127.928C85.6674 127.411 85.4917 126.874 85.3365 126.315C68.8643 124.216 55.7838 111.136 53.6847 94.6635C53.1263 94.5084 52.5886 94.3326 52.0716 94.1361C53.9949 111.88 68.1198 126.005 85.8536 127.928" fill="#1D1933"/>
<path d="M84.7058 96.7005L90.0001 91.4683L95.2943 96.7005C97.3314 98.6548 99.3477 100.64 101.416 102.574C105.521 106.462 109.678 110.298 113.99 113.99C110.298 109.678 106.462 105.521 102.574 101.416C100.64 99.3476 98.6549 97.3313 96.7006 95.2942L91.4684 89.9999C95.2013 86.2257 98.9238 82.4411 102.564 78.5842C106.452 74.479 110.288 70.3222 113.979 66.0206C109.678 69.7121 105.521 73.5484 101.405 77.4364C97.5382 81.0762 93.7536 84.7987 89.9897 88.542C86.2155 84.8091 82.4309 81.0865 78.5739 77.4364C74.4688 73.5484 70.312 69.7121 66.0104 66.0206C69.7019 70.3222 73.5382 74.479 77.4261 78.5842C81.0659 82.4515 84.7885 86.236 88.5317 89.9999L83.2995 95.2942C81.3451 97.3313 79.3598 99.3476 77.4261 101.416C73.5382 105.521 69.7019 109.678 66.0104 113.99C70.312 110.298 74.4791 106.462 78.5843 102.574C80.6523 100.64 82.6687 98.6548 84.7058 96.7005Z" fill="#1D1933"/>
<path d="M57.8001 93.1125C59.2168 93.0504 60.5713 92.6782 61.9156 92.2232C63.3632 91.7372 64.8006 91.396 66.2482 91.1581C67.3856 90.972 68.5335 90.8583 69.7019 90.7859C69.7743 90.7859 69.8363 90.8273 69.8363 90.8996C69.8467 91.1168 69.9087 91.458 69.6399 91.4683C68.5024 91.5304 67.3443 91.6855 66.2379 91.9854C64.1284 92.5644 62.2051 93.6708 60.9332 95.6252C59.1857 98.324 60.168 102.098 63.0634 103.422C64.2318 103.949 65.3176 103.96 66.2379 103.711C67.5718 103.349 68.4197 102.677 68.9367 101.902C69.8777 100.495 69.7122 98.7583 69.464 97.9724C69.0711 96.7419 67.9337 95.7389 66.2689 96.0801C65.6175 96.2456 65.0901 96.7109 64.8729 97.321C64.6351 97.9724 64.7179 98.6859 65.1832 99.234C65.2762 99.3477 65.6485 99.6682 66.0931 99.7923C65.4727 100.134 64.7178 99.9268 64.1801 99.5235C63.3943 98.9341 63.0841 97.9931 63.2288 97.0625C63.3943 95.9871 64.0354 95.1288 64.9247 94.4774C65.3486 94.1672 65.7932 93.8983 66.2482 93.6812C67.3339 93.1538 68.4921 92.8746 69.7019 92.8333C69.7329 92.8333 69.826 92.8333 69.8363 92.9057C69.9087 93.3296 69.8053 93.8673 70.2706 94.1051C70.6119 94.2809 71.0358 94.2085 71.2943 93.9087C71.5632 93.5984 71.4908 93.2365 71.5218 92.854C71.5218 92.8022 71.6149 92.7712 71.6769 92.7712C72.3904 92.8333 73.1246 92.9677 73.7657 93.2779C74.1793 93.4847 74.5722 93.7122 74.9031 94.0121C75.0168 94.1155 75.1306 94.2292 75.234 94.3636C75.6579 94.8807 76.0095 95.6148 75.8234 96.2973C75.4098 95.6562 74.6756 95.5838 74.0759 95.8216C73.321 96.1112 73.0108 97.0004 73.1866 97.776C73.3727 98.6239 74.1793 99.1409 74.9548 99.2443C76.1336 99.327 76.8264 98.9444 77.3021 98.3033C78.0466 97.3003 78.0259 95.8837 77.5089 94.8186C76.9712 93.7019 76.0095 92.885 74.8927 92.3473C73.8897 91.8613 72.7627 91.5924 71.7183 91.5407C71.4598 91.5304 71.4494 91.0237 71.5735 90.8272C71.6459 90.7859 71.7079 90.7962 71.7596 90.7962C72.8247 90.8169 73.869 90.941 74.8927 91.1788C76.0198 91.4373 77.116 91.8406 78.181 92.368C78.7187 92.6368 79.2978 92.7299 79.9079 92.6161C81.5003 92.3059 82.3585 91.1685 83.5683 90C82.3585 88.8315 81.5003 87.6941 79.9079 87.3839C79.3081 87.2701 78.7187 87.3632 78.181 87.6321C77.116 88.1594 76.0198 88.5627 74.8927 88.8212C73.869 89.059 72.8247 89.1935 71.7596 89.2038C71.7079 89.2038 71.6459 89.2245 71.5735 89.1728C71.4494 88.9763 71.4598 88.48 71.7183 88.4593C72.7627 88.4076 73.8897 88.1387 74.8927 87.6527C76.0095 87.1047 76.9608 86.2878 77.4985 85.1814C78.0156 84.1164 78.0466 82.6997 77.2917 81.6967C76.8161 81.0556 76.113 80.673 74.9445 80.7557C74.169 80.8591 73.3624 81.3761 73.1763 82.2241C73.0108 82.9996 73.321 83.8889 74.0655 84.1784C74.6653 84.4162 75.3994 84.3438 75.813 83.7027C75.9992 84.3852 75.6476 85.1193 75.2236 85.6364C75.1202 85.7604 75.0065 85.8742 74.8927 85.988C74.5515 86.2878 74.1689 86.5257 73.7553 86.7221C73.1039 87.0427 72.3697 87.1667 71.6665 87.2288C71.6045 87.2288 71.5115 87.1978 71.5115 87.1461C71.4805 86.7635 71.5528 86.4016 71.284 86.0913C71.0255 85.7915 70.6015 85.7191 70.2603 85.8949C69.795 86.1327 69.8984 86.6601 69.826 87.084C69.8157 87.1461 69.7226 87.1564 69.6916 87.1564C68.4817 87.115 67.3236 86.8359 66.2275 86.3085C65.7725 86.0914 65.3383 85.8225 64.904 85.5123C64.0147 84.8608 63.3736 84.0129 63.2081 82.9272C63.0634 81.9966 63.3736 81.0556 64.1594 80.4662C64.6971 80.0629 65.4624 79.8561 66.0724 80.1973C65.6278 80.3214 65.2555 80.642 65.1625 80.7557C64.6972 81.3038 64.6145 82.0172 64.8523 82.6687C65.0694 83.2788 65.6071 83.7441 66.2482 83.9095C67.913 84.2508 69.0505 83.2374 69.4434 82.0172C69.8363 80.7971 70.0018 77.302 66.2172 76.2783C65.2969 76.0302 64.2008 76.0302 63.0427 76.5679C60.1474 77.8914 59.1651 81.6657 60.9126 84.3645C62.1845 86.3292 64.1078 87.4356 66.2172 88.0043C67.3236 88.3042 68.4817 88.4696 69.6192 88.5213C69.888 88.5317 69.826 88.8729 69.8156 89.0901C69.8156 89.1625 69.7536 89.2038 69.6812 89.2038C68.5128 89.1314 67.365 89.0177 66.2172 88.8316C64.7696 88.5937 63.3323 88.2525 61.8846 87.7665C60.5404 87.3115 59.1858 86.9393 57.7588 86.8772C53.8605 86.7221 51.1927 88.8109 49.7347 89.9897C51.1927 91.1685 53.8708 93.2676 57.7691 93.1125" fill="#1D1933"/>
<path d="M87.7768 61.9156C88.2628 63.3632 88.6041 64.8005 88.8419 66.2482C89.028 67.3856 89.1417 68.5334 89.2141 69.7019C89.2141 69.7743 89.1728 69.8363 89.1004 69.8363C88.8833 69.857 88.542 69.9087 88.5316 69.6398C88.4696 68.5024 88.3145 67.3443 88.0146 66.2378C87.4356 64.1284 86.3292 62.2051 84.3645 60.9332C81.6657 59.1857 77.8914 60.168 76.5678 63.0633C76.0301 64.2318 76.0302 65.3175 76.2783 66.2378C77.302 70.0224 80.8074 69.857 82.0172 69.464C83.2477 69.0711 84.2507 67.9337 83.9095 66.2689C83.7441 65.6278 83.2787 65.0901 82.6687 64.8729C82.0069 64.6351 81.3038 64.7178 80.7557 65.1831C80.642 65.2762 80.3317 65.6484 80.1973 66.0931C79.8561 65.4726 80.0629 64.7178 80.4662 64.1801C81.0556 63.3942 81.9965 63.084 82.9272 63.2288C84.0129 63.3942 84.8608 64.0353 85.5123 64.9246C85.8225 65.3485 86.0913 65.7932 86.3085 66.2482C86.8358 67.3339 87.115 68.5024 87.1564 69.7019C87.1564 69.7329 87.1564 69.8259 87.084 69.8363C86.6601 69.9087 86.1223 69.8053 85.8845 70.2706C85.7087 70.6118 85.7811 71.0358 86.081 71.2943C86.3912 71.5631 86.7531 71.4907 87.1357 71.5218C87.1874 71.5218 87.2184 71.6148 87.2184 71.6769C87.1564 72.3903 87.0323 73.1245 86.7118 73.7656C86.505 74.1792 86.2775 74.5722 85.9776 74.9031C85.8742 75.0168 85.7604 75.1305 85.626 75.2339C85.109 75.6579 84.3852 76.0095 83.6923 75.8234C84.3334 75.4097 84.4059 74.6756 84.168 74.0758C83.8682 73.321 82.9892 73.0108 82.2137 73.1866C81.3658 73.3727 80.8488 74.1792 80.7454 74.9548C80.6626 76.1232 81.0452 76.8264 81.6863 77.302C82.6893 78.0569 84.106 78.0259 85.171 77.5088C86.2878 76.9711 87.1047 76.0095 87.6424 74.8927C88.1284 73.8897 88.3973 72.7626 88.449 71.7182C88.4593 71.4597 88.9556 71.4494 89.1624 71.5735C89.2038 71.6459 89.1934 71.7079 89.1934 71.7596C89.1728 72.8247 89.0487 73.869 88.8108 74.8927C88.5523 76.0198 88.149 77.1159 87.6217 78.181C87.3528 78.7187 87.2598 79.2977 87.3735 79.9078C87.6837 81.5002 88.8212 82.3585 89.9897 83.5683C91.1581 82.3585 92.2955 81.5002 92.6057 79.8975C92.7195 79.2874 92.6264 78.7187 92.3576 78.1706C91.8199 77.1056 91.427 76.0095 91.1685 74.8824C90.9306 73.8587 90.8065 72.8143 90.7858 71.7492C90.7858 71.7079 90.7652 71.6355 90.8065 71.5631C91.003 71.4287 91.4993 71.4494 91.52 71.7079C91.5717 72.7523 91.8406 73.8897 92.3266 74.8824C92.8746 75.9991 93.6915 76.9608 94.7979 77.4985C95.863 78.0155 97.2796 78.0465 98.2826 77.2917C98.9237 76.816 99.3063 76.1129 99.2236 74.9444C99.1202 74.1689 98.6032 73.3623 97.7553 73.1762C96.9798 73.0108 96.0905 73.321 95.8009 74.0655C95.5631 74.6652 95.6355 75.3994 96.2766 75.813C95.5942 75.9991 94.8599 75.6476 94.3429 75.2236C94.2188 75.1202 94.1051 75.0065 93.9914 74.8927C93.6812 74.5515 93.4537 74.1689 93.2572 73.7553C92.9366 73.1038 92.8126 72.3697 92.7505 71.6665C92.7505 71.6045 92.7816 71.5114 92.8333 71.5114C93.2159 71.4804 93.5777 71.5528 93.8879 71.2839C94.1878 71.0254 94.2602 70.6015 94.0844 70.2602C93.8466 69.7949 93.3192 69.888 92.885 69.826C92.8229 69.826 92.8126 69.7225 92.8126 69.6915C92.8539 68.4817 93.1331 67.3132 93.6605 66.2275C93.8776 65.7725 94.1465 65.3382 94.4567 64.9039C95.1082 64.0147 95.9561 63.3736 97.0418 63.2081C97.9724 63.0634 98.9134 63.3735 99.5028 64.1594C99.9061 64.6971 100.113 65.4623 99.7716 66.0724C99.6475 65.6278 99.327 65.2555 99.2133 65.1624C98.6652 64.6971 97.9518 64.6144 97.3003 64.8522C96.6902 65.0694 96.2249 65.6071 96.0595 66.2482C95.7182 67.913 96.7316 69.0504 97.9518 69.4434C99.1719 69.8363 102.667 70.0017 103.691 66.2171C103.939 65.2968 103.939 64.2008 103.401 63.0427C102.078 60.1474 98.3033 59.165 95.6045 60.9126C93.6398 62.1844 92.5334 64.1077 91.9646 66.2171C91.6648 67.3236 91.4993 68.4817 91.4476 69.6191C91.4373 69.888 91.0961 69.8259 90.8789 69.8156C90.8065 69.8156 90.7652 69.7536 90.7652 69.6812C90.8376 68.5127 90.9513 67.3649 91.1374 66.2171C91.3753 64.7695 91.7165 63.3322 92.2025 61.8846C92.6575 60.5403 93.0297 59.1857 93.0918 57.7691C93.2572 53.8708 91.1581 51.1926 89.969 49.7346C88.7902 51.1926 86.6911 53.8708 86.8565 57.7691C86.9185 59.1857 87.2908 60.5403 87.7458 61.8846" fill="#1D1933"/>
<path d="M93.1227 122.21C93.0606 120.794 92.6884 119.439 92.2334 118.084C91.7474 116.637 91.3959 115.199 91.1684 113.752C90.9822 112.614 90.8685 111.467 90.7961 110.288C90.7961 110.215 90.8375 110.153 90.9099 110.153C91.127 110.133 91.4682 110.081 91.4786 110.35C91.5406 111.487 91.6957 112.645 91.9956 113.752C92.5746 115.861 93.681 117.785 95.6354 119.056C98.3342 120.804 102.108 119.822 103.432 116.926C103.97 115.758 103.97 114.672 103.722 113.752C102.698 109.967 99.2028 110.133 97.9826 110.526C96.7521 110.919 95.7491 112.056 96.0903 113.721C96.2558 114.372 96.7211 114.9 97.3208 115.117C97.9723 115.355 98.6858 115.272 99.2338 114.807C99.3476 114.713 99.6578 114.341 99.7922 113.897C100.133 114.507 99.9266 115.272 99.5233 115.81C98.9339 116.595 97.993 116.906 97.0623 116.761C95.9869 116.595 95.1287 115.954 94.4772 115.065C94.167 114.641 93.8982 114.196 93.6811 113.741C93.1537 112.656 92.8745 111.487 92.8332 110.277C92.8332 110.246 92.8332 110.153 92.9055 110.143C93.3295 110.071 93.8672 110.174 94.105 109.709C94.2808 109.367 94.2084 108.944 93.9085 108.685C93.5983 108.416 93.2364 108.489 92.8538 108.458C92.8021 108.458 92.7608 108.364 92.7711 108.302C92.8332 107.589 92.9572 106.855 93.2778 106.214C93.4846 105.8 93.7121 105.417 94.012 105.076C94.1154 104.952 94.2394 104.849 94.3635 104.745C94.8805 104.321 95.6147 103.98 96.2972 104.156C95.6561 104.57 95.5837 105.304 95.8215 105.903C96.1111 106.658 97.0003 106.969 97.7758 106.793C98.6237 106.607 99.1408 105.79 99.2442 105.024C99.3269 103.846 98.9443 103.153 98.3032 102.677C97.3002 101.922 95.8835 101.953 94.8185 102.47C93.7017 103.008 92.8848 103.97 92.3471 105.076C91.8611 106.079 91.5923 107.206 91.5406 108.251C91.5303 108.509 91.0339 108.52 90.8271 108.395C90.7858 108.323 90.7961 108.261 90.7961 108.209C90.8167 107.144 90.9408 106.1 91.1787 105.076C91.4372 103.949 91.8405 102.853 92.3678 101.788C92.6367 101.25 92.7297 100.671 92.616 100.061C92.3058 98.4687 91.1684 97.6105 89.9999 96.4006C88.8314 97.6105 87.694 98.4687 87.3838 100.071C87.27 100.671 87.3631 101.261 87.6319 101.798C88.1696 102.863 88.5626 103.959 88.8211 105.087C89.0589 106.11 89.183 107.155 89.2037 108.22C89.2037 108.271 89.2243 108.333 89.1726 108.406C88.9762 108.53 88.4798 108.52 88.4591 108.261C88.4074 107.206 88.1386 106.079 87.6526 105.087C87.1046 103.97 86.2877 103.008 85.1813 102.47C84.1162 101.953 82.6996 101.922 81.6966 102.677C81.0555 103.153 80.6729 103.856 80.766 105.024C80.8694 105.8 81.3864 106.607 82.2343 106.793C83.0098 106.958 83.8991 106.648 84.1886 105.903C84.4264 105.304 84.354 104.57 83.7129 104.156C84.3954 103.97 85.1296 104.321 85.6466 104.745C85.7707 104.849 85.8844 104.962 85.9982 105.076C86.2981 105.417 86.5358 105.8 86.7323 106.214C87.0529 106.855 87.1769 107.599 87.239 108.302C87.239 108.364 87.208 108.458 87.1563 108.458C86.7737 108.478 86.4118 108.416 86.1016 108.685C85.8017 108.944 85.7293 109.367 85.9051 109.709C86.1429 110.174 86.6703 110.071 87.1045 110.143C87.1666 110.143 87.1769 110.246 87.1769 110.277C87.1356 111.487 86.8564 112.645 86.329 113.741C86.1015 114.196 85.8431 114.631 85.5329 115.065C84.8814 115.954 84.0335 116.585 82.9478 116.761C82.0171 116.906 81.0762 116.595 80.4868 115.81C80.0835 115.272 79.8767 114.507 80.2179 113.897C80.342 114.341 80.6625 114.713 80.7762 114.807C81.3243 115.272 82.0378 115.355 82.6893 115.117C83.2993 114.9 83.7647 114.362 83.9301 113.721C84.261 112.056 83.258 110.919 82.0275 110.526C80.8073 110.133 77.3123 109.967 76.2886 113.752C76.0404 114.672 76.0507 115.758 76.5781 116.926C77.9016 119.822 81.6759 120.804 84.3747 119.056C86.3394 117.785 87.4458 115.861 88.0249 113.752C88.3247 112.645 88.4902 111.487 88.5419 110.35C88.5522 110.081 88.8934 110.143 89.1106 110.153C89.183 110.153 89.2244 110.215 89.2244 110.288C89.152 111.456 89.0382 112.604 88.8521 113.752C88.6142 115.199 88.273 116.637 87.787 118.084C87.3321 119.429 86.9598 120.783 86.8978 122.21C86.7427 126.119 88.8314 128.787 90.0205 130.245C91.1993 128.787 93.2985 126.109 93.1434 122.21" fill="#1D1933"/>
<path d="M122.21 86.8772C120.794 86.9393 119.439 87.3115 118.084 87.7665C116.637 88.2525 115.199 88.5937 113.752 88.8316C112.614 89.0177 111.467 89.1314 110.298 89.2038C110.226 89.2038 110.164 89.1625 110.164 89.0901C110.143 88.8729 110.091 88.5317 110.36 88.5213C111.498 88.4593 112.656 88.3042 113.762 88.0043C115.872 87.4253 117.795 86.3188 119.067 84.3645C120.814 81.6657 119.832 77.8914 116.937 76.5679C115.768 76.0302 114.682 76.0302 113.762 76.2783C109.978 77.302 110.143 80.8074 110.536 82.0172C110.929 83.2477 112.066 84.2508 113.731 83.9095C114.372 83.7441 114.91 83.2788 115.127 82.6687C115.365 82.0172 115.282 81.3038 114.817 80.7557C114.724 80.642 114.352 80.3214 113.907 80.1973C114.517 79.8561 115.282 80.0629 115.82 80.4662C116.606 81.0556 116.916 81.9966 116.771 82.9272C116.606 84.0026 115.965 84.8608 115.075 85.5123C114.651 85.8225 114.207 86.0914 113.752 86.3085C112.666 86.8359 111.508 87.115 110.298 87.1564C110.267 87.1564 110.174 87.1564 110.164 87.084C110.091 86.6601 110.195 86.1224 109.729 85.8846C109.388 85.7088 108.964 85.7811 108.706 86.081C108.437 86.3912 108.509 86.7531 108.478 87.1357C108.478 87.1874 108.385 87.2288 108.323 87.2185C107.61 87.1564 106.875 87.0323 106.224 86.7118C105.81 86.505 105.417 86.2775 105.087 85.9776C104.973 85.8742 104.859 85.7605 104.756 85.626C104.332 85.109 103.98 84.3749 104.166 83.6924C104.59 84.3335 105.314 84.3955 105.914 84.168C106.669 83.8785 106.979 82.9892 106.803 82.2137C106.617 81.3658 105.8 80.8488 105.035 80.7454C103.856 80.6627 103.163 81.0453 102.688 81.6864C101.943 82.6894 101.974 84.106 102.481 85.1711C103.019 86.2878 103.98 87.1047 105.087 87.6424C106.09 88.1284 107.217 88.3972 108.261 88.4489C108.52 88.4593 108.53 88.9556 108.406 89.1624C108.333 89.2038 108.271 89.1935 108.22 89.1831C107.155 89.1625 106.11 89.0384 105.087 88.8005C103.959 88.542 102.863 88.1387 101.798 87.6114C101.261 87.3425 100.682 87.2495 100.072 87.3632C98.4791 87.6734 97.6208 88.8109 96.411 89.9793C97.6208 91.1478 98.4791 92.2852 100.082 92.5954C100.682 92.7092 101.271 92.6161 101.809 92.3473C102.874 91.8199 103.97 91.4167 105.097 91.1581C106.121 90.9203 107.165 90.7962 108.23 90.7755C108.271 90.7755 108.344 90.7652 108.416 90.8065C108.551 91.003 108.53 91.4994 108.271 91.52C107.217 91.5717 106.1 91.8406 105.097 92.3266C103.99 92.8643 103.029 93.6915 102.491 94.7979C101.974 95.863 101.943 97.2796 102.698 98.2826C103.174 98.9237 103.877 99.3063 105.045 99.2236C105.821 99.1202 106.627 98.6032 106.813 97.7553C106.979 96.9797 106.669 96.0905 105.924 95.801C105.324 95.5631 104.59 95.6355 104.177 96.2766C104.001 95.5941 104.342 94.86 104.766 94.343C104.869 94.2189 104.983 94.1051 105.097 93.9914C105.438 93.6812 105.821 93.4537 106.245 93.2572C106.896 92.9367 107.63 92.8126 108.333 92.7505C108.395 92.7505 108.489 92.7816 108.489 92.8333C108.52 93.2159 108.447 93.5778 108.716 93.888C108.975 94.1879 109.399 94.2602 109.74 94.0845C110.205 93.8466 110.112 93.3193 110.174 92.885C110.174 92.8229 110.277 92.8126 110.308 92.8126C111.518 92.8539 112.676 93.1331 113.773 93.6605C114.227 93.888 114.662 94.1465 115.096 94.4567C115.985 95.1082 116.616 95.9561 116.792 97.0418C116.937 97.9725 116.626 98.9134 115.841 99.5028C115.303 99.9061 114.538 100.113 113.928 99.7717C114.372 99.6476 114.744 99.327 114.838 99.2133C115.303 98.6549 115.386 97.9518 115.148 97.3003C114.931 96.6902 114.393 96.2249 113.752 96.0595C112.087 95.7182 110.95 96.7316 110.557 97.9517C110.164 99.1719 109.998 102.667 113.783 103.691C114.703 103.939 115.799 103.928 116.957 103.401C119.853 102.078 120.835 98.3033 119.087 95.6045C117.816 93.6398 115.892 92.5334 113.783 91.9647C112.676 91.6648 111.518 91.4994 110.381 91.4477C110.112 91.4373 110.174 91.0961 110.184 90.8789C110.184 90.8066 110.246 90.7652 110.319 90.7652C111.487 90.8376 112.635 90.9513 113.783 91.1374C115.231 91.3753 116.668 91.7165 118.115 92.2025C119.46 92.6575 120.814 93.0297 122.241 93.0918C126.14 93.2469 128.807 91.1581 130.265 89.9793C128.807 88.8005 126.129 86.7014 122.231 86.8565" fill="#1D1933"/>
<path d="M61.6467 128.849L61.047 129.779L60.4472 130.71L60.7264 130.565C60.8712 130.493 61.0056 130.441 61.14 130.42C61.2744 130.4 61.4089 130.41 61.5329 130.441C61.6674 130.482 61.8225 130.544 61.9983 130.627C62.1637 130.71 62.3499 130.813 62.536 130.937L60.5609 134.008L58.5756 137.069C58.4412 137.276 58.2964 137.452 58.1516 137.597C58.0069 137.731 57.8517 137.834 57.6966 137.896L57.614 137.927L57.5312 137.959L59.6717 139.344V139.261V139.179C59.6717 139.013 59.6924 138.827 59.7544 138.641C59.8165 138.444 59.9198 138.248 60.0543 138.041L62.0293 134.97L64.0147 131.899C64.2008 132.023 64.3766 132.147 64.5213 132.261C64.6661 132.375 64.7901 132.499 64.8729 132.602C64.9556 132.706 65.0177 132.819 65.059 132.943C65.1004 133.078 65.1107 133.223 65.1004 133.388L65.0797 133.698L65.6794 132.768L66.2792 131.837L61.657 128.849H61.6467Z" fill="#1D1933"/>
<path d="M44.3679 105.159L44.2852 105.283C44.0784 105.583 43.7578 105.821 43.3236 105.997L36.5196 108.623C36.0646 108.799 35.6717 108.84 35.3098 108.747L35.1546 108.706L36.0646 111.063L36.1577 110.919C36.3335 110.639 36.6851 110.402 37.14 110.226L40.4903 108.933C40.7281 109.554 40.8522 109.874 40.9246 110.091C41.0383 110.433 41.059 110.732 41.0073 111.043L40.9763 111.198L42.7755 110.505L42.6514 110.402C42.3929 110.205 42.1861 109.947 42.0517 109.657C41.9586 109.45 41.8552 109.161 41.607 108.499L43.9026 107.61L44.4713 109.068C44.6574 109.564 44.6368 109.988 44.4093 110.277L44.2335 110.505L46.1672 109.76L44.3886 105.159H44.3679Z" fill="#1D1933"/>
<path d="M49.6208 115.789C48.4317 113.917 46.3843 113.886 43.551 115.696C40.7281 117.495 39.9009 119.346 41.09 121.218C42.2791 123.089 44.3162 123.131 47.1392 121.331C49.9828 119.522 50.81 117.661 49.6208 115.789ZM42.1447 120.546C41.5967 119.677 42.3723 118.519 44.5024 117.164C46.6428 115.799 48.0181 115.582 48.5765 116.451C49.1245 117.319 48.3386 118.477 46.2085 119.842C44.0784 121.197 42.7031 121.414 42.1551 120.546" fill="#1D1933"/>
<path d="M56.2283 123.989C54.6876 122.386 52.6816 122.758 50.2516 125.095C47.8423 127.412 47.3977 129.397 48.928 131C50.4688 132.602 52.4644 132.241 54.8738 129.924C57.3037 127.598 57.7484 125.602 56.218 123.999M49.8277 130.131C49.1142 129.387 49.6519 128.104 51.4718 126.357C53.302 124.599 54.6152 124.113 55.3184 124.857C56.0319 125.602 55.4942 126.895 53.6639 128.642C51.844 130.39 50.5308 130.876 49.8277 130.131Z" fill="#1D1933"/>
<path d="M74.2309 141.195C74.0551 140.668 73.7448 140.234 73.2899 139.892C73.7138 139.892 74.1274 139.768 74.4997 139.541C74.9133 139.282 75.2236 138.9 75.3993 138.434C75.6268 137.814 75.5751 137.173 75.2339 136.511C74.8823 135.849 74.1791 135.343 73.0831 134.929L70.6427 134.019L70.6841 134.164C70.7772 134.515 70.7358 134.919 70.5703 135.353L68.0163 142.188C67.8405 142.643 67.613 142.963 67.3132 143.17L67.1787 143.263L70.0947 144.349C71.1184 144.732 72.0077 144.773 72.7315 144.463C73.445 144.173 73.931 143.667 74.1998 142.963C74.417 142.374 74.4376 141.774 74.2412 141.185M72.2041 135.901L72.6798 136.077C73.2072 136.273 73.5484 136.532 73.7242 136.883C73.8999 137.225 73.9207 137.597 73.7759 137.99C73.6311 138.362 73.3726 138.631 72.9797 138.817C72.6074 138.993 72.1318 138.972 71.5734 138.765L71.1805 138.62L72.1938 135.901H72.2041ZM71.6768 143.16C71.2425 143.315 70.6841 143.284 70.043 143.036L69.5984 142.87L70.7875 139.686L71.3459 139.892C71.9353 140.11 72.3386 140.451 72.535 140.875C72.7212 141.309 72.7315 141.754 72.5557 142.219C72.3903 142.664 72.0904 142.984 71.6664 143.15" fill="#1D1933"/>
<path d="M140.988 106.576C140.461 106.741 140.016 107.051 139.675 107.506C139.675 107.082 139.551 106.669 139.344 106.286C139.096 105.872 138.713 105.562 138.248 105.376C137.638 105.138 136.987 105.19 136.325 105.521C135.663 105.872 135.146 106.565 134.722 107.651L133.781 110.091L133.926 110.05C134.277 109.967 134.681 110.009 135.115 110.174L141.919 112.801C142.374 112.976 142.694 113.214 142.901 113.514L142.994 113.648L144.121 110.743C144.514 109.729 144.566 108.84 144.266 108.106C143.977 107.392 143.48 106.896 142.777 106.627C142.188 106.4 141.588 106.379 140.999 106.565M135.694 108.551L135.88 108.075C136.077 107.558 136.346 107.217 136.697 107.041C137.049 106.865 137.411 106.855 137.804 107C138.176 107.144 138.445 107.403 138.62 107.796C138.786 108.168 138.765 108.644 138.548 109.202L138.403 109.595L135.694 108.551ZM142.943 109.161C143.098 109.605 143.056 110.153 142.808 110.794L142.643 111.239L139.468 110.019L139.685 109.461C139.913 108.871 140.254 108.468 140.688 108.282C141.133 108.096 141.567 108.096 142.033 108.282C142.477 108.458 142.788 108.757 142.953 109.181" fill="#1D1933"/>
<path d="M83.6716 147.43L83.4131 147.544L86.1429 147.896L85.9982 147.751C85.7604 147.493 85.6053 147.089 85.5432 146.593L84.6746 139.003C84.6436 138.703 84.6332 138.476 84.6539 138.321C84.6746 138.134 84.7366 138.01 84.8504 137.917L85.0055 137.793L82.6686 137.493L82.7823 137.648C82.865 137.762 82.8961 137.897 82.8754 138.093C82.8547 138.248 82.7927 138.465 82.6789 138.745L79.9284 145.869C79.7526 146.334 79.4941 146.686 79.2046 146.872L79.0287 146.986L81.7586 147.337L81.5312 147.162C81.3761 147.038 81.314 146.882 81.345 146.655C81.3554 146.552 81.3864 146.427 81.4484 146.252L81.8207 145.197L83.8784 145.445L83.9715 146.572C83.9818 146.758 83.9818 146.882 83.9715 146.986C83.9405 147.213 83.8474 147.348 83.6613 147.43M82.2549 143.925C82.865 142.198 83.2683 141.04 83.4648 140.471C83.5062 141.061 83.6095 142.302 83.7647 144.122L82.2549 143.925Z" fill="#1D1933"/>
<path d="M96.5455 146.117C96.2456 146.251 95.8631 146.334 95.3667 146.376L94.4361 146.458L93.826 139.21C93.7846 138.734 93.857 138.341 94.0328 138.031L94.1052 137.896L91.6028 138.114L91.7062 138.238C91.9337 138.517 92.0785 138.899 92.1198 139.365L92.7299 146.634C92.7712 147.12 92.6989 147.513 92.5128 147.823L92.43 147.968L97.5382 147.544L97.3314 145.135L97.1763 145.486C97.0522 145.786 96.835 146.014 96.5455 146.127" fill="#1D1933"/>
<path d="M107.91 143.563C107.641 143.76 107.279 143.915 106.803 144.059L105.914 144.328L103.835 137.359C103.701 136.904 103.68 136.501 103.794 136.17L103.846 136.015L101.437 136.738L101.561 136.842C101.85 137.069 102.057 137.411 102.191 137.855L104.28 144.845C104.415 145.311 104.435 145.714 104.311 146.055L104.259 146.21L109.171 144.742L108.478 142.426L108.406 142.798C108.344 143.118 108.178 143.377 107.92 143.553" fill="#1D1933"/>
<path d="M117.878 128.983C116.854 129.686 116.285 130.617 116.202 131.775C116.109 132.923 116.502 134.112 117.381 135.405C118.25 136.676 119.232 137.514 120.308 137.886C121.383 138.269 122.417 138.134 123.379 137.483C123.751 137.235 124.123 136.842 124.537 136.294L124.568 136.252L123.306 134.412L123.337 134.712C123.41 135.446 123.193 135.994 122.696 136.335C122.2 136.676 121.61 136.697 120.918 136.397C120.204 136.097 119.511 135.446 118.85 134.474C118.198 133.523 117.836 132.644 117.753 131.847C117.681 131.082 117.909 130.534 118.446 130.162C118.963 129.81 119.542 129.79 120.215 130.121L120.473 130.245L119.212 128.394H119.16C118.694 128.518 118.271 128.714 117.878 128.973" fill="#1D1933"/>
<path d="M131.475 128.29C131.33 128.59 131.093 128.901 130.741 129.252L130.079 129.914L124.94 124.775C124.599 124.434 124.392 124.092 124.33 123.751L124.299 123.596L122.52 125.374L122.676 125.406C123.037 125.468 123.379 125.664 123.72 125.995L128.88 131.155C129.221 131.496 129.417 131.848 129.48 132.209L129.511 132.375L133.13 128.745L131.413 127.029L131.527 127.401C131.63 127.711 131.599 128.022 131.455 128.301" fill="#1D1933"/>
<path d="M130.689 115.623H130.845C131.196 115.623 131.579 115.747 131.982 116.006L136.77 119.129C137.679 119.728 137.866 120.411 137.38 121.155C136.894 121.91 136.19 122.014 135.281 121.414L130.493 118.291C130.09 118.033 129.821 117.733 129.686 117.412L129.624 117.267L128.29 119.305H128.446C128.797 119.305 129.18 119.429 129.573 119.687L134.184 122.696C135.001 123.234 135.808 123.43 136.583 123.275C137.349 123.11 137.969 122.655 138.486 121.879C138.993 121.093 139.158 120.339 138.993 119.573C138.827 118.808 138.321 118.146 137.504 117.609L132.892 114.6C132.489 114.341 132.22 114.041 132.085 113.721L132.023 113.576L130.7 115.613L130.689 115.623Z" fill="#1D1933"/>
<path d="M83.289 42.8583L82.193 43.0237L80.6316 32.3835C80.5282 31.701 80.5903 31.0185 80.8798 30.4808C80.6523 30.5119 77.788 30.9358 77.5605 30.9668C77.9948 31.3908 78.243 32.0319 78.3464 32.7144L79.9078 43.3753C80.0112 44.0577 79.9492 44.7402 79.6596 45.2779C79.8044 45.2572 86.598 44.2542 86.598 44.2542C86.598 44.2542 86.2154 41.6691 86.1224 40.9763C85.7915 42.5274 84.3748 42.6928 83.289 42.8479" fill="#1D1933"/>
<path d="M134.019 71.6975L133.574 70.6738L143.449 66.4136C144.08 66.1344 144.763 66.0207 145.352 66.1654C145.259 65.9586 144.111 63.3011 144.028 63.084C143.729 63.6113 143.18 64.025 142.539 64.2938L132.644 68.5644C132.013 68.8332 131.33 68.9573 130.741 68.8126C130.793 68.947 133.523 75.2443 133.523 75.2443C133.523 75.2443 135.921 74.2102 136.563 73.9311C134.981 74.0138 134.453 72.6902 134.019 71.6872" fill="#1D1933"/>
<path d="M136.759 80.6523L136.521 79.5666L147.027 77.2607C147.699 77.1159 148.392 77.1263 148.94 77.3744C148.888 77.1469 148.268 74.324 148.216 74.0966C147.823 74.5515 147.203 74.8514 146.531 75.0065L136.004 77.3124C135.332 77.4572 134.639 77.4468 134.091 77.1987C134.122 77.3434 135.591 84.044 135.591 84.044C135.591 84.044 138.145 83.4856 138.827 83.3409C137.255 83.1237 136.997 81.7174 136.759 80.6523Z" fill="#1D1933"/>
<path d="M93.2572 29.6536C90.1861 29.4985 88.5317 31.9182 88.2835 36.8402C88.0353 41.7312 89.4416 44.2852 92.5024 44.4403C95.5735 44.5954 97.2279 42.1965 97.4761 37.3055C97.7243 32.3835 96.3283 29.8087 93.2572 29.6536ZM92.5954 42.6825C91.1374 42.6101 90.4653 40.6765 90.6618 36.9332C90.8479 33.1797 91.7165 31.3081 93.1745 31.3805C94.6325 31.4529 95.2943 33.3968 95.1082 37.1504C94.922 40.8936 94.0534 42.7549 92.5954 42.6721" fill="#1D1933"/>
<path d="M110.257 35.1443C110.453 34.4825 110.795 33.8827 111.281 33.5312L108.065 32.5695C108.271 33.1382 108.241 33.8207 108.034 34.4825L105.624 42.548C105.159 44.1094 104.342 44.6988 103.122 44.3265C101.902 43.9646 101.54 43.0236 102.005 41.4622L104.415 33.3864C104.611 32.7246 104.963 32.1249 105.438 31.7733L102.222 30.8116C102.429 31.3804 102.398 32.0628 102.202 32.7246L99.8855 40.4902C99.4719 41.8655 99.5132 43.065 100.01 44.0577C100.516 45.0503 101.354 45.7224 102.595 46.0844C103.835 46.4566 104.901 46.3532 105.873 45.8052C106.834 45.2365 107.527 44.2541 107.93 42.8892L110.246 35.1132L110.257 35.1443Z" fill="#1D1933"/>
<path d="M116.957 38.1327C117.268 37.5123 117.702 36.9849 118.25 36.7161C118.043 36.6127 115.448 35.3305 115.251 35.2271C115.365 35.8165 115.21 36.4886 114.9 37.109L110.112 46.7566C109.802 47.377 109.367 47.9044 108.819 48.1732C109.026 48.2766 111.622 49.5588 111.818 49.6622C111.704 49.0728 111.86 48.4007 112.17 47.7803L116.957 38.1224V38.1327Z" fill="#1D1933"/>
<path d="M43.5408 54.5531C42.9824 54.1395 42.5378 53.6225 42.362 53.0435C42.2275 53.2296 40.5213 55.5562 40.3766 55.7423C40.9763 55.7423 41.6175 56.0008 42.1758 56.4144L50.8721 62.7841C51.4305 63.1977 51.8751 63.7147 52.0509 64.2938C52.1853 64.1077 53.9018 61.7707 54.0362 61.5846C53.4261 61.5846 52.7954 61.3261 52.237 60.9125L43.5408 54.5428V54.5531Z" fill="#1D1933"/>
<path d="M139.551 59.0202C140.13 58.6376 140.771 58.3998 141.381 58.4411C141.257 58.2447 139.665 55.8354 139.541 55.6389C139.334 56.2076 138.869 56.704 138.289 57.0866L129.283 63.0116C128.704 63.3942 128.063 63.632 127.453 63.5907C127.577 63.7871 129.169 66.1964 129.293 66.3929C129.5 65.8242 129.965 65.3175 130.545 64.9452L139.551 59.0202Z" fill="#1D1933"/>
<path d="M122.169 42.8168C122.665 42.1344 123.554 41.9586 124.495 42.641C125.654 43.489 125.84 44.8332 125.716 45.9396C125.953 45.6087 127.143 43.9749 127.504 43.4683C126.905 42.3722 126.357 41.7414 125.581 41.1831C124.661 40.5109 123.71 40.2111 122.675 40.2628C121.61 40.3352 120.752 40.8315 120.049 41.8035C117.785 44.9366 121.29 48.9383 119.842 50.9444C119.025 52.0715 117.712 51.5027 117.298 51.2029C116.44 50.5824 115.872 49.0934 116.006 47.8319C115.644 48.3282 114.62 49.7966 114.217 50.355C114.517 51.1098 115.251 51.9784 116.213 52.6712C117.205 53.395 118.239 53.7259 119.284 53.6742C120.318 53.6225 121.197 53.1158 121.879 52.1749C124.185 48.9797 120.494 45.1537 122.179 42.8272" fill="#1D1933"/>
<path d="M135.291 50.3447C135.322 50.6653 135.394 50.9548 134.815 51.3477C134.236 51.7407 126.47 56.3111 126.47 56.3111C126.47 56.3111 131.713 48.9798 132.158 48.4421C132.602 47.9044 132.871 48.0078 133.192 48.0698C133.088 47.9561 130.917 45.5778 130.762 45.4124C130.844 46.0638 130.741 46.4878 130.327 47.2116C130.327 47.2116 123.741 57.0866 123.348 57.4382C122.955 57.8001 122.665 57.8311 122.51 57.8208C122.676 57.9966 123.554 58.9686 123.554 58.9686C123.554 58.9686 124.444 59.9406 124.609 60.1164C124.609 59.9613 124.682 59.6717 125.064 59.3202C125.457 58.9583 135.88 53.2917 135.88 53.2917C136.635 52.9401 137.069 52.8781 137.71 53.0125C137.555 52.8471 135.384 50.4688 135.28 50.355" fill="#1D1933"/>
<path d="M137.586 89.9896V88.8728H143.418V90.6721C143.418 91.2305 143.232 91.7578 142.943 92.1404H145.621C145.331 91.7578 145.145 91.2201 145.145 90.6721V88.8728H148.351C148.351 88.8728 148.371 88.8728 148.392 88.8728V89.7414C148.392 91.3442 148.526 92.3162 147.389 92.8125H150.202V86.0499C149.726 86.4118 149.054 86.5773 148.361 86.5773H137.586C136.894 86.5773 136.221 86.4222 135.746 86.0499V93.0607H139.055C137.576 92.5023 137.617 91.0857 137.617 89.9896" fill="#1D1933"/>
<path d="M41.6898 85.7087C39.9319 86.3704 38.0292 86.9495 37.3468 88.0973C36.6126 85.688 34.8858 85.3571 33.6863 85.3571C32.1973 85.3571 29.757 86.4325 29.757 90.2171V93.5673C30.243 93.2054 30.9047 93.04 31.5975 93.04H42.3723C43.0651 93.04 43.7371 93.1951 44.2128 93.5673V90.2171C43.7268 90.579 43.0651 90.7444 42.3723 90.7444H37.7294C38.143 88.3765 42.5066 88.6246 44.2128 87.1977V84.199C43.8612 84.9642 43.4476 85.0469 41.6794 85.6983M36.1577 90.7341H31.5872C31.5355 90.7341 31.4838 90.7341 31.4321 90.7341C31.246 89.1417 31.825 87.5699 33.676 87.5699C35.7751 87.5699 36.2714 89.2037 36.1577 90.7341Z" fill="#1D1933"/>
<path d="M46.0637 77.0022C46.1051 76.8574 46.9117 73.7449 46.9634 73.5175C46.4671 73.9414 46.0534 74.0862 45.2159 74.1379C45.2159 74.1379 33.3451 74.0035 32.8384 73.869C32.3317 73.7346 32.1456 73.5174 32.0629 73.3727C32.0008 73.6105 31.3494 76.1439 31.2874 76.3817C31.4218 76.299 31.6906 76.1956 32.2077 76.33C32.7143 76.4644 43.1581 82.1103 43.1581 82.1103C43.8612 82.5549 44.1508 82.8858 44.3886 83.4959C44.4506 83.2788 45.2572 80.156 45.2882 80.0112C45.0297 80.2077 44.8436 80.4352 44.1921 80.1663C44.0163 80.0939 43.2925 79.7424 42.3309 79.2667L43.1167 76.2266C44.1818 76.2783 44.9883 76.33 45.1745 76.3507C45.8673 76.4231 45.9293 76.7126 46.0534 77.0125M40.4903 78.3671C38.1017 77.1883 35.4545 75.8647 35.4442 75.8647C35.4545 75.8647 38.4119 75.9991 41.0694 76.1232L40.4903 78.3671Z" fill="#1D1933"/>
<path d="M36.4782 61.7915C35.7234 63.3425 35.7234 64.8729 36.4782 66.3516C37.2331 67.8302 38.598 69.0401 40.6557 70.0327C42.6928 71.0254 44.5437 71.3873 46.1465 71.1185C47.7699 70.8703 48.9487 70.0121 49.6519 68.5644C49.9207 68.006 50.1482 67.0961 50.1999 66.2689C49.6415 65.9897 48.0284 65.2141 47.4287 64.9246C48.2559 65.9069 48.3903 66.8583 48.0181 67.6338C47.6458 68.399 46.922 68.8333 45.8052 68.9367C44.6781 69.0401 43.3132 68.7092 41.7518 67.9543C40.2214 67.2098 39.084 66.3619 38.3808 65.4209C37.7191 64.5213 37.5847 63.6527 37.9776 62.8255C38.3705 62.019 39.1254 61.5536 40.4593 61.5433C40.0663 61.3468 38.2257 60.4576 37.6777 60.1887C37.2227 60.5817 36.7678 61.1917 36.4782 61.7811" fill="#1D1933"/>
<path d="M53.6019 44.1094C53.1262 43.6027 52.7953 43.0029 52.7229 42.4032L50.4067 44.5644C51.0064 44.6678 51.5752 45.0504 52.0405 45.557L57.2314 51.1098L48.7316 47.0047C48.5247 46.9013 48.38 46.7048 48.3593 46.4773L45.9294 48.7418C46.5291 48.8453 47.0978 49.2279 47.5734 49.7345L54.9254 57.6139C55.4011 58.1206 55.7424 58.7203 55.8044 59.3201L58.1206 57.1589C57.5312 57.0555 56.9521 56.6729 56.4868 56.1662L50.9754 50.2619L59.62 54.4704C59.9199 54.6152 60.1473 54.9047 60.1783 55.2356L62.6083 52.9814C62.0086 52.878 61.4399 52.4954 60.9642 51.9887L53.6122 44.1094H53.6019Z" fill="#1D1933"/>
<path d="M65.2658 43.427C65.8655 43.5718 66.4446 44.0681 66.7548 44.6575C66.7548 44.6575 67.5407 46.1465 68.2232 47.4391C68.0164 47.6872 67.7475 47.8837 67.4373 48.0388C66.6824 48.4421 65.8448 48.3594 64.8935 47.7803C63.9215 47.2012 63.022 46.1258 62.2051 44.5851C61.4089 43.0858 60.9642 41.7208 60.9849 40.5524C61.0469 37.8639 63.9629 36.9953 65.8345 38.4843C65.6277 38.0914 64.6867 36.3128 64.3972 35.7648C63.2391 35.7234 62.174 36.1887 61.595 36.4989C60.0749 37.3055 59.165 38.536 58.8961 40.1698C58.6273 41.8036 59.0099 43.5821 60.0853 45.6088C61.14 47.6148 62.4118 49.0005 63.8595 49.7346C65.3175 50.4895 66.7755 50.4998 68.1921 49.745C68.8746 49.383 69.8259 48.4731 70.2395 48.2456C70.6531 48.0285 71.0047 48.2456 71.0047 48.2456L68.5851 43.6648C68.2748 43.0754 68.1404 42.3413 68.3369 41.7829L65.2658 43.4063V43.427Z" fill="#1D1933"/>
</svg>
