<svg width="180" height="180" viewBox="0 0 180 180" fill="none" xmlns="http://www.w3.org/2000/svg">
<g clip-path="url(#clip0_11707_708)">
<path d="M37.0154 168H142.985V12H37.0154V168Z" fill="#015DAA"/>
<path d="M105.414 42.6012V69.8469C90.1204 58.8508 76.33 69.3089 76.33 69.3089V42.6012H41.2926V53.9006C41.2926 53.9006 46.6874 53.1669 46.8801 57.1682V105.071C47.6941 121.8 55.9308 130.164 55.9308 130.164C63.9701 138.48 76.6431 143.86 90.8574 143.86C105.452 143.86 118.385 138.22 126.386 129.543C126.386 129.543 133.703 121.301 134.315 108.196V59.022C134.724 54.3458 138.717 53.93 138.717 53.93V42.6012H105.414ZM125.114 34.7504L127.041 33.5715C128.399 36.1151 129.971 37.3869 131.757 37.3869C132.505 37.3906 133.243 37.2075 133.905 36.8537C134.54 36.5185 135.07 36.0104 135.437 35.3863C135.781 34.8023 135.962 34.1345 135.962 33.4541C135.946 32.6326 135.677 31.8368 135.191 31.1796C134.481 30.1556 133.183 28.9213 131.294 27.4767C129.406 26.0321 128.226 24.9804 127.754 24.3217C126.978 23.3128 126.554 22.0703 126.55 20.79C126.538 19.8272 126.783 18.8791 127.258 18.0459C127.729 17.2168 128.42 16.5388 129.252 16.0893C130.114 15.609 131.082 15.3598 132.065 15.3653C133.119 15.3605 134.155 15.6426 135.066 16.1822C136.246 16.953 137.257 17.964 138.033 19.1514L136.179 20.5797C135.585 19.6949 134.842 18.9246 133.982 18.3051C133.391 17.9423 132.712 17.7527 132.022 17.7573C131.187 17.7258 130.375 18.0319 129.763 18.6084C129.482 18.8753 129.26 19.1992 129.11 19.559C128.961 19.9189 128.888 20.3066 128.896 20.6971C128.895 21.2028 129 21.703 129.204 22.1645C129.488 22.7407 129.872 23.2608 130.336 23.7005C130.631 23.9939 131.611 24.7635 133.274 26.0092C135.243 27.4865 136.593 28.8007 137.325 29.9518C138.016 30.9743 138.398 32.1798 138.423 33.4199C138.427 34.2404 138.261 35.0527 137.937 35.8043C137.613 36.5558 137.137 37.2299 136.54 37.7831C135.941 38.3873 135.229 38.8629 134.445 39.1814C133.661 39.4999 132.822 39.6548 131.978 39.637C130.645 39.6506 129.338 39.2625 128.221 38.5217C127.094 37.7684 126.059 36.5129 125.114 34.7553V34.7504ZM110.664 15.9572H123.693V18.2366H112.928V25.4565H123.597V27.7164H112.928V36.7755H123.597V39.05H110.654L110.664 15.9572ZM94.0847 18.2171V26.0435L97.9959 26.0728C99.1366 26.1302 100.278 25.9812 101.368 25.6326C102.068 25.3648 102.665 24.8741 103.068 24.2336C103.478 23.5884 103.693 22.8348 103.685 22.0667C103.693 21.3184 103.478 20.5851 103.068 19.9633C102.682 19.3465 102.114 18.869 101.445 18.5986C100.363 18.2703 99.234 18.133 98.1067 18.1926L94.0847 18.2171ZM91.8111 15.9572H96.3389C98.0564 15.8985 99.7754 16.0034 101.474 16.2703C102.766 16.547 103.928 17.261 104.768 18.2953C105.629 19.3633 106.079 20.7119 106.035 22.0911C106.059 23.2579 105.753 24.4071 105.154 25.4027C104.563 26.3678 103.693 27.1245 102.663 27.5696C101.235 28.1144 99.7138 28.3671 98.1886 28.3131L106.377 39.0745H103.535L95.3756 28.3131H94.075V39.0745H91.8015L91.8111 15.9572ZM86.1466 19.8264L84.3836 21.5237C83.1843 20.3054 81.7668 19.3308 80.2075 18.6524C78.8215 18.0234 77.3229 17.6905 75.8049 17.6741C74.031 17.6781 72.2867 18.1357 70.7328 19.0046C69.1805 19.8399 67.8854 21.0942 66.9902 22.6292C66.1216 24.0816 65.6618 25.7481 65.6608 27.4473C65.6612 29.196 66.1326 30.9112 67.0239 32.4073C67.9398 33.9641 69.2551 35.239 70.8292 36.0955C72.4565 36.9865 74.279 37.4458 76.1277 37.4309C78.2777 37.4954 80.3806 36.783 82.0619 35.4205C83.6593 34.1327 84.6967 32.261 84.952 30.2062H77.7076V27.9854H87.5097C87.4905 31.5562 86.4452 34.3917 84.374 36.4917C82.3028 38.5918 79.5412 39.6386 76.0891 39.6321C71.8825 39.6321 68.554 38.1777 66.1039 35.2689C64.2476 33.1214 63.2373 30.3536 63.2668 27.4963C63.2567 25.3501 63.8175 23.2409 64.8901 21.3917C65.9471 19.5368 67.4871 18.0136 69.3408 16.9893C71.3014 15.8984 73.507 15.3423 75.7423 15.3751C77.6085 15.3641 79.4583 15.7282 81.1853 16.4463C83.032 17.2493 84.7146 18.3956 86.1466 19.8264ZM56.8701 15.9572H59.1436V39.05H56.8701V15.9572ZM41.5864 18.2024V15.9572H54.0619V18.2024H48.9898V39.05H46.6489V18.2024H41.5864ZM111.17 146.282H112.899V162.037H119.498V163.72H111.17V146.282ZM93.6126 163.72V146.282H93.9835L105.414 159.631V146.282H107.104V163.72H106.719L95.3948 150.537V163.72H93.6126ZM82.7218 149.98L79.7691 156.299H85.6408L82.7218 149.98ZM82.9338 146.282L90.9634 163.72H89.1185L86.4211 157.982H78.9985L76.3155 163.72H74.3888L82.5003 146.282H82.9338ZM60.2949 146.282H62.0096V156.789C61.9912 157.567 62.0137 158.346 62.0771 159.122C62.1397 159.739 62.3443 160.332 62.6743 160.853C63.0479 161.362 63.5461 161.761 64.1194 162.013C64.7199 162.31 65.3779 162.469 66.0461 162.477C66.6103 162.478 67.1677 162.353 67.679 162.111C68.1853 161.876 68.6319 161.526 68.9843 161.088C69.3492 160.625 69.612 160.088 69.755 159.513C69.9062 158.614 69.9643 157.7 69.9284 156.789V146.282H71.6432V156.789C71.6801 158.065 71.5274 159.34 71.1904 160.57C70.8626 161.574 70.2345 162.449 69.3938 163.074C68.4605 163.798 67.3112 164.174 66.1376 164.141C64.8765 164.182 63.6324 163.836 62.5684 163.148C61.6163 162.526 60.9129 161.581 60.5839 160.482C60.3193 159.277 60.2125 158.042 60.266 156.808L60.2949 146.282Z" fill="#FBAF35"/>
<path d="M95.8813 122.734C95.8813 122.734 93.4103 124.725 91.3439 124.666C91.3439 124.666 89.6388 125.268 86.845 123.16C86.845 123.16 84.5282 121.609 84.4655 123.742C84.4621 124.109 84.5606 124.47 84.7497 124.783C84.9388 125.096 85.2109 125.349 85.5349 125.512C85.5349 125.512 89.8122 128.77 90.4095 130.404C90.4095 130.404 90.8911 131.612 91.8545 130.404C91.8545 130.404 94.0558 127.024 96.4931 126.001C96.4931 126.001 97.7406 125.219 97.625 123.067C97.625 123.067 97.625 122.039 95.9006 122.763M89.369 75.2667C90.6214 76.0836 89.2438 77.463 88.7717 78.3044C88.7717 79.3169 89.7351 79.3414 89.6677 80.4322C88.3864 83.0883 85.9347 85.8128 81.8837 84.6878V83.1665C79.8318 84.634 76.7249 85.0253 75.5978 87.4221C76.2192 89.6282 77.5823 91.081 78.589 92.8957C74.2539 93.6588 70.0633 89.3787 71.7058 84.9911C72.3706 84.8248 72.1297 85.5732 72.6018 85.5976C75.5496 83.1959 78.4397 80.7844 83.0638 80.1044C83.4733 81.0827 83.1313 81.1219 83.0638 82.2323C85.1254 82.5551 84.191 80.3588 84.2632 80.1044C85.2988 77.8152 87.529 76.7342 89.3498 75.2423M77.958 96.2171C76.9947 95.948 77.3367 97.0046 76.7587 97.1269C76.3541 96.5204 76.1903 95.6594 75.8627 94.9991H74.6826C72.5006 98.6775 80.2123 99.7928 77.9773 96.2171M88.1552 67.3572C88.3045 68.1007 88.1552 71.5003 88.1552 73.4373C84.2054 70.7176 81.4117 75.4966 77.38 74.3471C74.0083 77.6832 68.0258 81.3616 68.9988 87.114C69.2686 88.6059 67.7464 88.2733 67.7994 89.5597C67.703 90.3146 67.7597 91.0816 67.9659 91.8134C68.1722 92.5453 68.5237 93.2266 68.9988 93.8153C69.3456 93.7664 69.5335 93.8838 69.5961 94.1186C76.3396 92.9349 78.0062 95.3757 80.6747 99.2841C82.534 102.009 84.9713 104.929 81.8741 109.317C80.169 106.289 80.8096 102.468 78.2808 100.512C77.2548 99.7145 75.5496 99.9493 74.3888 99.2938C72.5632 98.2666 72.202 95.6594 69.8995 95.948C69.9766 98.8096 73.8686 100.424 76.4841 101.725C75.8146 102.87 74.5574 103.408 72.5921 103.246C71.4313 100.981 69.2204 99.7781 67.5056 98.0759C66.3159 98.384 65.8775 99.4601 65.4103 100.522C65.6367 101.5 67.337 101.011 67.5056 102.043C67.5875 103.139 66.9517 103.51 66.9083 104.489C68.1511 106.67 70.6028 107.629 73.1942 108.441C73.0064 111.288 71.4987 112.794 69.6009 113.915C63.9701 112.936 59.4086 99.1764 66.6097 96.3051C64.7408 94.4512 65.0924 91.4136 66.0124 88.7037C64.3747 88.557 64.3602 90.0636 62.7177 89.9217C63.5028 86.7814 65.4055 84.0225 67.207 81.117C68.6231 78.8229 70.1259 74.714 72.2935 73.2123C73.6277 72.2878 75.2317 72.8406 76.7827 72.3025C78.7528 71.6128 79.6439 69.6219 81.5706 68.6534C83.1602 68.5605 83.56 69.6758 84.8653 69.8714C86.12 69.2993 87.2424 68.4661 88.16 67.4257M120.481 90.7533C123.371 92.9593 127.224 98.9221 123.775 102.914C125.606 108.558 122.682 112.374 121.367 116.61C119.835 117.182 117.369 116.805 115.38 116.913C114.455 118.738 112.971 119.652 114.484 121.775C113.448 122.426 112.726 124.739 111.493 124.221C110.529 119.124 108.121 115.485 105.804 111.757C108.516 113.059 110.707 114.888 112.991 116.62C113.877 115.798 114.33 114.536 115.086 113.582C123.612 114.149 122.239 100.458 120.172 94.735C120.707 93.1795 121.391 92.4946 120.471 90.7826M130.649 69.2013H131.545C131.063 74.714 128.549 78.1185 124.96 80.4517C122.552 79.3707 121.825 76.5385 118.674 76.1961C118.092 80.1093 120.953 83.4013 124.064 86.2286C126.242 88.1852 130.013 89.6184 130.948 92.3088C132.874 97.7677 130.822 105.516 131.545 112.07C124.565 111.126 129.136 99.2694 126.757 93.2235C123.718 85.4313 114.127 81.9485 112.398 72.8112C117.215 71.0014 120.49 75.6336 123.477 77.6734C126.14 75.1053 129.864 73.6232 130.663 69.1621M104.932 97.1122C104.987 96.46 104.688 96.1567 104.036 96.2024C101.898 99.3281 108.723 99.2351 107.629 95.2926C107.413 95.141 107.169 95.0359 106.911 94.9837C106.654 94.9316 106.388 94.9335 106.131 94.9893C105.684 95.6448 105.799 96.8823 104.932 97.1171M93.2562 67.3278C94.7735 67.817 95.4478 69.1573 96.8495 69.7736C97.9863 69.798 98.9882 68.4676 100.144 68.5556C101.893 68.6926 102.49 71.0845 104.335 71.9014C106.18 72.7183 108.434 72.1949 109.725 73.1194C111.512 74.3912 113.381 78.681 114.811 81.0241C116.531 83.7336 118.033 86.5799 119.301 89.5353C118.53 90.8951 117.176 88.4836 116.006 88.3173C116.353 91.4136 117.692 94.2898 115.11 95.9187C122.465 98.8536 118.092 112.183 112.702 113.856C110.231 113.122 109.2 110.921 108.511 108.382C111.401 107.996 112.976 106.23 115.096 105.036C115.187 103.828 114.402 103.51 114.498 102.302C114.378 100.967 116.112 101.51 116.295 100.478C116.131 99.2254 115.332 98.6384 114.498 98.0318C113.053 99.7292 110.332 100.086 110.009 102.894C108.323 103.545 105.712 103.178 105.52 101.373C107.002 101.052 108.392 100.393 109.585 99.4442C110.777 98.4956 111.741 97.2832 112.403 95.8991C109.956 95.2828 109.335 98.3058 107.615 99.2449C106.652 99.7585 105.25 99.5824 104.32 100.155C101.556 101.862 101.401 105.354 100.428 108.959C97.5383 106.954 97.9044 100.644 101.324 99.5335C101.955 94.3974 107.104 93.8398 112.702 93.7566C113.756 93.0082 114.06 91.487 114.2 89.8043C114.137 88.5472 113.034 88.3369 112.702 87.3586C112.388 86.0232 113.713 86.3803 113.598 85.2308C111.521 80.7501 108.232 77.5071 104.927 74.2884C100.395 75.4624 98.2271 70.9671 93.55 73.0705C93.603 71.0698 94.3448 68.717 93.2514 67.2936M61.2197 90.3962C61.3835 91.6875 60.6417 93.2626 61.817 94.6518C59.6542 100.184 58.2766 114.409 66.8794 113.543C67.4334 114.599 68.0499 115.597 68.6761 116.58C71.2723 115.059 73.252 112.922 76.1614 111.718C73.5025 115.201 71.5951 119.447 70.1741 124.182C68.4015 123.947 66.5133 121.1 68.3774 119.926C67.9728 118.718 66.8168 118.268 66.5808 116.889C64.4421 116.727 61.5472 117.339 60.2949 116.282C59.3893 112.369 56.138 108.558 58.1996 103.515C54.6496 98.9857 58.6812 93.3555 61.1908 90.4451M50.4156 69.167H51.3115C51.6487 73.8922 55.9886 74.5477 57.8961 77.6783C61.5809 75.9858 63.9026 71.4318 69.2878 72.503C69.3456 81.4839 56.4848 85.9156 54.6207 94.0844C53.2045 100.297 56.9954 110.716 50.1314 112.022C51.3019 105.902 48.908 98.1737 50.7287 92.568C51.509 90.1712 54.139 89.2418 56.4173 87.3977C59.8325 84.634 62.92 80.5251 63.9026 76.4554C60.608 75.4771 59.4327 79.1848 57.3181 80.4077C53.2768 78.4511 50.8058 74.8608 50.4349 69.1573M92.0423 75.2374C94.2798 76.2574 96.234 77.8235 97.731 79.7963C97.0952 81.4056 97.3794 81.4056 98.3283 82.5306C99.07 82.2714 98.2416 80.4126 98.9255 80.0849C102.769 80.8679 106.306 82.7697 109.103 85.5585C110.067 85.9351 109.33 84.5802 110.303 84.9519C111.295 89.9021 108.049 92.93 103.42 93.1599C103.863 90.5136 106.493 89.7358 106.112 87.383C105.698 84.8443 102.09 85.1329 100.424 83.1274C99.7733 83.0736 100.289 84.2035 100.125 84.6487C96.0885 85.8666 94.1232 83.0149 92.341 80.9996C93.2465 78.4707 92.4421 77.7125 92.0423 75.2227M73.4832 63.6885C72.3128 72.9824 64.0857 60.7047 60.6128 60.6509C59.4519 60.6509 58.9702 62.0841 57.3181 62.4755C56.2825 62.72 54.9771 62.226 54.3269 62.4755C52.2171 63.2777 52.5446 65.4935 51.0322 66.4278C50.0688 54.7762 66.1425 60.1911 70.492 64.3C71.4554 64.1288 72.5006 62.9157 73.4832 63.6934M130.659 66.4278C129.406 65.3663 129.372 63.0722 127.667 62.4755C124.021 63.7766 124.026 60.6314 121.381 60.6509C118.52 60.6509 109.412 72.9531 108.511 63.3853C109.686 63.3853 110.38 63.9233 111.204 64.2951C115.611 60.602 131.819 54.3751 130.663 66.4229" fill="#005DAB"/>
<path d="M103.42 93.1991C103.42 93.1991 99.7203 96.0166 101.324 99.5825C101.324 99.5825 101.58 95.5519 106.892 94.2948C108.816 94.0023 110.757 93.8389 112.702 93.8056C112.702 93.8056 114.118 93.5072 114.2 89.8533C114.2 89.8533 114.725 89.1929 112.913 87.838C112.766 87.5822 112.708 87.2831 112.75 86.9897C112.792 86.6964 112.931 86.4263 113.145 86.2238C113.145 86.2238 114.436 85.9009 113.289 84.6438C113.289 84.6438 112.677 81.885 107.832 80.7697C107.832 80.7697 102.052 78.8131 102.923 80.5447C103.113 80.986 103.377 81.39 103.704 81.7383C105.477 82.8424 107.19 84.0443 108.834 85.3384C108.834 85.3384 109.532 86.4684 109.734 85.1819C109.734 85.1819 110.288 84.5362 110.38 85.3971C110.38 85.3971 110.953 89.3103 107.851 91.8294C107.851 91.8294 104.046 93.3507 103.424 93.1893M112.403 95.9236C111.765 95.8242 111.113 95.9367 110.544 96.2443C109.974 96.552 109.518 97.0383 109.243 97.6308C109.243 97.6308 108.13 99.4993 106.266 99.651C106.266 99.651 102.61 98.9221 101.382 104.968C101.382 104.968 103.029 102.067 105.664 101.94L105.515 101.392C105.515 101.392 111.088 100.766 112.398 95.9187M69.8899 95.9187C69.8899 95.9187 71.1856 94.9698 73.5843 98.6482C74.4054 99.4064 75.4707 99.8343 76.5804 99.8515C76.5804 99.8515 79.1044 99.4064 80.1111 103.466C80.1111 103.466 77.4474 103.197 76.4744 101.691C76.4744 101.691 72.8329 100.316 71.0603 98.4036C71.0603 98.4036 69.6586 97.4253 69.8899 95.9139M79.2633 81.1611C79.2633 81.1611 80.1785 79.0822 77.9339 79.6936C77.9339 79.6936 69.0999 81.1611 69.0132 84.5362C68.8586 85.3011 68.839 86.0878 68.9554 86.8597C69.055 87.1754 69.0426 87.5166 68.9203 87.824C68.798 88.1314 68.5735 88.3855 68.2859 88.5424C68.2859 88.5424 67.4959 88.8163 67.8042 90.9881C67.8782 92.0324 68.2955 93.0212 68.9891 93.7958C69.1078 93.77 69.2316 93.786 69.3401 93.8411C69.4487 93.8962 69.5355 93.9872 69.5864 94.0991C69.7502 94.4953 69.6394 93.9719 69.6394 93.9719L69.9284 94.2507C69.9284 94.2507 74.0516 92.8126 77.3896 95.278C78.5505 96.5497 79.6454 97.882 80.6698 99.2694C80.6698 99.2694 82.8904 95.6155 78.3867 93.6833C78.3867 93.6833 74.7885 92.7637 74.2876 92.0251C74.2876 92.0251 71.5372 90.6457 71.3253 86.7276L71.6865 84.9862C71.6865 84.9862 71.9803 84.8542 72.226 85.2602C72.226 85.2602 72.226 85.4509 72.5824 85.5928C72.5824 85.5928 76.3684 82.3644 79.2633 81.1904M63.1078 100.566C63.1551 100.008 63.0123 99.4498 62.7032 98.9857C62.7032 98.9857 63.05 96.0508 61.1522 96.7014C61.1522 96.7014 59.8998 100.967 60.1888 104.239C60.1888 104.239 58.975 113.944 66.9083 113.533C67.4393 114.585 68.0396 115.6 68.7049 116.571C69.2685 117.226 71.8696 114.365 71.8696 114.365C71.2254 114.426 70.5761 114.335 69.9726 114.098C69.3691 113.861 68.828 113.485 68.3918 113L67.1395 112.584C67.1395 112.584 62.9778 108.725 63.1174 100.556M110.23 114.472C111.069 115.285 111.998 115.994 113 116.585C113 116.585 113.886 116.233 115.095 113.548C115.095 113.548 120.827 114.692 121.637 106.24C121.637 106.24 122.234 100.199 120.741 96.5008C120.451 96.5429 120.188 96.692 120 96.9195C119.813 97.147 119.714 97.4369 119.724 97.7335C119.724 97.7335 119.724 99.6021 119.286 100.228C119.113 100.922 119.013 101.631 118.987 102.346C118.987 102.346 118.756 110.794 112.726 113.856C112.726 113.856 112.08 114.242 111.94 113.548L111.396 114.233L110.23 114.472ZM106.112 94.9991C106.369 94.9433 106.634 94.9414 106.892 94.9936C107.15 95.0457 107.394 95.1508 107.61 95.3024C108.704 99.245 101.878 99.3428 104.017 96.2122C104.659 96.1568 104.958 96.4601 104.913 97.1221C105.775 96.8873 105.659 95.6546 106.112 94.9943M74.6826 94.9943H75.8819C76.2095 95.6742 76.3636 96.5155 76.7779 97.1221C77.3559 96.9998 77.0139 95.9432 77.9773 96.2122C80.2171 99.7928 72.5006 98.658 74.6826 94.9943Z" fill="white"/>
</g>
<defs>
<clipPath id="clip0_11707_708">
<rect width="106" height="156" fill="white" transform="translate(37 12)"/>
</clipPath>
</defs>
</svg>
