<svg width="180" height="180" viewBox="0 0 180 180" fill="none" xmlns="http://www.w3.org/2000/svg">
<path d="M150.53 72.3C147.22 64.48 142.48 57.45 136.45 51.42C133.9 48.87 131.17 46.55 128.28 44.47L141.71 28.45H104.83L89.9899 12.55L75.15 28.45H38.27L51.7 44.47C48.81 46.55 46.08 48.86 43.53 51.42C37.49 57.45 32.76 64.48 29.45 72.3C26.02 80.4 24.29 89 24.29 97.88C24.29 106.76 26.03 115.35 29.45 123.46C32.76 131.28 37.5 138.31 43.53 144.34C49.56 150.37 56.59 155.11 64.41 158.42C72.51 161.85 81.1199 163.58 89.9799 163.58C98.8399 163.58 107.45 161.84 115.56 158.42C123.38 155.11 130.41 150.37 136.44 144.34C142.48 138.31 147.21 131.28 150.52 123.46C153.95 115.36 155.68 106.75 155.68 97.88C155.68 89.01 153.94 80.41 150.52 72.3" fill="#000033"/>
<path d="M89.9899 4L85.7299 8.56998L72.6199 22.62H25.77L33.8 32.2L43.3699 43.62C41.9999 44.8 40.68 46.02 39.41 47.3C32.84 53.87 27.69 61.52 24.08 70.04C20.35 78.86 18.45 88.23 18.45 97.89C18.45 107.55 20.35 116.91 24.08 125.74C27.68 134.26 32.84 141.91 39.41 148.48C45.98 155.05 53.63 160.21 62.15 163.81C70.97 167.54 80.3399 169.43 89.9999 169.43C99.6599 169.43 109.02 167.54 117.85 163.81C126.37 160.21 134.02 155.05 140.59 148.48C147.16 141.91 152.31 134.26 155.92 125.74C159.65 116.92 161.55 107.55 161.55 97.89C161.55 88.23 159.66 78.87 155.92 70.04C152.32 61.52 147.16 53.87 140.59 47.3C139.32 46.03 137.99 44.8 136.63 43.62L146.2 32.2L154.23 22.62H107.39L94.28 8.56998L90.02 4H89.9899ZM89.9899 12.55L104.83 28.45H141.71L128.28 44.47C131.17 46.55 133.9 48.86 136.45 51.41C142.49 57.44 147.22 64.47 150.53 72.29C153.96 80.39 155.69 89 155.69 97.87C155.69 106.74 153.95 115.35 150.53 123.45C147.22 131.27 142.48 138.3 136.45 144.34C130.42 150.37 123.39 155.11 115.57 158.42C107.47 161.85 98.8599 163.59 89.9899 163.59C81.1199 163.59 72.52 161.85 64.41 158.42C56.59 155.11 49.56 150.37 43.53 144.34C37.5 138.31 32.76 131.28 29.45 123.45C26.02 115.35 24.29 106.75 24.29 97.87C24.29 88.99 26.03 80.4 29.45 72.29C32.76 64.47 37.5 57.44 43.53 51.41C46.08 48.86 48.81 46.54 51.7 44.47L38.27 28.45H75.15" fill="#000033"/>
<path d="M89.9899 9.27002L88.35 11.03L74.18 26.22H33.47L36.56 29.9L48.47 44.1C46.18 45.87 44 47.79 41.96 49.83C35.72 56.07 30.82 63.34 27.4 71.43C23.86 79.81 22.06 88.71 22.06 97.88C22.06 107.05 23.86 115.95 27.4 124.33C30.82 132.42 35.72 139.69 41.96 145.93C48.2 152.17 55.47 157.07 63.56 160.49C71.94 164.03 80.84 165.83 90.0099 165.83C99.1799 165.83 108.08 164.03 116.46 160.49C124.55 157.07 131.82 152.17 138.06 145.93C144.3 139.69 149.2 132.43 152.62 124.33C156.16 115.95 157.96 107.05 157.96 97.88C157.96 88.71 156.16 79.81 152.62 71.43C149.2 63.34 144.3 56.07 138.06 49.83C136.02 47.79 133.83 45.87 131.55 44.1L143.46 29.9L146.55 26.22H105.84L91.67 11.03L90.03 9.27002H89.9899ZM89.9899 12.56L104.83 28.46H141.71L128.28 44.48C131.17 46.56 133.9 48.87 136.45 51.42C142.49 57.45 147.22 64.48 150.53 72.3C153.96 80.4 155.69 89.01 155.69 97.88C155.69 106.75 153.95 115.36 150.53 123.46C147.22 131.28 142.48 138.31 136.45 144.35C130.42 150.38 123.39 155.12 115.57 158.43C107.47 161.86 98.8599 163.6 89.9899 163.6C81.1199 163.6 72.52 161.86 64.41 158.43C56.59 155.12 49.56 150.38 43.53 144.35C37.5 138.32 32.76 131.29 29.45 123.46C26.02 115.36 24.29 106.76 24.29 97.88C24.29 89 26.03 80.41 29.45 72.3C32.76 64.48 37.5 57.45 43.53 51.42C46.08 48.87 48.81 46.55 51.7 44.48L38.27 28.46H75.15" fill="#AD1229"/>
<path d="M147.31 97.52C147.31 105.26 145.79 112.77 142.8 119.85C142.27 121.11 141.71 122.32 141.13 123.46L138.28 122C138.83 120.94 139.36 119.8 139.85 118.61C142.68 111.93 144.11 104.84 144.11 97.53C144.11 90.22 142.68 83.1099 139.85 76.4399C139.02 74.4699 138.07 72.5499 137.02 70.7199L138.87 67.5699C140.35 69.9799 141.67 72.55 142.79 75.2C145.79 82.28 147.3 89.8 147.3 97.55" fill="#FCB81A"/>
<path d="M42.96 70.7C41.9 72.54 40.9599 74.46 40.1199 76.42C37.2999 83.1 35.8699 90.19 35.8699 97.51C35.8699 104.83 37.2999 111.91 40.1199 118.59C40.6199 119.77 41.15 120.91 41.7 121.98L38.85 123.44C38.27 122.31 37.71 121.1 37.18 119.84C34.19 112.77 32.67 105.25 32.67 97.51C32.67 89.77 34.18 82.25 37.18 75.17C38.3 72.52 39.6199 69.96 41.1099 67.54" fill="#FCB81A"/>
<path d="M71.16 106.44C73.47 103.67 77.96 98.5599 78.19 94.4199C78.27 92.9299 77.92 90.9 76.66 89.99C76.66 89.99 74.02 89.74 73.01 89.31C71.9 88.85 71.08 88.04 70.29 87.18C69.8 86.64 69.34 86.07 68.79 85.61C68.05 85 67.2299 84.73 66.6299 84.53C66.2899 84.42 60.43 83.7699 58.9 80.4699C58.69 80.0299 58.08 80.0099 57.85 80.4399C56.63 82.7499 54.82 86.18 54.69 89.71C54.63 91.58 55.88 95.54 56.93 97.08C57.05 97.26 57.18 97.4499 57.31 97.6399C58.28 96.6199 59.43 95.74 60.79 95.02C62.24 94.26 63.73 93.7299 65.28 93.4399C65.62 93.3699 65.7999 93.86 65.4999 94.03C62.6899 95.66 60.3599 98.44 59.7499 101.55C62.1599 105.62 64.29 109.72 64.91 110.44C66.24 112.01 69.84 108.01 71.15 106.43" fill="#FCB81A"/>
<path d="M121.08 80.4699C119.55 83.7599 113.69 84.42 113.35 84.53C112.76 84.72 111.93 84.99 111.19 85.61C110.63 86.07 110.18 86.65 109.69 87.18C108.9 88.04 108.08 88.8499 106.97 89.3199C105.96 89.7399 103.32 89.99 103.32 89.99C102.05 90.9 101.71 92.9299 101.79 94.4199C102.02 98.5599 106.51 103.66 108.82 106.44C110.14 108.02 113.74 112.02 115.06 110.45C115.67 109.73 117.81 105.63 120.22 101.56C119.61 98.45 117.28 95.6699 114.47 94.0399C114.17 93.8699 114.35 93.3799 114.69 93.4499C116.24 93.7399 117.73 94.27 119.18 95.03C120.54 95.74 121.69 96.63 122.66 97.65C122.78 97.46 122.91 97.27 123.04 97.09C124.09 95.55 125.35 91.5899 125.28 89.7199C125.16 86.1899 123.34 82.7599 122.12 80.4499C121.89 80.0199 121.28 80.0399 121.07 80.4799" fill="#FCB81A"/>
<path d="M89.99 113.16C88 113.13 86.39 111.51 86.39 109.52L88.6001 90.58L89.4501 74.36C89.4701 74.07 89.71 73.85 89.99 73.83C90.27 73.85 90.51 74.07 90.53 74.36L91.38 90.58L93.5901 109.52C93.5901 111.51 91.98 113.14 89.99 113.16ZM112.45 49.92C110.17 50.9 108.06 52.28 105.83 53.37C105.81 53.37 105.79 53.37 105.77 53.37C100.73 51.74 95.46 50.9 90.04 50.87C90.04 50.87 90.01 50.87 89.99 50.87C89.97 50.87 89.96 50.87 89.94 50.87C84.52 50.9 79.2501 51.74 74.2101 53.37C74.1901 53.37 74.17 53.37 74.15 53.37C71.92 52.28 69.81 50.91 67.53 49.92C52.4 43.43 45.23 54.32 45.25 60.68C45.25 68.43 50.24 73.37 56.41 74.99C56.74 75.08 57.08 74.88 57.18 74.56C59.48 66.88 50.99 68.82 50.79 61.15C50.61 53.4 59.9501 50.54 67.9501 55.58C69.1201 56.15 70.24 56.89 71.27 57.86C72.47 58.96 73.47 60.19 74.25 61.56C74.43 61.86 74.03 62.19 73.78 61.97C72.43 60.82 70.81 59.93 69.12 59.42C62.79 62.82 59.08 74.91 59.54 77.12C59.92 78.95 66.3001 82.79 68.0901 82.25C68.0901 82.25 71.0701 81.63 73.2201 81.5C74.4301 81.42 75.63 81.42 76.79 81.82C78.1 82.26 79.43 83.17 80.19 84.33C80.37 84.58 80.5 84.85 80.61 85.13C81.04 86.23 81.4601 87.36 81.6001 88.54C81.8501 90.63 81.8301 92.33 81.4601 94.02C80.8201 97.33 78.69 101.37 76.54 104.83C74.39 108.28 72.21 111.15 71.48 112.12C71.23 112.46 70.74 113.17 70.36 113.76C70.05 114.25 69.79 114.77 69.61 115.32C68.67 118.25 70.21 120.29 71.75 121.53C71.84 121.43 71.92 121.33 72.02 121.24C73.17 120.07 74.42 119.11 75.81 118.36C76.12 118.19 76.4301 118.6 76.2001 118.85C74.8901 120.31 73.8701 122.11 73.3401 124C73.3601 124.13 73.36 124.26 73.36 124.39V124.42C73.36 128.28 75.7801 131.71 78.9601 132.67C83.3701 134.01 85.38 132.77 86.68 131.26L89.2101 128.3C89.3501 128.13 89.43 127.92 89.43 127.71V126.5C89.43 126.01 89.24 125.55 88.9 125.21L88.1001 124.41C87.1401 123.45 85.84 122.92 84.49 122.92H84.4701C83.9101 122.92 83.38 122.83 82.88 122.66C80.79 121.98 76.44 117.22 79.38 111.7C79.47 111.52 79.7701 111.63 79.7101 111.83C79.4601 113.54 79.76 115.48 80.81 116.85C81.63 115.88 82.9601 115.24 84.4601 115.24C84.8401 115.24 85.13 115.24 85.68 115.57C86.13 115.84 86.5201 116.2 86.8501 116.62C87.5701 117.53 88.67 118.11 89.92 118.13H89.9701H90.02C91.26 118.11 92.3701 117.53 93.0901 116.62C93.4201 116.21 93.81 115.84 94.26 115.57C94.81 115.24 95.11 115.24 95.48 115.24C96.99 115.24 98.32 115.87 99.13 116.85C100.18 115.49 100.48 113.54 100.23 111.83C100.18 111.63 100.47 111.52 100.56 111.7C103.51 117.22 99.16 121.98 97.07 122.66C96.58 122.82 96.04 122.92 95.48 122.92H95.4601C94.1101 122.92 92.8101 123.46 91.8501 124.41L91.05 125.21C90.71 125.55 90.51 126.02 90.51 126.5V127.71C90.51 127.93 90.59 128.14 90.73 128.3L93.26 131.26C94.56 132.77 96.56 134.01 100.98 132.67C104.16 131.7 106.58 128.28 106.58 124.42V124.39C106.58 124.26 106.58 124.13 106.6 124C106.08 122.11 105.05 120.31 103.74 118.85C103.51 118.6 103.82 118.19 104.13 118.36C105.53 119.11 106.77 120.07 107.92 121.24C108.01 121.33 108.09 121.43 108.19 121.53C109.73 120.29 111.27 118.26 110.33 115.32C110.16 114.77 109.89 114.25 109.58 113.76C109.2 113.16 108.71 112.45 108.46 112.12C107.73 111.15 105.56 108.28 103.4 104.83C101.25 101.37 99.12 97.33 98.48 94.02C98.11 92.33 98.0901 90.63 98.3401 88.54C98.4801 87.36 98.9101 86.23 99.3401 85.13C99.4501 84.85 99.59 84.58 99.76 84.33C100.52 83.18 101.85 82.26 103.16 81.82C104.33 81.42 105.52 81.42 106.73 81.5C108.88 81.63 111.86 82.25 111.86 82.25C113.66 82.79 120.03 78.95 120.41 77.12C120.87 74.91 117.17 62.82 110.83 59.42C109.14 59.93 107.52 60.82 106.17 61.97C105.91 62.19 105.52 61.86 105.69 61.56C106.47 60.19 107.47 58.96 108.67 57.86C109.7 56.89 110.82 56.15 111.99 55.58C120 50.53 129.34 53.4 129.15 61.15C128.96 68.82 120.46 66.89 122.77 74.56C122.87 74.88 123.21 75.08 123.54 74.99C129.7 73.37 134.68 68.42 134.69 60.68C134.7 54.32 127.54 43.42 112.41 49.92" fill="#FCB81A"/>
<path d="M99.13 135.48C98.75 135.52 98.38 135.54 97.99 135.54C97.12 135.54 96.2601 135.4 95.4401 135.15C94.4901 134.85 93.5 134.73 92.51 134.73H87.4601C86.4701 134.73 85.48 134.85 84.53 135.15C83.71 135.4 82.85 135.54 81.98 135.54C81.6 135.54 81.2201 135.52 80.8401 135.48C80.0901 135.4 79.53 136.19 79.87 136.87C81.05 139.28 83.51 140.93 86.37 140.93H93.5901C96.4501 140.93 98.9201 139.28 100.09 136.87C100.43 136.19 99.87 135.4 99.12 135.48" fill="#FCB81A"/>
<path d="M46.08 135.96C45.4 136.04 44.77 135.9 44.19 135.54C43.61 135.18 43.06 134.67 42.55 133.99C41.9 133.15 41.53 132.38 41.41 131.69C41.29 131 41.4099 130.36 41.7599 129.76C42.1099 129.16 42.6499 128.58 43.3699 128.03L47.6399 124.77C47.7999 124.65 47.93 124.65 48.04 124.78L49.57 126.78C49.67 126.91 49.6399 127.03 49.4999 127.14L44.95 130.61C44.42 131.02 44.12 131.41 44.05 131.79C43.98 132.17 44.0899 132.54 44.3599 132.9C44.5299 133.12 44.72 133.29 44.95 133.4C45.18 133.52 45.4499 133.55 45.7499 133.49C46.0599 133.44 46.4 133.26 46.79 132.96L51.28 129.53C51.44 129.41 51.57 129.41 51.67 129.55L52.8799 131.13C52.9799 131.26 52.95 131.38 52.8 131.49L48.3 134.93C47.49 135.55 46.75 135.89 46.07 135.97" fill="#FCB81A"/>
<path d="M53.69 132.47C53.75 132.4 53.82 132.37 53.89 132.36C53.97 132.36 54.05 132.39 54.14 132.46L60.07 137.7C60.16 137.77 60.2 137.85 60.2 137.93C60.2 138.01 60.17 138.08 60.11 138.15L59.07 139.33C58.96 139.45 58.83 139.45 58.68 139.33L56.92 137.78C56.84 137.71 56.7701 137.71 56.7201 137.78L51.91 143.23C51.78 143.38 51.65 143.39 51.53 143.28L49.64 141.61C49.52 141.51 49.52 141.39 49.64 141.25L54.43 135.82C54.51 135.73 54.52 135.65 54.45 135.59L52.7 134.05C52.55 133.92 52.53 133.79 52.64 133.66" fill="#FCB81A"/>
<path d="M61.7201 145.43C61.8301 145.5 61.9101 145.45 61.9601 145.27L62.4601 142.92C62.4601 142.92 62.46 142.84 62.42 142.82C62.39 142.8 62.3601 142.81 62.3201 142.84L60.4601 144.34C60.3001 144.46 60.29 144.57 60.43 144.65L61.7201 145.43ZM55 146.05C55.01 145.95 55.07 145.85 55.19 145.76L62.61 139.71C62.7 139.64 62.7801 139.6 62.8501 139.59C62.9201 139.58 63.0101 139.59 63.1001 139.66L65.3301 141.01C65.5201 141.13 65.6 141.32 65.55 141.56L63.5901 150.91C63.5701 151.01 63.5301 151.09 63.4501 151.16C63.3701 151.24 63.2901 151.25 63.2001 151.2L60.98 149.85C60.85 149.77 60.8101 149.66 60.8501 149.51L61.2001 147.94C61.2001 147.94 61.2001 147.85 61.2001 147.81C61.2001 147.77 61.1601 147.74 61.1001 147.7L58.7001 146.24C58.6101 146.19 58.5301 146.19 58.4601 146.26L57.18 147.32C57.18 147.32 57.08 147.38 57.02 147.39C56.96 147.39 56.88 147.38 56.8 147.33L55.0801 146.29C55.0001 146.24 54.9601 146.16 54.9701 146.06" fill="#FCB81A"/>
<path d="M70.79 150.01C70.65 149.96 70.57 150.01 70.52 150.13L69.43 153.3C69.35 153.54 69.17 153.62 68.89 153.52L66.8 152.8C66.67 152.75 66.59 152.7 66.56 152.63C66.53 152.56 66.5401 152.48 66.5701 152.37L69.56 143.69C69.63 143.5 69.74 143.43 69.9 143.48L72.28 144.3C72.43 144.35 72.48 144.47 72.42 144.64L71.42 147.54C71.36 147.71 71.41 147.82 71.56 147.87L73.66 148.59C73.81 148.64 73.9201 148.59 73.9701 148.42L74.9701 145.52C75.0301 145.35 75.14 145.29 75.29 145.34L77.67 146.16C77.83 146.21 77.87 146.34 77.81 146.53L74.81 155.21C74.78 155.32 74.72 155.39 74.66 155.42C74.6 155.45 74.5 155.45 74.36 155.4L72.27 154.68C71.99 154.58 71.9 154.42 71.98 154.17L73.0701 151C73.1101 150.87 73.07 150.79 72.93 150.74" fill="#FCB81A"/>
<path d="M89.0901 151.19C89.2801 151.02 89.38 150.79 89.39 150.51C89.4 150.18 89.3001 149.92 89.0801 149.73C88.8601 149.55 88.6 149.45 88.3 149.44L87.14 149.4C86.94 149.4 86.8301 149.48 86.8201 149.65L86.77 151.09C86.77 151.27 86.84 151.37 86.98 151.38L88.3 151.43C88.63 151.44 88.9001 151.36 89.0801 151.2M92.11 157.33C92.06 157.41 91.98 157.45 91.87 157.45L89.3 157.35C89.12 157.35 89.0001 157.25 88.9501 157.06L87.8301 153.6C87.7801 153.46 87.65 153.38 87.43 153.37L86.8201 153.35C86.7601 153.35 86.7201 153.36 86.6901 153.4C86.6601 153.44 86.65 153.47 86.65 153.48L86.53 156.85C86.52 157.1 86.3701 157.23 86.0801 157.22L83.86 157.14C83.73 157.14 83.6401 157.1 83.5901 157.05C83.5401 156.99 83.52 156.91 83.53 156.8L83.87 147.62C83.87 147.42 83.97 147.32 84.13 147.33L88.55 147.49C89.83 147.54 90.81 147.82 91.5 148.33C92.19 148.84 92.52 149.55 92.48 150.44C92.47 150.86 92.3801 151.24 92.2101 151.58C92.0501 151.93 91.8301 152.22 91.5601 152.46C91.2901 152.7 90.99 152.88 90.65 153C90.56 153.03 90.5401 153.12 90.5901 153.25L92.12 157.01C92.16 157.13 92.1601 157.22 92.1001 157.31" fill="#FCB81A"/>
<path d="M100.64 153.76C100.81 153.29 100.8 152.53 100.64 151.48C100.46 150.4 100.21 149.65 99.89 149.22C99.57 148.79 99.13 148.62 98.57 148.71C98.01 148.81 97.64 149.11 97.47 149.62C97.3 150.13 97.3099 150.93 97.4899 152.01C97.6599 153.05 97.91 153.77 98.22 154.17C98.53 154.56 98.98 154.71 99.56 154.62C100.12 154.52 100.49 154.24 100.66 153.77M97.31 156.47C96.54 156.18 95.9 155.7 95.39 155.02C94.88 154.34 94.5499 153.5 94.3799 152.5C94.2099 151.49 94.26 150.58 94.53 149.76C94.8 148.95 95.2499 148.27 95.8799 147.74C96.5199 147.21 97.3099 146.86 98.2399 146.71C99.1799 146.55 100.03 146.62 100.8 146.92C101.57 147.22 102.21 147.71 102.72 148.39C103.23 149.07 103.57 149.92 103.74 150.93C103.91 151.93 103.86 152.83 103.6 153.64C103.34 154.44 102.89 155.11 102.26 155.63C101.63 156.16 100.84 156.5 99.89 156.66C98.93 156.82 98.07 156.76 97.3 156.47" fill="#FCB81A"/>
<path d="M111.95 142.77C112 142.81 112.01 142.88 112 142.99L110.85 148.76C110.82 148.86 110.82 148.97 110.85 149.07C110.88 149.17 110.94 149.36 111.04 149.62L112.18 152.67C112.27 152.91 112.18 153.08 111.91 153.18L109.83 153.96C109.71 154.01 109.61 154.01 109.55 153.98C109.49 153.95 109.43 153.88 109.39 153.77L108.17 150.51C108.12 150.38 108.07 150.28 108.01 150.22C107.96 150.16 107.88 150.1 107.79 150.03L103.12 146.38C103.03 146.3 102.98 146.23 103 146.14C103.01 146.06 103.08 146 103.22 145.95L105.71 145.02C105.83 144.97 105.93 144.96 105.99 144.98C106.05 145 106.13 145.05 106.23 145.13L108.79 147.31C108.86 147.37 108.91 147.39 108.94 147.39C108.97 147.39 108.99 147.34 109.01 147.25L109.48 143.92C109.48 143.8 109.52 143.71 109.56 143.65C109.6 143.59 109.69 143.55 109.8 143.5L111.75 142.77C111.86 142.73 111.93 142.73 111.98 142.77" fill="#FCB81A"/>
<path d="M118.9 145.04C119.01 144.97 119 144.88 118.86 144.75L117.02 143.22C117.02 143.22 116.95 143.19 116.92 143.21C116.89 143.23 116.88 143.26 116.89 143.31L117.36 145.65C117.4 145.85 117.48 145.9 117.62 145.82L118.91 145.04H118.9ZM116.32 151.28C116.24 151.22 116.18 151.12 116.15 150.97L114.25 141.58C114.23 141.47 114.24 141.38 114.25 141.31C114.27 141.24 114.33 141.18 114.43 141.12L116.67 139.78C116.87 139.66 117.06 139.68 117.26 139.84L124.62 145.93C124.7 145.99 124.75 146.07 124.78 146.17C124.81 146.28 124.78 146.36 124.7 146.41L122.48 147.74C122.35 147.82 122.23 147.8 122.11 147.7L120.88 146.66C120.88 146.66 120.81 146.61 120.77 146.59C120.73 146.57 120.69 146.59 120.63 146.62L118.22 148.07C118.13 148.12 118.1 148.2 118.13 148.3L118.47 149.92C118.48 149.97 118.47 150.03 118.46 150.09C118.44 150.15 118.39 150.2 118.3 150.25L116.58 151.29C116.5 151.34 116.41 151.34 116.33 151.28" fill="#FCB81A"/>
<path d="M120.97 136.81L122.83 135.12C122.95 135.01 123.07 135.03 123.19 135.16L128.02 140.48C128.1 140.57 128.18 140.58 128.26 140.51L131.21 137.83C131.36 137.69 131.49 137.69 131.6 137.81L132.7 139.01C132.75 139.07 132.78 139.14 132.78 139.22C132.78 139.3 132.74 139.37 132.65 139.45L127.64 144C127.54 144.1 127.45 144.14 127.38 144.13C127.31 144.13 127.23 144.08 127.16 143.99L120.98 137.2C120.84 137.05 120.84 136.92 120.96 136.81" fill="#FCB81A"/>
<path d="M132.15 128.03C131.89 128.13 131.6 128.39 131.28 128.8C130.98 129.19 130.83 129.51 130.82 129.76C130.81 130.01 130.87 130.18 131 130.28C131.06 130.33 131.14 130.36 131.24 130.37C131.34 130.38 131.45 130.36 131.59 130.31C131.73 130.26 131.88 130.16 132.05 130.01L133.83 128.6C134.49 128.06 135.15 127.79 135.8 127.79C136.45 127.79 137.05 128 137.59 128.41C138.11 128.81 138.46 129.29 138.64 129.85C138.82 130.42 138.82 131.03 138.66 131.7C138.49 132.36 138.14 133.04 137.61 133.74C137.22 134.25 136.79 134.7 136.33 135.07C135.86 135.44 135.39 135.72 134.92 135.9C134.45 136.09 134.01 136.16 133.61 136.12C133.5 136.1 133.42 136.07 133.38 136.03C133.34 135.99 133.31 135.91 133.31 135.79L133.39 134.14C133.39 134 133.43 133.89 133.49 133.84C133.55 133.79 133.62 133.76 133.71 133.76C134.02 133.76 134.3 133.72 134.55 133.66C134.79 133.6 135.02 133.49 135.23 133.33C135.44 133.17 135.65 132.96 135.85 132.68C136.14 132.29 136.32 131.94 136.39 131.63C136.46 131.32 136.39 131.09 136.2 130.94C136.12 130.88 136.02 130.84 135.91 130.83C135.8 130.83 135.68 130.85 135.55 130.9C135.42 130.95 135.28 131.04 135.13 131.17L133.53 132.48C133.1 132.82 132.66 133.06 132.2 133.2C131.74 133.34 131.28 133.37 130.84 133.3C130.39 133.23 129.99 133.06 129.62 132.78C129.16 132.43 128.84 131.99 128.66 131.43C128.48 130.88 128.46 130.27 128.61 129.61C128.75 128.95 129.08 128.29 129.58 127.63C129.9 127.21 130.25 126.84 130.64 126.53C131.03 126.22 131.42 125.98 131.81 125.8C132.21 125.63 132.58 125.54 132.94 125.56C133.01 125.56 133.09 125.57 133.15 125.6C133.22 125.62 133.25 125.69 133.26 125.8L133.22 127.58C133.22 127.65 133.2 127.71 133.15 127.74C133.11 127.78 133.02 127.8 132.89 127.83C132.65 127.85 132.4 127.91 132.14 128.01" fill="#FCB81A"/>
<path d="M109.61 33.0099C110.43 33.7499 110.9 34.6199 110.9 35.5599C110.9 38.1699 107.2 40.2899 102.62 40.2899C102.24 40.2899 101.88 40.2799 101.51 40.2499C99.4399 40.1399 97.6 39.5599 96.31 38.6799C95.88 38.3899 95.51 38.0699 95.21 37.7199C94.66 37.0799 94.34 36.3399 94.34 35.5699C94.34 32.2099 100.53 30.9799 100.74 30.9499L89.97 19.4199L79.21 30.9499C79.42 30.9699 85.6099 32.2099 85.6099 35.5699C85.6099 36.3399 85.2899 37.0799 84.7399 37.7199C84.4399 38.0699 84.07 38.3899 83.65 38.6799C82.35 39.5599 80.51 40.1399 78.45 40.2499C78.09 40.2799 77.72 40.2899 77.34 40.2899C72.77 40.2899 69.07 38.1699 69.07 35.5599C69.07 34.6199 69.5499 33.7499 70.3599 33.0199L48.9 33.0099L58.2 44.1099C58.39 44.1099 58.5699 44.1099 58.7599 44.1099C61.4799 44.1099 64.36 44.6699 67.35 45.7899C67.83 45.9699 68.31 46.1599 68.8 46.3699C68.83 46.3699 68.8499 46.3899 68.8699 46.3999L74.3699 43.4399L79.83 46.3799L89.9799 39.6099L100.13 46.3799L105.59 43.4399L111.08 46.3999C111.08 46.3999 111.12 46.3799 111.15 46.3699C111.64 46.1599 112.12 45.9699 112.6 45.7899C115.6 44.6699 118.48 44.1099 121.19 44.1099C121.38 44.1099 121.56 44.1099 121.75 44.1099L131.05 33.0099" fill="#FCB81A"/>
</svg>
