<svg width="180" height="180" viewBox="0 0 180 180" fill="none" xmlns="http://www.w3.org/2000/svg">
<path d="M89.57 165.75L101.06 158.3L110.61 149.74L118.05 141.62L124.92 131.59L130.45 121.6L134.26 113.99L137.36 114.86L155.74 119.94L153.67 110.07L152.24 102.11L170.01 95.58L149.69 87.54L153.41 78.33L144.46 75.22L146.4 63.69L147.27 54.43L147.75 46.69L147.92 38.26L147.66 33.03L126.43 28.25L129.42 18.81L98.9001 15H81.3701L65.58 16.43L49.6601 19.07L52.3901 28.25L31.42 33.2V49.33L32.7601 62.64L34.19 74.53L26.7501 78.16L25.97 78.81L29.43 87.63L9.07001 95.49L26.58 102.06L23.9001 119.53L45.21 113.69L50.35 124.8L56.19 134.66L62.85 143.65L74.09 155.32L89.57 165.75Z" fill="#101821"/>
<mask id="mask0_9093_2526" style="mask-type:luminance" maskUnits="userSpaceOnUse" x="8" y="15" width="164" height="152">
<path d="M80.29 145.19C82.33 147.04 84.5 148.8 86.78 150.45V137.51C84.47 137.09 82.27 136.21 80.29 134.91V145.19ZM93.28 137.45V150.6C95.57 148.97 97.73 147.22 99.77 145.39V134.7C97.8 136.06 95.6 136.99 93.28 137.45ZM88.15 118.53C86.3 118.46 84.45 118.28 82.61 117.99C84.1 119.31 85.59 120.56 87.09 121.74C86.52 123.46 85.95 125.18 85.38 126.88C86.87 125.94 88.37 124.93 89.87 123.84C91.37 124.93 92.87 125.94 94.36 126.88C93.79 125.18 93.22 123.46 92.65 121.74C94.15 120.56 95.64 119.31 97.13 117.99C95.29 118.28 93.44 118.46 91.59 118.53C91.02 116.79 90.44 115.05 89.87 113.29C89.3 115.05 88.72 116.8 88.15 118.53ZM79.2 111.52C79.2 111.59 79.26 111.65 79.33 111.65C79.4 111.65 79.46 111.59 79.46 111.52C79.46 111.45 79.4 111.39 79.33 111.39C79.26 111.39 79.2 111.45 79.2 111.52ZM79.51 111.07C79.51 111.14 79.57 111.2 79.64 111.2C79.71 111.2 79.77 111.14 79.77 111.07C79.77 111 79.71 110.94 79.64 110.94C79.57 110.94 79.51 111 79.51 111.07ZM99.86 110.88C99.86 110.95 99.92 111.01 99.99 111.01C100.06 111.01 100.12 110.95 100.12 110.88C100.12 110.81 100.06 110.75 99.99 110.75C99.92 110.75 99.86 110.81 99.86 110.88ZM79.28 110.67C79.28 110.74 79.34 110.8 79.41 110.8C79.48 110.8 79.54 110.74 79.54 110.67C79.54 110.6 79.48 110.54 79.41 110.54C79.34 110.54 79.28 110.6 79.28 110.67ZM79.87 110.66C79.87 110.73 79.93 110.79 80 110.79C80.07 110.79 80.13 110.73 80.13 110.66C80.13 110.59 80.07 110.53 80 110.53C79.93 110.53 79.87 110.59 79.87 110.66ZM99.37 110.62C99.37 110.69 99.43 110.75 99.5 110.75C99.57 110.75 99.63 110.69 99.63 110.62C99.63 110.55 99.57 110.49 99.5 110.49C99.43 110.49 99.37 110.55 99.37 110.62ZM99.93 110.36C99.93 110.43 99.99 110.49 100.06 110.49C100.13 110.49 100.19 110.43 100.19 110.36C100.19 110.29 100.13 110.23 100.06 110.23C99.99 110.23 99.93 110.29 99.93 110.36ZM80.25 110.35C80.25 110.42 80.31 110.48 80.38 110.48C80.45 110.48 80.51 110.42 80.51 110.35C80.51 110.28 80.45 110.22 80.38 110.22C80.31 110.22 80.25 110.28 80.25 110.35ZM79.45 110.2C79.45 110.27 79.51 110.33 79.58 110.33C79.65 110.33 79.71 110.27 79.71 110.2C79.71 110.13 79.65 110.07 79.58 110.07C79.51 110.07 79.45 110.13 79.45 110.2ZM99.01 110.16C99.01 110.23 99.07 110.29 99.14 110.29C99.21 110.29 99.27 110.23 99.27 110.16C99.27 110.09 99.21 110.03 99.14 110.03C99.07 110.03 99.01 110.09 99.01 110.16ZM99.53 110.11C99.53 110.18 99.59 110.24 99.66 110.24C99.73 110.24 99.79 110.18 99.79 110.11C99.79 110.04 99.73 109.98 99.66 109.98C99.59 109.98 99.53 110.04 99.53 110.11ZM80.59 109.99C80.59 110.06 80.65 110.12 80.72 110.12C80.79 110.12 80.85 110.06 80.85 109.99C80.85 109.92 80.79 109.86 80.72 109.86C80.65 109.86 80.59 109.92 80.59 109.99ZM79.94 109.97C79.94 110.04 80 110.1 80.07 110.1C80.14 110.1 80.2 110.04 80.2 109.97C80.2 109.9 80.14 109.84 80.07 109.84C80 109.84 79.94 109.9 79.94 109.97ZM98.67 109.85C98.67 109.92 98.73 109.98 98.8 109.98C98.87 109.98 98.93 109.92 98.93 109.85C98.93 109.78 98.87 109.72 98.8 109.72C98.73 109.72 98.67 109.78 98.67 109.85ZM81.02 109.76C81.02 109.83 81.08 109.89 81.15 109.89C81.22 109.89 81.28 109.83 81.28 109.76C81.28 109.69 81.22 109.63 81.15 109.63C81.08 109.63 81.02 109.69 81.02 109.76ZM79.48 109.72C79.48 109.79 79.54 109.85 79.61 109.85C79.68 109.85 79.74 109.79 79.74 109.72C79.74 109.65 79.68 109.59 79.61 109.59C79.54 109.59 79.48 109.65 79.48 109.72ZM99.85 109.7C99.85 109.77 99.91 109.83 99.98 109.83C100.05 109.83 100.11 109.77 100.11 109.7C100.11 109.63 100.05 109.57 99.98 109.57C99.91 109.57 99.85 109.63 99.85 109.7ZM99.33 109.62C99.33 109.69 99.39 109.75 99.46 109.75C99.53 109.75 99.59 109.69 99.59 109.62C99.59 109.55 99.53 109.49 99.46 109.49C99.39 109.49 99.33 109.55 99.33 109.62ZM98.27 109.59C98.27 109.66 98.33 109.72 98.4 109.72C98.47 109.72 98.53 109.66 98.53 109.59C98.53 109.52 98.47 109.46 98.4 109.46C98.33 109.46 98.27 109.52 98.27 109.59ZM80.21 109.54C80.21 109.61 80.27 109.67 80.34 109.67C80.41 109.67 80.47 109.61 80.47 109.54C80.47 109.47 80.41 109.41 80.34 109.41C80.27 109.41 80.21 109.47 80.21 109.54ZM81.5 109.41C81.5 109.48 81.56 109.54 81.63 109.54C81.7 109.54 81.76 109.48 81.76 109.41C81.76 109.34 81.7 109.28 81.63 109.28C81.56 109.28 81.5 109.34 81.5 109.41ZM98.89 109.36C98.89 109.43 98.94 109.49 99.02 109.49C99.1 109.49 99.15 109.43 99.15 109.36C99.15 109.29 99.09 109.23 99.02 109.23C98.95 109.23 98.89 109.29 98.89 109.36ZM80.84 109.33C80.84 109.4 80.9 109.46 80.97 109.46C81.04 109.46 81.1 109.4 81.1 109.33C81.1 109.26 81.04 109.2 80.97 109.2C80.9 109.2 80.84 109.26 80.84 109.33ZM79.65 109.28C79.65 109.35 79.71 109.41 79.78 109.41C79.85 109.41 79.91 109.35 79.91 109.28C79.91 109.21 79.85 109.15 79.78 109.15C79.71 109.15 79.65 109.21 79.65 109.28ZM97.75 109.21C97.75 109.28 97.81 109.34 97.88 109.34C97.95 109.34 98.01 109.28 98.01 109.21C98.01 109.14 97.95 109.08 97.88 109.08C97.81 109.08 97.75 109.14 97.75 109.21ZM98.24 109.13C98.24 109.2 98.3 109.26 98.37 109.26C98.44 109.26 98.5 109.2 98.5 109.13C98.5 109.06 98.44 109 98.37 109C98.3 109 98.24 109.06 98.24 109.13ZM99.73 109.11C99.73 109.18 99.79 109.24 99.86 109.24C99.93 109.24 99.99 109.18 99.99 109.11C99.99 109.04 99.93 108.98 99.86 108.98C99.79 108.98 99.73 109.04 99.73 109.11ZM80.35 109.11C80.35 109.18 80.4 109.24 80.48 109.24C80.56 109.24 80.61 109.18 80.61 109.11C80.61 109.04 80.55 108.98 80.48 108.98C80.41 108.98 80.35 109.04 80.35 109.11ZM81.99 109.04C81.99 109.11 82.05 109.17 82.12 109.17C82.19 109.17 82.25 109.11 82.25 109.04C82.25 108.97 82.19 108.91 82.12 108.91C82.05 108.91 81.99 108.97 81.99 109.04ZM99.25 108.98C99.25 109.05 99.31 109.11 99.38 109.11C99.45 109.11 99.51 109.05 99.51 108.98C99.51 108.91 99.45 108.85 99.38 108.85C99.31 108.85 99.25 108.91 99.25 108.98ZM81.41 108.95C81.41 109.02 81.47 109.08 81.54 109.08C81.61 109.08 81.67 109.02 81.67 108.95C81.67 108.88 81.61 108.82 81.54 108.82C81.47 108.82 81.41 108.88 81.41 108.95ZM97.23 108.89C97.23 108.96 97.29 109.02 97.36 109.02C97.43 109.02 97.49 108.96 97.49 108.89C97.49 108.82 97.43 108.76 97.36 108.76C97.29 108.76 97.23 108.82 97.23 108.89ZM79.79 108.88C79.79 108.95 79.85 109.01 79.92 109.01C79.99 109.01 80.05 108.95 80.05 108.88C80.05 108.81 79.99 108.75 79.92 108.75C79.85 108.75 79.79 108.81 79.79 108.88ZM98.66 108.86C98.66 108.93 98.72 108.99 98.79 108.99C98.86 108.99 98.92 108.93 98.92 108.86C98.92 108.79 98.86 108.73 98.79 108.73C98.72 108.73 98.66 108.79 98.66 108.86ZM80.99 108.77C80.99 108.84 81.05 108.9 81.12 108.9C81.19 108.9 81.25 108.84 81.25 108.77C81.25 108.7 81.19 108.64 81.12 108.64C81.05 108.64 80.99 108.7 80.99 108.77ZM82.51 108.75C82.51 108.82 82.57 108.88 82.64 108.88C82.71 108.88 82.77 108.82 82.77 108.75C82.77 108.68 82.71 108.62 82.64 108.62C82.57 108.62 82.51 108.68 82.51 108.75ZM80.45 108.66C80.45 108.73 80.51 108.79 80.58 108.79C80.65 108.79 80.71 108.73 80.71 108.66C80.71 108.59 80.65 108.53 80.58 108.53C80.51 108.53 80.45 108.59 80.45 108.66ZM98.1 108.63C98.1 108.7 98.16 108.76 98.23 108.76C98.3 108.76 98.36 108.7 98.36 108.63C98.36 108.56 98.3 108.5 98.23 108.5C98.16 108.5 98.1 108.56 98.1 108.63ZM97.6 108.63C97.6 108.7 97.66 108.76 97.73 108.76C97.8 108.76 97.86 108.7 97.86 108.63C97.86 108.56 97.8 108.5 97.73 108.5C97.66 108.5 97.6 108.56 97.6 108.63ZM96.83 108.56C96.83 108.63 96.89 108.69 96.96 108.69C97.03 108.69 97.09 108.63 97.09 108.56C97.09 108.49 97.03 108.43 96.96 108.43C96.89 108.43 96.83 108.49 96.83 108.56ZM81.75 108.54C81.75 108.61 81.81 108.67 81.88 108.67C81.95 108.67 82.01 108.61 82.01 108.54C82.01 108.47 81.95 108.41 81.88 108.41C81.81 108.41 81.75 108.47 81.75 108.54ZM99.55 108.52C99.55 108.59 99.61 108.65 99.68 108.65C99.75 108.65 99.81 108.59 99.81 108.52C99.81 108.45 99.75 108.39 99.68 108.39C99.61 108.39 99.55 108.45 99.55 108.52ZM99 108.47C99 108.54 99.06 108.6 99.13 108.6C99.2 108.6 99.26 108.54 99.26 108.47C99.26 108.4 99.2 108.34 99.13 108.34C99.06 108.34 99 108.4 99 108.47ZM82.24 108.44C82.24 108.51 82.3 108.57 82.37 108.57C82.44 108.57 82.5 108.51 82.5 108.44C82.5 108.37 82.44 108.31 82.37 108.31C82.3 108.31 82.24 108.37 82.24 108.44ZM79.84 108.44C79.84 108.51 79.9 108.57 79.97 108.57C80.04 108.57 80.1 108.51 80.1 108.44C80.1 108.37 80.04 108.31 79.97 108.31C79.9 108.31 79.84 108.37 79.84 108.44ZM82.98 108.41C82.98 108.48 83.04 108.54 83.11 108.54C83.18 108.54 83.24 108.48 83.24 108.41C83.24 108.34 83.18 108.28 83.11 108.28C83.04 108.28 82.98 108.34 82.98 108.41ZM96.26 108.36C96.26 108.43 96.32 108.49 96.39 108.49C96.46 108.49 96.52 108.43 96.52 108.36C96.52 108.29 96.46 108.23 96.39 108.23C96.32 108.23 96.26 108.29 96.26 108.36ZM81.34 108.27C81.34 108.34 81.4 108.4 81.47 108.4C81.54 108.4 81.6 108.34 81.6 108.27C81.6 108.2 81.54 108.14 81.47 108.14C81.4 108.14 81.34 108.2 81.34 108.27ZM98.46 108.26C98.46 108.33 98.52 108.39 98.59 108.39C98.66 108.39 98.72 108.33 98.72 108.26C98.72 108.19 98.66 108.13 98.59 108.13C98.52 108.13 98.46 108.19 98.46 108.26ZM80.84 108.23C80.84 108.3 80.9 108.36 80.97 108.36C81.04 108.36 81.1 108.3 81.1 108.23C81.1 108.16 81.04 108.1 80.97 108.1C80.9 108.1 80.84 108.16 80.84 108.23ZM80.31 108.21C80.31 108.28 80.37 108.34 80.44 108.34C80.51 108.34 80.57 108.28 80.57 108.21C80.57 108.14 80.51 108.08 80.44 108.08C80.37 108.08 80.31 108.14 80.31 108.21ZM83.5 108.2C83.5 108.27 83.56 108.33 83.63 108.33C83.7 108.33 83.76 108.27 83.76 108.2C83.76 108.13 83.7 108.07 83.63 108.07C83.56 108.07 83.5 108.13 83.5 108.2ZM97.38 108.16C97.38 108.23 97.44 108.29 97.51 108.29C97.58 108.29 97.64 108.23 97.64 108.16C97.64 108.09 97.58 108.03 97.51 108.03C97.44 108.03 97.38 108.09 97.38 108.16ZM97.94 108.14C97.94 108.21 98 108.27 98.07 108.27C98.14 108.27 98.2 108.21 98.2 108.14C98.2 108.07 98.14 108.01 98.07 108.01C98 108.01 97.94 108.07 97.94 108.14ZM96.88 108.05C96.88 108.12 96.94 108.18 97.01 108.18C97.08 108.18 97.14 108.12 97.14 108.05C97.14 107.98 97.08 107.92 97.01 107.92C96.94 107.92 96.88 107.98 96.88 108.05ZM95.71 108.05C95.71 108.12 95.77 108.18 95.84 108.18C95.91 108.18 95.97 108.12 95.97 108.05C95.97 107.98 95.91 107.92 95.84 107.92C95.77 107.92 95.71 107.98 95.71 108.05ZM99.33 108.01C99.33 108.08 99.39 108.14 99.46 108.14C99.53 108.14 99.59 108.08 99.59 108.01C99.59 107.94 99.53 107.88 99.46 107.88C99.39 107.88 99.33 107.94 99.33 108.01ZM82.71 107.98C82.71 108.05 82.77 108.11 82.84 108.11C82.91 108.11 82.97 108.05 82.97 107.98C82.97 107.91 82.91 107.85 82.84 107.85C82.77 107.85 82.71 107.91 82.71 107.98ZM82.22 107.97C82.22 108.04 82.28 108.1 82.35 108.1C82.42 108.1 82.48 108.04 82.48 107.97C82.48 107.9 82.42 107.84 82.35 107.84C82.28 107.84 82.22 107.9 82.22 107.97ZM96.35 107.93C96.35 108 96.41 108.06 96.48 108.06C96.55 108.06 96.61 108 96.61 107.93C96.61 107.86 96.55 107.8 96.48 107.8C96.41 107.8 96.35 107.86 96.35 107.93ZM98.74 107.91C98.74 107.98 98.8 108.04 98.87 108.04C98.94 108.04 99 107.98 99 107.91C99 107.84 98.94 107.78 98.87 107.78C98.8 107.78 98.74 107.84 98.74 107.91ZM83.89 107.88C83.89 107.95 83.95 108.01 84.02 108.01C84.09 108.01 84.15 107.95 84.15 107.88C84.15 107.81 84.09 107.75 84.02 107.75C83.95 107.75 83.89 107.81 83.89 107.88ZM81.78 107.86C81.78 107.93 81.84 107.99 81.91 107.99C81.98 107.99 82.04 107.93 82.04 107.86C82.04 107.79 81.98 107.73 81.91 107.73C81.84 107.73 81.78 107.79 81.78 107.86ZM84.43 107.79C84.43 107.86 84.49 107.92 84.56 107.92C84.63 107.92 84.69 107.86 84.69 107.79C84.69 107.72 84.63 107.66 84.56 107.66C84.49 107.66 84.43 107.72 84.43 107.79ZM83.28 107.79C83.28 107.86 83.34 107.92 83.41 107.92C83.48 107.92 83.54 107.86 83.54 107.79C83.54 107.72 83.48 107.66 83.41 107.66C83.34 107.66 83.28 107.72 83.28 107.79ZM95.15 107.77C95.15 107.84 95.21 107.9 95.28 107.9C95.35 107.9 95.41 107.84 95.41 107.77C95.41 107.7 95.35 107.64 95.28 107.64C95.21 107.64 95.15 107.7 95.15 107.77ZM81.27 107.75C81.27 107.82 81.33 107.88 81.4 107.88C81.47 107.88 81.53 107.82 81.53 107.75C81.53 107.68 81.47 107.62 81.4 107.62C81.33 107.62 81.27 107.68 81.27 107.75ZM80.69 107.75C80.69 107.82 80.75 107.88 80.82 107.88C80.89 107.88 80.95 107.82 80.95 107.75C80.95 107.68 80.89 107.62 80.82 107.62C80.75 107.62 80.69 107.68 80.69 107.75ZM97.88 107.7C97.88 107.77 97.94 107.83 98.01 107.83C98.08 107.83 98.14 107.77 98.14 107.7C98.14 107.63 98.08 107.57 98.01 107.57C97.94 107.57 97.88 107.63 97.88 107.7ZM97.24 107.65C97.24 107.72 97.3 107.78 97.37 107.78C97.44 107.78 97.5 107.72 97.5 107.65C97.5 107.58 97.44 107.52 97.37 107.52C97.3 107.52 97.24 107.58 97.24 107.65ZM94.64 107.6C94.64 107.67 94.7 107.73 94.77 107.73C94.84 107.73 94.9 107.67 94.9 107.6C94.9 107.53 94.84 107.47 94.77 107.47C94.7 107.47 94.64 107.53 94.64 107.6ZM95.67 107.58C95.67 107.65 95.73 107.71 95.8 107.71C95.87 107.71 95.93 107.65 95.93 107.58C95.93 107.51 95.87 107.45 95.8 107.45C95.73 107.45 95.67 107.51 95.67 107.58ZM99.09 107.55C99.09 107.62 99.15 107.68 99.22 107.68C99.29 107.68 99.35 107.62 99.35 107.55C99.35 107.48 99.29 107.42 99.22 107.42C99.15 107.42 99.09 107.48 99.09 107.55ZM98.38 107.55C98.38 107.62 98.44 107.68 98.51 107.68C98.58 107.68 98.64 107.62 98.64 107.55C98.64 107.48 98.58 107.42 98.51 107.42C98.44 107.42 98.38 107.48 98.38 107.55ZM85.04 107.52C85.04 107.59 85.1 107.65 85.17 107.65C85.24 107.65 85.3 107.59 85.3 107.52C85.3 107.45 85.24 107.39 85.17 107.39C85.1 107.39 85.04 107.45 85.04 107.52ZM82.26 107.48C82.26 107.55 82.32 107.61 82.39 107.61C82.46 107.61 82.52 107.55 82.52 107.48C82.52 107.41 82.46 107.35 82.39 107.35C82.32 107.35 82.26 107.41 82.26 107.48ZM96.75 107.48C96.75 107.55 96.81 107.61 96.88 107.61C96.95 107.61 97.01 107.55 97.01 107.48C97.01 107.41 96.95 107.35 96.88 107.35C96.81 107.35 96.75 107.41 96.75 107.48ZM82.88 107.48C82.88 107.55 82.94 107.61 83.01 107.61C83.08 107.61 83.14 107.55 83.14 107.48C83.14 107.41 83.08 107.35 83.01 107.35C82.94 107.35 82.88 107.41 82.88 107.48ZM96.2 107.48C96.2 107.55 96.26 107.61 96.33 107.61C96.4 107.61 96.46 107.55 96.46 107.48C96.46 107.41 96.4 107.35 96.33 107.35C96.26 107.35 96.2 107.41 96.2 107.48ZM94.08 107.45C94.08 107.52 94.14 107.58 94.21 107.58C94.28 107.58 94.34 107.52 94.34 107.45C94.34 107.38 94.28 107.32 94.21 107.32C94.14 107.32 94.08 107.38 94.08 107.45ZM84.02 107.4C84.02 107.47 84.08 107.53 84.15 107.53C84.22 107.53 84.28 107.47 84.28 107.4C84.28 107.33 84.22 107.27 84.15 107.27C84.08 107.27 84.02 107.33 84.02 107.4ZM80.31 107.4C80.31 107.47 80.37 107.53 80.44 107.53C80.51 107.53 80.57 107.47 80.57 107.4C80.57 107.33 80.51 107.27 80.44 107.27C80.37 107.27 80.31 107.33 80.31 107.4ZM84.59 107.35C84.59 107.42 84.65 107.48 84.72 107.48C84.79 107.48 84.85 107.42 84.85 107.35C84.85 107.28 84.79 107.22 84.72 107.22C84.65 107.22 84.59 107.28 84.59 107.35ZM81.69 107.32C81.69 107.39 81.75 107.45 81.82 107.45C81.89 107.45 81.95 107.39 81.95 107.32C81.95 107.25 81.89 107.19 81.82 107.19C81.75 107.19 81.69 107.25 81.69 107.32ZM81.07 107.32C81.07 107.39 81.13 107.45 81.2 107.45C81.27 107.45 81.33 107.39 81.33 107.32C81.33 107.25 81.27 107.19 81.2 107.19C81.13 107.19 81.07 107.25 81.07 107.32ZM83.47 107.32C83.47 107.39 83.53 107.45 83.6 107.45C83.67 107.45 83.73 107.39 83.73 107.32C83.73 107.25 83.67 107.19 83.6 107.19C83.53 107.19 83.47 107.25 83.47 107.32ZM97.52 107.31C97.52 107.38 97.58 107.44 97.65 107.44C97.72 107.44 97.78 107.38 97.78 107.31C97.78 107.24 97.72 107.18 97.65 107.18C97.58 107.18 97.52 107.24 97.52 107.31ZM85.42 107.28C85.42 107.35 85.48 107.41 85.55 107.41C85.62 107.41 85.68 107.35 85.68 107.28C85.68 107.21 85.62 107.15 85.55 107.15C85.48 107.15 85.42 107.21 85.42 107.28ZM93.36 107.27C93.36 107.34 93.42 107.4 93.49 107.4C93.56 107.4 93.62 107.34 93.62 107.27C93.62 107.2 93.56 107.14 93.49 107.14C93.42 107.14 93.36 107.2 93.36 107.27ZM85.85 107.27C85.85 107.34 85.91 107.4 85.98 107.4C86.05 107.4 86.11 107.34 86.11 107.27C86.11 107.2 86.05 107.14 85.98 107.14C85.91 107.14 85.85 107.2 85.85 107.27ZM95.38 107.23C95.38 107.3 95.44 107.36 95.51 107.36C95.58 107.36 95.64 107.3 95.64 107.23C95.64 107.16 95.58 107.1 95.51 107.1C95.44 107.1 95.38 107.16 95.38 107.23ZM98.83 107.21C98.83 107.28 98.89 107.34 98.96 107.34C99.03 107.34 99.09 107.28 99.09 107.21C99.09 107.14 99.03 107.08 98.96 107.08C98.89 107.08 98.83 107.14 98.83 107.21ZM98.01 107.18C98.01 107.25 98.07 107.31 98.14 107.31C98.21 107.31 98.27 107.25 98.27 107.18C98.27 107.11 98.21 107.05 98.14 107.05C98.07 107.05 98.01 107.11 98.01 107.18ZM94.96 107.14C94.96 107.21 95.02 107.27 95.09 107.27C95.16 107.27 95.22 107.21 95.22 107.14C95.22 107.07 95.16 107.01 95.09 107.01C95.02 107.01 94.96 107.07 94.96 107.14ZM86.34 107.12C86.34 107.19 86.4 107.25 86.47 107.25C86.54 107.25 86.6 107.19 86.6 107.12C86.6 107.05 86.54 106.99 86.47 106.99C86.4 106.99 86.34 107.05 86.34 107.12ZM94.49 107.08C94.49 107.15 94.55 107.21 94.62 107.21C94.69 107.21 94.75 107.15 94.75 107.08C94.75 107.01 94.69 106.95 94.62 106.95C94.55 106.95 94.49 107.01 94.49 107.08ZM82.43 107.06C82.43 107.13 82.49 107.19 82.56 107.19C82.63 107.19 82.69 107.13 82.69 107.06C82.69 106.99 82.63 106.93 82.56 106.93C82.49 106.93 82.43 106.99 82.43 107.06ZM80.59 107.05C80.59 107.12 80.65 107.18 80.72 107.18C80.79 107.18 80.85 107.12 80.85 107.05C80.85 106.98 80.79 106.92 80.72 106.92C80.65 106.92 80.59 106.98 80.59 107.05ZM93.89 107.04C93.89 107.11 93.95 107.17 94.02 107.17C94.09 107.17 94.15 107.11 94.15 107.04C94.15 106.97 94.09 106.91 94.02 106.91C93.95 106.91 93.89 106.97 93.89 107.04ZM95.94 107.03C95.94 107.1 96 107.16 96.07 107.16C96.14 107.16 96.2 107.1 96.2 107.03C96.2 106.96 96.14 106.9 96.07 106.9C96 106.9 95.94 106.96 95.94 107.03ZM82.94 107.01C82.94 107.08 83 107.14 83.07 107.14C83.14 107.14 83.2 107.08 83.2 107.01C83.2 106.94 83.14 106.88 83.07 106.88C83 106.88 82.94 106.94 82.94 107.01ZM96.48 107.01C96.48 107.08 96.54 107.14 96.61 107.14C96.68 107.14 96.74 107.08 96.74 107.01C96.74 106.94 96.68 106.88 96.61 106.88C96.54 106.88 96.48 106.94 96.48 107.01ZM96.99 107.01C96.99 107.08 97.05 107.14 97.12 107.14C97.19 107.14 97.25 107.08 97.25 107.01C97.25 106.94 97.19 106.88 97.12 106.88C97.05 106.88 96.99 106.94 96.99 107.01ZM84.03 106.97C84.03 107.04 84.09 107.1 84.16 107.1C84.23 107.1 84.29 107.04 84.29 106.97C84.29 106.9 84.23 106.84 84.16 106.84C84.09 106.84 84.03 106.9 84.03 106.97ZM84.65 106.93C84.65 107 84.71 107.06 84.78 107.06C84.85 107.06 84.91 107 84.91 106.93C84.91 106.86 84.85 106.8 84.78 106.8C84.71 106.8 84.65 106.86 84.65 106.93ZM81.93 106.89C81.93 106.96 81.99 107.02 82.06 107.02C82.13 107.02 82.19 106.96 82.19 106.89C82.19 106.82 82.13 106.76 82.06 106.76C81.99 106.76 81.93 106.82 81.93 106.89ZM81.37 106.88C81.37 106.95 81.43 107.01 81.5 107.01C81.57 107.01 81.63 106.95 81.63 106.88C81.63 106.81 81.57 106.75 81.5 106.75C81.43 106.75 81.37 106.81 81.37 106.88ZM93.31 106.85C93.31 106.92 93.37 106.98 93.44 106.98C93.51 106.98 93.57 106.92 93.57 106.85C93.57 106.78 93.51 106.72 93.44 106.72C93.37 106.72 93.31 106.78 93.31 106.85ZM85.21 106.84C85.21 106.91 85.27 106.97 85.34 106.97C85.41 106.97 85.47 106.91 85.47 106.84C85.47 106.77 85.41 106.71 85.34 106.71C85.27 106.71 85.21 106.77 85.21 106.84ZM98.31 106.83C98.31 106.9 98.37 106.96 98.44 106.96C98.51 106.96 98.57 106.9 98.57 106.83C98.57 106.76 98.51 106.7 98.44 106.7C98.37 106.7 98.31 106.76 98.31 106.83ZM97.46 106.83C97.46 106.9 97.52 106.96 97.59 106.96C97.66 106.96 97.72 106.9 97.72 106.83C97.72 106.76 97.66 106.7 97.59 106.7C97.52 106.7 97.46 106.76 97.46 106.83ZM83.43 106.81C83.43 106.88 83.49 106.94 83.56 106.94C83.63 106.94 83.69 106.88 83.69 106.81C83.69 106.74 83.63 106.68 83.56 106.68C83.49 106.68 83.43 106.74 83.43 106.81ZM85.93 106.77C85.93 106.84 85.99 106.9 86.06 106.9C86.13 106.9 86.19 106.84 86.19 106.77C86.19 106.7 86.13 106.64 86.06 106.64C85.99 106.64 85.93 106.7 85.93 106.77ZM95.61 106.7C95.61 106.77 95.67 106.83 95.74 106.83C95.81 106.83 95.87 106.77 95.87 106.7C95.87 106.63 95.81 106.57 95.74 106.57C95.67 106.57 95.61 106.63 95.61 106.7ZM80.81 106.68C80.81 106.75 80.87 106.81 80.94 106.81C81.01 106.81 81.07 106.75 81.07 106.68C81.07 106.61 81.01 106.55 80.94 106.55C80.87 106.55 80.81 106.61 80.81 106.68ZM94.24 106.62C94.24 106.69 94.3 106.75 94.37 106.75C94.44 106.75 94.5 106.69 94.5 106.62C94.5 106.55 94.44 106.49 94.37 106.49C94.3 106.49 94.24 106.55 94.24 106.62ZM95.12 106.59C95.12 106.66 95.18 106.72 95.25 106.72C95.32 106.72 95.38 106.66 95.38 106.59C95.38 106.52 95.32 106.46 95.25 106.46C95.18 106.46 95.12 106.52 95.12 106.59ZM82.33 106.57C82.33 106.64 82.39 106.7 82.46 106.7C82.53 106.7 82.59 106.64 82.59 106.57C82.59 106.5 82.53 106.44 82.46 106.44C82.39 106.44 82.33 106.5 82.33 106.57ZM96.23 106.54C96.23 106.61 96.29 106.67 96.36 106.67C96.43 106.67 96.49 106.61 96.49 106.54C96.49 106.47 96.43 106.41 96.36 106.41C96.29 106.41 96.23 106.47 96.23 106.54ZM93.76 106.52C93.76 106.59 93.82 106.65 93.89 106.65C93.96 106.65 94.02 106.59 94.02 106.52C94.02 106.45 93.96 106.39 93.89 106.39C93.82 106.39 93.76 106.45 93.76 106.52ZM82.92 106.51C82.92 106.58 82.98 106.64 83.05 106.64C83.12 106.64 83.18 106.58 83.18 106.51C83.18 106.44 83.12 106.38 83.05 106.38C82.98 106.38 82.92 106.44 82.92 106.51ZM97.84 106.51C97.84 106.58 97.9 106.64 97.97 106.64C98.04 106.64 98.1 106.58 98.1 106.51C98.1 106.44 98.04 106.38 97.97 106.38C97.9 106.38 97.84 106.44 97.84 106.51ZM84.38 106.51C84.38 106.58 84.44 106.64 84.51 106.64C84.58 106.64 84.64 106.58 84.64 106.51C84.64 106.44 84.58 106.38 84.51 106.38C84.44 106.38 84.38 106.44 84.38 106.51ZM96.81 106.51C96.81 106.58 96.87 106.64 96.94 106.64C97.01 106.64 97.07 106.58 97.07 106.51C97.07 106.44 97.01 106.38 96.94 106.38C96.87 106.38 96.81 106.44 96.81 106.51ZM83.85 106.51C83.85 106.58 83.91 106.64 83.98 106.64C84.05 106.64 84.11 106.58 84.11 106.51C84.11 106.44 84.05 106.38 83.98 106.38C83.91 106.38 83.85 106.44 83.85 106.51ZM85.61 106.47C85.61 106.54 85.67 106.6 85.74 106.6C85.81 106.6 85.87 106.54 85.87 106.47C85.87 106.4 85.81 106.34 85.74 106.34C85.67 106.34 85.61 106.4 85.61 106.47ZM94.64 106.45C94.64 106.52 94.7 106.58 94.77 106.58C94.84 106.58 94.9 106.52 94.9 106.45C94.9 106.38 94.84 106.32 94.77 106.32C94.7 106.32 94.64 106.38 94.64 106.45ZM81.76 106.44C81.76 106.51 81.82 106.57 81.89 106.57C81.96 106.57 82.02 106.51 82.02 106.44C82.02 106.37 81.96 106.31 81.89 106.31C81.82 106.31 81.76 106.37 81.76 106.44ZM84.94 106.44C84.94 106.51 85 106.57 85.07 106.57C85.14 106.57 85.2 106.51 85.2 106.44C85.2 106.37 85.14 106.31 85.07 106.31C85 106.31 84.94 106.37 84.94 106.44ZM86.27 106.41C86.27 106.48 86.33 106.54 86.4 106.54C86.47 106.54 86.53 106.48 86.53 106.41C86.53 106.34 86.47 106.28 86.4 106.28C86.33 106.28 86.27 106.34 86.27 106.41ZM81.18 106.36C81.18 106.43 81.24 106.49 81.31 106.49C81.38 106.49 81.44 106.43 81.44 106.36C81.44 106.29 81.38 106.23 81.31 106.23C81.24 106.23 81.18 106.29 81.18 106.36ZM97.35 106.35C97.35 106.42 97.41 106.48 97.48 106.48C97.55 106.48 97.61 106.42 97.61 106.35C97.61 106.28 97.55 106.22 97.48 106.22C97.41 106.22 97.35 106.28 97.35 106.35ZM83.43 106.27C83.43 106.34 83.49 106.4 83.56 106.4C83.63 106.4 83.69 106.34 83.69 106.27C83.69 106.2 83.63 106.14 83.56 106.14C83.49 106.14 83.43 106.2 83.43 106.27ZM98.34 106.27C98.34 106.34 98.4 106.4 98.47 106.4C98.54 106.4 98.6 106.34 98.6 106.27C98.6 106.2 98.54 106.14 98.47 106.14C98.4 106.14 98.34 106.2 98.34 106.27ZM95.7 106.27C95.7 106.34 95.76 106.4 95.83 106.4C95.9 106.4 95.96 106.34 95.96 106.27C95.96 106.2 95.9 106.14 95.83 106.14C95.76 106.14 95.7 106.2 95.7 106.27ZM82.49 106.16C82.49 106.23 82.55 106.29 82.62 106.29C82.69 106.29 82.75 106.23 82.75 106.16C82.75 106.09 82.69 106.03 82.62 106.03C82.55 106.03 82.49 106.09 82.49 106.16ZM94.98 106.13C94.98 106.2 95.04 106.26 95.11 106.26C95.18 106.26 95.24 106.2 95.24 106.13C95.24 106.06 95.18 106 95.11 106C95.04 106 94.98 106.06 94.98 106.13ZM96.52 106.1C96.52 106.17 96.58 106.23 96.65 106.23C96.72 106.23 96.78 106.17 96.78 106.1C96.78 106.03 96.72 105.97 96.65 105.97C96.58 105.97 96.52 106.03 96.52 106.1ZM84.28 106.09C84.28 106.16 84.34 106.22 84.41 106.22C84.48 106.22 84.54 106.16 84.54 106.09C84.54 106.02 84.48 105.96 84.41 105.96C84.34 105.96 84.28 106.02 84.28 106.09ZM93.82 106.05C93.82 106.12 93.88 106.18 93.95 106.18C94.02 106.18 94.08 106.13 94.08 106.05C94.08 105.97 94.02 105.92 93.95 105.92C93.88 105.92 93.82 105.98 93.82 106.05ZM85.41 106.03C85.41 106.1 85.47 106.16 85.54 106.16C85.61 106.16 85.67 106.1 85.67 106.03C85.67 105.96 85.61 105.9 85.54 105.9C85.47 105.9 85.41 105.96 85.41 106.03ZM94.3 106.03C94.3 106.1 94.36 106.16 94.43 106.16C94.5 106.16 94.56 106.1 94.56 106.03C94.56 105.96 94.5 105.9 94.43 105.9C94.36 105.9 94.3 105.96 94.3 106.03ZM97.9 106.02C97.9 106.09 97.96 106.15 98.03 106.15C98.1 106.15 98.16 106.09 98.16 106.02C98.16 105.95 98.1 105.89 98.03 105.89C97.96 105.89 97.9 105.95 97.9 106.02ZM82.95 106C82.95 106.07 83.01 106.13 83.08 106.13C83.15 106.13 83.21 106.07 83.21 106C83.21 105.93 83.15 105.87 83.08 105.87C83.01 105.87 82.95 105.93 82.95 106ZM97.01 105.99C97.01 106.06 97.07 106.12 97.14 106.12C97.21 106.12 97.27 106.06 97.27 105.99C97.27 105.92 97.21 105.86 97.14 105.86C97.07 105.86 97.01 105.92 97.01 105.99ZM85.87 105.97C85.87 106.04 85.93 106.1 86 106.1C86.07 106.1 86.13 106.04 86.13 105.97C86.13 105.9 86.07 105.84 86 105.84C85.93 105.84 85.87 105.9 85.87 105.97ZM84.93 105.97C84.93 106.04 84.99 106.1 85.06 106.1C85.13 106.1 85.19 106.04 85.19 105.97C85.19 105.9 85.13 105.84 85.06 105.84C84.99 105.84 84.93 105.89 84.93 105.97ZM96.05 105.95C96.05 106.02 96.11 106.08 96.18 106.08C96.25 106.08 96.31 106.02 96.31 105.95C96.31 105.88 96.25 105.82 96.18 105.82C96.11 105.82 96.05 105.88 96.05 105.95ZM82.04 105.93C82.04 106 82.1 106.06 82.17 106.06C82.24 106.06 82.3 106 82.3 105.93C82.3 105.86 82.24 105.8 82.17 105.8C82.1 105.8 82.04 105.86 82.04 105.93ZM83.79 105.9C83.79 105.97 83.85 106.03 83.92 106.03C83.99 106.03 84.05 105.97 84.05 105.9C84.05 105.83 83.99 105.77 83.92 105.77C83.85 105.77 83.79 105.83 83.79 105.9ZM95.4 105.86C95.4 105.93 95.46 105.99 95.53 105.99C95.6 105.99 95.66 105.93 95.66 105.86C95.66 105.79 95.6 105.73 95.53 105.73C95.46 105.73 95.4 105.79 95.4 105.86ZM93.4 105.86C93.4 105.93 93.46 105.99 93.53 105.99C93.6 105.99 93.66 105.93 93.66 105.86C93.66 105.79 93.6 105.73 93.53 105.73C93.46 105.73 93.4 105.79 93.4 105.86ZM97.54 105.77C97.54 105.84 97.6 105.9 97.67 105.9C97.74 105.9 97.8 105.84 97.8 105.77C97.8 105.7 97.74 105.64 97.67 105.64C97.6 105.64 97.54 105.7 97.54 105.77ZM94.79 105.72C94.79 105.79 94.85 105.85 94.92 105.85C94.99 105.85 95.05 105.79 95.05 105.72C95.05 105.65 94.99 105.59 94.92 105.59C94.85 105.59 94.79 105.65 94.79 105.72ZM83.3 105.67C83.3 105.74 83.36 105.8 83.43 105.8C83.5 105.8 83.56 105.74 83.56 105.67C83.56 105.6 83.5 105.54 83.43 105.54C83.36 105.54 83.3 105.6 83.3 105.67ZM84.6 105.67C84.6 105.74 84.66 105.8 84.73 105.8C84.8 105.8 84.86 105.74 84.86 105.67C84.86 105.6 84.8 105.54 84.73 105.54C84.66 105.54 84.6 105.6 84.6 105.67ZM96.5 105.61C96.5 105.68 96.56 105.74 96.63 105.74C96.7 105.74 96.76 105.68 96.76 105.61C96.76 105.54 96.7 105.48 96.63 105.48C96.56 105.48 96.5 105.54 96.5 105.61ZM82.3 105.57C82.3 105.64 82.36 105.7 82.43 105.7C82.5 105.7 82.56 105.64 82.56 105.57C82.56 105.5 82.5 105.44 82.43 105.44C82.36 105.44 82.3 105.5 82.3 105.57ZM94.29 105.53C94.29 105.6 94.35 105.66 94.42 105.66C94.49 105.66 94.55 105.6 94.55 105.53C94.55 105.46 94.49 105.4 94.42 105.4C94.35 105.4 94.29 105.46 94.29 105.53ZM84.15 105.51C84.15 105.58 84.21 105.64 84.28 105.64C84.35 105.64 84.41 105.58 84.41 105.51C84.41 105.44 84.35 105.38 84.28 105.38C84.21 105.38 84.15 105.44 84.15 105.51ZM85.38 105.5C85.38 105.57 85.44 105.63 85.51 105.63C85.58 105.63 85.64 105.57 85.64 105.5C85.64 105.43 85.58 105.37 85.51 105.37C85.44 105.37 85.38 105.43 85.38 105.5ZM97.15 105.48C97.15 105.55 97.21 105.61 97.28 105.61C97.35 105.61 97.41 105.55 97.41 105.48C97.41 105.41 97.35 105.35 97.28 105.35C97.21 105.35 97.15 105.41 97.15 105.48ZM82.73 105.48C82.73 105.55 82.79 105.61 82.86 105.61C82.93 105.61 82.99 105.55 82.99 105.48C82.99 105.41 82.93 105.35 82.86 105.35C82.79 105.35 82.73 105.41 82.73 105.48ZM95.92 105.46C95.92 105.53 95.98 105.59 96.05 105.59C96.12 105.59 96.18 105.53 96.18 105.46C96.18 105.39 96.12 105.33 96.05 105.33C95.98 105.33 95.92 105.39 95.92 105.46ZM93.81 105.45C93.81 105.52 93.87 105.58 93.94 105.58C94.01 105.58 94.07 105.52 94.07 105.45C94.07 105.38 94.01 105.32 93.94 105.32C93.87 105.32 93.81 105.38 93.81 105.45ZM95.41 105.42C95.41 105.49 95.47 105.55 95.54 105.55C95.61 105.55 95.67 105.49 95.67 105.42C95.67 105.35 95.61 105.29 95.54 105.29C95.47 105.29 95.41 105.35 95.41 105.42ZM85.81 105.32C85.81 105.39 85.87 105.45 85.94 105.45C86.01 105.45 86.07 105.39 86.07 105.32C86.07 105.25 86.01 105.19 85.94 105.19C85.87 105.19 85.81 105.25 85.81 105.32ZM86.26 105.32C86.26 105.39 86.32 105.45 86.39 105.45C86.46 105.45 86.52 105.39 86.52 105.32C86.52 105.25 86.46 105.19 86.39 105.19C86.32 105.19 86.26 105.25 86.26 105.32ZM84.94 105.32C84.94 105.39 85 105.45 85.07 105.45C85.14 105.45 85.2 105.39 85.2 105.32C85.2 105.25 85.14 105.19 85.07 105.19C85 105.19 84.94 105.25 84.94 105.32ZM83.73 105.3C83.73 105.37 83.79 105.43 83.86 105.43C83.93 105.43 83.99 105.37 83.99 105.3C83.99 105.23 83.93 105.17 83.86 105.17C83.79 105.17 83.73 105.23 83.73 105.3ZM93.37 105.27C93.37 105.34 93.43 105.4 93.5 105.4C93.57 105.4 93.63 105.34 93.63 105.27C93.63 105.2 93.57 105.14 93.5 105.14C93.43 105.14 93.37 105.2 93.37 105.27ZM94.89 105.23C94.89 105.3 94.95 105.36 95.02 105.36C95.09 105.36 95.15 105.3 95.15 105.23C95.15 105.16 95.09 105.1 95.02 105.1C94.95 105.1 94.89 105.16 94.89 105.23ZM96.71 105.18C96.71 105.25 96.77 105.31 96.84 105.31C96.91 105.31 96.97 105.25 96.97 105.18C96.97 105.11 96.91 105.05 96.84 105.05C96.77 105.05 96.71 105.11 96.71 105.18ZM83.03 105.15C83.03 105.22 83.09 105.28 83.16 105.28C83.23 105.28 83.29 105.22 83.29 105.15C83.29 105.08 83.23 105.02 83.16 105.02C83.09 105.02 83.03 105.08 83.03 105.15ZM94.37 105.04C94.37 105.11 94.43 105.17 94.5 105.17C94.57 105.17 94.63 105.11 94.63 105.04C94.63 104.97 94.57 104.91 94.5 104.91C94.43 104.91 94.37 104.97 94.37 105.04ZM96.24 105.02C96.24 105.09 96.3 105.15 96.37 105.15C96.44 105.15 96.5 105.09 96.5 105.02C96.5 104.95 96.44 104.89 96.37 104.89C96.3 104.89 96.24 104.95 96.24 105.02ZM84.38 105.02C84.38 105.09 84.44 105.15 84.51 105.15C84.58 105.15 84.64 105.09 84.64 105.02C84.64 104.95 84.58 104.89 84.51 104.89C84.44 104.89 84.38 104.95 84.38 105.02ZM95.41 104.95C95.41 105.02 95.47 105.08 95.54 105.08C95.61 105.08 95.67 105.02 95.67 104.95C95.67 104.88 95.61 104.82 95.54 104.82C95.47 104.82 95.41 104.88 95.41 104.95ZM93.82 104.9C93.82 104.97 93.88 105.03 93.95 105.03C94.02 105.03 94.08 104.97 94.08 104.9C94.08 104.83 94.02 104.77 93.95 104.77C93.88 104.77 93.82 104.83 93.82 104.9ZM83.48 104.9C83.48 104.97 83.54 105.03 83.61 105.03C83.68 105.03 83.74 104.97 83.74 104.9C83.74 104.83 83.68 104.77 83.61 104.77C83.54 104.77 83.48 104.83 83.48 104.9ZM85.47 104.89C85.47 104.96 85.53 105.02 85.6 105.02C85.67 105.02 85.73 104.96 85.73 104.89C85.73 104.82 85.67 104.76 85.6 104.76C85.53 104.76 85.47 104.82 85.47 104.89ZM84.9 104.84C84.9 104.91 84.96 104.97 85.03 104.97C85.1 104.97 85.16 104.91 85.16 104.84C85.16 104.77 85.1 104.71 85.03 104.71C84.96 104.71 84.9 104.77 84.9 104.84ZM86.2 104.82C86.2 104.89 86.26 104.95 86.33 104.95C86.4 104.95 86.46 104.89 86.46 104.82C86.46 104.75 86.4 104.69 86.33 104.69C86.26 104.69 86.2 104.75 86.2 104.82ZM95.87 104.77C95.87 104.84 95.93 104.9 96 104.9C96.07 104.9 96.13 104.84 96.13 104.77C96.13 104.7 96.07 104.64 96 104.64C95.93 104.64 95.87 104.7 95.87 104.77ZM94.87 104.7C94.87 104.77 94.93 104.83 95 104.83C95.07 104.83 95.13 104.77 95.13 104.7C95.13 104.63 95.07 104.57 95 104.57C94.93 104.57 94.87 104.63 94.87 104.7ZM83.98 104.68C83.98 104.75 84.04 104.81 84.11 104.81C84.18 104.81 84.24 104.75 84.24 104.68C84.24 104.61 84.18 104.55 84.11 104.55C84.04 104.55 83.98 104.61 83.98 104.68ZM93.28 104.59C93.28 104.59 93.28 104.65 93.28 104.68C93.3 104.72 93.34 104.76 93.4 104.76C93.47 104.76 93.53 104.7 93.53 104.63C93.53 104.56 93.47 104.5 93.4 104.5C93.34 104.5 93.29 104.54 93.28 104.59ZM94.3 104.55C94.3 104.62 94.36 104.68 94.43 104.68C94.5 104.68 94.56 104.62 94.56 104.55C94.56 104.48 94.5 104.42 94.43 104.42C94.36 104.42 94.3 104.48 94.3 104.55ZM84.43 104.47C84.43 104.54 84.49 104.6 84.56 104.6C84.63 104.6 84.69 104.54 84.69 104.47C84.69 104.4 84.63 104.34 84.56 104.34C84.49 104.34 84.43 104.4 84.43 104.47ZM85.82 104.47C85.82 104.54 85.88 104.6 85.95 104.6C86.02 104.6 86.08 104.54 86.08 104.47C86.08 104.4 86.02 104.34 85.95 104.34C85.88 104.34 85.82 104.4 85.82 104.47ZM93.68 104.41C93.68 104.48 93.74 104.54 93.81 104.54C93.88 104.54 93.94 104.48 93.94 104.41C93.94 104.34 93.88 104.28 93.81 104.28C93.74 104.28 93.68 104.34 93.68 104.41ZM85.32 104.33C85.32 104.4 85.38 104.46 85.45 104.46C85.52 104.46 85.58 104.4 85.58 104.33C85.58 104.26 85.52 104.2 85.45 104.2C85.38 104.2 85.32 104.26 85.32 104.33ZM86.26 104.25C86.26 104.32 86.32 104.38 86.39 104.38C86.46 104.38 86.52 104.32 86.52 104.25C86.52 104.18 86.46 104.12 86.39 104.12C86.32 104.12 86.26 104.18 86.26 104.25ZM84.9 104.24C84.9 104.31 84.96 104.37 85.03 104.37C85.1 104.37 85.16 104.31 85.16 104.24C85.16 104.17 85.1 104.11 85.03 104.11C84.96 104.11 84.9 104.17 84.9 104.24ZM94.17 104.06C94.17 104.13 94.23 104.19 94.3 104.19C94.37 104.19 94.43 104.13 94.43 104.06C94.43 103.99 94.37 103.93 94.3 103.93C94.23 103.93 94.17 103.99 94.17 104.06ZM85.68 103.95C85.68 104.02 85.74 104.08 85.81 104.08C85.88 104.08 85.94 104.02 85.94 103.95C85.94 103.88 85.88 103.82 85.81 103.82C85.74 103.82 85.68 103.88 85.68 103.95ZM93.22 103.92C93.22 103.92 93.22 103.98 93.23 104C93.25 104.04 93.29 104.07 93.34 104.07C93.41 104.07 93.47 104.01 93.47 103.94C93.47 103.87 93.41 103.81 93.34 103.81C93.28 103.81 93.23 103.85 93.22 103.91M93.66 103.89C93.66 103.96 93.72 104.02 93.79 104.02C93.86 104.02 93.92 103.96 93.92 103.89C93.92 103.82 93.86 103.76 93.79 103.76C93.72 103.76 93.66 103.82 93.66 103.89ZM86.33 103.77C86.33 103.84 86.39 103.9 86.46 103.9C86.53 103.9 86.59 103.84 86.59 103.77C86.59 103.7 86.53 103.64 86.46 103.64C86.39 103.64 86.33 103.7 86.33 103.77ZM100.39 111.41C100.39 111.41 100.39 111.43 100.39 111.44C100.39 111.44 100.39 111.42 100.39 111.41ZM80.12 107.87C80.12 107.87 80.09 107.93 80.08 107.95C80.08 107.92 80.1 107.89 80.12 107.87ZM98.94 106.68C98.94 106.68 99.02 106.74 99.02 106.8C98.99 106.76 98.97 106.72 98.94 106.68ZM75.68 112.73C75.68 112.73 75.61 112.73 75.58 112.73C75.52 112.73 75.47 112.72 75.41 112.71C75.38 112.71 75.35 112.71 75.32 112.7C75.23 112.68 75.14 112.66 75.05 112.64C75.05 112.64 75.05 112.64 75.05 112.62C75.05 112.54 75.02 112.2 75.03 111.71C75.07 110.21 75.43 107.3 77.58 106.07L78.64 106.45L76.46 107.66C76.46 107.66 76.72 107.89 77.03 108.19C77.08 108.23 77.12 108.28 77.17 108.33C77.18 108.34 77.19 108.35 77.21 108.37C77.25 108.41 77.28 108.44 77.32 108.48C77.34 108.5 77.35 108.51 77.37 108.53C77.4 108.56 77.44 108.6 77.47 108.63C77.49 108.65 77.51 108.67 77.53 108.69C77.56 108.72 77.59 108.75 77.62 108.78C77.64 108.8 77.66 108.82 77.68 108.84C77.71 108.87 77.73 108.9 77.76 108.93C77.78 108.95 77.79 108.97 77.81 108.99C77.84 109.02 77.86 109.05 77.89 109.08C77.9 109.1 77.92 109.12 77.94 109.13C77.96 109.16 77.98 109.19 78 109.21C78.01 109.22 78.02 109.24 78.03 109.25C78.06 109.29 78.09 109.33 78.11 109.36C78.11 109.36 76.97 109.47 76.04 109.88C76.04 109.88 76.04 109.88 76.04 109.89C76.04 109.89 76.04 109.9 76.04 109.91C76.04 109.91 76.04 109.92 76.04 109.93C76.04 109.94 76.04 109.95 76.05 109.97C76.05 109.97 76.05 109.98 76.05 109.99C76.12 110.19 76.3 110.63 76.62 111.05C76.66 111.1 76.69 111.14 76.73 111.19C76.85 111.33 76.98 111.46 77.13 111.58C77.33 111.74 77.57 111.88 77.84 111.97C77.84 111.97 77.41 112.35 76.75 112.58C76.59 112.63 76.42 112.68 76.23 112.71C76.2 112.71 76.17 112.72 76.15 112.72C76.11 112.72 76.07 112.72 76.03 112.73C75.99 112.73 75.95 112.73 75.91 112.73C75.87 112.73 75.84 112.73 75.8 112.73C75.75 112.73 75.7 112.73 75.66 112.73M103.61 112.58C103.61 112.58 103.54 112.58 103.51 112.58C103.47 112.58 103.42 112.58 103.38 112.57H103.36C103.25 112.55 103.14 112.53 103.04 112.51C102.24 112.3 101.71 111.83 101.71 111.83C102.04 111.73 102.33 111.54 102.56 111.32C102.61 111.27 102.66 111.22 102.71 111.17C102.72 111.16 102.74 111.14 102.75 111.12C102.78 111.08 102.82 111.04 102.85 111.01C102.86 110.99 102.88 110.98 102.89 110.96C102.93 110.91 102.97 110.86 103 110.81C103 110.81 103 110.81 103 110.8C103.04 110.75 103.07 110.7 103.1 110.64C103.11 110.62 103.12 110.6 103.13 110.59C103.15 110.55 103.17 110.52 103.19 110.48C103.19 110.46 103.21 110.44 103.22 110.43C103.25 110.38 103.27 110.34 103.29 110.3C103.29 110.3 103.29 110.29 103.29 110.28C103.31 110.23 103.33 110.19 103.35 110.15C103.35 110.14 103.36 110.12 103.37 110.11C103.38 110.08 103.4 110.05 103.41 110.02C103.41 110.01 103.42 110 103.43 109.98C103.44 109.95 103.46 109.91 103.47 109.89C103.48 109.86 103.49 109.84 103.5 109.82C103.5 109.82 103.5 109.81 103.5 109.8C103.5 109.79 103.51 109.77 103.51 109.76C103.51 109.76 103.51 109.76 103.51 109.75V109.74C102.58 109.32 101.44 109.22 101.44 109.22C101.46 109.18 101.49 109.14 101.52 109.1C101.53 109.09 101.54 109.07 101.55 109.06C101.57 109.03 101.6 109 101.62 108.97C101.63 108.95 101.65 108.93 101.66 108.92C101.69 108.89 101.72 108.86 101.74 108.83C101.76 108.81 101.77 108.79 101.79 108.78C101.82 108.74 101.86 108.71 101.89 108.67C101.9 108.66 101.91 108.64 101.93 108.63C102.03 108.52 102.14 108.42 102.25 108.31C102.25 108.31 102.26 108.3 102.27 108.29C102.32 108.24 102.37 108.2 102.41 108.15C102.41 108.15 102.42 108.14 102.43 108.13C102.48 108.08 102.53 108.03 102.58 107.99C102.85 107.73 103.06 107.55 103.06 107.55L100.88 106.34L101.94 105.96C103.87 107.06 104.36 109.52 104.46 111.09C104.46 111.19 104.47 111.29 104.48 111.39C104.48 111.39 104.48 111.4 104.48 111.41C104.48 111.5 104.48 111.58 104.48 111.66V111.68C104.48 111.85 104.48 111.99 104.48 112.11V112.13C104.48 112.19 104.48 112.24 104.48 112.29C104.48 112.34 104.48 112.38 104.48 112.42C104.48 112.45 104.48 112.47 104.48 112.49C104.48 112.49 104.48 112.49 104.48 112.5V112.52C104.39 112.55 104.31 112.57 104.22 112.58C104.19 112.58 104.17 112.59 104.15 112.59C104.09 112.6 104.02 112.61 103.96 112.61C103.94 112.61 103.91 112.61 103.89 112.61C103.83 112.61 103.77 112.61 103.71 112.61H103.67C103.67 112.61 103.6 112.61 103.56 112.61M81.61 105.92C81.61 105.92 81.55 105.96 81.52 105.99C81.54 105.96 81.57 105.93 81.61 105.92ZM95.4 104.36C95.4 104.36 95.42 104.36 95.43 104.36C95.48 104.36 95.52 104.39 95.54 104.42C95.49 104.4 95.45 104.38 95.4 104.36ZM94.79 104.11C94.79 104.11 94.8 104.11 94.81 104.11C94.85 104.11 94.88 104.13 94.91 104.16C94.87 104.15 94.83 104.13 94.79 104.12M93.21 104.71C93.21 104.71 93.2 104.68 93.2 104.66C93.2 104.65 93.2 104.64 93.2 104.62C93.19 104.42 93.17 104.22 93.14 104.03C93.14 104.01 93.12 103.99 93.12 103.97C93.12 103.97 93.12 103.95 93.12 103.94C93.1 103.82 93.09 103.71 93.07 103.59C93.65 103.73 94.22 103.9 94.78 104.11C94.72 104.11 94.67 104.17 94.67 104.24C94.67 104.31 94.73 104.37 94.8 104.37C94.87 104.37 94.93 104.31 94.93 104.24C94.93 104.21 94.92 104.18 94.9 104.16C95.07 104.23 95.23 104.29 95.4 104.36C95.34 104.37 95.3 104.43 95.3 104.49C95.3 104.56 95.36 104.62 95.43 104.62C95.5 104.62 95.56 104.56 95.56 104.49C95.56 104.47 95.56 104.44 95.54 104.43C96.61 104.91 97.61 105.52 98.52 106.25C98.64 106.4 98.75 106.56 98.86 106.72C98.84 106.72 98.83 106.71 98.81 106.71C98.74 106.71 98.68 106.77 98.68 106.84C98.68 106.91 98.74 106.97 98.81 106.97C98.88 106.97 98.94 106.91 98.94 106.84C99.79 108.18 100.19 109.81 100.31 111.46C100.3 111.4 100.25 111.36 100.19 111.36C100.12 111.36 100.06 111.42 100.06 111.49C100.06 111.56 100.12 111.62 100.19 111.62C100.26 111.62 100.31 111.57 100.32 111.5C100.52 114.37 99.89 117.25 99.39 118.65C98.55 121.01 99.39 121.49 99.39 121.49L98.4 123.85C100.7 123 102.29 121.77 103.37 120.44C102.55 123.78 100.52 126.65 97.77 128.56L95.13 128.31L95.85 129.68C94.03 130.55 92.01 131.04 89.86 131.04C87.71 131.04 85.76 130.57 83.97 129.73L84.72 128.32L81.96 128.58C79.38 126.79 77.42 124.15 76.51 121.06C77.58 122.21 79.04 123.26 81.08 124.01L80.09 121.65C80.09 121.65 80.93 121.17 80.09 118.81C79.37 116.8 78.38 111.7 80 108.02C80 108.1 80.06 108.15 80.13 108.15C80.2 108.15 80.26 108.09 80.26 108.02C80.26 107.95 80.2 107.89 80.13 107.89C80.09 107.89 80.06 107.91 80.04 107.93C80.26 107.45 80.52 106.99 80.84 106.57C81.06 106.38 81.29 106.2 81.52 106.02C81.52 106.04 81.51 106.06 81.51 106.08C81.51 106.15 81.57 106.21 81.64 106.21C81.71 106.21 81.77 106.15 81.77 106.08C81.77 106.01 81.71 105.95 81.64 105.95C81.64 105.95 81.62 105.95 81.61 105.95C83.08 104.86 84.78 104.06 86.61 103.62C86.48 104.35 86.44 105.13 86.46 105.87C86.44 105.82 86.4 105.79 86.34 105.79C86.27 105.79 86.21 105.85 86.21 105.92C86.21 105.99 86.27 106.05 86.34 106.05C86.4 106.05 86.44 106.01 86.46 105.96C86.46 105.93 86.46 105.9 86.46 105.87C86.46 105.89 86.47 105.9 86.47 105.92C86.47 105.94 86.47 105.95 86.47 105.96C86.52 107.53 86.83 108.93 87.08 109.37C87.75 110.56 89 110.93 89 110.93L89.85 112.53L90.7 110.93C90.7 110.93 91.95 110.56 92.62 109.37C92.84 108.98 93.1 107.86 93.2 106.52C93.2 106.51 93.2 106.5 93.2 106.48C93.2 106.46 93.2 106.44 93.21 106.43C93.21 106.46 93.21 106.49 93.21 106.52C93.23 106.57 93.28 106.61 93.33 106.61C93.4 106.61 93.46 106.55 93.46 106.48C93.46 106.41 93.4 106.35 93.33 106.35C93.28 106.35 93.23 106.38 93.21 106.43C93.25 105.88 93.25 105.3 93.21 104.73M87.97 106.3L89.32 105.41L87.61 104.57C87.61 104.57 88.25 103.71 89.32 103.38L89.06 103.26L87.97 102.77C87.97 102.77 88.77 101.84 89.84 101.84C90.91 101.84 91.71 102.77 91.71 102.77L90.62 103.26L90.36 103.38C91.43 103.71 92.08 104.57 92.08 104.57L90.36 105.41L91.71 106.3C90.76 106.65 89.91 106.76 89.84 106.77C89.77 106.77 88.92 106.65 87.97 106.3ZM87.2 101.78C85.03 102.16 83.01 102.98 81.22 104.17V104.15C81.22 104.15 74.18 102.69 73.85 112.69C73.85 112.69 73.81 112.94 73.8 113.36C73.78 117.56 75.6 119.79 75.6 119.79C74.62 118.86 74 117.92 73.59 117.09C73.53 117.67 73.5 118.27 73.5 118.87C73.5 128.43 80.82 136.18 89.84 136.18C98.86 136.18 106.18 128.43 106.18 118.87C106.18 118.05 106.12 117.25 106.02 116.46C105.65 117.43 104.97 118.6 103.74 119.79C103.74 119.79 105.6 117.52 105.54 113.24C105.54 112.67 105.54 112.27 105.57 112C105 102.61 98.22 104.01 98.22 104.01C96.49 102.92 94.54 102.15 92.46 101.79C91.94 100.83 91.11 100.18 89.82 100.18C88.53 100.18 87.7 100.83 87.18 101.79M52.39 74.53C51.39 74.78 50.42 75.15 49.5 75.63C48.57 76.11 47.78 76.71 47.13 77.4C46.48 78.1 46.02 78.9 45.76 79.78C45.5 80.66 45.53 81.63 45.86 82.66C46.12 83.49 46.5 84.16 46.99 84.66C47.47 85.15 48.03 85.53 48.65 85.79C49.25 86.05 49.91 86.22 50.6 86.3C51.29 86.38 51.97 86.43 52.62 86.44C53.3 86.45 53.91 86.47 54.44 86.5C54.95 86.53 55.39 86.59 55.75 86.69C56.09 86.79 56.36 86.92 56.56 87.08C56.74 87.22 56.86 87.42 56.92 87.69C56.99 87.98 56.99 88.25 56.92 88.48C56.85 88.72 56.74 88.91 56.58 89.08C56.41 89.26 56.18 89.42 55.92 89.55C55.64 89.69 55.34 89.8 55.03 89.88C54.34 90.06 53.61 90.08 52.8 89.94C52 89.8 51.3 89.55 50.73 89.19L50.44 89.01L50.27 89.3C49.41 90.78 49 91.51 48.2 93.01L48.04 93.3L48.34 93.45C49.43 94 50.69 94.33 52.07 94.41C52.32 94.43 52.58 94.43 52.83 94.43C53.94 94.43 55.04 94.29 56.12 94C57.03 93.76 57.9 93.41 58.7 92.97C59.51 92.52 60.22 91.96 60.79 91.3C61.37 90.63 61.8 89.85 62.05 88.98C62.31 88.1 62.33 87.11 62.11 86.04C61.91 85.09 61.54 84.32 60.99 83.77C60.45 83.22 59.81 82.8 59.09 82.51C58.38 82.23 57.61 82.05 56.8 81.97C55.94 81.89 55.2 81.84 54.53 81.82C54.04 81.8 53.59 81.78 53.18 81.76C52.79 81.73 52.45 81.69 52.16 81.62C51.9 81.55 51.69 81.46 51.53 81.33C51.39 81.21 51.29 81.04 51.22 80.81C51.15 80.53 51.15 80.3 51.24 80.1C51.34 79.87 51.49 79.66 51.68 79.48C51.88 79.3 52.13 79.14 52.41 79.02C52.71 78.89 53.02 78.79 53.33 78.71C53.92 78.56 54.57 78.54 55.27 78.64C55.96 78.74 56.55 78.97 57.03 79.32L57.3 79.51L57.49 79.24C58.47 77.8 58.97 77.1 60.01 75.68L60.24 75.37L59.9 75.2C58.8 74.64 57.56 74.32 56.21 74.22C55.91 74.2 55.61 74.19 55.31 74.19C54.29 74.19 53.31 74.31 52.37 74.55M117.38 77.54L117.7 77.6C119.91 78.04 121.03 78.28 123.12 78.79L119.73 92.84L120.05 92.92C121.81 93.34 122.67 93.57 124.44 94.06L124.75 94.15L128.62 80.22C130.69 80.8 131.8 81.13 133.96 81.83L134.27 81.93L135.62 77.74L135.31 77.64C128.67 75.51 125.39 74.65 118.56 73.29L118.24 73.23L117.38 77.55V77.54ZM108.06 90.61L108.38 90.66C110.18 90.92 111.06 91.07 112.86 91.4L113.18 91.46L116.57 72.91L116.25 72.85C114.2 72.48 113.19 72.31 111.13 72.01L110.81 71.96L108.07 90.62L108.06 90.61ZM68.55 76.09C69.22 75.99 69.65 75.94 70.4 75.84C70.83 75.78 71.25 75.76 71.66 75.76C72.07 75.78 72.41 75.81 72.72 75.92C73.01 76.02 73.25 76.17 73.43 76.38C73.61 76.58 73.71 76.86 73.75 77.22C73.79 77.58 73.75 77.88 73.61 78.13C73.47 78.39 73.28 78.6 73.01 78.78C72.73 78.97 72.4 79.12 72.02 79.23C71.63 79.34 71.22 79.43 70.78 79.49C70.08 79.58 69.68 79.64 69.07 79.73L68.54 76.12L68.55 76.09ZM70.28 71.62C67.15 72.02 65.63 72.26 62.53 72.82L62.21 72.88L65.58 91.44L65.9 91.38C67.68 91.06 68.55 90.91 70.35 90.65L70.67 90.6L69.68 83.81C70.41 83.7 70.87 83.64 71.69 83.54C72.72 83.41 73.71 83.18 74.64 82.87C75.59 82.55 76.43 82.13 77.14 81.6C77.86 81.06 78.44 80.38 78.83 79.58C79.24 78.77 79.4 77.79 79.32 76.68C79.24 75.58 78.94 74.65 78.44 73.93C77.93 73.21 77.26 72.64 76.43 72.25C75.61 71.86 74.66 71.62 73.61 71.53C73.21 71.49 72.8 71.48 72.38 71.48C71.7 71.48 70.99 71.53 70.27 71.62M86.84 70.43C84.75 70.46 83.74 70.5 81.67 70.6L81.35 70.62L82.31 89.46L82.63 89.44C84.44 89.35 85.33 89.32 87.15 89.29H87.47L87.16 70.43H86.83H86.84ZM98.18 78.48C97.37 78.43 96.91 78.4 96.19 78.37L96.36 74.78C97.22 74.82 97.75 74.85 98.7 74.91C99.06 74.93 99.43 74.98 99.81 75.06C100.17 75.13 100.5 75.25 100.78 75.41C101.04 75.55 101.25 75.74 101.4 75.98C101.54 76.2 101.6 76.49 101.57 76.84C101.54 77.23 101.42 77.53 101.22 77.75C101.01 77.98 100.76 78.15 100.45 78.26C100.12 78.38 99.76 78.45 99.37 78.48C99.14 78.49 98.92 78.5 98.7 78.5C98.52 78.5 98.35 78.5 98.17 78.48M90.65 89.28H90.97C92.74 89.31 93.6 89.33 95.36 89.41H95.68L96.01 82.2C96.4 82.22 96.69 82.23 97.12 82.26C98.6 85.14 99.31 86.61 100.65 89.59L100.73 89.76L100.92 89.78C103.03 89.97 104.05 90.08 106.15 90.35L106.73 90.42L106.48 89.89C104.99 86.64 104.18 85.01 102.54 81.96C103.72 81.68 104.7 81.19 105.47 80.49C106.36 79.68 106.89 78.62 107.05 77.33C107.19 76.23 107.05 75.26 106.66 74.46C106.27 73.66 105.69 72.98 104.93 72.45C104.18 71.92 103.31 71.52 102.33 71.25C101.36 70.98 100.35 70.81 99.31 70.74C96.05 70.52 94.46 70.46 91.19 70.42H90.86L90.62 89.28H90.65ZM47.7 61.94L44.51 62.76L47.57 63.97L47.36 67.25L49.46 64.71L52.52 65.92L50.76 63.14L52.86 60.6L49.67 61.42L47.91 58.64L47.7 61.92V61.94ZM130.3 61.39L127.12 60.56L129.21 63.1L127.44 65.87L130.5 64.67L132.59 67.21L132.4 63.93L135.46 62.73L132.28 61.9L132.09 58.62L130.32 61.39H130.3ZM116.34 63.57C116.93 63.65 117.23 63.7 117.82 63.79C118.05 62.15 118.17 61.33 118.4 59.68C118.41 59.68 118.42 59.68 118.43 59.68C119.22 61.48 119.61 62.38 120.35 64.18C121.04 64.3 121.39 64.35 122.08 64.47C122.52 61.97 122.73 60.72 123.17 58.22C122.56 58.11 122.25 58.06 121.64 57.96C121.38 59.59 121.25 60.41 121 62.05C120.99 62.05 120.98 62.05 120.97 62.05C120.22 60.25 119.83 59.35 119.03 57.55C118.31 57.44 117.95 57.39 117.23 57.29C116.87 59.8 116.69 61.06 116.33 63.57M64.52 57.03C64.32 58.76 64.23 59.62 64.04 61.35C64.03 61.35 64.02 61.35 64.01 61.35C63.32 59.74 62.97 58.94 62.26 57.34C61.6 57.44 61.27 57.48 60.62 57.58C60.41 59.32 60.31 60.19 60.12 61.93C60.12 61.93 60.1 61.93 60.09 61.93C59.42 60.33 59.08 59.53 58.39 57.93C57.71 58.04 57.37 58.1 56.7 58.22C57.88 60.59 58.45 61.78 59.58 64.16C60.19 64.06 60.49 64.01 61.1 63.92C61.33 62.15 61.46 61.26 61.72 59.48C61.72 59.48 61.74 59.48 61.75 59.48C62.51 61.1 62.89 61.91 63.63 63.54C64.23 63.45 64.54 63.41 65.14 63.33C65.53 60.72 65.73 59.41 66.17 56.8C65.51 56.88 65.18 56.92 64.52 57.01M112.01 61.75C111.74 61.72 111.5 61.64 111.29 61.52C111.08 61.4 110.9 61.24 110.76 61.05C110.62 60.86 110.52 60.64 110.45 60.39C110.38 60.14 110.37 59.87 110.4 59.59C110.43 59.32 110.5 59.07 110.62 58.84C110.73 58.61 110.88 58.42 111.07 58.27C111.26 58.12 111.47 58.01 111.7 57.94C111.94 57.87 112.19 57.85 112.47 57.88C112.75 57.91 113 57.99 113.21 58.12C113.43 58.25 113.61 58.4 113.75 58.59C113.89 58.78 113.99 59 114.05 59.25C114.11 59.5 114.12 59.76 114.09 60.03C114.05 60.32 113.98 60.57 113.85 60.8C113.73 61.03 113.58 61.22 113.39 61.37C113.2 61.52 113 61.63 112.76 61.7C112.6 61.75 112.43 61.77 112.25 61.77C112.17 61.77 112.09 61.77 112 61.76M111.17 56.58C110.72 56.69 110.32 56.87 109.97 57.12C109.62 57.37 109.34 57.69 109.12 58.08C108.9 58.47 108.77 58.92 108.72 59.42C108.67 59.92 108.72 60.38 108.85 60.81C108.98 61.24 109.19 61.62 109.47 61.95C109.75 62.28 110.09 62.54 110.49 62.75C110.89 62.96 111.34 63.09 111.84 63.15C112.33 63.21 112.8 63.18 113.25 63.08C113.7 62.97 114.09 62.79 114.44 62.54C114.79 62.29 115.08 61.97 115.31 61.58C115.54 61.19 115.69 60.75 115.76 60.26C115.83 59.76 115.8 59.29 115.68 58.86C115.56 58.43 115.36 58.05 115.08 57.73C114.8 57.4 114.45 57.14 114.03 56.93C113.61 56.72 113.14 56.59 112.63 56.53C112.44 56.51 112.26 56.5 112.08 56.5C111.77 56.5 111.47 56.53 111.18 56.6M69.59 58.14C70.01 58.97 70.21 59.39 70.62 60.22C69.97 60.29 69.65 60.32 69 60.39C69.23 59.49 69.35 59.04 69.59 58.14ZM68.67 56.54C67.85 59.19 67.46 60.51 66.71 63.16C67.38 63.08 67.71 63.04 68.38 62.96C68.51 62.44 68.57 62.19 68.71 61.67C69.7 61.56 70.19 61.5 71.18 61.41C71.43 61.89 71.55 62.12 71.8 62.6C72.48 62.53 72.82 62.5 73.5 62.44C72.22 60 71.56 58.79 70.21 56.38C69.6 56.44 69.29 56.48 68.67 56.54ZM103.51 57.16C104.25 57.21 104.62 57.24 105.35 57.3C105.19 59.31 105.11 60.31 104.95 62.32C105.56 62.37 105.87 62.39 106.49 62.45C106.67 60.44 106.76 59.44 106.93 57.43C107.67 57.5 108.04 57.53 108.77 57.6C108.82 57.08 108.85 56.82 108.9 56.3C106.78 56.09 105.72 56 103.6 55.85C103.56 56.37 103.54 56.63 103.51 57.15M76.45 55.67C76.14 55.69 75.84 55.75 75.54 55.85C75.24 55.95 74.98 56.08 74.75 56.26C74.52 56.44 74.34 56.66 74.22 56.92C74.09 57.18 74.04 57.49 74.07 57.84C74.09 58.13 74.16 58.36 74.27 58.55C74.38 58.74 74.52 58.9 74.69 59.03C74.86 59.16 75.04 59.26 75.25 59.33C75.45 59.4 75.66 59.47 75.87 59.52C76.09 59.57 76.28 59.62 76.45 59.66C76.62 59.71 76.77 59.76 76.88 59.82C77 59.88 77.09 59.95 77.15 60.03C77.22 60.11 77.25 60.21 77.26 60.33C77.26 60.46 77.26 60.56 77.21 60.66C77.17 60.75 77.11 60.83 77.03 60.89C76.95 60.95 76.86 61 76.75 61.03C76.64 61.06 76.53 61.08 76.42 61.09C76.17 61.11 75.91 61.06 75.64 60.95C75.37 60.84 75.15 60.7 74.98 60.52C74.61 60.96 74.42 61.18 74.05 61.62C74.36 61.89 74.73 62.08 75.17 62.21C75.61 62.33 76.05 62.38 76.51 62.35C76.82 62.33 77.12 62.27 77.41 62.16C77.7 62.06 77.95 61.91 78.17 61.73C78.39 61.54 78.56 61.31 78.67 61.04C78.79 60.77 78.84 60.45 78.82 60.09C78.8 59.77 78.72 59.51 78.58 59.31C78.44 59.11 78.27 58.94 78.06 58.81C77.85 58.68 77.63 58.58 77.39 58.51C77.15 58.44 76.91 58.37 76.69 58.32C76.53 58.28 76.39 58.25 76.27 58.21C76.14 58.17 76.03 58.13 75.94 58.09C75.85 58.04 75.78 57.98 75.72 57.92C75.67 57.85 75.64 57.77 75.63 57.66C75.63 57.54 75.64 57.43 75.7 57.34C75.75 57.26 75.82 57.19 75.9 57.13C75.98 57.07 76.08 57.03 76.18 57.01C76.28 56.98 76.39 56.97 76.5 56.96C76.7 56.95 76.92 56.98 77.14 57.06C77.36 57.14 77.55 57.27 77.7 57.42C78.08 56.98 78.26 56.76 78.64 56.33C78.34 56.09 77.99 55.92 77.59 55.81C77.27 55.72 76.96 55.68 76.66 55.68C76.59 55.68 76.51 55.68 76.44 55.68M98.88 55.64C98.44 55.78 98.05 55.98 97.72 56.26C97.39 56.54 97.12 56.88 96.93 57.28C96.73 57.69 96.63 58.14 96.61 58.65C96.59 59.15 96.67 59.61 96.83 60.03C96.99 60.45 97.22 60.8 97.52 61.11C97.82 61.41 98.18 61.66 98.6 61.84C99.02 62.02 99.49 62.12 100 62.15C100.49 62.18 100.95 62.15 101.37 62.08C101.79 62 102.17 61.9 102.49 61.76C102.58 60.42 102.63 59.75 102.71 58.41C101.64 58.34 101.1 58.31 100.03 58.25C100 58.74 99.99 58.99 99.96 59.48C100.45 59.51 100.7 59.52 101.19 59.55C101.16 60.01 101.15 60.24 101.12 60.7C100.98 60.75 100.82 60.79 100.66 60.8C100.49 60.82 100.32 60.82 100.14 60.81C99.83 60.79 99.55 60.73 99.31 60.62C99.07 60.51 98.87 60.36 98.71 60.18C98.55 60 98.43 59.78 98.36 59.53C98.28 59.28 98.26 59.01 98.27 58.72C98.28 58.43 98.34 58.17 98.45 57.93C98.56 57.69 98.7 57.49 98.88 57.32C99.06 57.15 99.27 57.02 99.51 56.94C99.75 56.85 100.01 56.82 100.29 56.83C100.61 56.85 100.89 56.92 101.14 57.04C101.39 57.17 101.58 57.32 101.72 57.5C102.14 57.09 102.36 56.88 102.79 56.46C102.53 56.19 102.18 55.96 101.74 55.78C101.3 55.6 100.82 55.5 100.3 55.47C100.22 55.47 100.13 55.47 100.05 55.47C99.64 55.47 99.25 55.53 98.88 55.64ZM83.76 55.47C83.79 56.43 83.81 56.91 83.83 57.87C82.82 57.9 82.31 57.92 81.3 57.97C81.26 57.01 81.23 56.53 81.19 55.57C80.55 55.6 80.24 55.61 79.6 55.65C79.74 58.18 79.8 59.45 79.94 61.98C80.55 61.95 80.86 61.93 81.48 61.9C81.43 60.84 81.41 60.31 81.36 59.25C82.37 59.2 82.87 59.18 83.88 59.15C83.91 60.21 83.93 60.74 83.97 61.8C84.58 61.78 84.89 61.77 85.51 61.76C85.45 59.22 85.42 57.96 85.36 55.42C84.72 55.43 84.4 55.44 83.77 55.47M86.72 55.4C86.76 57.94 86.78 59.2 86.82 61.74C87.44 61.73 87.75 61.73 88.37 61.72C88.35 59.18 88.34 57.92 88.32 55.38C87.68 55.38 87.36 55.39 86.72 55.4ZM89.68 55.37C89.68 57.91 89.68 59.18 89.68 61.71C90.28 61.71 90.58 61.71 91.17 61.71C91.17 60.05 91.17 59.22 91.17 57.56H91.2C92.24 59.23 92.75 60.06 93.74 61.74C94.44 61.75 94.79 61.76 95.48 61.78C95.56 59.25 95.59 57.98 95.67 55.44C95.05 55.42 94.74 55.41 94.13 55.4C94.11 57.06 94.1 57.88 94.08 59.54H94.05C93.05 57.86 92.54 57.03 91.5 55.36C90.89 55.36 90.54 55.36 90.01 55.36H89.68V55.37ZM130.95 46.86L127.68 46.49L130.1 48.71L128.73 51.7L131.59 50.08L134.01 52.31L133.36 49.08L136.22 47.46L132.95 47.08L132.3 43.85L130.93 46.84L130.95 46.86ZM46.76 47.09L43.49 47.49L46.37 49.09L45.74 52.32L48.15 50.08L51.03 51.68L49.64 48.7L52.05 46.46L48.78 46.86L47.39 43.88L46.76 47.11V47.09ZM116.92 45.57L113.65 45.32L116.15 47.44L114.91 50.47L117.7 48.75L120.2 50.87L119.42 47.68L122.21 45.96L118.94 45.71L118.16 42.53L116.92 45.56V45.57ZM60.79 45.72L57.52 45.99L60.32 47.69L59.57 50.88L62.05 48.74L64.85 50.44L63.58 47.42L66.06 45.28L62.79 45.55L61.52 42.53L60.77 45.72H60.79ZM102.89 44.78L99.62 44.66L102.2 46.68L101.08 49.75L103.79 47.92L106.36 49.94L105.46 46.8L108.17 44.97L104.9 44.85L104 41.71L102.88 44.78H102.89ZM74.83 44.85L71.56 44.99L74.28 46.79L73.41 49.94L75.97 47.91L78.7 49.72L77.56 46.66L80.12 44.63L76.85 44.77L75.7 41.71L74.83 44.86V44.85ZM88.92 44.54H85.65L88.3 46.46L87.3 49.57L89.94 47.64L92.59 49.55L91.57 46.45L94.21 44.52H90.94L89.92 41.43L88.92 44.54ZM89.84 29.37L87.92 29.59C87.92 29.59 87.48 30.47 87.26 31.97C87.23 32.19 87.2 32.43 87.18 32.69C87.16 32.98 87.14 33.29 87.14 33.62C87.14 33.86 87.14 34.09 87.16 34.31C87.17 34.49 87.19 34.66 87.21 34.82C87.4 36.42 87.91 37.4 87.91 37.4L97.43 36.45L96.04 34.95L89.45 35.59C89.45 35.59 89.23 35.46 89.07 34.82C89.02 34.63 88.98 34.39 88.96 34.1C88.94 33.89 88.93 33.64 88.93 33.37C88.93 33.03 88.95 32.74 88.97 32.49C88.99 32.3 89.02 32.13 89.05 31.98C89.2 31.24 89.44 31.04 89.44 31.04L90.24 30.95C90.33 30.32 90.32 29.75 90.29 29.33L89.82 29.38L89.84 29.37ZM94.08 29.08C94.14 29.67 94.13 30.25 94.11 30.7L94.77 30.67V32.19L96.39 32.01V28.87L94.08 29.09V29.08ZM72.3 31.31L69.03 31.62L71.86 33.3L71.14 36.51L73.61 34.34L76.44 36.02L75.14 33L77.61 30.83L74.33 31.14L73.03 28.12L72.31 31.33L72.3 31.31ZM105.55 31.11L102.28 30.79L104.74 32.97L103.42 35.99L106.26 34.32L108.72 36.5L108.01 33.29L110.85 31.62L107.57 31.3L106.86 28.09L105.54 31.11H105.55ZM80.94 26.87L82.33 28.37L83.94 28.27L84.11 34.55L85.73 34.36L86.31 34.29C86.29 33.87 86.27 33.28 86.32 32.67L85.73 32.74V31.96L85.58 28.16L90.84 27.82C90.84 27.82 91.06 27.95 91.21 28.57C91.26 28.77 91.3 29.01 91.32 29.31C91.34 29.52 91.35 29.77 91.35 30.04C91.35 30.38 91.33 30.67 91.31 30.92C91.31 31.01 91.29 31.09 91.28 31.17C91.16 31.99 90.92 32.29 90.86 32.36C90.85 32.37 90.84 32.38 90.84 32.38L90.04 32.48C89.99 32.83 89.95 33.41 90 34.1L90.85 33.99L92.38 33.82C92.38 33.82 92.87 32.84 93.07 31.18C93.09 31.03 93.1 30.88 93.12 30.73C93.14 30.44 93.16 30.13 93.16 29.8C93.16 29.56 93.16 29.33 93.14 29.11C93.13 28.93 93.11 28.75 93.09 28.58C92.9 26.99 92.39 26.02 92.39 26.02L80.95 26.87H80.94ZM43.84 106.74L42.79 102.67C43.35 102.46 43.91 102.26 44.48 102.06C47.58 111.54 51.39 120.2 55.86 127.92C64.28 142.48 75.07 153.71 87.94 161.32L89.94 162.5L91.94 161.32C104.8 153.71 115.6 142.47 124.02 127.92C128.48 120.2 132.29 111.54 135.39 102.06C136.04 102.29 136.7 102.53 137.35 102.77C136.05 106.7 135.27 108.52 133.39 113.25H133.38C131.09 118.81 128.54 124.04 125.73 128.9C117.14 143.75 106.11 155.23 92.95 163.01L89.94 164.79L86.93 163.01C73.77 155.23 62.74 143.75 54.15 128.9C51.35 124.05 48.8 118.84 46.52 113.29L43.85 106.73L43.84 106.74ZM86.04 100.2C86.24 99.95 86.45 99.73 86.69 99.53V94.25C87.77 94.22 88.85 94.21 89.94 94.21C91.03 94.21 92.11 94.22 93.19 94.25V99.84C93.3 99.95 93.4 100.07 93.5 100.19C95.28 100.58 96.98 101.25 98.57 102.18C98.74 102.18 98.91 102.16 99.08 102.16C99.27 102.16 99.47 102.16 99.68 102.18V94.56C101.85 94.72 104.01 94.92 106.17 95.18V106.83C106.87 108.36 107.26 110.23 107.34 112.43C107.37 112.72 107.44 113.39 107.39 114.31C107.74 115.81 107.92 117.36 107.92 118.91C107.92 121.81 107.31 124.6 106.16 127.14V139.14C108.53 136.51 110.69 133.79 112.65 131.08V96.14C113.85 96.34 115.06 96.56 116.25 96.8C117.22 96.99 118.18 97.19 119.14 97.41V121.02C121.91 116.2 124.05 111.7 125.63 108.02V99.02C127.65 99.57 129.66 100.17 131.65 100.81C124.53 122.59 111.99 144.9 89.92 157.95C67.86 144.9 55.31 122.59 48.19 100.81C50.18 100.17 52.19 99.57 54.2 99.02V107.28C55.75 110.97 57.89 115.58 60.69 120.54V97.41C61.65 97.2 62.62 97 63.58 96.8C64.78 96.56 65.98 96.34 67.18 96.14V130.74C69.14 133.48 71.3 136.23 73.67 138.89V127.83C72.31 125.12 71.59 122.08 71.59 118.93C71.59 117.68 71.71 116.42 71.94 115.2C71.81 113.9 71.91 112.92 71.94 112.61C72.04 109.87 72.62 107.65 73.67 105.97V95.21C75.83 94.95 77.99 94.74 80.16 94.59V102.34H80.21C80.38 102.34 80.54 102.34 80.71 102.36C82.37 101.36 84.15 100.64 86.02 100.23M28.69 102.15L12.86 96.06L29.76 89.41C29.76 89.41 29.81 89.37 29.84 89.35L36.42 105.23C36.42 105.23 37.85 108.18 40.28 107.66C41.05 107.49 41.69 107.34 42.2 107.21L44.74 113.81L25.69 119.15L28.69 102.14V102.15ZM143.41 105.23L150.03 89.24C150.1 89.29 150.18 89.35 150.25 89.41L167.14 96.06L151.31 102.15L154.31 119.16L134.91 113.72L137.62 107.06C138.3 107.24 138.31 107.43 139.4 107.66C141.83 108.18 143.4 105.23 143.4 105.23H143.41ZM27.73 79.71C30.26 78.66 32.8 77.68 35.37 76.77C35.45 76.74 35.53 76.72 35.6 76.69C36.41 76.4 37.22 76.12 38.03 75.85C38.34 75.74 38.65 75.64 38.97 75.54C39.91 75.23 40.86 74.92 41.81 74.63C73.14 64.92 106.68 64.92 138.01 74.63C138.96 74.92 139.91 75.23 140.85 75.54H140.86C141.17 75.64 141.48 75.75 141.79 75.85C142.51 76.09 143.23 76.34 143.96 76.6C144.29 76.72 144.63 76.84 144.96 76.96C147.35 77.82 149.73 78.74 152.09 79.72C151.07 82.17 150.06 84.62 149.05 87.07C148.98 87.25 148.9 87.42 148.83 87.6C146.71 92.72 144.59 97.84 142.47 102.97C140.3 102.07 138.11 101.23 135.91 100.45C135.61 100.34 135.32 100.24 135.02 100.14C134.99 100.13 134.96 100.12 134.92 100.1C134.65 100.01 134.39 99.92 134.12 99.83C134.07 99.81 134.03 99.8 133.98 99.78C133.72 99.69 133.47 99.61 133.21 99.52C133.16 99.5 133.12 99.49 133.07 99.47C132.77 99.37 132.48 99.27 132.18 99.18C104.41 90.2 74.49 90.3 46.76 99.47C46.71 99.49 46.67 99.5 46.62 99.52C46.36 99.61 46.1 99.69 45.85 99.78C45.8 99.8 45.75 99.81 45.71 99.83C45.44 99.92 45.18 100.01 44.91 100.1C44.88 100.11 44.85 100.12 44.82 100.13C42.31 101 39.83 101.95 37.37 102.97C34.16 95.22 30.95 87.47 27.74 79.72M38.93 39.23C48.87 36.19 62.38 34.98 62.38 34.98L59.23 25.58C67.71 23.97 90.96 20.64 120.7 25.4L117.46 34.98C117.46 34.98 130.97 36.19 140.91 39.23C140.91 39.23 141.38 53.65 138.3 72.9C132.88 71.23 127.37 69.84 121.81 68.74C111.33 66.67 100.6 65.62 89.92 65.62C79.24 65.62 68.51 66.67 58.03 68.74C52.47 69.84 46.96 71.23 41.54 72.9C38.46 53.65 38.93 39.23 38.93 39.23ZM33.03 39.04L33.17 34.82L37.21 33.59C42.83 31.87 49.36 30.72 54.49 29.99L51.49 21.05L58.14 19.79C63.53 18.76 74.81 17.04 89.84 17.04C100.44 17.04 111.14 17.89 121.65 19.57L128.55 20.67L125.4 29.98C130.52 30.71 137.05 31.86 142.66 33.58L146.7 34.81L146.84 39.03C146.87 39.79 147.3 54.83 144.01 74.76C143.38 74.54 142.75 74.33 142.12 74.11C145.32 54.54 144.9 39.84 144.87 39.09L144.78 36.28L142.09 35.46C135.58 33.47 127.75 32.25 122.78 31.61L125.95 22.25L121.35 21.51C110.94 19.84 100.34 19 89.85 19C74.99 19 63.84 20.7 58.52 21.71L54.09 22.55L57.13 31.61C52.16 32.25 44.32 33.47 37.81 35.46L35.12 36.28L35.03 39.09C35.01 39.84 34.58 54.54 37.78 74.11C37.15 74.32 36.52 74.54 35.89 74.76C32.6 54.83 33.03 39.79 33.06 39.03M57.79 17.78L49.19 19.42L52.16 28.28C44.72 29.43 39.68 30.72 36.69 31.63L31.46 33.23L31.28 38.7C31.26 39.33 30.83 53.93 33.91 73.38L34.2 75.11C31.84 75.96 29.5 76.87 27.19 77.82L25.58 78.49L29.3 87.47L27.71 88.08L8.07001 95.79L26.73 102.97L23.5 121.29L45.48 115.12C47.64 120.21 50.03 125.04 52.62 129.51C61.36 144.62 72.6 156.31 86.02 164.25L89.91 166.55L93.8 164.25C107.22 156.31 118.46 144.63 127.2 129.51C129.79 125.03 132.2 120.18 134.36 115.07L156.5 121.28L153.27 102.96L171.93 95.78L152.42 88.09L150.78 87.41L154.49 78.46L152.88 77.79C150.48 76.8 148.06 75.86 145.61 74.98L145.93 73.23C148.99 53.82 148.57 39.28 148.54 38.66L148.36 33.19L143.13 31.59C138.04 30.04 132.22 28.94 127.68 28.24L130.82 18.95L121.89 17.52C111.29 15.86 100.5 15 89.81 15C74.64 15 63.24 16.74 57.79 17.78Z" fill="white"/>
</mask>
<g mask="url(#mask0_9093_2526)">
<path d="M171.93 15H8.07001V166.56H171.93V15Z" fill="url(#paint0_radial_9093_2526)"/>
</g>
<defs>
<radialGradient id="paint0_radial_9093_2526" cx="0" cy="0" r="1" gradientUnits="userSpaceOnUse" gradientTransform="translate(92.201 92.0065) scale(116.35 151.97)">
<stop stop-color="#FFFFFA"/>
<stop offset="0.07" stop-color="#EFEFEB"/>
<stop offset="0.24" stop-color="#D1D1D0"/>
<stop offset="0.39" stop-color="#BFBFBF"/>
<stop offset="0.49" stop-color="#B9B9BA"/>
<stop offset="0.55" stop-color="#B1B1B2"/>
<stop offset="0.64" stop-color="#9B9D9F"/>
<stop offset="0.75" stop-color="#797C80"/>
<stop offset="0.87" stop-color="#484E54"/>
<stop offset="1" stop-color="#101821"/>
</radialGradient>
</defs>
</svg>
